<?xml version="1.0" encoding="utf-8"?>
<!-- Generator: Adobe Illustrator 28.0.0, SVG Export Plug-In . SVG Version: 6.00 Build 0)  -->
<svg version="1.1" id="レイヤー_1" xmlns="http://www.w3.org/2000/svg" xmlns:xlink="http://www.w3.org/1999/xlink" x="0px"
	 y="0px" viewBox="0 0 184 78" style="enable-background:new 0 0 184 78;" xml:space="preserve">
<style type="text/css">
	.st0{fill:#FFFFFF;}
	.st1{fill:#CF9842;}
	.st2{fill:#8A6551;}
	.st3{fill:#FBD73F;}
</style>
<g>
	<path class="st0" d="M171.6,2.5l-0.4-0.1l-3.9-0.6L166.4,2c-0.2,0.1-0.5,0.1-0.7,0.1c-0.3,0.1-1,0.2-1,0.2l-0.2,0.1
		c-1.6,0.5-4,1.4-6,3.2c-1,0.8-1.7,1.8-2.3,2.8c-0.5-0.1-1.2-0.1-2,0c-0.1,0-0.6,0-0.7,0c-1.6-0.1-2.9,0.2-3.8,0.4
		c-0.2,0-0.4,0.1-0.5,0.1l-2.5,0.5l-0.4,0.1c-0.1,0-0.3,0.1-0.6,0.2c-2.1-2.1-4-2.7-6.2-3.3h-0.1c-0.7-0.2-1.9-0.6-3.4-0.4
		c-0.2,0-0.4,0-0.6,0h-0.1c-0.2,0-0.4,0-0.6,0h-0.1c-2.7-0.1-4.8,1.1-5.8,1.6c-0.9,0.5-1.7,1.1-2.5,1.7c-4.7,4.1-6,11.1-3.2,16.8
		v0.1l0.2,0.4c0.9,1.7,2.2,3.3,3.8,4.4c0.1,0.1,0.2,0.1,0.3,0.2c-0.3,2.1-0.3,4.3,0.1,6.2v0.2v0.2c0.2,0.7,0.3,1.3,0.5,2l0.1,0.4
		c0.2,0.9,0.5,2.1,1.1,3.4v0.1c1.8,3.8,5.4,7,9.2,8.6c0,0.3-0.1,0.5-0.1,0.8c-0.3,3-0.1,5.4,0.5,7.4c1.1,3.3,4.3,6.6,8.5,7.3
		c1.4,3.1,3.3,5.4,5.9,7c1.6,0.9,3.3,1.1,4.3,1.3c1.8,0.2,3.6-0.1,5.4-0.9l0.9-0.4l0.6-0.3l0.5-0.4c0.2-0.1,0.3-0.2,0.5-0.4
		c1-0.9,1.8-2,2.3-3.1c1.5,0.8,3.2,1.3,4.9,1.3c2.5,0,4.8-0.9,6.6-2.5c3.8-3.3,4.3-8.6,3.6-12.5c-0.1-0.6-0.3-1.3-0.5-2
		c0.1-0.2,0.2-0.4,0.3-0.6l0.1-0.3c0.5-1,1.3-2.7,1.3-4.8c-0.1-4-2.3-7.6-4.4-10c0.5-1.2,1-2.7,1.2-4.3c0.4-4.1-0.3-8.5-1.8-12.2
		c0.3-0.5,0.5-0.9,0.6-1.3c0.1-0.2,0.2-0.6,0.3-0.6c0.9-2.4,1.2-5,0.9-7.3c-0.1-0.5-0.2-0.9-0.2-1.2l-0.1-0.2
		c-0.1-0.2-0.1-0.4-0.2-0.6C179.1,7.2,175.7,3.7,171.6,2.5z"/>
	<g>
		<path class="st1" d="M170,7.8c-0.9-0.1-1.7-0.2-2.6-0.4c-0.5,0.1-1,0.2-1.6,0.3c-1.9,0.6-4.4,1.8-5.3,3.8
			c-0.2,0.4-0.4,0.8-0.5,1.2s-0.1,1.3-0.4,1.6c-0.5,0.4-2.9-0.5-3.7-0.3c-0.5-0.1-1.1-0.2-1.5-0.1c-0.2,0-0.5,0-0.7,0s-0.5,0-0.7,0
			c-1.1-0.1-2.2,0.2-3.2,0.4c-0.7,0.1-1.5,0.3-2.2,0.4c-0.6,0.2-3.6,1.4-4,1.3c-0.4-0.1-1.2-1.5-1.5-1.9c-1.4-1.6-2.3-1.9-4.5-2.5
			c-0.5-0.1-1.1-0.4-1.5-0.3c-0.2,0-0.5,0-0.7,0s-0.4,0-0.6,0s-0.4,0-0.6,0c-1.1-0.1-2.2,0.4-3.1,0.9c-6.6,3.7-5.3,14.1,2.3,15.5
			v0.1c0.2,0-0.2,1.2-0.2,1.4c-0.7,2.1-0.9,4.8-0.5,7c0.2,0.7,0.4,1.4,0.5,2.1c0.2,1,0.4,1.9,0.8,2.7c1.4,2.8,4.3,5.4,7.3,6.3
			c0.9,0.3,2.4,0.4,3.1,0.9c0.2,0,0.1,0.3,0,0.4c-0.2,1.6-0.6,3.1-0.8,4.7c-0.2,1.6-0.2,3.7,0.3,5.1c0.6,1.9,2.7,3.7,4.8,3.6
			c0.7,0,1.3-0.3,2-0.6c0-0.2,0.1-0.1,0.2-0.1c0,0.4,0.7,2,0.8,2.5c0.8,2.3,2,4.5,4.2,5.7c0.6,0.4,1.4,0.5,2.2,0.5
			c0.9,0.1,1.7-0.1,2.5-0.4c0.3-0.1,0.6-0.3,1-0.4c1.5-1.2,1.9-3.7,1.8-5.7c0.1,0,0.1,0,0.1-0.1c0.9-0.1,1.9-0.2,2.8-0.4
			c0.4-0.1,1-0.3,1.4-0.2c0.5,0.1,0.9,0.8,1.2,1.2c0.8,1,2.1,1.8,3.6,1.8c4.2-0.1,5.5-4.6,4.8-8.3c-0.3-1.3-1-3.3-1.6-4.5
			c0-0.1,0-0.1-0.1-0.1v-0.1c0.7,0.1,1.6-0.7,1.9-1.3c0.4-0.8,0.9-1.7,0.9-2.5c0-2.6-1.9-5.3-3.4-7c-0.7-0.8-1.4-1.4-2.1-2.2
			c-0.2,0,0.1-0.4,0.2-0.5c0.9-1.6,1.9-3.3,2.2-5.3c0.4-3.5-0.4-7.6-1.8-10.4c-0.3-0.6-0.8-1-1.1-1.6c-0.1,0-0.1,0-0.1-0.1
			c0.2,0,0.5-0.4,0.6-0.5c1.7-1.8,2.5-4.3,2.4-7C175.3,11.7,172.8,8.6,170,7.8z"/>
		<g>
			<g>
				<path class="st2" d="M163.2,29.1c3.4,0.5,2.6,5.3-1,4.5c-1.5-0.3-2.1-2.4-1.1-3.6C161.7,29.3,162.4,29.3,163.2,29.1z"/>
				<path class="st0" d="M155.5,41.8c-1.5,0-3.1,0.4-4.3-0.7c-1.3-1.1-1.7-3.4-1.1-4.9c1.1-3,5.1-4.1,7.9-3.1
					c1.8,0.7,3.2,2.8,3.2,4.8c0,2.5-4.2,3.6-6.1,3.9"/>
				<path class="st2" d="M154.6,34.2c0.8,0.1,1.7,0.6,1.8,1.5c0,0.3-0.1,0.7-0.1,1h0.1c0.7,0.6,3.3,1.2,2.4,2.5
					c-0.6,0.9-1.9,0.1-2.6-0.3c-0.2-0.1-0.5-0.3-0.7-0.4v0.1c-0.5,0.7-0.6,2.2-1.7,2.2c-0.3,0-0.5-0.1-0.7-0.3
					c-0.8-0.8,0.7-2.3,0.7-3.3c0-0.4-0.5-0.9-0.6-1.3c0-0.2,0-0.4,0.1-0.5C153.5,34.7,154,34.5,154.6,34.2z"/>
				<path class="st2" d="M145.5,33.3c0.6,0.1,1.1,0.2,1.6,0.5c2,1.3,0.8,4.4-1.5,4.4c-2.2-0.1-3.1-2.6-1.7-4.1
					C144.3,33.6,145,33.5,145.5,33.3z"/>
				<path class="st0" d="M163.6,48.2c3,0.7,5.1,5.1,4.9,8c-0.2,2.7-4.2,3.8-7.2,4c-3.3,0.3-4.8-3.1-5.2-5.7
					C155.6,51,159.2,47.2,163.6,48.2z"/>
			</g>
			<g>
				<path class="st3" d="M138.5,19.7c0.1-0.1-1-0.7-1.1-0.8c-0.1-0.1-0.3-0.3-0.6-0.5c-0.3-0.2-0.7-0.3-1-0.5
					c-0.2-0.1-0.6-0.3-1.2-0.4c-0.2,0-0.3-0.1-0.5-0.1c-0.4-0.1-0.8-0.3-1.4-0.3c-0.5-0.1-1.1-0.1-1.8,0h-0.4
					c-0.4,0-0.8,0.1-1.1,0.1c-0.4,0.1-0.7,0.2-0.8,0.2c-0.7,0.2-1.2,0.7-1.4,1.3c-0.1,0.2-0.1,0.4-0.1,0.6c-0.1,0.8,0,1.7,0.1,2.6
					c0.1,0.5,0.2,1,0.4,1.5c0,0.2,0.1,0.3,0.2,0.5c0.5,1,1.3,1.8,2.2,2.5c0.5,0.4,1,0.6,1.6,0.9c0.3,0.2,1.3,0.8,1.6,0.5
					c0.1-0.1,0.2-0.2,0.3-0.4c0.5-1,1.1-2.1,1.6-3.1c0.6-1,1.1-1.9,1.8-2.8l0,0l0,0c0.2-0.2,0.3-0.4,0.5-0.6
					C137.8,20.5,138.1,20.1,138.5,19.7z"/>
				<path class="st3" d="M172.9,11.1c-0.5,0-0.9,0-1.3,0.1c-0.3,0.1-0.6,0.2-1,0.3l-0.4,0.1c-0.7,0.2-1.1,0.4-1.5,0.6
					c-0.5,0.3-0.9,0.6-1.2,0.8c-0.1,0.1-0.2,0.2-0.3,0.3c-0.4,0.3-0.7,0.6-0.9,0.9c-0.1,0.1-0.4,0.4-0.6,0.6
					c-0.1,0.1-0.2,0.4-0.3,0.6c-0.2,0.4-0.8,0.8-0.3,1.1c0.1,0.1,0.2,0.1,0.3,0.1c0.5,0.2,1.1,0.5,1.6,0.9c1.5,1.1,3,2.1,4.2,3.5
					c0.3,0.3,0.7,1.5,1.2,1.4c0.6-0.1,1.1-1.2,1.4-1.6c0.3-0.5,0.6-1,0.8-1.5c0.1-0.1,0.2-0.4,0.2-0.4c0.6-1.5,0.8-3.2,0.6-4.6
					c-0.1-0.6-0.3-1.2-0.6-1.8C174.4,11.6,173.7,11.1,172.9,11.1z"/>
			</g>
		</g>
	</g>
</g>
</svg>
