<?xml version="1.0" encoding="utf-8"?>
<!-- Generator: Adobe Illustrator 26.2.1, SVG Export Plug-In . SVG Version: 6.00 Build 0)  -->
<svg version="1.1" id="レイヤー_1" xmlns="http://www.w3.org/2000/svg" xmlns:xlink="http://www.w3.org/1999/xlink" x="0px"
	 y="0px" viewBox="0 0 182.1087036 107.7657852" style="enable-background:new 0 0 182.1087036 107.7657852;" xml:space="preserve">
<style type="text/css">
	.st0{fill:#FFFFFF;}
	.st1{fill:#E84E6A;}
	.st2{fill:#583C32;}
	.st3{fill:#7A382E;}
	.st4{fill-rule:evenodd;clip-rule:evenodd;fill:#7A382E;}
	.st5{fill-rule:evenodd;clip-rule:evenodd;fill:#583C32;}
	.st6{fill:#0091B5;}
</style>
<g>
	<g>
		<g>
			<path class="st0" d="M27.2051983,34.4430504c-10.3503056,0-18.7705917,8.4202728-18.7705917,18.7689705
				c0,10.3519363,8.4202852,18.772049,18.7705917,18.772049c10.3486958,0,18.7688084-8.4201126,18.7688084-18.772049
				C45.9740067,42.8633232,37.553894,34.4430504,27.2051983,34.4430504z M27.2051983,59.1115952
				c-3.2522488,0-5.8964806-2.6473274-5.8964806-5.8995743c0-3.2490082,2.6442318-5.8932533,5.8964806-5.8932533
				c3.2490063,0,5.8963299,2.6442451,5.8963299,5.8932533C33.1015282,56.4642677,30.4542046,59.1115952,27.2051983,59.1115952z"/>
		</g>
	</g>
	<g>
		<g>
			<path class="st1" d="M22.6039944,56.8916512c-0.8075905-1.0100937-1.2952766-2.2862511-1.2952766-3.6796303
				c0-1.3552818,0.4654751-2.6030655,1.238205-3.6005135c-3.1509132-5.0002174-6.9286385-7.11866-9.8642387-8.2777596
				c-2.6536369,3.2396049-4.2496977,7.3753204-4.2496977,11.878273c0,4.5031128,1.592968,8.6355858,4.2433739,11.8750229
				C15.7765274,63.9028168,19.54809,61.5277176,22.6039944,56.8916512z"/>
		</g>
	</g>
	<g>
		<g>
			<path class="st1" d="M31.8221283,56.8916512c0.8090515-1.0100937,1.2951279-2.2862511,1.2951279-3.6796303
				c0-1.3552818-0.4654884-2.6030655-1.2380562-3.6005135c3.150753-5.0002174,6.9286537-7.11866,9.8642387-8.2777596
				c2.6536484,3.2396049,4.2495346,7.3753204,4.2495346,11.878273c0,4.5031128-1.592804,8.6355858-4.2432098,11.8750229
				C38.6494331,63.9028168,34.8780327,61.5277176,31.8221283,56.8916512z"/>
		</g>
	</g>
	<g>
		<g>
			<path class="st2" d="M27.2051983,72.7535553c-10.7747841,0-19.5408897-8.7652931-19.5408897-19.5415344
				c0-10.7746239,8.7661057-19.5384598,19.5408897-19.5384598c10.7738132,0,19.5391178,8.7638359,19.5391178,19.5384598
				C46.7443161,63.9882622,37.9790115,72.7535553,27.2051983,72.7535553z M27.2051983,35.2125397
				c-9.9252014,0-18.0002899,8.0750885-18.0002899,17.9994812c0,9.9260101,8.0750895,18.0025635,18.0002899,18.0025635
				c9.9242306,0,17.9985065-8.0765533,17.9985065-18.0025635C45.2037048,43.2876282,37.1294289,35.2125397,27.2051983,35.2125397z
				 M27.2051983,59.8810806c-3.6757431,0-6.6667919-2.9908867-6.6667919-6.6690598
				c0-3.6749344,2.9910488-6.6627426,6.6667919-6.6627426c3.675581,0,6.6666317,2.9878082,6.6666317,6.6627426
				C33.87183,56.8901939,30.8807793,59.8810806,27.2051983,59.8810806z M27.2051983,48.0884209
				c-2.8263226,0-5.126194,2.2988968-5.126194,5.1236c0,2.8277779,2.2998714,5.130085,5.126194,5.130085
				c2.8261604,0,5.1260319-2.3023071,5.1260319-5.130085C32.3312302,50.3873177,30.0313587,48.0884209,27.2051983,48.0884209z"/>
		</g>
	</g>
</g>
<g>
	<g>
		<path class="st3" d="M175.5302277,75.4474564c-0.0621033-0.3886948-0.0574799-0.3732452-0.2985687-0.8926773
			c-0.1321716-0.2953796-0.6033478-0.7152863-1.133606-0.8396454c-0.2549286-0.0590744-1.1630554-0.3546143-2.74617-0.3079605
			c-1.5799408,0.0404434-2.7539825,0.5878983-3.0136871,1.1850281c-0.054306,0.1305771-0.0995331,0.2611465-0.1351929,0.4011154
			c-1.6592407-1.2813644-3.4878998-1.0697403-4.615448-0.5410843c-2.2687836-1.3933105-12.9953461,0.2052536-13.3436737,0.4199066
			v0.5410843c-0.1368408-0.9734116-0.5458221-1.8598709-1.1569519-2.5906067l0.5131683,0.4944305
			c0.4058533-0.0871048,9.1762543-6.217041,9.7531738-8.7423553c1.1973419-0.3856659,2.6513214-1.4742012,2.8799896-3.5082779
			c0.1523895,0.0995216,0.3047791,0.1835976,0.4415588,0.2302551c0.5162354,0.1834373,0.8474426,0.0995216,1.4804077-0.283123
			c1.7944336-1.0729294,2.5455475-2.1148071,3.0525513-3.2157593c0.3031769-0.6718178,0.205246-1.3186302-0.0077972-1.7820053
			c-0.2457123-0.5100327-0.7651367-0.9423561-1.0667267-1.1538239c-0.3296204-0.2394905-0.3125763-0.2270699-0.8676758-0.4323235
			c-0.3141632-0.1181526-0.9485626-0.0964966-1.4197388,0.1772308c-0.2254791,0.1305733-1.0885468,0.5410805-2.1708679,1.648407
			c-1.0869446,1.0977669-1.5130463,2.2858238-1.2549286,2.8829575c0.0558929,0.1275482,0.125946,0.2519112,0.2036591,0.3762741
			c-2.1194763,0.2114639-3.2577667,1.6079597-3.6667328,2.752388c-2.6295624,0.5536613-9.0347595,8.9570007-9.1233978,9.348877
			l0.4229736,0.4043045c-0.6686707-0.5192719-1.4648438-0.8893356-2.3387756-1.0635376h0.3141022
			c0.2254944-0.3359833,1.9095917-10.630249,0.4634094-12.8041344c0.5582733-1.0855064,0.7837524-2.8456955-0.5535889-4.4318428
			h-0.0093384c0.1835022-0.0342369,0.357666-0.0808907,0.4945068-0.1399689
			c0.5038452-0.2208595,0.6733246-0.5038223,0.8397369-1.2036629c0.4742737-1.9780235,0.2394714-3.2219696-0.2161713-4.3509521
			c-0.2783356-0.674839-0.8210449-1.0667191-1.3202209-1.2503166c-0.5442657-0.1958618-1.2315826-0.1523895-1.5985718-0.0963364
			c-0.4074249,0.0590744-0.3903198,0.0590744-0.9361267,0.282959c-0.3032379,0.1307335-0.7370911,0.584713-0.8677216,1.0917206
			c-0.0653076,0.2457008-0.3716431,1.122612-0.3218842,2.6372604c0.0419922,1.5146484,0.6142426,2.6466522,1.233139,2.8923531
			c0.1352844,0.0560532,0.2736816,0.0995216,0.4198608,0.1337585c-1.3388824,1.5861473-1.1149597,3.3402863-0.5582581,4.4288216
			c-1.457077,2.1738815,0.2037048,12.4651184,0.429184,12.8071594c-0.5800171,0.1089172-1.1273956,0.3109818-1.6265564,0.5847092
			c-0.1352844-0.4727707-6.4689484-8.7735596-9.0922852-9.3302498c-0.4074249-1.1476097-1.5426025-2.5471306-3.6589966-2.7616196
			c0.101059-0.1461792,0.1881409-0.2923584,0.2410278-0.4230919c0.1897125-0.5006371,0.1057281-0.8178329-0.2923584-1.4243622
			c-1.1196136-1.719902-2.2035294-2.4444237-3.3557587-2.929615c-0.6966553-0.2923584-1.3668747-0.1990433-1.8550949,0.0124207
			c-0.5302505,0.2270699-0.976593,0.7308922-1.1990433,1.0168762c-0.245697,0.320385-0.2316895,0.301754-0.4493637,0.8366241
			c-0.1259537,0.2985687-0.0995255,0.9082794,0.1834412,1.3592377c0.1353455,0.2206993,0.5644913,1.0449028,1.7120972,2.0867805
			c1.1492081,1.045063,2.3823242,1.4523888,3.0074844,1.2066879c0.1337585-0.0558929,0.2643661-0.1213379,0.3949814-0.1958618
			c0.2177124,2.0339165,1.6701126,3.1256409,2.8628159,3.5175171c0.5769348,2.5221329,9.0005493,8.521492,9.6147919,8.7237167
			c-0.3110046,0.4571686-0.5473785,0.9640121-0.7013245,1.5020752c-0.615799-0.2767563-10.9318848-1.7601929-13.1945114-0.3700638
			c-1.1304169-0.5380554-2.9670334-0.7557373-4.623085,0.5286636c-0.0358276-0.1710205-0.082489-0.3358307-0.1429977-0.4633789
			c-0.2286606-0.4820099-0.5226059-0.6468124-1.2549362-0.8086014c-2.0557251-0.4571609-3.3557281-0.2332764-4.5283356,0.2084427
			c-0.7044601,0.264328-1.1117859,0.7899704-1.3062134,1.2657623c-0.2020721,0.5224533-0.1523895,1.1818466-0.0963364,1.5363083
			c0.0621033,0.3918762,0.0590744,0.3732452,0.2985687,0.8956985c0.132164,0.2955399,0.6033401,0.7122574,1.1320038,0.8366241
			c0.2581177,0.0590744,1.169426,0.3546143,2.7493591,0.3141708c1.5767517-0.0436325,2.752388-0.5941086,3.0121002-1.1912384
			c0.0542984-0.1273956,0.1009598-0.2581253,0.1367874-0.3980942c1.6530228,1.2813721,3.4848709,1.0730896,4.6152802,0.5350342
			c2.2626495,1.3963394,12.468338-0.0342331,13.1463318-0.3203812c0.1290741,0.5442657,0.3467865,1.0542984,0.6375732,1.5208588
			c-0.6904449,0.2519073-8.9772186,6.1547699-9.5587921,8.677063c-1.1942749,0.3886948-2.6513367,1.4804153-2.8721695,3.5081177
			l0.0124588,0.0124207c-0.1571198-0.1025467-0.3157196-0.1896439-0.4571228-0.2393265
			c-0.5163956-0.1836014-0.8460159-0.1027069-1.4835968,0.282959c-1.7913971,1.0729294-2.542511,2.1148071-3.0463333,3.2189484
			c-0.3031845,0.6686325-0.2052536,1.3124161,0.0062103,1.7820053c0.2426758,0.5070038,0.7635345,0.9393311,1.0621033,1.150795
			c0.3281784,0.2363052,0.3157578,0.2238846,0.8708572,0.4291382c0.3141708,0.1181564,0.9517517,0.0933151,1.4197464-0.174202
			c0.2286606-0.1337585,1.0885315-0.5442657,2.170845-1.6452255c1.0854034-1.0977631,1.5146027-2.2890091,1.2533569-2.8861389
			c-0.0559845-0.1305771-0.1244202-0.2549362-0.2021637-0.3794632c2.1210632-0.2082748,3.2562561-1.6047745,3.6652222-2.7491989
			c2.6295624-0.5536652,8.8030396-8.5030212,9.0611877-9.1622543c0.4851685,0.2767487,1.0185394,0.4882126,1.5845795,0.6125793
			c-0.2907867,0.6033401-1.8271637,10.4902802-0.379425,12.6643219c-0.5629272,1.08535-0.78685,2.8394852,0.5520325,4.4318466
			c-0.1803894,0.0340729-0.3483276,0.0807266-0.4836121,0.1399689c-0.5022736,0.2176743-0.6733398,0.5038147-0.8443909,1.2034988
			c-0.4711761,1.9780273-0.237915,3.2283401,0.216156,4.3509521c0.2767944,0.6780243,0.8257141,1.0699081,1.3202209,1.2503204
			c0.5473785,0.1958618,1.233139,0.1523895,1.6016998,0.0933075c0.4058533-0.0528641,0.3856354-0.0560455,0.9314575-0.2799301
			c0.3094482-0.1275482,0.741745-0.5815277,0.8739166-1.0915604c0.0622101-0.2488861,0.3685455-1.1197433,0.3234558-2.6404495
			c-0.0450897-1.5146484-0.6188965-2.6436234-1.2378082-2.889328c-0.1352844-0.0528641-0.2736816-0.0963364-0.4198608-0.1337585
			c1.3373413-1.5891724,1.1180725-3.3463364,0.5613708-4.4318466c1.4523926-2.1708527-0.0995331-12.17276-0.3809814-12.7140045
			c0.5675812-0.1461792,1.0978546-0.373085,1.5767975-0.6716537c0.1352844,0.4695892,6.467392,8.7765884,9.0953979,9.3300934
			c0.3996429,1.1476059,1.5394897,2.5441055,3.6512909,2.7617798c-0.10112,0.1461792-0.1882172,0.2923584-0.2394867,0.4229279
			c-0.1898193,0.4914017-0.1057434,0.8149719,0.2953796,1.4213409c1.1195831,1.7229233,2.2019043,2.4445801,3.3573151,2.9297714
			c0.6920471,0.2891769,1.3668823,0.1958618,1.852066-0.0125809c0.5318604-0.2300949,0.9796295-0.7307281,1.2036743-1.0138474
			c0.240921-0.3202286,0.2268982-0.3015976,0.4477692-0.8366241c0.1213379-0.2985687,0.0995178-0.9143295-0.1850433-1.3652878
			c-0.1337433-0.2144928-0.5675049-1.0418777-1.7136841-2.0837555c-1.1460266-1.0386963-2.3807373-1.4492035-3.0058899-1.2035065
			c-0.1351929,0.0528717-0.2659302,0.1211777-0.3949127,0.1958618c-0.2208557-2.0339127-1.6700592-3.1318436-2.8659515-3.5205383
			c-0.5722351-2.5192642-9.3317566-8.677063-9.7360535-8.7611465l-0.0715485,0.0684738
			c0.387207-0.6065292,0.6500092-1.2907639,0.7557526-2.0246811v0.4199066
			c0.349884,0.2144928,11.0717926,1.8318481,13.3405762,0.4415588c1.1305695,0.5380554,2.9592285,0.7527084,4.615448-0.5256348
			c0.0356598,0.1711731,0.0823212,0.3328018,0.144577,0.4635315c0.2286682,0.4820099,0.5272369,0.6437912,1.2549438,0.8054123
			c2.0603485,0.4571686,3.3589172,0.233284,4.5313568-0.2082748c0.7028656-0.2644958,1.1117859-0.7869415,1.2984161-1.2659225
			C175.6345215,76.4582825,175.5878601,75.801918,175.5302277,75.4474564z"/>
		<path class="st2" d="M144.9707489,46.6326637c0.3110046,0,0.6570129,0.0342369,0.9594574,0.1429939
			c0.499176,0.1835976,1.0418854,0.5754776,1.3202209,1.2503166c0.4556427,1.1289825,0.6904449,2.3729286,0.2161713,4.3509521
			c-0.1664124,0.6998405-0.3358917,0.9828033-0.8397369,1.2036629c-0.1368408,0.0590782-0.3110046,0.105732-0.4945068,0.1399689
			h0.0093384c1.3373413,1.5861473,1.1118622,3.3463364,0.5535889,4.4318428
			c1.4461823,2.1738853-0.237915,12.4681511-0.4634094,12.8041344h-0.3141022
			c0.8739319,0.174202,1.670105,0.5442657,2.3387756,1.0635376l-0.4229736-0.4043045
			c0.0886383-0.3918762,6.4938354-8.7952156,9.1233978-9.348877c0.4089661-1.1444283,1.5472565-2.5409241,3.6667328-2.752388
			c-0.077713-0.1243629-0.1477661-0.2487259-0.2036591-0.3762741c-0.2581177-0.5971336,0.167984-1.7851906,1.2549286-2.8829575
			c1.0823212-1.1073265,1.9453888-1.5178337,2.1708679-1.648407c0.29776-0.1726112,0.6608276-0.2457008,0.9671936-0.2457008
			c0.1780243,0,0.3366241,0.0248413,0.4525452,0.06847c0.5550995,0.2052536,0.5380554,0.1928329,0.8676758,0.4323235
			c0.30159,0.2114677,0.8210144,0.6437912,1.0667267,1.1538239c0.2130432,0.4633751,0.3109741,1.1101875,0.0077972,1.7820053
			c-0.5070038,1.1009521-1.2581177,2.1428299-3.0525513,3.2157593c-0.4199066,0.2535057-0.7068481,0.3764343-1.0038147,0.3764343
			c-0.1500092,0-0.3031921-0.031208-0.476593-0.0933113c-0.1367798-0.0466576-0.2891693-0.1307335-0.4415588-0.2302551
			c-0.2286682,2.0340767-1.6826477,3.122612-2.8799896,3.5082779c-0.5769196,2.5253143-9.3473206,8.6552505-9.7531738,8.7423553
			l-0.5131683-0.4944305c0.6111298,0.7307358,1.0201111,1.6171951,1.1569519,2.5906067V74.872139
			c0.2449036-0.1509552,5.6090088-0.9843979,9.5666046-0.9843979c1.6770782,0,3.1022339,0.1492081,3.7770691,0.5644913
			c0.5108337-0.2394867,1.1656036-0.4136887,1.8832855-0.4136887c0.8660736,0,1.8248291,0.2535019,2.7321625,0.9547729
			c0.0356598-0.1399689,0.0808868-0.2705383,0.1351929-0.4011154c0.2597046-0.5971298,1.4337463-1.1445847,3.0136871-1.1850281
			c0.1151276-0.0030289,0.2262726-0.0046158,0.3343964-0.0046158c1.3769073,0,2.1754761,0.2581177,2.4117737,0.3125763
			c0.5302582,0.1243591,1.0014343,0.5442657,1.133606,0.8396454c0.2410889,0.5194321,0.2364655,0.5039825,0.2985687,0.8926773
			c0.0576324,0.3544617,0.1042938,1.0108261-0.1041412,1.5363083c-0.1866302,0.478981-0.5955505,1.0014267-1.2984161,1.2659225
			c-0.7192535,0.2705383-1.486618,0.4601898-2.4476013,0.4601898c-0.6049347,0-1.2875824-0.0746841-2.0837555-0.251915
			c-0.7277069-0.1616211-1.0262756-0.3234024-1.2549438-0.8054123c-0.0622559-0.1307297-0.1089172-0.2923584-0.144577-0.4635315
			c-0.901123,0.6952209-1.8528748,0.9485626-2.7159271,0.9485626c-0.7230835,0-1.3839111-0.1772232-1.8995209-0.4229279
			c-0.6694183,0.4105072-2.0727692,0.5582809-3.7296143,0.5582809c-3.9607544,0-9.3644867-0.8490448-9.6109619-0.9998398v-0.4199066
			c-0.1057434,0.7339172-0.3685455,1.4181519-0.7557526,2.0246811l0.0715485-0.0684738
			c0.4042969,0.0840836,9.1638184,6.2418823,9.7360535,8.7611465c1.1958923,0.3886948,2.6450958,1.4866257,2.8659515,3.5205383
			c0.1289825-0.0746841,0.2597198-0.1429901,0.3949127-0.1958618c0.1175079-0.0466537,0.2566833-0.0684662,0.4120941-0.0684662
			c0.6742096,0,1.6632233,0.4291382,2.5937958,1.2719727c1.1461792,1.0418777,1.5799408,1.8692627,1.7136841,2.0837555
			c0.2845612,0.4509583,0.3063812,1.0667191,0.1850433,1.3652878c-0.220871,0.5350266-0.2068481,0.5163956-0.4477692,0.8366241
			c-0.2240448,0.2831192-0.671814,0.7837524-1.2036743,1.0138474c-0.2675018,0.1151276-0.5933075,0.1944275-0.9469604,0.1944275
			c-0.2877502,0-0.5949097-0.0528641-0.9051056-0.1818466c-1.1554108-0.4851913-2.2377319-1.2068481-3.3573151-2.9297714
			c-0.401123-0.606369-0.485199-0.9299393-0.2953796-1.4213409c0.0512695-0.1305695,0.1383667-0.2767487,0.2394867-0.4229279
			c-2.1118011-0.2176743-3.2516479-1.6141739-3.6512909-2.7617798c-2.628006-0.5535049-8.9601135-8.8605042-9.0953979-9.3300934
			c-0.4789429,0.2985687-1.0092163,0.5254745-1.5767975,0.6716537c0.2814484,0.5412445,1.833374,10.5431519,0.3809814,12.7140045
			c0.5567017,1.0855103,0.7759705,2.8426743-0.5613708,4.4318466c0.1461792,0.0374222,0.2845764,0.0808945,0.4198608,0.1337585
			c0.6189117,0.2457047,1.1927185,1.3746796,1.2378082,2.889328c0.0450897,1.5207062-0.2612457,2.3915634-0.3234558,2.6404495
			c-0.1321716,0.5100327-0.5644684,0.9640121-0.8739166,1.0915604c-0.5458221,0.2238846-0.5256042,0.227066-0.9314575,0.2799301
			c-0.1656342,0.0264359-0.394989,0.0496826-0.6469116,0.0496826c-0.3094482,0-0.6531067-0.0356674-0.9547882-0.1429901
			c-0.4945068-0.1804123-1.0434265-0.5722961-1.3202209-1.2503204c-0.454071-1.122612-0.6873322-2.3729248-0.216156-4.3509521
			c0.171051-0.6996841,0.3421173-0.9858246,0.8443909-1.2034988c0.1352844-0.0592422,0.3032227-0.105896,0.4836121-0.1399689
			c-1.3388824-1.5923615-1.1149597-3.3464966-0.5520325-4.4318466c-1.4477386-2.1740417,0.0886383-12.0609818,0.379425-12.6643219
			c-0.56604-0.1243668-1.099411-0.3358307-1.5845795-0.6125793c-0.2581482,0.6592331-6.4316254,8.6085892-9.0611877,9.1622543
			c-0.4089661,1.1444244-1.5441589,2.5409241-3.6652222,2.7491989c0.0777435,0.124527,0.1461792,0.2488861,0.2021637,0.3794632
			c0.2612457,0.5971298-0.1679535,1.7883759-1.2533569,2.8861389c-1.0823135,1.1009598-1.9421844,1.511467-2.170845,1.6452255
			c-0.2961807,0.1695862-0.6608276,0.2410812-0.9687958,0.2410812c-0.1772232,0-0.3358231-0.023407-0.4509506-0.0668793
			c-0.5550995-0.2052536-0.5426788-0.1928329-0.8708572-0.4291382c-0.2985687-0.2114639-0.8194275-0.6437912-1.0621033-1.150795
			c-0.2114639-0.4695892-0.3093948-1.1133728-0.0062103-1.7820053c0.5038223-1.1041412,1.2549362-2.146019,3.0463333-3.2189484
			c0.4222946-0.2550964,0.7090759-0.3762741,1.0046158-0.3762741c0.150795,0,0.3039856,0.0310516,0.478981,0.0933151
			c0.1414032,0.0496826,0.3000031,0.1367798,0.4571228,0.2393265l-0.0124588-0.0124207
			c0.2208328-2.0277023,1.6778946-3.1194229,2.8721695-3.5081177c0.5815735-2.5222931,8.8683472-8.4251556,9.5587921-8.677063
			c-0.2907867-0.4665604-0.5084991-0.976593-0.6375732-1.5208588c-0.462616,0.1960144-5.356308,0.9221344-9.1397095,0.9221344
			c-1.7641907,0-3.2873535-0.1570053-4.0066223-0.6017532c-0.5130539,0.2441101-1.1700592,0.4199066-1.8901215,0.4199066
			c-0.8660889,0-1.8224564-0.2550964-2.7251587-0.9549408c-0.0358276,0.1399689-0.082489,0.2706985-0.1367874,0.3980942
			c-0.2597122,0.5971298-1.4353485,1.1476059-3.0121002,1.1912384c-0.1003189,0.0030289-0.1982498,0.0030289-0.2931519,0.0030289
			c-1.4003143,0-2.2143326-0.2611465-2.4562073-0.3171997c-0.5286636-0.1243668-0.9998398-0.5410843-1.1320038-0.8366241
			c-0.2394943-0.5224533-0.2364655-0.5038223-0.2985687-0.8956985c-0.0560532-0.3544617-0.1057358-1.013855,0.0963364-1.5363083
			c0.1944275-0.4757919,0.6017532-1.0014343,1.3062134-1.2657623c0.7192612-0.2706985,1.486618-0.46035,2.4476089-0.46035
			c0.6049347,0,1.2861404,0.0746841,2.0807266,0.2519073c0.7323303,0.1617889,1.0262756,0.3265915,1.2549362,0.8086014
			c0.0605087,0.1275482,0.1071701,0.2923584,0.1429977,0.4633789c0.9011154-0.6980896,1.8550949-0.953186,2.7197418-0.953186
			c0.7254791,0,1.3878937,0.1788177,1.9033432,0.4245224c0.7020721-0.4307327,2.1786423-0.5863113,3.9000778-0.5863113
			c3.8292694,0,8.8699188,0.7651291,9.2944336,0.9563751c0.1539459-0.538063,0.3903198-1.0449066,0.7013245-1.5020752
			c-0.6142426-0.2022247-9.0378571-6.2015839-9.6147919-8.7237167c-1.1927032-0.3918762-2.6451035-1.4836006-2.8628159-3.5175171
			c-0.1306152,0.0745239-0.2612228,0.1399689-0.3949814,0.1958618c-0.1181488,0.0466576-0.2573242,0.0700645-0.4136963,0.0700645
			c-0.6732483,0-1.6614609-0.4292984-2.5937881-1.2767525c-1.1476059-1.0418777-1.5767517-1.8660812-1.7120972-2.0867805
			c-0.2829666-0.4509583-0.3093948-1.0606689-0.1834412-1.3592377c0.2176743-0.5348701,0.2036667-0.5162392,0.4493637-0.8366241
			c0.2224503-0.285984,0.6687927-0.7898064,1.1990433-1.0168762c0.2689514-0.1167183,0.5931549-0.1974525,0.9469757-0.1974525
			c0.287735,0,0.5955429,0.0542984,0.9081192,0.1850319c1.1522293,0.4851913,2.236145,1.209713,3.3557587,2.929615
			c0.3980865,0.6065292,0.4820709,0.9237251,0.2923584,1.4243622c-0.052887,0.1307335-0.1399689,0.2769127-0.2410278,0.4230919
			c2.116394,0.214489,3.2515717,1.6140099,3.6589966,2.7616196c2.6233368,0.5566902,8.9570007,8.8574791,9.0922852,9.3302498
			c0.4991608-0.2737274,1.0465393-0.4757919,1.6265564-0.5847092c-0.2254791-0.342041-1.886261-10.6332779-0.429184-12.8071594
			c-0.5567017-1.0885353-0.7806244-2.8426743,0.5582581-4.4288216c-0.1461792-0.0342369-0.2845764-0.0777054-0.4198608-0.1337585
			c-0.6188965-0.2457008-1.1911469-1.3777046-1.233139-2.8923531c-0.0497589-1.5146484,0.2565765-2.3915596,0.3218842-2.6372604
			c0.1306305-0.5070076,0.5644836-0.9609871,0.8677216-1.0917206c0.5458069-0.2238846,0.5287018-0.2238846,0.9361267-0.282959
			C144.4949188,46.65448,144.7211761,46.6326637,144.9707489,46.6326637 M144.9707489,45.1833L144.9707489,45.1833
			c-0.3623199,0-0.6663208,0.0358276-0.8575897,0.0638542c-0.5108337,0.0745239-0.6360168,0.1149673-1.1748352,0.3374214
			l-0.0925293,0.037262c-0.7953949,0.3436279-1.4936066,1.1912384-1.7206421,2.0713348
			c-0.1251831,0.4323235-0.4190826,1.4493637-0.3669891,3.0463371c0.0396576,1.4151268,0.4548492,2.6404419,1.1188507,3.424202
			c-0.6274567,1.4057312-0.5489349,2.8378944-0.149292,3.9792976c-0.7658539,2.3589134-0.4151917,7.221653,0.0746613,10.4668694
			c-2.0130005-2.6216507-5.3812103-6.4144859-7.7090912-7.5372543c-0.5466003-1.0635338-1.5231781-2.1148071-2.9654694-2.6792984
			c-0.0411987-0.6125793-0.309433-1.1211777-0.6165619-1.5891724c-1.1204071-1.7214928-2.3185577-2.7601891-4.0042572-3.469265
			c-0.4719772-0.1990433-0.9664001-0.2985649-1.4702225-0.2985649c-0.5178375,0-1.0442657,0.108757-1.5224533,0.3156052
			c-0.7851868,0.3374176-1.3947449,0.9781837-1.7671967,1.4571648c-0.3335953,0.4353485-0.3926773,0.5550957-0.6151276,1.1009521
			l-0.0318451,0.0792999c-0.3242035,0.7665596-0.2044601,1.8737259,0.2977676,2.6746826
			c0.2254791,0.3840752,0.7613068,1.2952194,1.9656067,2.3899651c1.0699005,0.9719734,2.2657623,1.561306,3.3208542,1.6421967
			c0.5831223,1.433754,1.6925812,2.3963394,2.8106537,2.92659c1.1483917,2.2205429,4.8540497,5.2917175,7.5045929,7.2106628
			c-2.0782928-0.269104-4.759964-0.5022278-6.7776031-0.5022278c-2.068985,0-3.2314301,0.2160873-3.9373245,0.4617844
			c-0.5007935-0.1648102-1.1335983-0.3001556-1.8668747-0.3001556c-0.759552,0-1.5014343,0.1477661-2.1980896,0.4355087
			c-0.4874191-0.4355087-1.0697403-0.6019135-1.6070023-0.7200623c-0.8638535-0.1928406-1.6476135-0.2861481-2.3933105-0.2861481
			c-1.0168839,0-1.9562149,0.1757965-2.9576416,0.5520706c-0.9820099,0.3684692-1.7407684,1.1055679-2.1366272,2.0743561
			c-0.3420334,0.8832855-0.2627335,1.8240509-0.1866226,2.3092346c0.0848694,0.5334396,0.1315308,0.6609879,0.3826447,1.2082825
			c0.3646469,0.8133774,1.2377396,1.4944229,2.1466522,1.7074814l0.0855103,0.0218201
			c0.386467,0.1009521,1.2921982,0.3358231,2.7027054,0.3358231c0.1065292,0,0.2168808-0.0015869,0.3304138-0.0046158
			c1.4974518-0.042038,2.7578049-0.4447479,3.556366-1.1041412c0.7214966,0.3109894,1.4912415,0.4711838,2.2804184,0.4711838
			c0.727066,0,1.3536606-0.1337585,1.8504715-0.2969742c0.7192688,0.2549362,1.9104385,0.4789734,4.0462723,0.4789734
			c2.0876312,0,4.6262207-0.2224503,6.5964661-0.4743576c-2.6249084,1.894104-6.3359985,4.9418716-7.4875031,7.1874161
			c-1.1025085,0.5194244-2.1964722,1.4585953-2.7889938,2.8550949c-0.6437836,0.0248413-1.1732483,0.2937851-1.6514282,0.5831223
			c-1.7867813,1.0697403-2.8697433,2.2251511-3.6138535,3.8563614c-0.4339142,0.9563675-0.4323273,2.0122604,0.0030289,2.9780273
			c0.4058914,0.8504791,1.1413956,1.4523849,1.5450592,1.738533c0.4237289,0.3047791,0.5566864,0.3652878,1.1079636,0.5691071
			l0.0979309,0.037262c0.2743607,0.1027069,0.5979233,0.1570053,0.9531784,0.1570053
			c0.6003189,0,1.1996841-0.1538239,1.6872635-0.4321671l0.0785065-0.0452194
			c0.3546143-0.1942673,1.2961121-0.7121048,2.4064026-1.8426743c1.0146637-1.0262756,1.6188049-2.1770706,1.7237549-3.1955414
			c1.4788513-0.5536575,2.4787292-1.6157608,3.0369873-2.6902847c2.3457794-1.103981,5.6626587-4.8267517,7.6507721-7.3692627
			c-0.4727325,3.14888-0.8661652,7.9523849-0.0404205,10.3533401c-0.3926544,1.1181488-0.4750671,2.5146484,0.1174011,3.8953781
			c-0.4027557,0.4463348-0.5893707,0.9843979-0.7207642,1.5224533c-0.4781799,2.0074844-0.3942108,3.5703812,0.2799072,5.2374191
			c0.3903046,0.9562073,1.1794891,1.7073212,2.1669464,2.0681458c0.4307404,0.1539841,0.9159088,0.2300949,1.4508362,0.2300949
			c0.3724365,0,0.6818848-0.0356674,0.8762665-0.0668793c0.4711761-0.0620956,0.6142426-0.108757,1.1188507-0.3156052
			l0.1329498-0.0544586c0.7853088-0.3234024,1.4944-1.1740417,1.7261047-2.0681458l0.021759-0.0808945
			c0.108078-0.3824844,0.3942108-1.3979263,0.3475494-2.9670334c-0.0427704-1.4181519-0.4587402-2.6434708-1.1235199-3.4272308
			c0.6282349-1.4042969,0.5520325-2.8318481,0.1562958-3.9700623c0.8117218-2.3993607,0.420639-7.26194-0.052887-10.4374161
			c2.0153351,2.6171951,5.3656464,6.3818436,7.6810913,7.5015945c0.5419464,1.0619354,1.5153961,2.1132126,2.9592438,2.6792908
			c0.0427704,0.6095581,0.3148956,1.1211777,0.6266479,1.5923615c1.1157684,1.716713,2.3146515,2.7554092,4.004303,3.4660797
			c0.469574,0.1960144,0.9617767,0.2955399,1.4656067,0.2955399c0.5178223,0,1.0426636-0.1089172,1.5184631-0.3125763
			c0.7845612-0.3406067,1.394104-0.9734116,1.7679901-1.4461823c0.3375854-0.4479294,0.3958588-0.5644913,0.6165619-1.1009521
			l0.0342407-0.0824814c0.3235626-0.7961807,0.1990356-1.9001617-0.2993622-2.6901321
			c-0.230896-0.3888474-0.7703857-1.2969742-1.9640198-2.3823242c-1.0550842-0.9563675-2.2757874-1.5550919-3.3191071-1.6390076
			c-0.5870972-1.4477692-1.7050934-2.4119415-2.8286591-2.9390106c-1.167038-2.1662445-4.9107971-5.3121033-7.6305542-7.2699051
			c2.2493591,0.2985687,5.1464081,0.5412445,7.0964813,0.5412445c1.6676788,0,2.8899689-0.1399689,3.7576447-0.4369431
			c0.5015869,0.1664047,1.1359863,0.3031845,1.8714905,0.3031845c0.7573242,0,1.4982452-0.1492004,2.1949005-0.4353485
			c0.4867859,0.433754,1.0683136,0.6001587,1.606369,0.719902c0.8676758,0.1928329,1.6522369,0.2861481,2.397934,0.2861481
			c1.0170288,0,1.9562073-0.1757965,2.9584351-0.5520706c0.9828033-0.3700638,1.7625732-1.1351929,2.1374207-2.0961761
			c0.3428345-0.8646469,0.2627411-1.8084412,0.1842346-2.2936325c-0.0863037-0.5380554-0.1353455-0.6671982-0.3996735-1.2378922
			c-0.3482513-0.7773895-1.2223053-1.4586029-2.1318512-1.6730881c-0.4565277-0.1183167-1.3474579-0.3500061-2.7423553-0.3500061
			c-0.1221313,0-0.2472992,0.0015945-0.3770752,0.0047836c-1.4960175,0.0388489-2.7563629,0.4415588-3.5555725,1.0993576
			c-0.7224426-0.3079605-1.4928284-0.4695816-2.2827911-0.4695816c-0.7246857,0-1.350647,0.132164-1.845871,0.2937851
			c-0.6888428-0.2363052-1.8178253-0.4431534-3.8136902-0.4431534c-1.9586029,0-4.8665314,0.2426758-7.1112213,0.53965
			c2.7174225-1.9345474,6.5630188-5.0663986,7.7488098-7.2823181c1.1071625-0.516243,2.2089081-1.4570084,2.806839-2.861145
			c0.6421967-0.026432,1.1716614-0.2955399,1.6482544-0.5831223c1.7843933-1.0668755,2.8683014-2.2191048,3.6194153-3.8487244
			c0.4321747-0.9595528,0.4275513-2.0464935-0.0077972-2.9934692c-0.4105072-0.8536606-1.1476135-1.4523888-1.5511169-1.735508
			c-0.4230804-0.3062096-0.5474548-0.3638535-1.1189423-0.5753174l-0.077713-0.0294609
			c-0.2761078-0.1027069-0.5995178-0.1571655-0.9547729-0.1571655c-0.6033478,0-1.2044525,0.1571655-1.6950684,0.4417229
			c-0.4159241,0.2269096-1.3606567,0.743309-2.478653,1.8877373c-1.0108337,1.0200615-1.6149292,2.1708565-1.7206726,3.1893272
			c-1.4842834,0.5552559-2.4872742,1.6235657-3.0439758,2.7011147c-2.2905731,1.1181526-5.6727753,4.8735657-7.7121887,7.5186234
			c0.5038147-3.2421951,0.8746948-8.1281776,0.1057281-10.5011063c0.3949738-1.1195869,0.4804993-2.5222931-0.1111755-3.9047737
			c0.4276276-0.4679947,0.596344-1.021656,0.7184143-1.5347137c0.4774017-1.9904442,0.3934326-3.5549355-0.2822418-5.2265892
			c-0.4004211-0.9718132-1.1670532-1.7027054-2.1630402-2.0681534C145.9978485,45.2611694,145.5103455,45.1833,144.9707489,45.1833
			L144.9707489,45.1833z"/>
	</g>
	<g>
		<path class="st4" d="M122.88694,78.5294647c0.0628967-12.729454,8.4539261-22.0348625,19.4425888-23.3052444
			c11.0562897-1.2767525,21.4929047,5.9184685,24.0307922,16.5703735
			c2.5984039,10.9023819-4.6294556,22.2106552-16.013031,24.9552383c-6.3305511,1.5270691-12.3944092,0.7262726-17.9264526-2.752388
			C126.1291351,90.0413971,122.9926758,84.2178345,122.88694,78.5294647z M144.7188416,60.6544724
			c-9.0814209-0.004776-16.4017334,7.0178299-16.341095,15.6778564c0.0598755,8.6458588,7.2736816,15.5363007,16.2913361,15.5627289
			c9.0005341,0.0280304,15.7874298-6.5031815,15.8332825-15.2347031
			C160.5490265,67.7686386,153.538208,60.6590881,144.7188416,60.6544724z"/>
		<path class="st5" d="M121.3560486,77.8966599c0.0022278-13.1463318,9.2811737-23.2073135,21.7603302-24.1917076
			c11.8812408-0.9377365,22.7447357,7.0490417,24.9442596,18.7692604
			c2.1880646,11.6597061-6.0482483,23.5292816-18.1604156,25.8975983
			c-8.2619019,1.6156006-15.729187-0.1291428-21.9640961-5.9823227
			C123.493309,88.2189484,121.4625778,82.9364624,121.3560486,77.8966599z M122.88694,78.5294647
			c0.1057358,5.6883698,3.2421951,11.5119324,9.5338974,15.4679794c5.5320435,3.4786606,11.5959015,4.2794571,17.9264526,2.752388
			c11.3835754-2.7445831,18.6114349-14.0528564,16.013031-24.9552383
			c-2.5378876-10.6519051-12.9745026-17.847126-24.0307922-16.5703735
			C131.3408661,56.4946022,122.9498367,65.8000107,122.88694,78.5294647z"/>
		<path class="st5" d="M144.7188416,60.6544724c8.8193665,0.0046158,15.8301849,7.1141663,15.7835236,16.0058823
			c-0.0458527,8.7315216-6.8327484,15.2627335-15.8332825,15.2347031
			c-9.0176544-0.0264282-16.2314606-6.9168701-16.2913361-15.5627289
			C128.3171082,67.6723022,135.6374207,60.6496964,144.7188416,60.6544724z M159.0026093,76.6447525
			c0.0225372-8.0737228-6.3740997-14.5705376-14.331192-14.5550919c-8.09552,0.0156059-14.8054962,6.4332809-14.8132629,14.1695786
			c-0.007019,7.7439423,6.6353302,14.125946,14.7813721,14.1988754
			C152.7218323,90.5312042,158.9816132,84.5117874,159.0026093,76.6447525z"/>
	</g>
</g>
<path class="st6" d="M107.0193939,39.5849838c0.2835846-1.1273193,0.1441498-2.4097977-0.0363159-3.6480179
	c-0.4212265-2.90382-1.4757462-4.3826466-1.4757462-4.3826466c-0.3704605-0.5003452-1.0290604-0.7662449-1.6307449-0.5827103
	c-0.5827103,0.1773758-1.238205,0.6683178-1.8841553,1.5992908c0,0-0.5463943,0.7758141-1.5136795,1.7638588
	c-0.4782944,0.5129929-1.4345703,1.2824783-2.071106,1.7954712c-0.4004745,0.2754669-0.8043518,0.589035-1.2445297,0.842289
	c-0.446373,0.2438469-0.8834839,0.512989-1.3552933,0.6871223c-0.4559174,0.2185593-0.9389114,0.3673973-1.4123383,0.4940224
	c-0.4575577,0.1742935-0.9499588,0.1963463-1.4027939,0.2850342c-0.4434357,0.1235428-0.9246521,0.0633926-1.3395538,0.1013336
	c-0.3578339,0.0444221-0.7030029,0-1.0292282-0.0316162l1.9760895-8.8319321l3.8380432,0.8867111
	c2.3306732,0.5382843,2.7486572,0.3831215,3.290184-2.0140305c0.5810928-2.6030636,0.2279587-2.7296906-2.1057968-3.261652
	l-3.8380356-0.8867111l0.9246445-4.1198292c2.21978-0.5288811,4.0564346-2.2197781,4.582077-4.5663443
	c0.744194-3.3346128-1.409111-6.6658201-4.8069534-7.4511976c-3.3978348-0.7853775-6.7608337,1.2792377-7.5082703,4.6106081
	c-0.5413666,2.4036379,0.4497604,4.8007917,2.3180313,6.2480001l-0.8993607,4.0311413l-3.8378754-0.8803883
	c-2.1565399-0.4971046-2.707634-0.589035-3.290184,2.0107861c-0.5541763,2.4890842,0.1678085,2.8152981,2.1057968,3.268137
	l3.8396606,0.8802261l-1.9807968,8.831934c-6.1782761-1.8556252-7.6459198-10.0320492-7.6459198-10.0320492
	c-0.1948853-1.1209965-0.5906525-1.8462219-1.0467377-2.2578812c-0.4622421-0.4273853-1.1715775-0.4685669-1.7161865-0.1741314
	c0,0-1.5707474,0.8834686-3.1668015,3.3344498c-0.6838837,1.0418739-1.3426361,2.1438999-1.5548706,3.2871075
	c0,0-0.2691422,0.8518543,0.1932678,1.1336422c0.4718094,0.2817879,1.0814362,0.0854454,1.0814362,0.0854454l3.7097855-0.6775589
	c0.6681671,3.8474426,2.2134552,6.5169792,3.5593338,8.2047958c0,0,1.8588638,2.3021431,5.3262634,3.7842102
	c0.4924164,0.2122345,1.1146774,0.417984,1.9032974,0.6491852c0,0,0.8771439,0.2469292,1.3236618,0.3070831
	c1.656044,0.2819519,2.4256897,0.2819519,3.1064911,0.2723846c0.8263931,0.0095673,1.2602692-0.0569077,1.8666458-0.1139793
	c0,0,5.8141327-0.8740654,10.1888351-7.0774803l2.9957504,2.1500626c0,0,0.4750519,0.4434357,1.0196609,0.386364
	C106.9102783,40.4686165,107.0193939,39.5849838,107.0193939,39.5849838z M92.6664734,16.3795395
	c-1.1748123-0.2754669-1.9190063-1.4280777-1.6656036-2.5776081c0.2595749-1.1526117,1.4217529-1.8682718,2.599823-1.5991287
	c1.1748199,0.275465,1.9220963,1.4313192,1.6625214,2.5808506C95.0051041,15.9331837,93.841301,16.6488438,92.6664734,16.3795395z"
	/>
</svg>
