<?xml version="1.0" encoding="utf-8"?>
<!-- Generator: Adobe Illustrator 26.0.3, SVG Export Plug-In . SVG Version: 6.00 Build 0)  -->
<svg version="1.1" id="レイヤー_1" xmlns="http://www.w3.org/2000/svg" xmlns:xlink="http://www.w3.org/1999/xlink" x="0px"
	 y="0px" viewBox="0 0 800 800" style="enable-background:new 0 0 800 800;" xml:space="preserve">
<style type="text/css">
	.st0{fill:#FFFFFF;}
</style>
<path class="st0" d="M160,49.7c0-12-9.5-21.6-21.6-22.1c0-0.5,0-0.5,0-1c0-12-10-22.1-22.1-22.1c-6.5,0-12,2.5-16.1,7
	C96.8,4.5,89.8,0,81.3,0c-7.5,0-14.5,4-18.6,10c-4-4.5-9.5-7-16.1-7c-11.5,0-21.1,9-22.1,21.1c-1,0-1.5-0.5-2.5-0.5
	C10,23.6,0,33.6,0,45.6c0,8.5,5,16.1,12.5,20.1c0,0.5,0,1,0,1.5c0,12,10,22.1,22.1,22.1c3,0,5.5-0.5,8.5-1.5
	c4,5.5,10.5,9.5,18.1,9.5c6,0,11.5-2.5,15.5-6.5c4,3.5,9,5.5,14.5,5.5c7.5,0,14-3.5,18.1-9c2.5,1,5,1.5,8,1.5
	c10.5,0,19.1-7,21.6-16.6C150.5,71.7,160,62.2,160,49.7z"/>
<path class="st0" d="M377.8,209.8c0-12-9.5-21.7-21.4-22.2c0-0.3,0.1-0.6,0.1-0.8c0-12.3-10-22.3-22.3-22.3c-6.3,0-12,2.7-16.1,6.9
	c-3.8-6.9-11-11.6-19.4-11.6c-7.7,0-14.5,4-18.5,10c-4.1-4.3-9.8-7-16.1-7c-11.9,0-21.5,9.3-22.1,21c-0.9-0.1-1.7-0.3-2.6-0.3
	c-12.3,0-22.3,10-22.3,22.3c0,8.8,5.1,16.3,12.5,19.9c0,0.5-0.1,0.9-0.1,1.4c0,12.3,10,22.3,22.3,22.3c2.9,0,5.7-0.6,8.3-1.6
	c4,5.6,10.6,9.3,18.1,9.3c6,0,11.5-2.4,15.5-6.3c3.9,3.5,9.1,5.8,14.8,5.8c7.4,0,13.9-3.6,17.9-9.2c2.5,0.9,5.1,1.5,7.9,1.5
	c10.4,0,19.1-7.2,21.5-16.9C368,231.9,377.8,222,377.8,209.8z"/>
<path class="st0" d="M697.9,102.6c0-9.9-7.9-17.9-17.7-18.3c0-0.2,0.1-0.5,0.1-0.7c0-10.1-8.2-18.4-18.4-18.4
	c-5.2,0-9.9,2.2-13.3,5.7c-3.1-5.7-9.1-9.6-16-9.6c-6.4,0-12,3.3-15.3,8.2c-3.3-3.5-8.1-5.8-13.3-5.8c-9.8,0-17.7,7.7-18.3,17.4
	c-0.7-0.1-1.4-0.2-2.1-0.2c-10.2,0-18.4,8.2-18.4,18.4c0,7.2,4.2,13.4,10.3,16.4c0,0.4-0.1,0.8-0.1,1.2c0,10.1,8.2,18.4,18.4,18.4
	c2.4,0,4.7-0.5,6.9-1.4c3.3,4.7,8.8,7.7,14.9,7.7c5,0,9.5-2,12.8-5.2c3.3,2.9,7.5,4.8,12.2,4.8c6.1,0,11.5-3,14.8-7.6
	c2,0.8,4.2,1.2,6.5,1.2c8.6,0,15.8-5.9,17.8-13.9C689.7,120.8,697.9,112.7,697.9,102.6z"/>
<path class="st0" d="M271.5,472.2c0-6.7-5.4-12.2-12-12.5c0-0.2,0-0.3,0-0.5c0-6.9-5.6-12.5-12.5-12.5c-3.6,0-6.8,1.5-9,3.9
	c-2.1-3.9-6.2-6.5-10.9-6.5c-4.4,0-8.2,2.2-10.4,5.6c-2.3-2.4-5.5-3.9-9.1-3.9c-6.7,0-12.1,5.2-12.4,11.8c-0.5-0.1-0.9-0.1-1.4-0.1
	c-6.9,0-12.5,5.6-12.5,12.5c0,4.9,2.9,9.1,7,11.2c0,0.3-0.1,0.5-0.1,0.8c0,6.9,5.6,12.5,12.5,12.5c1.7,0,3.2-0.3,4.7-0.9
	c2.3,3.2,6,5.2,10.2,5.2c3.4,0,6.5-1.4,8.7-3.5c2.2,2,5.1,3.2,8.3,3.2c4.2,0,7.8-2.1,10.1-5.2c1.4,0.5,2.9,0.8,4.4,0.8
	c5.9,0,10.7-4,12.1-9.5C266,484.7,271.5,479.1,271.5,472.2z"/>
<path class="st0" d="M631.5,647.2c0-6.7-5.4-12.2-12-12.5c0-0.2,0-0.3,0-0.5c0-6.9-5.6-12.5-12.5-12.5c-3.6,0-6.8,1.5-9,3.9
	c-2.1-3.9-6.2-6.5-10.9-6.5c-4.4,0-8.2,2.2-10.4,5.6c-2.3-2.4-5.5-3.9-9.1-3.9c-6.7,0-12.1,5.2-12.4,11.8c-0.5-0.1-0.9-0.1-1.4-0.1
	c-6.9,0-12.5,5.6-12.5,12.5c0,4.9,2.9,9.1,7,11.2c0,0.3-0.1,0.5-0.1,0.8c0,6.9,5.6,12.5,12.5,12.5c1.7,0,3.2-0.3,4.7-0.9
	c2.3,3.2,6,5.2,10.2,5.2c3.4,0,6.5-1.4,8.7-3.5c2.2,2,5.1,3.2,8.3,3.2c4.2,0,7.8-2.1,10.1-5.2c1.4,0.5,2.9,0.8,4.4,0.8
	c5.9,0,10.7-4,12.1-9.5C626,659.7,631.5,654.1,631.5,647.2z"/>
<path class="st0" d="M711.5,480.2c0-6.7-5.4-12.2-12-12.5c0-0.2,0-0.3,0-0.5c0-6.9-5.6-12.5-12.5-12.5c-3.6,0-6.8,1.5-9,3.9
	c-2.1-3.9-6.2-6.5-10.9-6.5c-4.4,0-8.2,2.2-10.4,5.6c-2.3-2.4-5.5-3.9-9.1-3.9c-6.7,0-12.1,5.2-12.4,11.8c-0.5-0.1-0.9-0.1-1.4-0.1
	c-6.9,0-12.5,5.6-12.5,12.5c0,4.9,2.9,9.1,7,11.2c0,0.3-0.1,0.5-0.1,0.8c0,6.9,5.6,12.5,12.5,12.5c1.7,0,3.2-0.3,4.7-0.9
	c2.3,3.2,6,5.2,10.2,5.2c3.4,0,6.5-1.4,8.7-3.5c2.2,2,5.1,3.2,8.3,3.2c4.2,0,7.8-2.1,10.1-5.2c1.4,0.5,2.9,0.8,4.4,0.8
	c5.9,0,10.7-4,12.1-9.5C706,492.7,711.5,487.1,711.5,480.2z"/>
<path class="st0" d="M160,728.1c0-5.2-4.1-9.4-9.3-9.6c0-0.1,0-0.2,0-0.4c0-5.3-4.3-9.7-9.7-9.7c-2.7,0-5.2,1.2-7,3
	c-1.6-3-4.8-5-8.4-5c-3.4,0-6.3,1.7-8,4.3c-1.8-1.9-4.2-3-7-3c-5.1,0-9.3,4-9.6,9.1c-0.4,0-0.7-0.1-1.1-0.1c-5.3,0-9.7,4.3-9.7,9.7
	c0,3.8,2.2,7.1,5.4,8.6c0,0.2-0.1,0.4-0.1,0.6c0,5.3,4.3,9.7,9.7,9.7c1.3,0,2.5-0.3,3.6-0.7c1.8,2.4,4.6,4,7.8,4c2.6,0,5-1,6.7-2.7
	c1.7,1.5,3.9,2.5,6.4,2.5c3.2,0,6-1.6,7.8-4c1.1,0.4,2.2,0.7,3.4,0.7c4.5,0,8.3-3.1,9.3-7.3C155.7,737.7,160,733.4,160,728.1z"/>
</svg>
