<?xml version="1.0" encoding="utf-8"?>
<!-- Generator: Adobe Illustrator 28.0.0, SVG Export Plug-In . SVG Version: 6.00 Build 0)  -->
<svg version="1.1" id="レイヤー_1" xmlns="http://www.w3.org/2000/svg" xmlns:xlink="http://www.w3.org/1999/xlink" x="0px"
	 y="0px" viewBox="0 0 3.4 2.3" style="enable-background:new 0 0 3.4 2.3;" xml:space="preserve">
<style type="text/css">
	.st0{fill:#203864;}
</style>
<path class="st0" d="M3.2,1.4c0-0.2,0-0.3-0.1-0.5V1c0.3-0.1,0.4-0.4,0.3-0.6C3.3,0.1,3.1,0,2.8,0C2.6,0,2.5,0.2,2.4,0.3l0,0
	c-0.1,0-0.3-0.1-0.5-0.1l0,0H1.8l0,0l0,0l0,0l0,0H1.7l0,0C1.4,0.2,1.2,0.3,1,0.4l0,0C0.9,0.2,0.8,0.1,0.6,0C0.4,0,0.1,0.1,0,0.4
	C0,0.6,0.1,0.9,0.4,1C0.3,1.1,0.3,1.3,0.3,1.4c0,0.7,0.5,0.9,1.2,0.9h0.1l0,0l0,0c0,0,0,0,0.1,0l0,0l0,0l0,0l0,0l0,0l0,0
	c0,0,0,0,0.1,0l0,0l0,0h0.1C2.7,2.3,3.2,2.1,3.2,1.4z"/>
</svg>
