<?xml version="1.0" encoding="utf-8"?>
<!-- Generator: Adobe Illustrator 27.9.0, SVG Export Plug-In . SVG Version: 6.00 Build 0)  -->
<svg version="1.1" id="レイヤー_1" xmlns="http://www.w3.org/2000/svg" xmlns:xlink="http://www.w3.org/1999/xlink" x="0px"
	 y="0px" viewBox="0 0 38.8 39.7" style="enable-background:new 0 0 38.8 39.7;" xml:space="preserve">
<style type="text/css">
	.st0{display:none;}
	.st1{display:inline;}
	.st2{fill:#D9CDB3;}
	.st3{fill:#FFFEF7;}
	.st4{fill:#BEAA7D;}
</style>
<g class="st0">
	<g class="st1">
		<g>
			<g>
				<path class="st2" d="M-15.6,9.3v13.8c0,7.5,6.1,13.6,13.5,13.6l0,0c7.5,0,13.5-6.1,13.5-13.6V9.3H-15.6z"/>
			</g>
		</g>
	</g>
	<g class="st1">
		<path class="st3" d="M11.5,9.3v13.8c0,7.5,6.1,13.6,13.5,13.6h0.2c7.5,0,13.5-6.1,13.5-13.6V9.3H11.5z"/>
	</g>
</g>
<g>
	<path class="st2" d="M-155.3,4.3v23.5c0.3,0,0.6,0.2,0.9,0.4c0.8,0.5,1.6,1.1,2.4,1.6c1.5,0.9,3.2,1.6,4.9,2.3
		c7.4,2.6,16.4,2.6,23.5-0.6c1.4-0.6,2.7-1.3,4-2.1c0.9-0.6,1.7-1.7,2.7-2.2c0.6-0.2,1.1,0,1.4,0.4c0.8,0.7,1.5,1.5,2.4,2.1
		c1.6,1,3.4,1.8,5.2,2.5c6.9,2.4,14.4,2.5,20.9,0.3c2.9-0.9,5.7-2.2,8-4c0.1-0.1,0.2-0.1,0.3-0.2c0,0.2,0,0.3,0,0.5
		c0.1-0.1,0.2-0.3,0.2-0.4c0,0,0.1-0.1,0.1-0.1c0.4-0.5,0.9-0.3,1.5,0.1c0.8,0.5,1.6,1.1,2.4,1.6c1.5,0.9,3.2,1.6,4.9,2.3
		c7.4,2.6,16.4,2.6,23.5-0.6c1.4-0.6,2.7-1.3,4-2.1c0.9-0.6,1.7-1.7,2.7-2.2c0.5-0.2,1,0,1.3,0.3c0,0,0.1,0,0.1,0.1
		c0.8,0.7,1.5,1.5,2.4,2.1c1.6,1,3.4,1.8,5.2,2.5c6.9,2.4,14.4,2.5,20.9,0.3c2.9-0.9,5.7-2.2,8-4c0.3-0.2,0.6-0.4,0.9-0.7
		c0,0,0.1-0.1,0.1-0.1c0.8,0.7,1.5,1.5,2.4,2.1c1.6,1,3.4,1.8,5.2,2.5c6.9,2.4,14.4,2.5,20.9,0.3c2.9-0.9,5.7-2.2,8-4
		c0.2-0.2,0.5-0.4,0.7-0.6c0.2-0.2,0.5-0.5,0.8-0.6c0.3-0.1,8.4-0.1,8.7-0.1V4.3H-155.3z"/>
	<g>
		<g>
			<path class="st4" d="M-35.6,17.1c0,0-0.1,0-0.1,0C-35.6,17-35.6,17.1-35.6,17.1z M-13.4,29.7L-13.4,29.7
				C-13.4,29.8-13.4,29.8-13.4,29.7z M-35.9,17.4c0-0.1,0.4-0.3,0.5-0.4C-35.4,17.2-35.6,17.4-35.9,17.4 M-16.2,30.1
				C-16.2,30.1-16.2,30.1-16.2,30.1 M-34.9,13.9L-34.9,13.9C-34.9,13.9-34.9,13.9-34.9,13.9z M-0.9,14.1c1.6,0.6,0.7,1.7,0.7,2.8
				c0-0.4-0.3,0.6-0.3,0.5c0,1.1-1.5,1.2-1.4,2c-0.3-0.1-0.3,0.1-0.1,0.3c-0.6,0.1-0.5,2.7-1.6,2.4c0.5,0.4-0.4,0.9-0.2,1.3
				c-0.1,0-1.1,0.5-0.8,0.8c-0.2-0.1,0-0.3-0.3-0.4c-0.2,0.5-2,2.4-2.4,2.4c0-0.3-0.4,0.2-0.4,0.2c-0.1,0-0.5,0.1-0.5,0.3
				c-0.4,0-0.6,1.1-1.6,0.7c0.2,0.3-0.3,0.3,0,0.6c-0.3,0-0.5,0.1-0.7,0.2c0-1.5-1,1.1-1.1-0.1c0.1,1.8-1.2-0.2-1.2,1.1
				c0-0.1,0-0.1,0-0.1c0,0.2-0.3,0.6-0.3,0.1c-0.1,0.2-0.3,0.4-0.5,0.6c0.1-0.6-0.5,0.2-0.9,0c0.2,0.4-0.4,0-0.4,0.1
				c-0.1,0.1-1.2,0.6-1.2,0.6c0-0.3,0-0.1-0.2-0.3c0.1,0,0.1,0,0.1-0.1c-0.1,0.1-0.1,0.1-0.2,0c-0.2,0.5-0.3-0.2-0.3-0.2
				c-0.1,0-0.5,0.4-0.4,0.5c0-0.1-0.3-0.2-0.3-0.5c-0.4,0.1,0,0.5-0.5,0.4c-0.2,0-1.1,0.1-1.2,0c0.1-0.1-0.3-0.2-0.5-0.5
				c-0.1,0.1-0.2,0.3-0.2,0.5c-0.1-0.4-0.5,0.2-0.6-0.2c0.1-0.1,0.2-0.5,0-0.4c-0.4,0.2-0.3,0.1-0.4,0.5c0,0.1-1.8-0.6-1.7-0.6
				c0,0,0,0.2,0,0.3c-0.1-0.1-0.1-0.2,0-0.4c-0.3,0.1-1.6,0.5-0.9-0.3c-0.1,0-0.3,0-0.4,0.1c0-0.1,0-0.2,0-0.3
				c0,0.1-0.1,0.2-0.2,0.1c0-0.1,0.1-0.1-0.1-0.1c0,0.1,0,0.2,0.1,0.3c-0.1,0-0.2,0.1-0.3,0.1c0.3-0.4-0.4-0.2-0.4-0.1
				c0.1-0.2,0,0,0.1-0.1c-0.1-0.6-0.3,0.2-0.4,0c0.5-0.2,0-0.1,0.1-0.3c-0.1,0.5-0.9-0.3-1.4-0.2c0.2-0.5,0.1-0.7-0.4-0.2
				c-0.3-0.5-2.2-0.6-1.5-1.5c-0.2-0.1-0.3,0-0.4,0.3c-0.6-0.2-0.3-0.4-0.7-0.4c0.4-0.4-0.1-0.3-0.2-0.2c0-0.1,0-0.1,0.1-0.2
				c-0.3,0.1-0.3,0.2-0.2-0.1c-0.8,0.3-0.2-0.8-0.7-0.3c-0.1-0.2-0.1-0.4,0-0.6c-1.2,0.1-1.2-0.8-1.6-0.9c0.1-0.1,0.2-0.2,0.4-0.3
				c0-0.4-0.6,0-0.5,0c0-0.1-0.1-0.2-0.3-0.2c0.1-0.1,0.2-0.2,0.4-0.2c-0.1,0-0.1,0-0.2,0c0.2-0.3,1.3-0.4,1.2-0.7
				c-0.2,0-1.2,0.6-1.4,0.4c0.1,0,0.2,0,0.3,0c0.2-0.4-0.7-0.1-0.7-0.1c0.1-0.1,0.2-0.1,0.2-0.2c-0.4,0.2-0.5,0-0.7,0
				c0.3-0.1,0.5-0.2,0.6-0.4c-0.3,0-0.5,0.1-0.7,0.2c0.1-0.1,0.2-0.2,0.3-0.2c0.1-0.2-0.6,0-0.1-0.3c-0.1,0-0.2,0.1-0.3,0.1
				c0.3-0.5-0.3-1-0.3-0.3c0.2-0.2-0.2-0.2-0.3-0.2c0,0,0.1-0.1,0.1-0.1c-0.4-0.1-0.1,0-0.1-0.2c-0.7,0.2,0-0.3,0.2-0.3
				c0-0.1,0-0.1,0-0.2c-2.2,0.7-0.1,0-0.7,0c0.7,0.1,0.6-0.7,0-0.2c0-0.1,0-0.2,0.2-0.2c-0.1,0-0.3,0-0.4,0.1
				c0.8-0.9,1.7-1.1-0.2-0.7c-0.2-0.2,0.5-0.4,0.4-0.5c-0.7,0.2-1.3,0.1-0.2-0.2c-0.4,0.1,0.5,0.2,0.3-0.2c-0.4-0.4-0.6,0.5-0.6-0.2
				c0,0-1.1,0.3-0.5,0.2c0-0.3-0.3,0-0.4-0.2c0.2-0.1,0.6,0,0.7-0.1c-0.5-0.4,0-0.1,0.2-0.5c0,0-0.8-0.2-0.9-0.4
				c0.3-0.1-0.1-0.3,0.3-0.2c-0.4,0.4,0.6,0.4,0.5,0.4c0.2,0.3,0.5-0.1,0.8-0.3c0-0.2-0.6,0.1-0.6,0.2c-0.1-0.2-0.2-0.4-0.5-0.4
				c0.1-0.1,0.2-0.1,0.4-0.1c-0.2-0.2-0.2-0.5-0.3-0.7c-0.3,0.3-0.1-0.1-0.4-0.1c1.3-0.3-1.2-1.3,0.2-1.8c-0.1,0-0.2,0-0.2,0.1
				c0.1,0,0-0.5-0.3-0.4c1.6-0.6-0.7-0.2,0.2-1c-0.1,0-0.1-0.1-0.2-0.1c0.2,0,0.3-0.1,0.1-0.2c0.2,0,0.5,0.1,0.6,0.2
				c0.1-0.1-1.1,0.4-0.3,0.3c0-0.1,0.5-0.3,0.6,0c-0.1,0-0.2,0-0.3,0.1c0.6,0.2,0.9,1,0,0.5c0,0.1,0,0.2,0,0.3c0.2,0,0.5,0,0.7,0
				c-0.1,0-0.1,0-0.2,0.1c0.4,0.3,0.9,0.7,0.5,1.1c0.8,0.4,1.1,1.7,1.6,2.5c-0.1,0-0.2,0-0.3,0c0.2,0-0.1,0.1,0,0.2
				c0.3-0.4,0.8,0.5,1.1,0.6c-0.1,0-0.1,0.1-0.2,0.1c0.7,0,0.1,0.8,0.2,0.9c1.6,0.3,2,2.5,3.6,3.2c-0.1,0.1-0.2,0.1-0.3,0.2
				c0-0.3,1.1,0.4,1,0.5c0.5-0.1,0.7,1.2,1.1,0.6c0.1,0.4,0.7,0.3,0.8,0.7c0.2-0.5,0.8,0.5,0.8,0.5c0.9-0.1,3.3,1.8,4.1,0.9
				c0.3,0.4,0.2,0.2,0.6,0.1c0.1,0,1,0,1,0.1c-0.2,0.2,0,0.2,0.1,0.1c0.1,0.1,0.2,0.3,0.3,0.4c0.1-0.1,0.1-0.3,0.1-0.5
				c0.1,0.4,0.4-0.3,0.5,0.1c-0.2,0.6,0.4,0.3,0.3-0.1c0.1,0.2,1.5,0,1.6,0.1c-0.1-0.3-0.1,0.4-0.1-0.1c0.2,0.1,0.2,0.2,0.1,0.4
				c-0.2-0.1,0.7-0.4,0.6-0.3c0-0.1,0.1-0.2,0.1-0.3c0.2,0.1,0.2,0.3,0.2,0.5c0.1,0,0.2-0.1,0.2-0.2c0.1,0.1,0.1,0.2,0.2,0.3
				c-0.1-0.1,0-0.2,0.1-0.2c0,0.1,0,0.2,0.2,0c-0.2-0.5-0.2,0-0.1-0.4c0.1,0.5,0.4-0.1,0.3-0.1c0,0.1,0,0.2,0.1,0.3
				c0.1,0.1,0-0.4,0.2-0.4c-0.2,0.4,0,0.1,0.2,0.3c-0.3-0.4,0.7-0.2,0.9-0.7c0.1,0.1,0.4,0.2,0.4,0.3c0-0.2,0.1-0.8,0.6-0.5
				c0-0.6,0.8-0.4,1.1-0.4c-0.3-0.5,0.2-0.2,0.3-0.6c0.3,0.5,0.3,0.1,0.3-0.1c0.1,0,0.1,0.1,0.2,0.1c0-0.2-0.1-0.3,0.2-0.1
				c-0.1-0.7,0.7,0,0.3-0.5c1.1,0.2,0-0.2,1.4-1.2c0.7,0.7,0.3,0,0.3-0.4c0.1,0,0.5,0.3,0.3,0.1c0.9,0.4-0.1,0.3,0.4,0.2
				c-0.1-0.1-0.2-0.2-0.1-0.4c0,0,0.1,0.5,0.2,0.3c0.1-0.3-0.3-0.2-0.2-0.5c0.1,0.1,0.2,0.1,0.3,0.1c-0.3-0.3-0.3-0.3-0.2-0.6
				c0.1,0.2,0.3,0.4,0.6,0.5c-0.1-0.2-0.3-0.4-0.4-0.5c0.2,0,0.3,0.1,0.3,0.3c0.2,0-0.3-0.5,0.2-0.2C-7,22.4-7,22.4-7.1,22.3
				c0.5,0.2,0.3-0.3,0.5-0.1C-6.7,21.8-6.7,22.1-7,22c0.3,0.1,0.1-0.2,0.1-0.3c0,0,0.1,0.1,0.1,0.1c-0.1-0.3,0-0.1,0.1-0.1
				c-0.5-0.5,0.3,0,0.3,0.1c0.4,0-0.1-0.3-0.2-0.5c0.1,0,0.1,0,0.1-0.1c0.2,0.6,0.9,0.3,0.2-0.1c0.1,0,0.2,0,0.3,0.1
				c-0.1-0.1-0.1-0.2-0.2-0.3c1.2,0.5,1.4,0.4,0.5-0.3c0-0.2,0.6,0.2,0.7,0.1c-0.5-0.5-0.7-0.9,0.1-0.3c-0.1-0.1-0.1,0.3,0.3-0.1
				c-0.2-0.1-0.4-0.1-0.1-0.2c0,0-0.9-0.6-0.5-0.3c0.2-0.1-0.2-0.2-0.1-0.3c0.2,0.1,0.3,0.4,0.5,0.5c0-0.1,0-0.2,0.1-0.3
				c0.1,0.1,0.2,0.2,0.4,0.2c0,0-0.3-0.7-0.3-0.8c0.3,0.2,0.2-0.2,0.4,0.1c-0.4-0.1-0.1,0.7,0,0.7c0.2-0.3,0.5-0.3,0.2-0.7
				c0.6,0,0.2,0.1,0.7-0.4c-0.4,0,0-0.2-0.2-0.3c0.6,0.2,1-1.3,1.2-1.6C-1.7,16-0.8,15.3-0.9,14.1 M-4.9,21.3
				C-5.2,21.4-4.9,21.3-4.9,21.3 M-26.6,24.9C-26.7,24.8-26.7,24.9-26.6,24.9"/>
		</g>
		<g>
			<path class="st4" d="M-34.7,12.9c0,0-0.1,0-0.1,0C-34.7,12.8-34.7,12.9-34.7,12.9z M-14,21.8L-14,21.8C-14,21.8-14,21.8-14,21.8z
				 M-34.9,13.2c0-0.1,0.3-0.4,0.4-0.5C-34.5,12.9-34.7,13.2-34.9,13.2 M-4.7,13.1c0.1,0,0.5,0.2,0.5,0.3
				C-4.3,13.3-4.6,13.2-4.7,13.1 M-16.3,22C-16.3,22-16.3,22-16.3,22 M-34.5,9.9L-34.5,9.9C-34.5,9.9-34.5,9.9-34.5,9.9z M-1.2,10.5
				c1.6,0.8,0.8,1.1,0.5,2.4c0.1-0.4-0.4,0.5-0.3,0.4c-0.2,1-1.6,0.6-1.6,1.3c-0.2-0.2-0.3,0.1-0.2,0.2c-0.1-0.1-0.2-0.1-0.3,0
				c0.3,0.7-0.4,0.3-0.4,0.8c0-0.1-0.7,1.3-1.3,0.9c0.4,0.5-0.6,0.7-0.4,1c0,0-1.1,0.1-0.8,0.5c-0.2-0.1,0-0.2-0.2-0.4
				c-0.2,0.4-2.2,1.6-2.4,1.6c-0.1-0.1-0.1-0.2-0.3,0.1c0.1,0-0.7,0.2-0.5,0.2c0-0.5-0.6,0.9-1.4,0.3c0.1,0.3-0.2,0.3,0,0.6
				c-0.2,0-0.4,0-0.6,0.1c0-1.5-0.9,1-0.9-0.2c0,0.2-0.1,0.5-0.1,0.7c0-0.1-0.1-0.1-0.2-0.1c0.2,0.6-0.4-0.1-0.4-0.1
				c-0.2,0-0.5,0.3-0.3,0.5c0-0.1,0-0.1,0-0.1c0,0.2-0.3,0.6-0.3,0.1c-0.1,0.2-0.2,0.4-0.5,0.5c0.1-0.6-0.4,0.2-0.7-0.1
				c0.2,0.4-0.4,0-0.4,0.1c0,0-1.1,0.5-1,0.5c0-0.2-0.1-0.3-0.1-0.3c-0.1,0.1-0.1,0.1-0.1,0c-0.2,0.5-0.2-0.2-0.3-0.2
				c-0.1,0-0.4,0.4-0.4,0.5c0-0.1-0.2-0.2-0.2-0.5c-0.2,0.7-1.4,0.7-1.8-0.1c-0.1,0.1-0.2,0.3-0.2,0.5c-0.1-0.4-0.4,0.2-0.5-0.2
				c0.3-0.6-0.3-0.4-0.3,0.1c0-0.1-0.4-0.3-0.5,0c-0.3-0.4-0.8,0-0.8-0.6c-0.1,0-0.2,0-0.2,0.1c0,0.3,0.3-0.4,0,0.2
				c-0.1-0.1-0.1-0.2,0-0.4c0.1,0.3-0.8,0.1-0.6,0.1c-0.1,0.1-0.2,0.1-0.2,0.2c-0.1-0.2,0-0.4,0.1-0.5c-0.1,0-0.2,0-0.3,0.1
				c0-0.1,0-0.2,0-0.3c0,0.1-0.1,0.2-0.2,0.1c0-0.1,0.1-0.1-0.1-0.1c-0.2,0.5,0.2,0.1-0.2,0.4c0.2-0.4-0.4-0.1-0.3-0.1
				c0.1-0.1,0.1-0.2,0.1-0.3c0-0.2-0.3,0.3-0.3,0.2c0,0,0-0.3,0-0.4c-0.1,0.5-0.7-0.2-1.1,0c0-0.2,0.1-0.4,0.2-0.5
				c0,0-0.4,0.1-0.5,0.4c-0.3-0.5-1.9-0.3-1.3-1.2c-0.1,0-0.1,0-0.1-0.1c-0.5,0.9-0.3,0.1-0.8,0.2c0.3-0.4-0.1-0.2-0.2-0.2
				c0-0.1,0-0.1,0.1-0.2c-0.2,0.1-0.3,0.2-0.2-0.1c-0.7,0.4-0.2-0.7-0.6-0.1c-0.1-0.2-0.1-0.4-0.1-0.6c-0.7,0.4-1.2-0.3-1.5-0.4
				c0.5-0.5,0.1-0.5-0.2-0.2c-0.1-0.1-0.2-0.1-0.3-0.1c0,0,0.3-0.6,0.1-0.3c0.1-0.3,1.1-0.7,1-1c-0.2,0-1,0.9-1.2,0.7
				c0,0,0.5-0.2,0.3-0.2c-0.4-0.1-0.3,0.3-0.6,0.2c0.1-0.1,0.1-0.2,0.1-0.3c-0.3,0.2-0.3,0.3-0.6,0.2c0.2-0.1,0.4-0.3,0.5-0.5
				c-0.2,0.1-0.4,0.2-0.6,0.4c0-0.1,0.1-0.2,0.3-0.3c0-0.2-0.6,0.2-0.2-0.2c-0.1,0.1-0.1,0.1-0.2,0.2c0.2-0.4-0.3-0.3-0.1-0.5
				c-0.5,0.1-0.1,0.1-0.3,0.4c0.1-0.3-0.2-0.1-0.3-0.1c0,0,0.1-0.1,0.1-0.1c-0.4,0.1-0.1,0-0.1-0.1c-0.6,0.4,0-0.3,0.1-0.3
				c0-0.1,0-0.1,0-0.2c-2,1.3-0.1,0-0.6,0.2c0.7-0.1,0.4-0.8,0-0.2c0-0.1,0-0.2,0.1-0.2c-0.1,0-0.2,0.1-0.3,0.2
				c0.6-1.1,1.3-1.4-0.3-0.5c-0.2-0.1,0.4-0.5,0.3-0.6c-0.6,0.3-1.2,0.4-0.2-0.1c-0.3,0.2,0.5,0,0.3-0.2c-0.4-0.1-0.3,0.1-0.5,0.2
				c0-0.4-0.9,0.4-0.5,0.1c-0.1-0.2-0.3,0.1-0.4,0c0.2-0.1,0.5-0.2,0.6-0.3c-0.1,0-0.2-0.1-0.3-0.2c0.2,0,0.3-0.1,0.3-0.3
				c0,0-0.8,0.1-0.9,0c0.3-0.2-0.1-0.2,0.2-0.3c-0.3,0.4,0.6,0.2,0.6,0.2c0.3,0.2,0.4-0.3,0.7-0.5c0.1,0.2-1.1,0.1-1.1,0.1
				c0.1-0.1,0.2-0.2,0.3-0.2c-0.2-0.1-0.3-0.3-0.4-0.5c-0.2,0.3-0.1-0.1-0.4,0.1c1.2-0.6-1.5-0.8-0.2-1.6c-0.1,0-0.2,0-0.2,0.1
				c0.1-0.1-0.1-0.4-0.4-0.3c0.1,0,0.7-0.3,0.6-0.4c-0.2-0.2-0.3,0-0.4,0c-0.5-0.2-0.2-0.5-0.1-0.6c-0.1,0-0.1,0-0.2-0.1
				c0.9-0.2-1.4-0.3,0.7-0.1c0.1-0.1-1,0.5-0.3,0.3c0-0.1,0.4-0.4,0.6-0.1c-0.1,0-0.2,0.1-0.2,0.1c0.2-0.1,0.7,0.3,0.7,0.4
				c-1.3,0.3-0.4-0.2-0.7,0.3c0.2-0.1,0.4-0.1,0.7-0.1c-0.1,0-0.1,0.1-0.2,0.1c0.4,0.1,0.9,0.4,0.6,0.8c0.4-0.1,1.8,1.4,2,1.7
				c-0.1,0-0.2,0.1-0.3,0.1c0.2-0.1-0.1,0.1,0,0.2c0.2-0.5,0.8,0.2,1.1,0.1c0,0-0.1,0.1-0.1,0.1c0.6-0.2,0.3,0.6,0.4,0.7
				c1.4-0.2,2.2,1.6,3.7,1.9c-0.1,0.1-0.2,0.2-0.3,0.3c-0.1-0.3,1,0.2,0.9,0.2c0.5-0.2,0.7,1,1,0.3c0.1,0.4,0.7,0.1,0.7,0.5
				c0.2-0.5,0.8,0.4,0.7,0.4c0.8-0.2,2.8,1.5,3.5,0.7c0,0,0.2,0.3,0.2,0.3c0.1-0.3,0.9-0.1,1.1-0.1c-0.1,0.1,0.1,0.2,0.3,0.5
				c0.1-0.1,0.1-0.3,0.1-0.5c0.1,0.4,0.3-0.2,0.4,0.1c-0.2,0.6,0.3,0.3,0.2-0.1c0.1,0.2,0.2-0.2,0.2,0.1c0.1-0.2,0.2,0.2,0.2-0.2
				c0.3,0.3,0.6-0.2,0.8,0.4c0.1,0,0.1-0.1,0.1-0.2c-0.1-0.2-0.1,0.5-0.1-0.1c0.1,0.1,0.2,0.2,0.1,0.4c-0.2-0.2,0.6-0.4,0.5-0.3
				c0-0.1,0.1-0.2,0.1-0.2c0.1,0.1,0.2,0.3,0.2,0.5c0.1,0,0.2-0.1,0.2-0.2c0,0.1,0.1,0.2,0.1,0.3c-0.1-0.1,0-0.2,0.1-0.2
				c0,0.1,0,0.2,0.1,0c-0.1-0.5-0.2,0-0.1-0.4c0,0.5,0.4,0,0.3-0.1c0,0.2,0,0.2,0.1,0.3c0.1,0.1,0.1-0.4,0.1-0.3
				c-0.2,0.4,0,0.2,0.1,0.3c0-0.1,0-0.1,0-0.2c0.1,0.2,0.2-0.2,0.2-0.3c0.9,0.3,0.3-0.5,1,0.1c0-0.5,1-1,1.5-0.7
				c-0.2-0.5,0.2-0.1,0.3-0.5c0.2,0.5,0.2,0.1,0.2,0c0,0,0.1,0.1,0.1,0.1c0-0.2-0.1-0.3,0.1-0.1c-0.1-0.4,0.2-0.4,0.4-0.2
				c0-0.1,0-0.2-0.1-0.3c1,0.3,0.4-0.8,1.3-0.6c0-0.1,0-0.1,0-0.2c0.5,0.8,0.3,0.1,0.3-0.3c1.4,1.2,0,0.1,0.2,0.2
				c0.9,0.7-0.2,0.2,0.4,0.3c-0.1-0.1-0.1-0.2-0.1-0.4c0,0,0.1,0.5,0.2,0.3c0.2-0.3-0.2-0.3-0.1-0.6c0.1,0.1,0.1,0.2,0.2,0.2
				c-0.2-0.4-0.2-0.3-0.1-0.6c0.1,0.2,0.2,0.4,0.4,0.6c-0.1-0.2-0.2-0.4-0.3-0.6c0.1,0.1,0.2,0.2,0.3,0.3c0.2,0.1-0.1-0.5,0.2-0.1
				c0-0.1-0.1-0.1-0.1-0.2c0.4,0.3,0.3-0.2,0.5,0.1c0-0.4-0.1-0.1-0.3-0.3c0.4,0.2-0.2-0.4,0.3-0.2C-7.8,14.6-7,15.6-7,15.4
				c-0.1-0.2-0.2-0.3-0.3-0.5c0.1,0,0.1,0,0.1,0c0,0.6,0.8,0.5,0.2,0c0.4-0.3,0.1,0.5,0.1-0.2c2,1.6-0.5-1,1.1,0.1
				c-0.4-0.6-0.4-1,0.1-0.2c-0.1-0.1-0.1,0.2,0.3,0c-0.2-0.1-0.4-0.2-0.1-0.3c0,0-0.4-0.5-0.4-0.5c0.3,0.3,0-0.1,0.1-0.2
				c0.1,0.1,0.3,0.5,0.3,0.5c0-0.1,0-0.2,0.1-0.2c0,0.1,0.1,0.3,0.3,0.3c-0.1,0-0.2-0.7-0.1-0.8c0.2,0.2,0.2-0.1,0.3,0.2
				C-5.2,13.5-5,14.3-5,14.3c0.2-0.2,0.6-0.1,0.3-0.5c0.6,0.2,0.1,0.2,0.7-0.1c-0.4-0.2,0-0.1-0.1-0.3c0.5,0.4,1.1-0.7,1.4-1
				C-2.2,11.9-1.1,11.6-1.2,10.5 M-5.8,15.4C-6.1,15.4-5.8,15.4-5.8,15.4 M-25.2,17.4C-25.3,17.3-25.3,17.4-25.2,17.4"/>
		</g>
		<g>
			<path class="st4" d="M-33.9,8.6c0,0-0.1,0-0.1,0C-33.9,8.5-33.9,8.5-33.9,8.6z M-15.1,13.8L-15.1,13.8
				C-15.1,13.8-15.1,13.8-15.1,13.8z M-34,8.9c0-0.1,0.3-0.4,0.3-0.5C-33.8,8.6-33.9,8.8-34,8.9 M-6,7.1C-6,7-6,7-6,7
				C-5.9,7.1-5.9,7.1-6,7.1z M-6.3,6.9c0.1,0,0.4,0.3,0.4,0.4C-6,7.2-6.2,7-6.3,6.9 M-17,13.9C-17,13.9-17,13.9-17,13.9 M-34.1,5.9
				L-34.1,5.9C-34.1,5.9-34.1,5.9-34.1,5.9z M-2.3,5.6C-1.2,6.8-2.6,7-2.7,7.9c0.2-0.7-0.8,0.7-0.4,0.3c-0.4,0.7-1.5,0-1.6,0.7
				c-0.2-0.3-0.2,0-0.2,0.2c-0.3-0.5-0.2,0.8-0.7,0.4c-0.2,0.6-0.7,1.1-1.1,0.7c0.3,0.5-0.6,0.6-0.5,0.9c-0.1-0.1-0.1-0.1-0.2-0.2
				c0.1,0.2-0.8,0.1-0.6,0.5c-0.1-0.2,0-0.2-0.1-0.4c-0.4,0.4-2,0.7-2,1c0.1-0.1-0.4,0-0.3,0.1c-0.1,0,0-0.2-0.3,0.1
				c-0.5,0.1-0.9,0.2-1.4,0.5c0-0.1-0.1-0.2-0.2-0.3c0.1,0.3-0.2,0.3,0,0.6c-0.2-0.1-0.3-0.1-0.5,0c0.2-1.1-0.7,0.1-0.7,0.1
				c0-0.1,0-0.3-0.1-0.4c0,0.2-0.1,0.5-0.1,0.7c0-0.1-0.1-0.1-0.1-0.2c0.2,0.8-0.6-0.9-0.6,0.3c0-0.1,0-0.1,0-0.1
				c0,0.2-0.2,0.5-0.2,0.1c-0.1,0.2-0.2,0.4-0.4,0.5c0-0.4-0.6-0.1-0.6,0.1c-0.3-0.3-1.1,0.3-1.2,0.4c0-0.2-0.1-0.3-0.1-0.3
				c-0.1,0.1-0.1,0.1-0.1,0c0,0.1,0,0.1-0.1,0.2c-0.3,0.1,0-0.4-0.1-0.3c-0.1,0-0.3,0.4-0.3,0.5c0-0.1-0.2-0.2-0.2-0.5
				c-0.2,0.7-1.1,0.7-1.5,0c-0.1,0.2-0.1,0.3-0.1,0.5c-0.1-0.4-0.3,0.2-0.4-0.1c0.2-0.6-0.3-0.3-0.3,0.1c-0.1-0.2-0.3,0.2-0.2-0.2
				c-0.1,0.2-0.2-0.2-0.2,0.2c-0.3-0.4-0.7,0.1-0.7-0.5c-0.1,0-0.1,0.1-0.1,0.2c0.1,0.3,0.2-0.5,0,0.1c-0.1-0.1-0.1-0.2,0-0.4
				c0.2,0.3-0.7,0.2-0.5,0.2c-0.1,0.1-0.1,0.1-0.2,0.2c-0.1-0.2-0.1-0.4,0-0.5c-0.1,0-0.2,0.1-0.2,0.2c0-0.1,0-0.2,0-0.3
				c0,0.1,0,0.2-0.1,0.2c0-0.1,0.1-0.2-0.1-0.1c-0.1,0.5,0.2,0.1-0.1,0.4c0.1-0.5-0.3,0-0.3,0c0-0.2,0.1-0.2,0.1-0.3
				c0-0.1-0.2,0.4-0.3,0.3c0.3-0.3,0-0.1,0-0.3c0,0.1,0,0.1-0.1,0.2c0-0.2-0.3,0.1-0.3,0.2c-0.2,0-0.3-0.5-0.6-0.1
				c0-0.2,0-0.4,0.1-0.5c0,0-0.3,0.3-0.3,0.5c-0.4-0.4-1.7,0.2-1.3-0.8c-0.1,0-0.1,0-0.1,0c0.5,0.3-0.8,0.5-0.7,0.4
				c0.2-0.5-0.1-0.2-0.2-0.1c0-0.1,0-0.1,0-0.2c-0.2,0.2-0.2,0.3-0.2,0c-0.2,0.3-0.5,0.2-0.4-0.2c-0.1,0-0.2,0.1-0.2,0.2
				c-0.1-0.1-0.2-0.3-0.2-0.5c-0.7,0.6-1.1-0.1-1.4,0c0.4-0.6,0-0.5-0.2-0.1c-0.1-0.1-0.2-0.1-0.3,0c0.4-1.7,0.1,0,0.1-0.3
				c0.1-0.3,0.9-0.9,0.7-1.1c-0.1,0.1-0.8,1.1-1,0.9c0,0,0.4-0.3,0.2-0.3c-0.3,0-0.2,0.3-0.5,0.4c0.1-0.1,0.1-0.2,0.1-0.3
				c-0.2,0.3-0.3,0.3-0.5,0.4c0.2-0.2,0.3-0.4,0.4-0.6c-0.2,0.1-0.3,0.3-0.5,0.5c0-0.1,0.1-0.3,0.2-0.4c0-0.2-0.5,0.3-0.2-0.2
				c-0.1,0.1-0.1,0.1-0.2,0.2c0.1-0.5-0.3-0.2-0.1-0.4c-0.4,0.2-0.1,0.2-0.2,0.4c0.1-0.3-0.2,0-0.3,0c0,0,0.1-0.1,0.1-0.1
				c-0.3,0.1-0.1,0.1-0.1-0.1c-0.6,0.6,0.2-0.4,0-0.4c-1.7,1.7-0.1,0.1-0.5,0.3c0.6-0.2,0.3-0.8-0.1-0.2c0-0.1,0-0.2,0.1-0.3
				c-0.1,0.1-0.2,0.1-0.3,0.2c0.4-1.2,1-1.5-0.3-0.4c-0.2,0,0.3-0.6,0.2-0.6c-0.5,0.4-1,0.6-0.2-0.1c-0.3,0.3,0.5-0.1,0.2-0.3
				c-0.3-0.1-0.3,0.2-0.4,0.3c-0.1-0.4-0.5,0.3-0.6,0.3c0.3-0.3-0.1,0-0.2-0.1c0.1-0.1,0.5-0.3,0.6-0.4c-0.1,0-0.2,0-0.3-0.1
				c0.1,0,0.3-0.2,0.3-0.3c0,0.1-0.7,0.2-0.9,0.2c0.2-0.2-0.1-0.2,0.2-0.3c-0.2,0.4,0.6,0.1,0.5,0c0.3,0.1,0.4-0.4,0.6-0.6
				c0.1,0.2-0.9,0.3-1,0.3c0-0.1,0.1-0.2,0.3-0.2c-0.3-0.1-0.4-0.5-0.7-0.3c0.8-0.7-0.3-0.4-0.7-0.9c0.1-0.1,0.2-0.3,0.3-0.4
				c-0.1-0.1-0.2,0.3-0.2,0.1c-0.1,0,0.1-0.4-0.4-0.1c0.1-0.1,0.6-0.4,0.5-0.5c-0.2-0.2-0.3,0.1-0.4,0.1c-0.4,0-0.2-0.3-0.2-0.4
				c-0.1,0-0.1,0-0.2,0c0.2-0.1,0.2-0.2,0.1-0.2c0.2-0.1,0.4-0.1,0.6-0.1c0,0.1-0.6,0.3-0.4,0.4c0.1,0.1,0.5-0.5,0.7-0.3
				c-0.1,0-0.2,0.1-0.2,0.2c0.1-0.1,0.7,0.1,0.7,0.2c-1.2,0.6-0.4-0.1-0.6,0.4c0.2-0.1,0.4-0.2,0.6-0.3c0,0-0.1,0.1-0.1,0.1
				c0.4,0,0.9,0.1,0.7,0.6c0.4-0.2,1.8,0.9,2,1.1c0,0-0.3,0.3-0.2,0.3c0.2-0.5,0.7,0,1-0.1c0,0.1-0.1,0.1-0.1,0.2
				c0.6-0.3,0.3,0.5,0.4,0.6c0.4-0.3,2.1,0.3,2.1,0.6c0.6-0.2,0.8,0.4,1.4,0.3c-0.1,0.1-0.1,0.2-0.2,0.3c-0.2-0.5,1.4,0.3,1.4,0.3
				c0.2-0.1,0.3,0.2,0.3-0.3c0.1,0.3,0.6,0,0.7,0.4c0.1-0.6,0.7,0.2,0.7,0.2c0.7-0.4,2.7,0.8,3.1,0c0,0,0.2,0.3,0.2,0.3
				c0-0.3,0.8-0.1,1-0.2c-0.1,0.2,0.1,0.2,0.3,0.5c0.1-0.2,0.1-0.3,0.1-0.5c0,0,0.6,0.2,0.4,0.5c0.2-0.3,0.2-0.2,0.2-0.5
				c0.1,0.2,0.2-0.3,0.2,0.1c0.1-0.2,0.2,0.2,0.1-0.2c0.3,0.3,0.5-0.2,0.7,0.4c0.1,0,0.1-0.1,0.1-0.2c-0.1-0.2-0.1,0.5-0.1-0.1
				c0.1,0.1,0.1,0.2,0.1,0.4c-0.2-0.2,0.6-0.4,0.4-0.3c0-0.1,0.1-0.2,0.1-0.2c0.1,0.2,0.2,0.3,0.1,0.5c0.1,0,0.2-0.1,0.2-0.2
				c0,0.1,0.1,0.2,0.1,0.3c-0.1-0.1,0-0.2,0.1-0.2c0,0,0,0.2,0.1,0.1c-0.1-0.4-0.1-0.1-0.1-0.4c0,0.4,0.3,0,0.2,0
				c0,0.5,0.1,0.2,0.2,0c-0.2,0.4,0,0.1,0.1,0.3c0-0.1,0-0.1,0-0.2c0.1,0.2,0.2-0.2,0.2-0.2c0.8,0.4,0.2-0.5,0.8,0.2
				c0-0.4,0.9-0.9,1.3-0.5c-0.2-0.6,0.2-0.1,0.3-0.5c0.1,0.5,0.2,0.2,0.2,0c0,0.1,0.1,0.1,0.1,0.2c0-0.2-0.1-0.3,0.1-0.1
				c-0.1-0.4,0.3-0.4,0.4-0.1c0-0.1,0-0.2-0.1-0.3c0.2,0,0.3,0.1,0.4,0.3c0-0.8,0.7-0.6,0.8-0.9c0.1,0.1,0.1,0.3,0.2,0.4
				c0,0,0.1-0.6,0.1-0.6c1.1,1.3,0,0.1,0.2,0.2c0.8,1-0.2,0.1,0.3,0.3c-0.1-0.1-0.1-0.2,0-0.4c0,0,0,0.4,0.1,0.3
				C-9.8,9.3-10.1,9.2-10,9c0,0.1,0.1,0.2,0.2,0.2c0,0-0.2-0.5-0.1-0.5c0.1,0.1,0.1,0,0.1-0.1C-9.8,8.8-9.7,9-9.6,9.2
				c0-0.2-0.1-0.4-0.2-0.6c0.1,0.1,0.2,0.2,0.2,0.4c0.1,0.1-0.1-0.5,0.2,0c0-0.1-0.1-0.2-0.1-0.2c0.4,0.4,0.2-0.2,0.4,0.2
				c0-0.4-0.1-0.2-0.2-0.4c0.2,0.2,0.1-0.1,0.1-0.2c0,0,0,0.1,0.1,0.1c0-0.3,0-0.1,0.1,0c-0.3-0.7,0.3,0.3,0.4,0.2
				C-8.7,8.4-8.8,8.2-8.8,8c0.1,0,0.1,0,0.1,0c0,0.5,0.6,0.6,0.2,0c0.4-0.2,0,0.5,0.1-0.1C-8.1,8.3-8,8.4-7.8,8.7
				c0.1-0.2,0-0.6-0.2-0.8c0-0.1,0.5,0.4,0.5,0.4c-0.2-0.6-0.3-1,0.1-0.2c-0.2-0.2,0,0.4,0.2,0.1c-0.1-0.1-0.4-0.3,0-0.3
				c0,0-0.3-0.6-0.3-0.6c0.2,0.4,0-0.1,0.1-0.2c0.1,0.2,0.2,0.5,0.2,0.6c0-0.1,0.1-0.2,0.1-0.2c0,0.1,0.1,0.3,0.3,0.3
				c-0.1,0-0.1-0.7,0-0.8c0.1,0.2,0.2,0,0.3,0.3C-6.9,7.2-6.8,7.9-6.7,8C-6.5,7.8-6.2,8-6.4,7.6c0.5,0.3,0,0.2,0.6,0.1
				c-0.3-0.2,0-0.1-0.1-0.3C-5.5,7.7-4.6,7-4.4,6.8C-3.7,6.5-2.7,6.5-2.3,5.6 M-7.6,8.8C-7.9,8.7-7.5,8.8-7.6,8.8 M-25,10.6
				C-25.1,10.6-25.1,10.6-25,10.6"/>
		</g>
	</g>
	<g>
		<g>
			<path class="st4" d="M2.7,17.1c0,0-0.1,0-0.1,0C2.7,17,2.7,17.1,2.7,17.1z M24.9,29.7L24.9,29.7C24.9,29.8,24.9,29.8,24.9,29.7z
				 M2.5,17.4c0-0.1,0.4-0.3,0.5-0.4C2.9,17.2,2.7,17.4,2.5,17.4 M22.1,30.1C22.1,30.1,22.1,30.1,22.1,30.1 M3.4,13.9L3.4,13.9
				C3.4,13.9,3.4,13.9,3.4,13.9z M37.4,14.1c1.6,0.6,0.7,1.7,0.7,2.8c0-0.4-0.3,0.6-0.3,0.5c0,1.1-1.5,1.2-1.4,2
				c-0.3-0.1-0.3,0.1-0.1,0.3c-0.6,0.1-0.5,2.7-1.6,2.4c0.5,0.4-0.4,0.9-0.2,1.3c-0.1,0-1.1,0.5-0.8,0.8c-0.3-0.1,0-0.3-0.3-0.4
				c-0.2,0.5-2,2.4-2.4,2.4c0-0.3-0.4,0.2-0.4,0.2c-0.1,0-0.5,0.1-0.5,0.3c-0.4,0-0.6,1.1-1.6,0.7c0.2,0.3-0.3,0.3,0,0.6
				c-0.3,0-0.5,0.1-0.7,0.2c0-1.5-1,1.1-1.1-0.1c0.1,1.8-1.2-0.2-1.2,1.1c0-0.1,0-0.1,0-0.1c0,0.2-0.3,0.6-0.3,0.1
				c-0.1,0.2-0.3,0.4-0.5,0.6c0.1-0.6-0.5,0.2-0.9,0c0.2,0.4-0.4,0-0.4,0.1c-0.1,0.1-1.2,0.6-1.2,0.6c0-0.3,0-0.1-0.2-0.3
				c0.1,0,0.1,0,0.1-0.1c-0.1,0.1-0.1,0.1-0.2,0c-0.3,0.6-0.2-0.8-0.8,0.3c0-0.1-0.3-0.2-0.3-0.5c-0.4,0.1,0,0.5-0.5,0.4
				c-0.2,0-1.1,0.1-1.2,0c0.1-0.1-0.3-0.2-0.5-0.5c-0.1,0.1-0.2,0.3-0.2,0.5c-0.1-0.4-0.5,0.2-0.6-0.2c0.1-0.1,0.2-0.5,0-0.4
				c-0.4,0.2-0.3,0.1-0.4,0.5c0,0.1-1.8-0.6-1.7-0.6c0,0,0,0.2,0,0.3c-0.1-0.1-0.1-0.2,0-0.4c-0.3,0.1-1.6,0.5-0.9-0.3
				c-0.1,0-0.3,0-0.4,0.1c0-0.1,0-0.2,0-0.3c0,0.1-0.1,0.2-0.2,0.1c0-0.1,0.1-0.1-0.1-0.1c0,0.1,0,0.2,0.1,0.3
				c-0.1,0-0.2,0.1-0.3,0.1c0.3-0.4-0.4-0.2-0.4-0.1c0.1-0.2,0,0,0.1-0.1c-0.1-0.6-0.3,0.2-0.4,0c0.5-0.2,0-0.1,0.1-0.3
				c-0.1,0.5-0.9-0.3-1.4-0.2c0.2-0.5,0.1-0.7-0.4-0.2c-0.3-0.5-2.2-0.6-1.5-1.5c-0.2-0.1-0.3,0-0.4,0.3c-0.6-0.2-0.3-0.4-0.7-0.4
				c0.4-0.4-0.1-0.3-0.2-0.2c0-0.1,0-0.1,0.1-0.2c-0.3,0.1-0.3,0.2-0.2-0.1c-0.8,0.3-0.2-0.8-0.7-0.3c-0.1-0.2-0.1-0.4,0-0.6
				c-1.1,0.1-1.2-0.8-1.6-0.9c0.1-0.1,0.2-0.2,0.4-0.3c0-0.4-0.6,0-0.5,0c0-0.1-0.1-0.2-0.3-0.2c0.1-0.1,0.2-0.2,0.4-0.2
				c-0.1,0-0.1,0-0.2,0c0.2-0.3,1.3-0.4,1.2-0.7c-0.2,0-1.2,0.6-1.4,0.4c0.1,0,0.2,0,0.3,0c0.2-0.4-0.7-0.1-0.7-0.1
				C6,23.2,6.1,23.1,6.1,23c-0.4,0.2-0.5,0-0.7,0c0.3-0.1,0.5-0.2,0.6-0.4c-0.3,0-0.5,0.1-0.7,0.2c0.1-0.1,0.2-0.2,0.3-0.2
				c0.1-0.2-0.6,0-0.1-0.3c-0.1,0-0.2,0.1-0.3,0.1c0.3-0.5-0.3-1-0.3-0.3C5.1,22,4.7,22,4.6,22c0,0,0.1-0.1,0.1-0.1
				c-0.4-0.1-0.1,0-0.1-0.2c-0.7,0.2,0-0.3,0.2-0.3c0-0.1,0-0.1,0-0.2c-2.2,0.7-0.1,0-0.7,0c0.7,0.1,0.6-0.7,0-0.2
				c0-0.1,0-0.2,0.2-0.2c-0.1,0-0.3,0-0.4,0.1c0.8-0.9,1.7-1.1-0.2-0.7c-0.2-0.2,0.5-0.4,0.4-0.5c-0.7,0.2-1.3,0.1-0.2-0.2
				c-0.4,0.1,0.5,0.2,0.3-0.2C4,19,3.8,19.8,3.8,19.2c0,0-1.1,0.3-0.5,0.2c0-0.3-0.3,0-0.4-0.2c0.2-0.1,0.6,0,0.7-0.1
				c-0.5-0.4,0-0.1,0.2-0.5c0,0-0.8-0.2-0.9-0.4C3.1,18.2,2.7,18,3.1,18c-0.4,0.4,0.6,0.4,0.5,0.4c0.2,0.3,0.5-0.1,0.8-0.3
				c0-0.2-0.6,0.1-0.6,0.2c-0.1-0.2-0.2-0.4-0.5-0.4c0.1-0.1,0.2-0.1,0.4-0.1c-0.2-0.2-0.2-0.5-0.3-0.7C3.1,17.4,3.2,17,3,17
				c1.3-0.3-1.2-1.3,0.2-1.8c-0.1,0-0.2,0-0.2,0.1c0.1,0,0-0.5-0.3-0.4c1.6-0.6-0.7-0.2,0.2-1c-0.1,0-0.1-0.1-0.2-0.1
				c0.2,0,0.3-0.1,0.1-0.2c0.2,0,0.5,0.1,0.6,0.2c0.1-0.1-1.1,0.4-0.3,0.3c0-0.1,0.5-0.3,0.6,0c-0.1,0-0.2,0-0.3,0.1
				c0.6,0.2,0.9,1,0,0.5c0,0.1,0,0.2,0,0.3c0.2,0,0.5,0,0.7,0c-0.1,0-0.1,0-0.2,0.1c0.4,0.3,0.9,0.7,0.5,1.1
				c0.8,0.4,1.1,1.7,1.6,2.5c-0.1,0-0.2,0-0.3,0c0.2,0-0.1,0.1,0,0.2c0.3-0.4,0.8,0.5,1.1,0.6c-0.1,0-0.1,0.1-0.2,0.1
				c0.7,0,0.1,0.8,0.2,0.9c1.6,0.3,2,2.5,3.6,3.2c-0.1,0.1-0.2,0.1-0.3,0.2c0-0.3,1.1,0.4,1,0.5c0.5-0.1,0.7,1.2,1.1,0.6
				c0.1,0.4,0.7,0.3,0.8,0.7c0.2-0.5,0.8,0.5,0.8,0.5c0.9-0.1,3.3,1.8,4.1,0.9c0.3,0.4,0.2,0.2,0.6,0.1c0.1,0,1,0,1,0.1
				c-0.2,0.2,0,0.2,0.1,0.1c0.1,0.1,0.2,0.3,0.3,0.4c0.1-0.1,0.1-0.3,0.1-0.5c0.1,0.4,0.4-0.3,0.5,0.1c-0.2,0.6,0.4,0.3,0.3-0.1
				c0.1,0.2,1.5,0,1.6,0.1C22,27.2,22,27.9,22,27.3c0.2,0.1,0.2,0.2,0.1,0.4c-0.2-0.1,0.7-0.4,0.6-0.3c0-0.1,0.1-0.2,0.1-0.3
				c0.2,0.1,0.2,0.3,0.2,0.5c0.1,0,0.2-0.1,0.2-0.2c0.1,0.1,0.1,0.2,0.2,0.3c-0.1-0.1,0-0.2,0.1-0.2c0,0.1,0,0.2,0.2,0
				c-0.2-0.5-0.2,0-0.1-0.4c0.1,0.5,0.4-0.1,0.3-0.1c0,0.1,0,0.2,0.1,0.3c0.1,0.1,0-0.4,0.2-0.4c-0.2,0.4,0,0.1,0.2,0.3
				C24,26.8,25,27,25.2,26.5c0.1,0.1,0.4,0.2,0.4,0.3c0-0.2,0.1-0.8,0.6-0.5c0-0.6,0.8-0.4,1.1-0.4c-0.3-0.5,0.2-0.2,0.3-0.6
				c0.3,0.5,0.3,0.1,0.3-0.1c0.1,0,0.1,0.1,0.2,0.1c0-0.2-0.1-0.3,0.2-0.1c-0.1-0.7,0.7,0,0.3-0.5c1.1,0.2,0-0.2,1.4-1.2
				c0.7,0.7,0.3,0,0.3-0.4c0.1,0,0.5,0.3,0.3,0.1c0.9,0.4-0.1,0.3,0.4,0.2c-0.1-0.1-0.2-0.2-0.1-0.4c0,0,0.1,0.5,0.2,0.3
				c0.1-0.3-0.3-0.2-0.2-0.5c0.1,0.1,0.2,0.1,0.3,0.1c-0.3-0.3-0.3-0.3-0.2-0.6c0.1,0.2,0.3,0.4,0.6,0.5c-0.1-0.2-0.3-0.4-0.4-0.5
				c0.2,0,0.3,0.1,0.3,0.3c0.2,0-0.3-0.5,0.2-0.2c-0.1-0.1-0.1-0.1-0.2-0.2c0.5,0.2,0.3-0.3,0.5-0.1c-0.1-0.4-0.1-0.1-0.4-0.2
				c0.3,0.1,0.1-0.2,0.1-0.3c0,0,0.1,0.1,0.1,0.1c-0.1-0.3,0-0.1,0.1-0.1c-0.5-0.5,0.3,0,0.3,0.1c0.4,0-0.1-0.3-0.2-0.5
				c0.1,0,0.1,0,0.1-0.1c0.2,0.6,0.9,0.3,0.2-0.1c0.1,0,0.2,0,0.3,0.1c-0.1-0.1-0.1-0.2-0.2-0.3c1.2,0.5,1.4,0.4,0.5-0.3
				c0-0.2,0.6,0.2,0.7,0.1c-0.5-0.5-0.7-0.9,0.1-0.3c-0.1-0.1-0.1,0.3,0.3-0.1c-0.2-0.1-0.4-0.1-0.1-0.2c0,0-0.9-0.6-0.5-0.3
				c0.2-0.1-0.2-0.2-0.1-0.3c0.2,0.1,0.3,0.4,0.5,0.5c0-0.1,0-0.2,0.1-0.3c0.1,0.1,0.2,0.2,0.4,0.2c0,0-0.3-0.7-0.3-0.8
				c0.3,0.2,0.2-0.2,0.4,0.1c-0.4-0.1-0.1,0.7,0,0.7c0.2-0.3,0.5-0.3,0.2-0.7c0.6,0,0.2,0.1,0.7-0.4c-0.4,0,0-0.2-0.2-0.3
				c0.6,0.2,1-1.3,1.2-1.6C36.6,16,37.5,15.3,37.4,14.1 M33.4,21.3C33.1,21.4,33.4,21.3,33.4,21.3 M11.7,24.9
				C11.6,24.8,11.7,24.9,11.7,24.9"/>
		</g>
		<g>
			<path class="st4" d="M3.6,12.9c0,0-0.1,0-0.1,0C3.6,12.8,3.6,12.9,3.6,12.9z M24.3,21.8L24.3,21.8C24.3,21.8,24.3,21.8,24.3,21.8
				z M3.4,13.2c0-0.1,0.3-0.4,0.4-0.5C3.8,12.9,3.6,13.2,3.4,13.2 M33.6,13.1c0.1,0,0.5,0.2,0.5,0.3C34,13.3,33.7,13.2,33.6,13.1
				 M22,22C22,22,22,22,22,22 M3.8,9.9L3.8,9.9C3.8,9.9,3.8,9.9,3.8,9.9z M37.1,10.5c1.6,0.8,0.8,1.1,0.5,2.4
				c0.1-0.4-0.4,0.5-0.3,0.4c-0.2,1-1.6,0.6-1.6,1.3c-0.2-0.2-0.3,0.1-0.2,0.2c-0.1-0.1-0.2-0.1-0.3,0c0.3,0.7-0.4,0.3-0.3,0.8
				c0-0.1-0.7,1.3-1.3,0.9c0.4,0.5-0.6,0.7-0.4,1c0,0-1.1,0.1-0.8,0.5c-0.2-0.1,0-0.2-0.2-0.4c-0.2,0.4-2.2,1.6-2.4,1.6
				c-0.1-0.1-0.1-0.2-0.3,0.1c0.1,0-0.7,0.2-0.5,0.2c0-0.5-0.6,0.9-1.4,0.3c0.1,0.3-0.2,0.3,0,0.6c-0.2,0-0.4,0-0.6,0.1
				c0-1.5-0.9,1-0.9-0.2c0,0.2-0.1,0.5-0.1,0.7c0-0.1-0.1-0.1-0.2-0.1c0.2,0.6-0.4-0.1-0.4-0.1c-0.2,0-0.5,0.3-0.3,0.5
				c0-0.1,0-0.1,0-0.1c0,0.2-0.3,0.6-0.3,0.1c-0.1,0.2-0.2,0.4-0.5,0.5c0.1-0.6-0.4,0.2-0.7-0.1c0.2,0.4-0.4,0-0.4,0.1
				c0,0-1.1,0.5-1,0.5c0-0.2-0.1-0.3-0.1-0.3C22,22,22,22,22,21.9c-0.2,0.5-0.2-0.2-0.3-0.2c-0.1,0-0.4,0.4-0.4,0.5
				c0-0.1-0.2-0.2-0.2-0.5c-0.2,0.7-1.4,0.7-1.8-0.1c-0.1,0.1-0.2,0.3-0.2,0.5c-0.1-0.4-0.4,0.2-0.5-0.2c0.3-0.6-0.3-0.4-0.3,0.1
				c0-0.1-0.4-0.3-0.5,0c-0.3-0.4-0.8,0-0.8-0.6c-0.1,0-0.2,0-0.2,0.1c0,0.3,0.3-0.4,0,0.2c-0.1-0.1-0.1-0.2,0-0.4
				c0.1,0.3-0.8,0.1-0.6,0.1c-0.1,0.1-0.2,0.1-0.2,0.2c-0.1-0.2,0-0.4,0.1-0.5c-0.1,0-0.2,0-0.3,0.1c0-0.1,0-0.2,0-0.3
				c0,0.1-0.1,0.2-0.2,0.1c0-0.1,0.1-0.1-0.1-0.1c-0.2,0.5,0.2,0.1-0.2,0.4c0.2-0.4-0.4-0.1-0.3-0.1C15,21,15,21,15,20.8
				c0-0.2-0.3,0.3-0.3,0.2c0,0,0-0.3,0-0.4c-0.1,0.5-0.7-0.2-1.1,0c0-0.2,0.1-0.4,0.2-0.5c0,0-0.4,0.1-0.5,0.4
				C13,20,11.4,20.2,12,19.4c-0.1,0-0.1,0-0.1-0.1c-0.5,0.9-0.3,0.1-0.8,0.2c0.3-0.4-0.1-0.2-0.2-0.2c0-0.1,0-0.1,0.1-0.2
				c-0.2,0.1-0.3,0.2-0.2-0.1c-0.7,0.4-0.2-0.7-0.6-0.1c-0.1-0.2-0.1-0.4-0.1-0.6c-0.7,0.4-1.2-0.3-1.5-0.4c0.5-0.5,0.1-0.5-0.2-0.2
				c-0.1-0.1-0.2-0.1-0.3-0.1c0,0,0.3-0.6,0.1-0.3c0.1-0.3,1.1-0.7,1-1c-0.2,0-1,0.9-1.2,0.7c0,0,0.5-0.2,0.3-0.2
				c-0.4-0.1-0.3,0.3-0.6,0.2c0.1-0.1,0.1-0.2,0.1-0.3c-0.3,0.2-0.3,0.3-0.6,0.2c0.2-0.1,0.4-0.3,0.5-0.5c-0.2,0.1-0.4,0.2-0.6,0.4
				c0-0.1,0.1-0.2,0.3-0.3c0-0.2-0.6,0.2-0.2-0.2c-0.1,0.1-0.1,0.1-0.2,0.2c0.2-0.4-0.3-0.3-0.1-0.5c-0.5,0.1-0.1,0.1-0.3,0.4
				c0.1-0.3-0.2-0.1-0.3-0.1c0,0,0.1-0.1,0.1-0.1c-0.4,0.1-0.1,0-0.1-0.1c-0.6,0.4,0-0.3,0.1-0.3c0-0.1,0-0.1,0-0.2
				c-2,1.3-0.1,0-0.6,0.2c0.7-0.1,0.4-0.8,0-0.2c0-0.1,0-0.2,0.1-0.2c-0.1,0-0.2,0.1-0.3,0.2c0.6-1.1,1.3-1.4-0.3-0.5
				c-0.2-0.1,0.4-0.5,0.3-0.6c-0.6,0.3-1.2,0.4-0.2-0.1c-0.3,0.2,0.5,0,0.3-0.2c-0.4-0.1-0.3,0.1-0.5,0.2c-0.1-0.4-0.5,0.2-0.7,0.2
				c0.4-0.3-0.1,0-0.2-0.1c0.2-0.1,0.5-0.2,0.6-0.3c-0.1,0-0.2-0.1-0.3-0.2c0.2,0,0.3-0.1,0.3-0.3c0,0-0.8,0.1-0.9,0
				c0.3-0.2-0.1-0.2,0.2-0.3c-0.3,0.4,0.6,0.2,0.6,0.2C5,14,5.2,13.5,5.4,13.3c0.1,0.2-1.1,0.1-1.1,0.1c0.1-0.1,0.2-0.2,0.3-0.2
				c-0.2-0.1-0.3-0.3-0.4-0.5C4,13,4.1,12.6,3.9,12.7c1.2-0.6-1.5-0.8-0.2-1.6c-0.1,0-0.2,0-0.2,0.1c0.1-0.1-0.1-0.4-0.4-0.3
				c0.1,0,0.7-0.3,0.6-0.4c-0.2-0.2-0.3,0-0.4,0c-0.4-0.2-0.2-0.5-0.1-0.6C3.1,9.9,3,9.9,3,9.9c0.9-0.2-1.4-0.3,0.7-0.1
				c0.1-0.1-1,0.5-0.3,0.3c0-0.1,0.4-0.4,0.6-0.1c-0.1,0-0.2,0.1-0.2,0.1c0.2-0.1,0.7,0.3,0.7,0.4C3.2,11,4,10.4,3.8,10.9
				c0.2-0.1,0.4-0.1,0.7-0.1c-0.1,0-0.1,0.1-0.2,0.1c0.4,0.1,0.9,0.4,0.6,0.8c0.4-0.1,1.8,1.4,2,1.7c-0.1,0-0.2,0.1-0.3,0.1
				c0.2-0.1-0.1,0.1,0,0.2c0.2-0.5,0.8,0.2,1.1,0.1c0,0-0.1,0.1-0.1,0.1c0.6-0.2,0.3,0.6,0.4,0.7c1.4-0.2,2.2,1.6,3.7,1.9
				c-0.1,0.1-0.2,0.2-0.3,0.3c-0.1-0.3,1,0.2,0.9,0.2c0.5-0.2,0.7,1,1,0.3c0.1,0.4,0.7,0.1,0.7,0.5c0.2-0.5,0.8,0.4,0.7,0.4
				c0.8-0.2,2.8,1.5,3.5,0.7c0,0,0.2,0.3,0.2,0.3c0.1-0.3,0.9-0.1,1.1-0.1c-0.1,0.1,0.1,0.2,0.3,0.5c0.1-0.1,0.1-0.3,0.1-0.5
				c0.1,0.4,0.3-0.2,0.4,0.1c-0.2,0.6,0.3,0.3,0.2-0.1c0.1,0.2,0.2-0.2,0.2,0.1c0.1-0.2,0.2,0.2,0.2-0.2c0.3,0.3,0.6-0.2,0.8,0.4
				c0.1,0,0.1-0.1,0.1-0.2c-0.1-0.2-0.1,0.5-0.1-0.1c0.1,0.1,0.2,0.2,0.1,0.4c-0.2-0.2,0.6-0.4,0.5-0.3c0-0.1,0.1-0.2,0.1-0.2
				c0.1,0.1,0.2,0.3,0.2,0.5c0.1,0,0.2-0.1,0.2-0.2c0,0.1,0.1,0.2,0.1,0.3c-0.1-0.1,0-0.2,0.1-0.2c0,0.1,0,0.2,0.1,0
				c-0.1-0.5-0.2,0-0.1-0.4c0,0.5,0.4,0,0.3-0.1c0,0.2,0,0.2,0.1,0.3c0.1,0.1,0.1-0.4,0.1-0.3c-0.2,0.4,0,0.2,0.1,0.3
				c0-0.1,0-0.1,0-0.2c0.1,0.2,0.2-0.2,0.2-0.3c0.9,0.3,0.3-0.5,1,0.1c0-0.5,1-1,1.5-0.7c-0.2-0.5,0.2-0.1,0.3-0.5
				c0.2,0.5,0.2,0.1,0.2,0c0,0,0.1,0.1,0.1,0.1c0-0.2-0.1-0.3,0.1-0.1c-0.1-0.4,0.2-0.4,0.4-0.2c0-0.1,0-0.2-0.1-0.3
				c1,0.3,0.4-0.8,1.3-0.6c0-0.1,0-0.1,0-0.2c0.5,0.8,0.3,0.1,0.3-0.3c1.4,1.2,0,0.1,0.2,0.2c0.9,0.7-0.2,0.2,0.4,0.3
				c-0.1-0.1-0.1-0.2-0.1-0.4c0,0,0.1,0.5,0.2,0.3c0.2-0.3-0.2-0.3-0.1-0.6c0.1,0.1,0.1,0.2,0.2,0.2c-0.2-0.4-0.2-0.3-0.1-0.6
				c0.1,0.2,0.2,0.4,0.4,0.6c-0.1-0.2-0.2-0.4-0.3-0.6c0.1,0.1,0.2,0.2,0.3,0.3c0.2,0.1-0.1-0.5,0.2-0.1c0-0.1-0.1-0.1-0.1-0.2
				c0.4,0.3,0.3-0.2,0.5,0.1c0-0.4-0.1-0.1-0.3-0.3c0.4,0.2-0.2-0.4,0.3-0.2c-0.4-0.7,0.9,0.9,0.1-0.4c0.1,0,0.1,0,0.1,0
				c0,0.6,0.8,0.5,0.2,0c0.4-0.3,0.1,0.5,0.1-0.2c2,1.6-0.4-1,1.1,0.1c-0.4-0.6-0.4-1,0.1-0.2c-0.1-0.1-0.1,0.2,0.3,0
				c-0.2-0.1-0.4-0.2-0.1-0.3c0,0-0.4-0.5-0.4-0.5c0.3,0.3,0-0.1,0.1-0.2c0.1,0.1,0.3,0.5,0.3,0.5c0-0.1,0-0.2,0.1-0.2
				c0,0.1,0.1,0.3,0.3,0.3c-0.1,0-0.2-0.7-0.1-0.8c0.2,0.2,0.2-0.1,0.3,0.2c-0.4-0.2-0.2,0.6-0.1,0.6c0.2-0.2,0.6-0.1,0.3-0.5
				c0.6,0.2,0.1,0.2,0.7-0.1c-0.4-0.2,0-0.1-0.1-0.3c0.5,0.4,1.1-0.7,1.4-1C36.2,11.9,37.2,11.6,37.1,10.5 M32.5,15.4
				C32.2,15.4,32.5,15.4,32.5,15.4 M13.1,17.4C13,17.3,13,17.4,13.1,17.4"/>
		</g>
		<g>
			<path class="st4" d="M4.4,8.6c0,0-0.1,0-0.1,0C4.4,8.5,4.4,8.5,4.4,8.6z M23.2,13.8L23.2,13.8C23.3,13.8,23.3,13.8,23.2,13.8z
				 M4.3,8.9c0-0.1,0.3-0.4,0.3-0.5C4.5,8.6,4.4,8.8,4.3,8.9 M32.3,7.1c0,0,0-0.1,0-0.1C32.4,7.1,32.4,7.1,32.3,7.1z M32,6.9
				c0.1,0,0.4,0.3,0.4,0.4C32.3,7.2,32.1,7,32,6.9 M21.3,13.9C21.3,13.9,21.3,13.9,21.3,13.9 M4.2,5.9L4.2,5.9
				C4.2,5.9,4.2,5.9,4.2,5.9z M36,5.6c1.1,1.1-0.3,1.3-0.4,2.2c0.2-0.7-0.8,0.7-0.4,0.3c-0.4,0.7-1.5,0-1.6,0.7
				c-0.2-0.3-0.2,0-0.2,0.2c-0.3-0.5-0.2,0.8-0.7,0.4c-0.2,0.6-0.7,1.1-1.1,0.7c0.3,0.5-0.6,0.6-0.5,0.9c-0.1-0.1-0.1-0.1-0.2-0.2
				c0.1,0.2-0.8,0.1-0.6,0.5c-0.1-0.2,0-0.2-0.1-0.4c-0.4,0.4-2,0.7-2,1c0.1-0.1-0.4,0-0.3,0.1c-0.1,0,0-0.2-0.3,0.1
				c-0.5,0.1-0.9,0.2-1.4,0.5c0-0.1-0.1-0.2-0.2-0.3c0.1,0.3-0.2,0.3,0,0.6c-0.2-0.1-0.3-0.1-0.5,0c0.2-1.1-0.7,0.1-0.7,0.1
				c0-0.1,0-0.3-0.1-0.4c0,0.2-0.1,0.5-0.1,0.7c0-0.1-0.1-0.1-0.1-0.2c0.2,0.8-0.6-0.9-0.6,0.3c0-0.1,0-0.1,0-0.1
				c0,0.2-0.2,0.5-0.2,0.1c-0.1,0.2-0.2,0.4-0.4,0.5c0-0.4-0.6-0.1-0.6,0.1c-0.3-0.3-1.1,0.3-1.2,0.4c0-0.2-0.1-0.3-0.1-0.3
				c-0.1,0.1-0.1,0.1-0.1,0c0,0.1,0,0.1-0.1,0.2c-0.3,0.1,0-0.4-0.1-0.3c-0.1,0-0.3,0.4-0.3,0.5c0-0.1-0.2-0.2-0.2-0.5
				c-0.2,0.7-1.1,0.7-1.5,0c-0.1,0.2-0.1,0.3-0.1,0.5c-0.1-0.4-0.3,0.2-0.4-0.1c0.2-0.6-0.3-0.3-0.3,0.1c-0.1-0.2-0.3,0.2-0.2-0.2
				c-0.1,0.2-0.2-0.2-0.2,0.2c-0.3-0.4-0.7,0.1-0.7-0.5c-0.1,0-0.1,0.1-0.1,0.2c0.1,0.3,0.2-0.5,0,0.1c-0.1-0.1-0.1-0.2,0-0.4
				c0.2,0.3-0.7,0.2-0.5,0.2c-0.1,0.1-0.1,0.1-0.2,0.2c-0.1-0.2-0.1-0.4,0-0.5c-0.1,0-0.2,0.1-0.2,0.2c0-0.1,0-0.2,0-0.3
				c0,0.1,0,0.2-0.1,0.2c0-0.1,0.1-0.2-0.1-0.1c-0.1,0.5,0.2,0.1-0.1,0.4c0.1-0.5-0.3,0-0.3,0c0-0.2,0.1-0.2,0.1-0.3
				c0-0.1-0.2,0.4-0.3,0.3c0.3-0.3,0-0.1,0-0.3c0,0.1,0,0.1-0.1,0.2c0-0.2-0.3,0.1-0.3,0.2c-0.2,0-0.3-0.5-0.6-0.1
				c0-0.2,0-0.4,0.1-0.5c0,0-0.3,0.3-0.3,0.5c-0.4-0.4-1.7,0.2-1.3-0.8c-0.1,0-0.1,0-0.1,0c0.5,0.3-0.8,0.5-0.7,0.4
				c0.2-0.5-0.1-0.2-0.2-0.1c0-0.1,0-0.1,0-0.2c-0.2,0.2-0.2,0.3-0.2,0c-0.2,0.3-0.5,0.2-0.4-0.2c-0.1,0-0.2,0.1-0.2,0.2
				c-0.1-0.1-0.2-0.3-0.2-0.5c-0.7,0.6-1.1-0.1-1.4,0c0.4-0.6,0-0.5-0.2-0.1c-0.1-0.1-0.2-0.1-0.3,0c0.4-1.7,0.1,0,0.1-0.3
				c0.1-0.3,0.9-0.9,0.7-1.1c-0.1,0.1-0.8,1.1-1,0.9c0,0,0.4-0.3,0.2-0.3c-0.3,0-0.2,0.3-0.5,0.4c0.1-0.1,0.1-0.2,0.1-0.3
				c-0.2,0.3-0.3,0.3-0.6,0.4c0.2-0.2,0.3-0.4,0.4-0.6c-0.2,0.1-0.3,0.3-0.5,0.5c0-0.1,0.1-0.3,0.2-0.4c0-0.2-0.5,0.3-0.2-0.2
				c-0.1,0.1-0.1,0.1-0.2,0.2C8,11,7.6,11.3,7.8,11c-0.4,0.2-0.1,0.2-0.2,0.4c0.1-0.3-0.2,0-0.3,0c0,0,0.1-0.1,0.1-0.1
				c-0.3,0.1-0.1,0.1-0.1-0.1c-0.6,0.6,0.2-0.4,0-0.4c-1.7,1.7-0.1,0.1-0.5,0.3c0.6-0.2,0.3-0.8-0.1-0.2c0-0.1,0-0.2,0.1-0.3
				c-0.1,0.1-0.2,0.1-0.3,0.2c0.4-1.2,1-1.5-0.3-0.4c-0.2,0,0.3-0.6,0.2-0.6c-0.5,0.4-1,0.6-0.2-0.1C5.8,10,6.6,9.7,6.3,9.5
				C6,9.5,6.1,9.7,5.9,9.8c-0.1-0.4-0.5,0.3-0.6,0.3c0.3-0.3-0.1,0-0.2-0.1C5.2,10,5.6,9.8,5.6,9.7c-0.1,0-0.2,0-0.3-0.1
				c0.1,0,0.3-0.2,0.3-0.3c0,0.1-0.7,0.2-0.9,0.2C5,9.2,4.7,9.2,5,9.1c-0.2,0.4,0.6,0.1,0.5,0c0.3,0.1,0.4-0.4,0.6-0.6
				c0.1,0.2-0.9,0.3-1,0.3c0.1-0.1,0.1-0.2,0.3-0.2C5,8.5,4.9,8.1,4.6,8.4C5.4,7.7,4.3,8,4,7.4C4.1,7.3,4.2,7.2,4.3,7
				C4.2,6.9,4.1,7.3,4.1,7.1C4,7,4.1,6.7,3.7,7c0.1-0.1,0.6-0.4,0.5-0.5C4,6.3,3.9,6.5,3.8,6.6c-0.4,0-0.2-0.3-0.2-0.4
				c-0.1,0-0.1,0-0.2,0C3.7,6.1,3.7,6,3.5,6c0.2-0.1,0.4-0.1,0.6-0.1c0,0.1-0.6,0.3-0.4,0.4C3.8,6.3,4.2,5.7,4.5,6
				C4.4,6,4.3,6.1,4.2,6.2C4.4,6.1,4.9,6.2,5,6.3C3.7,7,4.5,6.3,4.4,6.8C4.6,6.7,4.8,6.6,5,6.5c0,0-0.1,0.1-0.1,0.1
				c0.4,0,0.9,0.1,0.7,0.6c0.4-0.2,1.8,0.9,2,1.1c0,0-0.4,0.3-0.2,0.3c0.2-0.5,0.7,0,1-0.1c0,0.1-0.1,0.1-0.1,0.2
				c0.6-0.3,0.3,0.5,0.4,0.6C9,9,10.7,9.5,10.7,9.9c0.6-0.2,0.8,0.4,1.4,0.3c-0.1,0.1-0.1,0.2-0.2,0.3c-0.2-0.5,1.4,0.3,1.4,0.3
				c0.2-0.1,0.2,0.2,0.3-0.3c0.1,0.3,0.6,0,0.7,0.4c0.1-0.6,0.7,0.2,0.7,0.2c0.7-0.4,2.7,0.8,3.1,0c0,0,0.2,0.3,0.2,0.3
				c0-0.4,0.8-0.1,1-0.2c-0.1,0.2,0.1,0.2,0.3,0.5c0.1-0.2,0.1-0.3,0.1-0.5c0,0,0.6,0.2,0.4,0.5c0.2-0.3,0.2-0.2,0.2-0.5
				c0.1,0.2,0.2-0.3,0.2,0.1c0.1-0.2,0.2,0.2,0.1-0.2c0.3,0.3,0.5-0.2,0.7,0.4c0.1,0,0.1-0.1,0.1-0.2c-0.1-0.2-0.1,0.5-0.1-0.1
				c0.1,0.1,0.1,0.2,0.1,0.4c-0.2-0.2,0.6-0.4,0.4-0.3c0-0.1,0.1-0.2,0.1-0.2c0.1,0.2,0.2,0.3,0.1,0.5c0.1,0,0.2-0.1,0.2-0.2
				c0,0.1,0.1,0.2,0.1,0.3c-0.1-0.1,0-0.2,0.1-0.2c0,0,0,0.2,0.1,0.1c-0.1-0.4-0.1-0.1-0.1-0.4c0,0.4,0.3,0,0.2,0
				c0,0.5,0.1,0.2,0.2,0c-0.2,0.4,0,0.1,0.1,0.3c0-0.1,0-0.1,0-0.2c0.1,0.2,0.2-0.2,0.2-0.2c0.8,0.4,0.2-0.5,0.8,0.2
				c0-0.4,0.9-0.9,1.3-0.5c-0.2-0.6,0.2-0.1,0.3-0.5c0.1,0.5,0.2,0.2,0.2,0c0,0.1,0.1,0.1,0.1,0.2c0-0.2-0.1-0.3,0.1-0.1
				c-0.1-0.4,0.3-0.4,0.4-0.1c0-0.1,0-0.2-0.1-0.3c0.2,0,0.3,0.1,0.4,0.3c0-0.8,0.7-0.6,0.8-0.9c0.1,0.1,0.1,0.3,0.2,0.4
				c0,0,0.1-0.6,0.1-0.6c1.1,1.3,0,0.1,0.2,0.2c0.8,1-0.2,0.1,0.3,0.3c-0.1-0.1-0.1-0.2,0-0.4c0,0,0,0.4,0.1,0.3
				c0.2-0.2-0.1-0.3-0.1-0.6c0,0.1,0.1,0.2,0.2,0.2c0,0-0.2-0.5-0.1-0.5c0.1,0.1,0.1,0,0.1-0.1c0.1,0.2,0.2,0.4,0.3,0.6
				c0-0.2-0.1-0.4-0.2-0.6c0.1,0.1,0.2,0.2,0.2,0.4c0.1,0.1-0.1-0.5,0.2,0c0-0.1-0.1-0.2-0.1-0.2c0.4,0.4,0.2-0.2,0.4,0.2
				c0-0.4-0.1-0.2-0.2-0.4c0.2,0.2,0.1-0.1,0.1-0.2c0,0,0,0.1,0.1,0.1c0-0.3,0-0.1,0.1,0c-0.3-0.7,0.3,0.3,0.4,0.2
				c-0.1-0.2-0.1-0.4-0.2-0.6c0.1,0,0.1,0,0.1,0c0,0.5,0.6,0.6,0.2,0c0.4-0.2,0,0.5,0.1-0.1c0.4,0.4,0.5,0.5,0.7,0.8
				c0.2-0.4-0.5-1.2,0.3-0.5c-0.2-0.6-0.3-1,0.1-0.2c-0.2-0.2,0,0.4,0.2,0.1c-0.1-0.1-0.4-0.3,0-0.3c0,0-0.3-0.6-0.3-0.6
				c0.2,0.4,0-0.1,0.1-0.2c0.1,0.2,0.2,0.5,0.2,0.6c0-0.1,0.1-0.2,0.1-0.2c0,0.1,0.1,0.3,0.3,0.3c-0.1,0-0.1-0.7,0-0.8
				c0.1,0.2,0.2,0,0.3,0.3c-0.3-0.2-0.2,0.5-0.2,0.6c0.2-0.2,0.5,0.1,0.4-0.4c0.5,0.3,0,0.2,0.6,0.1c-0.3-0.2,0-0.1-0.1-0.3
				c0.3,0.4,1.2-0.3,1.5-0.5C34.6,6.5,35.6,6.5,36,5.6 M30.7,8.8C30.4,8.7,30.8,8.8,30.7,8.8 M13.3,10.6
				C13.2,10.6,13.2,10.6,13.3,10.6"/>
		</g>
	</g>
</g>
<rect x="-59.4" y="-7.1" class="st2" width="137.9" height="12.4"/>
</svg>
