<?xml version="1.0" encoding="utf-8"?>
<!-- Generator: Adobe Illustrator 26.0.3, SVG Export Plug-In . SVG Version: 6.00 Build 0)  -->
<svg version="1.1" id="レイヤー_1" xmlns="http://www.w3.org/2000/svg" xmlns:xlink="http://www.w3.org/1999/xlink" x="0px"
	 y="0px" viewBox="0 0 9.47 11.6" style="enable-background:new 0 0 9.47 11.6;" xml:space="preserve">
<style type="text/css">
	.st0{display:none;}
	.st1{display:inline;}
	.st2{fill:#E2D6D0;}
	.st3{fill:#DBF0FC;}
	.st4{fill:#F8FDFF;}
</style>
<g class="st0">
	<g class="st1">
		<path class="st2" d="M7.128,21.141c-0.005,0.015-0.006,0.033-0.006,0.052l0.006-0.014V21.141z"/>
		<path class="st2" d="M7.032,20.96c0.03,0.033,0.033,0.11,0.048,0.152c0.007-0.009,0.017-0.025,0.021-0.04
			C7.06,21.06,7.079,20.954,7.032,20.96C7.057,20.985,7.077,20.955,7.032,20.96z"/>
		<path class="st2" d="M6.963,21.115c0.003,0.013,0.009,0.021,0.017,0.025c-0.004-0.013-0.007-0.024-0.008-0.036
			C6.973,21.111,6.969,21.115,6.963,21.115C6.969,21.125,6.981,21.112,6.963,21.115z"/>
		<path class="st2" d="M6.976,21.074C6.957,21.069,6.986,21.098,6.976,21.074L6.976,21.074z"/>
		<path class="st2" d="M6.911,20.987c0.002-0.01,0.021,0.014,0.027,0.013c0-0.013,0.002-0.026-0.001-0.039
			C6.919,20.954,6.905,20.953,6.911,20.987z"/>
		<path class="st2" d="M6.954,20.933v-0.019C6.945,20.93,6.949,20.933,6.954,20.933z"/>
		<path class="st2" d="M7.001,20.98c0.001,0.04-0.013,0.021-0.03,0.009C6.991,21.052,7.022,21.042,7.001,20.98z"/>
		<path class="st2" d="M7.081,20.965l0.004-0.028l-0.021-0.016C7.054,20.928,7.083,20.954,7.081,20.965z"/>
		<path class="st2" d="M6.835,20.844c0.012,0.001,0.026,0.006,0.036,0.02v-0.03C6.859,20.837,6.846,20.84,6.835,20.844
			C6.846,20.837,6.841,20.837,6.835,20.844z"/>
		<path class="st2" d="M6.871,20.793v0.042C6.881,20.83,6.884,20.822,6.871,20.793z"/>
		<path class="st2" d="M6.987,20.953l0.006-0.073C6.98,20.865,6.987,20.929,6.987,20.953z"/>
		<path class="st2" d="M6.784,20.712c-0.021-0.012-0.032-0.033-0.035-0.063c-0.007,0.026-0.007,0.052-0.003,0.081
			C6.75,20.708,6.776,20.731,6.784,20.712C6.759,20.693,6.774,20.737,6.784,20.712z"/>
		<path class="st2" d="M6.749,20.649c0.002-0.015,0.005-0.029,0.005-0.041C6.749,20.624,6.748,20.638,6.749,20.649z"/>
		<path class="st2" d="M6.843,20.737c-0.007-0.019-0.022-0.018-0.033-0.011C6.821,20.734,6.831,20.741,6.843,20.737
			C6.842,20.73,6.836,20.738,6.843,20.737z"/>
		<path class="st2" d="M6.825,20.693c0.001,0.021,0.005,0.03,0.014,0.03L6.825,20.693z"/>
		<path class="st2" d="M6.968,20.813c-0.037-0.028-0.032,0.024-0.037,0.053C6.938,20.822,6.959,20.838,6.968,20.813z"/>
		<path class="st2" d="M6.88,20.788c0.004-0.013,0.01-0.017,0.02-0.018c-0.006-0.011-0.012-0.024-0.02-0.032
			C6.879,20.753,6.88,20.77,6.88,20.788z"/>
		<polygon class="st2" points="6.873,20.726 6.88,20.738 6.881,20.715 		"/>
		<path class="st2" d="M6.798,20.658c0.011,0.023,0.022,0.003,0.024-0.004c-0.01-0.019-0.02-0.042-0.032-0.057
			C6.799,20.617,6.802,20.637,6.798,20.658C6.809,20.681,6.804,20.636,6.798,20.658z"/>
		<path class="st2" d="M6.715,20.405C6.716,20.407,6.726,20.406,6.715,20.405C6.715,20.405,6.717,20.405,6.715,20.405z"/>
		<path class="st2" d="M6.83,20.655c-0.013-0.004-0.011,0.01,0.006,0.04C6.84,20.683,6.837,20.668,6.83,20.655
			C6.828,20.65,6.84,20.667,6.83,20.655z"/>
		<path class="st2" d="M6.765,20.568c-0.007-0.006-0.014-0.014-0.025-0.019C6.737,20.556,6.754,20.564,6.765,20.568z"/>
		<path class="st2" d="M6.792,20.637c0.013,0.007,0.015-0.003,0.006-0.03L6.792,20.637C6.797,20.638,6.793,20.629,6.792,20.637z"/>
		<path class="st2" d="M6.84,20.256c-0.009-0.001-0.016,0.006-0.019,0.015c0.001-0.013-0.004-0.033-0.003-0.049
			c-0.033,0.01-0.025,0.102-0.058,0.098c0.008,0.007,0.076,0.046,0.035,0.065c-0.019,0.008-0.04-0.029-0.058-0.034
			c-0.001,0.027-0.002,0.043-0.016,0.054c0.04,0.006,0.086,0,0.117-0.028C6.875,20.341,6.79,20.295,6.84,20.256
			C6.829,20.249,6.82,20.27,6.84,20.256z"/>
		<path class="st2" d="M6.716,20.409c-0.01,0.01-0.014,0.025-0.014,0.047c0.025,0.011,0.042,0.037,0.048,0.017
			C6.743,20.469,6.728,20.433,6.716,20.409z"/>
		<path class="st2" d="M6.778,20.556c-0.007-0.024-0.015-0.045-0.026-0.064l0.014,0.077c0.012,0.002-0.006-0.034,0.011-0.011
			c-0.001,0.005-0.006,0.015-0.012,0.012c0.064,0.06-0.011-0.008,0.028-0.004c0.011,0.003,0.009-0.016,0.012-0.022
			c0.007,0.003,0.012,0.011,0.012,0.027c0.001-0.036,0.022-0.035,0.008-0.076C6.795,20.49,6.795,20.533,6.778,20.556
			C6.768,20.522,6.797,20.53,6.778,20.556z"/>
		<path class="st2" d="M6.995,20.745c0.001,0,0.004-0.002,0.006,0C6.998,20.735,6.996,20.739,6.995,20.745z"/>
		<path class="st2" d="M6.976,20.724c-0.024-0.004-0.046-0.002-0.07,0.004c0.007-0.043,0.08,0.09,0.089,0.017
			C6.979,20.754,6.97,20.763,6.976,20.724C6.948,20.719,6.975,20.732,6.976,20.724z"/>
		<path class="st2" d="M6.883,20.543c-0.008-0.009-0.021-0.012-0.032-0.018c0.005,0.022,0.006,0.046,0.012,0.066
			C6.878,20.572,6.877,20.563,6.883,20.543z"/>
		<polygon class="st2" points="6.701,20.373 6.679,20.43 6.699,20.404 		"/>
		<path class="st2" d="M6.653,20.342c0.007-0.004,0.015-0.008,0.021-0.015C6.662,20.328,6.653,20.304,6.653,20.342z"/>
		<path class="st2" d="M6.545,20.025C6.542,20.03,6.55,20.043,6.545,20.025L6.545,20.025z"/>
		<path class="st2" d="M6.549,20.027c0.005,0.006,0.01,0.011,0.014,0.017C6.557,20.035,6.553,20.03,6.549,20.027z"/>
		<path class="st2" d="M6.56,20.061c-0.001-0.005-0.005-0.009-0.008-0.014C6.554,20.061,6.557,20.063,6.56,20.061z"/>
		<path class="st2" d="M6.537,20.001c0.002,0.017,0.006,0.024,0.013,0.026L6.537,20.001C6.54,20.015,6.54,20.012,6.537,20.001z"/>
		<g>
			<path class="st2" d="M6.678,20.283c-0.022-0.001-0.028-0.018-0.051-0.02c0.053-0.003-0.041-0.115,0.02-0.102
				c-0.037-0.003-0.057-0.052-0.095-0.065c0.013-0.007,0.021-0.037,0.011-0.048c0.063,0.043,0.019-0.071,0.027-0.109
				c-0.011-0.019-0.013,0.014-0.024,0.01c0.004-0.012,0.004-0.028,0.007-0.044c-0.019,0.009-0.062-0.033-0.057,0.026
				c-0.01-0.038-0.021-0.046-0.04-0.073c-0.027-0.04-0.019-0.074-0.022-0.114c0.001,0.025-0.024-0.081-0.021-0.072
				C6.414,19.626,6.412,19.577,6.4,19.53c-0.018-0.065-0.049-0.08-0.065-0.142c-0.014-0.049-0.043-0.089-0.057-0.138
				c-0.018-0.056-0.021-0.114-0.026-0.17c-0.017-0.166-0.094-0.241-0.137-0.387c-0.005,0.013-0.002,0.023,0.009,0.034
				c-0.056-0.037-0.039-0.119-0.049-0.184c-0.01-0.057-0.04-0.097-0.066-0.123c0.034,0.019,0.014,0.001,0.015-0.046
				c-0.066,0.013-0.003-0.028,0.008-0.057c-0.038,0.001-0.013-0.065-0.054-0.065c0.027-0.033-0.009-0.118,0.031-0.146
				c-0.007-0.004-0.01,0-0.01,0.008c-0.016-0.019-0.021-0.042-0.017-0.068c-0.012,0.004-0.027-0.001-0.039,0.005l0.032-0.071
				c-0.029-0.021-0.049-0.026-0.063,0.012c0.008-0.048,0.005-0.099,0.019-0.147c-0.006,0.006-0.014,0.006-0.022,0.015
				c-0.004-0.018,0.014-0.073-0.008-0.077c-0.023-0.014-0.039-0.054-0.05-0.085c-0.035-0.092-0.056-0.202-0.104-0.28
				c0.066-0.002-0.042-0.053,0.003-0.075c-0.015-0.002-0.032-0.019-0.041,0.011c-0.001-0.064-0.048-0.103-0.02-0.156
				c-0.011,0.006-0.021,0.01-0.03,0.018c0.004-0.008,0.005-0.019-0.005-0.029c-0.009,0.003-0.013,0.011-0.015,0.029
				c-0.017-0.079,0.048-0.102,0.078-0.116c-0.032-0.027-0.027-0.051-0.009-0.082c-0.017-0.005-0.04-0.019-0.034,0.024
				c-0.012-0.034-0.061-0.137-0.024-0.152c-0.008-0.003-0.036-0.132-0.041-0.153c0.051,0.059,0.003-0.07,0.002-0.08
				c-0.009-0.021-0.045-0.104-0.061-0.128c0.107,0.006-0.027-0.082-0.017-0.142l0.021,0.016c0.004-0.011-0.116-0.117-0.123-0.065
				c-0.051-0.063,0.034-0.029,0.029-0.087c-0.015-0.002-0.072,0.032-0.065-0.032c0.003-0.042,0.029-0.121-0.01-0.16
				c0.098,0.043-0.041-0.119-0.006-0.168c-0.022-0.015-0.016-0.118,0.005-0.142c-0.094-0.002-0.012-0.215-0.091-0.192
				c-0.008-0.037-0.009-0.093-0.027-0.097c-0.017-0.054-0.004-0.09,0.016-0.12c-0.008-0.008-0.014-0.008-0.021,0.001
				c-0.01-0.023-0.016-0.043-0.023-0.064c-0.014-0.049,0.005-0.093,0.016-0.131c-0.007,0.006-0.02-0.004-0.03,0
				c0.01-0.02-0.068-0.172-0.058-0.229c-0.021,0.01-0.008-0.022-0.021-0.066c-0.013-0.035-0.028-0.065-0.042-0.099
				c-0.011-0.008-0.016-0.021-0.035-0.032c0.053,0.016-0.021-0.12,0.039-0.086c-0.038-0.017-0.05-0.069-0.084-0.096
				c0.013-0.001,0.027-0.03,0.02-0.041c0.047,0.055,0.034-0.04,0.043-0.083l-0.007-0.019c-0.004,0.005-0.011,0.013-0.018,0.009
				c0.005-0.008,0.008-0.018,0.011-0.028l-0.003-0.012c-0.021-0.009-0.05-0.045-0.055,0.005C5.011,14.331,5,14.32,4.986,14.288
				c-0.021-0.047-0.006-0.078,0-0.115c-0.005,0.024-0.009-0.084-0.01-0.075c-0.012-0.059,0.004-0.117-0.009-0.174
				c-0.006-0.039-0.028-0.062-0.036-0.095c-0.018-0.067-0.031-0.146,0.03-0.148c-0.024-0.014-0.073-0.075-0.07-0.127
				c0.001-0.029,0.038-0.055,0.046-0.082c-0.032-0.033-0.034-0.088-0.001-0.11c-0.013-0.035-0.041-0.048-0.063-0.048
				c0.017-0.109-0.028-0.086-0.034-0.144s0.038-0.05,0.04-0.107c0-0.028-0.027-0.035-0.031-0.059
				c-0.015-0.054-0.029-0.193-0.065-0.229c0.029,0.03,0.011,0.004,0.021-0.04c-0.053-0.005-0.02-0.019,0.005-0.038
				c-0.007-0.027-0.015-0.057-0.02-0.084c-0.002-0.004-0.007-0.005-0.009-0.007c0.003-0.001,0.004-0.005,0.007-0.008
				c-0.002-0.013-0.003-0.023-0.002-0.034c0.005-0.003,0.01-0.001,0.014,0.001l0.006-0.033l-0.04-0.04
				c0.005-0.029,0.06-0.026,0.019-0.065c0.021,0.013,0.025,0.002,0.023-0.016c-0.009-0.002-0.016-0.005-0.022-0.005l0.017-0.022
				c-0.004-0.016-0.01-0.033-0.013-0.047l-0.003-0.014c-0.006,0-0.015,0.004-0.022,0.017c0.007-0.015,0.013-0.033,0.017-0.05
				c-0.007-0.044-0.011-0.084-0.007-0.122c0.002-0.03,0.009-0.034,0-0.069c-0.01-0.034-0.047-0.068-0.038-0.11
				c0.008-0.036,0.055-0.016,0.055-0.048c0.001-0.034-0.047-0.07-0.058-0.091c-0.021-0.039-0.034-0.091-0.055-0.134
				c0.019,0.025,0.026,0.019,0.022-0.014c0.003,0.004,0.005,0.007,0.01,0.008c-0.01-0.018-0.018-0.038,0.004-0.039
				c-0.015-0.005-0.03-0.026-0.042-0.006c0.007-0.059-0.028-0.108,0.008-0.15c-0.013,0.001-0.023,0.004-0.035,0.009
				c0.009-0.006,0.01-0.017,0.003-0.029c-0.01,0-0.016,0.007-0.02,0.021c-0.001-0.082,0.066-0.079,0.098-0.084
				c-0.024-0.034-0.016-0.06,0.008-0.079c-0.016-0.01-0.035-0.032-0.039,0.01c-0.005-0.037-0.033-0.151,0.007-0.153
				c-0.008-0.006-0.01-0.137-0.01-0.157c0.038,0.075,0.018-0.065,0.018-0.074c-0.005-0.023-0.023-0.112-0.037-0.142
				c0.107,0.044-0.011-0.087,0.008-0.14L4.7,10.719c0.006-0.008-0.097-0.151-0.114-0.104c-0.038-0.076,0.039-0.017,0.043-0.069
				c-0.015-0.008-0.074,0.001-0.059-0.055c0.013-0.039,0.053-0.104,0.018-0.151c0.094,0.073-0.023-0.127,0.028-0.161
				c-0.018-0.024,0.008-0.116,0.034-0.132C4.557,10.007,4.683,9.84,4.6,9.832c0.002-0.038,0.012-0.091-0.006-0.101
				C4.589,9.675,4.608,9.647,4.633,9.625C4.626,9.616,4.619,9.614,4.613,9.62C4.609,9.597,4.604,9.578,4.602,9.553
				c-0.004-0.051,0.022-0.085,0.04-0.115c-0.009,0-0.02-0.013-0.03-0.014C4.625,9.41,4.577,9.241,4.597,9.189
				C4.573,9.193,4.596,9.169,4.588,9.12C4.583,9.074,4.567,9.031,4.561,8.986C4.555,8.931,4.582,8.914,4.608,8.91
				c0.011-0.016,0.019-0.048,0.027-0.065C4.644,8.936,4.681,8.834,4.702,8.88c0.007-0.041-0.041-0.098-0.034-0.047
				C4.584,8.84,4.601,8.288,4.603,8.193L4.647,8.22c0.009-0.062-0.034-0.099-0.035-0.045c-0.024-0.024,0.023-0.062,0.034-0.06
				C4.638,8.062,4.593,8.092,4.594,8.108L4.598,8.07c0.015,0.005,0.069-0.048,0.034-0.082C4.603,7.96,4.614,7.935,4.612,7.88
				c0.041,0.079,0.034-0.034,0.074,0.01C4.645,7.847,4.655,7.745,4.659,7.682C4.662,7.652,4.665,7.62,4.66,7.591
				c-0.002-0.024,0.026-0.106,0.028-0.15c0.01,0.025,0.046,0.025,0.044-0.014c-0.07-0.003-0.041-0.103-0.09-0.152
				c0.031,0.04,0.026-0.127,0.072-0.063C4.713,7.175,4.679,7.19,4.667,7.166c0.044-0.087,0.005-0.22,0.025-0.323
				c0.019,0.004,0.026,0.025,0.045,0.005L4.689,6.771c0.01-0.024,0.065-0.004,0.033-0.054c0.038,0.041,0.02-0.044,0.021-0.081
				C4.745,6.563,4.756,6.491,4.768,6.42c0.021-0.136,0.036-0.27-0.002-0.405c0.012,0.028,0.02,0.026,0.025-0.006
				c0.004,0.021,0.032,0.016,0.04,0.02L4.804,5.921c0.037-0.002,0.015-0.102,0.053-0.096L4.845,5.852C4.9,5.827,4.947,5.95,5,5.966
				c-0.05,0.022,0.054,0.151-0.018,0.19c0.009,0.021,0.02-0.005,0.032,0.008c-0.025,0.008-0.04,0.051-0.021,0.074
				C4.977,6.336,4.995,6.442,4.997,6.545C4.989,6.536,4.978,6.536,4.969,6.527C4.97,6.547,4.975,6.563,4.984,6.58
				C4.942,6.595,4.982,6.501,4.938,6.512c0.056,0.059-0.02,0.2,0.043,0.247C4.976,6.801,4.949,6.736,4.944,6.78l0.018,0.016
				C4.953,6.791,4.945,6.798,4.937,6.799C4.939,6.841,4.97,6.872,4.983,6.83c0.014,0.037-0.015,0.077-0.014,0.104
				C4.967,6.921,4.964,6.911,4.963,6.899C4.948,6.961,4.929,7.282,4.88,7.252c-0.023,0.05-0.004,0.121-0.007,0.164
				C4.861,7.432,4.852,7.452,4.852,7.482C4.869,7.464,4.88,7.538,4.9,7.512c-0.023,0.06-0.043,0.058-0.078,0.09
				C4.83,7.606,4.837,7.618,4.845,7.621C4.824,7.638,4.811,7.646,4.804,7.684c0.006-0.01,0.067,0.015,0.064,0.008
				C4.88,7.746,4.87,7.782,4.859,7.827C4.838,7.905,4.914,8.17,4.818,8.158l0.014-0.069C4.814,8.134,4.759,8.157,4.783,8.231
				c0.012-0.006,0.024-0.018,0.032-0.034c0.004,0.006,0,0.118,0.028,0.045c0.015-0.036,0.003-0.083,0.029-0.108
				c0.015,0.017-0.008,0.041-0.008,0.06C4.87,8.206,4.877,8.209,4.887,8.201C4.83,8.216,4.88,8.292,4.838,8.327
				C4.847,8.325,4.857,8.331,4.867,8.33C4.858,8.339,4.85,8.352,4.847,8.37l0.039-0.021c-0.035,0.038,0.025,0.088,0.005,0.13
				C4.895,8.396,4.859,8.452,4.836,8.41C4.797,8.498,4.907,8.508,4.89,8.609c0.007-0.023-0.017-0.064-0.03-0.045
				C4.868,8.6,4.899,8.635,4.884,8.669C4.875,8.695,4.856,8.63,4.841,8.655c0.033,0.031-0.02,0.047-0.03,0.072
				C4.836,8.718,4.86,8.764,4.832,8.782C4.814,8.793,4.784,8.78,4.799,8.835l0.042-0.029c-0.007,0.012-0.006,0.03-0.012,0.042
				c0.01-0.005,0.023,0.002,0.036-0.003c-0.021,0.036-0.02,0.06-0.01,0.11C4.835,8.941,4.802,8.95,4.8,8.994
				c0.016,0.029,0.028-0.006,0.025,0.048c0.014-0.008,0.043-0.02,0.014-0.051C4.886,8.985,4.873,9.005,4.873,9.08
				C4.866,9.025,4.835,9.113,4.826,9.134c0.011,0.01,0.022,0.009,0.029-0.005C4.847,9.145,4.84,9.163,4.837,9.183
				c0.02-0.003,0.049,0.003,0.059-0.031c-0.005,0.013-0.03,0.063-0.025,0.076c0.022,0.015,0.046,0.041,0.036,0.08
				C4.895,9.343,4.868,9.386,4.882,9.434C4.858,9.446,4.898,9.58,4.873,9.626L4.916,9.67C4.91,9.711,4.872,9.645,4.856,9.671
				c-0.045,0.073,0.029,0.054,0.04,0.077c-0.023,0.032-0.064,0.08-0.03,0.138c0.003-0.015,0.006-0.032,0.004-0.05
				c0.005,0.015,0.018,0.032,0.025,0.046C4.918,9.854,4.923,9.8,4.955,9.838c-0.074-0.002-0.018,0.167-0.091,0.164
				c0.005,0.01,0.011,0.022,0.017,0.03l0.004-0.017c0.025,0.035-0.009,0.045-0.024,0.054c-0.041,0.027-0.009,0.102,0.004,0.081
				c-0.027,0.041-0.004,0.064-0.005,0.051c-0.002,0.026-0.004,0.067-0.002,0.086c-0.013,0.012-0.026,0.031-0.037,0.049
				c0.014,0.026,0.007-0.011,0.019-0.003c-0.008,0.01-0.011,0.032-0.017,0.045c0.021,0.018,0.041-0.014,0.035-0.051
				c0.003,0.016,0.03,0.014,0.034,0.03c-0.001-0.009-0.006,0.061-0.005,0.077c-0.003,0.045-0.009,0.081,0.001,0.129
				c0.001,0.004,0.02,0.066,0.035,0.058c-0.017,0.021-0.048,0.03-0.026,0.062c0.01,0.018,0.06,0.026,0.053,0.054
				c-0.004,0.028-0.052-0.056-0.053,0.012c0.013,0.043,0.007,0.077-0.003,0.113c-0.027,0.099-0.001,0.027,0.023,0.052
				c-0.011,0.007-0.019,0.026-0.028,0.034c0.004,0.007,0.009,0.01,0.015,0.005c-0.008,0.019-0.071,0.029-0.055,0.068
				c0.016,0.034,0.063,0.086,0.031,0.123c0.013,0.005,0.026,0.006,0.04-0.001c-0.022,0.055-0.081,0.121-0.032,0.177
				c-0.054-0.067-0.066,0.093-0.124,0.022L4.748,11.41c0.012,0.005,0.024,0.003,0.036-0.011c-0.022,0.032,0.093,0.048,0.024-0.017
				c0.021-0.017,0.071-0.063,0.062-0.008c0.035-0.023,0.007,0.012,0.003,0.016l0.046,0.015l-0.02,0.005
				c0.016,0.046,0.042,0.078,0.016,0.116c-0.014,0.021-0.03,0.043-0.044,0.066c-0.001,0.02,0.016,0.043,0.029,0.07
				c0.005-0.029,0.013-0.054,0.009-0.076c0.004,0.022,0.021,0.025,0.03,0.014c-0.01,0.032-0.017,0.062-0.026,0.092l0.002,0.007
				c0.023-0.002,0.022,0.017,0.038,0.043c-0.026-0.01-0.034,0.002-0.038,0.022c0.005-0.004,0.011-0.012,0.019-0.007
				c-0.022,0.019-0.028,0.067-0.005,0.08l0.002,0.006c0.007-0.009,0.011-0.023,0.005-0.045c0.023,0.024,0.011,0.039-0.003,0.057
				c0.009,0.1,0.043,0.19,0.067,0.286c-0.01-0.005-0.021-0.002-0.029-0.009c0.005,0.019,0.014,0.036,0.025,0.05
				c-0.03,0.025-0.022-0.048-0.043-0.053l-0.002,0.016c0.033,0.036,0.027,0.121,0.046,0.173c0.002-0.004,0.004-0.01,0.007-0.019
				c0.009,0.018,0.012,0.034,0.012,0.052c0.005,0.003,0.009,0.006,0.015,0.008c0.003,0.025-0.008,0.019-0.019,0.016L5.01,12.378
				c0,0-0.002-0.004-0.004-0.003c-0.003,0-0.006,0.005-0.005,0.02l0.019,0.009c-0.007-0.001-0.013,0.011-0.021,0.013
				c0.009,0.041,0.046,0.059,0.049,0.013c0.021,0.031,0.003,0.081,0.007,0.11c-0.005-0.011-0.008-0.021-0.011-0.032
				c-0.002,0.05,0.026,0.247,0.02,0.336c0.004,0.001,0.008,0.006,0.014,0.017c0.014,0.026,0.036,0.055,0.035-0.01
				c0.008,0.036,0.015,0.073,0.023,0.107c-0.036,0.001-0.028,0.086-0.063,0.086l0.026-0.121c-0.018-0.001-0.039,0.01-0.054,0.028
				c0.009,0.039,0.023,0.076,0.028,0.103c-0.004,0.006-0.004,0.011-0.006,0.014c0.007-0.002,0.014-0.006,0.019-0.009
				c-0.001,0.002-0.01,0.062-0.004,0.074l0.004,0.001c0.004,0.001,0.011-0.008,0.02-0.029c0.007,0.013,0.005,0.028,0.001,0.043
				c0.002-0.002,0.005-0.004,0.006-0.01c-0.003,0.031-0.01,0.05-0.017,0.067c0.009,0.034,0.052,0.038,0.056,0.068
				c-0.001-0.009-0.08,0.004-0.071,0.067c0.02-0.001,0.041-0.005,0.039-0.008c0.021,0.047,0.019,0.089,0.018,0.136
				c-0.004,0.086,0.118,0.32,0.028,0.347l0-0.075c-0.006,0.04-0.034,0.073-0.032,0.117c0.008,0.007,0.015,0.007,0.024-0.004
				c-0.008,0.019-0.013,0.03-0.014,0.037c0.001,0.004,0.002,0.007,0.005,0.01c0.009-0.012,0.016-0.027,0.022-0.044
				c0.001,0.003,0.003,0.012,0.007,0.024c0.005-0.004,0.008-0.004,0.01-0.003c-0.004,0.003-0.005,0.006-0.007,0.007
				c0.009,0.03,0.017,0.061,0.026,0.005c0.004-0.04-0.015-0.082,0.005-0.118c0.017,0.015,0.001,0.047,0.004,0.065
				c0.008,0.009,0.016,0.008,0.024-0.004c-0.049,0.037,0.011,0.095-0.021,0.143c0.009-0.003,0.018-0.002,0.026-0.006
				c-0.006,0.014-0.01,0.027-0.01,0.045l0.032-0.035c-0.024,0.05,0.042,0.08,0.032,0.127c-0.013-0.082-0.038-0.011-0.065-0.048
				c-0.018,0.105,0.085,0.074,0.092,0.177c0-0.023-0.031-0.057-0.037-0.029c0.015,0.031,0.049,0.056,0.046,0.093
				c-0.005,0.026-0.036-0.03-0.046,0.001c0.038,0.02-0.007,0.056-0.01,0.082c0.022-0.017,0.056,0.019,0.034,0.047
				c-0.014,0.018-0.044,0.014-0.02,0.064l0.033-0.045c-0.002,0.014,0.001,0.034-0.002,0.047c0.01-0.009,0.023-0.007,0.031-0.016
				c-0.013,0.046-0.007,0.068,0.013,0.112c-0.023-0.007-0.052,0.017-0.045,0.059c0.023,0.023,0.026-0.016,0.033,0.037
				c0.012-0.012,0.035-0.036,0.002-0.056c0.047-0.022,0.036,0.005,0.05,0.075c-0.017-0.051-0.029,0.051-0.035,0.074
				c0.014,0.008,0.022,0.003,0.027-0.014c-0.005,0.02-0.007,0.037-0.009,0.059c0.02-0.01,0.046-0.017,0.05-0.054
				c-0.002,0.012-0.014,0.076-0.009,0.087c0.025,0.006,0.051,0.021,0.049,0.065c-0.004,0.038-0.022,0.091-0.002,0.134
				c-0.02,0.022,0.043,0.14,0.027,0.196l0.05,0.027c0.001,0.047-0.047-0.005-0.059,0.028c-0.026,0.085,0.038,0.043,0.053,0.06
				c-0.017,0.039-0.042,0.102,0.002,0.148c0.001-0.017-0.001-0.035-0.006-0.052c0.008,0.014,0.023,0.024,0.033,0.036
				c0.016-0.037,0.008-0.094,0.046-0.063c-0.069,0.023,0.021,0.17-0.049,0.192c0.008,0.009,0.016,0.019,0.024,0.025l-0.002-0.019
				c0.031,0.026,0.001,0.05-0.011,0.064c-0.031,0.04,0.016,0.104,0.022,0.077c-0.016,0.051,0.012,0.066,0.008,0.052
				c0.003,0.027,0.01,0.067,0.015,0.084c-0.011,0.019-0.02,0.04-0.028,0.062c0.017,0.02,0.005-0.011,0.017-0.008
				C5.617,15.98,5.617,16,5.612,16.017c0.025,0.012,0.038-0.03,0.026-0.062c0.006,0.013,0.03,0.003,0.038,0.017
				c-0.004-0.007,0.005,0.062,0.006,0.078c0.006,0.047,0.005,0.086,0.023,0.131c0.002,0.004,0.031,0.059,0.044,0.045
				c-0.014,0.025-0.041,0.046-0.017,0.073c0.015,0.014,0.063,0.004,0.061,0.033c-0.001,0.031-0.059-0.038-0.049,0.031
				c0.02,0.038,0.019,0.076,0.018,0.115c-0.007,0.109,0.006,0.027,0.031,0.043c-0.009,0.011-0.014,0.031-0.021,0.043
				c0.006,0.004,0.013,0.004,0.016-0.001c-0.004,0.021-0.061,0.055-0.038,0.087c0.021,0.028,0.077,0.065,0.054,0.113
				c0.014,0,0.025-0.006,0.036-0.016c-0.008,0.064-0.051,0.152,0.008,0.188c-0.065-0.046-0.044,0.115-0.113,0.063l-0.002,0.077
				c0.014,0.001,0.025-0.006,0.032-0.021c-0.014,0.038,0.095,0.013,0.019-0.029c0.014-0.025,0.05-0.088,0.053-0.03
				c0.027-0.038,0.009,0.01,0.007,0.015l0.044,0.001L5.874,17.02c0.025,0.041,0.055,0.062,0.039,0.107
				c-0.027,0.068-0.059,0.14-0.051,0.235c0.021-0.034,0.054-0.028,0.082-0.04c-0.041-0.011-0.009-0.092-0.026-0.132
				c0.01,0.019,0.024,0.018,0.031,0.004L5.94,17.298c0.024-0.01,0.025,0.011,0.045,0.032c-0.057,0.002-0.018,0.072-0.027,0.129
				c0.021-0.006,0.035-0.029,0.02-0.068c0.055,0.032-0.047,0.093,0,0.127c0.005,0.035,0.042,0.056,0.034,0.033
				c0.032,0.078,0.038,0.161,0.047,0.243c0.006,0.051,0.064,0.178,0.071,0.073c0.016,0.022,0.025,0.047,0.022,0.077
				c-0.012-0.011-0.071-0.01-0.069,0.014c0.034,0.013,0.059,0.036,0.09,0.059c-0.015-0.014-0.075,0.029-0.061,0.062
				c0.014-0.018,0.059-0.011,0.068-0.039l-0.042,0.097c0.009-0.03,0.056-0.025,0.075-0.018c-0.009-0.002,0.019,0.072,0.019,0.083
				c-0.006-0.011-0.015-0.015-0.023-0.024c0.037,0.084-0.068,0.112-0.038,0.195c0.015-0.023,0.044-0.04,0.069-0.04
				c0.044,0,0.009,0.07,0.013,0.1c0.025-0.006,0.021-0.07,0.054-0.032c0.017,0.019,0.045,0.04,0.029-0.023l0.045,0.097
				c-0.036,0.015-0.01,0.097-0.044,0.108l0.001-0.132c-0.034,0.014-0.063,0.073-0.064,0.129c-0.003,0.107,0.056,0.032,0.077,0.013
				c-0.001,0.001,0.001,0.141,0.028,0.036c0.021,0.025-0.002,0.063,0.001,0.09c0.007,0.049,0.061,0.033,0.072,0.062
				c-0.004-0.006-0.074,0.032-0.057,0.092c0.009,0.035,0.051,0.031,0.057,0.063c-0.023,0.016-0.004,0.025-0.003,0.048
				c-0.009-0.001-0.016-0.004-0.023-0.013c-0.001,0.038,0.024,0.048,0.033,0.081c-0.033-0.002-0.07,0.074-0.07,0.125
				c0.05-0.042,0.127,0.26,0.164,0.181c-0.024,0.109,0.018,0.01,0.032,0.013c-0.021,0.014-0.01,0.075-0.011,0.11
				c-0.038,0.01-0.032-0.077-0.03-0.106C6.5,19.401,6.443,19.634,6.51,19.592c0.018-0.013-0.003,0.179-0.003,0.179
				c0.022,0.075,0.068,0.032,0.09,0.011c0.042-0.038-0.024-0.056-0.04-0.105c0.009,0.013,0.02,0.021,0.028,0.032
				c0.003-0.019,0.003-0.056-0.014-0.072c0.033,0.017,0.062,0.121,0.078,0.164c0.006,0.017,0.088,0.161,0.029,0.14l-0.006-0.029
				c-0.058-0.019-0.056,0.245,0.018,0.177c0.019,0.034,0.036,0.071,0.008,0.054c-0.028-0.015-0.028-0.029-0.034,0.012
				C6.664,20.19,6.655,20.245,6.678,20.283z"/>
		</g>
		<path class="st2" d="M6.611,20.188c-0.008-0.006-0.014-0.014-0.02-0.027c0.002,0.013,0.004,0.025,0.006,0.038
			C6.598,20.191,6.604,20.185,6.611,20.188z"/>
		<path class="st2" d="M6.877,20.407c-0.018-0.025-0.014,0.012-0.01,0.024C6.882,20.43,6.874,20.421,6.877,20.407
			C6.861,20.387,6.875,20.413,6.877,20.407z"/>
		<path class="st2" d="M6.697,20.18c0.001,0.073,0.023,0.021,0.03,0.044C6.721,20.196,6.719,20.172,6.697,20.18
			C6.697,20.214,6.72,20.171,6.697,20.18z"/>
		<path class="st2" d="M6.735,20.253c-0.003-0.005-0.006-0.014-0.008-0.023C6.731,20.246,6.725,20.264,6.735,20.253z"/>
		<path class="st2" d="M6.528,19.987c-0.011-0.003,0.025-0.016,0.014-0.025C6.534,19.887,6.505,20.015,6.528,19.987z"/>
		<path class="st2" d="M6.747,20.164c0.009-0.002,0.02-0.002,0.029-0.008C6.762,20.133,6.753,20.142,6.747,20.164z"/>
		<path class="st2" d="M6.699,20.025c0-0.03,0.002-0.016-0.017-0.051C6.674,19.981,6.697,20.021,6.699,20.025z"/>
		<path class="st2" d="M6.707,20.061c0.001-0.01-0.002-0.023-0.008-0.036C6.701,20.038,6.705,20.054,6.707,20.061z"/>
		<path class="st2" d="M6.742,20.065c0.008,0.02,0.014,0.022,0.024,0.033C6.757,20.087,6.749,20.076,6.742,20.065z"/>
	</g>
</g>
<g>
	<g>
		<path class="st3" d="M6.528,10.215c-0.029,0.139-0.045,0.284-0.052,0.429c0.234-0.059,0.873-0.061,0.596-0.371
			c-0.104-0.119-0.457-0.141-0.365-0.377c0.044-0.11,0.228-0.046,0.323-0.072c0.152-0.042,0.288-0.156,0.414-0.254
			c0.096-0.074-0.547,0.425,0,0c0.828-0.639,1.239-1.182,1.548-2.198c0.048-0.156,0.056-0.334,0.117-0.485
			C9.311,6.374,9.291,5.683,9.189,5.15C9.066,4.492,8.827,3.83,8.496,3.247c-0.22-0.391-0.618-0.69-0.894-1.043
			c-0.239-0.304-0.384-0.562-0.77-0.699c-0.079-0.056-0.276-0.166-0.4-0.229C6.156,1.13,5.873,0.988,5.559,0.943
			c-0.356-0.04-0.693-0.151-1.054-0.154C3.41,0.747,2.309,1.157,1.537,1.95c-0.726,0.748-1.173,1.697-1.3,2.736
			C0.12,5.637,0.354,6.648,0.754,7.508c0.26,0.557,0.656,1.098,1.056,1.566c0.385,0.476,1.008,0.961,1.59,1.152
			c1.131,0.367,2.478,0.254,3.541-0.327"/>
		<g>
			<g>
				<path class="st3" d="M6.879,9.843L6.881,9.83c-0.018,0.019-0.04,0.04-0.056,0.057L6.879,9.843z"/>
				<path class="st3" d="M6.439,10.046C6.505,10.084,6.618,9.949,6.7,9.954c0.01-0.018,0.015-0.039,0.015-0.055
					C6.64,9.94,6.532,10.038,6.439,10.046C6.502,10.078,6.517,10.034,6.439,10.046z"/>
				<path class="st3" d="M6.544,9.848c0.009,0.003,0.007,0.008,0,0.018C6.559,9.852,6.579,9.842,6.599,9.83
					C6.587,9.829,6.571,9.834,6.544,9.848C6.568,9.861,6.567,9.84,6.544,9.848z"/>
				<path class="st3" d="M6.513,9.9C6.556,9.876,6.475,9.899,6.513,9.9L6.513,9.9z"/>
				<path class="st3" d="M6.302,9.993C6.323,9.981,6.34,9.966,6.355,9.955C6.348,9.952,6.286,9.963,6.3,9.952
					C6.243,9.981,6.266,9.989,6.302,9.993z"/>
				<path class="st3" d="M6.257,10.048l0.029-0.017C6.279,10.027,6.269,10.029,6.257,10.048z"/>
				<path class="st3" d="M6.39,9.985c0.041-0.002,0.087-0.012,0.031,0.027C6.537,9.961,6.505,9.936,6.39,9.985z"/>
				<path class="st3" d="M6.434,10.104l0.055-0.003l0.036-0.031C6.509,10.083,6.427,10.091,6.434,10.104z"/>
				<path class="st3" d="M5.994,10.038c0.009,0.011,0.021,0.023,0.037,0.034c0.014-0.008,0.028-0.018,0.045-0.027
					C6.037,10.054,6.008,10.048,5.994,10.038C5.991,10.05,5.999,10.052,5.994,10.038z"/>
				<path class="st3" d="M6.031,10.071l-0.064,0.035C6.029,10.094,6.04,10.083,6.031,10.071z"/>
				<path class="st3" d="M6.263,10.105l0.101-0.077C6.33,10.051,6.227,10.113,6.263,10.105z"/>
				<path class="st3" d="M5.732,10.104c0.018-0.023-0.048-0.025-0.02-0.043c-0.05,0.018-0.09,0.043-0.118,0.065
					C5.642,10.109,5.688,10.096,5.732,10.104C5.757,10.076,5.674,10.1,5.732,10.104z"/>
				<path class="st3" d="M5.535,10.157c0.019-0.008,0.036-0.019,0.059-0.032C5.574,10.133,5.553,10.143,5.535,10.157z"/>
				<path class="st3" d="M5.845,10.13c-0.01-0.011-0.031-0.016-0.063-0.016C5.788,10.126,5.804,10.139,5.845,10.13
					C5.837,10.126,5.835,10.131,5.845,10.13z"/>
				<path class="st3" d="M5.816,10.137c-0.006-0.005-0.027-0.002-0.059,0.013L5.816,10.137z"/>
				<path class="st3" d="M6.16,10.081c-0.037,0.03-0.116,0.078-0.026,0.073C6.157,10.123,6.104,10.126,6.16,10.081z"/>
				<path class="st3" d="M5.897,10.157c0.022-0.001,0.054-0.007,0.077-0.01c-0.013-0.007-0.013-0.017-0.002-0.03
					C5.948,10.129,5.918,10.142,5.897,10.157z"/>
				<polygon class="st3" points="5.861,10.176 5.897,10.157 5.866,10.161 				"/>
				<path class="st3" d="M5.667,10.161c-0.026,0.019-0.061,0.032-0.106,0.037c0.046,0.001,0.089-0.005,0.135-0.018
					C5.698,10.172,5.714,10.15,5.667,10.161C5.637,10.183,5.713,10.148,5.667,10.161z"/>
				<path class="st3" d="M5.16,10.252C5.177,10.264,5.163,10.254,5.16,10.252C5.161,10.255,5.16,10.252,5.16,10.252z"/>
				<path class="st3" d="M5.702,10.184c0.034-0.004,0.056-0.012,0.067-0.027C5.703,10.17,5.679,10.18,5.702,10.184
					C5.737,10.183,5.693,10.188,5.702,10.184z"/>
				<path class="st3" d="M5.424,10.187c0.018,0.004,0.037,0.007,0.059,0.009C5.466,10.187,5.43,10.178,5.424,10.187z"/>
				<path class="st3" d="M5.628,10.172c-0.011,0.01-0.025,0.016-0.038,0.027C5.643,10.191,5.653,10.176,5.628,10.172
					C5.612,10.182,5.633,10.175,5.628,10.172z"/>
				<path class="st3" d="M5.048,10.45c0.009-0.067,0.19-0.005,0.205-0.064c0.014-0.048-0.032-0.091-0.086-0.129
					c-0.003,0.019-0.028,0.033-0.075,0.044c0.028,0.016,0.118,0.02,0.126,0.037c0.018,0.055-0.136,0.005-0.153-0.001
					c0.046,0.034-0.123,0.067-0.104,0.107c0.026-0.009,0.064-0.013,0.092-0.023C5.04,10.432,5.037,10.443,5.048,10.45
					C5.054,10.422,5.022,10.444,5.048,10.45z"/>
				<path class="st3" d="M5.312,10.242c0.027-0.016-0.033-0.016-0.082-0.032c-0.035,0.013-0.055,0.028-0.062,0.04
					C5.223,10.249,5.298,10.238,5.312,10.242z"/>
				<path class="st3" d="M5.482,10.213c-0.018,0.029-0.091,0.059-0.042,0.083c0.089-0.012,0.06-0.035,0.116-0.055
					c-0.024,0.009-0.044,0.01-0.061,0.005c0.006-0.009,0.038-0.016,0.021-0.025c-0.059-0.032,0.145-0.013-0.032-0.027
					C5.496,10.198,5.486,10.208,5.482,10.213c-0.059,0,0.021-0.01,0.004-0.017l-0.144,0.036C5.389,10.232,5.437,10.226,5.482,10.213
					C5.463,10.246,5.413,10.228,5.482,10.213z"/>
				<path class="st3" d="M6.074,10.243c-0.008-0.002-0.007-0.004-0.009-0.007C6.057,10.243,6.055,10.245,6.074,10.243z"/>
				<path class="st3" d="M6.01,10.24c0.052-0.035,0.051-0.021,0.057-0.002c0.1-0.067-0.207-0.011-0.15-0.051
					C5.938,10.206,5.966,10.225,6.01,10.24C6.016,10.233,5.96,10.222,6.01,10.24z"/>
				<path class="st3" d="M5.646,10.266c-0.034,0.01-0.081,0.022-0.122,0.032c0.018,0.008,0.045,0.016,0.069,0.018
					C5.616,10.294,5.635,10.293,5.646,10.266z"/>
				<path class="st3" d="M5.145,10.238c0.005-0.011,0.011-0.023,0.014-0.033l-0.068,0.049L5.145,10.238z"/>
				<path class="st3" d="M4.984,10.247c0.006-0.008,0.002-0.017,0.005-0.028C4.922,10.238,4.974,10.235,4.984,10.247z"/>
				<path class="st3" d="M4.339,10.225C4.372,10.223,4.345,10.219,4.339,10.225L4.339,10.225z"/>
				<path class="st3" d="M4.387,10.24c-0.012-0.004-0.026-0.008-0.04-0.012C4.352,10.231,4.367,10.235,4.387,10.24z"/>
				<path class="st3" d="M4.383,10.224c0.012,0.003,0.022,0.003,0.028,0.003C4.417,10.225,4.413,10.221,4.383,10.224z"/>
				<path class="st3" d="M4.29,10.221c0.018,0.004,0.037,0.006,0.057,0.006C4.338,10.22,4.321,10.218,4.29,10.221
					C4.31,10.224,4.314,10.223,4.29,10.221z"/>
				<g>
					<path class="st3" d="M4.689,10.32c-0.065,0.018-0.04,0.016,0.015,0.041c0.059,0.025-0.024,0.019-0.104,0.011
						c0.044-0.106-0.42-0.023-0.338,0.03c0.02,0.002,0.042-0.001,0.059,0c0.092,0.071-0.245-0.006-0.285-0.016
						c-0.046-0.006-0.123-0.019-0.196-0.031c-0.072-0.018-0.14-0.042-0.165-0.065c0.038,0.024,0.108,0.029,0.138,0.027
						c-0.026-0.013-0.048-0.03-0.079-0.039c0.097,0.028,0.188,0.102,0.224,0.048c0.016-0.029,0.058-0.087-0.091-0.107
						c0,0-0.33,0.012-0.322-0.011c0.017-0.044-0.073-0.041-0.166-0.046c-0.091-0.003-0.195,0.008-0.206,0.033
						c0.053,0.01,0.208,0.033,0.216,0.084c-0.061-0.009-0.183-0.051-0.201-0.027c-0.014-0.02,0.152-0.039-0.042-0.05
						c0.067-0.011-0.05-0.072-0.175-0.137C2.851,9.986,2.733,9.893,2.762,9.871c-0.088-0.038-0.218-0.039-0.21,0.007
						C2.49,9.844,2.469,9.801,2.409,9.762c0.016,0.019,0.024,0.036,0.029,0.05c-0.04-0.024-0.059-0.06-0.084-0.043
						C2.298,9.73,2.306,9.676,2.247,9.627c-0.103-0.084-0.17-0.021-0.157-0.008C2.035,9.572,2.063,9.518,1.988,9.45
						c-0.042-0.036-0.105-0.049-0.14-0.107c0.168,0.085-0.051-0.082-0.053-0.081c0.033-0.01,0.163-0.006-0.003-0.122
						c-0.089-0.065-0.183-0.1-0.209-0.068C1.645,9.124,1.708,9.178,1.78,9.227C1.754,9.26,1.629,9.124,1.605,9.16L1.472,8.976
						c0.09,0.099,0.067,0.035,0.041-0.015C1.467,8.872,1.559,8.953,1.578,8.926C1.533,8.886,1.417,8.844,1.434,8.784
						c0.009-0.031,0.043-0.051,0.085-0.042C1.407,8.591,1.333,8.696,1.229,8.533C1.236,8.554,1.24,8.577,1.251,8.594
						C1.236,8.582,1.145,8.443,1.144,8.46C1.141,8.424,1.153,8.355,1.199,8.386C1.145,8.362,1.102,8.331,1.05,8.303
						c0.043,0.032,0.052-0.038,0.083-0.035C1.098,8.21,1.01,8.221,1.024,8.262C1.01,8.19,0.993,8.123,0.991,8.062
						C0.959,8.027,0.93,8.099,0.938,8.127C0.896,8.085,0.866,8.045,0.846,7.988c0.14,0.147,0.008-0.114-0.047-0.205
						C0.705,7.645,0.614,7.507,0.555,7.339c0.019,0.047,0.022-0.03-0.012-0.094c0-0.108-0.135-0.103-0.123-0.219
						c0.027,0.087,0.057,0.106,0.079,0.09C0.437,7.032,0.406,6.869,0.356,6.926c-0.003-0.057-0.019-0.097,0.01-0.104L0.268,6.643
						c0.018,0.019,0.031,0.008,0.023-0.038C0.309,6.696,0.407,6.803,0.38,6.869C0.414,6.86,0.438,6.815,0.485,6.852
						C0.413,6.676,0.323,6.586,0.247,6.486C0.198,6.419,0.21,6.348,0.205,6.25L0.181,6.244l0.044-0.041
						C0.218,6.194,0.165,6.129,0.22,6.17C0.184,6.058,0.258,6.144,0.293,6.171C0.25,6.313,0.37,6.26,0.329,6.2
						c0.018,0.022,0.032,0.026,0.043,0.012C0.358,6.168,0.336,6.122,0.319,6.076C0.286,6.231,0.207,5.914,0.173,6.062
						c0.038-0.125-0.066-0.246-0.102-0.368c0.018,0.009,0.032,0.008,0.047-0.001C0.069,5.616,0.111,5.505,0.12,5.433
						C0.134,5.353,0.06,5.328,0.05,5.288c0.007,0.007,0.012,0.004,0.017-0.01c-0.013-0.02-0.022-0.055-0.035-0.071
						c0.025-0.053,0.062,0.104,0.021-0.109C0.035,5.02,0.04,4.942,0.057,4.857C0.06,4.709,0,4.88-0.005,4.818
						C-0.008,4.76,0.049,4.754,0.063,4.716C0.09,4.651,0.059,4.621,0.045,4.573C0.06,4.595,0.099,4.47,0.1,4.462
						c0.027-0.099,0.025-0.178,0.044-0.274c0.004-0.03,0.033-0.176,0.025-0.159C0.182,3.995,0.211,4.009,0.22,3.983
						C0.199,4.052,0.204,4.131,0.236,4.099c0-0.031,0.007-0.073,0.001-0.1c0.018-0.011-0.006,0.057,0.018,0.013
						C0.253,3.97,0.247,3.925,0.235,3.892C0.247,3.854,0.272,3.771,0.288,3.72c-0.01,0.026,0.029-0.007,0.028-0.106
						c0,0.052,0.079-0.086,0.064-0.161C0.372,3.425,0.347,3.385,0.4,3.329L0.39,3.363c0.013-0.01,0.028-0.033,0.043-0.047
						C0.397,3.296,0.427,3.209,0.458,3.122c0.036-0.083,0.075-0.166,0.038-0.19c0.071-0.055,0.019,0.056,0.012,0.126
						c0.019-0.021,0.047-0.043,0.068-0.069C0.559,3.019,0.544,3.054,0.53,3.086c0.087-0.085,0.1-0.208,0.11-0.286
						c0.036-0.034,0.077,0.057,0.121-0.106C0.778,2.628,0.67,2.719,0.709,2.638l0.087-0.043c0.028-0.111,0.233-0.306,0.232-0.351
						C1.097,2.176,1.134,2.079,1.181,2.01c0.05-0.075,0.102-0.092,0.138-0.091c0.02-0.018,0.077-0.132,0.098-0.15
						C1.366,1.834,1.395,1.856,1.404,1.88c0.022-0.03,0.043-0.063,0.068-0.099C1.457,1.811,1.46,1.822,1.483,1.816
						C1.509,1.78,1.636,1.613,1.544,1.684c0.117-0.107,0.144-0.155,0.157-0.093C1.64,1.604,1.633,1.655,1.626,1.683
						c0.081-0.079,0.035-0.019,0.087-0.042C1.78,1.578,1.785,1.53,1.752,1.524c0.087-0.052,0.129-0.078,0.187-0.149
						c-0.006,0.018,0.01,0.026,0.005,0.044C1.968,1.395,1.99,1.376,2.015,1.351L1.981,1.435C2.077,1.383,2.043,1.369,2.058,1.33
						c0.02-0.058,0.119-0.07,0.109-0.036c0.039-0.034,0.059-0.112,0.125-0.108c0.045-0.043-0.076,0-0.032-0.038
						c0.057-0.049,0.132-0.05,0.199-0.077c0.04-0.033-0.048-0.025-0.086,0.009c0.192-0.117,0.223,0.015,0.398-0.109
						C2.682,0.982,2.796,0.888,2.631,0.96c0.086-0.057,0.183-0.035,0.264-0.097L2.849,0.924c0.034-0.015,0.06-0.03,0.08-0.047
						C2.927,0.889,2.937,0.899,2.933,0.911c0.075-0.075,0.225-0.059,0.264-0.137C3.18,0.79,3.183,0.798,3.207,0.797
						c0.037-0.014,0.09-0.05,0.13-0.039c-0.06,0.038-0.154,0.052-0.232,0.093C3.005,0.904,3.074,0.888,3.131,0.874
						c0.006-0.005,0.012-0.011,0.011-0.016C3.149,0.86,3.147,0.865,3.145,0.87C3.17,0.864,3.19,0.857,3.195,0.859
						C3.164,0.878,3.141,0.897,3.124,0.917c0.007,0,0.015-0.001,0.021-0.002c0.013-0.008,0.029-0.02,0.059-0.043
						C3.19,0.89,3.193,0.896,3.214,0.898c0.078-0.035,0.13-0.077,0.207-0.11L3.268,0.835c-0.001-0.114,0.535-0.13,0.708-0.154
						c0.099-0.025,0.186-0.034,0.289-0.018C4.255,0.66,4.258,0.685,4.258,0.706C4.39,0.702,4.394,0.613,4.377,0.612
						c0.065,0,0.081,0.046,0.157,0.056c0.03-0.009,0.066-0.017,0.134-0.024C4.657,0.647,4.654,0.649,4.651,0.652
						c0.031-0.005,0.062-0.01,0.098-0.001C4.7,0.661,4.683,0.669,4.682,0.675L4.69,0.679C4.713,0.686,4.841,0.68,4.841,0.68
						C4.837,0.686,4.831,0.693,4.826,0.7c0.008-0.002,0.019-0.001,0.027-0.003c0.058,0.008,0.132,0.033,0.212,0.049
						c0.038-0.016,0.062-0.035,0.062-0.054l-0.25,0.004c-0.004-0.04,0.18-0.014,0.18-0.057l0.216,0.056
						c-0.133-0.02-0.07,0.013-0.021,0.036c0.023,0.011,0.031,0.016,0.034,0.022c0.093,0.01,0.221,0.018,0.368,0.049
						c0.152,0.024,0.278,0.069,0.33,0.085c-0.02-0.01-0.041-0.022-0.064-0.033c0.056,0.023,0.173,0.033,0.226,0.081
						C6.055,0.904,6.082,0.959,6.159,1c0.006-0.005,0.027-0.006,0.032-0.014l0.015,0.029C6.23,1.027,6.238,1.027,6.241,1.023
						C6.238,1.021,6.237,1.016,6.235,1.017l0.009,0c0-0.012-0.011-0.031,0.037-0.01c0.002,0.011,0.01,0.017,0.015,0.026
						c0.032,0.014,0.061,0.032,0.091,0.053C6.366,1.084,6.357,1.081,6.346,1.08c0.092,0.061,0.25,0.132,0.305,0.201l0.03,0.014
						c0.003-0.026-0.14-0.087-0.078-0.094C6.62,1.224,6.645,1.248,6.681,1.273c-0.008-0.017,0.004-0.024-0.002-0.04l0.123,0.085
						l0.061,0.044c0.023,0.016,0.039,0.029,0.039,0.029c0.092,0.061,0.195,0.102,0.284,0.172c0.038,0.008,0.08,0.021,0.105,0.074
						c-0.04-0.036-0.067-0.054-0.089-0.057L7.214,1.59c0.008,0.04,0.099,0.101,0.148,0.106C7.365,1.71,7.346,1.703,7.335,1.703
						C7.37,1.725,7.389,1.739,7.401,1.705c0.026,0.053,0.052,0.083,0.034,0.1l0.005,0.009l0.155,0.123
						C7.573,1.925,7.563,1.94,7.588,1.982c-0.023-0.04-0.066-0.076-0.109-0.109C7.506,1.921,7.521,1.97,7.548,2
						C7.59,2.024,7.63,2.047,7.673,2.07c0.069,0.042,0.093,0.099,0.14,0.183l0.019-0.008L7.816,2.301
						c0.008,0.005,0.081,0.036,0.02,0.026c0.086,0.075-0.022,0.048-0.065,0.038c-0.03-0.144-0.112-0.043-0.045-0.01
						C7.7,2.345,7.685,2.35,7.68,2.369L7.792,2.46C7.739,2.314,7.977,2.535,7.926,2.393c0.04,0.121,0.189,0.166,0.293,0.234
						c-0.018,0.001-0.032,0.01-0.038,0.028C8.266,2.69,8.3,2.804,8.336,2.865C8.376,2.931,8.449,2.919,8.48,2.944
						C8.471,2.94,8.466,2.947,8.472,2.963c0.021,0.009,0.051,0.034,0.072,0.039C8.557,3.062,8.431,2.947,8.59,3.109
						c0.064,0.057,0.098,0.123,0.128,0.204c0.073,0.127,0.036-0.051,0.07-0.002c0.034,0.046-0.012,0.084-0.003,0.123
						c0.01,0.068,0.056,0.075,0.094,0.105c-0.023-0.008,0.02,0.116,0.02,0.122c0.031,0.098,0.07,0.164,0.112,0.252
						c0.012,0.028,0.078,0.162,0.074,0.142C9.09,4.09,9.058,4.092,9.069,4.122c-0.023-0.07-0.078-0.129-0.085-0.085
						c0.02,0.022,0.04,0.061,0.059,0.084c-0.009,0.017-0.03-0.052-0.024-0.004C9.046,4.152,9.072,4.186,9.1,4.207
						c0.008,0.035,0.039,0.115,0.059,0.168c-0.007-0.024-0.018,0.023,0.04,0.1C9.166,4.433,9.182,4.592,9.241,4.641
						c0.023,0.017,0.068,0.037,0.056,0.114L9.284,4.719C9.28,4.736,9.281,4.762,9.277,4.784c0.086-0.009,0.109,0.342,0.186,0.341
						C9.439,5.213,9.422,5.092,9.376,5.035C9.374,5.063,9.371,5.106,9.369,5.13C9.366,5.093,9.354,5.057,9.342,5.024
						C9.335,5.141,9.384,5.251,9.426,5.318C9.42,5.369,9.329,5.322,9.401,5.477c0.028,0.06,0.053-0.078,0.074,0.013
						C9.461,5.518,9.451,5.549,9.433,5.575C9.466,5.684,9.428,5.964,9.458,6C9.441,6.097,9.46,6.2,9.467,6.283
						c0.002,0.093-0.028,0.138-0.057,0.16c0,0.024-0.003,0.154-0.006,0.184c0.009-0.084-0.025-0.087-0.046-0.102
						c-0.006,0.042-0.007,0.085-0.01,0.124c0-0.036-0.011-0.043-0.028-0.024C9.32,6.668,9.299,6.883,9.337,6.771
						C9.294,6.93,9.297,6.985,9.254,6.938c0.044-0.045,0.027-0.094,0.017-0.12C9.242,6.934,9.252,6.851,9.218,6.902
						C9.195,6.988,9.229,7.023,9.254,7.013c-0.03,0.084-0.045,0.108-0.04,0.204c-0.01-0.016-0.025-0.011-0.036-0.026
						C9.174,7.225,9.172,7.253,9.17,7.289L9.141,7.203C9.102,7.306,9.135,7.296,9.149,7.334c0.022,0.058-0.034,0.133-0.055,0.1
						C9.086,7.485,9.126,7.555,9.072,7.597C9.069,7.659,9.13,7.546,9.124,7.6c-0.01,0.075-0.066,0.124-0.098,0.188
						C9.02,7.843,9.077,7.774,9.086,7.726C9.022,7.94,8.908,7.867,8.87,8.074c0.054-0.068,0.039,0.079,0.105-0.089
						C8.96,8.086,8.863,8.132,8.848,8.234l-0.01-0.077C8.825,8.194,8.817,8.226,8.814,8.251c-0.005-0.012-0.02-0.01-0.025-0.023
						C8.786,8.336,8.668,8.432,8.687,8.51C8.69,8.487,8.681,8.483,8.663,8.498c-0.022,0.03-0.034,0.097-0.069,0.115
						C8.608,8.542,8.675,8.47,8.707,8.389c0.055-0.164-0.058,0.05-0.074,0.053c0.012-0.035,0.02-0.066,0.018-0.09
						C8.546,8.46,8.56,8.55,8.515,8.651l0.077-0.142c0.085,0.085-0.311,0.462-0.429,0.585C8.105,9.179,8.047,9.243,7.959,9.3
						c0.012-0.008-0.047-0.047-0.037-0.067C7.864,9.295,7.858,9.321,7.84,9.367C7.83,9.362,7.811,9.37,7.799,9.368
						C7.759,9.454,7.767,9.476,7.673,9.581c0.041-0.059-0.087,0.023-0.057-0.026C7.566,9.594,7.533,9.631,7.511,9.668
						C7.477,9.695,7.428,9.722,7.376,9.756C7.352,9.775,7.327,9.793,7.302,9.809L7.294,9.816L7.285,9.821L7.284,9.823L7.278,9.825
						L7.272,9.83L7.259,9.836L7.143,9.809L7.131,9.681l0.012-0.014l0.004-0.006L7.15,9.658c0.003-0.003,0.002-0.001,0.002-0.001
						l0.017-0.016c0.011-0.009,0.019-0.021,0.032-0.03C7.186,9.603,7.21,9.576,7.254,9.531c0.023-0.022,0.053-0.046,0.08-0.073
						l0.012-0.011L7.35,9.443L7.356,9.44l0.007-0.004L7.371,9.43c0.014-0.002-0.008-0.01,0.073-0.02
						c0.27,0.091,0.086,0.313,0.122,0.247L7.551,9.67L7.544,9.677L7.517,9.7L7.463,9.741C7.325,9.863,7.115,9.979,6.987,9.987
						c0.033,0,0.074,0,0.103-0.009c-0.035,0.013-0.117,0.026-0.16,0.029C6.887,10.009,6.848,10.008,6.837,10
						c0.02-0.008,0.044-0.017,0.031-0.029C6.86,9.959,6.828,9.947,6.814,9.948c-0.002,0.005,0,0.024,0,0.017
						C6.808,9.947,6.818,9.942,6.812,9.93C6.798,9.887,6.8,9.933,6.798,9.927c0.002,0.004,0,0,0-0.004
						C6.799,9.92,6.8,9.916,6.799,9.92L6.798,9.933l-0.001,0.01L6.795,9.951L6.794,9.952l0,0l0,0l0.064-0.001l0,0l0,0l0.001,0.002
						C6.842,9.946,6.826,9.958,6.821,9.964c-0.004,0-0.008,0.013,0.021,0.032c0.057,0.041,0.165,0.082,0.189,0.137
						c0.072-0.017-0.152-0.094-0.075-0.103c0.019,0.024,0.041,0.04,0.086,0.07c-0.01-0.016,0.003-0.027-0.005-0.043
						c0.046,0.023,0.096,0.067,0.144,0.114l0.048,0.074c0.015,0.03,0.029,0.062,0.034,0.098c0.023,0.087-0.028,0.192-0.087,0.229
						c-0.11,0.074-0.197,0.085-0.288,0.11c-0.033-0.019-0.167,0.016-0.226,0.053c-0.019-0.013,0.068-0.036,0.027-0.042
						c-0.108,0.058-0.243,0.069-0.319,0.066c0.016-0.097,0.052-0.189,0.027-0.218c0.033-0.017,0.075-0.097,0.11-0.147
						c0.039-0.053,0.073-0.075,0.1-0.055l-0.004-0.042c0.042,0.003-0.011,0.137,0.035,0.124c-0.01,0.022-0.028,0.061-0.018,0.069
						c0.005,0.009,0.015,0.017,0.028,0.024c0.007-0.011,0.047-0.048,0.035-0.053c0.035-0.008,0.041-0.018,0.033-0.035
						c-0.01,0.064,0.481-0.018,0.275-0.083l-0.021-0.016C6.93,10.301,6.86,10.277,6.784,10.24c-0.034-0.015-0.079-0.045-0.116-0.081
						c-0.022-0.022-0.043-0.045-0.06-0.069c-0.013-0.03-0.023-0.068-0.03-0.1C6.572,9.954,6.588,9.918,6.597,9.878l0.01-0.027
						L6.608,9.85l0.01-0.023L6.62,9.826l0.003-0.004l0.004-0.006C6.639,9.803,6.634,9.803,6.66,9.778
						C6.708,9.74,6.74,9.732,6.747,9.726c0.01-0.008,0.009-0.015-0.019-0.018C6.865,9.72,6.833,9.673,6.905,9.661
						c0.044,0.024,0.069,0.045,0.099,0.06c0.028-0.03-0.003-0.032-0.002-0.051c0.064-0.028,0.163-0.072,0.253-0.127
						c0.022-0.018,0.048-0.034,0.07-0.048L7.358,9.47l0.014-0.01L7.374,9.46l0,0l0.064,0.081L7.392,9.484
						c-0.026-0.03-0.019-0.023-0.019-0.023l0,0L7.371,9.462L7.369,9.465L7.36,9.475C7.357,9.479,7.353,9.48,7.344,9.497
						c-0.041-0.04-0.009,0.21,0.11,0.184c0.076-0.011,0.049-0.015,0.06-0.016C7.53,9.653,7.519,9.662,7.52,9.661L7.51,9.667
						c-0.042,0.032-0.083,0.07-0.116,0.108C7.35,9.791,7.368,9.731,7.305,9.771C7.336,9.767,7.339,9.776,7.33,9.789
						C7.325,9.798,7.32,9.805,7.31,9.815L7.297,9.829c-0.002,0.001-0.005,0.003,0,0l0.012-0.007
						c0.002-0.005,0.002-0.001,0.016-0.024L7.271,9.625L7.177,9.623C7.153,9.635,7.16,9.635,7.156,9.636L7.152,9.638
						c-0.002,0.001,0,0,0,0l0.01-0.008c0.045-0.044,0.096-0.089,0.059-0.085C7.311,9.551,7.464,9.392,7.49,9.474
						c0.064-0.047,0.055-0.09,0.01-0.072c0.074-0.055,0.192-0.188,0.226-0.218c0.043-0.031,0.091-0.08,0.132-0.117
						C7.952,8.979,8.086,8.82,8.169,8.804C8.09,8.826,8.234,8.667,8.113,8.74c0.069-0.085,0.093-0.13,0.143-0.142
						C8.324,8.589,8.35,8.44,8.332,8.436l0.032-0.057c-0.018,0.026-0.021,0.12,0.043,0.044C8.398,8.412,8.408,8.306,8.454,8.288
						C8.39,8.377,8.472,8.363,8.523,8.245l-0.061,0.01C8.484,8.212,8.535,8.122,8.594,8.01c0.054-0.117,0.12-0.254,0.175-0.389
						C8.888,7.347,8.959,7.102,9,7.128C8.972,7.223,9.045,7.137,9.059,7.055C9.013,7.133,9.031,6.902,8.97,7.086
						C8.974,7.038,8.983,6.972,8.98,6.93C8.954,6.905,8.946,6.832,8.975,6.742C9,6.662,9.037,6.595,9.065,6.515
						C9.1,6.435,9.074,6.371,9.1,6.39C9.084,6.285,9.176,5.972,9.147,5.938c0.013,0,0.023-0.021,0.035-0.016
						C9.158,5.855,9.126,5.784,9.125,5.683c0.004-0.044,0.005-0.085,0.006-0.13c0.013,0.014,0.02,0.009,0.024-0.009
						C9.117,5.497,9.088,5.441,9.079,5.331c0.016-0.018-0.005-0.121-0.025-0.195c0.093-0.018-0.131-0.334-0.042-0.414
						c-0.033-0.031-0.128-0.199-0.12-0.248C8.825,4.421,8.806,4.019,8.756,4.183c0-0.097-0.1-0.203-0.143-0.27
						C8.548,3.82,8.625,3.815,8.633,3.796C8.584,3.7,8.553,3.839,8.524,3.689c0.062,0.075,0.037-0.216,0.019-0.229l0.004,0.046
						C8.479,3.422,8.462,3.139,8.401,3.269C8.378,3.216,8.293,3.067,8.268,3.026C8.261,3.011,8.081,2.797,8.153,2.931
						C8.127,2.902,7.951,2.715,7.941,2.702C7.907,2.728,7.762,2.55,7.716,2.487c0.063,0.063,0.05,0.017,0.046-0.014
						C7.713,2.463,7.673,2.435,7.644,2.36C7.611,2.38,7.551,2.431,7.439,2.305c0.02,0.02,0.038,0.027,0.045,0.016
						C7.473,2.3,7.459,2.285,7.443,2.279c0.016-0.003,0.029-0.006,0.043-0.014C7.398,2.229,7.365,2.117,7.282,2.039
						C7.316,2.06,7.307,2.022,7.311,2.003C7.29,2.017,7.274,1.985,7.257,1.952C7.253,1.957,7.254,1.961,7.259,1.97
						C7.218,1.924,7.205,1.923,7.22,1.968c-0.032-0.079-0.1-0.138-0.142-0.201c-0.022-0.042-0.054-0.12-0.117-0.142
						C6.908,1.604,6.918,1.668,6.859,1.652C6.835,1.646,6.831,1.643,6.801,1.625C6.755,1.602,6.758,1.597,6.739,1.583
						c-0.026-0.025-0.05-0.053-0.079-0.076C6.604,1.47,6.59,1.474,6.539,1.451C6.467,1.419,6.4,1.376,6.325,1.34
						c-0.032-0.01-0.067-0.017-0.099-0.021c0.024-0.001,0.033-0.004,0.042-0.013L6.24,1.291C6.217,1.279,6.187,1.259,6.159,1.242
						L6.116,1.244C6.12,1.24,6.118,1.228,6.115,1.219c-0.03-0.015-0.051-0.02-0.037,0.012c-0.058-0.07-0.074-0.01-0.125-0.024
						L5.895,1.145L5.834,1.136c0.002,0.005,0.002,0.012,0,0.016L5.769,1.13C5.76,1.133,5.754,1.134,5.75,1.136
						C5.748,1.13,5.744,1.125,5.74,1.122C5.691,1.111,5.637,1.096,5.587,1.079C5.554,1.102,5.531,1.141,5.514,1.075
						c-0.09,0.003-0.143-0.022-0.08,0.02C5.358,1.049,5.076,0.991,4.968,0.967C4.926,0.956,4.911,0.924,4.856,0.92
						C4.744,0.913,4.763,0.964,4.656,0.962c-0.11-0.003-0.075-0.068-0.28-0.024C4.374,0.916,4.339,0.885,4.265,0.877
						C4.232,0.92,4.126,0.922,4.054,0.903C4.005,0.923,3.968,0.974,3.915,0.988C3.82,1.009,3.684,0.978,3.645,0.966
						c0.019,0.065-0.131,0.098-0.256,0.118C3.321,1.091,3.271,1.096,3.2,1.114C3.09,1.151,2.999,1.195,2.891,1.244
						C2.91,1.237,2.727,1.332,2.763,1.308c-0.057,0.043-0.102,0.075-0.185,0.11C2.517,1.443,2.493,1.446,2.429,1.488
						c0.074-0.061-0.008-0.041-0.04-0.052L2.367,1.448C2.358,1.461,2.345,1.475,2.34,1.486C2.324,1.487,2.334,1.469,2.332,1.464
						L2.299,1.48C2.234,1.531,2.099,1.652,2.22,1.613C2.198,1.626,2.172,1.667,2.184,1.679c-0.068,0.01-0.155,0.07-0.216,0.065
						c0.101-0.008-0.152,0.135-0.073,0.144C1.868,1.891,1.843,1.906,1.821,1.912c-0.055,0.041-0.114,0.081-0.169,0.12
						c-0.065,0.06-0.083,0.12-0.095,0.092c-0.029,0.048-0.106,0.123-0.176,0.19C1.316,2.387,1.254,2.452,1.252,2.47
						C1.243,2.461,1.223,2.471,1.214,2.46C1.192,2.526,1.168,2.598,1.112,2.684c-0.024,0.036-0.05,0.072-0.077,0.101
						c0-0.016-0.006-0.018-0.024-0.006c-0.002,0.063-0.02,0.118-0.076,0.214C0.91,2.996,0.873,3.096,0.838,3.165
						C0.749,3.119,0.739,3.507,0.623,3.519c0.01,0.044-0.017,0.235-0.051,0.27C0.594,3.869,0.39,4.207,0.522,4.105
						C0.467,4.182,0.478,4.322,0.485,4.4C0.49,4.517,0.424,4.477,0.407,4.49c-0.011,0.109,0.093,0.01,0.031,0.148
						c-0.012-0.095-0.155,0.158-0.144,0.18l0.025-0.041c0.016,0.105-0.127,0.355-0.003,0.28c-0.012,0.059-0.027,0.233-0.03,0.282
						C0.279,5.355,0.295,5.63,0.319,5.483c0.006,0.04,0.031,0.299,0.028,0.309c0.047,0,0.059,0.224,0.068,0.298
						C0.397,6.007,0.379,6.052,0.368,6.076c0.034,0.036,0.058,0.077,0.049,0.153c0.038,0,0.114-0.019,0.155,0.133
						C0.558,6.335,0.547,6.322,0.537,6.327c0,0.023,0.005,0.044,0.018,0.056C0.54,6.378,0.526,6.376,0.512,6.376
						C0.573,6.448,0.57,6.551,0.615,6.661C0.588,6.625,0.586,6.665,0.574,6.683C0.632,6.675,0.58,6.874,0.639,6.803
						c0.028,0.183,0.113,0.383,0.19,0.567c0.022,0.062,0.056,0.138,0.059,0.183C0.878,7.588,0.953,7.649,0.971,7.68
						C0.959,7.677,0.952,7.687,0.941,7.684c0.063,0.054,0.116,0.138,0.184,0.192C1.069,7.844,1.063,7.873,1.076,7.938l0.107,0.058
						C1.169,8.003,1.168,8.028,1.158,8.038c0.034,0.03,0.058,0.07,0.078,0.117c-0.011-0.014-0.017-0.012-0.017,0
						c0.055-0.012,0.144,0.147,0.204,0.153C1.41,8.366,1.506,8.415,1.488,8.462c0.044,0.023,0.124-0.007,0.081,0.063
						c0.062,0.058,0.082,0.111,0.066,0.04c0.028,0.072,0.075,0.16,0.155,0.24c0.091,0.096,0.212,0.165,0.252,0.277
						C2.03,9.057,2.013,9.04,1.994,9.034C2.098,9.139,2.173,9.24,2.257,9.335c0.091,0.088,0.186,0.175,0.317,0.255
						C2.659,9.65,2.765,9.68,2.856,9.745C2.941,9.792,3.008,9.869,3.102,9.9c0.115,0.042,0.149,0.088,0.269,0.136
						c0.08,0.039,0.176,0.039,0.267,0.065c-0.018-0.003,0.182,0.038,0.141,0.035c0.071,0.006,0.124-0.002,0.215,0.025
						c0.063,0.02,0.084,0.034,0.16,0.04c-0.108,0.003,0.001,0.049,0.005,0.073c0.02-0.005,0.052-0.008,0.067-0.016
						c0.018,0.014-0.04,0.024,0.002,0.034c0.063-0.006,0.301-0.005,0.169-0.056c0.027,0.006,0.076-0.012,0.075-0.029
						c0.059,0.036,0.16,0.045,0.206,0.086c-0.084-0.059,0.204-0.002,0.15-0.061c0.031,0.02,0.068,0.02,0.092,0.04
						C4.823,10.267,4.741,10.309,4.689,10.32z"/>
				</g>
				<path class="st3" d="M4.69,10.228c-0.025,0.002-0.049,0.003-0.071,0.003c0.027,0.003,0.047,0.009,0.064,0.017
					C4.673,10.237,4.675,10.231,4.69,10.228z"/>
				<path class="st3" d="M5.353,10.4c0.019-0.009,0.05-0.01,0.03-0.025C5.356,10.38,5.292,10.4,5.353,10.4
					C5.362,10.395,5.303,10.4,5.353,10.4z"/>
				<path class="st3" d="M4.756,10.341c0.008,0.027,0.056,0.016,0.11,0.009C4.819,10.355,4.885,10.308,4.756,10.341
					C4.763,10.371,4.815,10.326,4.756,10.341z"/>
				<path class="st3" d="M4.877,10.349c0.016-0.003,0.032-0.003,0.049-0.002C4.932,10.329,4.904,10.343,4.877,10.349z"/>
				<path class="st3" d="M4.223,10.233c0.025,0.011,0.02-0.036,0.034-0.022C4.288,10.179,4.089,10.23,4.223,10.233z"/>
				<path class="st3" d="M4.8,10.434c-0.002-0.011-0.011-0.023-0.016-0.035C4.747,10.419,4.743,10.432,4.8,10.434z"/>
				<path class="st3" d="M4.378,10.392c0.078,0.011,0.051,0.009,0.109,0.003C4.479,10.394,4.376,10.38,4.378,10.392z"/>
				<path class="st3" d="M4.487,10.395c0.027,0.002,0.053,0.003,0.069-0.002C4.54,10.392,4.511,10.391,4.487,10.395z"/>
				<path class="st3" d="M4.684,10.447c-0.031-0.007-0.044-0.015-0.087-0.017L4.684,10.447z"/>
			</g>
		</g>
	</g>
	<g>
		<path class="st4" d="M8.067,3.961l0.09-0.084c0.191-0.034,0.147,0.026,0.28-0.076C8.068,3.96,8.335,3.675,7.966,3.842l0.066-0.06
			c0,0.009,0.019,0.001,0.022,0.009C8.202,3.66,7.774,3.886,7.797,3.804C7.816,3.772,7.862,3.73,7.91,3.721L7.8,3.725
			c0.003-0.016,0.067-0.047,0.065-0.03l-0.066-0.05L7.809,3.64C7.749,3.66,7.651,3.684,7.609,3.694
			C7.652,3.651,7.65,3.682,7.692,3.652L7.587,3.665c0.084-0.066,0.189-0.086,0.191-0.053c0.333-0.23-0.107,0.02,0.056-0.171
			L7.9,3.45c0.186-0.136,0.097-0.124,0.195-0.238C8.038,3.261,7.83,3.476,7.723,3.488c0.02-0.027,0.024-0.049-0.059-0.031
			C7.789,3.384,7.744,3.381,7.721,3.36l0.165-0.099c-0.065,0-0.145,0.052-0.227,0.083C7.654,3.302,7.77,3.217,7.87,3.14
			C7.864,3.072,7.695,3.307,7.628,3.265c0.035-0.083-0.052-0.071-0.18-0.053C7.481,3.147,7.546,3.15,7.582,3.108l-0.14,0.063
			C7.44,3.164,7.48,3.137,7.5,3.125C7.437,3.138,7.344,3.236,7.28,3.236c-0.172,0.121,0.194-0.257-0.033-0.15
			C7.28,3.041,7.341,3.017,7.396,2.965c-0.174,0.04-0.136,0.021-0.329,0.12L7.12,2.963c-0.075,0.126-0.228,0.21-0.346,0.289
			C6.734,3.309,6.698,3.36,6.681,3.383c0,0-0.099,0.041-0.1,0.042c0.016-0.028,0.064-0.072,0.122-0.126
			c-0.015,0.013-0.026,0.02-0.037,0.03c0.032-0.066,0.11-0.143,0.194-0.211C6.84,3.149,6.817,3.184,6.796,3.217
			c0.087-0.075,0.188-0.156,0.261-0.238C7.04,2.991,7.02,2.997,7.005,2.999C7.03,2.98,7.052,2.96,7.062,2.946
			c0.014-0.015-0.02,0.011-0.061,0.037l0.131-0.167L7.071,2.88l0.015-0.16C6.893,2.842,6.668,3.059,6.554,3.087
			c0.105-0.117,0.147-0.208,0.247-0.36C6.714,2.9,6.911,2.704,6.932,2.769c-0.01-0.033,0.047-0.1,0.07-0.119
			c0,0-0.044,0.021-0.092,0.04c-0.043,0.023-0.09,0.046-0.09,0.046c0.088-0.124,0.047-0.105,0.059-0.17
			c-0.146,0.257-0.165,0.13-0.245,0.192C6.684,2.67,6.743,2.586,6.772,2.632c0.066-0.22-0.234,0.269-0.181,0.081
			C6.603,2.716,6.6,2.732,6.63,2.686C6.563,2.754,6.545,2.663,6.597,2.591l0.01,0.005C6.562,2.524,6.403,2.501,6.301,2.731
			C6.312,2.7,6.425,2.453,6.447,2.407c0,0-0.112,0.184-0.215,0.37c-0.1,0.187-0.193,0.376-0.193,0.376
			c0.085-0.197,0.215-0.701,0.314-0.795C6.349,2.321,6.338,2.279,6.277,2.34c0.001,0.033-0.074,0.307-0.094,0.32
			c0.037-0.241,0.016-0.13,0.027-0.342c0.001,0.05-0.116,0.369-0.139,0.351c0.02-0.048,0.095-0.32,0.115-0.352
			c0,0-0.04,0.074-0.081,0.149C6.069,2.544,6.03,2.618,6.03,2.618c0.031-0.052,0.082-0.27,0.09-0.366
			C6.109,2.319,6.061,2.229,6.034,2.256L6.045,2.34C5.98,2.268,5.867,2.779,5.808,2.751C5.83,2.684,5.915,2.339,5.886,2.29
			C5.832,2.455,5.661,3.085,5.6,3.207l0.006-0.099L5.551,3.216C5.605,2.959,5.764,2.44,5.856,2.242
			c-0.014-0.08,0.013-0.115-0.032-0.114c0.001-0.094,0.048-0.132,0.063-0.135L5.791,1.916C5.762,2.113,5.681,2.102,5.664,2.268
			c0,0,0.033-0.048,0.067-0.097c0.036-0.044,0.073-0.092,0.073-0.092c-0.03,0.197-0.149,0.547-0.204,0.509
			C5.596,2.506,5.658,2.236,5.666,2.171c-0.018,0.066-0.08,0.122-0.082,0.073l0.041-0.103c-0.033-0.08-0.09,0.257-0.118,0.063
			C5.496,2.19,5.479,1.944,5.467,2.06C5.48,2.289,5.42,2.993,5.399,3.163c-0.004-0.018-0.05-0.224-0.06-0.335
			C5.324,2.648,5.397,2.404,5.387,2.25C5.38,2.305,5.363,2.372,5.358,2.393c-0.015-0.049,0.016-0.17-0.021-0.145
			c-0.016,0.202-0.07-0.019-0.023,0.17C5.276,2.474,5.278,2.375,5.238,2.382c0.009,0.133-0.043,0.446-0.071,0.502
			c0-0.051-0.003-0.119-0.008-0.151c-0.061-0.02-0.097-0.106-0.157-0.107c-0.006-0.05-0.039-0.108-0.029-0.195
			c-0.009,0.035-0.014,0.106-0.03,0.111C4.895,2.37,4.982,2.513,4.944,2.305C4.947,2.422,4.902,2.47,4.878,2.544
			c0.022,0.18,0.064,0.032,0.089-0.044c0.01,0.251-0.023,0.515-0.066,0.631C4.86,3.198,4.869,2.975,4.862,3.009
			C4.773,2.974,4.831,3.453,4.748,3.28C4.705,3.124,4.713,2.963,4.693,2.848c0.034-0.062,0.072,0.095,0.094,0.088L4.748,2.863
			C4.754,2.807,4.777,2.766,4.795,2.81C4.76,2.672,4.643,2.8,4.555,2.677C4.55,2.733,4.536,2.79,4.555,2.853l0.019-0.028
			C4.61,2.95,4.559,3.009,4.594,3.062C4.58,3.157,4.572,3.303,4.525,3.238l-0.039-0.18c0.011,0.054,0.043,0.102,0.045,0.045
			C4.53,3.189,4.43,2.872,4.452,3.112L4.5,3.232C4.489,3.326,4.493,3.521,4.451,3.47c0.048,0.174,0.005-0.021,0.064,0.181
			c-0.066-0.254,0.08-0.002,0.003-0.267c0.063,0.235,0.056,0.095,0.118,0.297C4.624,3.621,4.608,3.57,4.637,3.594
			c0-0.019,0-0.043-0.002-0.054l0.004,0.004L4.635,3.537C4.634,3.528,4.634,3.526,4.634,3.534C4.623,3.51,4.614,3.48,4.606,3.446
			c-0.007-0.14,0.038-0.141,0.042-0.215C4.668,3.257,4.651,3.3,4.667,3.363l0.009-0.109C4.699,3.386,4.746,3.47,4.72,3.551
			l0.033,0.004c0.027,0.07,0.056,0.097,0.065,0.042c0.018,0.028,0.026-0.153,0.02-0.046l0.045-0.087l0.001,0.033
			c0.05,0.012,0.092-0.225,0.159,0.013c0.015-0.034,0.034-0.076,0.061-0.04l0.005,0.113C5.133,3.542,5.171,3.7,5.182,3.58
			c0.016,0.313,0.09,0.07,0.125,0.125l0.009-0.148c0.025,0.008,0.049-0.033,0.085-0.089l0.009-0.132
			c0.039-0.106,0.059,0.1,0.104,0.093C5.504,3.477,5.497,3.463,5.493,3.431C5.5,3.732,5.63,3.231,5.637,3.456
			c0.02-0.047,0.027-0.028,0.027,0.006c0-0.001-0.003,0.003-0.004,0.005C5.663,3.469,5.664,3.47,5.665,3.471
			c0,0.022-0.002,0.052,0,0.074C5.668,3.51,5.668,3.484,5.668,3.472c0.007-0.003,0.023-0.016,0.045-0.046L5.687,3.567
			c0.001-0.003,0.001-0.003,0.005-0.004C5.688,3.62,5.716,3.499,5.733,3.394c0.014-0.023,0.024-0.048,0.038-0.081
			C5.726,3.537,5.822,3.246,5.774,3.489c0.038-0.114,0.081-0.071,0.165-0.308c-0.01,0.03-0.012,0.046-0.018,0.047
			c0.005,0.031,0.009,0.063,0.047,0L5.917,3.4l0.111-0.223C6.009,3.292,5.991,3.353,5.929,3.479
			c0.114-0.186,0.058-0.063,0.175-0.245L6.058,3.342C6.071,3.344,6.156,3.209,6.124,3.3c-0.061,0.21,0.127,0.104,0.082,0.313
			c0.181-0.298-0.06,0.143,0.092-0.073C6.254,3.607,6.232,3.652,6.184,3.703c0.072-0.045-0.046,0.13,0.11-0.033
			c-0.047,0.064-0.08,0.089-0.106,0.129c0.013-0.013,0.05-0.049,0.023-0.011c-0.03,0.038-0.048,0.05-0.075,0.077
			c0.028,0.003,0.2-0.184,0.361-0.359C6.438,3.601,6.45,3.595,6.569,3.495C6.522,3.557,6.47,3.624,6.436,3.625
			c0.003,0.018-0.032,0.134,0.112,0.008C6.515,3.67,6.55,3.657,6.571,3.645c0.013,0.03,0.002,0.039,0.035,0.056l0.019-0.029
			c0.19-0.13,0.061-0.007,0.1,0L6.704,3.684C6.609,3.839,6.786,3.664,6.67,3.827l0.115-0.085c0.256-0.17-0.116,0.152,0.003,0.118
			l0.061-0.056c0.1-0.039-0.319,0.276-0.342,0.312c-0.021,0.019-0.04,0.018-0.061,0.024C6.32,4.274,6.608,4.045,6.666,4.054
			C6.583,4.111,6.444,4.18,6.44,4.209C6.375,4.259,6.757,4.112,6.61,4.24c0.064-0.047,0.129-0.091,0.189-0.104
			c0.038,0.014-0.221,0.206,0.006,0.116C6.788,4.265,6.771,4.276,6.751,4.286c0.067-0.008,0.126,0.017,0.252-0.027
			c-0.436,0.23,0.28,0.028-0.133,0.22l0.048,0.054L6.878,4.549C6.866,4.6,6.971,4.572,7.078,4.544
			c-0.023,0.022-0.065,0.031-0.087,0.04c-0.059,0.095-0.042,0.09,0.191,0.063L7.043,4.703C7.13,4.689,6.859,4.87,7.042,4.873
			C7.025,4.877,6.998,4.885,6.977,4.887c0.189,0.017-0.343,0.275,0.18,0.149l0.141,0.011c0.022-0.072,0.228-0.052,0.304-0.101
			c0.039,0.018-0.139,0.109-0.17,0.084l0.022-0.011C7.182,5.079,7.378,5.119,7.191,5.165c0.046,0.115-0.085,0.257-0.08,0.362
			l0.21-0.046L7.316,5.522C7.266,5.539,7.15,5.557,7.155,5.529C7.035,5.561,7.263,5.56,7.31,5.556
			C7.228,5.617,7.058,5.569,7.054,5.583l0.018,0.02l0.025-0.01C7.185,5.6,7.279,5.591,7.272,5.625
			C7.23,5.649,7.139,5.648,7.129,5.658c-0.014,0-0.02,0.004-0.003,0.012L7.111,5.717L7.28,5.683C7.366,5.698,7.276,5.73,7.467,5.69
			C7.174,5.748,7.37,5.877,7.276,5.901C7.399,5.929,7.4,5.961,7.384,5.996c0.035-0.008,0.229-0.011,0.205,0.025
			C7.193,5.995,7.411,6.073,7.123,6.076C7.316,6.069,7.165,6.16,7.435,6.154C7.401,6.176,7.288,6.141,7.194,6.15
			c0.15,0.079-0.119,0.106-0.079,0.174c0.052,0.013,0.131,0.018,0.205,0.05L7.059,6.35c0.023,0.016,0.293,0.085,0.11,0.062
			c0.04,0.009,0.107,0.019,0.121,0.034C7.144,6.476,7.182,6.551,7.175,6.624C7.167,6.687,7.137,6.765,6.9,6.682
			c0.097,0.041,0.098,0.055,0.094,0.067c0.026,0.008,0.11,0.069,0.171,0.104c0,0-0.051-0.014-0.1-0.03
			C7.018,6.807,6.972,6.789,6.972,6.789c0.154,0.119-0.02,0.054,0.127,0.17L7.082,6.923c0.162,0.156,0.421,0.261,0.652,0.425
			c-0.189-0.175,0.378,0.107,0.11-0.146c0.06,0.015,0.075,0.057,0.136,0.082C7.885,7.207,7.868,7.178,7.937,7.167L7.96,7.185
			c0.023-0.119,0.158-0.108,0.285-0.208L8.109,6.935c0.028-0.021,0.07-0.011,0.108-0.011C8.028,6.822,8.18,6.995,7.969,6.883
			C8.25,6.949,8.032,6.706,8.35,6.776c0.016-0.042-0.162-0.032-0.144-0.073l0.087,0.01L8.188,6.676
			c0.027-0.023,0.135-0.01,0.208,0.008C8.385,6.688,8.413,6.707,8.417,6.717c0.109-0.013-0.013-0.115,0.022-0.12L8.38,6.629
			C8.32,6.498,8.465,6.365,8.293,6.238L8.227,6.239C8.109,6.148,8.304,6.181,8.255,6.088l0.014,0.004
			C8.207,6.069,8.176,6.045,8.182,6.022C8.26,6.048,8.335,5.985,8.418,6.016C8.285,5.925,8.316,5.969,8.067,5.912l0.111-0.012
			c-0.1-0.02-0.152-0.022-0.181-0.061C8.09,5.871,8.165,5.805,8.29,5.842c0.239-0.103-0.245-0.121,0.101-0.185
			c-0.308-0.02-0.162,0.088-0.23,0.07C8.064,5.749,7.932,5.709,7.96,5.68C7.964,5.653,8.346,5.605,8.333,5.53
			C8.331,5.537,8.355,5.536,8.354,5.542C8.428,5.507,8.245,5.5,8.365,5.453C8.182,5.457,8.371,5.407,8.138,5.432l0.061,0.059
			C8.135,5.458,7.858,5.462,7.981,5.388C8.028,5.385,8.094,5.393,8.129,5.4c0.067-0.028-0.051-0.026,0.017-0.055
			c0.231-0.027,0.065,0.07,0.245,0.089C8.488,5.4,8.212,5.377,8.467,5.364C8.14,5.38,8.497,5.285,8.245,5.275l0.138-0.02
			C8.36,5.25,8.293,5.245,8.291,5.23l0.187-0.004c-0.16-0.015,0.118-0.104,0.029-0.128C8.526,5.18,8.344,5.148,8.249,5.2
			C8.045,5.142,8.602,5.075,8.51,4.975c0.02,0.01-0.071,0.074-0.139,0.062c0.023-0.026,0.072-0.067,0.138-0.094
			c-0.045-0.066-0.139,0.044-0.23,0.032c0.162-0.064-0.077-0.019-0.137-0.036l0.14-0.034c0.071-0.104-0.294,0.052-0.203-0.045
			l0.198-0.02L8.22,4.814l0.159-0.036C8.251,4.77,8.275,4.751,8.309,4.695C8.212,4.734,8.055,4.763,8.04,4.73
			c0.076-0.047,0.137-0.024,0.1-0.067c0.09-0.015,0.201-0.035,0.081,0.024C8.266,4.68,8.309,4.673,8.356,4.664
			C8.442,4.61,8.357,4.592,8.35,4.573c-0.003,0.01-0.009,0.021-0.025,0.03L8.113,4.59c0.049-0.028,0.093-0.032,0.136-0.037
			c-0.02-0.009-0.086,0.003-0.106-0.016c0.114-0.031,0.228-0.069,0.29-0.055l-0.144-0.03c0.044-0.021,0.119-0.081,0.163-0.087
			C8.5,4.306,8.203,4.346,8.27,4.265C8.25,4.271,8.227,4.272,8.207,4.269C8.213,4.214,8.333,4.117,8.16,4.121L8.34,4.01
			C8.278,3.984,8.115,4.152,8.011,4.112C7.928,4.088,8.166,4.024,8.212,3.984C8.105,3.997,7.893,4.043,8.028,3.927
			C8.071,3.928,8.047,3.954,8.067,3.961z"/>
	</g>
</g>
</svg>
