<?xml version="1.0" encoding="utf-8"?>
<!-- Generator: Adobe Illustrator 26.0.3, SVG Export Plug-In . SVG Version: 6.00 Build 0)  -->
<svg version="1.1" id="レイヤー_1" xmlns="http://www.w3.org/2000/svg" xmlns:xlink="http://www.w3.org/1999/xlink" x="0px"
	 y="0px" viewBox="0 0 9.503 23.65" style="enable-background:new 0 0 9.503 23.65;" xml:space="preserve">
<style type="text/css">
	.st0{fill:#E2D6D0;}
	.st1{fill:#7C9FD3;}
	.st2{fill:#B8D3F2;}
</style>
<g>
	<g>
		<path class="st0" d="M4.939,7.863c0.013-0.012,0.022-0.028,0.03-0.045l-0.014,0.01L4.939,7.863z"/>
		<path class="st0" d="M4.99,8.075C4.964,8.031,4.993,7.957,4.992,7.911C4.979,7.917,4.958,7.927,4.947,7.939
			C4.995,7.969,4.924,8.06,4.99,8.075C4.967,8.04,4.927,8.059,4.99,8.075z"/>
		<path class="st0" d="M5.147,7.96c0.002-0.014-0.002-0.024-0.012-0.031c0,0.015-0.001,0.025-0.004,0.037
			C5.133,7.961,5.14,7.958,5.147,7.96C5.144,7.949,5.122,7.956,5.147,7.96z"/>
		<path class="st0" d="M5.114,7.993C5.136,8.007,5.111,7.967,5.114,7.993L5.114,7.993z"/>
		<path class="st0" d="M5.162,8.104C5.155,8.113,5.14,8.081,5.132,8.079C5.127,8.091,5.117,8.103,5.117,8.116
			C5.136,8.131,5.155,8.139,5.162,8.104z"/>
		<path class="st0" d="M5.082,8.135L5.074,8.153C5.092,8.142,5.087,8.138,5.082,8.135z"/>
		<path class="st0" d="M5.039,8.07c0.016-0.037,0.026-0.013,0.044,0.005C5.083,8.008,5.038,8.003,5.039,8.07z"/>
		<path class="st0" d="M4.925,8.048L4.908,8.073l0.021,0.023C4.946,8.095,4.919,8.057,4.925,8.048z"/>
		<path class="st0" d="M5.202,8.273C5.186,8.267,5.17,8.255,5.162,8.238L5.149,8.265C5.166,8.268,5.185,8.271,5.202,8.273
			C5.183,8.274,5.19,8.276,5.202,8.273z"/>
		<path class="st0" d="M5.131,8.303l0.017-0.039C5.134,8.264,5.127,8.271,5.131,8.303z"/>
		<path class="st0" d="M5.047,8.102L5.008,8.168C5.017,8.188,5.036,8.124,5.047,8.102z"/>
		<path class="st0" d="M5.212,8.418c0.022,0.02,0.029,0.045,0.02,0.074c0.021-0.021,0.032-0.045,0.039-0.075
			C5.256,8.437,5.23,8.404,5.212,8.418C5.236,8.447,5.236,8.4,5.212,8.418z"/>
		<path class="st0" d="M5.232,8.493c-0.01,0.013-0.019,0.025-0.025,0.036C5.221,8.516,5.228,8.504,5.232,8.493z"/>
		<path class="st0" d="M5.145,8.369c0.001,0.02,0.021,0.027,0.039,0.025C5.172,8.381,5.162,8.371,5.145,8.369
			C5.143,8.376,5.154,8.371,5.145,8.369z"/>
		<path class="st0" d="M5.15,8.417c0.007-0.02,0.006-0.031-0.005-0.034L5.15,8.417z"/>
		<path class="st0" d="M5.011,8.242c0.037,0.043,0.053-0.008,0.072-0.033C5.055,8.246,5.034,8.222,5.011,8.242z"/>
		<path class="st0" d="M5.117,8.305c-0.01,0.01-0.021,0.011-0.034,0.008c0.004,0.014,0.005,0.028,0.012,0.038
			C5.103,8.338,5.109,8.322,5.117,8.305z"/>
		<polygon class="st0" points="5.099,8.366 5.096,8.351 5.085,8.373 		"/>
		<path class="st0" d="M5.17,8.463C5.165,8.436,5.142,8.45,5.136,8.455C5.14,8.478,5.145,8.503,5.155,8.524
			C5.151,8.501,5.157,8.481,5.17,8.463C5.165,8.436,5.152,8.481,5.17,8.463z"/>
		<path class="st0" d="M5.171,8.737C5.171,8.735,5.158,8.731,5.171,8.737C5.171,8.737,5.169,8.737,5.171,8.737z"/>
		<path class="st0" d="M5.127,8.452c0.016,0.009,0.019-0.004,0.01-0.04C5.125,8.421,5.122,8.435,5.127,8.452
			C5.126,8.457,5.118,8.435,5.127,8.452z"/>
		<path class="st0" d="M5.174,8.562c0.006,0.009,0.013,0.019,0.024,0.029C5.208,8.586,5.187,8.571,5.174,8.562z"/>
		<path class="st0" d="M5.168,8.485C5.154,8.473,5.146,8.481,5.147,8.51L5.168,8.485C5.163,8.482,5.164,8.492,5.168,8.485z"/>
		<path class="st0" d="M4.941,8.821c0.011,0.004,0.023,0.002,0.032-0.005C4.965,8.827,4.964,8.848,4.955,8.863
			c0.048,0.005,0.077-0.084,0.12-0.066C5.069,8.788,4.993,8.72,5.057,8.72c0.028,0.001,0.04,0.045,0.062,0.058
			c0.012-0.025,0.021-0.04,0.045-0.043C5.113,8.71,5.049,8.696,4.996,8.709C4.932,8.725,5.024,8.806,4.941,8.821
			C4.952,8.832,4.974,8.816,4.941,8.821z"/>
		<path class="st0" d="M5.172,8.733C5.189,8.728,5.201,8.715,5.21,8.694C5.182,8.673,5.17,8.641,5.153,8.657
			C5.162,8.665,5.167,8.705,5.172,8.733z"/>
		<path class="st0" d="M5.152,8.567C5.15,8.592,5.153,8.617,5.158,8.639L5.173,8.56C5.158,8.553,5.166,8.594,5.154,8.566
			c0.004-0.004,0.015-0.011,0.02-0.005C5.115,8.476,5.186,8.572,5.135,8.551C5.122,8.543,5.116,8.562,5.109,8.566
			C5.101,8.56,5.099,8.55,5.105,8.535C5.089,8.569,5.06,8.558,5.062,8.603C5.102,8.621,5.119,8.581,5.152,8.567
			C5.152,8.604,5.116,8.583,5.152,8.567z"/>
		<path class="st0" d="M4.946,8.293c-0.002,0-0.006,0-0.009-0.003C4.938,8.301,4.941,8.299,4.946,8.293z"/>
		<path class="st0" d="M4.962,8.321c0.03,0.015,0.06,0.023,0.095,0.028C5.028,8.386,4.99,8.23,4.946,8.293
			C4.971,8.292,4.987,8.287,4.962,8.321C4.997,8.339,4.966,8.314,4.962,8.321z"/>
		<path class="st0" d="M5.008,8.533c0.007,0.012,0.023,0.022,0.034,0.03C5.045,8.54,5.053,8.517,5.054,8.496
			C5.026,8.507,5.024,8.517,5.008,8.533z"/>
		<polygon class="st0" points="5.177,8.773 5.23,8.73 5.192,8.744 		"/>
		<path class="st0" d="M5.227,8.823C5.215,8.824,5.203,8.825,5.192,8.829C5.21,8.833,5.21,8.859,5.227,8.823z"/>
		<path class="st0" d="M5.234,9.169C5.239,9.165,5.235,9.15,5.234,9.169L5.234,9.169z"/>
		<path class="st0" d="M5.229,9.165C5.225,9.157,5.221,9.149,5.217,9.143C5.222,9.154,5.226,9.16,5.229,9.165z"/>
		<path class="st0" d="M5.229,9.128C5.229,9.134,5.232,9.139,5.234,9.145C5.237,9.13,5.235,9.128,5.229,9.128z"/>
		<path class="st0" d="M5.235,9.194C5.24,9.177,5.237,9.169,5.229,9.165L5.235,9.194C5.235,9.181,5.234,9.183,5.235,9.194z"/>
		<g>
			<path class="st0" d="M5.168,8.868c0.028,0.011,0.03,0.03,0.058,0.042c-0.071-0.021,0.005,0.126-0.07,0.086
				c0.048,0.019,0.054,0.074,0.099,0.104c-0.021,0-0.044,0.025-0.036,0.04C5.154,9.072,5.163,9.198,5.136,9.23
				C5.142,9.254,5.16,9.223,5.173,9.232c-0.01,0.009-0.017,0.024-0.028,0.038c0.03,0,0.069,0.058,0.087,0.001
				C5.228,9.311,5.24,9.323,5.253,9.357c0.02,0.05-0.006,0.078-0.019,0.116C5.244,9.45,5.231,9.56,5.231,9.551
				c0.006,0.051-0.013,0.099-0.017,0.148C5.21,9.767,5.245,9.794,5.239,9.86c-0.003,0.053,0.019,0.103,0.016,0.154
				c0,0.06-0.021,0.117-0.039,0.171c-0.049,0.163,0.022,0.268,0.015,0.424c0.012-0.009,0.013-0.021,0.003-0.036
				c0.059,0.061,0.001,0.129-0.014,0.194c-0.011,0.058,0.011,0.109,0.035,0.146c-0.037-0.033-0.018-0.006-0.039,0.036
				c0.094,0.017-0.009,0.027-0.035,0.05c0.051,0.015-0.011,0.066,0.045,0.085c-0.05,0.02-0.038,0.115-0.105,0.123
				c0.008,0.007,0.014,0.005,0.016-0.003c0.013,0.025,0.009,0.049-0.007,0.071c0.017,0.002,0.036,0.014,0.054,0.012L5.113,11.34
				c0.029,0.033,0.055,0.046,0.09,0.017c-0.031,0.042-0.05,0.091-0.088,0.13c0.011-0.003,0.022,0,0.035-0.003
				C5.146,11.502,5.1,11.545,5.128,11.56c0.025,0.023,0.029,0.068,0.03,0.102c0.007,0.102-0.014,0.214,0.018,0.309
				c-0.088-0.028,0.034,0.068-0.036,0.069c0.019,0.009,0.036,0.032,0.059,0.008c-0.026,0.061,0.02,0.118-0.041,0.155
				c0.016,0,0.032,0,0.048-0.004c-0.009,0.006-0.014,0.015-0.006,0.03c0.013,0.001,0.023-0.004,0.033-0.02
				c-0.012,0.081-0.107,0.075-0.154,0.074c0.03,0.039,0.014,0.06-0.023,0.081c0.02,0.012,0.045,0.036,0.055-0.007
				c0.002,0.037,0.022,0.156-0.033,0.153c0.01,0.007-0.009,0.14-0.011,0.161c-0.042-0.078-0.035,0.064-0.037,0.074
				c0.002,0.024,0.015,0.117,0.025,0.147c-0.14-0.054,0,0.089-0.039,0.14l-0.021-0.023c-0.01,0.008,0.104,0.161,0.136,0.116
				c0.04,0.081-0.058,0.012-0.077,0.068c0.019,0.009,0.108,0.003,0.073,0.059c-0.023,0.038-0.092,0.101-0.056,0.154
				c-0.112-0.084,0.003,0.13-0.066,0.16c0.022,0.024-0.029,0.118-0.068,0.131c0.124,0.044-0.077,0.206,0.038,0.221
				c-0.005,0.039-0.028,0.092-0.006,0.103c-0.001,0.058-0.034,0.086-0.073,0.106c0.008,0.011,0.015,0.014,0.028,0.008
				c0.002,0.023,0.002,0.045,0.002,0.067c-0.003,0.053-0.047,0.085-0.078,0.115c0.012-0.002,0.025,0.012,0.04,0.013
				c-0.022,0.015,0.016,0.192-0.022,0.24c0.033-0.001,0.001,0.024,0,0.072c0.002,0.038,0.009,0.073,0.014,0.111
				c0.011,0.013,0.013,0.028,0.032,0.045c-0.063-0.039-0.024,0.122-0.089,0.063c0.043,0.033,0.036,0.088,0.071,0.127
				c-0.018-0.005-0.048,0.016-0.045,0.03c-0.039-0.072-0.063,0.021-0.093,0.058l0.001,0.02c0.008-0.002,0.02-0.007,0.028,0
				c-0.01,0.005-0.018,0.013-0.027,0.021l-0.001,0.013c0.024,0.017,0.047,0.064,0.076,0.02c-0.013,0.038-0.002,0.052,0.003,0.088
				c0.008,0.054-0.026,0.075-0.05,0.108c0.017-0.02-0.024,0.083-0.02,0.075c-0.009,0.061-0.056,0.107-0.064,0.166
				c-0.008,0.039,0.011,0.071,0.008,0.105c-0.006,0.07-0.023,0.15-0.104,0.126c0.026,0.027,0.065,0.107,0.039,0.153
				c-0.014,0.026-0.075,0.035-0.097,0.056c0.029,0.045,0.007,0.098-0.046,0.104c0.002,0.039,0.034,0.063,0.062,0.073
				c-0.07,0.095,0,0.093-0.016,0.15c-0.017,0.056-0.073,0.03-0.099,0.083c-0.012,0.026,0.021,0.045,0.017,0.069
				c-0.004,0.057-0.045,0.194-0.013,0.244c-0.026-0.041-0.013-0.009-0.045,0.029c0.069,0.029,0.017,0.026-0.023,0.033
				c-0.003,0.028-0.005,0.061-0.01,0.088c0.001,0.005,0.006,0.008,0.009,0.011c-0.004,0-0.008,0.002-0.013,0.005
				c-0.003,0.012-0.006,0.023-0.012,0.033c-0.008,0-0.013-0.004-0.018-0.006L4.32,16.968l0.036,0.054
				c-0.019,0.025-0.091-0.002-0.054,0.052c-0.022-0.021-0.032-0.013-0.037,0.005c0.011,0.005,0.019,0.012,0.028,0.015l-0.031,0.012
				c-0.002,0.017-0.001,0.035-0.003,0.05l-0.002,0.015c0.009,0.003,0.022,0.002,0.037-0.006c-0.016,0.011-0.032,0.025-0.044,0.039
				c-0.01,0.044-0.022,0.084-0.043,0.117c-0.015,0.027-0.027,0.028-0.029,0.064c-0.001,0.037,0.033,0.084,0.003,0.121
				c-0.026,0.03-0.079-0.01-0.094,0.02c-0.015,0.031,0.032,0.087,0.038,0.111c0.01,0.046,0.005,0.1,0.015,0.15
				c-0.015-0.031-0.027-0.029-0.036,0.002c-0.002-0.006-0.005-0.009-0.009-0.012C4.1,17.8,4.102,17.822,4.071,17.812
				c0.018,0.012,0.029,0.038,0.053,0.024c-0.035,0.052-0.01,0.113-0.076,0.137c0.018,0.005,0.032,0.007,0.051,0.008
				c-0.015,0.002-0.021,0.011-0.017,0.026c0.014,0.005,0.024,0.001,0.035-0.011c-0.034,0.077-0.122,0.044-0.167,0.035
				c0.018,0.043-0.005,0.063-0.045,0.07c0.017,0.017,0.033,0.046,0.057,0.007c-0.01,0.037-0.022,0.156-0.075,0.14
				c0.009,0.009-0.045,0.132-0.054,0.151c-0.017-0.087-0.052,0.052-0.056,0.061c-0.004,0.024-0.018,0.115-0.012,0.149
				c-0.124-0.089-0.023,0.086-0.071,0.127L3.678,18.71c-0.011,0.005,0.064,0.185,0.106,0.148c0.018,0.088-0.059-0.002-0.087,0.045
				c0.016,0.014,0.1,0.032,0.055,0.078c-0.034,0.031-0.116,0.074-0.089,0.134c-0.093-0.11-0.024,0.129-0.107,0.138
				c0.014,0.03-0.061,0.105-0.102,0.108c0.103,0.076-0.137,0.175-0.03,0.219c-0.018,0.035-0.055,0.079-0.036,0.097
				c-0.017,0.055-0.055,0.073-0.097,0.083c0.005,0.011,0.013,0.016,0.024,0.013c-0.004,0.024-0.006,0.044-0.014,0.068
				c-0.016,0.05-0.066,0.07-0.103,0.09c0.013,0.005,0.021,0.021,0.033,0.026c-0.023,0.007-0.032,0.188-0.081,0.226
				c0.034,0.007-0.007,0.021-0.018,0.069c-0.012,0.046-0.01,0.093-0.022,0.137c-0.015,0.055-0.059,0.058-0.095,0.051
				c-0.021,0.01-0.045,0.036-0.063,0.049c0.027-0.089-0.066-0.011-0.074-0.064c-0.027,0.035,0.012,0.11,0.024,0.06
				c0.115,0.031-0.146,0.541-0.19,0.629L2.668,21.07c-0.039,0.054,0.003,0.108,0.028,0.058c0.022,0.034-0.057,0.049-0.072,0.041
				c-0.011,0.054,0.061,0.046,0.067,0.03L2.67,21.233c-0.018-0.012-0.113,0.014-0.081,0.062c0.026,0.038,0.001,0.057-0.021,0.109
				c-0.021-0.092-0.06,0.016-0.094-0.043c0.036,0.059-0.021,0.15-0.054,0.207c-0.016,0.027-0.035,0.055-0.041,0.085
				c-0.008,0.023-0.08,0.087-0.101,0.128c-0.002-0.028-0.05-0.044-0.065-0.006c0.092,0.034,0.009,0.115,0.054,0.182
				c-0.025-0.053-0.089,0.105-0.123,0.024c-0.014,0.035,0.037,0.037,0.042,0.064c-0.096,0.061-0.102,0.204-0.172,0.291
				c-0.024-0.012-0.024-0.036-0.058-0.026l0.032,0.094C1.965,22.423,1.9,22.38,1.921,22.441c-0.033-0.056-0.046,0.032-0.063,0.067
				c-0.035,0.067-0.08,0.129-0.127,0.19c-0.086,0.118-0.165,0.236-0.173,0.379c-0.005-0.032-0.015-0.033-0.036-0.006
				c0.004-0.022-0.036-0.029-0.044-0.037L1.468,23.15c-0.05-0.014-0.063,0.089-0.111,0.066l0.027-0.021
				c-0.083-0.001-0.093-0.136-0.156-0.175c0.075,0.001-0.007-0.166,0.105-0.17c-0.002-0.024-0.029-0.004-0.04-0.021
				c0.037,0.003,0.077-0.03,0.06-0.06c0.064-0.085,0.086-0.191,0.128-0.289c0.007,0.011,0.021,0.017,0.029,0.03
				c0.007-0.02,0.008-0.038,0.003-0.057c0.062,0.005-0.032,0.075,0.031,0.084c-0.049-0.08,0.113-0.179,0.049-0.251
				c0.025-0.038,0.032,0.036,0.058-0.003l-0.016-0.022c0.009,0.008,0.023,0.005,0.034,0.008c0.017-0.041-0.012-0.083-0.048-0.05
				c-0.003-0.041,0.053-0.066,0.064-0.091c-0.003,0.012-0.004,0.024-0.007,0.035c0.047-0.051,0.211-0.343,0.262-0.294
				c0.052-0.036,0.057-0.112,0.08-0.151c0.024-0.008,0.043-0.024,0.056-0.052c-0.032,0.009-0.013-0.065-0.052-0.05
				c0.056-0.045,0.082-0.035,0.142-0.05c-0.008-0.007-0.012-0.021-0.022-0.028c0.035-0.006,0.057-0.007,0.082-0.04
				c-0.012,0.006-0.082-0.044-0.082-0.037c0.008-0.056,0.036-0.085,0.071-0.122c0.061-0.064,0.075-0.346,0.198-0.292l-0.048,0.059
				c0.043-0.034,0.126-0.031,0.125-0.111c-0.019,0-0.039,0.006-0.056,0.017c-0.002-0.008,0.051-0.111-0.017-0.054
				c-0.035,0.027-0.04,0.076-0.086,0.089c-0.013-0.024,0.029-0.035,0.037-0.052c-0.002-0.014-0.011-0.02-0.028-0.017
				c0.083,0.012,0.049-0.083,0.12-0.097c-0.013-0.003-0.023-0.012-0.036-0.016c0.015-0.004,0.031-0.012,0.043-0.028l-0.062,0.002
				c0.063-0.019,0.004-0.094,0.049-0.123c-0.04,0.075,0.033,0.039,0.045,0.088c0.089-0.066-0.052-0.124,0.013-0.211
				c-0.019,0.019-0.005,0.068,0.021,0.055c0.004-0.037-0.021-0.084,0.013-0.108c0.023-0.02,0.019,0.049,0.051,0.032
				c-0.031-0.045,0.048-0.035,0.07-0.054c-0.037-0.002-0.049-0.056-0.004-0.061c0.03-0.002,0.063,0.023,0.068-0.034l-0.068,0.008
				c0.014-0.008,0.021-0.025,0.033-0.034c-0.015,0-0.029-0.013-0.048-0.013c0.044-0.024,0.052-0.047,0.06-0.098
				c0.02,0.021,0.069,0.029,0.09-0.012c-0.009-0.035-0.04-0.008-0.013-0.056c-0.023,0.001-0.065,0-0.042,0.041
				c-0.065-0.015-0.039-0.029-0.007-0.099c-0.013,0.054,0.065-0.015,0.087-0.03c-0.01-0.015-0.025-0.018-0.041-0.009
				c0.017-0.012,0.035-0.025,0.048-0.042c-0.028-0.006-0.064-0.024-0.093,0.002c0.012-0.009,0.067-0.045,0.067-0.06
				C2.782,20,2.76,19.964,2.79,19.933c0.031-0.028,0.086-0.055,0.088-0.107c0.037-0.001,0.042-0.144,0.094-0.176l-0.038-0.06
				c0.026-0.036,0.048,0.043,0.082,0.026c0.091-0.048-0.015-0.063-0.02-0.09c0.045-0.02,0.119-0.047,0.1-0.116
				c-0.012,0.013-0.022,0.028-0.028,0.045c0-0.016-0.01-0.038-0.015-0.054c-0.042,0.016-0.071,0.065-0.098,0.014
				c0.098,0.034,0.096-0.148,0.192-0.113c-0.003-0.012-0.005-0.026-0.01-0.036L3.125,19.28c-0.018-0.044,0.032-0.039,0.055-0.04
				c0.066-0.006,0.056-0.092,0.03-0.077c0.054-0.027,0.033-0.059,0.028-0.045c0.014-0.024,0.034-0.061,0.04-0.079
				c0.022-0.005,0.048-0.017,0.071-0.03c-0.008-0.03-0.015,0.007-0.026-0.005c0.015-0.006,0.027-0.025,0.042-0.034
				c-0.02-0.027-0.061-0.005-0.068,0.032c0.003-0.016-0.034-0.026-0.033-0.044c-0.002,0.009,0.034-0.054,0.04-0.069
				c0.023-0.041,0.047-0.072,0.054-0.121c0.001-0.004,0.002-0.071-0.021-0.07c0.031-0.012,0.077-0.006,0.062-0.046
				c-0.006-0.022-0.068-0.051-0.048-0.074c0.017-0.024,0.044,0.076,0.076,0.013c0-0.046,0.024-0.075,0.053-0.104
				c0.08-0.081,0.012-0.025-0.008-0.059c0.018-0.002,0.036-0.016,0.052-0.018c-0.002-0.009-0.008-0.012-0.018-0.012
				c0.018-0.014,0.106,0.004,0.102-0.039c-0.007-0.04-0.047-0.108,0.012-0.13c-0.015-0.01-0.033-0.017-0.053-0.018
				c0.053-0.042,0.161-0.077,0.118-0.152c0.043,0.087,0.129-0.057,0.175,0.034l0.051-0.057c-0.013-0.01-0.031-0.013-0.052-0.006
				c0.043-0.021-0.102-0.086-0.039,0.005c-0.036,0.007-0.122,0.027-0.086-0.02C3.677,18.021,3.73,18,3.737,17.998l-0.054-0.035
				l0.026,0.003c-0.001-0.05-0.023-0.091,0.028-0.115c0.03-0.013,0.058-0.026,0.088-0.042c0.01-0.018-0.002-0.047-0.009-0.078
				c-0.018,0.025-0.041,0.044-0.045,0.067c0.004-0.023-0.016-0.033-0.033-0.026c0.027-0.026,0.05-0.05,0.075-0.074l0-0.007
				c-0.031-0.008-0.022-0.026-0.032-0.058c0.03,0.021,0.046,0.013,0.06-0.004c-0.009,0.001-0.02,0.006-0.028-0.002
				c0.037-0.008,0.066-0.05,0.041-0.073l0-0.006c-0.013,0.006-0.023,0.017-0.025,0.04c-0.021-0.033,0.001-0.042,0.028-0.052
				c0.032-0.098,0.025-0.197,0.034-0.297c0.011,0.009,0.027,0.011,0.036,0.021c0.001-0.02-0.002-0.04-0.011-0.057
				c0.05-0.01,0.008,0.055,0.035,0.068l0.008-0.015c-0.028-0.048,0.016-0.125,0.013-0.182c-0.004,0.003-0.01,0.007-0.018,0.015
				c-0.004-0.021-0.002-0.037,0.006-0.053c-0.005-0.005-0.009-0.01-0.017-0.015c0.007-0.026,0.018-0.014,0.032-0.007l0.003-0.003
				c0,0,0.001,0.004,0.003,0.005c0.004,0.001,0.01-0.002,0.014-0.016l-0.021-0.017C3.986,16.987,4,16.979,4.011,16.98
				c0.006-0.043-0.035-0.075-0.06-0.034c-0.015-0.039,0.031-0.078,0.037-0.107c0.001,0.013,0.002,0.023,0.001,0.035
				c0.024-0.046,0.072-0.242,0.119-0.323c-0.005-0.003-0.009-0.009-0.012-0.022c-0.008-0.03-0.024-0.067-0.05-0.006
				c0.004-0.037,0.012-0.075,0.015-0.111c0.049,0.016,0.075-0.068,0.121-0.053l-0.086,0.101c0.023,0.009,0.057,0.007,0.084-0.002
				c0.005-0.041,0.002-0.081,0.007-0.109c0.007-0.003,0.01-0.008,0.014-0.011c-0.01-0.002-0.022,0-0.03,0
				c0.002-0.001,0.04-0.053,0.037-0.067L4.202,16.27c-0.005-0.003-0.018,0.003-0.04,0.018c-0.004-0.015,0.006-0.028,0.017-0.04
				c-0.004,0.001-0.008,0.001-0.013,0.007c0.018-0.028,0.036-0.043,0.051-0.055c0.003-0.036-0.052-0.059-0.046-0.089
				c-0.002,0.009,0.108,0.032,0.123-0.03c-0.027-0.007-0.057-0.014-0.056-0.01c-0.008-0.054,0.013-0.092,0.036-0.136
				c0.043-0.079-0.019-0.352,0.113-0.337l-0.033,0.073c0.025-0.035,0.077-0.053,0.093-0.095c-0.007-0.01-0.017-0.013-0.034-0.007
				c0.02-0.015,0.03-0.023,0.035-0.028c0.001-0.004,0-0.007-0.003-0.012c-0.017,0.008-0.034,0.017-0.048,0.032
				c-0.001-0.003,0.001-0.013,0.001-0.025c-0.008,0.001-0.012,0-0.015-0.002c0.006-0.001,0.01-0.003,0.014-0.004
				c0.002-0.033,0.003-0.065-0.032-0.016c-0.023,0.035-0.016,0.084-0.058,0.109c-0.016-0.022,0.018-0.044,0.024-0.062
				c-0.007-0.012-0.018-0.015-0.034-0.007c0.081-0.013,0.025-0.094,0.089-0.125c-0.013-0.001-0.026-0.007-0.038-0.006
				c0.014-0.01,0.025-0.02,0.032-0.038l-0.057,0.019c0.053-0.036-0.021-0.094,0.013-0.133c-0.018,0.082,0.046,0.027,0.067,0.074
				c0.069-0.09-0.081-0.107-0.046-0.207c-0.01,0.021,0.017,0.067,0.037,0.044c-0.006-0.036-0.042-0.074-0.021-0.107
				c0.017-0.023,0.034,0.043,0.06,0.019c-0.043-0.036,0.033-0.049,0.049-0.072c-0.037,0.006-0.066-0.042-0.024-0.059
				c0.027-0.01,0.064,0.007,0.055-0.051L4.45,14.936c0.009-0.013,0.013-0.032,0.022-0.043c-0.018,0.004-0.033-0.003-0.049,0.001
				c0.037-0.037,0.039-0.06,0.031-0.111c0.028,0.017,0.077,0.008,0.086-0.036C4.52,14.715,4.5,14.751,4.513,14.698
				c-0.02,0.005-0.062,0.018-0.026,0.052c-0.072,0-0.046-0.021-0.033-0.092c0.001,0.056,0.06-0.035,0.079-0.053
				C4.516,14.59,4.505,14.59,4.49,14.604c0.014-0.016,0.026-0.032,0.037-0.051c-0.031,0.001-0.069-0.005-0.09,0.028
				c0.009-0.011,0.051-0.065,0.049-0.078c-0.031-0.016-0.058-0.043-0.037-0.082c0.022-0.034,0.069-0.076,0.059-0.125
				c0.036-0.012,0.004-0.15,0.049-0.196l-0.055-0.047c0.018-0.044,0.06,0.026,0.089,0.001c0.072-0.068-0.032-0.057-0.045-0.08
				c0.039-0.029,0.1-0.077,0.062-0.139c-0.009,0.016-0.013,0.033-0.014,0.051c-0.004-0.016-0.019-0.033-0.028-0.048
				c-0.037,0.027-0.052,0.084-0.089,0.039c0.102,0.009,0.046-0.168,0.148-0.158c-0.007-0.012-0.013-0.025-0.022-0.035l-0.005,0.018
				c-0.03-0.038,0.02-0.047,0.042-0.055c0.058-0.024,0.023-0.105,0.004-0.082c0.043-0.041,0.012-0.066,0.012-0.053
				c0.007-0.027,0.016-0.068,0.017-0.085c0.023-0.012,0.044-0.029,0.064-0.045c-0.013-0.026-0.011,0.008-0.026,0
				c0.011-0.011,0.02-0.03,0.035-0.044c-0.028-0.022-0.063,0.011-0.062,0.046c-0.002-0.015-0.039-0.016-0.043-0.033
				c0.002,0.009,0.02-0.06,0.026-0.075c0.012-0.047,0.03-0.083,0.025-0.132c-0.001-0.004-0.015-0.068-0.04-0.062
				c0.029-0.017,0.074-0.024,0.054-0.06c-0.014-0.02-0.082-0.033-0.066-0.058c0.014-0.029,0.061,0.062,0.079-0.007
				c-0.01-0.044,0.007-0.08,0.026-0.115c0.056-0.099,0.004-0.028-0.023-0.054c0.017-0.007,0.031-0.023,0.046-0.031
				c-0.006-0.007-0.015-0.009-0.022-0.006c0.014-0.017,0.105-0.024,0.088-0.064c-0.016-0.036-0.075-0.096-0.023-0.13
				c-0.018-0.005-0.036-0.006-0.055-0.002c0.039-0.056,0.134-0.119,0.07-0.18c0.066,0.072,0.108-0.087,0.178-0.009l0.036-0.071
				c-0.019-0.007-0.036-0.005-0.051,0.006c0.035-0.029-0.122-0.055-0.037,0.018c-0.035,0.014-0.11,0.057-0.089,0
				c-0.053,0.024-0.008-0.012-0.003-0.017l-0.058-0.02l0.023-0.002c-0.016-0.05-0.047-0.083-0.006-0.118
				c0.065-0.052,0.14-0.104,0.169-0.197c-0.042,0.023-0.084,0.002-0.127,0.001c0.05,0.029-0.028,0.091-0.022,0.136
				c-0.004-0.023-0.025-0.027-0.039-0.017l0.057-0.094c-0.037-0.001-0.03-0.021-0.046-0.051c0.077,0.024,0.054-0.059,0.092-0.109
				c-0.031-0.003-0.059,0.011-0.056,0.054c-0.059-0.054,0.103-0.066,0.055-0.119c0.008-0.035-0.032-0.071-0.031-0.046
				c-0.008-0.088,0.019-0.168,0.041-0.248c0.014-0.05-0.008-0.195-0.063-0.1c-0.012-0.028-0.013-0.055,0.004-0.082
				c0.01,0.016,0.09,0.041,0.098,0.018c-0.04-0.028-0.063-0.06-0.094-0.096c0.014,0.02,0.112,0.006,0.109-0.031
				c-0.027,0.01-0.083-0.017-0.107,0.006l0.098-0.071c-0.025,0.024-0.085-0.002-0.108-0.016c0.011,0.006,0.005-0.076,0.011-0.086
				c0.003,0.013,0.014,0.021,0.021,0.033c-0.013-0.095,0.139-0.074,0.135-0.166c-0.03,0.015-0.076,0.018-0.109,0.007
				c-0.059-0.019,0.017-0.07,0.026-0.1c-0.036-0.005-0.057,0.056-0.086,0.006c-0.015-0.026-0.043-0.058-0.049,0.008L4.781,10.69
				c0.053,0.002,0.055-0.086,0.105-0.081l-0.058,0.122c0.051,0.003,0.114-0.04,0.141-0.092c0.05-0.098-0.061-0.055-0.098-0.047
				c0.002-0.001,0.06-0.132-0.021-0.046c-0.016-0.033,0.031-0.058,0.038-0.085c0.011-0.048-0.066-0.058-0.069-0.09
				c0.002,0.008,0.113,0.004,0.115-0.061c0.002-0.037-0.055-0.053-0.049-0.085c0.037-0.005,0.016-0.021,0.024-0.044
				c0.011,0.004,0.02,0.011,0.025,0.022c0.018-0.035-0.011-0.055-0.01-0.091c0.043,0.016,0.125-0.038,0.147-0.086
				c-0.085,0.017-0.056-0.3-0.14-0.243c0.079-0.091-0.02-0.017-0.037-0.026c0.035-0.004,0.045-0.066,0.063-0.098
				c0.055,0.008,0.009,0.087-0.006,0.112C5.02,9.769,5.196,9.577,5.089,9.586C5.06,9.59,5.17,9.42,5.17,9.42
				C5.172,9.34,5.092,9.36,5.054,9.37C4.982,9.386,5.062,9.433,5.062,9.486C5.056,9.47,5.044,9.457,5.038,9.442
				C5.025,9.459,5.009,9.494,5.026,9.516c-0.037-0.032-0.03-0.141-0.033-0.189C4.992,9.309,4.946,9.138,5.015,9.183L5.011,9.212
				c0.069,0.044,0.18-0.204,0.052-0.174c-0.011-0.04-0.017-0.082,0.013-0.054c0.03,0.027,0.025,0.04,0.05,0.004
				C5.147,8.96,5.183,8.913,5.168,8.868z"/>
		</g>
		<path class="st0" d="M5.216,8.986C5.224,8.995,5.229,9.005,5.231,9.02c0.003-0.012,0.006-0.025,0.008-0.038
			C5.234,8.989,5.225,8.992,5.216,8.986z"/>
		<path class="st0" d="M4.957,8.662C4.97,8.694,4.982,8.658,4.98,8.645C4.961,8.638,4.966,8.651,4.957,8.662
			C4.968,8.688,4.962,8.658,4.957,8.662z"/>
		<path class="st0" d="M5.099,8.956c0.03-0.068-0.022-0.03-0.021-0.054C5.073,8.93,5.066,8.953,5.099,8.956
			C5.113,8.924,5.064,8.954,5.099,8.956z"/>
		<path class="st0" d="M5.079,8.87c0.002,0.007,0.002,0.016,0,0.025C5.082,8.879,5.097,8.865,5.079,8.87z"/>
		<path class="st0" d="M5.24,9.213C5.254,9.22,5.2,9.216,5.21,9.23C5.19,9.303,5.284,9.195,5.24,9.213z"/>
		<path class="st0" d="M5.024,8.949C5.011,8.946,4.997,8.942,4.982,8.943C4.992,8.97,5.007,8.967,5.024,8.949z"/>
		<path class="st0" d="M5.029,9.1c-0.013,0.028-0.011,0.014,0,0.055C5.043,9.153,5.03,9.104,5.029,9.1z"/>
		<path class="st0" d="M5.033,9.062C5.027,9.071,5.027,9.085,5.029,9.1C5.032,9.087,5.033,9.07,5.033,9.062z"/>
		<path class="st0" d="M4.99,9.043C4.988,9.022,4.981,9.017,4.972,9.001C4.978,9.015,4.984,9.03,4.99,9.043z"/>
	</g>
</g>
<g>
	<g>
		<path class="st1" d="M4.847,10.465c-0.074,0.121-0.139,0.251-0.195,0.386c0.24,0.024,0.842,0.239,0.687-0.146
			c-0.057-0.147-0.381-0.288-0.215-0.479c0.078-0.088,0.23,0.035,0.328,0.042c0.158,0.012,0.324-0.049,0.475-0.098
			c0.115-0.037-0.658,0.214,0,0C6.923,9.85,7.493,9.48,8.13,8.629c0.098-0.13,0.166-0.295,0.275-0.416
			C8.77,7.799,8.987,7.141,9.073,6.606C9.18,5.946,9.18,5.242,9.067,4.58C8.993,4.138,8.721,3.722,8.581,3.295
			C8.46,2.927,8.411,2.636,8.095,2.376C8.04,2.297,7.892,2.126,7.796,2.024c-0.209-0.23-0.428-0.46-0.707-0.609
			c-0.322-0.159-0.6-0.378-0.939-0.503c-1.018-0.411-2.193-0.4-3.188,0.084C2.025,1.453,1.282,2.194,0.81,3.128
			C0.376,3.982,0.253,5.013,0.337,5.957C0.392,6.57,0.581,7.212,0.798,7.789c0.201,0.578,0.621,1.246,1.104,1.624
			c0.939,0.73,2.244,1.081,3.441,0.896"/>
		<g>
			<g>
				<path class="st1" d="M5.304,10.235l0.006-0.012c-0.023,0.012-0.051,0.024-0.072,0.035L5.304,10.235z"/>
				<path class="st1" d="M4.821,10.276c0.049,0.058,0.201-0.03,0.277,0.002c0.016-0.013,0.027-0.032,0.033-0.046
					C5.046,10.245,4.911,10.3,4.821,10.276C4.87,10.328,4.898,10.291,4.821,10.276z"/>
				<path class="st1" d="M4.987,10.126c0.008,0.006,0.004,0.01-0.006,0.017C5,10.135,5.022,10.132,5.045,10.128
					C5.034,10.122,5.017,10.122,4.987,10.126C5.005,10.146,5.011,10.125,4.987,10.126z"/>
				<path class="st1" d="M4.94,10.164C4.989,10.156,4.905,10.15,4.94,10.164L4.94,10.164z"/>
				<path class="st1" d="M4.71,10.18c0.025-0.004,0.045-0.012,0.064-0.018c-0.006-0.005-0.068-0.016-0.051-0.022
					C4.659,10.148,4.677,10.163,4.71,10.18z"/>
				<path class="st1" d="M4.649,10.216l0.033-0.006C4.677,10.204,4.667,10.203,4.649,10.216z"/>
				<path class="st1" d="M4.796,10.202c0.039,0.012,0.086,0.018,0.02,0.036C4.942,10.23,4.921,10.195,4.796,10.202z"/>
				<path class="st1" d="M4.796,10.329l0.053,0.016l0.045-0.017C4.874,10.335,4.794,10.315,4.796,10.329z"/>
				<path class="st1" d="M4.405,10.117c0.004,0.014,0.012,0.029,0.023,0.044c0.016-0.002,0.033-0.007,0.051-0.01
					C4.44,10.147,4.415,10.132,4.405,10.117C4.399,10.127,4.405,10.133,4.405,10.117z"/>
				<path class="st1" d="M4.429,10.161l-0.072,0.012C4.419,10.182,4.433,10.175,4.429,10.161z"/>
				<path class="st1" d="M4.636,10.272l0.121-0.038C4.716,10.243,4.599,10.267,4.636,10.272z"/>
				<path class="st1" d="M4.136,10.091c0.025-0.015-0.037-0.04-0.004-0.048c-0.053,0-0.1,0.01-0.133,0.021
					C4.05,10.064,4.097,10.068,4.136,10.091C4.169,10.073,4.083,10.067,4.136,10.091z"/>
				<path class="st1" d="M3.933,10.073c0.02-0.001,0.041-0.006,0.066-0.01C3.978,10.064,3.954,10.066,3.933,10.073z"/>
				<path class="st1" d="M4.233,10.153c-0.006-0.014-0.023-0.026-0.053-0.036C4.181,10.13,4.192,10.148,4.233,10.153
					C4.228,10.147,4.224,10.151,4.233,10.153z"/>
				<path class="st1" d="M4.204,10.15c-0.004-0.007-0.025-0.011-0.06-0.008L4.204,10.15z"/>
				<path class="st1" d="M4.546,10.214c-0.045,0.016-0.135,0.034-0.049,0.06C4.53,10.253,4.479,10.238,4.546,10.214z"/>
				<path class="st1" d="M4.273,10.196c0.021,0.006,0.053,0.011,0.076,0.017c-0.01-0.011-0.006-0.021,0.008-0.029
					C4.331,10.188,4.298,10.19,4.273,10.196z"/>
				<polygon class="st1" points="4.233,10.201 4.273,10.196 4.243,10.19 				"/>
				<path class="st1" d="M4.056,10.122c-0.031,0.009-0.068,0.009-0.113-0.001c0.043,0.016,0.086,0.025,0.133,0.029
					C4.081,10.143,4.104,10.128,4.056,10.122C4.02,10.132,4.103,10.126,4.056,10.122z"/>
				<path class="st1" d="M3.548,10.035C3.56,10.052,3.55,10.038,3.548,10.035C3.548,10.038,3.548,10.035,3.548,10.035z"/>
				<path class="st1" d="M4.081,10.156c0.033,0.008,0.057,0.008,0.072-0.002C4.087,10.142,4.061,10.144,4.081,10.156
					C4.114,10.166,4.071,10.156,4.081,10.156z"/>
				<path class="st1" d="M3.819,10.064c0.016,0.01,0.033,0.019,0.053,0.028C3.858,10.078,3.827,10.057,3.819,10.064z"/>
				<path class="st1" d="M4.015,10.119c-0.014,0.006-0.029,0.007-0.045,0.012C4.023,10.142,4.038,10.132,4.015,10.119
					C3.997,10.122,4.019,10.123,4.015,10.119z"/>
				<path class="st1" d="M3.376,10.183c0.031-0.06,0.18,0.06,0.215,0.01c0.029-0.041,0-0.096-0.037-0.15
					c-0.01,0.017-0.037,0.021-0.086,0.016c0.021,0.024,0.104,0.059,0.105,0.078c-0.002,0.057-0.129-0.042-0.143-0.052
					c0.031,0.047-0.139,0.022-0.135,0.065c0.027,0.001,0.065,0.009,0.094,0.01C3.374,10.163,3.368,10.173,3.376,10.183
					C3.39,10.159,3.353,10.169,3.376,10.183z"/>
				<path class="st1" d="M3.694,10.077c0.031-0.006-0.025-0.026-0.066-0.058c-0.037,0-0.062,0.008-0.072,0.017
					C3.608,10.054,3.683,10.069,3.694,10.077z"/>
				<path class="st1" d="M3.864,10.108c-0.027,0.022-0.105,0.025-0.068,0.063c0.088,0.019,0.068-0.012,0.127-0.012
					c-0.025,0-0.045-0.006-0.059-0.016c0.008-0.007,0.041-0.003,0.029-0.017c-0.045-0.05,0.141,0.038-0.021-0.036
					C3.882,10.099,3.87,10.105,3.864,10.108c-0.055-0.02,0.023-0.002,0.01-0.015l-0.148-0.015
					C3.77,10.095,3.817,10.104,3.864,10.108C3.835,10.133,3.794,10.098,3.864,10.108z"/>
				<path class="st1" d="M4.411,10.337c-0.006-0.004-0.006-0.006-0.006-0.009C4.395,10.331,4.392,10.333,4.411,10.337z"/>
				<path class="st1" d="M4.351,10.312c0.061-0.016,0.055-0.003,0.055,0.017c0.117-0.029-0.191-0.08-0.123-0.099
					C4.296,10.256,4.315,10.283,4.351,10.312C4.36,10.309,4.311,10.279,4.351,10.312z"/>
				<path class="st1" d="M4.001,10.213c-0.035-0.002-0.084-0.006-0.125-0.011c0.014,0.014,0.037,0.03,0.059,0.041
					C3.962,10.23,3.981,10.235,4.001,10.213z"/>
				<path class="st1" d="M3.538,10.017c0.008-0.009,0.018-0.018,0.025-0.026l-0.08,0.023L3.538,10.017z"/>
				<path class="st1" d="M3.384,9.971c0.008-0.006,0.008-0.016,0.014-0.024C3.329,9.941,3.378,9.956,3.384,9.971z"/>
				<path class="st1" d="M2.786,9.73C2.817,9.74,2.792,9.727,2.786,9.73L2.786,9.73z"/>
				<path class="st1" d="M2.825,9.761c-0.01-0.008-0.022-0.016-0.033-0.025C2.796,9.741,2.808,9.749,2.825,9.761z"/>
				<path class="st1" d="M2.827,9.745c0.01,0.007,0.02,0.01,0.025,0.013C2.858,9.757,2.856,9.752,2.827,9.745z"/>
				<path class="st1" d="M2.741,9.71c0.016,0.01,0.033,0.018,0.051,0.025C2.786,9.725,2.77,9.718,2.741,9.71
					C2.759,9.72,2.763,9.72,2.741,9.71z"/>
				<g>
					<path class="st1" d="M3.081,9.939c-0.068-0.005-0.043,0.002,0,0.043c0.047,0.044-0.029,0.01-0.102-0.025
						C3.057,9.873,2.592,9.793,2.651,9.87C2.669,9.878,2.69,9.884,2.706,9.89c0.062,0.098-0.229-0.089-0.262-0.112
						C2.403,9.757,2.335,9.719,2.27,9.682C2.208,9.64,2.153,9.595,2.137,9.564C2.164,9.6,2.229,9.628,2.258,9.636
						c-0.02-0.021-0.035-0.045-0.061-0.064c0.082,0.059,0.142,0.16,0.195,0.121c0.025-0.021,0.084-0.062-0.049-0.131
						c0,0-0.314-0.101-0.299-0.12C2.075,9.408,1.989,9.38,1.903,9.344C1.819,9.31,1.717,9.285,1.698,9.305
						c0.047,0.028,0.184,0.102,0.174,0.152c-0.055-0.029-0.154-0.11-0.18-0.094C1.686,9.339,1.848,9.378,1.67,9.302
						c0.066,0.012-0.023-0.085-0.119-0.188C1.467,9,1.387,8.872,1.422,8.862c-0.07-0.066-0.191-0.11-0.199-0.064
						C1.176,8.744,1.17,8.696,1.127,8.639c0.008,0.023,0.01,0.042,0.01,0.056C1.108,8.659,1.102,8.619,1.073,8.627
						C1.034,8.572,1.059,8.523,1.02,8.458C0.952,8.343,0.868,8.38,0.875,8.396C0.84,8.333,0.885,8.292,0.838,8.203
						C0.811,8.155,0.756,8.121,0.742,8.055c0.129,0.137-0.02-0.095-0.023-0.094C0.754,7.963,0.875,8.01,0.758,7.845
						C0.697,7.754,0.621,7.688,0.584,7.71c0.041,0.07,0.082,0.142,0.133,0.213C0.682,7.945,0.61,7.775,0.575,7.8L0.513,7.582
						c0.051,0.124,0.051,0.056,0.043,0C0.544,7.482,0.603,7.59,0.63,7.571C0.601,7.517,0.507,7.439,0.542,7.388
						c0.019-0.026,0.057-0.033,0.094-0.01c-0.053-0.18-0.158-0.107-0.201-0.295c0,0.022-0.004,0.044,0,0.065
						C0.425,7.131,0.386,6.97,0.38,6.985C0.39,6.95,0.425,6.889,0.458,6.934C0.415,6.893,0.384,6.849,0.345,6.806
						c0.029,0.045,0.062-0.018,0.09-0.005c-0.014-0.067-0.1-0.087-0.101-0.043c0.012-0.073,0.018-0.142,0.037-0.2
						c-0.018-0.043-0.07,0.015-0.072,0.044C0.274,6.548,0.26,6.5,0.26,6.44c0.082,0.185,0.047-0.105,0.025-0.209
						c-0.041-0.161-0.08-0.323-0.078-0.5C0.209,5.782,0.238,5.71,0.228,5.639c0.037-0.102-0.092-0.142-0.041-0.247
						C0.183,5.483,0.205,5.511,0.23,5.504C0.201,5.403,0.226,5.239,0.16,5.275C0.176,5.219,0.176,5.176,0.205,5.18L0.174,4.979
						c0.01,0.024,0.027,0.018,0.035-0.028C0.195,5.043,0.25,5.177,0.203,5.23c0.035,0.002,0.072-0.032,0.104,0.019
						c-0.008-0.19-0.062-0.306-0.1-0.425c-0.023-0.08,0.012-0.143,0.041-0.237l-0.02-0.013L0.283,4.55
						C0.279,4.539,0.252,4.46,0.289,4.517c0.004-0.118,0.045-0.012,0.068,0.026C0.269,4.662,0.4,4.653,0.382,4.582
						c0.01,0.027,0.021,0.036,0.037,0.026c0-0.046-0.004-0.096-0.004-0.145c-0.084,0.134-0.051-0.19-0.133-0.064
						C0.36,4.295,0.303,4.145,0.311,4.018c0.014,0.015,0.027,0.019,0.045,0.015c-0.02-0.089,0.057-0.179,0.09-0.243
						c0.041-0.071-0.02-0.12-0.016-0.16c0.004,0.009,0.01,0.008,0.02-0.004C0.444,3.603,0.446,3.567,0.44,3.548
						c0.041-0.042,0.023,0.118,0.057-0.095c0.01-0.079,0.041-0.151,0.086-0.226C0.636,3.089,0.521,3.23,0.538,3.17
						C0.554,3.114,0.61,3.127,0.636,3.096c0.047-0.052,0.029-0.09,0.031-0.14c0.006,0.026,0.086-0.079,0.09-0.086
						c0.059-0.084,0.084-0.159,0.135-0.243C0.906,2.6,0.982,2.472,0.97,2.485C0.993,2.459,1.015,2.482,1.032,2.46
						C0.989,2.518,0.967,2.594,1.009,2.575c0.01-0.029,0.031-0.066,0.035-0.094C1.064,2.478,1.019,2.533,1.056,2.5
						c0.012-0.041,0.021-0.085,0.021-0.12c0.024-0.031,0.076-0.101,0.109-0.144c-0.018,0.021,0.029,0.003,0.062-0.09
						C1.23,2.195,1.352,2.091,1.363,2.016c0.002-0.028-0.008-0.075,0.061-0.109L1.403,1.935C1.419,1.93,1.44,1.914,1.46,1.906
						C1.433,1.874,1.491,1.803,1.55,1.731C1.612,1.665,1.677,1.6,1.651,1.565C1.737,1.537,1.649,1.624,1.62,1.687
						c0.025-0.013,0.059-0.024,0.088-0.042C1.679,1.669,1.653,1.697,1.63,1.722c0.111-0.05,0.164-0.161,0.201-0.232
						c0.045-0.02,0.053,0.08,0.15-0.059C2.018,1.376,1.885,1.425,1.95,1.362l0.096-0.011C2.11,1.256,2.37,1.142,2.384,1.1
						C2.472,1.059,2.54,0.98,2.607,0.931c0.072-0.054,0.127-0.052,0.16-0.039c0.025-0.01,0.117-0.097,0.143-0.108
						C2.842,0.828,2.861,0.859,2.861,0.885c0.031-0.021,0.062-0.045,0.098-0.07C2.934,0.838,2.934,0.849,2.957,0.851
						C2.994,0.827,3.17,0.713,3.059,0.749c0.146-0.061,0.188-0.097,0.18-0.034c-0.062-0.009-0.086,0.036-0.102,0.06
						c0.103-0.047,0.039-0.006,0.096-0.01c0.084-0.037,0.105-0.08,0.076-0.097c0.1-0.019,0.148-0.029,0.227-0.077
						c-0.012,0.015,0,0.028-0.01,0.043C3.557,0.62,3.583,0.61,3.616,0.595L3.554,0.663C3.662,0.646,3.636,0.621,3.663,0.59
						c0.039-0.048,0.135-0.025,0.115,0.003c0.049-0.018,0.094-0.085,0.154-0.059C3.989,0.509,3.86,0.508,3.915,0.487
						c0.07-0.026,0.141-0.002,0.213-0.005c0.049-0.017-0.037-0.04-0.084-0.021c0.221-0.045,0.205,0.09,0.412,0.033
						c-0.088-0.019,0.051-0.07-0.129-0.057c0.1-0.024,0.184,0.03,0.281-0.001L4.545,0.477C4.582,0.475,4.611,0.469,4.637,0.46
						c-0.006,0.011,0,0.023-0.008,0.033c0.096-0.045,0.232,0.021,0.295-0.04c-0.022,0.01-0.022,0.019,0,0.026
						c0.039,0,0.102-0.016,0.135,0.008c-0.068,0.015-0.162-0.003-0.25,0.009c-0.111,0.016-0.041,0.023,0.018,0.03
						C4.835,0.523,4.843,0.52,4.843,0.515c0.006,0.003,0.002,0.008-0.002,0.012C4.866,0.53,4.888,0.53,4.892,0.533
						C4.857,0.541,4.828,0.551,4.806,0.564C4.812,0.566,4.82,0.568,4.827,0.569c0.014-0.003,0.033-0.009,0.07-0.02
						c-0.02,0.012-0.018,0.019,0,0.027c0.086-0.007,0.148-0.028,0.232-0.033l-0.16-0.008c0.037-0.108,0.547,0.059,0.719,0.096
						c0.1,0.01,0.186,0.032,0.277,0.082C5.957,0.707,5.951,0.731,5.944,0.751c0.125,0.041,0.16-0.042,0.144-0.048
						c0.061,0.023,0.061,0.071,0.129,0.106c0.031,0.002,0.068,0.007,0.135,0.023c-0.012-0.001-0.016,0-0.02,0.002
						c0.031,0.005,0.062,0.011,0.092,0.032c-0.049-0.007-0.068-0.005-0.07,0L6.36,0.872c0.019,0.014,0.141,0.053,0.141,0.053
						C6.495,0.928,6.487,0.934,6.48,0.939C6.488,0.94,6.498,0.944,6.507,0.945C6.558,0.973,6.62,1.021,6.689,1.063
						c0.041-0.001,0.07-0.011,0.076-0.03L6.529,0.952C6.539,0.913,6.703,1,6.717,0.959l0.184,0.126
						C6.784,1.022,6.831,1.074,6.87,1.112C6.888,1.13,6.893,1.138,6.895,1.144c0.084,0.041,0.201,0.092,0.33,0.171
						C7.36,1.389,7.463,1.474,7.506,1.507C7.49,1.49,7.475,1.473,7.457,1.454c0.045,0.041,0.152,0.09,0.184,0.153
						c-0.074-0.059-0.068,0.001-0.01,0.066C7.639,1.67,7.658,1.677,7.666,1.671L7.67,1.704c0.019,0.019,0.027,0.022,0.031,0.019
						C7.699,1.72,7.699,1.715,7.697,1.715l0.008,0.003c0.004-0.011,0-0.033,0.039,0.004c-0.002,0.011,0.004,0.02,0.006,0.03
						c0.025,0.024,0.047,0.051,0.068,0.081c-0.02-0.01-0.027-0.017-0.037-0.021C7.847,1.9,7.972,2.021,8,2.105l0.023,0.023
						c0.012-0.023-0.102-0.129-0.041-0.115C7.99,2.04,8.005,2.071,8.031,2.107C8.029,2.088,8.043,2.086,8.043,2.069l0.086,0.122
						l0.043,0.062c0.016,0.023,0.027,0.041,0.027,0.041c0.066,0.088,0.148,0.162,0.209,0.258c0.033,0.02,0.068,0.047,0.074,0.106
						C8.457,2.611,8.437,2.585,8.417,2.574l0.008,0.012c-0.006,0.041,0.059,0.128,0.103,0.15C8.526,2.749,8.511,2.737,8.501,2.732
						C8.526,2.765,8.54,2.785,8.562,2.757C8.568,2.816,8.583,2.852,8.56,2.863l0.002,0.01l0.104,0.168
						c-0.018-0.018-0.033-0.007-0.024,0.04c-0.008-0.045-0.037-0.094-0.066-0.14c0.01,0.054,0.008,0.106,0.022,0.144
						C8.629,3.121,8.66,3.157,8.692,3.193c0.051,0.063,0.053,0.125,0.07,0.22l0.021-0.001L8.748,3.46
						c0.006,0.007,0.064,0.062,0.01,0.031C8.813,3.59,8.721,3.528,8.684,3.505C8.705,3.36,8.594,3.427,8.645,3.48
						C8.624,3.462,8.608,3.461,8.598,3.477l0.074,0.124c0-0.156,0.149,0.133,0.149-0.017c-0.004,0.128,0.121,0.22,0.195,0.32
						C8.998,3.899,8.983,3.903,8.971,3.917c0.068,0.061,0.061,0.18,0.074,0.25C9.061,4.243,9.133,4.255,9.154,4.29
						C9.146,4.284,9.14,4.288,9.14,4.305c0.016,0.016,0.037,0.049,0.055,0.061c-0.01,0.061-0.088-0.09,0.006,0.116
						c0.041,0.076,0.051,0.149,0.051,0.235c0.025,0.144,0.051-0.036,0.066,0.022c0.016,0.055-0.039,0.075-0.045,0.114
						C9.259,4.921,9.3,4.943,9.326,4.984C9.307,4.969,9.305,5.099,9.303,5.106c-0.004,0.103,0.01,0.178,0.02,0.275
						C9.325,5.411,9.341,5.56,9.344,5.54C9.338,5.576,9.307,5.567,9.307,5.599C9.309,5.526,9.278,5.451,9.256,5.49
						c0.012,0.028,0.016,0.071,0.027,0.099C9.269,5.602,9.273,5.53,9.262,5.577C9.276,5.619,9.289,5.66,9.307,5.689
						C9.303,5.724,9.305,5.811,9.305,5.867C9.307,5.842,9.28,5.882,9.309,5.975c-0.016-0.051-0.055,0.104-0.016,0.17
						c0.016,0.024,0.051,0.058,0.014,0.126V6.233c-0.01,0.015-0.018,0.039-0.029,0.059c0.084,0.021-0.014,0.359,0.059,0.384
						C9.284,6.75,9.31,6.63,9.286,6.561C9.274,6.587,9.257,6.626,9.247,6.648c0.01-0.036,0.01-0.073,0.01-0.108
						C9.21,6.648,9.22,6.767,9.236,6.845C9.213,6.89,9.144,6.815,9.158,6.986c0.006,0.066,0.076-0.055,0.066,0.037
						C9.201,7.045,9.181,7.07,9.156,7.089C9.15,7.202,9.019,7.453,9.035,7.496C8.986,7.582,8.969,7.685,8.947,7.765
						c-0.029,0.088-0.074,0.12-0.108,0.131C8.831,7.919,8.784,8.04,8.771,8.067c0.037-0.076,0.006-0.091-0.008-0.112
						c-0.02,0.038-0.035,0.077-0.051,0.113c0.012-0.034,0.004-0.045-0.018-0.033C8.678,8.077,8.585,8.272,8.659,8.18
						C8.565,8.315,8.548,8.368,8.524,8.309C8.581,8.282,8.581,8.23,8.581,8.201C8.515,8.3,8.552,8.226,8.503,8.262
						C8.452,8.335,8.472,8.379,8.499,8.379c-0.057,0.068-0.08,0.087-0.107,0.178C8.388,8.538,8.372,8.538,8.368,8.52
						C8.352,8.551,8.341,8.577,8.327,8.61l0.002-0.092C8.257,8.602,8.292,8.604,8.292,8.644c0,0.064-0.078,0.116-0.086,0.077
						C8.181,8.767,8.194,8.847,8.13,8.867C8.106,8.924,8.202,8.839,8.177,8.888C8.142,8.955,8.073,8.983,8.021,9.032
						C7.997,9.081,8.074,9.036,8.099,8.994c-0.133,0.18-0.215,0.073-0.322,0.254C7.851,9.202,7.787,9.335,7.906,9.2
						C7.857,9.29,7.75,9.3,7.701,9.391l0.017-0.076c-0.025,0.03-0.043,0.057-0.055,0.08c0-0.013-0.016-0.017-0.016-0.03
						c-0.039,0.1-0.182,0.15-0.191,0.23c0.01-0.021,0.004-0.027-0.019-0.019C7.406,9.597,7.372,9.655,7.333,9.661
						C7.37,9.598,7.458,9.554,7.515,9.488c0.107-0.135-0.072,0.028-0.088,0.025C7.45,9.484,7.468,9.458,7.474,9.434
						C7.339,9.5,7.322,9.589,7.245,9.669l0.121-0.107c0.051,0.109-0.449,0.329-0.602,0.405c-0.084,0.06-0.16,0.1-0.262,0.124
						c0.014-0.003-0.029-0.061-0.012-0.075c-0.076,0.038-0.09,0.06-0.123,0.097c-0.008-0.007-0.029-0.006-0.039-0.013
						c-0.066,0.067-0.066,0.09-0.191,0.157c0.059-0.041-0.09-0.008-0.045-0.044c-0.059,0.02-0.103,0.044-0.137,0.072
						c-0.041,0.014-0.096,0.023-0.156,0.037c-0.029,0.009-0.059,0.017-0.088,0.024l-0.01,0.004l-0.008,0.002l-0.002,0.001
						l-0.006,0.001l-0.008,0.002l-0.014,0.001l-0.1-0.064l0.033-0.124l0.016-0.008l0.006-0.005l0.004-0.002
						c0.004-0.001,0.002,0,0.002,0l0.021-0.009c0.014-0.004,0.025-0.013,0.041-0.018c-0.012-0.013,0.02-0.03,0.076-0.057
						c0.029-0.013,0.065-0.025,0.1-0.041l0.016-0.006l0.006-0.003l0.006-0.001l0.008-0.002l0.01-0.003
						c0.014,0.003-0.004-0.012,0.076,0.006c0.223,0.178-0.025,0.324,0.031,0.273l-0.018,0.008l-0.01,0.004l-0.033,0.012L5.89,10.338
						c-0.172,0.068-0.408,0.105-0.531,0.069c0.031,0.011,0.07,0.025,0.1,0.026c-0.037,0-0.119-0.015-0.16-0.027
						s-0.078-0.026-0.086-0.037c0.022-0.001,0.047-0.001,0.039-0.017c-0.002-0.015-0.029-0.037-0.043-0.04
						c-0.004,0.004-0.008,0.023-0.006,0.016c0-0.019,0.012-0.02,0.01-0.033c0.002-0.045-0.012-0.002-0.012-0.008
						c0,0.004,0,0,0.002-0.004c0.002-0.002,0.004-0.005,0.002-0.002l-0.006,0.012l-0.004,0.009l-0.004,0.007H5.189l0,0l0,0
						L5.25,10.33l0,0l0,0v0.002c-0.014-0.012-0.033-0.006-0.039-0.003c-0.004-0.002-0.012,0.009,0.008,0.037
						c0.039,0.058,0.127,0.133,0.131,0.193c0.074,0.008-0.111-0.14-0.035-0.122c0.01,0.029,0.025,0.052,0.057,0.095
						c-0.004-0.019,0.012-0.024,0.01-0.042c0.035,0.037,0.068,0.095,0.096,0.156l0.02,0.086c0.004,0.034,0.006,0.068-0.002,0.104
						c-0.008,0.089-0.092,0.171-0.16,0.186c-0.129,0.032-0.215,0.013-0.309,0.006c-0.025-0.029-0.162-0.042-0.23-0.026
						c-0.014-0.019,0.076-0.011,0.039-0.031c-0.121,0.018-0.252-0.017-0.322-0.046c0.047-0.086,0.113-0.16,0.1-0.196
						c0.037-0.005,0.103-0.066,0.154-0.101c0.055-0.036,0.094-0.046,0.113-0.017l0.01-0.041c0.039,0.018-0.057,0.126-0.01,0.128
						c-0.016,0.018-0.047,0.047-0.041,0.059c0.002,0.01,0.008,0.021,0.018,0.032c0.01-0.008,0.061-0.03,0.051-0.038
						c0.035,0.004,0.045-0.003,0.043-0.022c-0.031,0.057,0.459,0.146,0.287,0.015l-0.014-0.022
						c-0.027-0.038-0.084-0.085-0.143-0.145C5.055,10.551,5.023,10.508,5,10.462c-0.014-0.028-0.025-0.057-0.033-0.085
						c-0.002-0.033,0.002-0.071,0.006-0.104c0.006-0.037,0.033-0.065,0.055-0.099l0.018-0.022l0.002-0.001l0.017-0.019h0.002
						l0.004-0.002l0.006-0.005c0.016-0.008,0.012-0.01,0.045-0.024c0.057-0.02,0.09-0.016,0.1-0.02
						c0.012-0.004,0.014-0.011-0.012-0.023c0.125,0.058,0.111,0.003,0.182,0.016c0.033,0.037,0.049,0.066,0.072,0.09
						c0.037-0.018,0.008-0.031,0.016-0.049c0.07-0.004,0.178-0.012,0.281-0.033c0.027-0.009,0.057-0.015,0.082-0.021l0.039-0.012
						l0.017-0.005h0.002l0,0l0.033,0.098L5.91,10.073c-0.014-0.037-0.01-0.028-0.01-0.028l0,0H5.898l-0.004,0.002l-0.012,0.006
						c-0.004,0.002-0.008,0.003-0.023,0.015c-0.025-0.051-0.08,0.194,0.041,0.21c0.076,0.015,0.051,0.002,0.062,0.005
						c0.02-0.006,0.006-0.001,0.008-0.002l-0.012,0.003c-0.051,0.016-0.102,0.037-0.146,0.062c-0.047-0.001-0.01-0.051-0.082-0.035
						c0.031,0.006,0.031,0.016,0.017,0.026c-0.008,0.007-0.016,0.012-0.029,0.018l-0.017,0.009c-0.002,0-0.006,0.002,0,0
						l0.014-0.002c0.004-0.005,0.002-0.001,0.024-0.018l0.008-0.181l-0.088-0.034c-0.027,0.003-0.021,0.005-0.025,0.005H5.63
						c-0.002,0,0,0,0,0l0.012-0.004c0.057-0.026,0.121-0.051,0.084-0.06c0.084,0.036,0.281-0.061,0.277,0.024
						c0.076-0.022,0.082-0.066,0.033-0.064c0.088-0.027,0.244-0.111,0.287-0.128c0.051-0.015,0.113-0.044,0.164-0.065
						C6.606,9.786,6.786,9.683,6.87,9.695c-0.082-0.006,0.108-0.106-0.031-0.08C6.933,9.56,6.97,9.525,7.021,9.532
						c0.068,0.015,0.143-0.116,0.127-0.127l0.049-0.043C7.172,9.38,7.136,9.468,7.222,9.418c-0.004-0.013,0.041-0.109,0.09-0.111
						c-0.09,0.062-0.008,0.076,0.08-0.017l-0.06-0.012c0.035-0.032,0.113-0.1,0.207-0.185c0.09-0.091,0.199-0.198,0.297-0.306
						C8.041,8.57,8.191,8.363,8.221,8.402c-0.059,0.08,0.039,0.024,0.08-0.049C8.231,8.412,8.326,8.2,8.207,8.352
						c0.02-0.044,0.051-0.103,0.062-0.143C8.253,8.176,8.271,8.105,8.328,8.03C8.379,7.964,8.437,7.913,8.49,7.848
						c0.06-0.064,0.057-0.133,0.076-0.106c0.02-0.104,0.213-0.367,0.197-0.409c0.012,0.005,0.029-0.012,0.039-0.004
						c0-0.07-0.006-0.148,0.027-0.243c0.018-0.04,0.033-0.078,0.049-0.12c0.008,0.017,0.016,0.016,0.025,0
						c-0.018-0.058-0.027-0.12,0.002-0.227c0.021-0.012,0.037-0.116,0.043-0.192c0.094,0.015-0.01-0.359,0.101-0.404
						C9.028,6.103,8.996,5.912,9.02,5.869c-0.045-0.072,0.074-0.457-0.029-0.32c0.033-0.091-0.025-0.225-0.043-0.302
						c-0.029-0.11,0.045-0.088,0.059-0.104c-0.014-0.107-0.09,0.013-0.066-0.138c0.033,0.091,0.108-0.19,0.096-0.209L9.025,4.84
						C8.99,4.739,9.07,4.466,8.968,4.568C8.964,4.51,8.935,4.341,8.925,4.295C8.923,4.278,8.827,4.016,8.849,4.166
						C8.835,4.13,8.732,3.894,8.728,3.879C8.687,3.892,8.611,3.676,8.589,3.6C8.626,3.681,8.63,3.632,8.636,3.603
						c-0.043-0.026-0.07-0.066-0.072-0.147C8.527,3.464,8.453,3.492,8.39,3.335c0.012,0.026,0.027,0.038,0.037,0.031
						C8.423,3.342,8.415,3.323,8.402,3.312c0.016,0.003,0.029,0.004,0.045,0.002C8.377,3.25,8.384,3.133,8.332,3.032
						c0.025,0.031,0.029-0.008,0.039-0.025c-0.025,0.006-0.029-0.03-0.033-0.066C8.332,2.945,8.332,2.949,8.334,2.958
						C8.311,2.901,8.299,2.896,8.299,2.943C8.295,2.858,8.252,2.78,8.233,2.706c-0.006-0.047-0.01-0.131-0.062-0.173
						c-0.043-0.038-0.055,0.026-0.105-0.01c-0.02-0.014-0.023-0.018-0.045-0.045c-0.035-0.037-0.031-0.04-0.045-0.06
						C7.96,2.385,7.947,2.351,7.927,2.32C7.888,2.265,7.874,2.265,7.833,2.226C7.776,2.171,7.728,2.108,7.669,2.048
						C7.642,2.027,7.612,2.009,7.583,1.994c0.023,0.007,0.033,0.007,0.043,0.002l-0.02-0.023c-0.018-0.019-0.039-0.048-0.06-0.074
						L7.505,1.887c0.006-0.003,0.008-0.015,0.008-0.024C7.49,1.839,7.472,1.827,7.474,1.861C7.443,1.775,7.408,1.827,7.365,1.797
						L7.332,1.719L7.277,1.69c0,0.005-0.002,0.012-0.006,0.015L7.218,1.663c-0.006,0-0.012-0.002-0.017-0.001
						c0-0.006-0.002-0.012-0.004-0.016c-0.043-0.027-0.088-0.06-0.129-0.093C7.029,1.564,6.994,1.592,7,1.524
						C6.914,1.497,6.873,1.455,6.918,1.515C6.863,1.447,6.617,1.296,6.523,1.237c-0.035-0.024-0.039-0.059-0.09-0.081
						C6.331,1.111,6.331,1.165,6.232,1.127c-0.103-0.04-0.047-0.09-0.256-0.118c0.006-0.022-0.017-0.063-0.084-0.095
						C5.847,0.943,5.746,0.909,5.685,0.867C5.632,0.869,5.58,0.904,5.525,0.899C5.429,0.887,5.312,0.812,5.279,0.787
						C5.275,0.855,5.123,0.834,4.998,0.811C4.932,0.794,4.883,0.782,4.81,0.775C4.695,0.772,4.593,0.783,4.476,0.793
						c0.02-0.001-0.184,0.027-0.142,0.016C4.266,0.83,4.213,0.845,4.123,0.849c-0.066,0.004-0.09-0.002-0.164,0.016
						c0.09-0.032,0.006-0.042-0.02-0.062L3.914,0.806C3.9,0.816,3.883,0.824,3.875,0.833c-0.016-0.005,0-0.018,0-0.024L3.838,0.813
						C3.76,0.839,3.592,0.907,3.719,0.911C3.694,0.915,3.655,0.946,3.662,0.96c-0.068-0.014-0.17,0.013-0.225-0.012
						C3.535,0.975,3.249,1.024,3.32,1.06C3.293,1.053,3.265,1.059,3.242,1.057C3.177,1.076,3.107,1.094,3.043,1.112
						C2.961,1.146,2.924,1.197,2.922,1.166c-0.043,0.035-0.141,0.08-0.23,0.119C2.606,1.332,2.526,1.372,2.518,1.388
						C2.512,1.377,2.489,1.379,2.485,1.366c-0.043,0.055-0.09,0.115-0.172,0.176c-0.035,0.025-0.072,0.05-0.107,0.069
						c0.006-0.015,0-0.019-0.02-0.014C2.163,1.655,2.127,1.7,2.042,1.772c-0.025-0.005-0.094,0.076-0.15,0.129
						C1.824,1.828,1.683,2.189,1.57,2.161C1.564,2.206,1.474,2.376,1.431,2.397C1.423,2.48,1.117,2.729,1.275,2.677
						C1.197,2.732,1.16,2.867,1.14,2.943C1.105,3.054,1.056,2.994,1.036,3C0.989,3.099,1.12,3.041,1.015,3.149
						C1.036,3.056,0.816,3.246,0.818,3.27l0.037-0.03c-0.021,0.104-0.24,0.291-0.098,0.262c-0.031,0.05-0.104,0.209-0.123,0.254
						C0.622,3.77,0.544,4.035,0.616,3.905c-0.008,0.039-0.072,0.291-0.078,0.3c0.045,0.016-0.02,0.231-0.037,0.304
						C0.511,4.424,0.48,4.46,0.46,4.479c0.02,0.045,0.029,0.092-0.006,0.16c0.035,0.013,0.113,0.021,0.1,0.178
						c-0.004-0.03-0.01-0.045-0.021-0.044c-0.008,0.022-0.01,0.043-0.002,0.058C0.519,4.822,0.507,4.815,0.494,4.81
						c0.033,0.088-0.006,0.184,0,0.303C0.48,5.07,0.465,5.107,0.447,5.119c0.057,0.013-0.059,0.182,0.02,0.136
						C0.432,5.437,0.444,5.654,0.453,5.853c0,0.066,0.006,0.149-0.006,0.192C0.426,6.074,0.476,6.157,0.482,6.193
						c-0.01-0.007-0.02,0-0.029-0.006C0.494,6.26,0.515,6.356,0.56,6.43C0.519,6.38,0.503,6.406,0.494,6.471l0.08,0.091
						c-0.016,0.001-0.025,0.025-0.037,0.03c0.022,0.04,0.031,0.086,0.033,0.137C0.564,6.712,0.558,6.712,0.554,6.723
						C0.611,6.73,0.64,6.91,0.695,6.937c-0.033,0.05,0.041,0.129,0.008,0.167C0.736,7.14,0.822,7.139,0.758,7.19
						c0.039,0.076,0.039,0.132,0.049,0.06c0.002,0.077,0.016,0.176,0.064,0.278C0.924,7.65,1.014,7.755,1.014,7.875
						C1.012,7.848,1.002,7.826,0.985,7.813C1.047,7.948,1.083,8.068,1.13,8.185c0.055,0.114,0.115,0.228,0.211,0.348
						C1.4,8.619,1.489,8.683,1.554,8.775c0.064,0.074,0.1,0.169,0.178,0.23c0.094,0.079,0.111,0.134,0.207,0.219
						c0.062,0.064,0.152,0.097,0.229,0.152c-0.016-0.009,0.158,0.097,0.121,0.08c0.065,0.03,0.117,0.041,0.193,0.096
						c0.053,0.04,0.068,0.06,0.137,0.092c-0.102-0.034-0.016,0.047-0.02,0.07c0.02,0.002,0.051,0.01,0.068,0.008
						c0.012,0.019-0.045,0.009-0.01,0.033C2.719,9.77,2.942,9.853,2.835,9.76c0.023,0.015,0.076,0.014,0.08-0.002
						C2.958,9.812,3.05,9.855,3.079,9.909C3.02,9.825,3.272,9.977,3.241,9.902c0.023,0.029,0.057,0.042,0.072,0.069
						C3.226,9.935,3.134,9.946,3.081,9.939z"/>
				</g>
				<path class="st1" d="M3.114,9.852C3.09,9.845,3.067,9.838,3.046,9.831C3.07,9.843,3.087,9.855,3.101,9.869
					C3.095,9.855,3.099,9.851,3.114,9.852z"/>
				<path class="st1" d="M3.679,10.239c0.021-0.002,0.051,0.007,0.037-0.013C3.688,10.222,3.622,10.219,3.679,10.239
					C3.69,10.238,3.632,10.222,3.679,10.239z"/>
				<path class="st1" d="M3.138,9.982c-0.002,0.028,0.047,0.034,0.1,0.046C3.192,10.016,3.27,9.994,3.138,9.982
					C3.134,10.012,3.198,9.987,3.138,9.982z"/>
				<path class="st1" d="M3.249,10.03c0.016,0.003,0.031,0.008,0.047,0.015C3.308,10.03,3.276,10.034,3.249,10.03z"/>
				<path class="st1" d="M2.673,9.699c0.02,0.018,0.031-0.027,0.039-0.01C2.753,9.67,2.548,9.65,2.673,9.699z"/>
				<path class="st1" d="M3.148,10.084c0.002-0.011-0.002-0.025-0.004-0.039C3.103,10.051,3.095,10.063,3.148,10.084z"/>
				<path class="st1" d="M2.765,9.901c0.07,0.037,0.045,0.026,0.101,0.04C2.86,9.938,2.767,9.889,2.765,9.901z"/>
				<path class="st1" d="M2.866,9.941c0.025,0.011,0.049,0.021,0.065,0.021C2.917,9.957,2.89,9.945,2.866,9.941z"/>
				<path class="st1" d="M3.034,10.056c-0.027-0.017-0.037-0.029-0.076-0.045L3.034,10.056z"/>
			</g>
		</g>
	</g>
	<g>
		<path class="st2" d="M8.419,5.106l0.113-0.048c0.191,0.033,0.129,0.075,0.289,0.024c-0.4,0.024-0.053-0.154-0.457-0.121
			l0.082-0.034C8.444,4.935,8.465,4.934,8.465,4.942C8.649,4.869,8.17,4.936,8.219,4.868c0.029-0.024,0.086-0.048,0.135-0.04
			L8.249,4.794C8.257,4.78,8.327,4.773,8.321,4.788L8.276,4.719l0.012-0.001C8.224,4.717,8.124,4.706,8.081,4.702
			c0.055-0.026,0.043,0.002,0.092-0.011L8.07,4.667C8.171,4.634,8.277,4.65,8.267,4.682C8.658,4.579,8.16,4.665,8.378,4.54
			l0.059,0.031C8.658,4.506,8.57,4.488,8.701,4.414C8.631,4.44,8.363,4.572,8.258,4.546c0.027-0.018,0.039-0.038-0.045-0.049
			c0.141-0.026,0.1-0.044,0.086-0.072l0.188-0.037c-0.061-0.022-0.154,0-0.242,0.001c0.01-0.041,0.148-0.082,0.268-0.12
			c0.017-0.066-0.221,0.097-0.27,0.035C8.304,4.238,8.218,4.22,8.091,4.193c0.053-0.05,0.113-0.025,0.162-0.053L8.099,4.152
			c0-0.007,0.047-0.019,0.07-0.023C8.105,4.12,7.985,4.181,7.925,4.159c-0.203,0.055,0.27-0.176,0.02-0.152
			c0.045-0.031,0.111-0.033,0.18-0.063C7.947,3.923,7.99,3.918,7.775,3.945l0.092-0.098c-0.113,0.094-0.285,0.12-0.424,0.154
			C7.386,4.042,7.335,4.078,7.312,4.093c0,0-0.107,0.005-0.109,0.006c0.024-0.021,0.084-0.046,0.158-0.077
			C7.343,4.029,7.33,4.032,7.316,4.038C7.369,3.987,7.468,3.941,7.57,3.906C7.541,3.929,7.507,3.953,7.476,3.977
			c0.107-0.041,0.229-0.083,0.326-0.135c-0.02,0.006-0.041,0.005-0.055,0.002c0.029-0.01,0.057-0.021,0.072-0.031
			c0.018-0.01-0.023,0.003-0.07,0.014l0.18-0.113L7.851,3.752l0.068-0.146C7.696,3.655,7.411,3.782,7.294,3.77
			c0.139-0.075,0.209-0.145,0.355-0.255C7.508,3.649,7.76,3.531,7.758,3.6C7.76,3.566,7.836,3.522,7.865,3.512
			c0,0-0.049,0.004-0.1,0.006c-0.049,0.007-0.1,0.013-0.1,0.013c0.125-0.087,0.08-0.083,0.113-0.14
			C7.553,3.583,7.579,3.457,7.483,3.488c0.076-0.066,0.16-0.125,0.172-0.072C7.792,3.232,7.343,3.59,7.458,3.431
			c0.01,0.007,0.002,0.021,0.045-0.012C7.417,3.461,7.431,3.368,7.505,3.318l0.008,0.008c-0.019-0.084-0.16-0.158-0.334,0.023
			C7.2,3.323,7.39,3.129,7.427,3.094c0,0-0.168,0.135-0.328,0.275c-0.16,0.142-0.311,0.288-0.311,0.288
			C6.935,3.5,7.228,3.071,7.354,3.016c0.008-0.035,0.012-0.078-0.066-0.041c-0.01,0.031-0.174,0.264-0.197,0.269
			C7.208,3.03,7.15,3.127,7.232,2.931c-0.016,0.048-0.234,0.307-0.25,0.283C7.017,3.176,7.181,2.945,7.21,2.922
			c0,0-0.062,0.056-0.127,0.113C7.022,3.095,6.96,3.151,6.96,3.151c0.047-0.038,0.168-0.226,0.209-0.314
			C7.136,2.896,7.122,2.795,7.087,2.811L7.07,2.895C7.033,2.806,6.752,3.247,6.707,3.201c0.043-0.056,0.24-0.352,0.23-0.407
			C6.83,2.93,6.455,3.465,6.355,3.559l0.039-0.091L6.306,3.551c0.139-0.223,0.465-0.657,0.619-0.812
			c0.014-0.081,0.051-0.104,0.008-0.118c0.033-0.088,0.09-0.108,0.105-0.106L6.974,2.41C6.88,2.585,6.808,2.548,6.736,2.698
			c0,0,0.047-0.034,0.096-0.068c0.049-0.03,0.1-0.062,0.1-0.062C6.836,2.743,6.606,3.032,6.567,2.977
			C6.59,2.899,6.741,2.665,6.77,2.607C6.731,2.663,6.653,2.695,6.668,2.649l0.074-0.083C6.738,2.48,6.57,2.777,6.609,2.585
			C6.603,2.567,6.671,2.33,6.621,2.435C6.555,2.655,6.26,3.297,6.182,3.449c0.002-0.018,0.029-0.227,0.057-0.335
			c0.047-0.175,0.199-0.379,0.242-0.528c-0.025,0.05-0.064,0.107-0.076,0.125C6.407,2.66,6.477,2.557,6.434,2.568
			C6.35,2.752,6.375,2.526,6.354,2.72C6.301,2.76,6.336,2.667,6.297,2.66C6.26,2.788,6.104,3.065,6.059,3.108
			C6.077,3.06,6.096,2.995,6.102,2.964C6.051,2.924,6.047,2.831,5.991,2.81c0.012-0.049,0-0.114,0.039-0.193
			c-0.021,0.03-0.049,0.094-0.066,0.094c0.014-0.179,0.047-0.014,0.082-0.223C6.009,2.599,5.95,2.629,5.903,2.69
			C5.862,2.868,5.952,2.742,6.001,2.68C5.925,2.919,5.804,3.156,5.724,3.251C5.663,3.299,5.747,3.092,5.73,3.122
			C5.658,3.059,5.55,3.53,5.531,3.339c0.012-0.162,0.074-0.311,0.094-0.426C5.678,2.866,5.66,3.027,5.684,3.028L5.672,2.946
			c0.025-0.05,0.06-0.082,0.062-0.034C5.748,2.77,5.595,2.85,5.554,2.705c-0.024,0.051-0.057,0.1-0.061,0.166L5.52,2.852
			C5.512,2.981,5.444,3.019,5.458,3.081C5.413,3.165,5.356,3.3,5.333,3.223l0.025-0.182C5.35,3.095,5.364,3.152,5.385,3.099
			c-0.029,0.079-0.016-0.253-0.076-0.02l0.004,0.129C5.27,3.293,5.209,3.477,5.186,3.415c-0.014,0.18,0.012-0.018-0.002,0.192
			c0.025-0.261,0.076,0.026,0.094-0.25C5.258,3.6,5.299,3.466,5.288,3.676c0.01-0.06,0.012-0.114,0.031-0.081
			c0.006-0.018,0.014-0.04,0.016-0.052l0.002,0.006V3.542c0.002-0.009,0.002-0.011,0-0.003c-0.002-0.027,0-0.058,0.004-0.093
			c0.041-0.134,0.084-0.12,0.113-0.188c0.01,0.031-0.021,0.066-0.027,0.131L5.472,3.29c-0.025,0.131-0.008,0.226-0.06,0.294
			l0.029,0.015c0.002,0.076,0.02,0.111,0.047,0.062c0.008,0.032,0.076-0.136,0.035-0.037l0.072-0.067l-0.01,0.032
			c0.043,0.028,0.164-0.18,0.146,0.066c0.025-0.028,0.057-0.061,0.07-0.017L5.768,3.747c0.035-0.032,0.018,0.13,0.068,0.021
			c-0.092,0.299,0.061,0.096,0.076,0.16l0.059-0.136c0.021,0.016,0.057-0.014,0.111-0.055l0.053-0.122
			C6.207,3.529,6.156,3.73,6.201,3.738C6.174,3.781,6.172,3.765,6.18,3.734C6.084,4.019,6.377,3.592,6.307,3.806
			C6.342,3.769,6.342,3.789,6.33,3.821c0-0.001-0.004,0.001-0.006,0.004c0.002,0.002,0.002,0.003,0.004,0.004
			C6.32,3.85,6.308,3.877,6.303,3.898C6.317,3.867,6.326,3.842,6.33,3.831c0.008,0,0.027-0.007,0.057-0.028L6.315,3.927
			c0.002-0.002,0.002-0.002,0.006-0.003C6.299,3.976,6.366,3.872,6.417,3.779c0.021-0.017,0.039-0.037,0.064-0.063
			c-0.119,0.196,0.07-0.045-0.057,0.167c0.074-0.094,0.1-0.039,0.26-0.233c-0.02,0.025-0.027,0.04-0.033,0.038
			C6.645,3.719,6.639,3.75,6.696,3.704L6.588,3.849l0.18-0.172c-0.057,0.101-0.094,0.152-0.195,0.25
			c0.17-0.136,0.076-0.04,0.248-0.171l-0.08,0.086C6.753,3.848,6.878,3.75,6.817,3.825C6.688,4.002,6.901,3.966,6.788,4.147
			C7.059,3.928,6.683,4.261,6.899,4.11c-0.064,0.048-0.1,0.082-0.162,0.114C6.819,4.206,6.649,4.33,6.852,4.23
			C6.786,4.274,6.747,4.287,6.708,4.315c0.016-0.007,0.064-0.029,0.025-0.002C6.692,4.339,6.671,4.344,6.637,4.36
			c0.025,0.013,0.25-0.105,0.461-0.215C7.01,4.214,7.024,4.213,7.17,4.16C7.104,4.202,7.033,4.247,7,4.236
			C6.996,4.255,6.924,4.352,7.102,4.282C7.059,4.305,7.096,4.305,7.12,4.301c0.002,0.033-0.012,0.037,0.014,0.065l0.027-0.021
			C7.384,4.287,7.22,4.359,7.255,4.379L7.231,4.383C7.09,4.496,7.315,4.391,7.151,4.506l0.137-0.041
			c0.299-0.073-0.16,0.104-0.037,0.112l0.076-0.032c0.107-0.003-0.394,0.151-0.428,0.177c-0.025,0.01-0.043,0.002-0.064,0.001
			C6.671,4.807,7.019,4.689,7.071,4.718C6.973,4.744,6.819,4.761,6.805,4.787C6.727,4.812,7.137,4.803,6.954,4.874
			C7.03,4.852,7.106,4.832,7.167,4.841C7.198,4.867,6.89,4.959,7.134,4.952c-0.02,0.006-0.039,0.011-0.061,0.013
			c0.066,0.015,0.113,0.059,0.246,0.06C6.831,5.093,7.573,5.147,7.12,5.186l0.027,0.067L7.102,5.255
			c-0.029,0.044,0.08,0.053,0.19,0.063C7.263,5.331,7.22,5.326,7.196,5.326C7.108,5.395,7.126,5.397,7.354,5.45L7.205,5.457
			c0.086,0.016-0.23,0.094-0.059,0.159C7.129,5.614,7.101,5.613,7.08,5.607c0.172,0.08-0.416,0.142,0.119,0.201l0.129,0.058
			c0.045-0.06,0.232,0.028,0.32,0.008c0.031,0.03-0.168,0.055-0.189,0.021l0.025-0.003c-0.275-0.034-0.105,0.07-0.297,0.05
			c0.004,0.123-0.168,0.212-0.199,0.312l0.213,0.028L7.183,6.319C7.13,6.318,7.015,6.296,7.029,6.272
			C6.906,6.261,7.121,6.337,7.166,6.349c-0.098,0.03-0.242-0.073-0.25-0.061l0.01,0.025h0.027c0.08,0.035,0.172,0.059,0.154,0.089
			C7.06,6.41,6.974,6.378,6.962,6.384C6.948,6.379,6.941,6.38,6.954,6.393l-0.029,0.04l0.17,0.026
			c0.076,0.043-0.02,0.043,0.174,0.07C6.974,6.484,7.113,6.673,7.017,6.663c0.107,0.068,0.096,0.098,0.07,0.126
			c0.035,0.004,0.219,0.068,0.184,0.093C6.906,6.723,7.085,6.87,6.814,6.775c0.184,0.059,0.01,0.094,0.266,0.179
			c-0.039,0.01-0.133-0.062-0.225-0.085C6.97,6.994,6.707,6.928,6.722,7.005c0.045,0.03,0.117,0.062,0.176,0.117L6.66,7.011
			c0.016,0.023,0.246,0.18,0.082,0.096C6.777,7.129,6.836,7.162,6.844,7.18C6.698,7.158,6.707,7.242,6.676,7.308
			c-0.029,0.057-0.084,0.12-0.279-0.039C6.475,7.34,6.471,7.354,6.463,7.363c0.022,0.016,0.08,0.102,0.125,0.156
			c0,0-0.043-0.03-0.084-0.062C6.465,7.426,6.428,7.394,6.428,7.394c0.104,0.164-0.037,0.043,0.061,0.203l-0.004-0.04
			c0.1,0.202,0.307,0.389,0.469,0.621c-0.117-0.227,0.32,0.23,0.154-0.099c0.051,0.035,0.051,0.079,0.1,0.124
			c-0.062-0.105-0.068-0.139,0-0.125l0.016,0.025c0.062-0.104,0.185-0.048,0.338-0.099L7.449,7.918
			c0.033-0.01,0.07,0.014,0.105,0.027C7.411,7.784,7.495,7.998,7.335,7.822C7.577,7.979,7.454,7.677,7.73,7.851
			c0.029-0.034-0.141-0.085-0.111-0.118l0.078,0.039L7.611,7.701c0.033-0.013,0.131,0.036,0.193,0.078
			c-0.012,0,0.008,0.027,0.008,0.038c0.107,0.024,0.027-0.113,0.062-0.105L7.808,7.721c-0.012-0.144,0.17-0.219,0.051-0.397
			L7.797,7.302c-0.08-0.125,0.092-0.028,0.078-0.133l0.012,0.008C7.836,7.135,7.815,7.102,7.828,7.083
			C7.893,7.133,7.984,7.1,8.053,7.157C7.959,7.026,7.973,7.078,7.758,6.94l0.109,0.026C7.779,6.915,7.73,6.895,7.717,6.848
			C7.793,6.91,7.885,6.874,7.99,6.951c0.26-0.015-0.189-0.197,0.158-0.14c-0.283-0.123-0.182,0.027-0.24-0.013
			C7.81,6.786,7.699,6.703,7.734,6.686c0.014-0.024,0.389,0.06,0.402-0.015C8.132,6.677,8.154,6.684,8.152,6.69
			c0.082-0.007-0.088-0.076,0.041-0.08C8.019,6.551,8.214,6.569,7.986,6.513l0.037,0.076c-0.049-0.053-0.311-0.143-0.17-0.17
			C7.898,6.432,7.957,6.462,7.988,6.48C8.06,6.477,7.949,6.438,8.023,6.434C8.25,6.487,8.06,6.522,8.224,6.601
			c0.103,0.002-0.15-0.113,0.094-0.039C8.006,6.466,8.373,6.498,8.14,6.402L8.277,6.43c-0.02-0.012-0.082-0.04-0.078-0.054
			l0.178,0.06c-0.146-0.068,0.146-0.057,0.07-0.111c-0.01,0.084-0.17-0.008-0.277,0.009C7.998,6.21,8.545,6.336,8.492,6.211
			C8.508,6.228,8.4,6.256,8.34,6.223c0.031-0.017,0.09-0.038,0.162-0.042c-0.02-0.078-0.145-0.006-0.227-0.048
			c0.174-0.005-0.066-0.044-0.117-0.081l0.143,0.015c0.102-0.073-0.295-0.051-0.176-0.112l0.193,0.049L8.273,5.961l0.162,0.021
			C8.318,5.93,8.347,5.921,8.398,5.88C8.294,5.883,8.136,5.857,8.134,5.821c0.088-0.018,0.137,0.024,0.117-0.029
			c0.09,0.016,0.201,0.035,0.068,0.05C8.364,5.85,8.407,5.858,8.454,5.865c0.1-0.021,0.025-0.067,0.025-0.088
			c-0.006,0.009-0.016,0.017-0.033,0.02L8.251,5.713c0.055-0.01,0.098,0.001,0.141,0.011C8.376,5.708,8.31,5.698,8.298,5.673
			c0.117,0.01,0.238,0.013,0.291,0.047L8.464,5.643c0.049-0.004,0.139-0.036,0.182-0.026c0.066-0.04-0.227-0.103-0.137-0.156
			C8.488,5.459,8.466,5.453,8.448,5.442c0.025-0.049,0.17-0.1,0.006-0.154l0.207-0.044c-0.049-0.046-0.26,0.057-0.344-0.016
			c-0.07-0.05,0.176-0.03,0.232-0.052C8.444,5.152,8.229,5.123,8.395,5.06C8.435,5.077,8.403,5.093,8.419,5.106z"/>
	</g>
</g>
</svg>
