<?xml version="1.0" encoding="utf-8"?>
<!-- Generator: Adobe Illustrator 26.0.3, SVG Export Plug-In . SVG Version: 6.00 Build 0)  -->
<svg version="1.1" id="レイヤー_1" xmlns="http://www.w3.org/2000/svg" xmlns:xlink="http://www.w3.org/1999/xlink" x="0px"
	 y="0px" viewBox="0 0 9.47 11.6" style="enable-background:new 0 0 9.47 11.6;" xml:space="preserve">
<style type="text/css">
	.st0{display:none;}
	.st1{display:inline;}
	.st2{fill:#E2D6D0;}
	.st3{fill:#FCC700;}
	.st4{fill:#F9E7AF;}
</style>
<g class="st0">
	<g class="st1">
		<path class="st2" d="M7.128,21.141c-0.005,0.015-0.006,0.033-0.006,0.052l0.006-0.014V21.141z"/>
		<path class="st2" d="M7.032,20.96c0.03,0.033,0.033,0.11,0.048,0.152c0.007-0.009,0.017-0.025,0.021-0.04
			C7.06,21.06,7.079,20.954,7.032,20.96C7.057,20.985,7.077,20.955,7.032,20.96z"/>
		<path class="st2" d="M6.963,21.115c0.003,0.013,0.009,0.021,0.017,0.025c-0.004-0.013-0.007-0.024-0.008-0.036
			C6.973,21.111,6.969,21.115,6.963,21.115C6.969,21.125,6.981,21.112,6.963,21.115z"/>
		<path class="st2" d="M6.976,21.074C6.957,21.069,6.986,21.098,6.976,21.074L6.976,21.074z"/>
		<path class="st2" d="M6.911,20.987c0.002-0.01,0.021,0.014,0.027,0.013c0-0.013,0.002-0.026-0.001-0.039
			C6.919,20.954,6.905,20.953,6.911,20.987z"/>
		<path class="st2" d="M6.954,20.933v-0.019C6.945,20.93,6.949,20.933,6.954,20.933z"/>
		<path class="st2" d="M7.001,20.98c0.001,0.04-0.013,0.021-0.03,0.009C6.991,21.052,7.022,21.042,7.001,20.98z"/>
		<path class="st2" d="M7.081,20.965l0.004-0.028l-0.021-0.016C7.054,20.928,7.083,20.954,7.081,20.965z"/>
		<path class="st2" d="M6.835,20.844c0.012,0.001,0.026,0.006,0.036,0.02v-0.03C6.859,20.837,6.846,20.84,6.835,20.844
			C6.846,20.837,6.841,20.837,6.835,20.844z"/>
		<path class="st2" d="M6.871,20.793v0.042C6.881,20.83,6.884,20.822,6.871,20.793z"/>
		<path class="st2" d="M6.987,20.953l0.006-0.073C6.98,20.865,6.987,20.929,6.987,20.953z"/>
		<path class="st2" d="M6.784,20.712c-0.021-0.012-0.032-0.033-0.035-0.063c-0.007,0.026-0.007,0.052-0.003,0.081
			C6.75,20.708,6.776,20.731,6.784,20.712C6.759,20.693,6.774,20.737,6.784,20.712z"/>
		<path class="st2" d="M6.749,20.649c0.002-0.015,0.005-0.029,0.005-0.041C6.749,20.624,6.748,20.638,6.749,20.649z"/>
		<path class="st2" d="M6.843,20.737c-0.007-0.019-0.022-0.018-0.033-0.011C6.821,20.734,6.831,20.741,6.843,20.737
			C6.842,20.73,6.836,20.738,6.843,20.737z"/>
		<path class="st2" d="M6.825,20.693c0.001,0.021,0.005,0.03,0.014,0.03L6.825,20.693z"/>
		<path class="st2" d="M6.968,20.813c-0.037-0.028-0.032,0.024-0.037,0.053C6.938,20.822,6.959,20.838,6.968,20.813z"/>
		<path class="st2" d="M6.88,20.788c0.004-0.013,0.01-0.017,0.02-0.018c-0.006-0.011-0.012-0.024-0.02-0.032
			C6.879,20.753,6.88,20.77,6.88,20.788z"/>
		<polygon class="st2" points="6.873,20.726 6.88,20.738 6.881,20.715 		"/>
		<path class="st2" d="M6.798,20.658c0.011,0.023,0.022,0.003,0.024-0.004c-0.01-0.019-0.02-0.042-0.032-0.057
			C6.799,20.617,6.802,20.637,6.798,20.658C6.809,20.681,6.804,20.636,6.798,20.658z"/>
		<path class="st2" d="M6.715,20.405C6.716,20.407,6.726,20.406,6.715,20.405C6.715,20.405,6.717,20.405,6.715,20.405z"/>
		<path class="st2" d="M6.83,20.655c-0.013-0.004-0.011,0.01,0.006,0.04C6.84,20.683,6.837,20.668,6.83,20.655
			C6.828,20.65,6.84,20.667,6.83,20.655z"/>
		<path class="st2" d="M6.765,20.568c-0.007-0.006-0.014-0.014-0.025-0.019C6.737,20.556,6.754,20.564,6.765,20.568z"/>
		<path class="st2" d="M6.792,20.637c0.013,0.007,0.015-0.003,0.006-0.03L6.792,20.637C6.797,20.638,6.793,20.629,6.792,20.637z"/>
		<path class="st2" d="M6.84,20.256c-0.009-0.001-0.016,0.006-0.019,0.015c0.001-0.013-0.004-0.033-0.003-0.049
			c-0.033,0.01-0.025,0.102-0.058,0.098c0.008,0.007,0.076,0.046,0.035,0.065c-0.019,0.008-0.04-0.029-0.058-0.034
			c-0.001,0.027-0.002,0.043-0.016,0.054c0.04,0.006,0.086,0,0.117-0.028C6.875,20.341,6.79,20.295,6.84,20.256
			C6.829,20.249,6.82,20.27,6.84,20.256z"/>
		<path class="st2" d="M6.716,20.409c-0.01,0.01-0.014,0.025-0.014,0.047c0.025,0.011,0.042,0.037,0.048,0.017
			C6.743,20.469,6.728,20.433,6.716,20.409z"/>
		<path class="st2" d="M6.778,20.556c-0.007-0.024-0.015-0.045-0.026-0.064l0.014,0.077c0.012,0.002-0.006-0.034,0.011-0.011
			c-0.001,0.005-0.006,0.015-0.012,0.012c0.064,0.06-0.011-0.008,0.028-0.004c0.011,0.003,0.009-0.016,0.012-0.022
			c0.007,0.003,0.012,0.011,0.012,0.027c0.001-0.036,0.022-0.035,0.008-0.076C6.795,20.49,6.795,20.533,6.778,20.556
			C6.768,20.522,6.797,20.53,6.778,20.556z"/>
		<path class="st2" d="M6.995,20.745c0.001,0,0.004-0.002,0.006,0C6.998,20.735,6.996,20.739,6.995,20.745z"/>
		<path class="st2" d="M6.976,20.724c-0.024-0.004-0.046-0.002-0.07,0.004c0.007-0.043,0.08,0.09,0.089,0.017
			C6.979,20.754,6.97,20.763,6.976,20.724C6.948,20.719,6.975,20.732,6.976,20.724z"/>
		<path class="st2" d="M6.883,20.543c-0.008-0.009-0.021-0.012-0.032-0.018c0.005,0.022,0.006,0.046,0.012,0.066
			C6.878,20.572,6.877,20.563,6.883,20.543z"/>
		<polygon class="st2" points="6.701,20.373 6.679,20.43 6.699,20.404 		"/>
		<path class="st2" d="M6.653,20.342c0.007-0.004,0.015-0.008,0.021-0.015C6.662,20.328,6.653,20.304,6.653,20.342z"/>
		<path class="st2" d="M6.545,20.025C6.542,20.03,6.55,20.043,6.545,20.025L6.545,20.025z"/>
		<path class="st2" d="M6.549,20.027c0.005,0.006,0.01,0.011,0.014,0.017C6.557,20.035,6.553,20.03,6.549,20.027z"/>
		<path class="st2" d="M6.56,20.061c-0.001-0.005-0.005-0.009-0.008-0.014C6.554,20.061,6.557,20.063,6.56,20.061z"/>
		<path class="st2" d="M6.537,20.001c0.002,0.017,0.006,0.024,0.013,0.026L6.537,20.001C6.54,20.015,6.54,20.012,6.537,20.001z"/>
		<g>
			<path class="st2" d="M6.678,20.283c-0.022-0.001-0.028-0.018-0.051-0.02c0.053-0.003-0.041-0.115,0.02-0.102
				c-0.037-0.003-0.057-0.052-0.095-0.065c0.013-0.007,0.021-0.037,0.011-0.048c0.063,0.043,0.019-0.071,0.027-0.109
				c-0.011-0.019-0.013,0.014-0.024,0.01c0.004-0.012,0.004-0.028,0.007-0.044c-0.019,0.009-0.062-0.033-0.057,0.026
				c-0.01-0.038-0.021-0.046-0.04-0.073c-0.027-0.04-0.019-0.074-0.022-0.114c0.001,0.025-0.024-0.081-0.021-0.072
				C6.414,19.626,6.412,19.577,6.4,19.53c-0.018-0.065-0.049-0.08-0.065-0.142c-0.014-0.049-0.043-0.089-0.057-0.138
				c-0.018-0.056-0.021-0.114-0.026-0.17c-0.017-0.166-0.094-0.241-0.137-0.387c-0.005,0.013-0.002,0.023,0.009,0.034
				c-0.056-0.037-0.039-0.119-0.049-0.184c-0.01-0.057-0.04-0.097-0.066-0.123c0.034,0.019,0.014,0.001,0.015-0.046
				c-0.066,0.013-0.003-0.028,0.008-0.057c-0.038,0.001-0.013-0.065-0.054-0.065c0.027-0.033-0.009-0.118,0.031-0.146
				c-0.007-0.004-0.01,0-0.01,0.008c-0.016-0.019-0.021-0.042-0.017-0.068c-0.012,0.004-0.027-0.001-0.039,0.005l0.032-0.071
				c-0.029-0.021-0.049-0.026-0.063,0.012c0.008-0.048,0.005-0.099,0.019-0.147c-0.006,0.006-0.014,0.006-0.022,0.015
				c-0.004-0.018,0.014-0.073-0.008-0.077c-0.023-0.014-0.039-0.054-0.05-0.085c-0.035-0.092-0.056-0.202-0.104-0.28
				c0.066-0.002-0.042-0.053,0.003-0.075c-0.015-0.002-0.032-0.019-0.041,0.011c-0.001-0.064-0.048-0.103-0.02-0.156
				c-0.011,0.006-0.021,0.01-0.03,0.018c0.004-0.008,0.005-0.019-0.005-0.029c-0.009,0.003-0.013,0.011-0.015,0.029
				c-0.017-0.079,0.048-0.102,0.078-0.116c-0.032-0.027-0.027-0.051-0.009-0.082c-0.017-0.005-0.04-0.019-0.034,0.024
				c-0.012-0.034-0.061-0.137-0.024-0.152c-0.008-0.003-0.036-0.132-0.041-0.153c0.051,0.059,0.003-0.07,0.002-0.08
				c-0.009-0.021-0.045-0.104-0.061-0.128c0.107,0.006-0.027-0.082-0.017-0.142l0.021,0.016c0.004-0.011-0.116-0.117-0.123-0.065
				c-0.051-0.063,0.034-0.029,0.029-0.087c-0.015-0.002-0.072,0.032-0.065-0.032c0.003-0.042,0.029-0.121-0.01-0.16
				c0.098,0.043-0.041-0.119-0.006-0.168c-0.022-0.015-0.016-0.118,0.005-0.142c-0.094-0.002-0.012-0.215-0.091-0.192
				c-0.008-0.037-0.009-0.093-0.027-0.097c-0.017-0.054-0.004-0.09,0.016-0.12c-0.008-0.008-0.014-0.008-0.021,0.001
				c-0.01-0.023-0.016-0.043-0.023-0.064c-0.014-0.049,0.005-0.093,0.016-0.131c-0.007,0.006-0.02-0.004-0.03,0
				c0.01-0.02-0.068-0.172-0.058-0.229c-0.021,0.01-0.008-0.022-0.021-0.066c-0.013-0.035-0.028-0.065-0.042-0.099
				c-0.011-0.008-0.016-0.021-0.035-0.032c0.053,0.016-0.021-0.12,0.039-0.086c-0.038-0.017-0.05-0.069-0.084-0.096
				c0.013-0.001,0.027-0.03,0.02-0.041c0.047,0.055,0.034-0.04,0.043-0.083l-0.007-0.019c-0.004,0.005-0.011,0.013-0.018,0.009
				c0.005-0.008,0.008-0.018,0.011-0.028l-0.003-0.012c-0.021-0.009-0.05-0.045-0.055,0.005C5.011,14.331,5,14.32,4.986,14.288
				c-0.021-0.047-0.006-0.078,0-0.115c-0.005,0.024-0.009-0.084-0.01-0.075c-0.012-0.059,0.004-0.117-0.009-0.174
				c-0.006-0.039-0.028-0.062-0.036-0.095c-0.018-0.067-0.031-0.146,0.03-0.148c-0.024-0.014-0.073-0.075-0.07-0.127
				c0.001-0.029,0.038-0.055,0.046-0.082c-0.032-0.033-0.034-0.088-0.001-0.11c-0.013-0.035-0.041-0.048-0.063-0.048
				c0.017-0.109-0.028-0.086-0.034-0.144s0.038-0.05,0.04-0.107c0-0.028-0.027-0.035-0.031-0.059
				c-0.015-0.054-0.029-0.193-0.065-0.229c0.029,0.03,0.011,0.004,0.021-0.04c-0.053-0.005-0.02-0.019,0.005-0.038
				c-0.007-0.027-0.015-0.057-0.02-0.084c-0.002-0.004-0.007-0.005-0.009-0.007c0.003-0.001,0.004-0.005,0.007-0.008
				c-0.002-0.013-0.003-0.023-0.002-0.034c0.005-0.003,0.01-0.001,0.014,0.001l0.006-0.033l-0.04-0.04
				c0.005-0.029,0.06-0.026,0.019-0.065c0.021,0.013,0.025,0.002,0.023-0.016c-0.009-0.002-0.016-0.005-0.022-0.005l0.017-0.022
				c-0.004-0.016-0.01-0.033-0.013-0.047l-0.003-0.014c-0.006,0-0.015,0.004-0.022,0.017c0.007-0.015,0.013-0.033,0.017-0.05
				c-0.007-0.044-0.011-0.084-0.007-0.122c0.002-0.03,0.009-0.034,0-0.069c-0.01-0.034-0.047-0.068-0.038-0.11
				c0.008-0.036,0.055-0.016,0.055-0.048c0.001-0.034-0.047-0.07-0.058-0.091c-0.021-0.039-0.034-0.091-0.055-0.134
				c0.019,0.025,0.026,0.019,0.022-0.014c0.003,0.004,0.005,0.007,0.01,0.008c-0.01-0.018-0.018-0.038,0.004-0.039
				c-0.015-0.005-0.03-0.026-0.042-0.006c0.007-0.059-0.028-0.108,0.008-0.15c-0.013,0.001-0.023,0.004-0.035,0.009
				c0.009-0.006,0.01-0.017,0.003-0.029c-0.01,0-0.016,0.007-0.02,0.021c-0.001-0.082,0.066-0.079,0.098-0.084
				c-0.024-0.034-0.016-0.06,0.008-0.079c-0.016-0.01-0.035-0.032-0.039,0.01c-0.005-0.037-0.033-0.151,0.007-0.153
				c-0.008-0.006-0.01-0.137-0.01-0.157c0.038,0.075,0.018-0.065,0.018-0.074c-0.005-0.023-0.023-0.112-0.037-0.142
				c0.107,0.044-0.011-0.087,0.008-0.14L4.7,10.719c0.006-0.008-0.097-0.151-0.114-0.104c-0.038-0.076,0.039-0.017,0.043-0.069
				c-0.015-0.008-0.074,0.001-0.059-0.055c0.013-0.039,0.053-0.104,0.018-0.151c0.094,0.073-0.023-0.127,0.028-0.161
				c-0.018-0.024,0.008-0.116,0.034-0.132C4.557,10.007,4.683,9.84,4.6,9.832c0.002-0.038,0.012-0.091-0.006-0.101
				C4.589,9.675,4.608,9.647,4.633,9.625C4.626,9.616,4.619,9.614,4.613,9.62C4.609,9.597,4.604,9.578,4.602,9.553
				c-0.004-0.051,0.022-0.085,0.04-0.115c-0.009,0-0.02-0.013-0.03-0.014C4.625,9.41,4.577,9.241,4.597,9.189
				C4.573,9.193,4.596,9.169,4.588,9.12C4.583,9.074,4.567,9.031,4.561,8.986C4.555,8.931,4.582,8.914,4.608,8.91
				c0.011-0.016,0.019-0.048,0.027-0.065C4.644,8.936,4.681,8.834,4.702,8.88c0.007-0.041-0.041-0.098-0.034-0.047
				C4.584,8.84,4.601,8.288,4.603,8.193L4.647,8.22c0.009-0.062-0.034-0.099-0.035-0.045c-0.024-0.024,0.023-0.062,0.034-0.06
				C4.638,8.062,4.593,8.092,4.594,8.108L4.598,8.07c0.015,0.005,0.069-0.048,0.034-0.082C4.603,7.96,4.614,7.935,4.612,7.88
				c0.041,0.079,0.034-0.034,0.074,0.01C4.645,7.847,4.655,7.745,4.659,7.682C4.662,7.652,4.665,7.62,4.66,7.591
				c-0.002-0.024,0.026-0.106,0.028-0.15c0.01,0.025,0.046,0.025,0.044-0.014c-0.07-0.003-0.041-0.103-0.09-0.152
				c0.031,0.04,0.026-0.127,0.072-0.063C4.713,7.175,4.679,7.19,4.667,7.166c0.044-0.087,0.005-0.22,0.025-0.323
				c0.019,0.004,0.026,0.025,0.045,0.005L4.689,6.771c0.01-0.024,0.065-0.004,0.033-0.054c0.038,0.041,0.02-0.044,0.021-0.081
				C4.745,6.563,4.756,6.491,4.768,6.42c0.021-0.136,0.036-0.27-0.002-0.405c0.012,0.028,0.02,0.026,0.025-0.006
				c0.004,0.021,0.032,0.016,0.04,0.02L4.804,5.921c0.037-0.002,0.015-0.102,0.053-0.096L4.845,5.852C4.9,5.827,4.947,5.95,5,5.966
				c-0.05,0.022,0.054,0.151-0.018,0.19c0.009,0.021,0.02-0.005,0.032,0.008c-0.025,0.008-0.04,0.051-0.021,0.074
				C4.977,6.336,4.995,6.442,4.997,6.545C4.989,6.536,4.978,6.536,4.969,6.527C4.97,6.547,4.975,6.563,4.984,6.58
				C4.942,6.595,4.982,6.501,4.938,6.512c0.056,0.059-0.02,0.2,0.043,0.247C4.976,6.801,4.949,6.736,4.944,6.78l0.018,0.016
				C4.953,6.791,4.945,6.798,4.937,6.799C4.939,6.841,4.97,6.872,4.983,6.83c0.014,0.037-0.015,0.077-0.014,0.104
				C4.967,6.921,4.964,6.911,4.963,6.899C4.948,6.961,4.929,7.282,4.88,7.252c-0.023,0.05-0.004,0.121-0.007,0.164
				C4.861,7.432,4.852,7.452,4.852,7.482C4.869,7.464,4.88,7.538,4.9,7.512c-0.023,0.06-0.043,0.058-0.078,0.09
				C4.83,7.606,4.837,7.618,4.845,7.621C4.824,7.638,4.811,7.646,4.804,7.684c0.006-0.01,0.067,0.015,0.064,0.008
				C4.88,7.746,4.87,7.782,4.859,7.827C4.838,7.905,4.914,8.17,4.818,8.158l0.014-0.069C4.814,8.134,4.759,8.157,4.783,8.231
				c0.012-0.006,0.024-0.018,0.032-0.034c0.004,0.006,0,0.118,0.028,0.045c0.015-0.036,0.003-0.083,0.029-0.108
				c0.015,0.017-0.008,0.041-0.008,0.06C4.87,8.206,4.877,8.209,4.887,8.201C4.83,8.216,4.88,8.292,4.838,8.327
				C4.847,8.325,4.857,8.331,4.867,8.33C4.858,8.339,4.85,8.352,4.847,8.37l0.039-0.021c-0.035,0.038,0.025,0.088,0.005,0.13
				C4.895,8.396,4.859,8.452,4.836,8.41C4.797,8.498,4.907,8.508,4.89,8.609c0.007-0.023-0.017-0.064-0.03-0.045
				C4.868,8.6,4.899,8.635,4.884,8.669C4.875,8.695,4.856,8.63,4.841,8.655c0.033,0.031-0.02,0.047-0.03,0.072
				C4.836,8.718,4.86,8.764,4.832,8.782C4.814,8.793,4.784,8.78,4.799,8.835l0.042-0.029c-0.007,0.012-0.006,0.03-0.012,0.042
				c0.01-0.005,0.023,0.002,0.036-0.003c-0.021,0.036-0.02,0.06-0.01,0.11C4.835,8.941,4.802,8.95,4.8,8.994
				c0.016,0.029,0.028-0.006,0.025,0.048c0.014-0.008,0.043-0.02,0.014-0.051C4.886,8.985,4.873,9.005,4.873,9.08
				C4.866,9.025,4.835,9.113,4.826,9.134c0.011,0.01,0.022,0.009,0.029-0.005C4.847,9.145,4.84,9.163,4.837,9.183
				c0.02-0.003,0.049,0.003,0.059-0.031c-0.005,0.013-0.03,0.063-0.025,0.076c0.022,0.015,0.046,0.041,0.036,0.08
				C4.895,9.343,4.868,9.386,4.882,9.434C4.858,9.446,4.898,9.58,4.873,9.626L4.916,9.67C4.91,9.711,4.872,9.645,4.856,9.671
				c-0.045,0.073,0.029,0.054,0.04,0.077c-0.023,0.032-0.064,0.08-0.03,0.138c0.003-0.015,0.006-0.032,0.004-0.05
				c0.005,0.015,0.018,0.032,0.025,0.046C4.918,9.854,4.923,9.8,4.955,9.838c-0.074-0.002-0.018,0.167-0.091,0.164
				c0.005,0.01,0.011,0.022,0.017,0.03l0.004-0.017c0.025,0.035-0.009,0.045-0.024,0.054c-0.041,0.027-0.009,0.102,0.004,0.081
				c-0.027,0.041-0.004,0.064-0.005,0.051c-0.002,0.026-0.004,0.067-0.002,0.086c-0.013,0.012-0.026,0.031-0.037,0.049
				c0.014,0.026,0.007-0.011,0.019-0.003c-0.008,0.01-0.011,0.032-0.017,0.045c0.021,0.018,0.041-0.014,0.035-0.051
				c0.003,0.016,0.03,0.014,0.034,0.03c-0.001-0.009-0.006,0.061-0.005,0.077c-0.003,0.045-0.009,0.081,0.001,0.129
				c0.001,0.004,0.02,0.066,0.035,0.058c-0.017,0.021-0.048,0.03-0.026,0.062c0.01,0.018,0.06,0.026,0.053,0.054
				c-0.004,0.028-0.052-0.056-0.053,0.012c0.013,0.043,0.007,0.077-0.003,0.113c-0.027,0.099-0.001,0.027,0.023,0.052
				c-0.011,0.007-0.019,0.026-0.028,0.034c0.004,0.007,0.009,0.01,0.015,0.005c-0.008,0.019-0.071,0.029-0.055,0.068
				c0.016,0.034,0.063,0.086,0.031,0.123c0.013,0.005,0.026,0.006,0.04-0.001c-0.022,0.055-0.081,0.121-0.032,0.177
				c-0.054-0.067-0.066,0.093-0.124,0.022L4.748,11.41c0.012,0.005,0.024,0.003,0.036-0.011c-0.022,0.032,0.093,0.048,0.024-0.017
				c0.021-0.017,0.071-0.063,0.062-0.008c0.035-0.023,0.007,0.012,0.003,0.016l0.046,0.015l-0.02,0.005
				c0.016,0.046,0.042,0.078,0.016,0.116c-0.014,0.021-0.03,0.043-0.044,0.066c-0.001,0.02,0.016,0.043,0.029,0.07
				c0.005-0.029,0.013-0.054,0.009-0.076c0.004,0.022,0.021,0.025,0.03,0.014c-0.01,0.032-0.017,0.062-0.026,0.092l0.002,0.007
				c0.023-0.002,0.022,0.017,0.038,0.043c-0.026-0.01-0.034,0.002-0.038,0.022c0.005-0.004,0.011-0.012,0.019-0.007
				c-0.022,0.019-0.028,0.067-0.005,0.08l0.002,0.006c0.007-0.009,0.011-0.023,0.005-0.045c0.023,0.024,0.011,0.039-0.003,0.057
				c0.009,0.1,0.043,0.19,0.067,0.286c-0.01-0.005-0.021-0.002-0.029-0.009c0.005,0.019,0.014,0.036,0.025,0.05
				c-0.03,0.025-0.022-0.048-0.043-0.053l-0.002,0.016c0.033,0.036,0.027,0.121,0.046,0.173c0.002-0.004,0.004-0.01,0.007-0.019
				c0.009,0.018,0.012,0.034,0.012,0.052c0.005,0.003,0.009,0.006,0.015,0.008c0.003,0.025-0.008,0.019-0.019,0.016L5.01,12.378
				c0,0-0.002-0.004-0.004-0.003c-0.003,0-0.006,0.005-0.005,0.02l0.019,0.009c-0.007-0.001-0.013,0.011-0.021,0.013
				c0.009,0.041,0.046,0.059,0.049,0.013c0.021,0.031,0.003,0.081,0.007,0.11c-0.005-0.011-0.008-0.021-0.011-0.032
				c-0.002,0.05,0.026,0.247,0.02,0.336c0.004,0.001,0.008,0.006,0.014,0.017c0.014,0.026,0.036,0.055,0.035-0.01
				c0.008,0.036,0.015,0.073,0.023,0.107c-0.036,0.001-0.028,0.086-0.063,0.086l0.026-0.121c-0.018-0.001-0.039,0.01-0.054,0.028
				c0.009,0.039,0.023,0.076,0.028,0.103c-0.004,0.006-0.004,0.011-0.006,0.014c0.007-0.002,0.014-0.006,0.019-0.009
				c-0.001,0.002-0.01,0.062-0.004,0.074l0.004,0.001c0.004,0.001,0.011-0.008,0.02-0.029c0.007,0.013,0.005,0.028,0.001,0.043
				c0.002-0.002,0.005-0.004,0.006-0.01c-0.003,0.031-0.01,0.05-0.017,0.067c0.009,0.034,0.052,0.038,0.056,0.068
				c-0.001-0.009-0.08,0.004-0.071,0.067c0.02-0.001,0.041-0.005,0.039-0.008c0.021,0.047,0.019,0.089,0.018,0.136
				c-0.004,0.086,0.118,0.32,0.028,0.347l0-0.075c-0.006,0.04-0.034,0.073-0.032,0.117c0.008,0.007,0.015,0.007,0.024-0.004
				c-0.008,0.019-0.013,0.03-0.014,0.037c0.001,0.004,0.002,0.007,0.005,0.01c0.009-0.012,0.016-0.027,0.022-0.044
				c0.001,0.003,0.003,0.012,0.007,0.024c0.005-0.004,0.008-0.004,0.01-0.003c-0.004,0.003-0.005,0.006-0.007,0.007
				c0.009,0.03,0.017,0.061,0.026,0.005c0.004-0.04-0.015-0.082,0.005-0.118c0.017,0.015,0.001,0.047,0.004,0.065
				c0.008,0.009,0.016,0.008,0.024-0.004c-0.049,0.037,0.011,0.095-0.021,0.143c0.009-0.003,0.018-0.002,0.026-0.006
				c-0.006,0.014-0.01,0.027-0.01,0.045l0.032-0.035c-0.024,0.05,0.042,0.08,0.032,0.127c-0.013-0.082-0.038-0.011-0.065-0.048
				c-0.018,0.105,0.085,0.074,0.092,0.177c0-0.023-0.031-0.057-0.037-0.029c0.015,0.031,0.049,0.056,0.046,0.093
				c-0.005,0.026-0.036-0.03-0.046,0.001c0.038,0.02-0.007,0.056-0.01,0.082c0.022-0.017,0.056,0.019,0.034,0.047
				c-0.014,0.018-0.044,0.014-0.02,0.064l0.033-0.045c-0.002,0.014,0.001,0.034-0.002,0.047c0.01-0.009,0.023-0.007,0.031-0.016
				c-0.013,0.046-0.007,0.068,0.013,0.112c-0.023-0.007-0.052,0.017-0.045,0.059c0.023,0.023,0.026-0.016,0.033,0.037
				c0.012-0.012,0.035-0.036,0.002-0.056c0.047-0.022,0.036,0.005,0.05,0.075c-0.017-0.051-0.029,0.051-0.035,0.074
				c0.014,0.008,0.022,0.003,0.027-0.014c-0.005,0.02-0.007,0.037-0.009,0.059c0.02-0.01,0.046-0.017,0.05-0.054
				c-0.002,0.012-0.014,0.076-0.009,0.087c0.025,0.006,0.051,0.021,0.049,0.065c-0.004,0.038-0.022,0.091-0.002,0.134
				c-0.02,0.022,0.043,0.14,0.027,0.196l0.05,0.027c0.001,0.047-0.047-0.005-0.059,0.028c-0.026,0.085,0.038,0.043,0.053,0.06
				c-0.017,0.039-0.042,0.102,0.002,0.148c0.001-0.017-0.001-0.035-0.006-0.052c0.008,0.014,0.023,0.024,0.033,0.036
				c0.016-0.037,0.008-0.094,0.046-0.063c-0.069,0.023,0.021,0.17-0.049,0.192c0.008,0.009,0.016,0.019,0.024,0.025l-0.002-0.019
				c0.031,0.026,0.001,0.05-0.011,0.064c-0.031,0.04,0.016,0.104,0.022,0.077c-0.016,0.051,0.012,0.066,0.008,0.052
				c0.003,0.027,0.01,0.067,0.015,0.084c-0.011,0.019-0.02,0.04-0.028,0.062c0.017,0.02,0.005-0.011,0.017-0.008
				C5.617,15.98,5.617,16,5.612,16.017c0.025,0.012,0.038-0.03,0.026-0.062c0.006,0.013,0.03,0.003,0.038,0.017
				c-0.004-0.007,0.005,0.062,0.006,0.078c0.006,0.047,0.005,0.086,0.023,0.131c0.002,0.004,0.031,0.059,0.044,0.045
				c-0.014,0.025-0.041,0.046-0.017,0.073c0.015,0.014,0.063,0.004,0.061,0.033c-0.001,0.031-0.059-0.038-0.049,0.031
				c0.02,0.038,0.019,0.076,0.018,0.115c-0.007,0.109,0.006,0.027,0.031,0.043c-0.009,0.011-0.014,0.031-0.021,0.043
				c0.006,0.004,0.013,0.004,0.016-0.001c-0.004,0.021-0.061,0.055-0.038,0.087c0.021,0.028,0.077,0.065,0.054,0.113
				c0.014,0,0.025-0.006,0.036-0.016c-0.008,0.064-0.051,0.152,0.008,0.188c-0.065-0.046-0.044,0.115-0.113,0.063l-0.002,0.077
				c0.014,0.001,0.025-0.006,0.032-0.021c-0.014,0.038,0.095,0.013,0.019-0.029c0.014-0.025,0.05-0.088,0.053-0.03
				c0.027-0.038,0.009,0.01,0.007,0.015l0.044,0.001L5.874,17.02c0.025,0.041,0.055,0.062,0.039,0.107
				c-0.027,0.068-0.059,0.14-0.051,0.235c0.021-0.034,0.054-0.028,0.082-0.04c-0.041-0.011-0.009-0.092-0.026-0.132
				c0.01,0.019,0.024,0.018,0.031,0.004L5.94,17.298c0.024-0.01,0.025,0.011,0.045,0.032c-0.057,0.002-0.018,0.072-0.027,0.129
				c0.021-0.006,0.035-0.029,0.02-0.068c0.055,0.032-0.047,0.093,0,0.127c0.005,0.035,0.042,0.056,0.034,0.033
				c0.032,0.078,0.038,0.161,0.047,0.243c0.006,0.051,0.064,0.178,0.071,0.073c0.016,0.022,0.025,0.047,0.022,0.077
				c-0.012-0.011-0.071-0.01-0.069,0.014c0.034,0.013,0.059,0.036,0.09,0.059c-0.015-0.014-0.075,0.029-0.061,0.062
				c0.014-0.018,0.059-0.011,0.068-0.039l-0.042,0.097c0.009-0.03,0.056-0.025,0.075-0.018c-0.009-0.002,0.019,0.072,0.019,0.083
				c-0.006-0.011-0.015-0.015-0.023-0.024c0.037,0.084-0.068,0.112-0.038,0.195c0.015-0.023,0.044-0.04,0.069-0.04
				c0.044,0,0.009,0.07,0.013,0.1c0.025-0.006,0.021-0.07,0.054-0.032c0.017,0.019,0.045,0.04,0.029-0.023l0.045,0.097
				c-0.036,0.015-0.01,0.097-0.044,0.108l0.001-0.132c-0.034,0.014-0.063,0.073-0.064,0.129c-0.003,0.107,0.056,0.032,0.077,0.013
				c-0.001,0.001,0.001,0.141,0.028,0.036c0.021,0.025-0.002,0.063,0.001,0.09c0.007,0.049,0.061,0.033,0.072,0.062
				c-0.004-0.006-0.074,0.032-0.057,0.092c0.009,0.035,0.051,0.031,0.057,0.063c-0.023,0.016-0.004,0.025-0.003,0.048
				c-0.009-0.001-0.016-0.004-0.023-0.013c-0.001,0.038,0.024,0.048,0.033,0.081c-0.033-0.002-0.07,0.074-0.07,0.125
				c0.05-0.042,0.127,0.26,0.164,0.181c-0.024,0.109,0.018,0.01,0.032,0.013c-0.021,0.014-0.01,0.075-0.011,0.11
				c-0.038,0.01-0.032-0.077-0.03-0.106C6.5,19.401,6.443,19.634,6.51,19.592c0.018-0.013-0.003,0.179-0.003,0.179
				c0.022,0.075,0.068,0.032,0.09,0.011c0.042-0.038-0.024-0.056-0.04-0.105c0.009,0.013,0.02,0.021,0.028,0.032
				c0.003-0.019,0.003-0.056-0.014-0.072c0.033,0.017,0.062,0.121,0.078,0.164c0.006,0.017,0.088,0.161,0.029,0.14l-0.006-0.029
				c-0.058-0.019-0.056,0.245,0.018,0.177c0.019,0.034,0.036,0.071,0.008,0.054c-0.028-0.015-0.028-0.029-0.034,0.012
				C6.664,20.19,6.655,20.245,6.678,20.283z"/>
		</g>
		<path class="st2" d="M6.611,20.188c-0.008-0.006-0.014-0.014-0.02-0.027c0.002,0.013,0.004,0.025,0.006,0.038
			C6.598,20.191,6.604,20.185,6.611,20.188z"/>
		<path class="st2" d="M6.877,20.407c-0.018-0.025-0.014,0.012-0.01,0.024C6.882,20.43,6.874,20.421,6.877,20.407
			C6.861,20.387,6.875,20.413,6.877,20.407z"/>
		<path class="st2" d="M6.697,20.18c0.001,0.073,0.023,0.021,0.03,0.044C6.721,20.196,6.719,20.172,6.697,20.18
			C6.697,20.214,6.72,20.171,6.697,20.18z"/>
		<path class="st2" d="M6.735,20.253c-0.003-0.005-0.006-0.014-0.008-0.023C6.731,20.246,6.725,20.264,6.735,20.253z"/>
		<path class="st2" d="M6.528,19.987c-0.011-0.003,0.025-0.016,0.014-0.025C6.534,19.887,6.505,20.015,6.528,19.987z"/>
		<path class="st2" d="M6.747,20.164c0.009-0.002,0.02-0.002,0.029-0.008C6.762,20.133,6.753,20.142,6.747,20.164z"/>
		<path class="st2" d="M6.699,20.025c0-0.03,0.002-0.016-0.017-0.051C6.674,19.981,6.697,20.021,6.699,20.025z"/>
		<path class="st2" d="M6.707,20.061c0.001-0.01-0.002-0.023-0.008-0.036C6.701,20.038,6.705,20.054,6.707,20.061z"/>
		<path class="st2" d="M6.742,20.065c0.008,0.02,0.014,0.022,0.024,0.033C6.757,20.087,6.749,20.076,6.742,20.065z"/>
	</g>
</g>
<g>
	<g>
		<path class="st3" d="M4.119,10.473c-0.09,0.11-0.172,0.23-0.247,0.355c0.235,0.057,0.801,0.354,0.7-0.05
			c-0.037-0.154-0.338-0.338-0.147-0.504c0.09-0.077,0.223,0.066,0.319,0.087c0.155,0.034,0.328-0.004,0.484-0.031
			c0.119-0.021-0.682,0.121,0,0c1.031-0.179,1.647-0.467,2.394-1.222c0.115-0.116,0.205-0.269,0.33-0.374
			c0.419-0.36,0.725-0.981,0.883-1.5c0.197-0.639,0.295-1.336,0.274-2.007C9.099,4.779,8.887,4.329,8.807,3.888
			C8.738,3.507,8.73,3.211,8.453,2.91c-0.044-0.086-0.167-0.275-0.247-0.39C8.03,2.264,7.845,2.006,7.589,1.82
			c-0.297-0.202-0.542-0.457-0.86-0.628c-0.949-0.549-2.114-0.7-3.167-0.358C2.57,1.157,1.731,1.788,1.135,2.648
			c-0.547,0.786-0.811,1.79-0.859,2.736C0.246,5.998,0.344,6.661,0.48,7.262c0.119,0.601,0.443,1.32,0.869,1.761
			c0.829,0.853,2.073,1.381,3.284,1.363"/>
		<g>
			<g>
				<path class="st3" d="M4.604,10.307l0.008-0.011c-0.024,0.009-0.054,0.016-0.076,0.024L4.604,10.307z"/>
				<path class="st3" d="M4.119,10.282c0.041,0.064,0.203-0.002,0.274,0.04c0.018-0.011,0.031-0.028,0.039-0.041
					C4.347,10.282,4.206,10.318,4.119,10.282C4.161,10.34,4.194,10.307,4.119,10.282z"/>
				<path class="st3" d="M4.305,10.155c0.007,0.007,0.003,0.01-0.009,0.016c0.02-0.005,0.042-0.005,0.065-0.006
					C4.352,10.159,4.335,10.156,4.305,10.155C4.32,10.178,4.329,10.159,4.305,10.155z"/>
				<path class="st3" d="M4.253,10.187C4.302,10.186,4.22,10.168,4.253,10.187L4.253,10.187z"/>
				<path class="st3" d="M4.023,10.171c0.025-0.001,0.046-0.006,0.066-0.009c-0.006-0.006-0.065-0.025-0.048-0.028
					C3.977,10.132,3.993,10.15,4.023,10.171z"/>
				<path class="st3" d="M3.957,10.199l0.033-0.001C3.987,10.19,3.977,10.188,3.957,10.199z"/>
				<path class="st3" d="M4.105,10.205c0.037,0.017,0.083,0.03,0.015,0.039C4.246,10.253,4.23,10.215,4.105,10.205z"/>
				<path class="st3" d="M4.088,10.331l0.05,0.023l0.047-0.011C4.164,10.347,4.088,10.316,4.088,10.331z"/>
				<path class="st3" d="M3.729,10.066c0.002,0.014,0.008,0.03,0.017,0.047c0.016,0,0.033-0.002,0.052-0.002
					C3.76,10.101,3.738,10.083,3.729,10.066C3.722,10.076,3.728,10.082,3.729,10.066z"/>
				<path class="st3" d="M3.747,10.113l-0.073,0.001C3.734,10.133,3.749,10.128,3.747,10.113z"/>
				<path class="st3" d="M3.937,10.252l0.125-0.021C4.021,10.235,3.901,10.242,3.937,10.252z"/>
				<path class="st3" d="M3.467,10.003C3.494,9.992,3.436,9.959,3.47,9.955c-0.053-0.008-0.1-0.004-0.134,0.002
					C3.385,9.965,3.432,9.976,3.467,10.003C3.502,9.99,3.418,9.973,3.467,10.003z"/>
				<path class="st3" d="M3.268,9.958c0.02,0.002,0.041,0,0.067-0.001C3.314,9.955,3.29,9.954,3.268,9.958z"/>
				<path class="st3" d="M3.555,10.079c-0.004-0.014-0.02-0.029-0.048-0.043C3.506,10.048,3.514,10.068,3.555,10.079
					C3.55,10.072,3.546,10.075,3.555,10.079z"/>
				<path class="st3" d="M3.526,10.071c-0.003-0.007-0.023-0.014-0.058-0.016L3.526,10.071z"/>
				<path class="st3" d="M3.856,10.183c-0.047,0.01-0.139,0.015-0.057,0.052C3.834,10.219,3.786,10.196,3.856,10.183z"/>
				<path class="st3" d="M3.588,10.126c0.02,0.009,0.051,0.019,0.073,0.028c-0.008-0.012-0.003-0.021,0.012-0.027
					C3.646,10.126,3.614,10.124,3.588,10.126z"/>
				<polygon class="st3" points="3.547,10.126 3.588,10.126 3.559,10.116 				"/>
				<path class="st3" d="M3.383,10.023c-0.032,0.004-0.069,0-0.111-0.016c0.04,0.022,0.081,0.037,0.128,0.047
					C3.405,10.047,3.43,10.036,3.383,10.023C3.346,10.029,3.43,10.034,3.383,10.023z"/>
				<path class="st3" d="M2.892,9.867C2.901,9.886,2.894,9.87,2.892,9.867C2.892,9.87,2.892,9.867,2.892,9.867z"/>
				<path class="st3" d="M3.403,10.06c0.031,0.013,0.055,0.016,0.072,0.008C3.411,10.048,3.385,10.045,3.403,10.06
					C3.435,10.075,3.393,10.059,3.403,10.06z"/>
				<path class="st3" d="M3.156,9.933c0.014,0.012,0.03,0.023,0.048,0.035C3.193,9.952,3.166,9.928,3.156,9.933z"/>
				<path class="st3" d="M3.344,10.014c-0.014,0.004-0.03,0.003-0.046,0.006C3.347,10.039,3.364,10.03,3.344,10.014
					C3.324,10.015,3.346,10.02,3.344,10.014z"/>
				<path class="st3" d="M2.701,9.99c0.039-0.055,0.17,0.084,0.211,0.039c0.035-0.036,0.014-0.095-0.016-0.154
					C2.885,9.891,2.857,9.891,2.81,9.879c0.018,0.027,0.095,0.073,0.094,0.092c-0.01,0.057-0.122-0.059-0.135-0.072
					c0.025,0.051-0.14,0.002-0.142,0.046C2.653,9.95,2.689,9.963,2.718,9.968C2.702,9.97,2.695,9.979,2.701,9.99
					C2.719,9.968,2.681,9.973,2.701,9.99z"/>
				<path class="st3" d="M3.031,9.929C3.062,9.928,3.01,9.9,2.974,9.862C2.937,9.857,2.912,9.861,2.9,9.869
					C2.949,9.894,3.021,9.92,3.031,9.929z"/>
				<path class="st3" d="M3.195,9.983c-0.03,0.018-0.108,0.01-0.076,0.053c0.085,0.031,0.069-0.003,0.128,0.005
					c-0.025-0.003-0.043-0.012-0.056-0.024c0.009-0.006,0.041,0.003,0.031-0.013C3.185,9.95,3.356,10.062,3.206,9.967
					C3.214,9.976,3.201,9.98,3.195,9.983C3.143,9.956,3.218,9.984,3.207,9.97L3.062,9.935C3.104,9.957,3.149,9.973,3.195,9.983
					C3.163,10.004,3.127,9.964,3.195,9.983z"/>
				<path class="st3" d="M3.705,10.285C3.699,10.28,3.7,10.278,3.7,10.275C3.69,10.278,3.687,10.278,3.705,10.285z"/>
				<path class="st3" d="M3.649,10.253c0.062-0.007,0.055,0.005,0.052,0.025c0.12-0.012-0.178-0.106-0.108-0.115
					C3.602,10.189,3.618,10.219,3.649,10.253C3.658,10.25,3.614,10.214,3.649,10.253z"/>
				<path class="st3" d="M3.316,10.106c-0.035-0.007-0.082-0.018-0.123-0.028c0.012,0.016,0.032,0.035,0.053,0.049
					C3.275,10.117,3.293,10.125,3.316,10.106z"/>
				<path class="st3" d="M2.885,9.848C2.895,9.84,2.906,9.833,2.913,9.825L2.831,9.837L2.885,9.848z"/>
				<path class="st3" d="M2.738,9.781c0.009-0.005,0.01-0.015,0.017-0.022C2.688,9.743,2.735,9.765,2.738,9.781z"/>
				<path class="st3" d="M2.179,9.46C2.209,9.473,2.186,9.457,2.179,9.46L2.179,9.46z"/>
				<path class="st3" d="M2.215,9.496c-0.009-0.009-0.019-0.019-0.03-0.029C2.188,9.471,2.199,9.482,2.215,9.496z"/>
				<path class="st3" d="M2.218,9.48c0.009,0.008,0.018,0.013,0.023,0.016C2.248,9.496,2.246,9.491,2.218,9.48z"/>
				<path class="st3" d="M2.137,9.434c0.014,0.012,0.03,0.022,0.048,0.031C2.18,9.455,2.166,9.445,2.137,9.434
					C2.154,9.446,2.158,9.447,2.137,9.434z"/>
				<g>
					<path class="st3" d="M2.443,9.707C2.377,9.693,2.401,9.703,2.437,9.75C2.478,9.8,2.407,9.755,2.34,9.711
						C2.429,9.638,1.979,9.495,2.027,9.58C2.044,9.59,2.064,9.598,2.079,9.607c0.048,0.105-0.214-0.12-0.244-0.147
						c-0.038-0.027-0.1-0.074-0.159-0.119C1.62,9.291,1.571,9.239,1.56,9.206c0.022,0.039,0.082,0.076,0.11,0.088
						C1.653,9.271,1.641,9.245,1.618,9.223c0.073,0.07,0.118,0.178,0.176,0.147c0.028-0.018,0.092-0.05-0.03-0.137
						c0,0-0.297-0.144-0.28-0.16c0.036-0.031-0.046-0.07-0.125-0.118C1.28,8.91,1.183,8.872,1.161,8.888
						c0.042,0.034,0.168,0.126,0.152,0.175c-0.05-0.036-0.138-0.13-0.165-0.118C1.144,8.921,1.3,8.981,1.133,8.881
						c0.064,0.021-0.011-0.087-0.091-0.203C0.974,8.554,0.913,8.417,0.949,8.412C0.889,8.337,0.774,8.276,0.76,8.32
						C0.721,8.26,0.722,8.212,0.687,8.149C0.692,8.174,0.691,8.193,0.69,8.207c-0.024-0.04-0.024-0.08-0.054-0.077
						C0.604,8.07,0.636,8.026,0.607,7.955c-0.052-0.123-0.14-0.098-0.135-0.081c-0.026-0.067,0.024-0.102-0.01-0.197
						c-0.021-0.051-0.07-0.093-0.074-0.16c0.109,0.153-0.006-0.096-0.009-0.097c0.034,0.007,0.147,0.07,0.054-0.109
						C0.384,7.214,0.317,7.138,0.279,7.154C0.31,7.229,0.34,7.307,0.38,7.384C0.343,7.401,0.295,7.222,0.257,7.242L0.225,7.018
						c0.034,0.13,0.043,0.062,0.043,0.006c0.002-0.1,0.045,0.014,0.075,0C0.322,6.966,0.239,6.875,0.281,6.83
						c0.022-0.023,0.061-0.025,0.095,0.003c-0.029-0.186-0.143-0.127-0.16-0.32c-0.003,0.022-0.01,0.044-0.008,0.065
						C0.201,6.559,0.185,6.394,0.176,6.408C0.19,6.375,0.233,6.319,0.26,6.368c-0.037-0.047-0.06-0.094-0.093-0.143
						c0.023,0.048,0.064-0.009,0.09,0.007C0.252,6.166,0.169,6.134,0.162,6.177C0.184,6.106,0.2,6.039,0.227,5.984
						C0.215,5.939,0.155,5.989,0.149,6.018C0.132,5.961,0.124,5.911,0.133,5.852c0.056,0.195,0.061-0.097,0.054-0.204
						c-0.019-0.165-0.035-0.33-0.008-0.506C0.173,5.193,0.213,5.126,0.212,5.054C0.263,4.958,0.14,4.9,0.205,4.803
						c-0.016,0.089,0.001,0.12,0.027,0.116C0.218,4.816,0.265,4.657,0.195,4.683c0.024-0.052,0.029-0.095,0.057-0.087L0.249,4.393
						c0.007,0.025,0.024,0.021,0.038-0.023c-0.026,0.089,0.01,0.23-0.044,0.275c0.035,0.008,0.076-0.02,0.1,0.034
						c0.018-0.189-0.019-0.311-0.04-0.434c-0.012-0.083,0.032-0.14,0.073-0.229L0.359,3.999l0.058-0.016
						C0.414,3.972,0.398,3.89,0.427,3.952c0.021-0.116,0.046-0.006,0.064,0.035C0.387,4.092,0.518,4.101,0.51,4.029
						C0.516,4.057,0.527,4.067,0.543,4.06c0.007-0.046,0.01-0.096,0.016-0.144C0.458,4.036,0.536,3.72,0.437,3.834
						c0.092-0.093,0.056-0.249,0.081-0.373C0.529,3.477,0.542,3.483,0.56,3.482c-0.008-0.09,0.081-0.169,0.122-0.228
						c0.05-0.065-0.003-0.121,0.006-0.161c0.003,0.009,0.009,0.009,0.02-0.001C0.707,3.067,0.714,3.033,0.71,3.012
						c0.047-0.036,0.006,0.12,0.069-0.087C0.8,2.849,0.841,2.782,0.896,2.714c0.071-0.13-0.062-0.006-0.037-0.063
						c0.025-0.053,0.078-0.032,0.108-0.059c0.054-0.045,0.041-0.086,0.051-0.135C1.02,2.484,1.114,2.391,1.118,2.385
						c0.07-0.075,0.105-0.146,0.167-0.222c0.017-0.025,0.111-0.141,0.096-0.129C1.409,2.01,1.428,2.036,1.448,2.017
						C1.397,2.069,1.365,2.14,1.408,2.127C1.423,2.1,1.448,2.066,1.456,2.04c0.021-0.001-0.031,0.048,0.01,0.021
						c0.018-0.039,0.033-0.081,0.038-0.116c0.028-0.028,0.089-0.09,0.127-0.128C1.61,1.834,1.659,1.823,1.705,1.736
						c-0.024,0.046,0.11-0.04,0.132-0.113c0.006-0.028,0.003-0.075,0.076-0.099L1.887,1.548c0.016-0.003,0.04-0.016,0.06-0.021
						C1.925,1.492,1.992,1.429,2.06,1.366c0.071-0.057,0.144-0.112,0.122-0.15c0.089-0.016-0.01,0.059-0.048,0.117
						c0.027-0.01,0.062-0.016,0.093-0.03c-0.03,0.02-0.059,0.043-0.086,0.065c0.117-0.034,0.185-0.137,0.231-0.202
						C2.42,1.153,2.414,1.253,2.529,1.129c0.044-0.05-0.094-0.02-0.021-0.073l0.097,0.003c0.076-0.085,0.349-0.162,0.369-0.202
						C3.067,0.828,3.145,0.76,3.218,0.72c0.079-0.043,0.133-0.034,0.164-0.016c0.026-0.007,0.13-0.081,0.156-0.087
						C3.465,0.651,3.479,0.684,3.476,0.71C3.51,0.693,3.544,0.674,3.583,0.654c-0.028,0.02-0.03,0.031-0.007,0.036
						c0.04-0.019,0.231-0.108,0.115-0.087c0.153-0.041,0.2-0.07,0.183-0.009c-0.06-0.017-0.09,0.025-0.109,0.046
						c0.109-0.032,0.04,0,0.097,0.004C3.95,0.618,3.977,0.578,3.95,0.557c0.101-0.005,0.151-0.009,0.235-0.045
						C4.172,0.526,4.182,0.54,4.169,0.553c0.032-0.009,0.06-0.016,0.094-0.026l-0.07,0.059c0.109-0.002,0.087-0.03,0.118-0.057
						c0.045-0.042,0.137-0.006,0.113,0.019C4.476,0.535,4.53,0.476,4.586,0.51c0.06-0.017-0.067-0.035-0.011-0.049
						c0.073-0.016,0.14,0.018,0.212,0.024c0.051-0.011-0.031-0.045-0.081-0.032c0.225-0.014,0.19,0.117,0.403,0.09
						C5.026,0.512,5.17,0.481,4.991,0.468c0.103-0.01,0.179,0.055,0.278,0.038L5.2,0.539C5.237,0.542,5.267,0.54,5.294,0.534
						c-0.007,0.01-0.003,0.023-0.013,0.031c0.102-0.031,0.227,0.053,0.297,0.002C5.556,0.574,5.555,0.583,5.576,0.593
						C5.615,0.598,5.679,0.591,5.709,0.62C5.639,0.625,5.548,0.594,5.46,0.593C5.348,0.594,5.416,0.611,5.473,0.626
						C5.482,0.625,5.49,0.622,5.491,0.617c0.005,0.004,0.001,0.008-0.004,0.012c0.025,0.006,0.047,0.009,0.049,0.013
						c-0.036,0.002-0.066,0.009-0.09,0.019c0.006,0.003,0.014,0.006,0.02,0.008c0.015-0.001,0.035-0.004,0.073-0.01
						C5.518,0.667,5.518,0.674,5.536,0.685C5.622,0.69,5.686,0.678,5.77,0.685l-0.158-0.03c0.052-0.102,0.534,0.134,0.698,0.194
						c0.099,0.024,0.18,0.057,0.264,0.119C6.567,0.961,6.558,0.985,6.548,1.003c0.118,0.058,0.164-0.019,0.15-0.028
						c0.058,0.031,0.05,0.079,0.113,0.123c0.031,0.007,0.066,0.016,0.13,0.041c-0.012-0.003-0.016-0.002-0.02-0.001
						c0.03,0.009,0.06,0.02,0.087,0.044c-0.047-0.013-0.066-0.014-0.07-0.009l0.005,0.007C6.96,1.197,7.076,1.252,7.076,1.252
						C7.07,1.255,7.061,1.259,7.053,1.263c0.008,0.002,0.018,0.008,0.026,0.01C7.126,1.308,7.18,1.364,7.243,1.416
						c0.041,0.004,0.071-0.002,0.08-0.019L7.1,1.283c0.015-0.037,0.166,0.071,0.186,0.033l0.165,0.15
						C7.343,1.387,7.383,1.445,7.416,1.489c0.015,0.021,0.02,0.029,0.02,0.035c0.078,0.052,0.186,0.119,0.303,0.215
						C7.862,1.831,7.953,1.93,7.991,1.968C7.978,1.949,7.965,1.929,7.95,1.909c0.039,0.047,0.138,0.11,0.162,0.177
						C8.046,2.016,8.044,2.077,8.092,2.15C8.1,2.148,8.119,2.157,8.127,2.153L8.127,2.186C8.142,2.207,8.15,2.211,8.154,2.209
						C8.153,2.206,8.154,2.201,8.152,2.201L8.16,2.205c0.006-0.011,0.005-0.033,0.038,0.009c-0.004,0.011,0.001,0.02,0.002,0.03
						c0.022,0.027,0.039,0.057,0.056,0.09C8.236,2.321,8.23,2.314,8.221,2.308c0.053,0.097,0.16,0.233,0.177,0.32l0.02,0.026
						c0.015-0.021-0.083-0.142-0.025-0.119c0.005,0.028,0.015,0.061,0.035,0.1c0.001-0.019,0.015-0.019,0.017-0.036l0.069,0.133
						l0.034,0.068c0.013,0.025,0.021,0.044,0.021,0.044C8.62,2.94,8.691,3.024,8.738,3.128C8.768,3.152,8.8,3.184,8.797,3.243
						c-0.019-0.05-0.034-0.079-0.053-0.092L8.75,3.164c-0.012,0.039,0.04,0.135,0.081,0.163C8.828,3.34,8.815,3.326,8.805,3.32
						c0.02,0.036,0.031,0.058,0.057,0.033C8.861,3.412,8.87,3.45,8.846,3.457l0.001,0.01l0.08,0.181
						C8.912,3.628,8.896,3.637,8.898,3.685C8.896,3.639,8.875,3.587,8.852,3.538c0.002,0.055-0.007,0.106,0.002,0.145
						c0.026,0.04,0.051,0.08,0.078,0.12C8.974,3.872,8.968,3.934,8.971,4.03l0.021,0.002L8.951,4.074
						c0.005,0.008,0.055,0.07,0.005,0.032C8.998,4.213,8.915,4.138,8.881,4.11c0.041-0.141-0.079-0.09-0.036-0.03
						C8.828,4.059,8.812,4.056,8.799,4.071l0.057,0.133c0.022-0.154,0.129,0.152,0.15,0.003c-0.021,0.126,0.09,0.235,0.149,0.344
						C9.139,4.543,9.122,4.545,9.109,4.557c0.059,0.07,0.036,0.187,0.038,0.258c0.005,0.077,0.075,0.1,0.091,0.137
						C9.232,4.945,9.225,4.949,9.223,4.965c0.014,0.018,0.029,0.054,0.046,0.068c-0.018,0.059-0.075-0.102-0.01,0.116
						c0.03,0.081,0.029,0.155,0.018,0.24C9.282,5.536,9.333,5.361,9.34,5.421c0.008,0.056-0.049,0.069-0.06,0.107
						C9.256,5.593,9.294,5.621,9.314,5.665c-0.017-0.018-0.036,0.111-0.04,0.117C9.256,5.883,9.26,5.959,9.256,6.057
						c-0.002,0.03-0.007,0.18-0.001,0.16c-0.012,0.033-0.041,0.02-0.046,0.052c0.013-0.072-0.009-0.151-0.035-0.115
						C9.182,6.184,9.18,6.227,9.187,6.256c-0.016,0.011-0.002-0.06-0.019-0.015c0.008,0.043,0.015,0.086,0.029,0.118
						C9.188,6.393,9.178,6.479,9.17,6.535C9.176,6.51,9.144,6.546,9.159,6.642C9.151,6.59,9.09,6.738,9.12,6.809
						c0.013,0.026,0.043,0.064-0.003,0.127l0.005-0.038C9.11,6.911,9.099,6.934,9.085,6.952C9.165,6.984,9.022,7.305,9.09,7.341
						C9.028,7.407,9.069,7.292,9.056,7.22C9.041,7.244,9.018,7.28,9.005,7.301c0.015-0.034,0.02-0.071,0.025-0.106
						c-0.061,0.1-0.068,0.22-0.063,0.299C8.938,7.536,8.88,7.452,8.871,7.622c-0.003,0.066,0.083-0.044,0.06,0.046
						C8.905,7.687,8.882,7.709,8.854,7.725C8.832,7.836,8.668,8.066,8.678,8.112C8.617,8.19,8.586,8.289,8.553,8.366
						C8.512,8.449,8.464,8.475,8.428,8.481c-0.011,0.021-0.075,0.135-0.091,0.16c0.047-0.07,0.018-0.089,0.007-0.112
						C8.32,8.564,8.299,8.601,8.279,8.634c0.017-0.032,0.01-0.044-0.013-0.035C8.244,8.638,8.125,8.818,8.211,8.738
						C8.099,8.858,8.075,8.908,8.059,8.846c0.06-0.019,0.068-0.071,0.071-0.099c-0.079,0.089-0.032,0.02-0.086,0.05
						c-0.06,0.065-0.047,0.112-0.02,0.115c-0.066,0.06-0.091,0.075-0.131,0.162c-0.001-0.019-0.017-0.022-0.019-0.04
						C7.854,9.062,7.84,9.087,7.822,9.118l0.014-0.09c-0.083,0.073-0.049,0.08-0.054,0.12C7.774,9.209,7.69,9.249,7.687,9.21
						C7.656,9.252,7.658,9.332,7.591,9.344C7.56,9.398,7.666,9.327,7.635,9.371C7.591,9.433,7.519,9.451,7.461,9.492
						c-0.03,0.046,0.051,0.012,0.082-0.027C7.386,9.624,7.32,9.507,7.19,9.672C7.27,9.637,7.188,9.76,7.324,9.642
						C7.263,9.724,7.156,9.72,7.095,9.803l0.028-0.073C7.094,9.757,7.072,9.781,7.057,9.802C7.059,9.79,7.044,9.784,7.046,9.771
						C6.993,9.864,6.845,9.894,6.825,9.972c0.013-0.019,0.007-0.027-0.016-0.022C6.775,9.967,6.733,10.02,6.694,10.02
						C6.74,9.963,6.833,9.932,6.899,9.874c0.125-0.119-0.075,0.017-0.091,0.013c0.027-0.026,0.048-0.049,0.058-0.071
						c-0.142,0.047-0.172,0.133-0.259,0.202l0.135-0.09c0.035,0.115-0.49,0.263-0.652,0.318c-0.091,0.048-0.172,0.077-0.277,0.087
						c0.014-0.001-0.02-0.064-0.001-0.076c-0.08,0.027-0.097,0.047-0.135,0.08c-0.007-0.008-0.028-0.01-0.037-0.018
						c-0.075,0.057-0.078,0.08-0.211,0.129c0.064-0.033-0.088-0.02-0.039-0.05c-0.062,0.012-0.109,0.03-0.146,0.052
						c-0.042,0.008-0.099,0.009-0.16,0.015c-0.03,0.005-0.061,0.009-0.091,0.012l-0.01,0.003l-0.01,0.001l-0.002,0.001l-0.006,0
						l-0.008,0.001l-0.014-0.001l-0.09-0.078l0.05-0.119l0.017-0.006l0.006-0.004L4.93,10.27c0.004-0.001,0.002,0,0.002,0
						l0.022-0.006c0.014-0.002,0.027-0.01,0.043-0.012c-0.01-0.015,0.024-0.027,0.083-0.046c0.03-0.009,0.068-0.016,0.104-0.027
						l0.016-0.004l0.006-0.002l0.006,0l0.008-0.001l0.01-0.002c0.014,0.005-0.002-0.012,0.074,0.017
						c0.196,0.207-0.07,0.317-0.007,0.275l-0.019,0.005l-0.01,0.003l-0.034,0.007L5.168,10.49c-0.179,0.043-0.419,0.048-0.535-0.005
						c0.029,0.015,0.065,0.034,0.095,0.04c-0.037-0.005-0.116-0.032-0.155-0.049c-0.039-0.018-0.073-0.037-0.08-0.049
						c0.022,0.002,0.047,0.005,0.041-0.011c0-0.015-0.024-0.04-0.037-0.046c-0.004,0.004-0.011,0.021-0.008,0.015
						c0.003-0.019,0.015-0.018,0.015-0.031c0.008-0.045-0.012-0.004-0.011-0.01c0,0.004,0,0,0.002-0.004
						c0.002-0.002,0.004-0.005,0.002-0.002L4.49,10.349l-0.005,0.009l-0.005,0.007l-0.002,0l0,0l0,0l0.058,0.029l0,0l0,0l0,0.002
						c-0.012-0.014-0.032-0.011-0.039-0.008c-0.004-0.002-0.013,0.007,0.003,0.038c0.031,0.063,0.108,0.149,0.103,0.209
						c0.072,0.019-0.091-0.154-0.018-0.126c0.006,0.03,0.017,0.055,0.043,0.102c-0.001-0.019,0.015-0.022,0.016-0.04
						c0.03,0.042,0.054,0.104,0.074,0.168l0.008,0.087c-0.001,0.034-0.003,0.068-0.016,0.102c-0.02,0.087-0.115,0.157-0.184,0.162
						c-0.132,0.014-0.214-0.016-0.307-0.037c-0.02-0.032-0.155-0.064-0.224-0.058c-0.011-0.021,0.077,0,0.043-0.025
						c-0.122,0.001-0.247-0.052-0.313-0.09c0.059-0.078,0.134-0.143,0.126-0.18c0.037,0,0.112-0.051,0.166-0.079
						c0.059-0.028,0.1-0.032,0.114-0.001l0.016-0.039c0.036,0.023-0.074,0.117-0.027,0.126c-0.019,0.015-0.053,0.04-0.049,0.053
						c0.001,0.01,0.005,0.022,0.013,0.034c0.011-0.006,0.064-0.021,0.056-0.03c0.035,0.009,0.045,0.003,0.046-0.016
						c-0.039,0.052,0.434,0.208,0.282,0.055l-0.011-0.024c-0.021-0.041-0.071-0.096-0.121-0.163
						c-0.024-0.029-0.049-0.076-0.065-0.125c-0.01-0.03-0.017-0.06-0.021-0.089c0.003-0.033,0.011-0.071,0.02-0.102
						c0.011-0.036,0.042-0.06,0.069-0.091l0.021-0.019l0.002-0.001l0.02-0.016l0.002,0l0.004-0.002l0.006-0.004
						c0.017-0.006,0.013-0.008,0.048-0.018c0.06-0.012,0.091-0.004,0.101-0.006c0.012-0.002,0.015-0.009-0.009-0.024
						c0.115,0.075,0.109,0.018,0.178,0.041c0.028,0.041,0.04,0.072,0.059,0.099c0.039-0.013,0.012-0.029,0.022-0.046
						c0.07,0.005,0.178,0.013,0.283,0.006c0.028-0.006,0.058-0.007,0.085-0.01l0.04-0.006l0.017-0.002l0.002,0l0,0l0.019,0.102
						l-0.015-0.072C5.215,10.191,5.219,10.2,5.219,10.2l0,0l-0.002,0l-0.004,0.002L5.2,10.206c-0.004,0.002-0.008,0.002-0.025,0.012
						c-0.017-0.054-0.106,0.181,0.012,0.214c0.073,0.026,0.051,0.009,0.06,0.014c0.02-0.003,0.006,0,0.008-0.001l-0.012,0.001
						c-0.052,0.008-0.106,0.023-0.153,0.042c-0.047-0.007-0.002-0.052-0.077-0.046c0.03,0.01,0.028,0.02,0.014,0.028
						c-0.008,0.006-0.016,0.009-0.03,0.014L4.979,10.49c-0.002,0-0.006,0.001,0,0l0.014,0c0.004-0.004,0.002,0,0.026-0.014
						l0.033-0.179L4.97,10.252c-0.027,0-0.021,0.002-0.025,0.002l-0.004,0c-0.002,0,0,0,0,0l0.012-0.002
						c0.06-0.018,0.127-0.034,0.091-0.048c0.078,0.047,0.286-0.022,0.271,0.062c0.079-0.011,0.091-0.054,0.042-0.059
						c0.091-0.015,0.257-0.077,0.302-0.087c0.052-0.007,0.118-0.028,0.171-0.042c0.125-0.034,0.318-0.112,0.399-0.088
						c-0.08-0.017,0.122-0.09-0.02-0.083C6.31,9.864,6.352,9.835,6.401,9.848C6.466,9.873,6.559,9.753,6.545,9.74L6.6,9.705
						C6.572,9.72,6.525,9.801,6.617,9.764C6.614,9.751,6.673,9.662,6.722,9.667C6.624,9.716,6.703,9.741,6.803,9.661l-0.058-0.02
						c0.039-0.027,0.126-0.083,0.231-0.155C7.078,9.408,7.2,9.318,7.312,9.224c0.233-0.187,0.411-0.37,0.435-0.328
						c-0.07,0.071,0.036,0.029,0.086-0.038C7.755,8.906,7.879,8.71,7.739,8.845C7.765,8.804,7.804,8.75,7.821,8.711
						C7.809,8.677,7.837,8.609,7.904,8.542c0.06-0.058,0.124-0.101,0.186-0.158c0.068-0.055,0.075-0.123,0.09-0.095
						c0.034-0.1,0.262-0.334,0.252-0.378c0.012,0.007,0.03-0.008,0.039,0.002c0.009-0.07,0.014-0.147,0.061-0.237
						c0.024-0.037,0.044-0.073,0.066-0.112C8.602,7.582,8.61,7.582,8.621,7.567c-0.01-0.06-0.01-0.123,0.033-0.225
						c0.022-0.009,0.052-0.11,0.069-0.184c0.091,0.027,0.039-0.356,0.156-0.386C8.864,6.73,8.859,6.537,8.889,6.498
						C8.855,6.42,9.026,6.055,8.905,6.177C8.95,6.091,8.911,5.951,8.903,5.872C8.89,5.759,8.96,5.791,8.976,5.777
						C8.977,5.669,8.885,5.778,8.93,5.632c0.02,0.095,0.134-0.174,0.124-0.194L9.036,5.48C9.015,5.375,9.132,5.116,9.017,5.203
						c0.004-0.058-0.002-0.229-0.005-0.277c0.001-0.017-0.059-0.29-0.057-0.138c-0.009-0.037-0.078-0.285-0.08-0.301
						C8.833,4.494,8.788,4.269,8.776,4.192C8.802,4.277,8.813,4.23,8.823,4.201c-0.038-0.032-0.06-0.075-0.051-0.156
						c-0.038,0.003-0.115,0.02-0.155-0.144c0.009,0.027,0.021,0.041,0.032,0.036C8.648,3.913,8.643,3.893,8.631,3.88
						C8.647,3.885,8.66,3.889,8.676,3.888C8.616,3.815,8.638,3.7,8.601,3.593c0.02,0.034,0.03-0.004,0.042-0.019
						C8.618,3.577,8.619,3.541,8.62,3.504C8.614,3.507,8.612,3.511,8.613,3.521c-0.015-0.06-0.026-0.066-0.033-0.02
						c0.008-0.085-0.024-0.168-0.032-0.244c0-0.047,0.008-0.131-0.037-0.18C8.474,3.034,8.452,3.096,8.407,3.053
						c-0.018-0.017-0.02-0.021-0.039-0.051c-0.03-0.042-0.025-0.044-0.036-0.066c-0.011-0.035-0.02-0.07-0.035-0.104
						c-0.031-0.06-0.045-0.062-0.08-0.106C8.169,2.664,8.131,2.595,8.081,2.528C8.057,2.504,8.03,2.481,8.003,2.463
						c0.022,0.01,0.031,0.012,0.043,0.008L8.029,2.445C8.014,2.423,7.996,2.392,7.98,2.364L7.94,2.346
						c0.006-0.002,0.01-0.014,0.011-0.022c-0.02-0.027-0.036-0.042-0.039-0.007C7.894,2.227,7.852,2.273,7.814,2.237L7.792,2.155
						l-0.05-0.036c0,0.005-0.004,0.012-0.008,0.014L7.687,2.083c-0.009-0.001-0.015-0.004-0.02-0.004
						c0.001-0.006,0-0.012-0.002-0.016C7.627,2.03,7.586,1.991,7.55,1.953C7.51,1.958,7.472,1.981,7.487,1.915
						c-0.081-0.039-0.116-0.086-0.08-0.02C7.361,1.82,7.139,1.637,7.054,1.566c-0.032-0.03-0.03-0.065-0.078-0.094
						C6.882,1.413,6.875,1.467,6.782,1.415C6.685,1.361,6.747,1.32,6.545,1.263c0.009-0.021-0.008-0.064-0.07-0.106
						C6.426,1.18,6.331,1.133,6.276,1.082c-0.053-0.005-0.109,0.023-0.163,0.01c-0.094-0.026-0.2-0.116-0.228-0.145
						C5.872,1.013,5.724,0.972,5.604,0.932C5.54,0.906,5.494,0.887,5.423,0.87C5.308,0.851,5.206,0.848,5.088,0.842
						c0.02,0.002-0.186,0.001-0.143-0.004C4.875,0.849,4.82,0.857,4.731,0.848C4.665,0.843,4.642,0.834,4.566,0.841
						c0.094-0.019,0.012-0.04-0.011-0.065L4.53,0.777C4.516,0.785,4.497,0.791,4.488,0.798C4.473,0.792,4.491,0.78,4.491,0.774
						L4.454,0.774C4.373,0.789,4.198,0.832,4.323,0.854C4.297,0.855,4.255,0.88,4.26,0.895c-0.065-0.023-0.17-0.01-0.221-0.043
						c0.093,0.04-0.198,0.048-0.132,0.094c-0.026-0.01-0.055-0.009-0.076-0.014C3.763,0.943,3.692,0.951,3.625,0.959
						C3.54,0.982,3.496,1.027,3.498,0.996c-0.047,0.029-0.151,0.06-0.244,0.086C3.162,1.117,3.077,1.146,3.067,1.16
						C3.063,1.149,3.04,1.148,3.038,1.134c-0.05,0.049-0.105,0.101-0.195,0.151c-0.038,0.02-0.078,0.04-0.116,0.053
						C2.735,1.324,2.73,1.319,2.709,1.321C2.679,1.376,2.637,1.416,2.543,1.475C2.519,1.467,2.439,1.537,2.376,1.582
						C2.319,1.5,2.129,1.838,2.021,1.795c-0.012,0.043-0.125,0.2-0.171,0.215C1.832,2.091,1.494,2.295,1.658,2.266
						c-0.084,0.043-0.14,0.171-0.17,0.244c-0.05,0.106-0.09,0.04-0.111,0.043C1.316,2.644,1.454,2.604,1.335,2.698
						c0.033-0.089-0.211,0.068-0.212,0.092l0.041-0.025C1.13,2.865,0.887,3.019,1.032,3.01C0.993,3.056,0.899,3.204,0.874,3.246
						C0.86,3.258,0.746,3.509,0.836,3.39C0.822,3.428,0.724,3.669,0.717,3.677c0.042,0.022-0.052,0.226-0.079,0.296
						C0.66,3.89,0.624,3.921,0.602,3.937c0.014,0.048,0.015,0.095-0.028,0.158c0.033,0.018,0.109,0.036,0.075,0.19
						c0-0.03-0.004-0.046-0.015-0.047c-0.011,0.02-0.016,0.041-0.01,0.058C0.613,4.285,0.602,4.277,0.59,4.27
						c0.021,0.092-0.031,0.182-0.042,0.3c-0.008-0.044-0.028-0.01-0.047,0c0.055,0.021-0.084,0.172,0.001,0.137
						c-0.061,0.175-0.079,0.392-0.097,0.59C0.396,5.363,0.39,5.446,0.372,5.487C0.348,5.513,0.385,5.602,0.387,5.638
						c-0.009-0.008-0.02-0.003-0.028-0.01c0.03,0.078,0.038,0.176,0.073,0.256C0.397,5.829,0.378,5.852,0.36,5.915l0.067,0.101
						C0.411,6.015,0.399,6.038,0.386,6.041C0.402,6.084,0.405,6.13,0.4,6.181C0.397,6.164,0.391,6.163,0.386,6.173
						C0.44,6.188,0.444,6.37,0.494,6.404C0.455,6.449,0.518,6.537,0.479,6.57c0.028,0.04,0.113,0.052,0.043,0.093
						C0.55,6.744,0.542,6.8,0.562,6.73C0.553,6.806,0.553,6.906,0.587,7.014c0.036,0.128,0.11,0.245,0.093,0.363
						c0.001-0.027-0.006-0.05-0.02-0.065c0.043,0.142,0.062,0.266,0.092,0.389c0.039,0.12,0.083,0.241,0.162,0.373
						C0.961,8.168,1.04,8.244,1.091,8.343c0.053,0.082,0.076,0.181,0.145,0.252c0.082,0.091,0.091,0.148,0.174,0.246
						c0.053,0.072,0.137,0.117,0.205,0.182C1.601,9.013,1.759,9.142,1.724,9.12c0.06,0.039,0.11,0.056,0.178,0.122
						c0.047,0.047,0.059,0.069,0.123,0.11C1.929,9.304,2.003,9.396,1.996,9.419c0.02,0.005,0.049,0.017,0.066,0.017
						c0.009,0.02-0.046,0.003-0.015,0.031c0.059,0.024,0.269,0.136,0.176,0.03c0.021,0.018,0.073,0.025,0.08,0.009
						c0.035,0.06,0.121,0.115,0.142,0.172C2.398,9.587,2.627,9.772,2.606,9.694c0.018,0.032,0.051,0.05,0.062,0.078
						C2.587,9.723,2.495,9.722,2.443,9.707z"/>
				</g>
				<path class="st3" d="M2.487,9.626c-0.023-0.01-0.045-0.02-0.065-0.03c0.022,0.015,0.038,0.03,0.049,0.045
					C2.468,9.626,2.473,9.622,2.487,9.626z"/>
				<path class="st3" d="M2.994,10.087c0.021,0.001,0.049,0.014,0.038-0.008C3.005,10.072,2.94,10.06,2.994,10.087
					C3.005,10.088,2.95,10.064,2.994,10.087z"/>
				<path class="st3" d="M2.493,9.758c-0.005,0.028,0.042,0.04,0.093,0.06C2.542,9.799,2.623,9.788,2.493,9.758
					C2.486,9.787,2.552,9.771,2.493,9.758z"/>
				<path class="st3" d="M2.597,9.821c0.016,0.005,0.029,0.012,0.044,0.021C2.655,9.829,2.623,9.828,2.597,9.821z"/>
				<path class="st3" d="M2.072,9.414c0.017,0.021,0.034-0.022,0.04-0.004C2.155,9.396,1.955,9.348,2.072,9.414z"/>
				<path class="st3" d="M2.489,9.86C2.493,9.85,2.49,9.836,2.491,9.822C2.449,9.821,2.439,9.832,2.489,9.86z"/>
				<path class="st3" d="M2.135,9.626C2.199,9.672,2.176,9.658,2.23,9.68C2.224,9.675,2.139,9.614,2.135,9.626z"/>
				<path class="st3" d="M2.23,9.68c0.023,0.014,0.046,0.027,0.062,0.03C2.279,9.702,2.253,9.687,2.23,9.68z"/>
				<path class="st3" d="M2.38,9.817c-0.024-0.02-0.032-0.034-0.069-0.055L2.38,9.817z"/>
			</g>
		</g>
	</g>
	<g>
		<path class="st4" d="M8.398,5.659l0.119-0.032C8.701,5.686,8.635,5.719,8.8,5.691c-0.4-0.032-0.031-0.16-0.436-0.183l0.086-0.023
			c-0.004,0.008,0.017,0.01,0.015,0.018c0.193-0.047-0.291-0.046-0.233-0.108c0.032-0.019,0.092-0.036,0.139-0.021l-0.1-0.048
			c0.01-0.013,0.081-0.01,0.072,0.004L8.309,5.254l0.012,0.001C8.257,5.245,8.16,5.22,8.118,5.21
			C8.176,5.192,8.16,5.218,8.211,5.211L8.113,5.173C8.218,5.155,8.32,5.186,8.306,5.216c0.402-0.048-0.104-0.032,0.129-0.125
			L8.489,5.13C8.717,5.096,8.632,5.066,8.772,5.01C8.699,5.027,8.416,5.12,8.315,5.08c0.03-0.015,0.044-0.032-0.037-0.055
			c0.143-0.006,0.106-0.03,0.095-0.059l0.192-0.011c-0.058-0.03-0.152-0.021-0.24-0.033c0.016-0.039,0.158-0.06,0.282-0.081
			c0.026-0.063-0.232,0.066-0.272-0.002C8.405,4.782,8.322,4.752,8.2,4.708c0.059-0.042,0.116-0.009,0.168-0.03l-0.154-0.01
			c0.001-0.007,0.05-0.013,0.073-0.013C8.225,4.637,8.098,4.681,8.041,4.651C7.832,4.678,8.333,4.514,8.082,4.503
			c0.049-0.025,0.115-0.017,0.187-0.038C8.096,4.42,8.139,4.421,7.922,4.418l0.104-0.084C7.902,4.411,7.727,4.414,7.585,4.428
			C7.524,4.461,7.468,4.489,7.443,4.501c0,0-0.107-0.01-0.109-0.009c0.027-0.018,0.09-0.034,0.167-0.055
			c-0.019,0.004-0.032,0.005-0.047,0.01c0.059-0.043,0.164-0.075,0.27-0.096C7.692,4.369,7.655,4.388,7.621,4.408
			c0.111-0.026,0.239-0.05,0.342-0.088c-0.02,0.003-0.041-0.001-0.055-0.006c0.03-0.006,0.06-0.013,0.075-0.02
			c0.019-0.007-0.023,0-0.071,0.005l0.193-0.087L8.022,4.239L8.11,4.104C7.883,4.122,7.582,4.208,7.468,4.18
			c0.148-0.055,0.227-0.115,0.386-0.203C7.697,4.09,7.962,4.008,7.951,4.075c0.007-0.034,0.088-0.067,0.118-0.072
			c0,0-0.049-0.002-0.1-0.008C7.92,3.996,7.868,3.994,7.868,3.994c0.136-0.068,0.091-0.071,0.131-0.123
			C7.75,4.03,7.793,3.909,7.693,3.926c0.085-0.055,0.176-0.102,0.181-0.047c0.161-0.163-0.333,0.129-0.198-0.013
			c0.009,0.008-0.001,0.021,0.046-0.006c-0.091,0.03-0.064-0.06,0.016-0.099l0.007,0.009C7.738,3.685,7.608,3.592,7.41,3.747
			C7.435,3.725,7.65,3.559,7.691,3.529c0,0-0.185,0.11-0.362,0.227C7.153,3.874,6.983,3.998,6.983,3.998
			C7.149,3.863,7.5,3.479,7.632,3.441c0.013-0.033,0.023-0.076-0.06-0.05C7.558,3.42,7.363,3.628,7.34,3.63
			c0.146-0.196,0.074-0.107,0.183-0.29C7.501,3.384,7.249,3.611,7.237,3.585c0.04-0.033,0.234-0.239,0.266-0.257
			c0,0-0.069,0.047-0.142,0.094C7.293,3.473,7.223,3.521,7.223,3.521c0.052-0.032,0.198-0.201,0.25-0.282
			C7.433,3.293,7.433,3.191,7.396,3.202l-0.029,0.08C7.343,3.189,7.004,3.587,6.965,3.535c0.05-0.05,0.287-0.315,0.284-0.372
			c-0.125,0.12-0.57,0.598-0.682,0.678l0.051-0.085L6.52,3.826c0.168-0.202,0.551-0.587,0.725-0.718
			C7.27,3.03,7.31,3.012,7.27,2.992c0.045-0.083,0.104-0.094,0.119-0.09L7.34,2.789c-0.118,0.16-0.185,0.113-0.277,0.252
			c0,0,0.051-0.028,0.105-0.054C7.22,2.964,7.276,2.939,7.276,2.939c-0.119,0.16-0.387,0.415-0.418,0.355
			C6.892,3.22,7.073,3.009,7.11,2.956c-0.046,0.05-0.128,0.071-0.106,0.027l0.085-0.072c0.008-0.086-0.199,0.185-0.134,0
			C6.951,2.893,7.051,2.668,6.986,2.765C6.891,2.973,6.509,3.568,6.411,3.709c0.005-0.018,0.06-0.221,0.103-0.324
			c0.071-0.167,0.249-0.348,0.312-0.489C6.795,2.94,6.748,2.992,6.734,3.009c0.009-0.051,0.093-0.143,0.049-0.138
			c-0.108,0.171-0.053-0.05-0.1,0.139c-0.059,0.032-0.01-0.055-0.049-0.067C6.58,3.064,6.387,3.317,6.336,3.354
			c0.024-0.045,0.052-0.107,0.063-0.137C6.354,3.17,6.363,3.078,6.31,3.049c0.018-0.047,0.016-0.113,0.065-0.186
			C6.351,2.89,6.314,2.95,6.297,2.947C6.336,2.772,6.346,2.94,6.41,2.737c-0.052,0.105-0.114,0.127-0.17,0.181
			c-0.064,0.17,0.041,0.058,0.099,0.003C6.23,3.148,6.077,3.366,5.985,3.449C5.918,3.488,6.03,3.295,6.009,3.322
			C5.946,3.249,5.774,3.701,5.781,3.509C5.816,3.35,5.898,3.212,5.933,3.101c0.059-0.039,0.019,0.118,0.042,0.122l0-0.083
			c0.031-0.047,0.071-0.073,0.066-0.025c0.034-0.139-0.129-0.08-0.15-0.23c-0.03,0.047-0.07,0.091-0.083,0.155l0.03-0.016
			C5.813,3.152,5.74,3.18,5.746,3.244C5.69,3.321,5.615,3.446,5.603,3.367l0.05-0.177C5.637,3.242,5.643,3.301,5.672,3.251
			C5.631,3.326,5.69,2.999,5.598,3.221L5.584,3.35C5.53,3.428,5.443,3.602,5.429,3.538c-0.039,0.176,0.015-0.016-0.028,0.19
			c0.061-0.255,0.071,0.036,0.128-0.235C5.475,3.73,5.534,3.603,5.494,3.81c0.018-0.058,0.027-0.111,0.042-0.076
			c0.009-0.017,0.02-0.038,0.023-0.049L5.561,3.69l0-0.007c0.003-0.009,0.004-0.011,0-0.003c0.001-0.027,0.008-0.058,0.016-0.091
			c0.059-0.127,0.099-0.107,0.137-0.17c0.005,0.032-0.03,0.063-0.045,0.126l0.059-0.092C5.688,3.579,5.691,3.675,5.63,3.736
			l0.027,0.019C5.648,3.83,5.661,3.867,5.695,3.822c0.003,0.033,0.094-0.124,0.04-0.031l0.081-0.056L5.801,3.764
			C5.839,3.798,5.988,3.608,5.936,3.85c0.029-0.024,0.066-0.052,0.072-0.006L5.96,3.946c0.039-0.026,0,0.131,0.065,0.03
			C5.893,4.26,6.072,4.08,6.077,4.145l0.077-0.126c0.018,0.019,0.058-0.006,0.117-0.039l0.07-0.113
			C6.425,3.79,6.347,3.983,6.39,3.997C6.357,4.035,6.358,4.019,6.369,3.99C6.235,4.259,6.584,3.876,6.485,4.079
			c0.04-0.032,0.037-0.012,0.021,0.018c0-0.001-0.004,0.001-0.006,0.003c0.002,0.003,0.002,0.004,0.003,0.005
			c-0.01,0.02-0.026,0.045-0.034,0.065c0.018-0.029,0.031-0.053,0.036-0.062c0.008,0,0.028-0.004,0.061-0.02L6.477,4.2
			c0.002-0.002,0.002-0.002,0.006-0.002C6.454,4.247,6.535,4.153,6.599,4.068C6.621,4.054,6.642,4.037,6.67,4.015
			c-0.145,0.177,0.076-0.035-0.08,0.157c0.086-0.083,0.104-0.025,0.29-0.195C6.857,3.999,6.849,4.012,6.843,4.01
			c-0.01,0.03-0.021,0.06,0.042,0.022L6.758,4.16l0.202-0.145C6.89,4.108,6.846,4.152,6.733,4.236
			C6.92,4.125,6.813,4.207,7.002,4.101L6.911,4.175C6.922,4.182,7.06,4.103,6.988,4.168C6.836,4.326,7.052,4.32,6.915,4.483
			c0.299-0.18-0.12,0.098,0.115-0.021C6.96,4.5,6.92,4.529,6.853,4.552c0.084-0.006-0.102,0.093,0.113,0.023
			C6.895,4.609,6.854,4.616,6.812,4.639c0.017-0.005,0.067-0.02,0.025,0.001C6.793,4.66,6.771,4.662,6.735,4.674
			C6.759,4.69,6.998,4.604,7.222,4.524C7.125,4.581,7.139,4.581,7.291,4.549C7.22,4.581,7.144,4.616,7.112,4.601
			c-0.006,0.018-0.091,0.104,0.095,0.06C7.162,4.677,7.198,4.682,7.223,4.681C7.22,4.714,7.206,4.717,7.227,4.748l0.03-0.017
			c0.229-0.027,0.057,0.022,0.089,0.046L7.322,4.778c-0.156,0.093,0.082,0.02-0.097,0.11l0.141-0.022
			c0.306-0.031-0.173,0.081-0.052,0.106l0.08-0.021c0.107,0.012-0.411,0.095-0.448,0.116C6.919,5.074,6.902,5.064,6.882,5.06
			C6.707,5.121,7.069,5.052,7.117,5.088C7.016,5.1,6.861,5.095,6.844,5.119C6.763,5.134,7.17,5.181,6.98,5.226
			c0.079-0.011,0.156-0.02,0.215-0.003c0.027,0.03-0.291,0.079-0.049,0.106c-0.02,0.003-0.04,0.005-0.062,0.004
			c0.063,0.024,0.104,0.074,0.236,0.094c-0.493,0,0.235,0.156-0.22,0.132l0.018,0.07L7.072,5.624
			c-0.034,0.039,0.072,0.064,0.18,0.089C7.222,5.722,7.18,5.711,7.156,5.707C7.06,5.764,7.077,5.768,7.295,5.852L7.147,5.838
			c0.083,0.028-0.241,0.061-0.08,0.149C7.05,5.984,7.022,5.978,7.002,5.969c0.159,0.103-0.432,0.083,0.09,0.216L7.211,6.26
			c0.053-0.053,0.226,0.06,0.316,0.052c0.026,0.034-0.174,0.032-0.19-0.005l0.025,0C7.095,6.235,7.249,6.362,7.062,6.316
			c-0.013,0.124-0.195,0.188-0.24,0.283l0.207,0.057L7.006,6.689C6.954,6.681,6.842,6.643,6.86,6.621
			C6.74,6.593,6.942,6.698,6.985,6.716c-0.101,0.016-0.229-0.105-0.24-0.095l0.007,0.026l0.027,0.003
			c0.075,0.046,0.162,0.082,0.14,0.109C6.871,6.762,6.791,6.718,6.777,6.722c-0.013-0.007-0.02-0.006-0.008,0.009L6.734,6.766
			l0.165,0.049c0.069,0.053-0.026,0.04,0.163,0.093C6.775,6.823,6.888,7.029,6.794,7.006c0.096,0.082,0.082,0.11,0.051,0.135
			C6.88,7.15,7.053,7.238,7.014,7.258C6.676,7.051,6.833,7.221,6.577,7.09c0.174,0.084-0.003,0.094,0.239,0.214
			c-0.04,0.004-0.123-0.08-0.211-0.115c0.096,0.14-0.155,0.038-0.151,0.117c0.04,0.036,0.107,0.077,0.158,0.14l-0.22-0.143
			c0.013,0.025,0.219,0.212,0.068,0.106c0.032,0.027,0.086,0.067,0.091,0.087C6.409,7.453,6.407,7.537,6.367,7.598
			C6.331,7.65,6.268,7.705,6.097,7.521c0.067,0.081,0.061,0.094,0.052,0.103c0.019,0.019,0.066,0.112,0.103,0.172
			c0,0-0.038-0.036-0.075-0.073C6.143,7.687,6.11,7.65,6.11,7.65c0.08,0.177-0.043,0.038,0.033,0.21l0.002-0.04
			c0.071,0.214,0.25,0.428,0.378,0.68C6.438,8.257,6.807,8.771,6.688,8.422c0.046,0.041,0.04,0.085,0.081,0.136
			C6.723,8.446,6.722,8.411,6.788,8.435L6.8,8.461C6.875,8.367,6.99,8.44,7.148,8.41l-0.1-0.101c0.034-0.005,0.067,0.023,0.1,0.041
			c-0.119-0.179-0.065,0.045-0.2-0.152c0.218,0.189,0.138-0.127,0.387,0.083C7.369,8.252,7.208,8.178,7.242,8.15l0.072,0.05
			L7.239,8.117c0.034-0.008,0.125,0.054,0.18,0.104C7.407,8.22,7.424,8.249,7.422,8.26c0.102,0.039,0.042-0.108,0.076-0.095
			l-0.067,0c0.008-0.144,0.199-0.194,0.105-0.386l-0.059-0.03c-0.061-0.135,0.095-0.015,0.096-0.12l0.011,0.01
			C7.539,7.589,7.523,7.554,7.539,7.536c0.057,0.059,0.152,0.038,0.212,0.104C7.676,7.498,7.682,7.551,7.489,7.385l0.104,0.041
			c-0.079-0.064-0.125-0.09-0.131-0.139c0.067,0.072,0.163,0.049,0.256,0.14c0.259,0.021-0.16-0.221,0.176-0.117
			C7.631,7.149,7.71,7.312,7.658,7.265C7.562,7.239,7.464,7.142,7.501,7.13c0.017-0.022,0.377,0.114,0.4,0.041
			C7.897,7.176,7.918,7.186,7.915,7.191c0.082,0.004-0.077-0.088,0.052-0.074C7.802,7.036,7.993,7.08,7.775,6.993l0.026,0.08
			C7.76,7.014,7.513,6.889,7.657,6.881C7.7,6.9,7.754,6.938,7.782,6.96c0.072,0.007-0.033-0.047,0.041-0.041
			C8.04,7.003,7.848,7.012,7.999,7.112C8.1,7.128,7.866,6.98,8.097,7.087C7.802,6.948,8.161,7.031,7.943,6.904l0.132,0.046
			C8.056,6.936,7.999,6.9,8.005,6.886L8.172,6.97c-0.135-0.088,0.153-0.037,0.085-0.1C8.236,6.952,8.089,6.838,7.981,6.84
			C7.828,6.693,8.352,6.894,8.317,6.762C8.33,6.781,8.22,6.795,8.166,6.753C8.198,6.741,8.26,6.728,8.332,6.734
			c-0.009-0.08-0.143-0.026-0.218-0.079c0.173,0.019-0.059-0.053-0.104-0.096l0.139,0.035C8.259,6.535,7.863,6.503,7.99,6.459
			l0.185,0.075L8.136,6.485l0.157,0.043C8.184,6.46,8.214,6.455,8.27,6.422C8.166,6.411,8.013,6.363,8.016,6.327
			c0.089-0.006,0.132,0.043,0.12-0.012c0.087,0.028,0.194,0.063,0.06,0.059c0.043,0.014,0.085,0.028,0.13,0.041
			C8.428,6.408,8.36,6.353,8.363,6.332C8.356,6.34,8.346,6.346,8.328,6.347l-0.182-0.11c0.056-0.002,0.097,0.015,0.138,0.031
			C8.27,6.25,8.206,6.231,8.197,6.205C8.312,6.23,8.431,6.25,8.479,6.292L8.366,6.198C8.415,6.2,8.509,6.182,8.55,6.197
			c0.071-0.031-0.211-0.133-0.114-0.174C8.416,6.018,8.395,6.009,8.379,5.996C8.41,5.951,8.561,5.921,8.406,5.845L8.617,5.83
			C8.575,5.778,8.352,5.85,8.279,5.766C8.217,5.707,8.457,5.761,8.516,5.747c-0.1-0.038-0.31-0.096-0.137-0.136
			C8.418,5.632,8.384,5.643,8.398,5.659z"/>
	</g>
</g>
</svg>
