<?xml version="1.0" encoding="utf-8"?>
<!-- Generator: Adobe Illustrator 26.0.3, SVG Export Plug-In . SVG Version: 6.00 Build 0)  -->
<svg version="1.1" id="レイヤー_1" xmlns="http://www.w3.org/2000/svg" xmlns:xlink="http://www.w3.org/1999/xlink" x="0px"
	 y="0px" viewBox="0 0 9.445 10.75" style="enable-background:new 0 0 9.445 10.75;" xml:space="preserve">
<style type="text/css">
	.st0{fill:#F3981D;}
	.st1{fill:#FFBD6E;}
</style>
<g>
	<g>
		<g>
			<path class="st0" d="M4.812,10.133c-0.076,0.12-0.143,0.249-0.201,0.383c0.24,0.028,0.839,0.252,0.69-0.136
				c-0.055-0.148-0.376-0.293-0.208-0.482C5.172,9.812,5.322,9.937,5.42,9.945C5.578,9.96,5.744,9.901,5.896,9.854
				c0.116-0.036-0.661,0.205,0,0c1.001-0.306,1.576-0.668,2.225-1.508c0.1-0.13,0.17-0.293,0.282-0.412
				C8.774,7.525,9,6.869,9.094,6.336C9.211,5.678,9.221,4.973,9.118,4.31C9.049,3.867,8.784,3.447,8.65,3.018
				c-0.115-0.37-0.16-0.662-0.473-0.926c-0.053-0.08-0.198-0.252-0.293-0.356C7.678,1.503,7.463,1.269,7.186,1.117
				C6.866,0.953,6.591,0.73,6.254,0.6C5.242,0.174,4.067,0.168,3.065,0.638C2.121,1.081,1.367,1.811,0.882,2.738
				C0.436,3.586,0.298,4.615,0.368,5.56c0.046,0.614,0.226,1.259,0.434,1.838c0.192,0.581,0.603,1.255,1.08,1.64
				c0.929,0.743,2.229,1.113,3.429,0.946"/>
			<g>
				<g>
					<path class="st0" d="M5.273,9.91l0.006-0.013C5.256,9.908,5.228,9.92,5.206,9.931L5.273,9.91z"/>
					<path class="st0" d="M4.789,9.944c0.048,0.059,0.201-0.026,0.277,0.006C5.083,9.936,5.094,9.918,5.1,9.904
						C5.014,9.916,4.879,9.969,4.789,9.944C4.837,9.997,4.866,9.96,4.789,9.944z"/>
					<path class="st0" d="M4.958,9.796c0.008,0.006,0.004,0.01-0.007,0.017c0.019-0.008,0.041-0.01,0.064-0.014
						C5.004,9.792,4.987,9.792,4.958,9.796C4.975,9.816,4.981,9.796,4.958,9.796z"/>
					<path class="st0" d="M4.909,9.833C4.959,9.826,4.875,9.818,4.909,9.833L4.909,9.833z"/>
					<path class="st0" d="M4.679,9.845c0.025-0.004,0.045-0.011,0.064-0.017C4.738,9.823,4.676,9.812,4.692,9.806
						C4.629,9.813,4.647,9.828,4.679,9.845z"/>
					<path class="st0" d="M4.618,9.881l0.033-0.005C4.646,9.869,4.636,9.868,4.618,9.881z"/>
					<path class="st0" d="M4.765,9.869c0.039,0.012,0.086,0.019,0.019,0.036C4.911,9.899,4.891,9.864,4.765,9.869z"/>
					<path class="st0" d="M4.764,9.996l0.053,0.017l0.045-0.016C4.841,10.003,4.762,9.982,4.764,9.996z"/>
					<path class="st0" d="M4.375,9.779c0.004,0.014,0.012,0.029,0.022,0.044c0.017-0.002,0.033-0.007,0.052-0.009
						C4.41,9.808,4.385,9.794,4.375,9.779C4.369,9.788,4.375,9.795,4.375,9.779z"/>
					<path class="st0" d="M4.399,9.823l-0.072,0.01C4.388,9.843,4.402,9.837,4.399,9.823z"/>
					<path class="st0" d="M4.605,9.937l0.122-0.036C4.684,9.909,4.568,9.931,4.605,9.937z"/>
					<path class="st0" d="M4.106,9.749c0.026-0.015-0.036-0.04-0.003-0.048C4.05,9.7,4.003,9.71,3.97,9.72
						C4.021,9.72,4.069,9.725,4.106,9.749C4.14,9.731,4.054,9.724,4.106,9.749z"/>
					<path class="st0" d="M3.904,9.727c0.02-0.001,0.041-0.005,0.066-0.009C3.949,9.719,3.925,9.721,3.904,9.727z"/>
					<path class="st0" d="M4.203,9.812C4.197,9.798,4.18,9.786,4.15,9.775C4.151,9.788,4.162,9.806,4.203,9.812
						C4.198,9.806,4.194,9.809,4.203,9.812z"/>
					<path class="st0" d="M4.174,9.808c-0.004-0.007-0.025-0.012-0.06-0.009L4.174,9.808z"/>
					<path class="st0" d="M4.515,9.877C4.47,9.893,4.379,9.909,4.465,9.937C4.498,9.916,4.448,9.901,4.515,9.877z"/>
					<path class="st0" d="M4.242,9.855c0.021,0.006,0.053,0.012,0.076,0.018c-0.01-0.012-0.006-0.021,0.008-0.029
						C4.3,9.849,4.268,9.85,4.242,9.855z"/>
					<polygon class="st0" points="4.202,9.86 4.242,9.855 4.212,9.849 					"/>
					<path class="st0" d="M4.026,9.779C3.995,9.787,3.958,9.786,3.913,9.776c0.042,0.017,0.086,0.027,0.132,0.031
						C4.051,9.799,4.074,9.785,4.026,9.779C3.99,9.787,4.074,9.783,4.026,9.779z"/>
					<path class="st0" d="M3.519,9.684C3.531,9.701,3.522,9.687,3.519,9.684C3.52,9.687,3.519,9.684,3.519,9.684z"/>
					<path class="st0" d="M4.05,9.813c0.033,0.008,0.057,0.009,0.072-0.001C4.057,9.799,4.031,9.8,4.05,9.813
						C4.083,9.823,4.041,9.813,4.05,9.813z"/>
					<path class="st0" d="M3.79,9.717c0.016,0.01,0.033,0.019,0.053,0.029C3.829,9.732,3.798,9.71,3.79,9.717z"/>
					<path class="st0" d="M3.985,9.775C3.972,9.781,3.957,9.781,3.94,9.786C3.993,9.798,4.008,9.788,3.985,9.775
						C3.968,9.777,3.99,9.779,3.985,9.775z"/>
					<path class="st0" d="M3.346,9.83C3.378,9.77,3.524,9.892,3.56,9.843C3.59,9.802,3.562,9.747,3.526,9.691
						C3.515,9.709,3.488,9.712,3.44,9.707c0.02,0.025,0.103,0.06,0.103,0.079C3.54,9.843,3.415,9.743,3.401,9.732
						c0.03,0.048-0.139,0.02-0.136,0.063c0.027,0.001,0.065,0.01,0.094,0.012C3.344,9.809,3.338,9.819,3.346,9.83
						C3.36,9.805,3.323,9.815,3.346,9.83z"/>
					<path class="st0" d="M3.665,9.728C3.697,9.723,3.64,9.702,3.6,9.669c-0.038,0-0.063,0.008-0.073,0.016
						C3.58,9.704,3.654,9.72,3.665,9.728z"/>
					<path class="st0" d="M3.834,9.762C3.807,9.783,3.729,9.785,3.766,9.824c0.088,0.02,0.069-0.011,0.127-0.01
						c-0.025,0-0.045-0.007-0.059-0.016C3.842,9.79,3.874,9.795,3.863,9.781c-0.044-0.05,0.14,0.04-0.021-0.036
						C3.853,9.753,3.841,9.759,3.834,9.762C3.78,9.74,3.857,9.76,3.845,9.747L3.697,9.73C3.74,9.747,3.787,9.757,3.834,9.762
						C3.805,9.786,3.765,9.75,3.834,9.762z"/>
					<path class="st0" d="M4.378,9.999c-0.006-0.004-0.005-0.006-0.005-0.01C4.362,9.992,4.359,9.995,4.378,9.999z"/>
					<path class="st0" d="M4.319,9.972C4.38,9.957,4.374,9.97,4.374,9.99c0.118-0.027-0.19-0.083-0.121-0.101
						C4.264,9.916,4.283,9.944,4.319,9.972C4.328,9.97,4.279,9.939,4.319,9.972z"/>
					<path class="st0" d="M3.97,9.869C3.936,9.866,3.887,9.861,3.846,9.856C3.86,9.87,3.883,9.887,3.904,9.898
						C3.931,9.885,3.95,9.891,3.97,9.869z"/>
					<path class="st0" d="M3.509,9.666c0.009-0.008,0.019-0.018,0.026-0.025L3.454,9.662L3.509,9.666z"/>
					<path class="st0" d="M3.356,9.617c0.008-0.006,0.008-0.016,0.014-0.024C3.302,9.587,3.351,9.603,3.356,9.617z"/>
					<path class="st0" d="M2.762,9.368C2.793,9.379,2.769,9.365,2.762,9.368L2.762,9.368z"/>
					<path class="st0" d="M2.801,9.399C2.79,9.391,2.779,9.384,2.769,9.374C2.772,9.379,2.784,9.388,2.801,9.399z"/>
					<path class="st0" d="M2.802,9.384c0.011,0.007,0.02,0.01,0.025,0.013C2.833,9.396,2.832,9.391,2.802,9.384z"/>
					<path class="st0" d="M2.718,9.347c0.016,0.01,0.032,0.019,0.051,0.025C2.762,9.363,2.747,9.356,2.718,9.347
						C2.735,9.358,2.74,9.358,2.718,9.347z"/>
					<g>
						<path class="st0" d="M3.054,9.582C2.987,9.575,3.011,9.582,3.053,9.624c0.046,0.045-0.029,0.009-0.101-0.027
							c0.08-0.083-0.385-0.169-0.327-0.091C2.643,9.514,2.664,9.521,2.68,9.527c0.061,0.099-0.228-0.092-0.26-0.116
							C2.379,9.389,2.311,9.35,2.247,9.313C2.185,9.27,2.131,9.224,2.115,9.193C2.142,9.23,2.206,9.258,2.235,9.267
							C2.215,9.245,2.201,9.22,2.175,9.202c0.081,0.06,0.139,0.162,0.194,0.124c0.025-0.021,0.085-0.061-0.047-0.132
							c0,0-0.313-0.106-0.297-0.124C2.056,9.036,1.97,9.007,1.885,8.97C1.802,8.935,1.7,8.907,1.68,8.928
							c0.047,0.029,0.183,0.105,0.172,0.155C1.798,9.052,1.699,8.97,1.673,8.985C1.668,8.961,1.829,9.003,1.653,8.924
							c0.066,0.013-0.022-0.086-0.116-0.189C1.454,8.619,1.376,8.49,1.411,8.48c-0.069-0.068-0.19-0.113-0.198-0.067
							C1.166,8.358,1.162,8.31,1.12,8.253c0.008,0.023,0.009,0.042,0.009,0.056C1.1,8.273,1.094,8.232,1.065,8.241
							c-0.039-0.056-0.013-0.105-0.05-0.17C0.949,7.954,0.865,7.99,0.871,8.006C0.837,7.943,0.883,7.903,0.837,7.812
							C0.81,7.764,0.756,7.73,0.743,7.664C0.87,7.802,0.724,7.568,0.721,7.569C0.756,7.572,0.876,7.62,0.762,7.454
							c-0.06-0.092-0.135-0.158-0.172-0.138c0.04,0.071,0.08,0.143,0.13,0.215C0.684,7.553,0.615,7.381,0.58,7.406L0.521,7.187
							c0.049,0.125,0.05,0.057,0.043,0.001c-0.011-0.1,0.046,0.009,0.074-0.009C0.61,7.124,0.517,7.045,0.553,6.994
							c0.019-0.026,0.057-0.033,0.093-0.01C0.596,6.804,0.49,6.876,0.45,6.688c0,0.022-0.005,0.044-0.001,0.065
							c-0.01-0.017-0.046-0.178-0.053-0.164c0.01-0.035,0.047-0.096,0.079-0.049c-0.042-0.042-0.073-0.086-0.111-0.13
							c0.028,0.045,0.063-0.017,0.091-0.004c-0.013-0.067-0.099-0.088-0.1-0.044c0.013-0.073,0.02-0.142,0.04-0.2
							c-0.017-0.043-0.07,0.014-0.072,0.043C0.297,6.15,0.283,6.101,0.284,6.042c0.079,0.186,0.049-0.104,0.028-0.209
							c-0.039-0.161-0.076-0.324-0.071-0.5c0.001,0.051,0.031-0.021,0.023-0.092c0.038-0.102-0.091-0.144-0.038-0.248
							C0.222,5.084,0.243,5.112,0.268,5.106c-0.027-0.102,0-0.266-0.067-0.23C0.218,4.82,0.219,4.776,0.247,4.781L0.22,4.58
							c0.01,0.024,0.027,0.018,0.035-0.028C0.24,4.643,0.293,4.778,0.244,4.831c0.035,0.003,0.073-0.031,0.104,0.02
							C0.343,4.661,0.29,4.545,0.255,4.425c-0.022-0.08,0.014-0.143,0.044-0.237L0.28,4.176l0.055-0.023
							C0.331,4.141,0.305,4.061,0.341,4.12c0.006-0.118,0.045-0.011,0.068,0.027C0.32,4.265,0.45,4.258,0.434,4.186
							c0.01,0.027,0.021,0.036,0.037,0.027c0-0.047-0.003-0.096-0.003-0.146C0.382,4.2,0.419,3.876,0.335,4.001
							c0.08-0.103,0.025-0.253,0.035-0.381c0.014,0.015,0.027,0.02,0.045,0.016C0.397,3.547,0.475,3.458,0.508,3.395
							c0.042-0.07-0.018-0.12-0.013-0.16c0.003,0.009,0.01,0.009,0.02-0.004C0.51,3.208,0.512,3.171,0.506,3.152
							c0.042-0.041,0.021,0.119,0.059-0.094c0.01-0.079,0.043-0.151,0.089-0.225c0.055-0.136-0.062,0.003-0.044-0.057
							C0.627,2.72,0.682,2.734,0.709,2.703c0.047-0.051,0.03-0.09,0.033-0.139C0.748,2.591,0.829,2.487,0.833,2.48
							c0.06-0.083,0.086-0.158,0.139-0.24c0.015-0.026,0.092-0.154,0.079-0.141c0.025-0.027,0.046-0.003,0.063-0.025
							C1.07,2.13,1.048,2.206,1.09,2.188C1.1,2.159,1.122,2.123,1.126,2.094C1.147,2.092,1.1,2.146,1.138,2.113
							C1.15,2.072,1.16,2.029,1.16,1.994c0.024-0.03,0.078-0.099,0.111-0.142C1.253,1.872,1.3,1.855,1.335,1.762
							C1.316,1.812,1.439,1.708,1.452,1.634c0.003-0.028-0.006-0.075,0.063-0.108L1.494,1.554C1.51,1.55,1.531,1.534,1.551,1.526
							C1.524,1.494,1.583,1.424,1.643,1.353c0.062-0.066,0.128-0.129,0.102-0.165C1.832,1.16,1.743,1.247,1.713,1.31
							c0.025-0.013,0.059-0.023,0.088-0.041C1.772,1.292,1.746,1.32,1.723,1.344c0.111-0.048,0.166-0.158,0.204-0.229
							c0.045-0.019,0.051,0.081,0.15-0.057c0.038-0.055-0.096-0.008-0.03-0.07l0.096-0.009c0.065-0.094,0.327-0.204,0.341-0.246
							C2.574,0.693,2.643,0.615,2.71,0.567c0.073-0.053,0.128-0.05,0.16-0.037c0.026-0.01,0.119-0.095,0.145-0.106
							c-0.069,0.043-0.05,0.074-0.051,0.1c0.031-0.021,0.062-0.044,0.099-0.069C3.038,0.479,3.039,0.49,3.061,0.492
							c0.038-0.023,0.216-0.134,0.104-0.1c0.147-0.059,0.189-0.094,0.181-0.031C3.284,0.351,3.26,0.395,3.243,0.419
							C3.347,0.373,3.283,0.413,3.34,0.41c0.084-0.036,0.106-0.079,0.077-0.096c0.1-0.018,0.148-0.026,0.229-0.074
							C3.633,0.256,3.644,0.268,3.634,0.284C3.665,0.27,3.691,0.261,3.725,0.246L3.662,0.313c0.108-0.015,0.083-0.041,0.11-0.071
							c0.039-0.048,0.135-0.023,0.115,0.005C3.936,0.229,3.982,0.163,4.042,0.19C4.099,0.166,3.97,0.164,4.026,0.142
							c0.071-0.025,0.141,0,0.213-0.002C4.287,0.125,4.202,0.1,4.155,0.118c0.221-0.042,0.204,0.092,0.411,0.039
							c-0.088-0.02,0.052-0.069-0.128-0.059c0.1-0.023,0.183,0.033,0.28,0.003l-0.063,0.04C4.692,0.14,4.722,0.135,4.748,0.126
							C4.741,0.137,4.747,0.149,4.739,0.159C4.835,0.115,4.97,0.183,5.034,0.123c-0.022,0.009-0.022,0.018,0,0.026
							c0.04,0,0.103-0.015,0.136,0.009C5.101,0.173,5.007,0.154,4.918,0.164C4.807,0.179,4.877,0.187,4.936,0.195
							C4.944,0.192,4.952,0.19,4.952,0.185C4.958,0.187,4.953,0.193,4.95,0.196c0.025,0.002,0.047,0.002,0.051,0.006
							C4.967,0.21,4.937,0.22,4.915,0.232c0.006,0.003,0.014,0.004,0.021,0.006C4.951,0.235,4.97,0.23,5.006,0.219
							c-0.02,0.012-0.018,0.019,0,0.026c0.086-0.006,0.149-0.026,0.232-0.03l-0.16-0.01c0.039-0.106,0.546,0.067,0.718,0.107
							c0.1,0.012,0.186,0.035,0.276,0.086C6.064,0.393,6.057,0.416,6.05,0.436C6.175,0.478,6.211,0.397,6.195,0.39
							c0.061,0.024,0.06,0.072,0.127,0.108C6.353,0.5,6.39,0.506,6.457,0.523c-0.012-0.002-0.016-0.001-0.02,0.001
							C6.468,0.53,6.499,0.536,6.528,0.557C6.479,0.55,6.46,0.552,6.459,0.556l0.006,0.006c0.019,0.015,0.14,0.055,0.14,0.055
							C6.599,0.621,6.591,0.626,6.583,0.631C6.591,0.633,6.6,0.637,6.61,0.638c0.05,0.03,0.112,0.077,0.18,0.121
							c0.041,0,0.07-0.01,0.076-0.029L6.632,0.645c0.011-0.039,0.173,0.05,0.188,0.009l0.182,0.129
							C6.886,0.718,6.932,0.771,6.97,0.809c0.018,0.019,0.023,0.028,0.025,0.033c0.083,0.043,0.199,0.095,0.327,0.176
							c0.135,0.077,0.236,0.163,0.279,0.196C7.586,1.197,7.57,1.18,7.553,1.161c0.044,0.042,0.15,0.092,0.182,0.156
							c-0.073-0.06-0.069,0-0.012,0.066C7.731,1.379,7.75,1.387,7.758,1.38l0.004,0.033c0.019,0.02,0.026,0.022,0.031,0.02
							C7.79,1.43,7.792,1.425,7.789,1.425l0.008,0.004c0.004-0.011,0-0.033,0.039,0.004c-0.002,0.011,0.004,0.02,0.006,0.03
							c0.024,0.024,0.046,0.051,0.067,0.082c-0.02-0.01-0.027-0.017-0.037-0.021C7.936,1.614,8.059,1.736,8.086,1.82l0.023,0.023
							C8.121,1.819,8.009,1.712,8.07,1.727c0.007,0.028,0.022,0.058,0.047,0.095C8.115,1.803,8.13,1.801,8.13,1.784l0.084,0.124
							L8.256,1.97c0.016,0.023,0.027,0.042,0.027,0.042c0.065,0.089,0.146,0.164,0.205,0.261C8.521,2.293,8.556,2.321,8.561,2.38
							C8.536,2.332,8.516,2.306,8.496,2.295l0.007,0.012C8.497,2.347,8.561,2.436,8.604,2.458C8.602,2.472,8.587,2.459,8.577,2.454
							C8.602,2.486,8.615,2.508,8.638,2.48c0.005,0.059,0.019,0.096-0.004,0.105l0.002,0.01l0.101,0.169
							c-0.016-0.018-0.032-0.007-0.023,0.04C8.707,2.759,8.678,2.71,8.65,2.664c0.01,0.054,0.006,0.106,0.02,0.145
							c0.031,0.037,0.061,0.073,0.093,0.109c0.05,0.064,0.051,0.126,0.067,0.221l0.021-0.001L8.816,3.186
							c0.006,0.007,0.064,0.063,0.01,0.031C8.878,3.316,8.786,3.252,8.75,3.229C8.773,3.084,8.661,3.15,8.711,3.204
							C8.691,3.185,8.674,3.184,8.664,3.2l0.072,0.125C8.738,3.169,8.883,3.46,8.886,3.31C8.88,3.438,9.004,3.532,9.076,3.633
							C9.058,3.628,9.043,3.632,9.031,3.646c0.067,0.062,0.059,0.181,0.07,0.251c0.015,0.076,0.087,0.089,0.107,0.124
							C9.2,4.015,9.195,4.019,9.195,4.036c0.016,0.016,0.036,0.05,0.054,0.062C9.238,4.159,9.161,4.007,9.252,4.214
							C9.292,4.29,9.301,4.364,9.3,4.45c0.023,0.144,0.052-0.035,0.066,0.023c0.015,0.055-0.04,0.073-0.046,0.112
							C9.305,4.654,9.345,4.676,9.37,4.717C9.351,4.702,9.348,4.832,9.345,4.839C9.341,4.942,9.353,5.017,9.361,5.114
							c0.001,0.03,0.016,0.179,0.019,0.159C9.374,5.31,9.343,5.301,9.343,5.332c0.003-0.073-0.027-0.149-0.049-0.11
							c0.012,0.028,0.015,0.071,0.025,0.1C9.304,5.334,9.31,5.262,9.298,5.309c0.013,0.042,0.026,0.083,0.043,0.113
							C9.336,5.457,9.337,5.545,9.336,5.6c0.003-0.025-0.024,0.015,0.003,0.108C9.323,5.657,9.282,5.812,9.32,5.878
							c0.016,0.024,0.05,0.059,0.012,0.126l0.001-0.038c-0.01,0.015-0.019,0.039-0.03,0.058c0.083,0.022-0.019,0.358,0.054,0.385
							C9.304,6.482,9.331,6.362,9.308,6.293c-0.012,0.026-0.03,0.065-0.04,0.086c0.01-0.035,0.01-0.072,0.011-0.106
							C9.23,6.38,9.239,6.499,9.253,6.578C9.23,6.622,9.162,6.546,9.173,6.717C9.179,6.783,9.25,6.662,9.239,6.755
							C9.215,6.777,9.195,6.801,9.169,6.82C9.162,6.933,9.027,7.182,9.042,7.225C8.992,7.31,8.973,7.413,8.951,7.493
							c-0.03,0.087-0.076,0.119-0.11,0.13c-0.009,0.023-0.057,0.143-0.071,0.17C8.808,7.717,8.779,7.701,8.765,7.68
							C8.744,7.718,8.729,7.757,8.712,7.793C8.724,7.758,8.717,7.747,8.694,7.76C8.678,7.801,8.582,7.994,8.657,7.903
							C8.561,8.037,8.544,8.089,8.521,8.03c0.056-0.026,0.058-0.078,0.058-0.107C8.512,8.021,8.55,7.948,8.5,7.983
							C8.448,8.055,8.467,8.1,8.494,8.1c-0.057,0.067-0.081,0.085-0.11,0.176c-0.004-0.019-0.02-0.019-0.023-0.038
							c-0.016,0.03-0.028,0.057-0.043,0.09l0.003-0.092C8.249,8.319,8.283,8.322,8.283,8.362c0,0.064-0.079,0.115-0.087,0.076
							C8.17,8.484,8.182,8.563,8.118,8.583C8.093,8.64,8.19,8.556,8.165,8.604C8.129,8.67,8.059,8.697,8.007,8.745
							C7.982,8.794,8.059,8.749,8.085,8.708C7.95,8.887,7.869,8.778,7.76,8.958c0.075-0.045,0.009,0.087,0.129-0.046
							C7.839,9.002,7.731,9.01,7.681,9.1L7.7,9.025C7.674,9.054,7.656,9.08,7.644,9.103c0-0.013-0.015-0.017-0.016-0.03
							c-0.041,0.1-0.184,0.147-0.195,0.227c0.011-0.021,0.005-0.027-0.019-0.02C7.384,9.302,7.348,9.36,7.31,9.365
							C7.348,9.303,7.437,9.26,7.495,9.195c0.109-0.133-0.073,0.026-0.089,0.024C7.43,9.19,7.448,9.165,7.454,9.14
							C7.317,9.205,7.299,9.293,7.221,9.372l0.124-0.105c0.049,0.11-0.454,0.322-0.608,0.396C6.651,9.721,6.574,9.76,6.472,9.782
							C6.486,9.78,6.443,9.722,6.461,9.707C6.385,9.744,6.37,9.765,6.336,9.802C6.33,9.796,6.308,9.797,6.298,9.79
							c-0.067,0.066-0.067,0.09-0.193,0.154c0.059-0.04-0.09-0.01-0.045-0.045c-0.059,0.019-0.103,0.043-0.138,0.07
							c-0.041,0.013-0.096,0.021-0.156,0.034c-0.029,0.009-0.06,0.016-0.089,0.023l-0.01,0.004L5.66,10.032l-0.002,0.001
							l-0.006,0.001l-0.007,0.002l-0.015,0.001L5.531,9.971l0.034-0.123L5.581,9.84l0.006-0.005l0.004-0.002
							c0.004-0.001,0.002-0.001,0.002-0.001l0.021-0.009c0.014-0.004,0.026-0.012,0.041-0.017c-0.012-0.013,0.021-0.03,0.077-0.056
							c0.029-0.012,0.065-0.024,0.101-0.039L5.85,9.706l0.005-0.003l0.006-0.001l0.008-0.001l0.01-0.003
							C5.893,9.7,5.876,9.685,5.956,9.705c0.22,0.181-0.03,0.323,0.027,0.273L5.964,9.985l-0.01,0.004l-0.033,0.012l-0.065,0.02
							c-0.173,0.065-0.409,0.098-0.532,0.061c0.032,0.012,0.071,0.026,0.1,0.027c-0.037-0.001-0.119-0.017-0.161-0.029
							c-0.04-0.012-0.077-0.027-0.084-0.038c0.022,0,0.047,0,0.039-0.017c-0.002-0.015-0.028-0.037-0.042-0.04
							c-0.005,0.004-0.009,0.023-0.006,0.016c0-0.019,0.012-0.02,0.01-0.033C5.183,9.923,5.169,9.966,5.169,9.96
							c0,0.004,0,0,0.002-0.004c0.002-0.002,0.004-0.005,0.002-0.002L5.167,9.965L5.162,9.974L5.158,9.981l-0.001,0l0,0l0,0
							l0.061,0.022l0,0l0,0l0.001,0.002c-0.015-0.012-0.034-0.007-0.04-0.003C5.175,10,5.166,10.011,5.186,10.039
							c0.038,0.058,0.125,0.135,0.129,0.195c0.073,0.01-0.11-0.141-0.034-0.123c0.01,0.029,0.024,0.053,0.056,0.095
							c-0.004-0.019,0.013-0.024,0.011-0.042c0.035,0.037,0.066,0.096,0.094,0.157l0.018,0.086c0.003,0.034,0.005,0.069-0.003,0.104
							c-0.009,0.089-0.095,0.169-0.162,0.184c-0.129,0.03-0.215,0.009-0.309,0.001c-0.024-0.029-0.161-0.044-0.229-0.03
							c-0.015-0.018,0.075-0.009,0.039-0.03c-0.121,0.017-0.252-0.02-0.322-0.05c0.049-0.086,0.116-0.158,0.104-0.195
							c0.037-0.004,0.104-0.064,0.156-0.099c0.055-0.035,0.094-0.044,0.113-0.016l0.011-0.04c0.039,0.019-0.059,0.125-0.012,0.128
							c-0.017,0.018-0.048,0.046-0.042,0.058c0.002,0.01,0.008,0.021,0.018,0.032c0.01-0.008,0.062-0.029,0.051-0.037
							c0.036,0.004,0.046-0.003,0.044-0.022c-0.032,0.057,0.457,0.153,0.287,0.019l-0.014-0.022
							c-0.026-0.038-0.083-0.086-0.141-0.147c-0.027-0.026-0.058-0.07-0.081-0.116c-0.013-0.028-0.024-0.058-0.032-0.085
							c-0.001-0.033,0.003-0.071,0.008-0.104c0.006-0.036,0.034-0.064,0.056-0.098l0.018-0.022l0.002-0.001l0.017-0.019l0.002-0.001
							l0.004-0.001l0.006-0.005c0.016-0.008,0.012-0.01,0.046-0.023c0.057-0.019,0.09-0.015,0.1-0.018
							c0.012-0.004,0.015-0.011-0.011-0.023C5.307,9.791,5.293,9.736,5.364,9.75c0.033,0.038,0.048,0.067,0.07,0.091
							C5.471,9.824,5.442,9.81,5.45,9.792c0.07-0.003,0.178-0.009,0.281-0.029c0.027-0.008,0.057-0.014,0.082-0.02l0.04-0.011
							L5.87,9.727l0.001,0l0,0l0.032,0.098l-0.023-0.07c-0.014-0.037-0.01-0.028-0.01-0.028l0,0l-0.001,0L5.865,9.73L5.853,9.736
							C5.849,9.738,5.845,9.739,5.83,9.75C5.805,9.699,5.747,9.943,5.868,9.961C5.944,9.978,5.92,9.964,5.93,9.967
							c0.02-0.006,0.006-0.001,0.008-0.001L5.926,9.968c-0.051,0.015-0.102,0.035-0.146,0.06C5.733,10.027,5.77,9.978,5.698,9.992
							c0.031,0.007,0.03,0.016,0.017,0.026c-0.008,0.007-0.016,0.012-0.029,0.018l-0.017,0.008c-0.002,0.001-0.006,0.002,0,0
							l0.014-0.001c0.004-0.005,0.002-0.001,0.024-0.018l0.01-0.181L5.629,9.809C5.602,9.811,5.608,9.813,5.604,9.813l-0.004,0
							c-0.002,0.001,0,0,0,0l0.012-0.004C5.67,9.784,5.734,9.76,5.698,9.751c0.084,0.037,0.282-0.056,0.276,0.028
							c0.077-0.02,0.083-0.065,0.034-0.064C6.097,9.69,6.254,9.608,6.297,9.592C6.349,9.578,6.411,9.55,6.462,9.529
							c0.12-0.05,0.301-0.149,0.385-0.137C6.764,9.385,6.955,9.288,6.817,9.312C6.911,9.258,6.949,9.223,7,9.232
							c0.068,0.016,0.144-0.114,0.129-0.125l0.049-0.042C7.153,9.081,7.116,9.169,7.203,9.121C7.199,9.108,7.245,9.013,7.294,9.011
							c-0.091,0.06-0.009,0.075,0.08-0.017l-0.06-0.013C7.35,8.951,7.429,8.884,7.524,8.8c0.092-0.09,0.202-0.195,0.302-0.302
							c0.207-0.214,0.361-0.419,0.39-0.379C8.156,8.198,8.254,8.144,8.297,8.071C8.226,8.13,8.324,7.919,8.203,8.069
							c0.021-0.044,0.053-0.102,0.064-0.142C8.251,7.894,8.27,7.822,8.328,7.748C8.38,7.683,8.439,7.633,8.493,7.569
							c0.061-0.063,0.059-0.132,0.078-0.105c0.022-0.104,0.218-0.364,0.202-0.406c0.012,0.005,0.029-0.011,0.039-0.003
							c0.002-0.07-0.003-0.148,0.031-0.243c0.018-0.039,0.034-0.077,0.05-0.12c0.008,0.017,0.016,0.016,0.025,0
							c-0.017-0.058-0.026-0.12,0.005-0.226c0.021-0.012,0.039-0.115,0.046-0.191c0.094,0.016-0.005-0.359,0.107-0.403
							c-0.02-0.04-0.05-0.231-0.024-0.274c-0.044-0.072,0.081-0.456-0.024-0.32c0.034-0.092-0.022-0.227-0.039-0.304
							c-0.027-0.11,0.046-0.087,0.06-0.103c-0.012-0.107-0.09,0.012-0.064-0.139c0.032,0.092,0.11-0.188,0.099-0.208L9.071,4.569
							C9.037,4.467,9.122,4.196,9.018,4.296c-0.003-0.059-0.03-0.227-0.039-0.274c-0.002-0.017-0.094-0.279-0.074-0.13
							C8.892,3.857,8.792,3.619,8.789,3.604C8.747,3.616,8.675,3.399,8.653,3.322c0.036,0.082,0.041,0.034,0.047,0.004
							c-0.043-0.027-0.069-0.068-0.07-0.149C8.594,3.186,8.519,3.213,8.458,3.055C8.47,3.082,8.485,3.093,8.495,3.087
							C8.492,3.063,8.484,3.043,8.471,3.032C8.487,3.036,8.5,3.036,8.516,3.035C8.447,2.97,8.456,2.853,8.405,2.752
							C8.43,2.783,8.434,2.745,8.444,2.727C8.419,2.733,8.416,2.696,8.412,2.66C8.406,2.664,8.406,2.668,8.408,2.677
							C8.385,2.62,8.374,2.615,8.373,2.661C8.37,2.577,8.329,2.498,8.311,2.423c-0.005-0.047-0.008-0.131-0.06-0.174
							C8.208,2.211,8.196,2.275,8.146,2.239C8.127,2.224,8.123,2.22,8.102,2.193c-0.035-0.037-0.03-0.04-0.044-0.061
							C8.042,2.099,8.029,2.064,8.01,2.033C7.972,1.978,7.958,1.978,7.917,1.938c-0.055-0.056-0.103-0.12-0.161-0.18
							C7.73,1.737,7.7,1.718,7.672,1.702C7.694,1.71,7.704,1.71,7.714,1.705L7.695,1.682c-0.019-0.02-0.039-0.048-0.06-0.075
							l-0.04-0.012C7.6,1.591,7.602,1.579,7.603,1.571C7.58,1.546,7.562,1.534,7.564,1.568c-0.03-0.087-0.066-0.035-0.109-0.066
							L7.424,1.424L7.37,1.394c0,0.005-0.002,0.012-0.006,0.015L7.311,1.366C7.305,1.366,7.299,1.365,7.294,1.365
							c0.001-0.006-0.002-0.012-0.004-0.016C7.247,1.321,7.203,1.288,7.162,1.254c-0.039,0.01-0.074,0.038-0.067-0.03
							C7.01,1.196,6.969,1.153,7.013,1.214C6.959,1.145,6.715,0.991,6.622,0.93C6.588,0.905,6.584,0.871,6.534,0.848
							c-0.101-0.046-0.102,0.007-0.2-0.032C6.23,0.774,6.287,0.726,6.079,0.694c0.006-0.022-0.016-0.063-0.082-0.097
							C5.951,0.626,5.85,0.591,5.79,0.548c-0.053,0.001-0.106,0.035-0.161,0.03c-0.096-0.014-0.212-0.09-0.244-0.116
							C5.38,0.53,5.228,0.507,5.104,0.482C5.038,0.464,4.989,0.452,4.915,0.443C4.8,0.439,4.698,0.448,4.581,0.456
							c0.02-0.001-0.185,0.024-0.142,0.014C4.371,0.49,4.318,0.505,4.228,0.507C4.161,0.51,4.138,0.504,4.064,0.521
							c0.09-0.031,0.007-0.042-0.019-0.062L4.02,0.461C4.005,0.471,3.988,0.478,3.98,0.488c-0.016-0.005,0-0.018,0.001-0.024
							L3.944,0.467c-0.078,0.025-0.247,0.09-0.121,0.096C3.798,0.567,3.759,0.597,3.765,0.611c-0.068-0.015-0.17,0.011-0.224-0.016
							c0.097,0.028-0.189,0.073-0.119,0.11c-0.027-0.006-0.055,0-0.078-0.003c-0.066,0.018-0.135,0.035-0.2,0.052
							C3.062,0.788,3.024,0.838,3.023,0.807C2.979,0.841,2.88,0.885,2.79,0.923C2.704,0.969,2.623,1.008,2.615,1.023
							C2.61,1.011,2.587,1.014,2.582,1C2.539,1.054,2.491,1.115,2.408,1.174C2.372,1.199,2.335,1.223,2.3,1.241
							c0.006-0.015,0-0.019-0.02-0.015C2.256,1.284,2.219,1.329,2.134,1.4C2.109,1.395,2.039,1.475,1.982,1.527
							C1.915,1.452,1.769,1.812,1.656,1.782c-0.007,0.045-0.1,0.214-0.143,0.234c-0.009,0.083-0.319,0.327-0.16,0.278
							C1.274,2.347,1.235,2.482,1.215,2.557C1.178,2.668,1.13,2.608,1.11,2.613C1.062,2.711,1.193,2.655,1.087,2.762
							c0.022-0.092-0.2,0.094-0.198,0.118l0.038-0.03C0.904,2.954,0.683,3.138,0.824,3.111c-0.032,0.05-0.108,0.207-0.128,0.252
							c-0.012,0.014-0.094,0.277-0.02,0.149C0.668,3.55,0.601,3.803,0.595,3.811c0.045,0.016-0.023,0.231-0.041,0.303
							c0.011-0.084-0.02-0.049-0.04-0.03c0.019,0.045,0.027,0.093-0.008,0.16C0.54,4.258,0.617,4.266,0.602,4.423
							c-0.004-0.03-0.01-0.045-0.021-0.044C0.573,4.4,0.57,4.422,0.579,4.437C0.566,4.428,0.555,4.42,0.542,4.416
							c0.031,0.088-0.009,0.184-0.004,0.302C0.524,4.675,0.509,4.712,0.49,4.723c0.057,0.014-0.062,0.181,0.018,0.136
							C0.471,5.042,0.48,5.259,0.486,5.457C0.485,5.523,0.49,5.606,0.477,5.649C0.456,5.678,0.504,5.762,0.51,5.798
							c-0.01-0.007-0.02,0-0.029-0.007c0.04,0.073,0.06,0.17,0.104,0.245c-0.041-0.051-0.057-0.025-0.067,0.04l0.079,0.092
							C0.58,6.169,0.571,6.193,0.559,6.198c0.022,0.04,0.03,0.087,0.031,0.138C0.584,6.318,0.578,6.318,0.574,6.329
							c0.057,0.008,0.083,0.188,0.138,0.215c-0.034,0.05,0.04,0.129,0.006,0.167C0.75,6.749,0.836,6.749,0.772,6.799
							C0.809,6.876,0.809,6.932,0.819,6.86c0.001,0.077,0.013,0.176,0.06,0.279c0.052,0.122,0.14,0.229,0.138,0.349
							C1.015,7.461,1.006,7.438,0.989,7.425c0.06,0.136,0.094,0.257,0.139,0.374C1.181,7.914,1.24,8.029,1.334,8.15
							C1.392,8.238,1.48,8.303,1.544,8.395c0.063,0.075,0.098,0.17,0.175,0.233c0.093,0.08,0.109,0.135,0.204,0.222
							c0.061,0.065,0.15,0.099,0.227,0.155C2.134,8.996,2.306,9.104,2.269,9.087C2.333,9.118,2.385,9.13,2.46,9.185
							c0.052,0.041,0.067,0.061,0.136,0.094c-0.102-0.035-0.017,0.047-0.022,0.07c0.02,0.002,0.051,0.011,0.068,0.009
							c0.012,0.019-0.045,0.009-0.01,0.033C2.694,9.407,2.916,9.493,2.81,9.398c0.023,0.015,0.076,0.015,0.08-0.001
							C2.932,9.451,3.023,9.496,3.052,9.55C2.994,9.465,3.244,9.621,3.214,9.546c0.023,0.029,0.056,0.043,0.071,0.07
							C3.199,9.58,3.107,9.589,3.054,9.582z"/>
					</g>
					<path class="st0" d="M3.089,9.495C3.065,9.487,3.042,9.48,3.021,9.473c0.024,0.013,0.041,0.024,0.055,0.039
						C3.069,9.498,3.073,9.493,3.089,9.495z"/>
					<path class="st0" d="M3.648,9.89c0.021-0.002,0.05,0.008,0.037-0.012C3.658,9.873,3.591,9.87,3.648,9.89
						C3.659,9.889,3.601,9.872,3.648,9.89z"/>
					<path class="st0" d="M3.111,9.625C3.108,9.653,3.157,9.659,3.21,9.672C3.164,9.659,3.242,9.639,3.111,9.625
						C3.106,9.655,3.17,9.631,3.111,9.625z"/>
					<path class="st0" d="M3.221,9.675c0.016,0.004,0.03,0.009,0.047,0.016C3.28,9.675,3.248,9.679,3.221,9.675z"/>
					<path class="st0" d="M2.649,9.335c0.02,0.018,0.032-0.026,0.039-0.009C2.73,9.307,2.526,9.284,2.649,9.335z"/>
					<path class="st0" d="M3.119,9.727c0.002-0.011-0.001-0.025-0.003-0.039C3.074,9.694,3.066,9.706,3.119,9.727z"/>
					<path class="st0" d="M2.739,9.539c0.07,0.039,0.044,0.027,0.1,0.041C2.832,9.577,2.741,9.527,2.739,9.539z"/>
					<path class="st0" d="M2.839,9.58c0.025,0.011,0.048,0.021,0.065,0.022C2.89,9.597,2.863,9.584,2.839,9.58z"/>
					<path class="st0" d="M3.005,9.698c-0.027-0.017-0.036-0.03-0.076-0.046L3.005,9.698z"/>
				</g>
			</g>
		</g>
		<g>
			<path class="st1" d="M8.462,4.826L8.576,4.78c0.191,0.036,0.128,0.077,0.288,0.029c-0.4,0.018-0.051-0.155-0.455-0.127
				l0.082-0.033C8.49,4.657,8.511,4.656,8.511,4.664c0.185-0.07-0.295-0.01-0.245-0.078c0.03-0.023,0.087-0.047,0.136-0.038
				L8.297,4.512c0.008-0.014,0.079-0.02,0.071-0.005l-0.045-0.07l0.012-0.001C8.272,4.435,8.172,4.422,8.129,4.418
				c0.056-0.025,0.043,0.002,0.092-0.01L8.119,4.382C8.22,4.35,8.327,4.367,8.316,4.4C8.708,4.303,8.21,4.381,8.429,4.259
				l0.059,0.032C8.71,4.23,8.622,4.21,8.755,4.138C8.683,4.163,8.413,4.292,8.309,4.264c0.027-0.017,0.04-0.038-0.044-0.05
				C8.406,4.19,8.365,4.171,8.351,4.143L8.54,4.109C8.48,4.086,8.386,4.107,8.298,4.107c0.01-0.041,0.15-0.08,0.27-0.116
				c0.018-0.067-0.223,0.093-0.271,0.031c0.062-0.065-0.024-0.084-0.151-0.113C8.201,3.859,8.26,3.885,8.31,3.858l-0.154,0.01
				c0-0.006,0.047-0.018,0.07-0.022c-0.064-0.01-0.185,0.049-0.245,0.026C7.778,3.923,8.254,3.699,8.004,3.72
				c0.045-0.03,0.112-0.031,0.181-0.06C8.007,3.636,8.05,3.632,7.834,3.656l0.094-0.097C7.814,3.652,7.641,3.675,7.502,3.708
				c-0.058,0.04-0.109,0.075-0.132,0.09c0,0-0.108,0.003-0.109,0.005c0.025-0.02,0.085-0.045,0.159-0.074
				C7.401,3.734,7.388,3.737,7.374,3.742c0.054-0.05,0.153-0.094,0.256-0.128c-0.03,0.022-0.064,0.047-0.095,0.07
				c0.107-0.04,0.23-0.08,0.328-0.13c-0.02,0.005-0.042,0.005-0.055,0c0.029-0.01,0.057-0.02,0.072-0.03
				c0.018-0.01-0.023,0.002-0.07,0.013l0.182-0.11L7.913,3.465l0.071-0.145C7.759,3.365,7.473,3.488,7.356,3.474
				c0.14-0.073,0.211-0.142,0.358-0.25C7.572,3.356,7.825,3.242,7.823,3.311c0.003-0.035,0.079-0.077,0.108-0.087
				c0,0-0.049,0.003-0.1,0.005c-0.05,0.006-0.101,0.012-0.101,0.012c0.127-0.085,0.082-0.082,0.115-0.138
				c-0.228,0.189-0.2,0.063-0.296,0.093c0.076-0.065,0.161-0.123,0.172-0.07c0.14-0.182-0.314,0.169-0.197,0.013
				c0.01,0.007,0.002,0.021,0.045-0.011c-0.086,0.04-0.071-0.053,0.003-0.101l0.008,0.008c-0.018-0.084-0.157-0.16-0.334,0.018
				C7.269,3.026,7.461,2.834,7.499,2.8c0,0-0.169,0.132-0.332,0.271C7.005,3.21,6.852,3.355,6.852,3.355
				C7.002,3.199,7.3,2.774,7.427,2.721C7.436,2.687,7.44,2.643,7.362,2.679C7.351,2.71,7.184,2.94,7.161,2.945
				c0.12-0.212,0.061-0.116,0.145-0.311C7.289,2.682,7.068,2.938,7.053,2.914c0.035-0.038,0.203-0.266,0.232-0.289
				c0,0-0.063,0.055-0.128,0.111C7.094,2.796,7.031,2.85,7.031,2.85c0.048-0.037,0.171-0.223,0.214-0.311
				C7.21,2.598,7.198,2.496,7.163,2.512L7.145,2.596C7.11,2.506,6.823,2.943,6.778,2.897c0.044-0.056,0.245-0.349,0.236-0.404
				C6.904,2.628,6.522,3.157,6.421,3.25l0.041-0.091L6.372,3.241C6.514,3.02,6.846,2.59,7.003,2.437
				C7.017,2.356,7.055,2.334,7.012,2.32c0.034-0.087,0.092-0.106,0.107-0.104L7.056,2.109C6.96,2.284,6.888,2.246,6.814,2.394
				c0,0,0.048-0.033,0.097-0.067c0.05-0.029,0.102-0.061,0.102-0.061C6.913,2.44,6.679,2.726,6.641,2.67
				c0.024-0.077,0.178-0.31,0.208-0.367C6.809,2.359,6.731,2.39,6.746,2.344l0.075-0.082C6.819,2.177,6.647,2.471,6.689,2.279
				c-0.006-0.018,0.065-0.254,0.013-0.15C6.633,2.349,6.329,2.986,6.249,3.138c0.003-0.019,0.033-0.227,0.062-0.334
				c0.049-0.174,0.204-0.376,0.25-0.525C6.536,2.328,6.496,2.385,6.483,2.403C6.486,2.351,6.557,2.249,6.514,2.26
				C6.428,2.443,6.456,2.217,6.433,2.411C6.378,2.449,6.414,2.357,6.376,2.35C6.337,2.477,6.177,2.752,6.131,2.794
				C6.15,2.746,6.169,2.682,6.176,2.651C6.125,2.61,6.123,2.518,6.067,2.495c0.012-0.049,0.002-0.114,0.042-0.193
				c-0.021,0.03-0.05,0.093-0.067,0.093c0.017-0.179,0.047-0.013,0.085-0.222c-0.039,0.11-0.098,0.14-0.146,0.2
				C5.938,2.551,6.029,2.426,6.079,2.366C6,2.604,5.875,2.839,5.794,2.933C5.733,2.979,5.819,2.774,5.802,2.804
				C5.731,2.739,5.616,3.208,5.6,3.018c0.014-0.162,0.078-0.31,0.1-0.425c0.054-0.046,0.033,0.114,0.057,0.116L5.746,2.627
				c0.026-0.05,0.061-0.082,0.063-0.034C5.824,2.452,5.671,2.53,5.632,2.384c-0.025,0.05-0.058,0.099-0.063,0.165L5.596,2.53
				C5.586,2.659,5.518,2.696,5.53,2.759c-0.046,0.084-0.105,0.218-0.127,0.14l0.028-0.181C5.423,2.771,5.436,2.828,5.458,2.776
				c-0.03,0.078-0.012-0.253-0.076-0.021l0.002,0.129c-0.045,0.084-0.108,0.267-0.13,0.205c-0.016,0.18,0.012-0.018-0.005,0.192
				c0.029-0.261,0.076,0.027,0.097-0.249C5.323,3.274,5.366,3.141,5.352,3.35c0.011-0.059,0.014-0.113,0.032-0.08
				c0.006-0.018,0.015-0.04,0.017-0.052l0.002,0.007l0-0.008c0.002-0.008,0.002-0.011,0-0.003C5.401,3.187,5.404,3.156,5.408,3.122
				c0.043-0.133,0.086-0.119,0.116-0.187c0.01,0.031-0.022,0.066-0.029,0.131l0.047-0.099C5.515,3.099,5.53,3.194,5.477,3.261
				l0.028,0.015c0.001,0.076,0.019,0.112,0.047,0.063C5.56,3.371,5.63,3.204,5.588,3.302l0.072-0.066l-0.01,0.032
				C5.693,3.296,5.817,3.09,5.795,3.336c0.025-0.027,0.058-0.061,0.07-0.016L5.831,3.429C5.866,3.398,5.847,3.56,5.898,3.451
				c-0.096,0.298,0.06,0.097,0.074,0.161l0.061-0.135c0.021,0.016,0.057-0.013,0.112-0.053l0.055-0.122
				c0.074-0.085,0.02,0.116,0.064,0.125c-0.027,0.042-0.03,0.027-0.021-0.005c-0.1,0.284,0.199-0.139,0.126,0.074
				c0.036-0.036,0.036-0.017,0.023,0.016c0-0.001-0.004,0.001-0.006,0.004C6.388,3.517,6.388,3.518,6.39,3.519
				C6.381,3.541,6.37,3.567,6.363,3.588c0.014-0.031,0.024-0.056,0.028-0.067c0.008,0,0.027-0.007,0.058-0.027L6.375,3.617
				c0.002-0.002,0.002-0.002,0.007-0.003C6.36,3.665,6.428,3.563,6.48,3.471C6.5,3.454,6.519,3.434,6.544,3.408
				c-0.122,0.194,0.07-0.044-0.06,0.166c0.075-0.093,0.101-0.038,0.263-0.229C6.728,3.37,6.721,3.385,6.714,3.383
				C6.708,3.413,6.701,3.445,6.759,3.4l-0.11,0.143l0.183-0.17c-0.058,0.1-0.096,0.151-0.199,0.248
				C6.805,3.487,6.71,3.582,6.884,3.453L6.803,3.539c0.012,0.006,0.138-0.09,0.076-0.016C6.747,3.697,6.96,3.664,6.845,3.844
				c0.274-0.215-0.107,0.113,0.111-0.035C6.891,3.856,6.855,3.89,6.793,3.921c0.082-0.017-0.089,0.105,0.115,0.007
				C6.841,3.971,6.802,3.983,6.762,4.011C6.779,4.004,6.827,3.982,6.787,4.01c-0.041,0.025-0.062,0.03-0.097,0.045
				c0.025,0.013,0.251-0.101,0.464-0.208C7.066,3.914,7.08,3.913,7.227,3.863C7.16,3.903,7.089,3.947,7.056,3.935
				C7.052,3.954,6.978,4.05,7.157,3.983C7.114,4.006,7.15,4.006,7.174,4.002c0.001,0.033-0.013,0.036,0.014,0.065l0.027-0.02
				c0.223-0.055,0.059,0.015,0.094,0.035L7.284,4.086c-0.143,0.11,0.084,0.009-0.081,0.122l0.138-0.039
				C7.641,4.1,7.18,4.27,7.302,4.28l0.077-0.031C7.486,4.248,6.982,4.394,6.948,4.42c-0.026,0.01-0.043,0.001-0.065,0
				C6.718,4.502,7.067,4.389,7.119,4.419C7.021,4.443,6.866,4.458,6.852,4.484C6.774,4.508,7.184,4.505,7,4.573
				c0.076-0.021,0.153-0.04,0.213-0.03c0.031,0.026-0.279,0.114-0.035,0.11c-0.02,0.006-0.039,0.01-0.062,0.012
				C7.184,4.682,7.23,4.727,7.363,4.729C6.874,4.79,7.615,4.855,7.162,4.887l0.026,0.068L7.142,4.956
				C7.113,5.001,7.222,5.01,7.331,5.022c-0.03,0.013-0.072,0.007-0.096,0.007c-0.089,0.068-0.071,0.07,0.156,0.126L7.243,5.16
				c0.085,0.017-0.232,0.09-0.062,0.158c-0.018-0.002-0.044-0.003-0.066-0.01C7.286,5.389,6.697,5.443,7.231,5.51l0.129,0.06
				c0.045-0.058,0.231,0.032,0.32,0.013C7.71,5.613,7.511,5.636,7.491,5.6l0.025-0.003C7.241,5.56,7.41,5.667,7.218,5.644
				c0.002,0.123-0.172,0.21-0.204,0.309l0.213,0.031L7.208,6.021C7.155,6.019,7.041,5.996,7.055,5.972
				C6.932,5.959,7.146,6.039,7.191,6.051C7.092,6.079,6.95,5.975,6.942,5.987l0.01,0.026l0.028,0
				c0.08,0.037,0.171,0.061,0.153,0.091C7.084,6.111,6.999,6.077,6.987,6.083C6.972,6.078,6.965,6.079,6.978,6.092l-0.029,0.04
				l0.17,0.028c0.075,0.044-0.02,0.043,0.173,0.072C6.997,6.183,7.133,6.374,7.038,6.363c0.106,0.07,0.095,0.099,0.068,0.126
				C7.141,6.494,7.325,6.56,7.289,6.585C6.926,6.42,7.103,6.57,6.834,6.471c0.183,0.061,0.009,0.094,0.263,0.183
				c-0.04,0.01-0.133-0.064-0.225-0.088C6.985,6.693,6.723,6.623,6.737,6.7C6.782,6.73,6.854,6.763,6.912,6.819L6.675,6.706
				c0.016,0.023,0.244,0.184,0.08,0.097C6.79,6.825,6.849,6.859,6.856,6.878C6.711,6.853,6.719,6.937,6.687,7.002
				C6.657,7.059,6.601,7.121,6.409,6.96c0.077,0.073,0.073,0.086,0.064,0.095c0.021,0.016,0.079,0.103,0.123,0.158
				c0,0-0.043-0.031-0.084-0.063C6.474,7.118,6.438,7.085,6.438,7.085C6.539,7.25,6.4,7.128,6.496,7.289l-0.003-0.04
				c0.097,0.204,0.301,0.394,0.46,0.628C6.838,7.648,7.269,8.111,7.108,7.779c0.051,0.036,0.05,0.079,0.098,0.125
				C7.146,7.799,7.14,7.765,7.208,7.78l0.015,0.025c0.064-0.102,0.185-0.044,0.34-0.093L7.451,7.624
				c0.033-0.009,0.07,0.015,0.105,0.029c-0.141-0.164-0.06,0.052-0.217-0.126c0.239,0.16,0.122-0.143,0.394,0.034
				c0.029-0.033-0.14-0.087-0.109-0.12l0.077,0.04L7.616,7.408C7.649,7.397,7.746,7.447,7.808,7.49
				c-0.011,0,0.008,0.027,0.008,0.039c0.107,0.026,0.028-0.113,0.063-0.104L7.813,7.432C7.803,7.287,7.986,7.215,7.87,7.036
				L7.808,7.013C7.73,6.887,7.9,6.986,7.888,6.881L7.9,6.889C7.849,6.847,7.829,6.813,7.842,6.794
				c0.064,0.051,0.156,0.019,0.224,0.077c-0.093-0.132-0.079-0.08-0.292-0.221l0.108,0.027c-0.087-0.052-0.135-0.072-0.148-0.12
				C7.81,6.621,7.902,6.586,8.006,6.665c0.26-0.012-0.186-0.2,0.16-0.138C7.885,6.4,7.984,6.551,7.926,6.511
				C7.828,6.497,7.719,6.412,7.753,6.396c0.015-0.024,0.389,0.065,0.402-0.01C8.151,6.393,8.173,6.401,8.172,6.406
				C8.254,6.4,8.084,6.329,8.214,6.327c-0.173-0.062,0.022-0.041-0.205-0.1l0.036,0.077C7.996,6.25,7.735,6.156,7.877,6.131
				C7.921,6.145,7.98,6.176,8.01,6.194c0.072-0.002-0.038-0.043,0.035-0.045c0.226,0.055,0.036,0.088,0.199,0.169
				C8.348,6.321,8.097,6.203,8.34,6.28c-0.311-0.1,0.056-0.063-0.176-0.162L8.3,6.148c-0.02-0.012-0.081-0.04-0.077-0.054L8.4,6.156
				c-0.145-0.071,0.147-0.055,0.071-0.11C8.46,6.129,8.302,6.036,8.194,6.051C8.025,5.924,8.57,6.058,8.519,5.932
				c0.015,0.017-0.092,0.044-0.152,0.01c0.031-0.017,0.09-0.037,0.163-0.04C8.51,5.824,8.384,5.894,8.303,5.851
				c0.174-0.003-0.065-0.045-0.116-0.083L8.33,5.785C8.433,5.713,8.035,5.73,8.155,5.671l0.192,0.052L8.303,5.679l0.162,0.023
				C8.348,5.649,8.377,5.64,8.43,5.599C8.326,5.601,8.168,5.573,8.166,5.537C8.255,5.52,8.303,5.563,8.284,5.51
				c0.09,0.018,0.2,0.038,0.067,0.051c0.045,0.008,0.088,0.017,0.135,0.025c0.101-0.02,0.025-0.066,0.026-0.088
				c-0.006,0.009-0.016,0.017-0.033,0.02L8.285,5.431C8.34,5.422,8.383,5.433,8.426,5.444C8.41,5.428,8.344,5.417,8.333,5.391
				c0.116,0.012,0.238,0.016,0.29,0.051L8.499,5.363C8.548,5.36,8.638,5.329,8.681,5.34c0.066-0.039-0.226-0.107-0.135-0.158
				c-0.02-0.001-0.043-0.008-0.06-0.019c0.026-0.049,0.171-0.097,0.008-0.153l0.208-0.041C8.654,4.921,8.44,5.021,8.358,4.946
				C8.289,4.896,8.534,4.92,8.59,4.898C8.486,4.873,8.271,4.84,8.438,4.78C8.478,4.797,8.446,4.813,8.462,4.826z"/>
		</g>
	</g>
</g>
</svg>
