<svg xmlns="http://www.w3.org/2000/svg" viewBox="0 0 30.918 30.918"><path fill="#583c32" d="M22.33 30.918H5.153a5.153 5.153 0 0 1-5.154-5.153V8.588a5.153 5.153 0 0 1 5.154-5.153h6.871a1.718 1.718 0 1 1 0 3.435H5.153a1.718 1.718 0 0 0-1.718 1.718v17.177a1.718 1.718 0 0 0 1.718 1.718H22.33a1.718 1.718 0 0 0 1.718-1.718v-6.87a1.718 1.718 0 0 1 3.436 0v6.871a5.153 5.153 0 0 1-5.153 5.153ZM12.024 20.612a1.718 1.718 0 0 1-1.215-2.932L25.054 3.435h-6.155a1.718 1.718 0 0 1 0-3.435h10.3a1.712 1.712 0 0 1 1.2.489 1.713 1.713 0 0 1 .489 1.2v10.335a1.718 1.718 0 1 1-3.435 0V5.865L13.238 20.109a1.711 1.711 0 0 1-1.214.5Z"/></svg>