<?xml version="1.0" encoding="utf-8"?>
<!-- Generator: Adobe Illustrator 28.0.0, SVG Export Plug-In . SVG Version: 6.00 Build 0)  -->
<svg version="1.1" id="レイヤー_1" xmlns="http://www.w3.org/2000/svg" xmlns:xlink="http://www.w3.org/1999/xlink" x="0px"
	 y="0px" viewBox="0 0 208.4 313.5" style="enable-background:new 0 0 208.4 313.5;" xml:space="preserve">
<style type="text/css">
	.st0{fill:url(#SVGID_1_);}
	.st1{fill:#F2B4C0;}
	.st2{fill:#FFFFFF;}
	.st3{fill:#F7D3D9;}
	.st4{fill:#85C9BE;}
	.st5{fill:#ED90A6;}
	.st6{fill:url(#SVGID_00000022534922680082855410000017493028461771421065_);}
	.st7{fill:#73463A;}
	.st8{fill:#EA7E8D;}
	.st9{fill:#E65375;}
	.st10{fill:#EE9AB2;}
	.st11{fill:#FFEEC8;}
	.st12{fill:#E64A2A;}
	.st13{fill-rule:evenodd;clip-rule:evenodd;fill:#FFEEC8;}
	.st14{fill:#F0A39E;}
	.st15{fill-rule:evenodd;clip-rule:evenodd;fill:#EE9AB2;}
	.st16{fill:#B27C4E;}
	.st17{fill:#A6693D;}
	.st18{fill:#FFE000;}
	.st19{fill:#F9C70B;}
	.st20{fill:#F2A22D;}
	.st21{fill:#C98926;}
	.st22{fill:#FACE00;}
	.st23{fill:#BC7819;}
	.st24{clip-path:url(#SVGID_00000119829423075855906300000001779417737407755923_);}
	.st25{clip-path:url(#SVGID_00000007402351030187088150000005360125723590686881_);}
	.st26{fill:#FFD8DE;}
	.st27{fill:none;stroke:#F7D3D9;stroke-width:3.2518;stroke-linecap:round;stroke-linejoin:round;}
	.st28{fill:#FFEEF1;}
	.st29{fill:none;stroke:#F7D3D9;stroke-width:3.1718;stroke-linecap:round;stroke-linejoin:round;}
</style>
<linearGradient id="SVGID_1_" gradientUnits="userSpaceOnUse" x1="-18" y1="155.9308" x2="213.6" y2="155.9308">
	<stop  offset="0" style="stop-color:#FFEEF1"/>
	<stop  offset="0.1413" style="stop-color:#FFEEF1"/>
	<stop  offset="1" style="stop-color:#FFEEF1"/>
</linearGradient>
<rect x="-18" y="-9" class="st0" width="231.6" height="329.9"/>
<g>
	<g>
		<path class="st1" d="M82.4,147.7l-0.4-0.2l0.2-0.4c1.6-2.6,0.8-6.1-1.8-7.7c-2.6-1.6-6.1-0.8-7.7,1.8l-0.2,0.4l-0.4-0.2
			c-2.6-1.6-6.1-0.8-7.7,1.8c-1.6,2.6-0.8,6.1,1.8,7.7l0.4,0.2l-0.2,0.4c-1.6,2.6-0.8,6.1,1.8,7.7c2.6,1.6,6.1,0.8,7.7-1.8l0.2-0.4
			l0.4,0.2c2.6,1.6,6.1,0.8,7.7-1.8S85,149.3,82.4,147.7z"/>
		<g>
			<path class="st2" d="M77.8,155.1l-10.4-6.4c-1.4-0.9-1.9-2.8-1-4.2l0.1-0.1c0.9-1.4,2.8-1.9,4.2-1l10.4,6.4
				c1.4,0.9,1.9,2.8,1,4.2l-0.1,0.1C81.1,155.5,79.3,156,77.8,155.1z"/>
			<path class="st2" d="M80.1,145.7l-6.4,10.4c-0.9,1.4-2.8,1.9-4.2,1l-0.1-0.1c-1.4-0.9-1.9-2.8-1-4.2l6.4-10.4
				c0.9-1.4,2.8-1.9,4.2-1l0.1,0.1C80.6,142.4,81,144.3,80.1,145.7z"/>
		</g>
	</g>
	<path class="st3" d="M37.6,79.5c0,4-3.3,7.3-7.3,7.3S23,83.5,23,79.5c0-4,3.3-7.3,7.3-7.3S37.6,75.5,37.6,79.5z"/>
	<path class="st1" d="M144,43.6c0.1,3.1-2.8,6.3-7.4,8c-4.3-1.3-7.2-4.2-7.3-7.3c0-0.4-0.1-3.5,2.2-4.7c1.6-0.8,3.7-0.4,5.3,1.1
		c1.5-1.4,3.6-1.8,5.1-1.1C143.9,40.5,144,43.2,144,43.6z"/>
	<path class="st4" d="M173.1,140.9c0.1,3-2.7,6-7,7.6c-4.1-1.2-6.9-4-7-7c0-0.4-0.1-3.3,2.1-4.5c1.5-0.8,3.5-0.4,5,1
		c1.5-1.3,3.4-1.7,4.8-1C172.9,138,173.1,140.5,173.1,140.9z"/>
	<g>
		<path class="st1" d="M41.2,239.8c-0.9-0.4-1.8-0.6-2.8-0.6c-1.1,0-2.2,0.3-3.3,0.8c-1.1-0.6-2.2-0.8-3.4-0.8c-1,0-2,0.2-2.9,0.7
			c-2.8,1.4-3.7,4.6-3.6,7.1c0.2,4.2,3.7,7.9,9,9.5l0.9,0.3l0.9-0.3c5.5-2,9-6.1,8.8-10.3C44.8,243.8,43.8,241.1,41.2,239.8z"/>
		<path class="st2" d="M42.1,246.2c0.1,3-2.7,6-7,7.6c-4.1-1.2-6.9-4-7-7c0-0.4-0.1-3.3,2.1-4.5c1.5-0.8,3.5-0.4,5,1
			c1.5-1.3,3.4-1.7,4.8-1C41.9,243.3,42.1,245.9,42.1,246.2z"/>
	</g>
	<path class="st1" d="M167.1,256.1c0.1,3.1-2.8,6.3-7.4,8c-4.3-1.3-7.2-4.2-7.3-7.3c0-0.4-0.1-3.5,2.2-4.7c1.6-0.8,3.7-0.4,5.3,1.1
		c1.5-1.4,3.6-1.8,5.1-1.1C167,253.1,167.1,255.8,167.1,256.1z"/>
	<path class="st5" d="M26.8,197.4c-0.2-4.7-3.9-9.2-9.5-8.5c-2.2,0.3-4.4,1.4-5.7,3.1c-2.5,3.4-2.5,8.1-0.1,11.5
		c0.4,0.5,0.8,1.1,1.4,1.5c1.8,1.4,4.5,1.9,7,1.5c2.4-0.4,4.3-1.5,5.5-3.4C26.4,201.4,26.9,199.4,26.8,197.4z M14.7,193.2
		c0.7,0,1.2,0.1,1.7,0.5c1.1,1,0.9,3.1-0.6,3.4C13.3,197.7,12.5,194.5,14.7,193.2z M16.6,202.1c-2.5,1.3-4.5-1.9-1.8-3.5
		c0.6,0,1.3,0,1.8,0.3C17.9,199.5,17.9,201.5,16.6,202.1z M19.8,192.9c0.8,0,1.5,0.2,2,0.7c1,0.9,0.7,2.6-0.5,3
		C18.8,197.6,17.4,194.3,19.8,192.9z M21.6,201.8c-2.5,0.7-3.2-2.4-1.1-3.7c0.6,0,1.2,0.1,1.6,0.4C23.4,199.4,23,201.4,21.6,201.8z"
		/>
	<path class="st3" d="M22.5,252.2c0,2.4-1.9,4.3-4.3,4.3c-2.4,0-4.3-1.9-4.3-4.3c0-2.4,1.9-4.3,4.3-4.3
		C20.6,247.9,22.5,249.8,22.5,252.2z"/>
	<circle class="st3" cx="22.4" cy="12.7" r="4.3"/>
	<circle class="st3" cx="28" cy="155.4" r="4.3"/>
	<path class="st5" d="M203.2,95.3c0-4.7-3.5-9.3-9.1-9c-2.2,0.1-4.5,1.2-5.8,2.8c-2.6,3.2-2.9,7.9-0.7,11.4c0.4,0.6,0.8,1.1,1.3,1.5
		c1.7,1.5,4.4,2.1,6.9,1.9c2.4-0.2,4.3-1.3,5.7-3.1C202.7,99.2,203.2,97.2,203.2,95.3z M191.3,90.5c0.7,0.1,1.2,0.2,1.7,0.6
		c1.1,1,0.7,3.1-0.8,3.4C189.7,94.9,189.1,91.7,191.3,90.5z M192.8,99.5c-2.5,1.1-4.4-2.1-1.6-3.6c0.6,0,1.3,0.1,1.7,0.4
		C194.2,96.9,194.1,98.9,192.8,99.5z M196.4,90.5c0.8,0.1,1.4,0.2,2,0.8c0.9,0.9,0.5,2.6-0.6,3C195.2,95.1,193.9,91.8,196.4,90.5z
		 M197.8,99.4c-2.5,0.5-3.1-2.5-0.9-3.7c0.6,0,1.2,0.1,1.6,0.4C199.8,97.1,199.3,99.1,197.8,99.4z"/>
	<path class="st3" d="M193.9,227.6c0,2.4-1.9,4.3-4.3,4.3s-4.3-1.9-4.3-4.3c0-2.4,1.9-4.3,4.3-4.3S193.9,225.2,193.9,227.6z"/>
	<path class="st3" d="M168,10.6c0,2.4-1.9,4.3-4.3,4.3c-2.4,0-4.3-1.9-4.3-4.3c0-2.4,1.9-4.3,4.3-4.3C166.1,6.3,168,8.2,168,10.6z"
		/>
	<circle class="st3" cx="162.2" cy="172.3" r="4.3"/>
	<circle class="st3" cx="182.7" cy="193.2" r="4.3"/>
	
		<linearGradient id="SVGID_00000074424537340410987740000010627169262243963069_" gradientUnits="userSpaceOnUse" x1="104.2311" y1="321.231" x2="104.2311" y2="1.5644">
		<stop  offset="0" style="stop-color:#FFEEF1"/>
		<stop  offset="0.1413" style="stop-color:#FFEEF1"/>
		<stop  offset="1" style="stop-color:#FFEEF1"/>
	</linearGradient>
	<rect x="-0.6" style="fill:url(#SVGID_00000074424537340410987740000010627169262243963069_);" width="209.6" height="319.7"/>
	<g>
		<g>
			<path class="st7" d="M61.6,30h-6.9c-0.5,0-0.9,0.4-0.9,0.9s0.4,0.9,0.9,0.9h6.7c0.5,0,0.5,0.1,0.5,0.3v5.1c0,0.3,0,0.3-0.5,0.3
				h-6.9c-0.5,0-0.9,0.4-0.9,0.9c0,0.5,0.4,0.9,0.9,0.9h7.1c1.4,0,2.2-0.7,2.2-1.9v-5.6C63.9,30.7,63.1,30,61.6,30z"/>
			<path class="st7" d="M73.3,29.5c0-0.5-0.4-0.9-1-0.9c-0.5,0-1,0.3-1,0.9v5.7c0,0.6,0.5,0.9,1,0.9c0.6,0,1-0.4,1-0.9V29.5z"/>
			<path class="st7" d="M78,28.4c-0.6,0-1,0.4-1,0.9v4.3c0,3-0.9,4.7-3.3,5.7c-0.4,0.2-0.7,0.5-0.7,0.9c0,0.5,0.4,0.9,0.9,0.9
				c0.2,0,0.3,0,0.4-0.1c3-1.2,4.5-3.7,4.5-7.3v-4.4C79,28.8,78.6,28.4,78,28.4z"/>
			<path class="st7" d="M94.7,32L87.2,32c-0.6,0-0.9,0.5-0.9,0.9c0,0.5,0.3,0.9,0.9,0.9l7.4-0.1c0.1,0,0.1,0,0.2,0c0,0,0,0.1,0,0.1
				c-0.6,2.3-2.4,4.1-5.1,5C89.3,39,89,39.4,89,39.8c0,0.5,0.4,0.9,0.9,0.9c0.1,0,0.2,0,0.4-0.1c3.3-1.2,5.5-3.5,6.3-6.4
				c0.1-0.3,0.1-0.5,0.1-0.7c0-0.5-0.1-0.8-0.4-1.1C95.9,32.1,95.4,32,94.7,32z"/>
			<path class="st7" d="M88.6,30.8h6.1c0.6,0,0.9-0.5,0.9-0.9c0-0.5-0.4-0.9-0.9-0.9h-6.1c-0.5,0-0.9,0.4-0.9,0.9
				C87.7,30.4,88.1,30.8,88.6,30.8z"/>
			<path class="st7" d="M112,31.4c-0.4,0-0.8,0.3-0.9,0.7c-0.8,3.1-2.8,5.8-5.4,7.3c-0.3,0.2-0.5,0.5-0.5,0.8c0,0.5,0.4,0.9,0.9,0.9
				c0.2,0,0.3,0,0.5-0.1c3-1.6,5.4-4.8,6.4-8.4c0.1-0.3,0-0.6-0.2-0.8C112.6,31.5,112.3,31.4,112,31.4z"/>
			<path class="st7" d="M107.1,34.1c0.1,0.4,0.4,0.6,0.8,0.6c0.5,0,1-0.4,1-0.9c0-0.1,0-0.2-0.1-0.4c-0.3-0.7-0.7-1.6-1.1-2.1
				c-0.2-0.3-0.5-0.4-0.8-0.4c-0.5,0-0.9,0.4-0.9,0.8c0,0.1,0,0.3,0.1,0.5C106.5,32.6,106.9,33.4,107.1,34.1z"/>
			<path class="st7" d="M106,34.5c0-0.2,0-0.3-0.1-0.4l0,0c-0.3-0.7-0.8-1.6-1.1-2.1c-0.2-0.3-0.5-0.4-0.8-0.4
				c-0.5,0-0.9,0.4-0.9,0.8c0,0.2,0,0.3,0.1,0.5c0.3,0.5,0.7,1.3,1,2c0.1,0.4,0.5,0.6,0.9,0.6C105.6,35.5,106,35,106,34.5z"/>
			<path class="st7" d="M127.1,30.3C127.1,30.3,127.1,30.3,127.1,30.3l-2.8,0c0.2-0.4,0.4-0.8,0.5-1.2c0-0.1,0.1-0.2,0.1-0.4
				c0-0.5-0.4-0.9-1-0.9c-0.4,0-0.7,0.2-0.9,0.6c-0.7,1.8-2,3.7-3.4,4.9c-0.2,0.2-0.4,0.5-0.4,0.8c0,0.5,0.4,0.9,0.9,0.9
				c0.3,0,0.5-0.1,0.7-0.3c0.8-0.7,1.6-1.6,2.4-2.7l3.5,0c0,0,0,0,0,0c-0.8,2.8-3.1,5.7-5.7,7.2c-0.4,0.2-0.6,0.6-0.6,0.9
				c0,0.5,0.4,0.9,0.9,0.9c0.2,0,0.4-0.1,0.6-0.1c3.1-1.7,5.8-5,6.7-8.4c0.1-0.2,0.1-0.5,0.1-0.7c0-0.4-0.1-0.8-0.4-1
				C128.2,30.4,127.7,30.3,127.1,30.3z"/>
			<path class="st7" d="M144.6,30.2l-8.9,0.1c-0.5,0-0.9,0.4-0.9,0.9c0,0.5,0.4,0.9,0.9,0.9l8.7-0.1c-0.8,1.3-2.2,2.7-3.7,3.8
				c-0.6-0.5-1.1-0.9-1.6-1.3c-0.2-0.1-0.4-0.2-0.6-0.2c-0.5,0-0.9,0.4-0.9,0.9c0,0.3,0.2,0.6,0.4,0.8c1.2,0.9,2.8,2.4,3.8,3.6
				c0.2,0.3,0.5,0.4,0.8,0.4c0.5,0,0.9-0.4,0.9-0.9c0-0.3-0.1-0.5-0.3-0.8c-0.3-0.4-0.7-0.8-1.2-1.3c1.6-1.2,3.2-2.7,4.1-4.2
				c0.3-0.4,0.4-0.8,0.4-1.2c0-0.4-0.1-0.7-0.4-1C145.8,30.4,145.3,30.2,144.6,30.2z"/>
			<path class="st7" d="M151.7,37.1c-0.3-0.2-0.7-0.2-1,0c-0.3,0.2-0.4,0.4-0.4,0.7c0,0.3,0.1,0.5,0.4,0.7c0.7,0.5,1.7,1.5,2.3,2.3
				c0.2,0.3,0.5,0.5,0.9,0.5c0.5,0,1-0.4,1-1c0-0.3-0.1-0.5-0.3-0.8C153.8,38.7,152.6,37.7,151.7,37.1z"/>
		</g>
		<g>
			<path class="st7" d="M22,62.3h-3.6c0.7-0.7,1.5-1.4,2.4-2.4c1.4-1.4,1.9-2.5,1.9-3.8c0-2-1.3-3.3-3.4-3.3c-1.1,0-2.3,0.5-3.2,1.4
				c-0.2,0.2-0.3,0.4-0.3,0.7c0,0.8,1,1.4,1.7,0.7c0.6-0.6,1.2-0.9,1.8-0.9c0.8,0,1.3,0.5,1.3,1.4c0,0.8-0.3,1.5-1.2,2.5
				c-1.2,1.4-2.4,2.5-3.3,3.3c-0.4,0.3-0.6,0.7-0.6,1.2c0,0.5,0.4,1.1,1,1.1H22c0.6,0,1-0.4,1-0.9C22.9,62.6,22.5,62.3,22,62.3z"/>
			<path class="st7" d="M29.7,52.8c-1.8,0-3.9,1-3.9,5.8c0,4.8,2.1,5.8,3.9,5.8c1.8,0,3.9-1,3.9-5.8C33.6,53.8,31.5,52.8,29.7,52.8z
				 M29.7,62.5c-0.8,0-1.8-0.4-1.8-3.9c0-3.5,0.9-3.9,1.8-3.9c0.8,0,1.8,0.4,1.8,3.9C31.4,62.1,30.5,62.5,29.7,62.5z"/>
			<path class="st7" d="M42.8,62.3h-3.6c0.7-0.7,1.5-1.4,2.4-2.4c1.4-1.4,1.9-2.5,1.9-3.8c0-2-1.3-3.3-3.4-3.3
				c-1.1,0-2.3,0.5-3.2,1.4c-0.2,0.2-0.3,0.4-0.3,0.7c0,0.8,1,1.4,1.7,0.7c0.6-0.6,1.2-0.9,1.8-0.9c0.8,0,1.3,0.5,1.3,1.4
				c0,0.8-0.3,1.5-1.2,2.5c-1.2,1.4-2.4,2.5-3.3,3.3c-0.4,0.3-0.6,0.7-0.6,1.2c0,0.5,0.4,1.1,1,1.1h5.4c0.6,0,1-0.4,1-0.9
				C43.8,62.6,43.4,62.3,42.8,62.3z"/>
			<path class="st7" d="M53.6,60H53v-5.7c0-1.3-0.7-1.5-1.3-1.5c-0.6,0-1.1,0.3-1.5,0.9l-3.4,5.8c-0.2,0.4-0.4,0.8-0.4,1.2
				c0,0.7,0.5,1.2,1.3,1.2H51v1.6c0,0.6,0.4,1,1,1c0.6,0,1-0.4,1-1v-1.6h0.7c0.6,0,1-0.3,1-0.9S54.3,60,53.6,60z M51,56.6V60h-2.5
				l2-3.5c0.2-0.3,0.3-0.6,0.5-0.8C51,56,51,56.3,51,56.6z"/>
			<path class="st7" d="M73.8,60.1H69v-1.8h3.2c0.4,0,0.8-0.4,0.8-0.8c0-0.5-0.3-0.8-0.8-0.8H69v-1.4h4.3c0.5,0,0.8-0.4,0.8-0.8
				c0-0.5-0.3-0.8-0.8-0.8h-8c0.1-0.3,0.2-0.5,0.4-0.8c0-0.1,0.1-0.2,0.1-0.3c0-0.6-0.5-0.9-0.9-0.9c-0.4,0-0.7,0.2-0.8,0.6
				c-0.7,1.9-1.9,3.8-3,5c-0.2,0.2-0.3,0.4-0.3,0.6c0,0.5,0.4,0.8,0.9,0.8c0.2,0,0.5-0.1,0.6-0.3c0.8-0.8,1.6-1.9,2.3-3h2.7v1.4
				h-2.1c-1.7,0-1.9,1.1-1.9,1.7v1.8h-1.8c-0.5,0-0.8,0.4-0.8,0.8s0.3,0.8,0.8,0.8h5.8v3.2c0,0.5,0.4,0.8,0.9,0.8
				c0.5,0,0.9-0.3,0.9-0.8v-3.2h4.8c0.5,0,0.8-0.4,0.8-0.8S74.3,60.1,73.8,60.1z M67.2,60.1H65v-1.6c0-0.1,0-0.2,0-0.2
				c0,0,0.1,0,0.4,0h1.9V60.1z"/>
			<path class="st7" d="M89.3,55.8c-0.6-0.4-1.3,0-1.3,0.6c0,0.2,0.1,0.5,0.3,0.6c0.4,0.3,0.9,0.8,1.3,1.3c0.2,0.2,0.4,0.3,0.6,0.3
				c0.4,0,0.8-0.4,0.8-0.8c0-0.2-0.1-0.4-0.2-0.6C90.3,56.7,89.7,56.1,89.3,55.8z"/>
			<path class="st7" d="M87.3,62.6c-1.9-0.2-3-1.2-3-2.7c0-1,0.4-2.8,2.8-4.2c0.5-0.3,1-0.5,1.5-0.5c0.5-0.1,0.8-0.5,0.8-0.9
				c0-0.2-0.1-0.5-0.3-0.7c-0.2-0.2-0.5-0.3-0.8-0.3c-3,0.3-6.8,0.7-9.7,1.1c-0.6,0.1-0.9,0.5-0.9,0.9c0,0.3,0.1,0.5,0.3,0.7
				c0.2,0.2,0.5,0.3,0.8,0.2c2-0.3,4-0.6,5.7-0.8c-1.8,1.7-2.1,3.5-2.1,4.5c0,2.4,2,4.3,4.8,4.5c0,0,0.1,0,0.1,0
				c0.3,0,0.5-0.1,0.7-0.3c0.2-0.2,0.3-0.4,0.3-0.7C88.2,63.1,87.9,62.7,87.3,62.6z"/>
			<path class="st7" d="M88,56.9c-0.5-0.4-1.3,0-1.3,0.6c0,0.2,0.1,0.4,0.3,0.6c0.4,0.3,0.9,0.8,1.2,1.3c0.2,0.2,0.4,0.3,0.6,0.3
				c0.4,0,0.8-0.4,0.8-0.8c0-0.2-0.1-0.4-0.2-0.6C89,57.8,88.5,57.3,88,56.9z"/>
			<path class="st7" d="M103.7,62.3h-3.6c0.7-0.7,1.5-1.4,2.4-2.4c1.4-1.4,1.9-2.5,1.9-3.8c0-2-1.3-3.3-3.4-3.3
				c-1.1,0-2.3,0.5-3.2,1.4c-0.2,0.2-0.3,0.4-0.3,0.7c0,0.8,1,1.4,1.7,0.7c0.6-0.6,1.2-0.9,1.8-0.9c0.8,0,1.3,0.5,1.3,1.4
				c0,0.8-0.3,1.5-1.2,2.5c-1.2,1.4-2.4,2.5-3.3,3.3c-0.4,0.3-0.6,0.7-0.6,1.2c0,0.5,0.4,1.1,1,1.1h5.4c0.6,0,1-0.4,1-0.9
				C104.7,62.6,104.3,62.3,103.7,62.3z"/>
			<path class="st7" d="M111.5,52.8c-1.8,0-3.9,1-3.9,5.8c0,4.8,2.1,5.8,3.9,5.8c1.8,0,3.9-1,3.9-5.8
				C115.4,53.8,113.3,52.8,111.5,52.8z M111.5,62.5c-0.8,0-1.8-0.4-1.8-3.9c0-3.5,0.9-3.9,1.8-3.9c0.8,0,1.8,0.4,1.8,3.9
				C113.2,62.1,112.3,62.5,111.5,62.5z"/>
			<path class="st7" d="M132.3,52.1h-7.1c-1.4,0-2.2,0.8-2.2,2v3.4c0,3-0.4,5-1.4,6.5c-0.1,0.2-0.2,0.4-0.2,0.6
				c0,0.5,0.4,0.9,0.9,0.9c0.3,0,0.6-0.2,0.8-0.4c1.1-1.7,1.7-4,1.7-7c0.1,0.3,0.4,0.5,0.7,0.5h6.3c0.3,0,0.6-0.2,0.7-0.4v5.1
				c0,0.3-0.1,0.3-0.3,0.3c-0.3,0-0.5,0-0.8-0.1c-0.3-0.1-0.5,0-0.7,0.2c-0.2,0.2-0.3,0.4-0.3,0.7c0,0.4,0.3,0.8,0.8,0.9
				c0.4,0.1,0.7,0.1,1.2,0.1c1.2,0,2-0.8,2-2v-9.4C134.3,52.8,133.6,52.1,132.3,52.1z M127.6,54.6h-1.6c-0.5,0-0.8,0.3-0.8,0.8
				c0,0.4,0.3,0.8,0.8,0.8h1.6v0.7h-2.1c-0.3,0-0.6,0.2-0.7,0.4v-3.1c0-0.2,0-0.5,0.7-0.5h2.1V54.6z M132.6,57.3
				c-0.1-0.2-0.4-0.4-0.7-0.4h-2.5v-0.7h1.9c0.5,0,0.8-0.4,0.8-0.8c0-0.5-0.3-0.8-0.8-0.8h-1.9v-0.8h2.6c0.6,0,0.6,0.1,0.6,0.2V57.3
				z"/>
			<path class="st7" d="M131.6,61.9v-1.5c0-1-0.6-1.5-1.7-1.5h-2.6c-1.1,0-1.7,0.5-1.7,1.5v1.5c0,1.3,1,1.5,1.7,1.5h2.6
				C131,63.3,131.6,62.9,131.6,61.9z M129.8,61.7C129.8,61.7,129.8,61.8,129.8,61.7c0,0.1-0.1,0.1-0.2,0.1h-2.2
				c-0.2,0-0.2,0-0.2-0.1l0-1.2c0,0,0,0,0.2,0h2.2c0.2,0,0.2,0,0.2,0.1V61.7z"/>
			<path class="st7" d="M151.2,60.1h-4.8v-1.8h3.2c0.4,0,0.8-0.4,0.8-0.8c0-0.5-0.3-0.8-0.8-0.8h-3.2v-1.4h4.3
				c0.5,0,0.8-0.4,0.8-0.8c0-0.5-0.3-0.8-0.8-0.8h-8c0.1-0.3,0.2-0.5,0.4-0.8c0-0.1,0.1-0.2,0.1-0.3c0-0.6-0.5-0.9-0.9-0.9
				c-0.4,0-0.7,0.2-0.8,0.6c-0.7,1.9-1.9,3.8-3,5c-0.2,0.2-0.3,0.4-0.3,0.6c0,0.5,0.4,0.8,0.9,0.8c0.2,0,0.5-0.1,0.6-0.3
				c0.8-0.8,1.6-1.9,2.3-3h2.7v1.4h-2.1c-1.7,0-1.9,1.1-1.9,1.7v1.8h-1.8c-0.5,0-0.8,0.4-0.8,0.8s0.3,0.8,0.8,0.8h5.8v3.2
				c0,0.5,0.4,0.8,0.9,0.8c0.5,0,0.9-0.3,0.9-0.8v-3.2h4.8c0.5,0,0.8-0.4,0.8-0.8S151.6,60.1,151.2,60.1z M144.5,60.1h-2.2v-1.6
				c0-0.1,0-0.2,0-0.2c0,0,0.1,0,0.4,0h1.9V60.1z"/>
			<path class="st7" d="M166.6,55.8c-0.6-0.4-1.3,0-1.3,0.6c0,0.2,0.1,0.5,0.3,0.6c0.4,0.3,0.9,0.8,1.3,1.3c0.2,0.2,0.4,0.3,0.6,0.3
				c0.4,0,0.8-0.4,0.8-0.8c0-0.2-0.1-0.4-0.2-0.6C167.7,56.7,167.1,56.1,166.6,55.8z"/>
			<path class="st7" d="M165.3,56.9c-0.5-0.4-1.3,0-1.3,0.6c0,0.2,0.1,0.4,0.3,0.6c0.4,0.3,0.9,0.8,1.2,1.3c0.2,0.2,0.4,0.3,0.6,0.3
				c0.4,0,0.8-0.4,0.8-0.8c0-0.2-0.1-0.4-0.2-0.6C166.4,57.8,165.8,57.3,165.3,56.9z"/>
			<path class="st7" d="M164.6,62.6c-1.9-0.2-3-1.2-3-2.7c0-1,0.4-2.8,2.8-4.2c0.5-0.3,1-0.5,1.5-0.5c0.5-0.1,0.8-0.5,0.8-0.9
				c0-0.2-0.1-0.5-0.3-0.7c-0.2-0.2-0.5-0.3-0.8-0.3c-3,0.3-6.8,0.7-9.7,1.1c-0.6,0.1-0.9,0.5-0.9,0.9c0,0.3,0.1,0.5,0.3,0.7
				c0.2,0.2,0.5,0.3,0.8,0.2c2-0.3,4-0.6,5.7-0.8c-1.8,1.7-2.1,3.5-2.1,4.5c0,2.4,2,4.3,4.8,4.5c0,0,0.1,0,0.1,0
				c0.3,0,0.5-0.1,0.7-0.3c0.2-0.2,0.3-0.4,0.3-0.7C165.6,63.1,165.3,62.7,164.6,62.6z"/>
			<path class="st7" d="M183.5,54.1c-1.2,0-2.6,0-4.2,0.1v-1.6c0-0.6-0.5-0.9-0.9-0.9c-0.5,0-0.9,0.4-0.9,0.9c0,0.6,0,1.2,0,1.7
				c-2.4,0.1-4.2,0.2-5.5,0.3c-0.6,0-0.9,0.5-0.9,0.9c0,0.3,0.1,0.5,0.3,0.7c0.2,0.2,0.5,0.3,0.7,0.2c1.6-0.1,3.5-0.2,5.4-0.3l0,0.2
				c0,0.2,0,0.4,0,0.6c-0.2,0-0.4-0.1-0.7-0.1c-1.3,0-2.3,1.1-2.3,2.5c0,1.7,1.1,2.9,2.6,2.9c0.2,0,0.4,0,0.5-0.1
				c-0.4,0.6-0.9,1.1-1.6,1.4c-0.4,0.2-0.6,0.5-0.6,0.9c0,0.5,0.4,0.9,0.9,0.9c0.1,0,0.3,0,0.5-0.1c1.9-0.9,3.1-2.8,3.1-5.1
				c0-0.7-0.2-1.4-0.5-1.9c0-0.6-0.1-1.2-0.1-1.9l0-0.4c1.7-0.1,3.1-0.1,4.1-0.1c0.6,0,1-0.5,1-0.9
				C184.4,54.5,184.1,54.1,183.5,54.1z M177.2,60.4c-0.4,0-0.9-0.4-0.9-1.1c0-0.5,0.3-0.9,0.7-0.9c0.6,0,1,0.4,1,1.1
				C177.9,60.1,177.7,60.4,177.2,60.4z"/>
			<path class="st7" d="M190.2,59.8c-1.5,0-2.7,1.2-2.7,2.7c0,1.5,1.2,2.7,2.7,2.7c1.5,0,2.7-1.2,2.7-2.7
				C192.9,61,191.7,59.8,190.2,59.8z M190.2,63.7c-0.7,0-1.2-0.5-1.2-1.2c0-0.7,0.5-1.2,1.2-1.2c0.7,0,1.2,0.5,1.2,1.2
				C191.4,63.2,190.8,63.7,190.2,63.7z"/>
		</g>
	</g>
	<path class="st5" d="M198.5,88.4c-0.2-4.7-3.9-9.2-9.5-8.5c-2.2,0.3-4.4,1.4-5.7,3.1c-2.5,3.4-2.5,8.1-0.1,11.5
		c0.4,0.5,0.8,1.1,1.4,1.5c1.8,1.4,4.5,1.9,7,1.5c2.4-0.4,4.3-1.5,5.5-3.4C198.2,92.3,198.6,90.3,198.5,88.4z M186.4,84.1
		c0.7,0,1.2,0.1,1.7,0.5c1.1,1,0.9,3.1-0.6,3.4C185,88.6,184.2,85.4,186.4,84.1z M188.3,93c-2.5,1.3-4.5-1.9-1.8-3.5
		c0.6,0,1.3,0,1.8,0.3C189.6,90.4,189.6,92.4,188.3,93z M191.5,83.9c0.8,0,1.5,0.2,2,0.7c1,0.9,0.7,2.6-0.5,3
		C190.5,88.6,189.1,85.3,191.5,83.9z M193.3,92.8c-2.5,0.7-3.2-2.4-1.1-3.7c0.6,0,1.2,0.1,1.6,0.4C195.2,90.3,194.8,92.4,193.3,92.8
		z"/>
	<path class="st3" d="M22.4,252.7c0,2.4-1.9,4.3-4.3,4.3c-2.4,0-4.3-1.9-4.3-4.3c0-2.4,1.9-4.3,4.3-4.3
		C20.4,248.4,22.4,250.3,22.4,252.7z"/>
	<g>
		<g>
			<g>
				<path class="st7" d="M26.5,126.1c0.1,0.1,0.3,0.1,0.4,0.1c0.1,0,0.2,0,0.3-0.1c0.2-0.1,0.3-0.3,0.3-0.6c0-0.5-0.5-1.1-0.9-1.2
					c-0.2-0.1-0.4-0.1-0.5-0.1l-0.1,0l0,0c-0.1,0.2-0.3,0.3-0.3,0.6C25.7,125.2,26.1,125.8,26.5,126.1z"/>
			</g>
			<g>
				<path class="st7" d="M21.8,132.6c0.3-0.1,0.5-0.3,0.5-0.5c0.1-0.3-0.1-0.8-0.2-1.2c0-0.2-0.1-0.3-0.1-0.5
					c-0.1-0.6-0.1-1.2-0.2-1.7c0-0.3,0-0.5-0.1-0.7c0.5-0.1,1.8-0.4,2.1-0.9c0.2-0.4,0-0.6-0.1-0.7c-0.3-0.2-0.8-0.2-1.2,0l0,0
					c-0.2,0-0.5,0.1-0.7,0.2l-0.1,0c0,0,0-0.1,0-0.1c-0.1-0.5-0.1-1-0.9-0.9l-0.1,0l0,0c-0.3,0.3-0.3,0.6-0.3,0.9c0,0.1,0,0.3,0,0.4
					c-0.1,0-0.2,0.1-0.2,0.1c-0.2,0.1-0.3,0.1-0.4,0.1l-0.1,0c-0.1,0-0.3,0-0.4,0.1c-0.2,0-0.4,0.1-0.6,0.2
					c-0.2,0.2-0.3,0.4-0.2,0.6c0,0.2,0.2,0.4,0.4,0.5c0.4,0.1,0.8,0,1.3-0.2c0.1,0,0.3-0.1,0.4-0.1c0,0.3,0,0.6,0,0.9
					c0.1,0.7,0.2,1.4,0.3,2.1c0,0.1,0,0.1,0,0.2c0.1,0.3,0.1,0.6,0.3,0.9c0.1,0.2,0.3,0.3,0.6,0.3C21.7,132.6,21.7,132.6,21.8,132.6
					z"/>
			</g>
			<g>
				<path class="st7" d="M25,126.7c0.1,0.1,0.2,0.1,0.3,0.1c0.1,0,0.2,0,0.3-0.1c0.5-0.3,0.3-0.7,0.2-1l-0.1-0.2
					c-0.1-0.3-0.3-0.6-0.6-0.8c-0.2-0.1-0.4-0.1-0.5-0.1l-0.1,0l0,0c-0.1,0.1-0.3,0.3-0.3,0.6C24.2,125.6,24.5,126.4,25,126.7z"/>
			</g>
			<g>
				<path class="st7" d="M23.6,127.9c-0.1,0-0.2,0.1-0.4,0.1c-0.4,0.1-1,0.3-1,0.8c0,0.2,0.1,0.4,0.3,0.5c0.1,0.1,0.2,0.1,0.4,0.1
					c0,0,0,0,0.1,0l0.1,0c0.3-0.1,0.7-0.2,1-0.2c0.2,0,0.4-0.1,0.6-0.1c0.4,0,0.8-0.1,1.1-0.2c0.2-0.1,0.3-0.3,0.3-0.5
					c0-0.2,0-0.4-0.2-0.5c-0.4-0.4-1.3-0.2-1.9-0.1C23.8,127.8,23.7,127.9,23.6,127.9L23.6,127.9z"/>
			</g>
			<g>
				<path class="st7" d="M25.9,131.5c0.2,0,0.3,0,0.5-0.1c0.1-0.1,0.3-0.2,0.3-0.3c0.1-0.1,0.1-0.3,0-0.5c-0.2-0.6-1-0.5-1.5-0.4
					l-0.2,0l0,0c-0.1,0.1-0.3,0.1-0.6,0.1c-0.5,0.1-1,0.1-1.2,0.5c-0.1,0.2-0.1,0.4,0,0.6c0.1,0.2,0.3,0.3,0.5,0.4
					c0.1,0,0.1,0,0.2,0c0.4,0,0.8-0.1,1.2-0.2c0.2,0,0.3-0.1,0.4-0.1C25.7,131.5,25.8,131.5,25.9,131.5z"/>
			</g>
			<g>
				<path class="st7" d="M27,137.4c0.2-0.1,0.3-0.2,0.4-0.3c0.2-0.5-0.2-1.3-0.4-1.8c0-0.1-0.1-0.2-0.1-0.2c0-0.1,0-0.1-0.1-0.2
					c-0.1-0.2-0.2-0.5-0.3-0.7c-0.2-0.2-0.5-0.2-0.7-0.2l-0.1,0l0,0c-0.1,0.2-0.3,0.3-0.3,0.6c0,0.4,0.2,0.8,0.3,1.1
					c0.1,0.1,0.1,0.3,0.2,0.4c0,0.1,0.1,0.2,0.1,0.3c0.1,0.2,0.1,0.5,0.3,0.7c0.1,0.2,0.3,0.2,0.5,0.2
					C26.9,137.5,26.9,137.5,27,137.4z"/>
			</g>
			<g>
				<path class="st7" d="M23.6,138.8c0.2-0.1,0.4-0.3,0.4-0.6c0-0.3-0.2-0.7-0.4-1c-0.1-0.1-0.1-0.2-0.2-0.3
					c-0.1-0.2-0.1-0.3-0.2-0.5c-0.1-0.4-0.2-0.8-0.5-1.1c-0.2-0.3-0.5-0.3-0.8-0.2l-0.1,0l0,0c-0.1,0.1-0.3,0.3-0.3,0.5
					c0,0.2,0.1,0.3,0.1,0.5c0,0,0,0.1,0.1,0.1c0.2,0.5,0.4,1.2,0.6,1.7c0,0.1,0,0.1,0.1,0.2c0,0.1,0.1,0.3,0.2,0.4
					c0.1,0.2,0.4,0.3,0.6,0.3C23.4,138.9,23.5,138.9,23.6,138.8z"/>
			</g>
			<g>
				<path class="st7" d="M27.6,140.3c-0.2-0.1-0.4-0.1-0.5-0.1l-0.1,0l0,0c-0.1,0.1-0.3,0.3-0.3,0.5c0,0.2,0.1,0.4,0.2,0.5
					c0,0.1,0.1,0.1,0.1,0.2l0,0.1c0.1,0.2,0.2,0.5,0.5,0.6c0.1,0,0.1,0,0.2,0c0.1,0,0.2,0,0.3-0.1c0.2-0.1,0.4-0.3,0.4-0.6
					C28.4,141.1,28,140.4,27.6,140.3z"/>
			</g>
			<g>
				<path class="st7" d="M27.8,143.9c-0.5-0.3-0.8,0.1-1.2,0.6c-0.6,0.6-1,1-1.6,0.4c-0.5-0.5-0.6-1.5-0.6-1.9c0-0.1,0-0.3,0-0.4
					c0-0.5,0-1.2-0.3-1.5c-0.2-0.2-0.4-0.2-0.7-0.2l-0.1,0l0,0c-0.3,0.4-0.3,0.9-0.3,1.3c0,0.1,0,0.2,0,0.3c0.1,1.5,0.1,3.3,2,3.9
					c0.2,0.1,0.4,0.1,0.7,0.1c0.3,0,0.5-0.1,0.8-0.2c0.3-0.2,1.6-1.2,1.6-1.9C28.1,144.3,28.1,144.1,27.8,143.9z"/>
			</g>
			<g>
				<path class="st7" d="M25.2,141.8L25.2,141.8c0.1,0.4,0.3,0.8,0.6,0.9c0.1,0,0.1,0,0.2,0c0.1,0,0.2,0,0.3-0.1
					c0.1-0.1,0.3-0.2,0.3-0.5c0.1-0.5-0.3-1.3-0.6-1.5c-0.2-0.2-0.4-0.1-0.6-0.1l-0.1,0l0,0c-0.2,0.2-0.3,0.4-0.3,0.5
					c0,0.2,0.1,0.4,0.1,0.6C25.2,141.7,25.2,141.8,25.2,141.8z"/>
			</g>
		</g>
		<g>
			<g>
				<g>
					<path class="st8" d="M189.9,124.1c0-6.5-4.7-11.6-11.1-12c-4.1-0.3-7.5,1.3-9.8,3.8c-2.8-2.4-5.9-4.5-9.5-6.1l-14.5-4.1
						c-3.9-0.5-7.7-0.4-11.3,0.2c-0.7-3.4-2.7-6.5-6.4-8.4c-5.7-3-12.4-1.1-15.8,4.4c-2.5,4.1-2.2,9.7,1.2,13.8
						c-3.5,3.4-6.1,7.5-7.9,11.9c-0.7,1.7-1.3,3.5-1.8,5.3c-1.6,6.1-2,14.1-0.6,20.3c3.3,14.9,11.8,27.6,27.8,32.5
						c16.1,4.2,30-2.2,40.7-13.2c4.4-4.5,8.3-11.5,10.1-17.6c0.5-1.8,1-3.6,1.3-5.4c0.8-4.7,0.7-9.6-0.5-14.3
						C186.7,133.5,189.9,128.9,189.9,124.1z"/>
				</g>
				<g>
					<path class="st9" d="M178.5,122.3c-0.8,0.4-1.6,0.9-2.3,1.5c0.4,0.6,0.8,1.1,1.2,1.7c2,3,3.5,6.3,4.3,9.7
						c1.2-0.4,2.3-0.9,3.3-1.7c1.2-0.8,2.3-2,3.3-3.5c1-1.6,1.6-3.7,1.7-5.6C189.2,122.2,183.9,119.7,178.5,122.3z"/>
				</g>
				<g>
					<path class="st9" d="M112.6,115.8c2.5-2.5,5.4-4.5,8.8-6c0.6-0.3,1.3-0.5,1.9-0.8c-0.3-0.9-0.7-1.8-1.2-2.6
						c-3.3-5-9.1-5.7-10.8-4.2c-1,1.7-1.5,3.8-1.5,5.7c0,1.8,0.4,3.4,0.9,4.7C111.1,113.7,111.8,114.8,112.6,115.8z"/>
				</g>
				<g>
					<g>
						<g>
							<g>
								<g>
									<g>
										<g>
											<path class="st4" d="M168.8,112.9c0-0.2,0-0.5-0.2-0.7c-1-1.2-2.4-2-3.6-2.8c-0.4-0.3-0.9-0.5-1.3-0.9
												c-0.1-0.1-0.3-0.2-0.4-0.3c-0.8-0.6-1.3-1.2-1.8-2c-0.4-0.5-0.8-1.1-1.4-1.6c-1.5-1.5-3.4-1.7-5.2-1.7
												c1-2.3,1.6-4.1,0.6-5c-1-0.8-2.3,0-2.8,0.3c-1.1,0.7-1.7,2.1-2.2,3.5c-0.1,0.3-0.2,0.5-0.3,0.8c-0.1-0.1-0.3-0.1-0.4-0.2
												c-0.7-0.5-1.4-0.7-2.1-0.9l-0.1,0c-0.4-0.1-0.8-0.2-1.3-0.1c-0.1,0-0.3,0-0.4,0l-0.2,0c-0.2,0-0.4,0.1-0.6,0.1
												c-0.1,0-0.1,0-0.2,0c-0.1,0-0.2,0-0.3,0c-0.2,0-0.5,0-0.8,0.1c-0.2,0-0.3,0.1-0.5,0.1c-0.9,0.2-1.8,0.4-2.6,0.3
												c-0.5-0.1-1-0.2-1.6-0.3c-1.4-0.3-2.9-0.6-4.2-0.3c-0.2,0.1-0.4,0.2-0.5,0.5c-0.1,0.2-0.1,0.5,0,0.7
												c1.3,3.1,4.6,3.9,7.5,5c-1.2,1.5-2.1,3.2-2.7,5c-0.1,0.2-0.1,0.4,0,0.6c0.1,0.2,0.4,0.3,0.6,0.3c3.3,0.4,6.6-0.9,9.7-2.2
												c2.2,2.5,4.7,4.8,7.5,6.7c0.5,0.3,1.1,0.7,1.6,0.5c0.8-0.3,1-1.3,0.9-2.2c0-1.5-0.2-3.1-0.5-4.6c0.2,0.8,3,2.1,3.9,2.4
												c1.6,0.5,3.6,0.6,5.1-0.2c0.2-0.1,0.4-0.2,0.6-0.4C168.6,113.3,168.7,113.1,168.8,112.9z"/>
										</g>
									</g>
									<g>
										<g>
											<path class="st2" d="M142.5,137.1c0-1.9-1.4-3.4-3.3-3.6c-1.3-0.1-2.4,0.5-3,1.3c-1-0.8-2.2-1.4-3.7-1.8
												c-1.7-0.5-3.2-0.7-4.6-0.5c-0.2-1.1-0.8-2.1-1.9-2.7c-1.7-0.9-3.7-0.3-4.7,1.3c-0.9,1.4-0.6,3.5,1,4.7
												c-0.3,0.4-0.5,0.9-0.6,1.4c-1,3.2-0.6,6.1,2.6,7.1c1.6,0.5,3,0,3.6-2c0.5-1.6-0.8-1.7-0.5-2.7c0.3-1.1,1.5-1.9,3.1-1.4
												c2,0.6,3.1,2.3,2.3,4.8c-0.8,2.6-3.4,4.2-6.5,5.8c-0.7-0.8-1.6-1.6-3.1-2.1c-2.9-0.9-5.4,0.3-6.4,3.4
												c-1,3.2,0.4,5.5,3.2,6.4c2.2,0.7,4,0.3,5.2-0.2c1.3,1,2.7,2.7,6,3.7c3.2,1,5-0.6,5.4-2c0.5-1.8,0.4-3-1.1-3.4
												c-1.1-0.3-1.5,0.4-3-0.1c-1.1-0.3-1.7-0.6-2.3-1.3c3.1-1.5,7-3.8,8.6-9.1c0.4-1.2,0.5-2.4,0.4-3.5
												C141.2,140.3,142.5,138.7,142.5,137.1z M122.8,151.7c-0.2,0.6-0.8,1-1.5,0.8c-0.8-0.2-0.9-0.8-0.8-1.3
												c0.2-0.8,0.8-1,1.4-0.8C122.7,150.6,122.9,151.4,122.8,151.7z"/>
										</g>
										<g>
											<g>
												<g>
													<path class="st9" d="M149.4,157.7c-1.5-0.3-3-1.1-3.7-2.2c-0.2-0.3-0.4-0.7-0.5-1.1c-0.7-2.4,0.2-5.1,2.2-6.5
														c1-0.7,2.5-1,3.8-0.7c3.3,0.7,4.6,3.9,3.8,6.7c-0.3,1.1-0.9,2.2-1.9,3C152.2,157.7,150.9,158,149.4,157.7z"/>
												</g>
											</g>
											<g>
												<g>
													<g>
														<path class="st2" d="M160.9,154.9c0.3-1.4,0.4-2.8,0.2-4.2c-0.2-2.7-1.5-5.2-3.6-7c-2.4-1.9-5.6-2.9-8.7-2.7
															c-3.5,0.2-6.2,2.3-7.9,5.2c-0.8,1.4-1.4,3-1.7,4.6c-1.1,6.1,1.8,10.7,8.8,12.3c3.7,0.9,7.6-0.1,10.2-3
															C159.7,158.7,160.5,156.9,160.9,154.9z M149.4,157.7c-1.5-0.3-3-1.1-3.7-2.2c-0.2-0.3-0.4-0.7-0.5-1.1
															c-0.7-2.4,0.2-5.1,2.2-6.5c1-0.7,2.5-1,3.8-0.7c3.3,0.7,4.6,3.9,3.8,6.7c-0.3,1.1-0.9,2.2-1.9,3
															C152.2,157.7,150.9,158,149.4,157.7z"/>
													</g>
												</g>
											</g>
											<g>
												<g>
													<g>
														<path class="st2" d="M152.6,149.9c0.5,0,0.9,0.4,1.2,0.8c0.5,0.8-0.1,1.9-1,2c-1.1,0.1-1.9-0.9-1.5-1.9
															C151.4,150.2,152,149.8,152.6,149.9z"/>
													</g>
												</g>
												<g>
													<g>
														<path class="st2" d="M148.9,148.9c0.4,0,0.8,0.2,1.1,0.6c0.6,0.9-0.1,2.4-1.2,2.2c-0.5-0.1-1.1-0.4-1.2-0.9
															c-0.2-0.5,0-1,0.3-1.4C148.1,149.1,148.5,148.9,148.9,148.9z"/>
													</g>
												</g>
												<g>
													<g>
														<path class="st2" d="M151.8,153.6c0.4,0,0.8,0.2,1,0.5c0.7,0.9,0,2.3-1.1,2.2c-0.5,0-1.1-0.3-1.3-0.8
															c-0.2-0.5-0.1-1.2,0.3-1.6C151,153.7,151.4,153.6,151.8,153.6z"/>
													</g>
												</g>
												<g>
													<g>
														<path class="st2" d="M147.8,152.7c0.4,0,0.8,0.1,1.1,0.4c0.7,0.8,0.3,2.2-0.7,2.3c-1.2,0.1-1.8-0.7-1.7-1.6
															C146.6,153.2,147.1,152.7,147.8,152.7z"/>
													</g>
												</g>
											</g>
										</g>
										<g>
											<path class="st9" d="M122.3,135.8c0.6-1,1.5-1.8,2.6-2.4c-0.1-0.4-0.2-0.7-0.4-1c-1-1.5-2.7-1.7-3.2-1.2
												c-0.3,0.5-0.4,1.1-0.4,1.7c0,0.5,0.1,1,0.3,1.4C121.3,134.9,121.8,135.4,122.3,135.8z"/>
										</g>
										<g>
											<path class="st9" d="M139.1,136.6c-0.3,0.1-0.6,0.4-0.9,0.6c0.6,1,0.9,2.2,1,3.4c0.6-0.1,1.2-0.3,1.8-0.7
												c0.4-0.2,0.7-0.6,1-1c0.3-0.5,0.5-1.1,0.5-1.7C142.3,136.5,140.7,135.8,139.1,136.6z"/>
										</g>
									</g>
									<g>
										<g>
											<g>
												<path class="st8" d="M159.1,155.6c-1,0-1.8,0.6-2,1.6c0,0.1-0.1,0.3-0.1,0.4c0,0,0,0-0.1,0c-0.3,0-1.4,0.1-1.8,1.7
													c-0.2,1,0.3,1.8,1,2.1c-0.1,0.4-0.2,0.8-0.4,1.2c-0.3,1.1-0.3,2,0.2,2.8c0.3,0.6,1,1.3,2.4,1.6c0.4,0.1,0.8,0.2,1.2,0.2
													c1.6,0,2.8-1,3.2-2.6c0.2-0.7,0-1.2-0.2-1.5c-0.1-0.2-0.3-0.4-0.5-0.5c0.6-0.2,1.1-0.7,1.3-1.5c0.1-0.6,0.1-1.1-0.1-1.5
													c-0.2-0.4-0.7-0.8-1.3-0.9c-0.2,0-0.4-0.1-0.6-0.1c0.1-0.2,0.1-0.3,0.2-0.5c0.2-0.9-0.1-2-1.8-2.4
													C159.5,155.6,159.3,155.6,159.1,155.6L159.1,155.6z"/>
											</g>
										</g>
									</g>
									<g>
										<path class="st4" d="M161.7,159.5c-0.6-0.1-1-0.2-1.5-0.3c0.1-0.5,0.3-0.8,0.5-1.4c0.1-0.5-0.1-1.1-1.1-1.4
											c-0.1,0-0.3-0.1-0.4-0.1c-0.7,0-1,0.5-1.1,1c-0.1,0.4-0.1,0.9-0.2,1.2c-0.2,0-0.3-0.1-0.5-0.2c-0.1,0-0.2,0-0.3,0
											c-0.4,0-0.8,0.3-1,1c-0.1,0.6,0.3,1.1,0.7,1.2c0.3,0.1,0.5,0.1,0.5,0.1c-0.1,0.7-0.4,1.4-0.6,2.1c-0.5,1.6,0,2.9,1.9,3.4
											c0.4,0.1,0.7,0.1,1,0.1c1.4,0,2-0.9,2.3-1.9c0.1-0.6-0.1-1.1-0.9-1.3c-0.1,0-0.3,0-0.4,0c-0.3,0-0.6,0.2-0.7,0.5
											c-0.1,0.3-0.2,0.4-0.4,0.4c0,0-0.1,0-0.1,0c-0.3-0.1-0.3-0.4-0.3-0.6c0.1-0.7,0.4-1.4,0.6-2.1c0.4,0.1,0.9,0.3,1.6,0.4
											c0.1,0,0.2,0,0.3,0c0.5,0,0.8-0.3,1-0.9C162.6,160.1,162.4,159.7,161.7,159.5z"/>
									</g>
									<g>
										<g>
											<path class="st4" d="M165.4,164.3c-0.2,0.6-0.1,0.9-0.4,1.9c-0.2,0.6-0.7,1.5-1.8,1.2c-1.1-0.3-1.1-1.2-0.9-1.8
												c0.3-1.1,0.6-1.6,0.9-2.4c0,0,0.9-3.5,0.9-3.5c0.1-0.4,0.1-0.7,0.2-1c0.1-0.5,0.1-0.9,0.2-1.3c0.1-0.4,0.1-0.7,0.4-0.9
												c0.5-0.6,1.3-0.3,1.8-0.1c0.2,0.1,0.5,0.3,0.6,0.6c0.1,0.3,0,0.8-0.1,1.1c-0.2,0.7-0.5,1.2-0.7,1.9c0,0-0.4,1.4-0.4,1.4
												c0.4-0.2,1.2-0.4,2-0.2c2.1,0.6,2.4,2.2,2,3.6l-0.4,1.4c-0.2,0.7,0.3,0.8,0.1,1.8c-0.2,0.8-1,1-1.6,0.8
												c-1.4-0.4-1.4-1.3-1.1-2.6l0.3-1.3c0.2-0.8,0.1-1.3-0.7-1.5C166,163.2,165.6,163.7,165.4,164.3z"/>
										</g>
									</g>
								</g>
							</g>
							<g>
								<g>
									<g>
										<path class="st2" d="M113.6,164.6l0.1-0.2c-0.7-0.6-2-1.6-2.5-1.9l-0.3,0.1c-0.8,0.4-1.5,1.2-2.2,0.7
											c-0.4-0.3-0.3-0.8,0.2-1l1.2-0.6c0.1-0.1,0.1-0.2,0.3-0.4c0.3-0.3,0.9-0.1,1.1-0.2c1-0.5,2-0.9,3-1.4
											c0.7-0.3,1.1-0.7,1.3-0.8c0.4-0.2,0.6-0.1,0.9,0.1c0.5,0.4-0.1,1-0.5,2c-0.8,2-2,4.7-2.2,5.1c-0.2,0.4-0.5,0.7-1.2,0.2
											C112.3,166,113.3,165.3,113.6,164.6z M114,163.3c0.5-0.9,0.9-1.9,1.4-2.8c-1.2,0.6-2.2,1.1-3.2,1.6
											C112.4,162.2,113.9,163.2,114,163.3z"/>
									</g>
								</g>
								<g>
									<g>
										<path class="st2" d="M117.2,165.9c-0.5,0.6-0.8,1.1-1.1,1.5c-0.3,0.4-0.7,0.7-1.2,0.4c-0.5-0.3-0.3-0.6,0.1-1
											c0.2-0.3,0.9-1,1.3-1.5c0.8-1,0.4-1.1,0.6-1.6c0.1-0.3,0.5-0.4,0.8-0.2c0.6,0.3,0.3,0.8,0.1,1.1c0.5-0.3,1.1-0.4,1.9,0.1
											c1.2,0.7,0.9,1.7,0,2.8l-0.9,1.1c-0.2,0.2,0.2,0.3-0.1,0.8c-0.2,0.3-0.6,0.4-0.9,0.2c-0.6-0.4-0.5-0.9-0.1-1.4
											c0.3-0.4,0.6-0.8,1-1.2c0.6-0.7,0.7-1.2,0.1-1.5C118.4,165,117.7,165.4,117.2,165.9z"/>
									</g>
								</g>
								<g>
									<g>
										<path class="st2" d="M122.2,168.5c-0.4,0.6-0.7,1.2-0.9,1.5c-0.3,0.5-0.6,0.8-1.1,0.5c-0.5-0.2-0.4-0.5,0-1
											c0.2-0.3,0.8-1.1,1.1-1.6c0.7-1.1,0.3-1.1,0.5-1.6c0.1-0.3,0.4-0.4,0.8-0.2c0.6,0.3,0.4,0.7,0.2,1.1
											c0.5-0.3,1.1-0.5,1.9-0.1c1.3,0.6,1.1,1.7,0.3,2.8l-0.8,1.1c-0.2,0.2,0.2,0.3,0,0.8c-0.1,0.3-0.6,0.4-0.9,0.3
											c-0.7-0.3-0.6-0.8-0.2-1.4c0.3-0.4,0.6-0.8,0.9-1.3c0.5-0.7,0.6-1.2-0.1-1.5C123.3,167.5,122.6,167.9,122.2,168.5z"/>
									</g>
								</g>
								<g>
									<g>
										<path class="st2" d="M126.3,173.2c-0.6-0.2-1.2-0.7-0.8-1.7c0.1-0.3,0.7-1.3,1-1.7c0.3-0.5,0.1-0.2,0.4-0.9
											c0.3-0.7,0.7-0.8,1-0.7c0.3,0.1,0.5,0.4,0.4,0.7c-0.2,0.4-0.5,0.6-0.9,1.2l-0.7,1.1c-0.1,0.1-0.1,0.2-0.1,0.2
											c-0.1,0.3,0,0.5,0.2,0.6c0.1,0.1,0.3,0,0.5,0.1c0.2,0.1,0.4,0.2,0.2,0.6C127.4,173.3,127,173.4,126.3,173.2z M128,166.6
											c0.2-0.5,0.8-0.7,1.2-0.6c0.4,0.2,0.6,0.5,0.5,0.9c-0.2,0.4-0.7,0.8-1.2,0.6C128.1,167.3,127.8,167,128,166.6z"/>
									</g>
								</g>
								<g>
									<g>
										<path class="st2" d="M129.2,169.9c0-0.5,0.3-1,0.9-0.8c0.3,0.1,0.4,0.3,0.3,0.7c-0.2,1-0.5,2.3-0.6,3.4
											c1.4-0.8,2.3-1.7,2.3-2.5c0-0.1,0-0.3,0-0.5c0.1-0.3,0.4-0.4,0.9-0.3c0.6,0.2,0.5,0.8,0.4,1.1c-0.6,1.3-2,2.2-2.9,2.9
											c-0.4,0.3-0.7,0.4-1.3,0.2c-0.5-0.1-0.5-0.5-0.4-1.1C129,172.4,129.1,170.9,129.2,169.9z"/>
									</g>
								</g>
								<g>
									<g>
										<path class="st2" d="M137.7,172.7c-0.2,0.8-1.2,1.4-2.1,1.2c-0.6-0.1-0.9-0.5-0.8-0.8c0.1-0.3,0.3-0.5,0.6-0.4
											c0.3,0.1,0.2,0.3,0.4,0.4c0.2,0.1,0.7,0,0.8-0.5c0.1-0.3-0.1-0.6-0.5-0.7c-1-0.2-1.8,0.6-2.1,1.5
											c-0.2,0.7,0.1,1.3,0.8,1.4c0.8,0.2,0.9-0.1,1.4,0c0.2,0.1,0.4,0.3,0.3,0.6c-0.1,0.6-1,0.6-1.9,0.4
											c-1.3-0.3-1.9-1.2-1.6-2.6c0.3-1.5,1.8-2.7,3.4-2.3C137.3,171.1,138,171.7,137.7,172.7z"/>
									</g>
								</g>
								<g>
									<g>
										<path class="st2" d="M139.4,173.9c-0.2,0.7-0.3,1.4-0.5,1.7c-0.2,0.5-0.4,0.9-0.9,0.8c-0.4-0.1-0.5-0.4-0.3-1
											c0.1-0.3,0.5-1.3,0.7-1.9c0.4-1.3,0-1.2,0.1-1.7c0.1-0.3,0.4-0.5,0.8-0.4c0.5,0.1,0.6,0.5,0.5,0.9
											c0.3-0.5,0.7-0.7,1.5-0.6c0.8,0.1,1.1,0.7,1,1.2c-0.1,0.7-0.5,0.9-0.9,0.9c-0.3,0-0.4-0.3-0.3-0.6
											c0.1-0.3-0.1-0.4-0.4-0.5C140,172.6,139.7,173.3,139.4,173.9z"/>
									</g>
								</g>
								<g>
									<g>
										<path class="st2" d="M142.6,173.2c0.3-0.2,1.1-0.8,1.3-1c0.3-0.4,0.6-0.5,0.9-0.5c0.3,0,0.5,0.3,0.4,0.5
											c0,0.2-0.2,0.4-0.3,0.4c0.3,0.7,1.3,1.5,1.2,2.7c-0.1,1.3-1,2-2.4,1.9c-1.1-0.1-1.5-0.9-1.5-1.5c0-0.4,0.3-0.6,0.7-0.6
											c0.7,0.1,0.1,1,0.9,1.1c0.5,0.1,1-0.3,1.1-1c0.1-0.9-0.6-1.5-0.8-1.9c-0.8,0.7-1.1,1.2-1.7,1.1c-0.3,0-0.4-0.3-0.4-0.5
											C142.1,173.7,142.3,173.4,142.6,173.2z"/>
									</g>
								</g>
								<g>
									<g>
										<path class="st2" d="M149.8,176.7c-0.2,0.5-0.7,0.8-1.5,0.8c-1.1,0-1.6-0.9-1.6-1.9c0-1.6,0.9-3.2,2.4-3.2
											c0.9,0,1.2,0.6,1.3,0.8c0.1-0.2,0.1-0.8,0.7-0.8c0.3,0,0.6,0.1,0.5,0.5c0,0.3-0.3,0.6-0.5,1.5l-0.3,1.5c0,0.1,0,0.2,0,0.2
											c0,0.6,0.6,0.1,0.6,0.8c0,0.4-0.2,0.6-0.8,0.6C150,177.5,149.8,177.3,149.8,176.7z M150,174.3c0-0.6-0.2-0.9-0.8-0.9
											c-1,0-1.4,1.1-1.4,2.1c0,0.6,0.2,1,0.7,1C149.6,176.5,150,175.4,150,174.3z"/>
									</g>
								</g>
								<g>
									<g>
										<path class="st2" d="M153.8,174.6c-0.1,0.7,0,1.4,0,1.8c0,0.5-0.2,0.9-0.7,1c-0.4,0-0.6-0.3-0.5-0.9c0-0.4,0.1-1.4,0.2-2
											c0.1-1.3-0.3-1.2-0.4-1.7c0-0.3,0.2-0.6,0.6-0.6c0.5,0,0.7,0.4,0.7,0.8c0.2-0.5,0.5-0.9,1.3-0.9c0.8-0.1,1.2,0.4,1.3,0.9
											c0.1,0.7-0.3,1-0.6,1c-0.3,0-0.4-0.2-0.5-0.5c0-0.3-0.2-0.4-0.5-0.4C154,173.2,153.8,174,153.8,174.6z"/>
									</g>
								</g>
								<g>
									<g>
										<path class="st2" d="M158.1,176.5c-1.1,0.1-1.3-0.6-1.3-1.9l0-1.3c0-0.3-0.4-0.3-0.4-0.6c-0.1-0.5,0.2-0.7,0.6-0.7
											c0.6-0.1,0.9,0.3,0.9,1.1c0,0.5,0,1-0.1,1.5c0,0.9,0.1,1.3,0.9,1.1c0.7-0.1,0.9-0.7,0.9-1.4c0-0.7-0.1-1.2-0.1-1.6
											c0-0.5,0-1.1,0.6-1.2c0.5-0.1,0.7,0.3,0.7,0.9c0,0.7,0,1.6,0,2.4c0,0.9,0.1,1.7,0.1,2.2c0,1.3-0.6,2.2-1.7,2.4
											c-1.2,0.2-1.7-0.4-1.8-1C157.2,177.5,157.6,176.9,158.1,176.5z M158.4,177.9c0.1,0.3,0.3,0.5,0.7,0.4
											c0.5-0.1,0.8-0.6,0.8-1.5l0-0.9l-0.7,0.6C158.7,176.9,158.3,177.3,158.4,177.9z"/>
									</g>
								</g>
							</g>
							<g>
								<g>
									<path class="st2" d="M177.8,138.9l-0.4-0.5l-1.1,0.9l-0.1-0.2l1.1-0.9l-0.4-0.5l0.1-0.1l0.9,1.1L177.8,138.9z"/>
								</g>
								<g>
									<path class="st2" d="M177.8,141.1l-0.1-0.2l0.9-0.8l-1.2,0.4l-0.1-0.1l0.6-1.1l-0.9,0.8l-0.1-0.1l1.2-1l0.2,0.2l-0.6,1.2
										l1.3-0.4l0.2,0.2L177.8,141.1z"/>
								</g>
							</g>
							<g>
								<g>
									<g>
										<path class="st2" d="M119.4,124.4c0.1,0.4,0,0.8-0.8,1c-0.7,0.2-1.1,0-1.2-0.5c-0.1-0.2,0.1-0.4-0.1-0.9
											c-0.3-1.2-0.7-2.8-1.1-4.2c-0.1-0.2-0.3-0.4-0.3-0.6c-0.1-0.5,0-1,0.7-1.1c0.6-0.2,1.1,0.1,1.2,0.7c0,0.1,0,0.4,0.1,0.6
											c0.1,0.5,0.3,0.9,0.4,1.2c0.6-0.8,1.3-2.3,1.5-2.8c0.2-0.4,0.3-0.6,0.8-0.7c0.8-0.2,1.6,0.6,0.9,1.6
											c-0.1,0.1-0.8,1.2-1.2,2c0.9,0.8,1.8,1.6,2.4,1.9c0.3,0.2,0.5,0.3,0.7,0.8c0.1,0.3,0,0.9-0.7,1.1c-0.8,0.2-1-0.3-1.2-0.5
											c-0.2-0.2-1.1-1-2.1-1.9c-0.2,0.2-0.3,0.5-0.4,0.7c0,0.3,0.1,0.7,0.3,0.9C119.1,123.7,119.3,124.1,119.4,124.4z"/>
									</g>
								</g>
								<g>
									<g>
										<path class="st2" d="M128.6,121c0.2,1.5-0.8,2.6-2.2,2.8c-1.6,0.2-2.6-0.8-2.8-2.2c-0.2-1.6,0.6-2.7,2.2-2.8
											C127.4,118.5,128.5,119.3,128.6,121z M126.9,121.1c0-0.4-0.4-0.8-0.8-0.7c-0.5,0.1-0.7,0.5-0.7,1c0,0.5,0.3,0.8,0.9,0.8
											C126.8,122.1,127,121.6,126.9,121.1z"/>
									</g>
								</g>
								<g>
									<g>
										<path class="st2" d="M131.4,121.1c0,0.7,0.2,1,0.2,1.4c0,0.5-0.2,1.1-1,1.1c-0.8,0-0.9-0.5-0.9-1.1c0-0.4,0-1.2,0-1.8
											c0-1-0.3-1-0.3-1.5c0-0.3,0.1-0.7,0.9-0.7c0.6,0,1,0.4,1,0.8c0.2-0.5,0.5-0.8,1.2-0.8c0.8,0,1.3,0.6,1.3,1.4
											c0,0.7-0.3,1.2-0.9,1.2c-0.3,0-0.6-0.2-0.6-0.5c0-0.3-0.1-0.5-0.4-0.5C131.6,120.1,131.4,120.4,131.4,121.1z"/>
									</g>
								</g>
								<g>
									<g>
										<path class="st2" d="M136,116.1c0.6,0,1,0.3,1,0.9c0,0.4-0.4,0.9-1,0.9c-0.3,0-1.1-0.2-1.1-0.9
											C134.9,116.4,135.4,116.1,136,116.1z M134.7,119.4c0-0.7,0.5-0.9,1-0.9c0.5,0,1,0.3,1,0.8c0,0.6-0.2,0.7-0.2,1.3
											c0,0.2,0,0.4,0,0.7c0,0.1,0,0.2,0,0.4c0,0.2,0,1,0,1.2c0,0.2-0.1,0.4-0.2,0.6c-0.3,0.3-0.7,0.3-1.1,0.2
											c-0.3-0.1-0.4-0.2-0.5-0.6c-0.1-0.3,0-0.9,0-1.2l0.1-1.4C134.7,120.1,134.7,119.8,134.7,119.4z"/>
									</g>
								</g>
								<g>
									<g>
										<path class="st2" d="M138.5,117.1c0.1-0.6,0.4-1,1.1-0.9c0.7,0.1,0.9,0.5,0.9,1c-0.1,0.4-0.2,0.7-0.2,1.3
											c-0.1,0.4-0.1,0.9-0.2,1.3c-0.1,0.7-0.2,1.3-0.2,2c0,0.1,0,0.2,0,0.4c0,0.2,0,0.4,0,0.6c0,0.5-0.2,1.2-0.8,1.2
											c-0.4,0-0.7-0.1-0.9-0.4c-0.2-0.3-0.1-0.8-0.1-1.2c0,0,0.5-4.4,0.5-4.4C138.6,117.7,138.5,117.4,138.5,117.1z"/>
									</g>
								</g>
								<g>
									<g>
										<path class="st2" d="M143.6,119.2c0.6,0.1,0.9,0.5,1.1,0.8c0.1-0.3,0.4-0.6,0.9-0.5c0.6,0.1,0.9,0.6,0.8,1
											c-0.1,0.3-0.4,0.6-0.5,1.2l-0.1,0.5c-0.1,0.4,0,0.6,0.2,0.9c0.1,0.1,0.2,0.4,0.1,0.8c-0.1,0.6-0.6,0.8-1.1,0.7
											c-0.7-0.1-0.9-0.5-0.9-1.1c-0.3,0.4-0.7,0.8-1.6,0.6c-1.5-0.3-1.8-1.5-1.6-2.8C141.2,119.9,142.2,119,143.6,119.2z
											 M143.3,122.8c0.5,0.1,0.8-0.3,0.9-0.8c0.1-0.5,0-0.8-0.6-0.9c-0.6-0.1-0.8,0.3-0.9,0.8
											C142.6,122.3,142.7,122.7,143.3,122.8z"/>
									</g>
								</g>
								<g>
									<g>
										<path class="st2" d="M152.1,125.7c-0.1,0.4-0.7,0.8-1.2,0.7c-0.2-0.1-0.4-0.2-0.5-0.4c-0.2-0.3-0.4-0.7-0.6-1.1
											c-0.1-0.2-0.3-0.4-0.4-0.7c-0.1,0-0.2,0.1-0.3,0.1c0,0.2,0,0.4-0.1,0.6c-0.1,0.4-0.5,0.8-1.1,0.7
											c-0.7-0.2-0.8-0.8-0.7-1.2c0.1-0.3,0.3-0.7,0.4-1.2c0.1-0.3,0.3-1,0.5-1.7c0.1-0.5,0.3-1,0.3-1.3c0.2-0.7,0.2-1.2,0.2-1.4
											c0.1-0.5,0.5-0.9,1.2-0.7c0.8,0.2,0.8,0.9,0.7,1.3c-0.1,0.2-0.4,0.8-0.5,1.3c-0.1,0.4-0.3,0.9-0.4,1.3l-0.1,0.5
											c0.2-0.1,0.3-0.1,0.5-0.2c0.6-0.3,1.2-0.6,1.4-0.7c0.2-0.1,0.5-0.2,0.7-0.1c0.5,0.1,0.8,0.8,0.7,1.2
											c-0.1,0.3-0.3,0.6-0.7,0.7c-0.2,0.1-0.7,0.2-1.2,0.3c0.1,0.1,0.1,0.2,0.2,0.3c0.3,0.4,0.6,0.8,0.8,1
											C152.1,125.2,152.2,125.4,152.1,125.7z"/>
									</g>
								</g>
								<g>
									<g>
										<path class="st2" d="M157.5,127.8c-0.2,0.4-0.8,0.7-1.2,0.6c-0.2-0.1-0.4-0.3-0.5-0.5c-0.2-0.3-0.3-0.7-0.5-1.2
											c-0.1-0.2-0.2-0.5-0.3-0.7c-0.1,0-0.2,0.1-0.3,0.1c0,0.2-0.1,0.4-0.2,0.5c-0.2,0.4-0.6,0.8-1.2,0.5
											c-0.7-0.3-0.7-0.8-0.5-1.3c0.1-0.2,0.3-0.7,0.5-1.1c0.1-0.3,0.4-1,0.7-1.6c0.2-0.5,0.4-1,0.5-1.3c0.2-0.7,0.3-1.2,0.4-1.4
											c0.2-0.5,0.6-0.8,1.3-0.5c0.7,0.3,0.7,1,0.5,1.4c-0.1,0.2-0.5,0.7-0.7,1.2c-0.2,0.4-0.4,0.8-0.5,1.3l-0.2,0.4
											c0.2,0,0.4-0.1,0.5-0.1c0.7-0.2,1.3-0.5,1.5-0.5c0.2-0.1,0.5-0.1,0.7,0c0.4,0.2,0.7,0.9,0.5,1.3c-0.1,0.3-0.4,0.5-0.7,0.6
											c-0.2,0-0.7,0.1-1.2,0.1c0.1,0.1,0.1,0.2,0.2,0.3c0.2,0.4,0.5,0.8,0.7,1.1C157.6,127.3,157.6,127.6,157.5,127.8z"/>
									</g>
								</g>
								<g>
									<g>
										<path class="st2" d="M161.8,128.1c0.2-0.3,0.3-0.8,0.5-1.1c0.3-0.5,0.7-1,1.4-0.6c0.8,0.4,0.6,1,0.3,1.5
											c-0.2,0.3-0.6,0.9-0.9,1.5c-0.3,0.6-0.2,0.9-0.5,1.4c-0.2,0.4-0.5,0.6-1.1,0.3c-0.6-0.3-0.6-0.7-0.4-1.2
											c-0.4,0.3-1.1,0.4-1.8,0c-1.2-0.6-1.2-1.6-0.5-2.8c0.3-0.5,0.5-0.9,0.8-1.4c0.1-0.2,0-0.4,0.2-0.7
											c0.2-0.3,0.6-0.4,1.1-0.1c0.6,0.3,0.6,0.9,0.3,1.5c-0.1,0.3-0.5,0.7-0.7,1.1c-0.3,0.6-0.3,1,0.1,1.2
											C161,128.9,161.4,128.8,161.8,128.1z"/>
									</g>
								</g>
								<g>
									<g>
										<path class="st2" d="M168.1,133.1l-0.6,0.8c-0.4,0.5-0.9,0.8-1.4,0.4c-0.7-0.5-0.3-1-0.1-1.3l0.7-0.9
											c0.4-0.5,0.8-1.1,0.2-1.5c-0.5-0.4-1,0.1-1.4,0.6c-0.2,0.3-0.4,0.7-0.6,1c-0.3,0.4-0.8,0.5-1.3,0.2
											c-0.7-0.5-0.5-1-0.1-1.5c0.2-0.3,0.8-0.9,1.2-1.4c0.8-1,0.5-0.9,0.8-1.3c0.3-0.4,0.9-0.2,1.2,0c0.3,0.2,0.4,0.6,0.3,1
											c0.5-0.1,0.9-0.1,1.5,0.4c0.6,0.5,0.7,0.9,0.6,1.4c0.6-0.2,1.1,0,1.7,0.4c1.4,1.1,0.9,2.2,0.1,3.2l-0.7,0.9
											c-0.2,0.2-0.1,0.4-0.4,0.8c-0.3,0.4-0.7,0.4-1.1,0.1c-0.8-0.6-0.5-1.1-0.1-1.6l0.5-0.7c0.4-0.6,0.8-1.1,0.4-1.4
											C169.2,132.2,168.5,132.6,168.1,133.1z"/>
									</g>
								</g>
								<g>
									<g>
										<path class="st2" d="M175,135.3c0.4,0.5,0.5,0.9,0.4,1.3c0.3-0.2,0.7-0.2,1,0.2c0.4,0.5,0.3,1,0,1.3
											c-0.2,0.2-0.7,0.3-1.1,0.7l-0.4,0.3c-0.3,0.3-0.4,0.5-0.4,0.8c0,0.2-0.1,0.5-0.4,0.7c-0.4,0.4-1,0.3-1.3-0.1
											c-0.5-0.5-0.4-0.9-0.1-1.4c-0.4,0.2-1,0.2-1.6-0.5c-1-1.1-0.6-2.3,0.4-3.2C172.6,134.5,174,134.2,175,135.3z M172.6,137.9
											c0.4,0.4,0.8,0.2,1.2-0.1c0.3-0.3,0.5-0.6,0.1-1.1c-0.4-0.4-0.8-0.3-1.2,0.1C172.3,137.1,172.2,137.5,172.6,137.9z"/>
									</g>
								</g>
							</g>
						</g>
					</g>
				</g>
			</g>
			<g>
				<g>
					<g>
						<path class="st7" d="M97.7,166.8c0-0.3-0.1-0.6-0.1-1c0-0.2-0.1-0.4-0.1-0.6c0-0.2-0.1-0.3-0.1-0.5c0,0,0-0.1,0-0.1
							c-0.5-1.7-1.5-2.9-2.7-3.5c-0.2-0.1-0.3-0.2-0.5-0.2c-0.4-0.1-0.9-0.2-1.4-0.2c0,0-0.1,0-0.1,0c0,0,0,0,0,0
							c-0.2,0-0.4,0-0.5,0c-0.1,0-0.4,0.1-0.9,0.2c-0.4,0.1-1,0.2-1.6,0.4c-0.1-0.4-0.2-0.8-0.3-1.1c-0.3-1.1-0.5-1.9-0.5-3.5
							c0-3-0.5-6-1-8.9l-0.1-0.5c-0.1-0.7-0.3-1.4-0.6-2c0.1-0.1,0.3-0.1,0.4-0.2c0.7-0.4,1.3-0.9,1.9-1.4c2.5-1.7,4.7-3.8,6.3-6.3
							c2.6-3.9,3.2-8.3,2.4-12.9c-0.3-1.7-0.7-3.3-1.1-4.9c-0.8-3-2-5.8-3.8-8.4c-0.6-0.8-1.2-1.6-1.8-2.5c0.3-0.2,0.5-0.3,0.8-0.5
							c2.8-2.1,4.7-4.7,4.8-8.3c0.1-3.5-1-6.7-3-9.5c-1.5-2.2-3.3-4-5.9-5c-2.9-1-5.8-1-8.8,0.1c-3.1,1.1-5.8,2.7-7.7,5.5
							c-1.3,1.8-2,3.8-2.1,6.1c-8.7-0.5-16.8,1.2-24.4,5.6c-0.1-0.2-0.3-0.4-0.4-0.7c-2.1-2.8-4.8-5-8.4-5.4
							c-6.4-0.7-11.7,1.2-14.9,7.2c-3,5.6-1.4,12.3,3.8,16.7c1.4,1.2,3.2,1.6,4.9,1.9c-0.2,1.6-0.5,3-0.6,4.6
							c-0.1,5.2,0.5,10.2,2.7,14.9c2.4,5.2,6,9.1,11.6,10.9c1.4,0.5,2.8,0.8,4.2,1c0,0.5-0.1,1-0.1,1.5c-0.2,6.4,3.2,20.6,5.8,26.2
							c1.5,3.2,3.9,8.4,9.1,8.4c0.8,0,1.6-0.1,2.4-0.3c1.6-0.4,3.4-1.2,4.4-3.3c0.6-1.3,0.5-2.4,0.4-3.5c-0.1-0.5-0.1-1.1-0.1-1.5
							c0.1-0.6,0.8-0.9,1.9-1.3c0.3-0.1,0.7-0.2,1-0.4c1.2-0.6,2.5-0.9,3.8-1.2c0.4-0.1,0.7-0.2,1.1-0.3c3.1-0.8,6.4-1.5,10.4-2.2
							c0.4-0.1,0.9-0.2,1.3-0.3c0,0,0,0,0,0c2.4-0.6,4.2-1.5,5.6-2.7c0,0,0.1,0,0.1-0.1c0.1-0.1,0.2-0.2,0.3-0.3
							c0,0,0.1-0.1,0.1-0.1c0,0,0.1-0.1,0.1-0.1c0,0,0,0,0,0c0.1-0.1,0.2-0.2,0.3-0.4c0.1-0.1,0.1-0.1,0.2-0.2
							c0.1-0.2,0.2-0.3,0.3-0.5c0.1-0.1,0.2-0.3,0.2-0.4c0.1-0.1,0.1-0.2,0.2-0.3c0.1-0.3,0.2-0.5,0.3-0.8c0-0.1,0-0.1,0.1-0.2
							c0.1-0.2,0.1-0.4,0.2-0.7c0-0.1,0-0.2,0-0.2c0-0.2,0.1-0.4,0.1-0.7c0-0.1,0-0.2,0-0.3c0-0.2,0-0.5,0-0.7
							C97.7,167,97.7,166.9,97.7,166.8z"/>
					</g>
					<g>
						<path class="st10" d="M95.4,167.4c0-0.2,0-0.3,0-0.5c0-0.2,0-0.4-0.1-0.7c0-0.2-0.1-0.4-0.1-0.6c0,0,0,0,0-0.1
							c0-0.2-0.1-0.3-0.1-0.5c0,0,0,0,0,0c-0.2-0.6-0.5-1-0.7-1.3c-0.3,0.7-0.5,1.4-0.5,2.2c0,1.1,0.3,2.3,0.8,3.6
							c0.1,0.1,0.1,0.2,0.2,0.3c0.4-0.7,0.6-1.5,0.7-2.3C95.4,167.5,95.4,167.4,95.4,167.4z"/>
					</g>
					<g>
						<path class="st11" d="M91.5,165.9c0-1,0.2-1.9,0.5-2.8c-0.1,0-0.2,0.1-0.4,0.1c-2.9,0.7-3.7,0.9-4.1-0.3c0,0,0-0.1,0-0.1
							c-0.2-0.8-0.3-1.4-0.5-2c-0.3-1.2-0.6-2.2-0.6-4.1c0-2.8-0.5-5.7-1-8.5l-0.1-0.5c-0.1-0.5-0.2-1-0.4-1.4
							c-0.2,0.1-0.5,0.2-0.7,0.3c-0.6,0.2-1.3,0.5-1.9,0.8c-2.5,0.9-5,1.8-7.5,2.6c-2.5,0.8-5,1.5-7.6,2.1c-1.6,0.4-3.2,0.8-4.8,1.2
							c-1.7,0.4-3.4,0.7-5.1,0.9c-0.9,0.1-1.7,0.2-2.6,0.2c-0.4,0-0.8,0-1.2,0c-0.4,0-0.9,0.1-1.3,0c-0.4,0-0.8-0.1-1.3-0.1
							c-0.3,0-0.5,0-0.8,0c0,0.4-0.1,0.9-0.1,1.3c-0.2,6.1,3.1,19.8,5.6,25.1c2.1,4.5,4.2,8.1,8.9,6.8c1.6-0.4,2.4-1,3-2.1
							c0.3-0.6,0.2-1.3,0.1-2.2c-0.1-0.6-0.1-1.3-0.1-2.1c0.2-2,2.2-2.7,3.4-3.2c0.3-0.1,0.6-0.2,0.8-0.3c1.4-0.7,2.8-1,4.2-1.4
							c0.4-0.1,0.7-0.2,1.1-0.3c3.2-0.9,6.6-1.6,10.6-2.2c0.4-0.1,0.7-0.1,1.1-0.2c1.8-0.5,3.2-1.1,4.3-1.9
							c-0.4-0.5-0.6-0.9-0.7-1.2C91.8,168.8,91.5,167.3,91.5,165.9z"/>
					</g>
					<g>
						<g>
							<g>
								<path class="st2" d="M64.8,157.1c-2.5,2.2-3.8,5.8-3.6,9.4c0.2,3.4,2.8,8.3,6.6,8.8c3.3,0.4,8.8-1.3,11.2-3.6
									c2.1-2,2.9-5.9,2.5-8.6c-0.3-2.3-2.2-4.9-4-6.3c-1.9-1.5-4.5-2-6.9-1.9C68.3,154.9,66.3,155.7,64.8,157.1z"/>
							</g>
						</g>
					</g>
					<g>
						<g>
							<g>
								<path class="st7" d="M68.4,151.2c1.6-0.2,3.1,0.1,4.3,1c2.7,2.1,2.9,7.5-0.6,8.9c-1.1,0.5-2.5,0.5-3.7,0.4
									c-1.2-0.1-2.3-0.4-3.2-1.3c-2.1-2.1-1.9-5.9,0.4-7.6c0.4-0.3,0.8-0.6,1.2-0.8c0.2-0.1,0.5-0.1,0.7-0.2
									C67.8,151.4,68.1,151.3,68.4,151.2z"/>
							</g>
						</g>
						<g>
							<g>
								<path class="st12" d="M68.7,153.2c-0.3,0.1-0.6,0.2-1,0.4c-0.5,0.2-0.9,0.5-1.3,0.9c-0.6,0.6-0.8,1.4-0.8,2.2
									c0,1.3,0.7,2.5,2,2.8c0.2,0,0.4,0.1,0.6,0.1c0.4,0.1,0.7,0.1,1.1,0.1c0.8-0.1,1.6-0.2,2.2-0.6c0.3-0.2,0.5-0.3,0.7-0.6
									c0.2-0.4,0.4-0.8,0.5-1.2c0.1-1.4-0.6-3.2-1.9-3.8C70.1,153.2,69.5,153.1,68.7,153.2z"/>
							</g>
						</g>
						<g>
							<g>
								<path class="st7" d="M69.9,153.8c0.4-0.1,0.8,0,1.1,0.2c0.6,0.4,0.6,1.3,0,1.6C69.8,156.3,68.8,154.7,69.9,153.8z"/>
							</g>
						</g>
						<g>
							<g>
								<path class="st7" d="M67.3,154.4c0.4,0,0.6,0,0.9,0.1c0.7,0.4,0.7,1.5,0,1.8C67,156.8,66.3,155.2,67.3,154.4z"/>
							</g>
						</g>
						<g>
							<g>
								<path class="st7" d="M70.7,156.4c0.3,0,0.6-0.1,0.9,0c0.7,0.3,0.7,1.4,0,1.7C70.3,158.8,69.7,157.3,70.7,156.4z"/>
							</g>
						</g>
						<g>
							<g>
								<path class="st7" d="M67.8,157.1c0.3-0.1,0.7-0.1,0.9,0c0.7,0.2,0.9,1.2,0.3,1.7C67.9,159.6,66.6,158.2,67.8,157.1z"/>
							</g>
						</g>
					</g>
					<g>
						<g>
							<path class="st13" d="M73.9,147.8c-4,1.2-8.1,2.3-12.2,3.2c-4.9,1-9.9,1.4-14.9,0.3c-5.8-1.3-9.8-4.7-12.4-10
								c-2-4.2-2.6-8.6-2.6-13.1c0-3.8,0.6-7.6,2.3-11.1c1.4-3.1,3.6-5.7,6.2-7.9c2.6-2.2,5.4-4,8.4-5.7c3.1-1.7,6.4-2.4,9.7-3.2
								c4.9-1.2,9.9-1.2,14.8,0c5.5,1.4,10.7,3.5,14.7,7.8c2.9,3.2,5.4,6.6,6.5,10.9c0.8,3.2,2.1,6.4,1.7,9.9
								c-0.3,2.5-0.6,5-2.1,7.1c-2,2.9-4.6,5.2-7.7,6.9C82.4,145.1,78.2,146.6,73.9,147.8"/>
						</g>
					</g>
					<g>
						<g>
							<path class="st7" d="M76,122.6c0.7-0.3,1.5-0.4,2.2-0.3c3.2,0.7,4.1,5.3,1.1,6.8c-0.5,0.3-1.2,0.3-1.8,0.4
								c-1.6,0.1-3.1-0.9-3.5-2.4c-0.2-0.8-0.2-1.6,0-2.3c0.3-0.9,0.7-1.3,1.4-1.8C75.5,122.8,75.8,122.7,76,122.6z"/>
						</g>
					</g>
					<g>
						<g>
							<path class="st7" d="M48.6,129.1c0.4-0.1,0.8-0.3,1.2-0.3c0.4,0,0.7,0,1.1,0.1c0.7,0.1,1.4,0.5,1.9,1.1
								c0.2,0.3,0.4,0.6,0.6,1c0.1,0.4,0.3,0.7,0.3,1.1c0.1,0.9,0,1.8-0.6,2.5c-0.4,0.5-0.8,0.8-1.3,1c-1.3,0.6-2.7,0.6-3.9-0.2
								c-1-0.7-1.7-1.8-1.6-3.1c0-0.3,0.1-0.6,0.1-0.8c0.1-0.3,0.2-0.6,0.4-0.9C47.1,129.9,47.9,129.4,48.6,129.1z"/>
						</g>
					</g>
					<g>
						<g>
							<g>
								<g>
									<path class="st2" d="M68.4,140.7c1-0.4,1.9-0.8,2.8-1.4c1.9-1.3,3.5-3.7,2.7-6c-1.2-3.8-4.4-5.4-8.2-5.3
										c-2.9,0.1-5.5,1.2-7.5,3.3c-0.1,0.1-0.2,0.2-0.2,0.3c-0.6,0.6-1,1.4-1.3,2.2c-0.2,0.7-0.5,1.4-0.5,2.2
										c0,0.8,0.2,1.5,0.4,2.2c0.2,0.8,0.7,1.5,1.2,2c0.5,0.5,1.2,0.9,1.8,1.2c0.9,0.4,2,0.4,2.9,0.3c0.9,0,1.9-0.1,2.8-0.2
										C66.3,141.3,67.4,141,68.4,140.7z"/>
								</g>
							</g>
						</g>
					</g>
					<g>
						<g>
							<g>
								<path class="st7" d="M66.2,132.3c0.9,0.6,3,1.2,4.7,1.6c0.9,0.2,1.5-0.3,2,0.6c0.2,0.4,0.1,1.3-0.4,1.5
									c-0.3,0.1-0.5,0.2-0.9,0.2c-0.2,0.3-0.3,0.7-0.6,1.1c-0.4,0.5-1,1.1-1.7,1.6c-1.1,0.7-2.8,1.3-4.1,1.4
									c-1.2,0-2.6-0.1-4.3-1.3c-0.6,0.3-1.1,0.6-1.8,0.2c-0.4-0.3-0.7-1.1-0.3-1.5c0.2-0.3,0.7-0.3,0.9-0.5c1.5-1,2.7-2.5,3.5-3.8
									c-0.8-0.3-1.3-1.1-1.2-2c0.1-2.4,3.1-2.7,4.1-1.4C66.5,130.6,66.6,131.5,66.2,132.3z"/>
							</g>
						</g>
						<g>
							<g>
								<path class="st12" d="M67.6,137.4c-1.1,0.7-2.4,0.9-3.7,0.6c-0.4-0.1-0.7-0.2-1.1-0.4c0,0-0.6-0.4-0.5-0.4
									c1.7-1.3,2.6-3.2,2.6-3.2c1.2,0.7,3.3,1.6,4.4,1.6c-0.1,0.2-0.3,0.5-0.5,0.7c-0.3,0.4-0.7,0.7-1.1,1
									C67.7,137.4,67.7,137.4,67.6,137.4z"/>
							</g>
						</g>
					</g>
					<g>
						<g>
							<g>
								<g>
									<path class="st14" d="M48,138.2c1.7-0.4,1.2,1.3,1,2.2c-0.1,0.6-0.1,1.2-0.5,1.7c-0.1,0.2-0.4,0.3-0.7,0.3
										c-0.4,0-0.7-0.3-0.7-0.7C47,141.1,47.6,138.8,48,138.2z"/>
								</g>
							</g>
							<g>
								<g>
									<path class="st14" d="M50.6,137.4c0.4-0.1,1-0.1,1.2,0.3c0.2,0.5-0.1,3.6-0.4,4c-0.1,0.2-0.4,0.4-0.7,0.4
										c-0.3,0-0.7-0.2-0.8-0.6c-0.1-0.4,0-0.8,0-1.1C50.2,139.4,50.1,138.3,50.6,137.4z"/>
								</g>
							</g>
							<g>
								<g>
									<path class="st14" d="M53.4,137c0.4-0.1,0.8-0.1,1.1,0.3c0.4,0.6,0.3,3-0.1,3.6c-0.1,0.2-0.3,0.4-0.6,0.4
										c-1,0.1-0.8-1.4-0.7-2C53.1,138.5,52.9,137.7,53.4,137z"/>
								</g>
							</g>
						</g>
						<g>
							<g>
								<g>
									<path class="st14" d="M77.1,131.5c1.7-0.4,1.2,1.4,1.1,2.4c-0.1,0.5-0.1,1.1-0.4,1.6c-0.1,0.2-0.3,0.4-0.6,0.4
										C75.8,135.9,76.7,132.1,77.1,131.5z"/>
								</g>
							</g>
							<g>
								<g>
									<path class="st14" d="M80,130.9c1.7-0.4,1.2,1.6,1.1,2.5c-0.1,0.4,0,0.9-0.2,1.3c-0.1,0.2-0.3,0.3-0.6,0.3
										C78.8,135.2,79.5,131.6,80,130.9z"/>
								</g>
							</g>
							<g>
								<g>
									<path class="st14" d="M82.7,130.5c1.4-0.3,1.3,1,1.2,1.9c-0.1,0.5,0,1.1-0.3,1.5c-0.1,0.2-0.3,0.3-0.6,0.3
										C81.7,134.4,82.3,131.1,82.7,130.5z"/>
								</g>
							</g>
						</g>
					</g>
					<g>
						<g>
							<path class="st13" d="M81.8,100.7c-3.3-1-6.4-2.7-9.9-3.1c-0.8-3.5,3.2-8.2,8.1-9.9c5.9-2,10,0.7,12.2,4.7
								C87.3,93.3,83.4,95.6,81.8,100.7"/>
						</g>
					</g>
					<g>
						<g>
							<path class="st13" d="M43,104.1c-2.6,2-5.3,3.9-7.4,6.4c-3.9-4-8.3-4.8-13.2-2.1c-0.7-2.3,3-7.3,6.7-8.7
								C35.3,97.5,40.2,99.6,43,104.1"/>
						</g>
					</g>
					<g>
						<g>
							<path class="st15" d="M93.7,94.9c2,5.2,0.8,9.3-3.7,11.9c-1.8-1.7-3.7-3.4-5.9-4.6C84,98.3,89.6,94.1,93.7,94.9"/>
						</g>
					</g>
					<g>
						<g>
							<path class="st15" d="M22.4,112.2c1-2.1,2.8-2.9,4.9-3c2.8,0,5.3,0.7,6.7,3.5c-1.7,2.2-2.9,4.5-3.3,7.2
								C27.7,120.8,23.3,116.6,22.4,112.2"/>
						</g>
					</g>
				</g>
				<g>
					<g>
						<g>
							<path class="st7" d="M92.7,146.2c-0.1-0.2-0.4-0.3-0.6-0.5c-0.1-0.1-0.2-0.2-0.3-0.3c-0.1-0.2-0.3-0.4-0.5-0.5
								c-0.1-0.2-0.3-0.4-0.5-0.6c-0.1-0.3-0.4-0.7-0.8-0.9c-0.1-0.3-0.5-0.6-0.7-0.9c-0.1-0.2-0.2-0.4-0.3-0.7
								c-0.2-0.4-0.5-0.7-0.8-1.1c-0.5-0.7-1-1.7-1.4-2.8c0,0,0,0,0,0c-0.1-0.3-0.2-0.6-0.3-0.9c0,0,0,0,0,0c-1-0.9-2.3-1.5-3.6-1.5
								c-1.2-0.1-2.5,0.5-3.3,1.4c-0.5,0.6-0.7,1.3-0.6,2c0.3,0,0.6,0,0.8,0c0,0,0,0,0,0c0,0,0,0,0.1,0c0.1,0,0.1,0,0.2,0
								c0.1,0,0.2,0,0.3,0c0.3,0,0.6,0.1,0.9,0.2c0.2,0,0.4,0.1,0.6,0.2l0.2,0c0.1,0,0.2,0.1,0.4,0.1l0.1,0c0.1,0,0.2,0.1,0.3,0.1
								l0.3,0.1c0.1,0,0.1,0.1,0.2,0.1c0.2,0.1,0.4,0.2,0.6,0.4c0,0,0,0,0.1,0c-0.6,0.4-1.1,0.9-1.6,1.5c-0.3,0.4-0.6,0.7-0.9,1.1
								c-0.4,0.5-0.7,0.9-1.1,1.3c-0.8,0.8-1.5,1.7-2.2,2.6c-0.1,0.2-0.3,0.4-0.4,0.6c-0.6,0.9-1.3,2.3-1,3.7
								c0.2,0.9,0.8,1.7,1.6,1.9c0.9,0.3,1.7-0.2,2.4-0.5c0.2-0.1,0.3-0.2,0.5-0.2c0.7-0.3,1.5-0.3,2.1,0.1c0.6,0.4,0.9,1.1,0.8,1.7
								c-0.1,0.3-0.2,0.6-0.4,0.9c-0.1,0.2-0.2,0.4-0.3,0.6c-0.4,0.9-0.6,2.2,0.2,3.1c0.4,0.4,0.8,0.6,1.5,0.7
								c0.3,0,0.5,0.1,0.8,0.1c1.3,0,2.4-0.5,3.4-1.7c0.4-0.5,0.9-0.9,1.5-1.3c0.7-0.6,1.5-1.1,2.1-2c0.4-0.5,0.9-1,1.4-1.6
								c0.6-0.7,1.3-1.4,1.8-2.2c0.4-0.6,0.7-1.3,1-2.1C95.6,148.4,94.1,147.3,92.7,146.2z"/>
						</g>
						<g>
							<path class="st16" d="M94.3,142.1c-1.5-1.2-3.4-1.8-5.3-1.8c-2,0.1-3.8,1-5.2,2.6c-0.3,0.3-0.6,0.7-0.8,1
								c-0.4,0.5-0.8,1-1.2,1.5c-0.7,0.7-1.4,1.5-2,2.4c0,0,0,0,0,0c-0.1,0.2-0.2,0.4-0.4,0.6c-0.4,0.7-0.9,1.6-0.7,2.4
								c0.1,0.3,0.2,0.5,0.4,0.6c0.2,0.1,0.6-0.1,1-0.4c0.2-0.1,0.4-0.2,0.6-0.3c0.6-0.3,1.2-0.4,1.8-0.4c0.7,0,1.4,0.2,2,0.6
								c1.2,0.8,1.9,2.3,1.5,3.6c-0.1,0.5-0.4,1-0.6,1.3c-0.1,0.2-0.2,0.3-0.3,0.5c-0.2,0.4-0.3,0.9-0.1,1.1c0,0.1,0.2,0.1,0.5,0.2
								c1,0.2,1.8-0.2,2.6-1.1c0.5-0.6,1.1-1,1.7-1.5c0.7-0.5,1.3-1,1.8-1.6c0.5-0.6,1-1.2,1.5-1.7c0.6-0.6,1.2-1.2,1.6-1.9
								C96.3,147.6,96.4,143.9,94.3,142.1z"/>
						</g>
						<g>
							<path class="st16" d="M87.2,140.2c-0.2-0.4-0.5-0.7-0.9-1c-0.2-0.2-0.4-0.4-0.6-0.6c-0.7-0.8-1.8-1.3-2.9-1.4
								c-0.7,0-1.5,0.3-1.9,0.8c-0.3,0.3-0.3,0.6-0.2,1c0,0,0,0.1,0,0.1c-0.1,0-0.2,0-0.2,0c0.3,0,0.6,0.1,0.9,0.2
								c0.2,0,0.4,0.1,0.6,0.2l0.2,0c0.1,0,0.2,0.1,0.4,0.1l0.1,0c0.1,0,0.2,0.1,0.3,0.1l0.3,0.1c0.1,0,0.1,0.1,0.2,0.1
								c0.2,0.1,0.4,0.2,0.6,0.4c0.2,0.2,0.4,0.3,0.6,0.5c0.1,0.1,0.1,0.1,0.2,0.2c0.1,0.1,0.2,0.2,0.4,0.4l0.2,0.2
								c0.1,0.1,0.2,0.2,0.4,0.3c0.1,0.1,0.1,0.1,0.2,0.2c0,0,0.1,0,0.1-0.1c0.6-0.4,1-0.9,1.4-1.5c0,0,0,0,0.1-0.1
								C87.3,140.3,87.2,140.3,87.2,140.2z"/>
						</g>
						<g>
							<path class="st2" d="M92.1,147.8c-0.5-0.4-1.1-0.9-1.6-1.4c-0.6-0.7-1.1-1.3-1.7-2c-0.3-0.4-0.6-0.7-0.9-1.1
								c-0.1-0.2-0.2-0.5-0.4-0.7c-0.6-0.9-1.2-1.8-1.7-2.8c-0.2,0.3,0,0.7-0.1,1.1c-0.1,0.3-0.4,0.5-0.5,0.7
								c-0.1,0.2-0.2,0.3-0.2,0.5c0,0.3,0.1,0.3,0.2,0.6c0.1,0.3-0.6,1.7,0.3,1.5c0,0.5-0.2,1,0.5,1.1c-0.3,0-0.2,0.8-0.2,1
								c0.1,0.4,0.4,0.6,0.7,0.7c0,0,0,0.5,0,0.5c0.1,0.3,0.3,0.5,0.6,0.7c0.7,0.2,0.8,0.2,1.3-0.1c-0.1,0.1,0.1,0.3,0.2,0.4
								c0.6,0.6,1.7,0.3,2.2-0.2c0.1,0.6,0.8,0.9,1.4,0.8c0.4-0.1,0.6-0.3,1.1-0.3c0.1,0,0.2,0,0.3,0.1
								C93.1,148.6,92.6,148.2,92.1,147.8z"/>
						</g>
					</g>
					<g>
						<g>
							<g>
								<path class="st16" d="M99.7,151.6c0.1,1.5-1.2,3.4-2.9,2.9c-0.5-0.1-0.8-0.5-1.1-0.9c-0.5-0.6-0.8-1.2-1.2-1.8
									c-0.2-0.3-0.4-0.6-0.4-1c0-0.4,0.1-0.9,0.4-1.2c0.2-0.2,0.4-0.6,0.7-0.6c0.2,0,0.3,0,0.5,0c0.1,0,0.1,0,0.2,0
									c0.1,0,0.1,0.1,0.2,0.1c0.8,0.4,1.7,0.4,2.6,0.6c0.1,0,0.2,0,0.2,0.1c0.1,0,0.1,0.1,0.2,0.2c0.2,0.2,0.4,0.5,0.5,0.7
									C99.7,150.9,99.7,151.3,99.7,151.6z"/>
							</g>
							<g>
								<path class="st7" d="M97.8,148.8c0.7,0.7,1.1,1.8,1.2,2.8c0,0.7-0.4,1.5-0.9,1.9c-0.3,0.2-0.6,0.3-1,0.2
									c-0.2-0.1-0.5-0.3-0.7-0.6c-0.5-0.6-1.4-2.1-1.7-2.8c-0.2-0.4-0.6-0.6-1-0.5c-0.4,0.2-0.6,0.6-0.5,1
									c0.3,0.9,1.5,2.6,1.9,3.2c0.3,0.4,0.8,0.9,1.6,1.2c0.2,0.1,0.5,0.1,0.7,0.1c0.6,0,1.2-0.2,1.7-0.6c0.9-0.7,1.5-2,1.5-3.2
									c0-1-0.4-2-0.9-2.8C99.1,148.8,98.4,148.9,97.8,148.8z"/>
							</g>
						</g>
						<g>
							<g>
								<g>
									<g>
										<path class="st7" d="M113.8,138.7c-0.2-0.6-0.4-1.3-1-1.6c-0.1-0.1-0.2-0.2-0.3-0.3c-0.1-0.1-0.2-0.2-0.3-0.3
											c-0.1-0.1-0.2-0.2-0.3-0.3c-0.2-0.2-0.5-0.4-0.8-0.5c-1.2-0.6-1.7-0.8-2.9-0.7c-0.3,0-1.2,0.3-1.4,0.2
											c-0.2-0.1-1.1-1.8-1.2-2.2c-0.3-0.3-0.5-0.7-0.8-1c-0.4-0.5-0.7-1.1-1.2-1.4c-0.1-0.1-0.2-0.2-0.3-0.3
											c-0.1-0.1-0.2-0.2-0.3-0.3c-0.1-0.2-0.4-0.4-0.7-0.6c-0.2-0.4-1.6-1-1.7-1.3c0-0.2,0.3-0.6,0.4-0.8
											c0.1-0.2,0.2-0.5,0.2-0.7c0.4-1.2-0.2-2.7-0.8-3.7c-0.2-0.3-0.4-0.5-0.6-0.8c-0.4-0.3-0.8-0.6-1.3-0.9
											c-1.5-0.8-3.8-0.4-5,0.9c-1.1,1.2-1.8,2.6-1.7,4c0,0.1,0,0.4,0.1,0.5c0,0.1,0,0.1-0.1,0c-0.4,0.2-0.8,0.1-1.1,0.3
											c-1.8,0.7-3.7,2.1-4.9,3.8c-0.7,1-0.9,2.1-1.2,3.2c0,0.2-0.1,0.4-0.1,0.6c0,0.5,0,0.8,0.1,1.3c0,0.1,0.1,0.3,0.1,0.4
											c0,0.1,0.1,0.3,0.1,0.4c0.5,2.3,1.5,4.2,2.8,6.2c0.1,0.2,0.2,0.5,0.4,0.7c0.3,0.4,0.6,0.7,0.9,1.1c0.6,0.7,1.1,1.3,1.7,2
											c0.5,0.5,1,1,1.6,1.4c1.1,0.8,2.1,1.5,3.3,2c1.6,0.8,3.9,0.8,5.7,0.1c0.5-0.2,1-0.5,1.5-0.9c0.4-0.2,0.7-0.5,1.1-0.7
											c1-0.8,2-2,2.6-3.2c0.1-0.1,0.4-0.8,0.5-0.7c0,0,0,0,0,0C110.5,146.9,115.2,142.9,113.8,138.7z"/>
									</g>
								</g>
								<g>
									<g>
										<g>
											<g>
												<path class="st16" d="M98.8,123.3c0.1,0.3,0.4,0.6,0.5,0.8c0.5,0.8,0.6,1.9,0,2.8c-0.1,0.2-0.3,0.5-0.6,0.5
													c-0.3,0-0.6-0.2-0.9-0.3c-0.5-0.1-0.9-0.3-1.4-0.4c-0.6-0.1-1.3-0.2-1.9-0.3c-0.2,0-0.5,0-0.7,0c-0.1,0-0.3-0.1-0.3-0.2
													c-0.2-0.4,0-1,0.1-1.4c0.2-0.6,0.7-1.4,1.2-1.9c0.7-0.5,2.1-0.7,2.8-0.4C98.1,122.7,98.5,123,98.8,123.3z"/>
											</g>
										</g>
										<g>
											<g>
												<path class="st16" d="M111,137.5c0.3,0.4,0.8,0.7,1,1.2c0.8,1.5,0.3,3.2-1.1,4.2c-0.2,0.2-0.5,0.3-0.7,0.5
													c-0.9,0.3-1.8,0.1-2.7-0.3c-0.1,0-0.4-0.2-0.4-0.3c0.2-1,0.5-2,0.6-3c0-0.5,0-0.9,0-1.4c0-0.4-0.3-0.8-0.2-1.3
													c0-0.1,0-0.1,0.1-0.2c0.1-0.2,0.4-0.2,0.6-0.2C109.3,136.5,109.9,136.8,111,137.5z"/>
											</g>
										</g>
										<g>
											<g>
												<path class="st16" d="M101.4,130.7c0.2,0.2,0.4,0.3,0.6,0.5c0.3,0.3,0.5,0.5,0.8,0.8c1.5,1.7,3.2,4.4,3.4,6.7
													c0.1,2.2-0.6,4.8-2,6.8c-0.3,0.4-0.5,0.7-0.8,1.1c-0.5,0.5-1.1,0.9-1.7,1.2c-0.3,0.2-0.6,0.5-1,0.6
													c-0.9,0.4-2.4,0.6-3.4,0.3c-1.6-0.3-3.1-1.5-4.6-2.5c-0.1-0.2-0.4-0.3-0.6-0.5c-0.1-0.1-0.2-0.2-0.3-0.3
													c-0.1-0.2-0.3-0.4-0.5-0.5c-0.1-0.2-0.3-0.4-0.5-0.6c-0.1-0.3-0.4-0.7-0.8-0.9c-0.1-0.3-0.5-0.6-0.7-0.9
													c-0.1-0.2-0.2-0.4-0.3-0.7c-0.2-0.4-0.5-0.7-0.8-1.1c-1.1-1.6-2.1-4.2-2.1-6.2c0-0.3,0.1-0.5,0.1-0.7
													c0.2-1.4,1-2.7,2.2-3.7c0.8-0.7,1.8-1.4,2.8-1.8c0.2,0,0.3-0.1,0.5-0.1c0.7-0.2,1.4-0.3,2.2-0.3c0.2,0,0.5,0,0.7,0
													c1.4,0,2.7,0.6,4.1,1.1c0.3,0.1,0.5,0.2,0.8,0.3C100.1,129.8,100.7,130.3,101.4,130.7z"/>
											</g>
										</g>
										<g>
											<g>
												<path class="st2" d="M97.3,140.6c0,0.1-0.1,0.2-0.1,0.3c0,0.1,0,0.2,0,0.4c0,0.1-0.1,0.2-0.2,0.3c0,0.1,0,0.2-0.1,0.3
													c-0.1,0.1-0.2,0.3-0.3,0.4c0,0.1-0.1,0.1-0.2,0.2c0,0-0.1,0-0.1,0.1c-0.1,0.1-0.2,0.2-0.4,0.4c-0.1,0.1-0.2,0.1-0.3,0.2
													c-0.1,0-0.2,0-0.3,0.1c-0.2,0.1-0.3,0.2-0.5,0.2c0,0-0.1,0-0.1,0c-0.1,0-0.2,0-0.3,0c-0.1,0-0.2,0-0.3,0
													c-0.1,0-0.1,0-0.2,0c0,0-0.1,0-0.1-0.1c0,0-0.1,0-0.1,0c0,0,0,0-0.1,0c-0.1,0-0.1-0.1-0.2-0.1c0,0-0.1-0.1-0.2-0.1
													c-0.1-0.1-0.1-0.2-0.2-0.2c0,0-0.1,0-0.1-0.1c0,0-0.1-0.1-0.1-0.1c0,0-0.1-0.1-0.1-0.1c-0.1,0-0.1-0.1-0.2-0.1
													c-0.1-0.1-0.2-0.1-0.3-0.2c0,0,0,0-0.1-0.1c0-0.1-0.1-0.1-0.1-0.2c0-0.1-0.1-0.2-0.1-0.2c0,0-0.1-0.1-0.1-0.1
													c-0.1-0.1-0.1-0.1-0.2-0.2c-0.1-0.1-0.2-0.2-0.3-0.3c-0.1-0.1-0.1-0.2-0.1-0.3c0-0.1-0.1-0.3-0.1-0.4
													c0-0.1-0.1-0.1-0.1-0.2c0-0.1,0-0.1-0.1-0.2c-0.1-0.1-0.1-0.2-0.2-0.3c0-0.1-0.1-0.2-0.1-0.2c0-0.1,0-0.2,0-0.2
													c0-0.1,0-0.1,0-0.1c0,0,0-0.1,0-0.1c0-0.1,0-0.2,0-0.4c0-0.1,0-0.1,0-0.2c0,0,0-0.1,0-0.1c0,0,0-0.1,0-0.1
													c0-0.1,0-0.1,0.1-0.2c0-0.1,0-0.1,0.1-0.2c0,0,0.1,0,0.1,0c0,0,0.1,0,0.1-0.1c0-0.1,0.1-0.1,0.1-0.1
													c0.1-0.1,0.1-0.1,0.2-0.2c0.1-0.1,0.1-0.1,0.2-0.2c0-0.1,0.1-0.1,0.1-0.2c0.1-0.1,0.2-0.2,0.3-0.2c0,0,0.1,0,0.1,0
													c0,0,0.1,0,0.1,0c0,0,0.1,0,0.1,0c0.1,0,0.1-0.1,0.2-0.1c0,0,0.1,0,0.1,0c0.1,0,0.2,0,0.3-0.1c0.1-0.1,0.3-0.1,0.4-0.1
													c0.1,0,0.3,0,0.4,0c0.1,0,0.1,0.1,0.2,0.1c0.1,0.1,0.2,0.1,0.4,0.2c0.1,0.1,0.3,0.1,0.4,0.2c0,0,0.1,0.1,0.1,0.1
													c0.1,0,0.1,0,0.2,0.1c0,0,0,0,0,0c0,0,0.1,0.1,0.1,0.1c0.1,0,0.1,0.1,0.2,0.1c0.1,0.1,0.1,0.1,0.1,0.2
													c0.1,0.2,0.3,0.3,0.5,0.4c0.1,0.1,0.2,0.1,0.3,0.3c0.1,0.1,0.1,0.3,0.2,0.4c0,0.1,0,0.1,0.1,0.1c0.1,0,0.1,0.1,0.1,0.2
													c0.1,0.1,0.1,0.2,0.2,0.4c0,0,0,0.1,0,0.1c0,0.1,0,0.1,0,0.2c0,0,0,0.1,0,0.2c0,0,0,0.1,0,0.2c0,0.1,0,0.2,0,0.4
													C97.2,140.4,97.2,140.5,97.3,140.6z"/>
											</g>
										</g>
										<g>
											<g>
												<path class="st7" d="M93.2,133.7c0.1,0.2,0.1,0.3,0.2,0.5c0.1,0.3,0.1,0.5,0,0.7c-0.3,1.1-1.7,1.2-2.3,0.5
													c-0.7-0.9-0.5-2,0.6-2.3c0.3-0.1,0.7-0.1,1,0.1C92.9,133.3,93.1,133.5,93.2,133.7z"/>
											</g>
										</g>
										<g>
											<g>
												<path class="st7" d="M99.9,142.4c0.1,0.2,0.1,0.3,0.2,0.5c0.1,0.3,0.1,0.5,0,0.7c-0.3,1.1-1.7,1.2-2.3,0.5
													c-0.7-0.9-0.5-2,0.6-2.3c0.3-0.1,0.7-0.1,1,0.1C99.6,142,99.7,142.2,99.9,142.4z"/>
											</g>
										</g>
										<g>
											<g>
												<path class="st7" d="M94.2,141.4c0,0,0.1-0.1,0.1-0.1c0,0,0,0,0,0c0,0,0-0.1,0-0.1c0,0,0-0.1,0-0.1c0-0.1,0-0.2,0-0.3
													c0-0.1,0-0.1,0-0.2c0,0,0-0.1,0-0.2c0,0,0,0,0-0.1c0,0,0-0.1,0.1-0.1c0,0,0,0,0.1-0.1c0,0,0.1,0,0.1,0
													c0.1,0,0.2,0,0.3,0c0.3,0,0.6-0.2,0.6-0.6c0-0.2,0-0.3,0-0.5c0-0.1-0.1-0.2-0.1-0.3c-0.1-0.1-0.2-0.3-0.3-0.3
													c-0.2-0.1-0.4-0.1-0.6-0.1c-0.3,0.1-0.5,0.2-0.5,0.5c0,0.1,0,0.2,0,0.3c0,0,0,0,0,0.1c0,0,0,0.1,0,0.1
													c0,0-0.1,0-0.1,0.1c0,0-0.1,0-0.1,0c0,0-0.1,0-0.1,0c0,0-0.1,0-0.1,0c0,0-0.1,0-0.1,0c0,0,0,0-0.1,0c0,0,0,0-0.1-0.1
													c0,0,0,0-0.1,0c-0.1,0-0.1,0-0.2,0c0,0,0,0-0.1,0c0,0-0.1,0-0.1,0c-0.1,0-0.1,0-0.1,0.1c0,0-0.1,0.1-0.1,0.1
													c0,0,0,0.1,0,0.1c0,0,0,0,0,0l0,0c0,0,0,0.1,0,0.1c0,0,0,0.1,0,0.1c0,0,0,0,0,0.1l0,0c0,0,0,0,0,0.1c0,0,0,0,0.1,0.1
													c0,0,0,0,0.1,0c0,0,0,0,0,0c0,0,0.1,0,0.1,0.1c0,0,0,0,0.1,0c0,0,0.1,0.1,0.2,0.1c0,0,0.1,0,0.1,0.1c0,0,0.1,0,0.1,0.1
													c0,0,0,0.1,0.1,0.1c0,0,0,0.1,0,0.1c0,0.1,0,0.1,0,0.2c0,0.1,0,0.1,0,0.2c0,0,0,0,0,0c0,0,0,0.1,0,0.1
													c0,0.1,0,0.1,0.1,0.2c0,0,0.1,0.1,0.1,0.1c0,0,0.1,0.1,0.1,0.1c0,0,0.1,0,0.1,0c0.1,0,0.1,0,0.2-0.1
													C94.1,141.5,94.1,141.5,94.2,141.4C94.2,141.5,94.2,141.4,94.2,141.4z"/>
											</g>
										</g>
									</g>
								</g>
							</g>
							<g>
								<g>
									<g>
										<path class="st17" d="M99.5,130.8C99.4,130.8,99.4,130.8,99.5,130.8c-0.3-0.1-0.4-0.3-0.3-0.4c0-0.1,0.1-0.2,0.1-0.3
											c0-0.2,0.2-0.3,0.4-0.2c0.2,0,0.3,0.2,0.2,0.4c0,0.1-0.1,0.2-0.1,0.3C99.7,130.7,99.6,130.8,99.5,130.8z"/>
									</g>
								</g>
								<g>
									<g>
										<path class="st17" d="M96.7,135.9c-0.1,0-0.2,0-0.2-0.1c-0.1-0.1-0.2-0.3,0-0.5c0.1-0.1,0.2-0.3,0.4-0.5
											c0.1-0.2,0.3-0.2,0.5-0.1c0.1,0.1,0.2,0.3,0.1,0.5c-0.1,0.2-0.3,0.3-0.4,0.5C96.9,135.8,96.8,135.9,96.7,135.9z
											 M97.8,134.3c-0.1,0-0.1,0-0.2-0.1c-0.2-0.1-0.2-0.3-0.1-0.5c0.1-0.2,0.2-0.3,0.3-0.5c0.1-0.2,0.3-0.2,0.5-0.1
											c0.2,0.1,0.2,0.3,0.1,0.5c-0.1,0.2-0.2,0.3-0.3,0.5C98,134.3,97.9,134.3,97.8,134.3z M98.7,132.6c0,0-0.1,0-0.1,0
											c-0.2-0.1-0.2-0.3-0.2-0.5c0.1-0.2,0.2-0.4,0.2-0.5c0.1-0.2,0.3-0.2,0.4-0.2c0.2,0.1,0.2,0.3,0.2,0.4
											c-0.1,0.2-0.2,0.4-0.3,0.5C99,132.6,98.9,132.6,98.7,132.6z"/>
									</g>
								</g>
								<g>
									<g>
										<path class="st17" d="M95.5,137c-0.1,0-0.2-0.1-0.3-0.1c-0.1-0.2-0.1-0.4,0.1-0.5c0.1,0,0.1-0.1,0.2-0.2
											c0.1-0.1,0.4-0.1,0.5,0.1c0.1,0.1,0.1,0.4-0.1,0.5c-0.1,0.1-0.2,0.1-0.3,0.2C95.6,137,95.6,137,95.5,137z"/>
									</g>
								</g>
							</g>
							<g>
								<g>
									<g>
										<path class="st17" d="M98,139.5c-0.1,0-0.2,0-0.3-0.1c-0.1-0.1-0.1-0.4,0-0.5c0.1-0.1,0.2-0.1,0.3-0.2
											c0.1-0.1,0.4-0.1,0.5,0.1c0.1,0.1,0.1,0.4-0.1,0.5c-0.1,0.1-0.1,0.1-0.2,0.2C98.2,139.4,98.1,139.5,98,139.5z"/>
									</g>
								</g>
								<g>
									<g>
										<path class="st17" d="M99.4,138.7c-0.1,0-0.3-0.1-0.3-0.2c-0.1-0.2,0-0.4,0.2-0.4c0.2-0.1,0.4-0.1,0.6-0.2
											c0.2-0.1,0.4,0,0.4,0.2c0.1,0.2,0,0.4-0.2,0.4c-0.2,0.1-0.4,0.1-0.5,0.2C99.5,138.6,99.4,138.7,99.4,138.7z M101.3,138.2
											c-0.2,0-0.3-0.1-0.3-0.3c0-0.2,0.1-0.4,0.3-0.4c0.2,0,0.4-0.1,0.6-0.1c0.2,0,0.4,0.1,0.4,0.3c0,0.2-0.1,0.4-0.3,0.4
											C101.7,138.1,101.5,138.1,101.3,138.2C101.3,138.2,101.3,138.2,101.3,138.2z M103.8,138.1
											C103.8,138.1,103.8,138.1,103.8,138.1c-0.2,0-0.4,0-0.6,0c-0.2,0-0.3-0.2-0.3-0.4c0-0.2,0.1-0.3,0.4-0.3
											c0.2,0,0.4,0,0.6,0c0.2,0,0.3,0.2,0.3,0.4C104.1,138,104,138.1,103.8,138.1z"/>
									</g>
								</g>
								<g>
									<g>
										<path class="st17" d="M105.4,138.5c-0.1,0-0.1,0-0.2,0c-0.1,0-0.2-0.1-0.2-0.1c-0.2-0.1-0.3-0.3-0.2-0.4
											c0.1-0.2,0.3-0.3,0.4-0.2c0.1,0,0.2,0.1,0.3,0.1c0.2,0.1,0.2,0.3,0.1,0.5C105.6,138.5,105.5,138.5,105.4,138.5z"/>
									</g>
								</g>
							</g>
						</g>
					</g>
				</g>
				<g>
					<g>
						<g>
							<path class="st7" d="M92.8,144.3c-0.2-0.4-0.6-0.7-0.9-0.9c-1-0.7-2.3-1-3.5-0.9c-1.1-1.7-2.2-2.9-3.5-3.8
								c-0.4-0.3-0.9-0.6-1.4-0.7c-0.2-0.1-0.5-0.1-0.7-0.2c-0.2-0.1-0.3-0.1-0.4-0.1c0,0-0.1,0-0.2,0c-0.1,0-0.2,0-0.2,0
								c-1.2-0.3-2.2-0.4-3.1-0.3c-0.1,0-0.1,0-0.2,0.1c0,0-0.1,0-0.1,0c0,0,0,0-0.1,0c-0.1,0-0.2,0-0.3,0c-0.1,0-0.1,0-0.2,0
								c0,0,0,0-0.1,0c0,0,0,0,0,0c0,0,0,0,0,0c0-0.1,0-0.1,0.1-0.2c0-0.1,0.1-0.2,0.1-0.3c0-0.2,0.1-0.3,0-0.4
								c-0.1-0.3-0.3-0.5-0.5-0.5c-0.1,0-0.3,0-0.4,0c-0.4,0.2-0.5,0.7-0.6,1.1c0,0.1-0.1,0.2-0.1,0.4c0,0.1-0.1,0.3-0.1,0.4
								c0,0.1,0,0.2,0,0.3c0,0-0.1-0.1-0.1-0.1c-0.1,0-0.1-0.1-0.2-0.1c-0.2-0.1-0.3-0.1-0.3-0.2c-0.1-0.1-0.2-0.1-0.3-0.2
								c-0.1-0.1-0.2-0.2-0.4-0.2c-0.1-0.1-0.2-0.1-0.3-0.1c-0.1,0-0.2,0-0.3,0c0,0-0.1,0.1-0.1,0.1c-0.2,0.2-0.3,0.4-0.3,0.7
								c0,0.2,0.2,0.4,0.4,0.6c0.1,0.1,0.1,0.1,0.2,0.2c-0.2,0.1-0.3,0.2-0.4,0.3l-0.3,0.3c-0.1,0.1-0.3,0.2-0.4,0.3
								c-0.4,0.4-0.6,0.8-0.9,1.2l-0.1,0.2c-0.3,0.5-0.6,1-0.8,1.5c-0.1,0.2-0.1,0.4-0.2,0.6l-0.1,0.2l-0.1,0.3c0,0.1,0,0.2-0.1,0.3
								c0,0.2-0.1,0.3-0.1,0.4c0,0.1-0.1,0.3-0.1,0.4l0,0.2c0,0.2-0.1,0.4-0.1,0.5c0,0.7,0,1.2,0,1.7l0.1,0.8c0,0.1,0,0.3,0,0.4
								l0,0.4c0,0.4,0.1,0.7,0.2,1.1c0,0.2,0.3,1,0.3,1.2c0.2,0.8,0.4,0.8,0.6,1.6c0.1,0.5,0.2,0.9,0.4,1.4c0.2,0.5,0.4,1,0.7,1.5
								c0.3,0.5,0.7,0.9,1.1,1.3c0.4,0.4,0.9,0.8,1.3,1.2c0.2,0.2,0.4,0.3,0.7,0.4c0.2,0.1,0.4,0.2,0.7,0.2c0,0,0.1,0,0.1,0
								c0,0,0,0,0.1,0c0.1,0,0.1,0,0.1,0c0.1,0.1,0.2,0.1,0.3,0.1c0.3,0,0.4,0,0.6,0.1l0.3,0c0.3,0,0.5,0,0.7,0
								c0.4,0,0.6-0.1,0.9-0.1c1.1-0.2,2-0.7,3.1-1.1l0.2-0.1c0.5-0.2,0.4-0.1,0.9-0.3l0.2-0.1c0.3-0.1,0.5-0.3,0.8-0.4
								c0.2-0.1,0.4-0.2,0.6-0.3c0.4-0.2,0.9-0.5,1.4-0.8l0.1,0c0.4-0.3,0.8-0.6,1.3-1c0.2-0.2,0.3-0.5,0.5-0.7
								c0.1-0.1,0.2-0.2,0.3-0.4l0,0c0.1-0.1,0.1-0.1,0.2-0.2c0.2-0.2,0.3-0.4,0.4-0.6c0.1-0.3,0.2-0.5,0.4-0.7
								c0.1-0.1,0.2-0.2,0.2-0.3c0.1-0.1,0.1-0.3,0.1-0.4L91,151c0-0.1,0-0.2,0-0.2c0-0.1,0-0.1,0-0.1c0-0.1,0-0.2,0-0.4
								c0,0,0-0.1,0-0.1c0,0,0-0.1,0-0.2c0-0.1,0-0.2,0-0.3c0-0.1,0-0.2,0-0.3l0-0.2c0-0.3,0-0.5-0.1-0.8c0.6-0.2,1.1-0.5,1.4-1
								C93.2,146.6,93.2,145.2,92.8,144.3z"/>
						</g>
						<g>
							<path class="st18" d="M90.3,146c0.1,0.2,0.2,0.5,0.3,0.7c0.2-0.1,0.4-0.2,0.5-0.4c0.1-0.2,0.2-0.8,0-1.1
								c0-0.1-0.1-0.2-0.3-0.3c-0.4-0.3-0.9-0.5-1.4-0.5c0.1,0.2,0.2,0.4,0.3,0.6C90,145.5,90,145.6,90.3,146z"/>
						</g>
						<g>
							<g>
								<path class="st18" d="M89.4,149.2c0-0.1,0-0.3,0-0.4c0-0.1,0-0.2,0-0.3c0-0.2-0.1-0.5-0.2-0.7c-0.2-0.5-0.4-1.1-0.6-1.4
									l-0.4-0.7c-0.3-0.7-0.6-1.2-1-1.9c-0.3-0.5-0.5-0.9-0.9-1.3c-0.1-0.1-0.2-0.2-0.3-0.3c-0.1-0.1-0.1-0.2-0.2-0.3
									c-0.1-0.1-0.2-0.2-0.4-0.3l-0.2-0.2c-0.1-0.1-0.2-0.2-0.4-0.4c-0.1-0.1-0.1-0.1-0.2-0.2c-0.2-0.2-0.4-0.3-0.6-0.5
									c-0.2-0.2-0.4-0.3-0.6-0.4c-0.1,0-0.1-0.1-0.2-0.1l-0.3-0.1c-0.1,0-0.2-0.1-0.3-0.1l-0.1,0c-0.1,0-0.3-0.1-0.4-0.1l-0.2,0
									c-0.2-0.1-0.4-0.1-0.6-0.2c-0.3-0.1-0.6-0.1-0.9-0.2c-0.1,0-0.2,0-0.3,0c-0.1,0-0.1,0-0.2,0c-0.4,0-0.9,0-1.5,0.1l-0.4,0.1
									c-0.4,0.1-0.8,0.1-1.2,0.3c-0.5,0.2-1,0.5-1.3,0.7c-0.2,0.1-0.4,0.3-0.6,0.5c-0.2,0.2-0.4,0.3-0.5,0.5
									c-0.1,0.2-0.3,0.4-0.4,0.6l-0.1,0.2c0,0,0,0.1-0.1,0.1c0,0,0,0.1-0.1,0.1l0,0.1c-0.1,0.2-0.2,0.4-0.3,0.5l-0.1,0.2
									c0,0.1,0,0.1-0.1,0.2c0,0.1-0.1,0.1-0.1,0.2c-0.4,1-0.5,2-0.5,3c0,0.6,0,1.1,0.1,1.6l0,0.3c0,0.4,0.1,0.9,0.2,1.3
									c0,0.1,0,0.1,0.1,0.2c-0.1,0-0.2,0.1-0.3,0.1c-0.4,0.2-0.4,0.6-0.6,0.9c-0.2,0.4-0.3,0.9-0.4,1.3c-0.1,0.6-0.2,1.2-0.1,1.8
									c0.1,0.6,0.5,1.2,1,1.6c0.8,0.6,2.1,0.3,2.7-0.4c0.2,0.2,0.3,0.4,0.5,0.6c0.5,0.6,1,1,1.7,1.3c0.3,0.1,0.5,0.2,0.8,0.2
									c0.1,0,0.1,0,0.2,0c0.1,0,0.2,0,0.3,0c0.8,0,1.6-0.2,2.4-0.5c0.3-0.1,0.6-0.2,0.8-0.3l0.1,0c0.1-0.1,0.3-0.1,0.4-0.2
									c0.3-0.1,0.7-0.2,1-0.3c0.3-0.1,0.4-0.2,0.6-0.3l0.1-0.1c0.2-0.1,0.5-0.2,0.7-0.4c0.3-0.1,0.5-0.3,0.8-0.4l0.3-0.2
									c0.1,0,0.1-0.1,0.2-0.2c0.2-0.2,0.4-0.3,0.5-0.4l0.2-0.1c0.2-0.2,0.4-0.4,0.6-0.6c0.2-0.2,0.4-0.5,0.6-0.7
									c0.2-0.2,0.4-0.4,0.5-0.6l0.1-0.2c0.1-0.1,0.2-0.3,0.2-0.4c0,0,0-0.1,0-0.1c0-0.1,0-0.2,0.1-0.2l0.1-0.1
									c0-0.1,0.1-0.1,0.1-0.2C89.5,150.1,89.4,149.6,89.4,149.2z"/>
							</g>
							<g>
								<path class="st7" d="M73.8,156.7c-0.6,0-1.1-0.1-1.6-0.5c-0.7-0.5-1.2-1.3-1.4-2.2c-0.1-0.7-0.1-1.4,0.1-2.2
									c0.1-0.5,0.3-1,0.5-1.5c0-0.1,0-0.1,0-0.2c0-0.1-0.1-0.5-0.1-0.6c0-0.1,0-0.3,0-0.4c0-0.5,0.1-0.9,0.6-1
									c0.5-0.1,1,0.2,1.1,0.7c0,0.1,0.1,0.4,0.1,0.5c0.1,0.5,0.2,0.6,0.2,1v0.1c0,0.1,0,0.4-0.1,0.7c-0.2,0.4-0.3,0.8-0.4,1.2
									c-0.1,0.6-0.2,1-0.1,1.4c0.1,0.4,0.3,0.8,0.6,1c0.4,0.3,1.2,0.1,1.5-0.3c0.6-0.8,0.6-2,0.3-2.8c-0.2-0.5,0.1-1,0.6-1.2
									c0.5-0.2,1,0.1,1.2,0.6c0.5,1.6,0.3,3.3-0.5,4.5C75.6,156.2,74.7,156.7,73.8,156.7z"/>
							</g>
						</g>
					</g>
					<g>
						<g>
							<g>
								<path class="st19" d="M75,141.9C75,141.9,75,141.9,75,141.9c-0.2,0-0.2,0-0.3,0c-0.2,0-0.3-0.2-0.3-0.4
									c0-0.2,0.2-0.3,0.4-0.3c0.1,0,0.2,0,0.3,0c0.2,0,0.3,0.2,0.3,0.4C75.3,141.8,75.2,141.9,75,141.9z"/>
							</g>
						</g>
						<g>
							<g>
								<path class="st19" d="M78,143.7c-0.1,0-0.2,0-0.3-0.1c-0.1-0.1-0.2-0.3-0.4-0.4c-0.1-0.1-0.1-0.3,0-0.5
									c0.1-0.1,0.3-0.1,0.5,0c0.2,0.2,0.3,0.3,0.4,0.5c0.1,0.1,0.1,0.4-0.1,0.5C78.2,143.7,78.1,143.7,78,143.7z M76.7,142.5
									c-0.1,0-0.1,0-0.2,0c-0.1,0-0.2-0.1-0.2-0.1c-0.1,0-0.2-0.1-0.3-0.1c-0.2-0.1-0.3-0.3-0.2-0.4c0.1-0.2,0.3-0.3,0.4-0.2
									c0.1,0,0.2,0.1,0.3,0.1c0.1,0,0.2,0.1,0.3,0.2c0.2,0.1,0.2,0.3,0.1,0.5C76.9,142.5,76.8,142.5,76.7,142.5z"/>
							</g>
						</g>
						<g>
							<g>
								<path class="st19" d="M78.8,145c-0.1,0-0.3-0.1-0.3-0.2c0-0.1-0.1-0.2-0.1-0.3c-0.1-0.2,0-0.4,0.2-0.4
									c0.2-0.1,0.4,0,0.4,0.2c0,0.1,0.1,0.2,0.1,0.3c0.1,0.2,0,0.4-0.2,0.4C78.9,145,78.8,145,78.8,145z"/>
							</g>
						</g>
					</g>
					<g>
						<g>
							<g>
								<path class="st19" d="M80.7,140.1c-0.1,0-0.1,0-0.2-0.1c-0.1-0.1-0.2-0.3-0.1-0.5c0.1-0.1,0.3-0.4,0.6-0.3
									c0.1,0.1,0.2,0.3,0.2,0.4c0,0.1-0.1,0.2-0.2,0.2c0,0,0,0,0,0C80.9,140,80.8,140.1,80.7,140.1z"/>
							</g>
						</g>
						<g>
							<g>
								<path class="st19" d="M80.3,142.9c-0.1,0-0.3-0.1-0.3-0.3c0-0.2-0.1-0.3-0.1-0.5c0-0.2,0.1-0.4,0.3-0.4
									c0.2,0,0.4,0.1,0.4,0.3c0,0.1,0.1,0.3,0.1,0.4C80.7,142.6,80.6,142.8,80.3,142.9C80.4,142.9,80.4,142.9,80.3,142.9z
									 M80.2,141.4C80.2,141.4,80.2,141.4,80.2,141.4c-0.2,0-0.4-0.2-0.3-0.4c0-0.2,0-0.4,0.1-0.5c0-0.2,0.2-0.3,0.4-0.2
									c0.2,0,0.3,0.2,0.2,0.4c0,0.1-0.1,0.3-0.1,0.4C80.5,141.3,80.4,141.4,80.2,141.4z"/>
							</g>
						</g>
						<g>
							<g>
								<path class="st19" d="M80.8,144.1c-0.1,0-0.2-0.1-0.3-0.2c0-0.1-0.1-0.2-0.1-0.3c-0.1-0.2,0-0.4,0.2-0.4
									c0.2-0.1,0.4,0,0.4,0.2c0,0.1,0.1,0.2,0.1,0.3c0.1,0.2,0,0.4-0.1,0.5C80.9,144.1,80.8,144.1,80.8,144.1z"/>
							</g>
						</g>
					</g>
					<g>
						<g>
							<path class="st7" d="M75.7,145.3c0.3,0,0.6,0,0.9,0.2c1,0.5,0.7,2.1-0.4,2.3c-0.9,0.2-1.7-0.8-1.3-1.7
								C75,145.7,75.4,145.5,75.7,145.3z"/>
						</g>
					</g>
					<g>
						<g>
							<path class="st7" d="M83.8,141.8c0.4,0,0.7-0.1,1,0.1c0.8,0.4,1,1.8,0.1,2.2C83.3,144.8,82.3,142.5,83.8,141.8z"/>
						</g>
					</g>
					<g>
						<g>
							<path class="st7" d="M77.8,147.5c0,0.3,0,0.7,0.2,1c0.1,0.2,0.2,0.4,0.4,0.5c0.2,0.1,0.4,0.2,0.6,0.4
								c0.1,0.2,0.3,0.3,0.4,0.5c0.5,0.4,1.3,0.7,2,0.6c0.4-0.1,0.8-0.2,1.3-0.4c0.7-0.3,1.4-1.3,1.6-2.1c0-0.3,0-0.6,0-0.9
								c0-0.2,0.2-0.3,0.3-0.4c0.2-0.3,0.2-0.8,0.1-1.2c-0.1-0.2-0.2-0.4-0.4-0.6c-0.4-0.4-0.9-0.8-1.4-1c-0.3-0.1-0.5-0.1-0.7-0.1
								c-0.4-0.1-0.9-0.1-1.3,0.1c-0.1,0-0.2,0.1-0.3,0.1c-0.1,0-0.2,0-0.2,0C78.8,144.9,77.7,145.9,77.8,147.5z M80.5,149.3
								c0,0,0.1-0.1,0.1-0.1c0.2,0,0.4-0.1,0.5-0.2c0.7-0.2,1.4-0.6,2-0.9c0,0,0,0,0,0.1c-0.1,0.1-0.1,0.2-0.2,0.3
								c-0.2,0.3-0.5,0.6-0.9,0.8c-0.1,0-0.2,0.1-0.3,0.1c-0.1,0-0.2,0-0.3,0.1C81.1,149.4,80.8,149.5,80.5,149.3
								C80.5,149.3,80.5,149.3,80.5,149.3z M78.8,147.7c-0.2-1.3,0.7-2,1.9-2.6c0.3,0,0.6-0.2,0.9-0.2c0.7,0,1.7,0.3,1.9,1
								c0,0.1,0.1,0.2,0.1,0.3c-0.1,0.6-1.8,1.4-2.4,1.7c-0.1,0-0.3,0.1-0.5,0.2c-0.1,0-0.3,0.1-0.4,0.1c-0.1,0-0.3,0.1-0.4,0.1
								c-0.2,0-0.5,0.1-0.7,0C79,148.2,78.9,147.9,78.8,147.7z"/>
						</g>
					</g>
					<g>
						<g>
							<path class="st20" d="M78.8,147.7c0,0.2,0.2,0.5,0.4,0.6c0.2,0.1,0.5,0,0.7,0c0.1-0.1,0.3-0.1,0.4-0.1
								c0.1-0.1,0.3-0.1,0.4-0.1c0.1-0.1,0.3-0.2,0.5-0.2c0.6-0.3,2.3-1.1,2.4-1.7c0-0.1,0-0.2-0.1-0.3c-0.3-0.8-1.2-1.1-1.9-1
								c-0.3,0-0.6,0.2-0.9,0.2C79.6,145.6,78.7,146.4,78.8,147.7z"/>
						</g>
					</g>
					<g>
						<g>
							<path class="st7" d="M79.9,145.9c0.2,0,0.3,0,0.5,0.2c0.3,0.3,0.2,0.9-0.2,1c-0.4,0.1-0.8-0.4-0.6-0.8
								C79.6,146.1,79.7,146,79.9,145.9z"/>
						</g>
					</g>
					<g>
						<g>
							<path class="st7" d="M81.9,145.1c0.2,0,0.3,0,0.5,0.1c0.4,0.2,0.3,0.8-0.2,1c-0.4,0.1-1-0.2-0.8-0.7
								C81.5,145.3,81.7,145.2,81.9,145.1z"/>
						</g>
					</g>
					<g>
						<g>
							<path class="st20" d="M81.1,149c0.7-0.2,1.4-0.6,2-0.9c0,0,0,0,0,0.1c-0.1,0.1-0.1,0.2-0.2,0.3c-0.2,0.3-0.5,0.6-0.9,0.8
								c-0.1,0-0.2,0.1-0.3,0.1c-0.1,0-0.2,0-0.3,0.1c-0.3,0-0.7,0-1-0.2c0,0,0,0,0,0c0,0,0.1-0.1,0.1-0.1
								C80.8,149.2,80.9,149.1,81.1,149z"/>
						</g>
					</g>
					<g>
						<g>
							<path class="st7" d="M79.5,161.8c0.2-0.1,0.3-0.3,0.4-0.7c0-0.1,0-0.3,0-0.4c0,0,0,0,0,0c0.1,0.2,0.3,0.3,0.5,0.4
								c0,0,0.1,0,0.2,0c0,0,0.1,0,0.1,0c0.2,0,0.3-0.1,0.5-0.2c0.3-0.3,0.2-0.7,0.1-1c-0.1-0.2-0.2-0.3-0.3-0.4
								c-0.1-0.2-0.2-0.4-0.4-0.6c-0.4-0.4-0.9-0.7-1.5-0.7c-0.8,0-1.3,0.6-1.7,1.2c-0.1,0.1-0.1,0.2-0.2,0.2
								c-0.1,0.1-0.2,0.2-0.3,0.3c-0.2,0.3-0.2,0.6-0.1,0.9c0.1,0.2,0.3,0.4,0.6,0.4c0,0,0.1,0,0.1,0c0.1,0,0.1,0,0.2,0
								c0.3-0.1,0.5-0.3,0.7-0.5c0,0,0,0,0,0c0,0.1,0,0.2,0,0.3c0,0.3,0.1,0.6,0.3,0.8c0.1,0.1,0.3,0.2,0.4,0.2c0,0,0.1,0,0.1,0
								c0.1,0,0.1,0,0.2,0C79.3,161.9,79.4,161.8,79.5,161.8z"/>
						</g>
					</g>
				</g>
				<g>
					<g>
						<g>
							<g>
								<path class="st21" d="M62.3,159.7C62.3,159.7,62.3,159.7,62.3,159.7c-0.1-0.1-0.2-0.3-0.3-0.4c-0.4-0.4-0.8-0.8-1.3-1.3
									l-0.4-0.3c-0.6-0.5-1.3-1.1-1.9-1.5c-0.4-0.3-0.7-0.6-1.1-1c-0.3-0.3-0.5-0.5-0.8-0.7c-0.9-0.6-2.2-1-3.6-1
									c-0.1,0-0.1,0-0.2,0c-0.5,0-1.2,0-1.6,0.3c-0.3,0.2-0.5,0.4-0.8,0.7c-0.4,0.4-0.8,0.8-1.4,1.1c-1,0.5-1.7,1-2.1,1.6
									c-0.1,0.1-0.2,0.3-0.2,0.4c-0.1,0.2-0.3,0.5-0.5,0.7c-0.1,0.1-0.2,0.2-0.2,0.3c-0.1,0.1-0.2,0.2-0.2,0.3
									c-0.2,0.3-0.1,0.9,0,1.4c0.3,1.1,0.8,2,1.4,3.1l0.2,0.3c0.3,0.6,0.6,1.1,1,1.5c0.1,0.2,0.3,0.3,0.4,0.4
									c0.3,0.2,0.5,0.5,0.8,0.8l0.2,0.2c0.7,0.8,1.4,1.7,2.2,2.2c0.7,0.4,1.3,0.9,1.9,1.4c0.7,0.6,1.3,1.1,2.1,1.5
									c0,0,0.1,0,0.3,0c0.6-0.1,1.2-0.6,1.2-1.1c0-0.3-0.1-0.8-0.2-1.3c-0.3-1.2-0.7-3,0.9-4.1c0.1-0.1,0.3-0.3,0.4-0.4
									c0.5-0.6,1.4-1.7,2.7-1c0.3,0.2,0.5,0.4,0.7,0.6c0.2,0.2,0.2,0.2,0.3,0.2c0.5,0.1,0.9,0.1,1.4-0.2c0.5-0.3,0.6-0.7,0.1-2.1
									C63.2,161.4,62.8,160.5,62.3,159.7z"/>
							</g>
							<g>
								<path class="st7" d="M65.3,161.7c-0.4-1-0.8-2.1-1.5-3.1c-0.1-0.2-0.3-0.3-0.4-0.5c-0.5-0.6-1-1-1.6-1.5l-0.4-0.3
									c-0.7-0.5-1.3-1.1-2-1.6c-0.3-0.2-0.5-0.5-0.8-0.8c-0.3-0.3-0.6-0.6-1-0.9c-1.6-1.2-3.6-1.4-4.8-1.4
									c-0.2,0.6-0.4,1.2-0.6,1.8c0,0,0,0.1-0.1,0.1c0.2,0,0.4,0,0.5,0c0.1,0,0.1,0,0.2,0c1.5,0,2.8,0.4,3.6,1
									c0.3,0.2,0.5,0.5,0.8,0.7c0.3,0.3,0.7,0.7,1.1,1c0.7,0.5,1.3,1,1.9,1.5l0.4,0.3c0.5,0.4,1,0.8,1.3,1.3
									c0.1,0.1,0.2,0.2,0.3,0.4c0,0,0,0,0,0c0.5,0.8,0.9,1.8,1.2,2.7c0.5,1.4,0.4,1.8-0.1,2.1c-0.5,0.3-0.9,0.4-1.4,0.2
									c-0.1,0-0.1-0.1-0.3-0.2c-0.1-0.2-0.3-0.4-0.7-0.6c-1.3-0.8-2.2,0.4-2.7,1c-0.1,0.1-0.3,0.4-0.4,0.4
									c-1.6,1.1-1.2,2.9-0.9,4.1c0.1,0.5,0.2,1,0.2,1.3c0,0.5-0.6,1-1.2,1.1c-0.2,0-0.3,0-0.3,0c-0.7-0.3-1.4-0.9-2.1-1.5
									c-0.6-0.5-1.2-1-1.9-1.4c-0.8-0.5-1.6-1.4-2.2-2.2l-0.2-0.2c-0.3-0.3-0.6-0.6-0.8-0.8c-0.1-0.1-0.3-0.3-0.4-0.4
									c-0.4-0.4-0.7-0.9-1-1.5l-0.2-0.3c-0.4-0.6-0.7-1.2-0.9-1.8c-0.5,0.4-1,0.8-1.5,1.2c0.3,0.5,0.5,1,0.8,1.6l0.2,0.3
									c0.3,0.6,0.7,1.3,1.3,1.9c0.2,0.2,0.3,0.3,0.5,0.5c0.2,0.2,0.5,0.4,0.7,0.7l0.2,0.2c0.8,0.9,1.6,2,2.7,2.6
									c0.6,0.3,1.1,0.8,1.7,1.3c0.8,0.6,1.6,1.3,2.6,1.7c0.3,0.1,0.6,0.2,0.9,0.2c0.1,0,0.2,0,0.4,0c1.5-0.2,2.7-1.4,2.8-2.8
									c0-0.6-0.1-1.2-0.2-1.8c-0.3-1.3-0.3-1.8,0.1-2.2c0.3-0.2,0.5-0.5,0.7-0.8c0.1-0.1,0.3-0.3,0.4-0.5c0,0,0.1,0.1,0.1,0.1
									c0.2,0.2,0.5,0.6,1.1,0.8c1,0.3,2,0.2,2.9-0.4C66.4,164.7,65.6,162.7,65.3,161.7z"/>
							</g>
						</g>
						<g>
							<g>
								<path class="st2" d="M49.6,160.1c-0.3,2.1,2,4.5,3.9,5.1c1.8,0.6,3.4-1.8,4.3-3.6c1-2-0.8-3.9-2.4-4.7
									C53.4,155.7,50.1,157.1,49.6,160.1z"/>
							</g>
						</g>
					</g>
				</g>
				<g>
					<g>
						<path class="st7" d="M86.7,161.6c-1,0-2-0.2-2.9-0.6c-1.4-0.6-2.4-1.8-2.9-3.4c-0.6-1.9-0.3-4.1,0.8-5.8
							c1-1.6,2.7-2.7,4.5-2.8c1.4-0.1,2.7,0.3,3.8,0.7c0.5,0.2,1,0.3,1.4,0.4c1.1,0.3,2.6,0.6,3.4,1.8c0.5,0.7,0.6,1.5,0.5,2.6
							c0,0.3-0.1,0.6-0.2,0.9v0c-0.7,2.3-2.7,4.4-5.1,5.5C89,161.3,87.8,161.6,86.7,161.6z"/>
					</g>
				</g>
				<g>
					<path class="st11" d="M93.3,154.1c0.1-0.4,0-0.8-0.1-0.9c-0.4-0.5-1.3-0.7-2.1-0.9c-0.6-0.1-1.1-0.3-1.6-0.5
						c-1-0.3-1.9-0.6-2.8-0.6c-0.1,0-0.2,0-0.3,0c-1.1,0.1-2.1,0.8-2.8,1.8c-0.7,1.1-0.9,2.7-0.5,4c0.2,0.7,0.6,1.5,1.7,2
						c1.3,0.6,2.9,0.6,4.4-0.1c1.9-0.8,3.4-2.4,3.9-4.2C93.2,154.5,93.2,154.3,93.3,154.1z"/>
				</g>
				<g>
					<g>
						<path class="st7" d="M53,171.3c-1.6,0-3.2-0.4-4.6-1.1l0,0c-0.3-0.2-0.6-0.3-0.8-0.5c-1.7-1.1-4.6-5.7-3-8.2
							c0.8-1.2,2.3-1.4,3.5-1.6c0.5-0.1,1-0.2,1.3-0.3c0.5-0.2,0.9-0.3,1.3-0.3c0.2,0,0.4-0.1,0.7-0.1c0.3-0.1,0.6-0.2,0.9-0.4
							c0.4-0.2,0.8-0.4,1.3-0.5c3-0.9,6.2,0.6,7.5,3.6c1.4,3,0.3,6.2-2.9,8.1C56.6,170.8,54.8,171.3,53,171.3z"/>
					</g>
				</g>
				<g>
					<path class="st11" d="M59.1,162.6c-0.7-1.6-2.2-2.6-3.8-2.6c-0.4,0-0.7,0.1-1.1,0.2c-0.3,0.1-0.6,0.2-0.9,0.4
						c-0.4,0.2-0.8,0.4-1.3,0.5c-0.3,0.1-0.6,0.1-0.9,0.2c-0.3,0.1-0.6,0.1-0.8,0.2c-0.5,0.2-1.1,0.3-1.8,0.4
						c-0.7,0.1-1.8,0.3-2,0.6c-0.7,1,1.2,4.4,2.3,5.2c0.2,0.1,0.4,0.3,0.7,0.4c0,0,0,0,0,0c2.4,1.3,5.3,1.2,7.7-0.3
						C57.9,167.5,60.4,165.6,59.1,162.6z"/>
				</g>
				<g>
					<g>
						<g>
							<path class="st21" d="M53.6,150.2c1.7,0,4.3,1.7,5.3,3.1c0.7,1.1,1.2,2.2,1.3,3.5c0,1.6-1.5,3.5-3.2,2.5
								c-0.5-0.3-0.9-0.7-1.2-1.2c-0.5-0.7-0.8-1-1.2-1.8"/>
						</g>
						<g>
							<path class="st7" d="M57.9,160.6c-0.5,0-1-0.1-1.5-0.4c-0.7-0.4-1.1-1-1.5-1.5c-0.1-0.2-0.2-0.3-0.3-0.4
								c-0.3-0.4-0.6-0.8-0.9-1.5c-0.2-0.5,0-1.1,0.5-1.3c0.5-0.2,1.1,0,1.3,0.5c0.2,0.5,0.4,0.8,0.7,1.2c0.1,0.1,0.2,0.3,0.3,0.5
								c0.2,0.3,0.5,0.7,0.9,0.9c0.3,0.2,0.6,0.2,0.9,0c0.5-0.3,0.9-1,0.9-1.7c0-1-0.4-1.9-1.1-3c-0.9-1.3-3.2-2.7-4.4-2.7
								c0,0,0,0,0,0c-0.5,0-1-0.4-1-1c0-0.5,0.4-1,1-1c0,0,0,0,0.1,0c2,0,4.9,1.9,6,3.5c1,1.4,1.4,2.6,1.4,4c0,1.3-0.7,2.7-1.8,3.4
								C58.8,160.4,58.4,160.6,57.9,160.6z"/>
						</g>
					</g>
					<g>
						<g>
							<g>
								<path class="st7" d="M53.8,142.9c-0.4-0.5-0.9-0.9-1.4-1.3c-0.4-0.3-0.7-0.6-1.1-1c-1.2-0.9-2.9-1.6-4.4-1.8
									c-0.1,0-1-0.2-0.9-0.3c0,0,0,0-0.1,0c1.5-5.1-4.5-9-8.8-6.1c-0.6,0.4-1.3,0.9-1.5,1.6c-0.1,0.1-0.1,0.3-0.2,0.4
									c-0.1,0.1-0.1,0.3-0.2,0.4c-0.1,0.1-0.2,0.3-0.2,0.4c-0.2,0.2-0.3,0.7-0.3,1c-0.3,1.5-0.4,2.1,0.2,3.5
									c0.1,0.3,0.7,1.2,0.7,1.5c-0.1,0.3-1.7,1.8-2,2.1c-0.3,0.4-0.6,0.8-0.9,1.2c-0.4,0.6-1,1.1-1.2,1.8
									c-0.1,0.2-0.2,0.3-0.2,0.4c-0.1,0.1-0.1,0.3-0.2,0.4c-0.2,0.2-0.3,0.6-0.4,0.9c-0.4,0.4-0.6,2.1-1,2.3
									c-0.3,0.1-0.8-0.2-1.1-0.2c-0.3,0-0.6,0-0.9,0c-1.5-0.1-3,1.1-3.9,2c-0.2,0.3-0.4,0.6-0.7,0.9c-0.2,0.6-0.4,1.1-0.6,1.7
									c-0.4,2,0.8,4.4,2.6,5.3c1.7,0.9,3.4,1.2,5,0.7c0.1,0,0.5-0.1,0.5-0.2c0.1,0,0.1,0,0,0.1c0.3,0.3,0.4,0.8,0.7,1.2
									c1.3,1.8,3.5,3.4,5.8,4.3c0.9,0.3,1.8,0.4,2.7,0.4c0.5,0,1.1,0,1.6-0.1c0.5,1.1,1.1,2.1,2,2.7c0.5,0.4,1.1,0.5,1.6,0.5
									c0.8,0,1.5-0.3,2.2-1c1-1,1.3-2.5,0.9-4.6c-0.1-0.4-0.2-1-0.4-1.5c0.7-0.7,1.4-1.5,2.1-2.3c0.2-0.2,0.5-0.4,0.7-0.6
									c0.3-0.4,0.6-0.9,0.9-1.3c0.6-0.8,1.1-1.7,1.6-2.5c0.4-0.6,0.6-1.4,1-2c0.2-0.3,0.3-0.8,0.4-1.2c0.2-0.4,0.3-0.8,0.4-1.2
									c0.1-0.3,0.1-0.7,0.2-1.1c0.1-0.4,0.2-0.7,0.3-1.1C55.7,147.1,55.1,144.6,53.8,142.9z"/>
							</g>
							<g>
								<path class="st21" d="M46.2,163.8c-0.7,0.5-1.5,1-2.3,1.5c-0.2,0.2-0.5,0.3-0.8,0.4c0.4,0.8,0.8,1.5,1.3,1.8
									c0.6,0.4,1.1,0.1,1.5-0.3c0.5-0.5,0.7-1.5,0.4-2.9C46.3,164.2,46.2,164,46.2,163.8z"/>
							</g>
							<g>
								<g>
									<g>
										<path class="st21" d="M24.7,153.8c0.3-0.2,0.5-0.6,0.8-0.9c0.8-0.8,2-1.2,3.1-0.8c0.2,0.1,0.7,0.2,0.7,0.5
											c0.1,0.3,0,0.7,0,1.1c0,0.5,0,1.1,0,1.6c0,0.7,0.2,1.5,0.3,2.2c0.1,0.2,0.2,0.5,0.2,0.7c0,0.1,0,0.3-0.1,0.4
											c-0.4,0.4-1.1,0.3-1.6,0.3c-0.8,0-1.8-0.3-2.5-0.8c-0.8-0.6-1.5-2.1-1.4-3C24.3,154.7,24.5,154.3,24.7,153.8z"/>
									</g>
								</g>
								<g>
									<g>
										<path class="st21" d="M36.6,135.7c0.4-0.5,0.6-1.1,1-1.5c1.4-1.3,3.4-1.3,5-0.1c0.3,0.2,0.5,0.4,0.8,0.7
											c0.7,0.9,0.7,2,0.6,3.1c0,0.1-0.1,0.6-0.2,0.5c-1.2,0.1-2.4,0.1-3.6,0.3c-0.5,0.1-1,0.3-1.6,0.4c-0.4,0.2-0.9,0.6-1.3,0.6
											c-0.1,0-0.1,0-0.2,0c-0.2-0.1-0.3-0.3-0.4-0.5C36.1,137.9,36.2,137.2,36.6,135.7z"/>
									</g>
								</g>
								<g>
									<g>
										<path class="st21" d="M32.2,148.6c0.1-0.3,0.2-0.5,0.4-0.8c0.2-0.4,0.4-0.8,0.6-1.1c1.4-2.2,3.9-5,6.4-5.8
											c2.5-0.8,5.6-0.9,8.2,0.1c0.5,0.2,1,0.4,1.4,0.5c0.7,0.4,1.3,0.9,1.9,1.4c0.3,0.3,0.7,0.5,1,0.9c0.7,0.9,1.4,2.5,1.5,3.7
											c0.1,1.9-0.7,3.9-1.4,5.9c-0.2,0.2-0.3,0.5-0.3,0.8c-0.1,0.1-0.1,0.2-0.2,0.4c-0.2,0.2-0.3,0.5-0.4,0.8
											c-0.2,0.2-0.4,0.5-0.5,0.8c-0.3,0.3-0.6,0.7-0.8,1.1c-0.3,0.3-0.5,0.7-0.8,1c-0.2,0.2-0.4,0.4-0.6,0.6
											c-0.3,0.4-0.7,0.8-1,1.2c-1.4,1.7-4,3.7-6.2,4.3c-0.3,0.1-0.6,0-0.9,0.1c-1.7,0.2-3.3-0.2-4.8-1.3c-1-0.7-2.1-1.5-2.8-2.5
											c-0.1-0.2-0.2-0.4-0.2-0.5c-0.4-0.8-0.7-1.5-1-2.3c-0.1-0.3-0.2-0.5-0.3-0.8c-0.4-1.6-0.2-3.2,0-4.9c0-0.3,0.1-0.6,0.1-1
											C31.5,150.3,31.9,149.5,32.2,148.6z"/>
									</g>
								</g>
								<g>
									<g>
										<path class="st7" d="M37.5,157c-0.7,2.2,2.5,3.2,3.1,0.8c0.3-1-0.9-2-1.9-1.8C38.1,156.1,37.8,156.5,37.5,157z"/>
									</g>
								</g>
								<g>
									<g>
										<path class="st2" d="M47.6,156.1c0.5-0.9,1.2-1.7,0.9-2.8c-0.3-1.1-1.6-2.1-2.7-2.2c-2.1-0.3-4.1,1.9-4.3,3.9
											c-0.1,1.3,0.7,2.8,2,3.4c1.5,0.7,3.5-1.5,4.2-2.5"/>
									</g>
								</g>
								<g>
									<g>
										<path class="st7" d="M43.2,153.3c-0.2,0.5-0.2,1.2,0.4,1.5c0.2,0.1,0.4,0.1,0.7,0.2c0,0,0,0,0,0c0.1,0.6-0.3,2.3,0.8,2.2
											c0.7-0.1,0.6-1.2,0.6-1.7c0-0.2,0-0.4,0-0.6c0,0,0,0,0,0c0.6-0.1,1.5,0.3,1.9-0.3c0.1-0.2,0.1-0.4,0.1-0.5
											c-0.2-0.8-1.6-0.3-2.2-0.6c-0.3-0.1-0.4-0.6-0.6-0.7c-0.1-0.1-0.2-0.1-0.3-0.1C43.9,152.8,43.6,153,43.2,153.3z"/>
									</g>
								</g>
								<g>
									<g>
										<path class="st7" d="M45.4,147.5c-0.1,0.4-0.2,0.7-0.2,1.1c0.2,1.6,2.5,1.8,3.1,0.4c0.7-1.4-0.7-2.7-2-2.3
											C46,146.8,45.7,147.2,45.4,147.5z"/>
									</g>
								</g>
							</g>
							<g>
								<g>
									<g>
										<path class="st22" d="M40.3,137.7c0-0.1-0.1-0.2-0.1-0.3c0-0.1,0-0.3,0-0.4c0-0.2,0-0.4,0-0.6c0.1-0.4,0.1-0.8,0.3-1.1
											c0.1-0.3,0.2-0.6,0.4-0.8c0.2-0.3,0.3-0.5,0.5-0.8c0.1-0.1,0.2-0.1,0.2-0.2c0.4,0.1,0.7,0.3,1.1,0.6
											c0.3,0.2,0.5,0.4,0.8,0.7c0.7,0.9,0.7,2,0.6,3.1c0,0.1-0.1,0.6-0.2,0.5c-1.1,0.1-2.2,0.1-3.3,0.3c0,0,0,0,0,0
											C40.3,138.4,40.3,138,40.3,137.7z"/>
									</g>
								</g>
								<g>
									<g>
										<path class="st22" d="M29.5,157.5c0.1,0.2,0.2,0.5,0.2,0.7c0,0.1,0,0.3-0.1,0.4c-0.4,0.4-1.1,0.3-1.6,0.3
											c-0.8,0-1.8-0.3-2.5-0.8c-0.2-0.1-0.4-0.3-0.6-0.6c0.1-0.2,0.2-0.3,0.3-0.4c0.2-0.2,0.4-0.4,0.6-0.6
											c0.2-0.2,0.4-0.4,0.6-0.6c0.3-0.2,0.6-0.3,0.9-0.5c0.2-0.1,0.3-0.1,0.5-0.2c0.1,0,0.2-0.1,0.3-0.1c0.1,0,0.2,0,0.2,0
											c0.2,0,0.4,0,0.7,0c0,0,0,0.1,0,0.1C29.2,156,29.4,156.8,29.5,157.5z"/>
									</g>
								</g>
							</g>
						</g>
						<g>
							<g>
								<g>
									<g>
										<path class="st23" d="M38.1,143.1c-0.1,0-0.3-0.1-0.3-0.2l-0.1-0.3c-0.1-0.2,0-0.4,0.2-0.4c0.2-0.1,0.4,0,0.4,0.2l0.1,0.3
											c0.1,0.2,0,0.4-0.2,0.4C38.1,143.1,38.1,143.1,38.1,143.1z"/>
									</g>
								</g>
								<g>
									<g>
										<path class="st23" d="M42.4,149.8c-0.1,0-0.2,0-0.3-0.1l-0.4-0.5c-0.1-0.1-0.1-0.4,0-0.5c0.1-0.1,0.4-0.1,0.5,0l0.4,0.5
											c0.1,0.1,0.1,0.4,0,0.5C42.5,149.7,42.5,149.8,42.4,149.8z M41.1,148.2c-0.1,0-0.2,0-0.3-0.1l-0.4-0.5
											c-0.1-0.1-0.1-0.4,0-0.5c0.1-0.1,0.4-0.1,0.5,0l0.4,0.5c0.1,0.1,0.1,0.4,0,0.5C41.3,148.2,41.2,148.2,41.1,148.2z
											 M39.9,146.7c-0.1,0-0.2,0-0.3-0.1c-0.1-0.2-0.2-0.4-0.4-0.5c-0.1-0.2-0.1-0.4,0.1-0.5c0.2-0.1,0.4-0.1,0.5,0.1
											c0.1,0.2,0.2,0.3,0.3,0.5c0.1,0.2,0.1,0.4-0.1,0.5C40,146.6,40,146.7,39.9,146.7z M38.9,144.9c-0.1,0-0.2-0.1-0.3-0.2
											c-0.1-0.2-0.2-0.4-0.3-0.6c-0.1-0.2,0-0.4,0.2-0.4c0.2-0.1,0.4,0,0.4,0.2c0.1,0.2,0.2,0.4,0.3,0.5c0.1,0.2,0,0.4-0.2,0.5
											C39,144.9,38.9,144.9,38.9,144.9z"/>
									</g>
								</g>
								<g>
									<g>
										<path class="st23" d="M43.4,151.1c-0.1,0-0.2,0-0.3-0.1l-0.2-0.2c-0.1-0.1-0.1-0.4,0.1-0.5c0.1-0.1,0.4-0.1,0.5,0.1
											l0.2,0.2c0.1,0.1,0.1,0.4-0.1,0.5C43.6,151.1,43.5,151.1,43.4,151.1z"/>
									</g>
								</g>
							</g>
							<g>
								<g>
									<g>
										<path class="st23" d="M41.1,154.5c-0.1,0-0.1,0-0.2-0.1c-0.1-0.1-0.2-0.1-0.2-0.2c-0.2-0.1-0.2-0.3-0.1-0.5
											c0.1-0.2,0.3-0.2,0.5-0.1c0.1,0.1,0.2,0.1,0.3,0.2c0.2,0.1,0.2,0.3,0.1,0.5C41.3,154.4,41.2,154.5,41.1,154.5z"/>
									</g>
								</g>
								<g>
									<g>
										<path class="st23" d="M39.7,153.6c-0.1,0-0.1,0-0.2,0c-0.2-0.1-0.3-0.2-0.5-0.2c-0.2-0.1-0.2-0.3-0.2-0.4
											c0.1-0.2,0.3-0.2,0.4-0.2c0.2,0.1,0.4,0.2,0.5,0.3c0.2,0.1,0.2,0.3,0.2,0.5C39.9,153.6,39.8,153.6,39.7,153.6z
											 M37.9,152.9c0,0-0.1,0-0.1,0c-0.2-0.1-0.4-0.1-0.6-0.2c-0.2-0.1-0.3-0.2-0.2-0.4c0.1-0.2,0.2-0.3,0.4-0.2
											c0.2,0.1,0.4,0.1,0.6,0.2c0.2,0.1,0.3,0.3,0.2,0.4C38.2,152.8,38,152.9,37.9,152.9z M36.1,152.3
											C36,152.3,36,152.3,36.1,152.3l-0.2,0c-0.2,0-0.3-0.1-0.5-0.1c-0.2,0-0.3-0.2-0.3-0.4c0-0.2,0.2-0.3,0.4-0.3
											c0.2,0,0.3,0.1,0.5,0.1l0.1,0c0.2,0.1,0.3,0.2,0.2,0.4C36.3,152.2,36.2,152.3,36.1,152.3z M33.6,152.1
											c-0.2,0-0.3-0.1-0.3-0.3c0-0.2,0.1-0.3,0.3-0.4c0.2,0,0.4,0,0.6,0c0.2,0,0.3,0.1,0.3,0.3c0,0.2-0.1,0.3-0.3,0.3
											C34,152.1,33.8,152.1,33.6,152.1C33.6,152.1,33.6,152.1,33.6,152.1z"/>
									</g>
								</g>
								<g>
									<g>
										<path class="st23" d="M31.9,152.2c-0.2,0-0.3-0.1-0.3-0.3c0-0.2,0.1-0.3,0.3-0.3l0.3,0c0.2,0,0.3,0.1,0.4,0.3
											c0,0.2-0.1,0.3-0.3,0.4L31.9,152.2C31.9,152.2,31.9,152.2,31.9,152.2z"/>
									</g>
								</g>
							</g>
						</g>
					</g>
				</g>
			</g>
		</g>
	</g>
	<path class="st5" d="M40,21.2c-0.2-4.7-3.9-9.2-9.5-8.5c-2.2,0.3-4.4,1.4-5.7,3.1c-2.5,3.4-2.5,8.1-0.1,11.5
		c0.4,0.5,0.8,1.1,1.4,1.5c1.8,1.4,4.5,1.9,7,1.5c2.4-0.4,4.3-1.5,5.5-3.4C39.6,25.1,40.1,23.1,40,21.2z M27.9,17
		c0.7,0,1.2,0.1,1.7,0.5c1.1,1,0.9,3.1-0.6,3.4C26.5,21.5,25.7,18.3,27.9,17z M29.8,25.9c-2.5,1.3-4.5-1.9-1.8-3.5
		c0.6,0,1.3,0,1.8,0.3C31.1,23.3,31.1,25.2,29.8,25.9z M33,16.7c0.8,0,1.5,0.2,2,0.7c1,0.9,0.7,2.6-0.5,3C32,21.4,30.6,18.1,33,16.7
		z M34.8,25.6c-2.5,0.7-3.2-2.4-1.1-3.7c0.6,0,1.2,0.1,1.6,0.4C36.6,23.1,36.3,25.2,34.8,25.6z"/>
	<path class="st5" d="M22.1,173.4c-0.2-4.7-3.9-9.2-9.5-8.5c-2.2,0.3-4.4,1.4-5.7,3.1c-2.5,3.4-2.5,8.1-0.1,11.5
		c0.4,0.5,0.8,1.1,1.4,1.5c1.8,1.4,4.5,1.9,7,1.5c2.4-0.4,4.3-1.5,5.5-3.4C21.8,177.3,22.2,175.3,22.1,173.4z M10.1,169.2
		c0.7,0,1.2,0.1,1.7,0.5c1.1,1,0.9,3.1-0.6,3.4C8.7,173.7,7.9,170.5,10.1,169.2z M12,178.1c-2.5,1.3-4.5-1.9-1.8-3.5
		c0.6,0,1.3,0,1.8,0.3C13.3,175.5,13.3,177.4,12,178.1z M15.2,168.9c0.8,0,1.5,0.2,2,0.7c1,0.9,0.7,2.6-0.5,3
		C14.2,173.6,12.7,170.3,15.2,168.9z M17,177.8c-2.5,0.7-3.2-2.4-1.1-3.7c0.6,0,1.2,0.1,1.6,0.4C18.8,175.3,18.4,177.4,17,177.8z"/>
	<path class="st3" d="M14.5,87.5c0,2.4-1.9,4.3-4.3,4.3c-2.4,0-4.3-1.9-4.3-4.3c0-2.4,1.9-4.3,4.3-4.3
		C12.5,83.2,14.5,85.2,14.5,87.5z"/>
	<path class="st5" d="M143,214.7c-0.2-4.7-3.9-9.2-9.5-8.5c-2.2,0.3-4.4,1.4-5.7,3.1c-2.5,3.4-2.5,8.1-0.1,11.5
		c0.4,0.5,0.8,1.1,1.4,1.5c1.8,1.4,4.5,1.9,7,1.5c2.4-0.4,4.3-1.5,5.5-3.4C142.7,218.6,143.1,216.6,143,214.7z M130.9,210.4
		c0.7,0,1.2,0.1,1.7,0.5c1.1,1,0.9,3.1-0.6,3.4C129.5,214.9,128.7,211.7,130.9,210.4z M132.8,219.3c-2.5,1.3-4.5-1.9-1.8-3.5
		c0.6,0,1.3,0,1.8,0.3C134.1,216.7,134.1,218.7,132.8,219.3z M136,210.2c0.8,0,1.5,0.2,2,0.7c1,0.9,0.7,2.6-0.5,3
		C135,214.9,133.6,211.6,136,210.2z M137.8,219.1c-2.5,0.7-3.2-2.4-1.1-3.7c0.6,0,1.2,0.1,1.6,0.4
		C139.7,216.6,139.3,218.7,137.8,219.1z"/>
	<g>
		<defs>
			<rect id="SVGID_00000031899886814334923480000009730750550885788073_" x="-0.7" y="183.9" width="209.7" height="134.8"/>
		</defs>
		<clipPath id="SVGID_00000021106373325547709640000004909803083540648839_">
			<use xlink:href="#SVGID_00000031899886814334923480000009730750550885788073_"  style="overflow:visible;"/>
		</clipPath>
		<g style="clip-path:url(#SVGID_00000021106373325547709640000004909803083540648839_);">
			<defs>
				<rect id="SVGID_00000173871484614538720370000012253624844288208300_" x="-0.3" y="46" width="354.6" height="272.7"/>
			</defs>
			<clipPath id="SVGID_00000083786322262114441300000011560860910653274552_">
				<use xlink:href="#SVGID_00000173871484614538720370000012253624844288208300_"  style="overflow:visible;"/>
			</clipPath>
			<g style="clip-path:url(#SVGID_00000083786322262114441300000011560860910653274552_);">
				<g>
					
						<image style="overflow:visible;opacity:0.4;" width="397" height="111" xlink:href="E9E3F0C8.png"  transform="matrix(1 0 0 1 -18.7966 198.7034)">
					</image>
					<g>
						<path class="st26" d="M343,225.2c-10.7,0-19.6,7.5-21.9,17.5c-5.7-6.3-14-10.2-23.1-10.2c-10.6,0-20,5.3-25.7,13.3
							c-3.7-3.9-9-6.4-14.8-6.4c-3.6,0-6.9,0.9-9.8,2.5c-2.2-15.3-15.3-27.1-31.1-27.1c-11.9,0-22.2,6.6-27.6,16.4
							c-5.1-11.1-16.6-18.9-29.9-18.9c-15,0-27.6,9.8-31.5,23.1c-5.3-4.1-11.9-6.5-19.2-6.5c-6.5,0-12.6,2-17.6,5.4
							c-1.7-16.9-16-30.1-33.3-30.1c-13.3,0-24.9,7.9-30.2,19.2c-4.1-5.1-10.4-8.3-17.4-8.3c-12.4,0-22.5,10.1-22.5,22.6
							c0,5.1,1.7,9.8,4.5,13.6v45.4h370.6V259c1.9-3.3,3-7.1,3-11.2C365.5,235.3,355.4,225.2,343,225.2z"/>
						<path class="st27" d="M343,225.2c-10.7,0-19.6,7.5-21.9,17.5c-5.7-6.3-14-10.2-23.1-10.2c-10.6,0-20,5.3-25.7,13.3
							c-3.7-3.9-9-6.4-14.8-6.4c-3.6,0-6.9,0.9-9.8,2.5c-2.2-15.3-15.3-27.1-31.1-27.1c-11.9,0-22.2,6.6-27.6,16.4
							c-5.1-11.1-16.6-18.9-29.9-18.9c-15,0-27.6,9.8-31.5,23.1c-5.3-4.1-11.9-6.5-19.2-6.5c-6.5,0-12.6,2-17.6,5.4
							c-1.7-16.9-16-30.1-33.3-30.1c-13.3,0-24.9,7.9-30.2,19.2c-4.1-5.1-10.4-8.3-17.4-8.3c-12.4,0-22.5,10.1-22.5,22.6
							c0,5.1,1.7,9.8,4.5,13.6v45.4h370.6V259c1.9-3.3,3-7.1,3-11.2C365.5,235.3,355.4,225.2,343,225.2z"/>
					</g>
				</g>
				<g>
					
						<image style="overflow:visible;opacity:0.4;" width="387" height="108" xlink:href="E9E3F0CB.png"  transform="matrix(1 0 0 1 -12.7966 227.7034)">
					</image>
					<g>
						<path class="st28" d="M340.2,253.6c-10.4,0-19.1,7.3-21.4,17.1c-5.6-6.1-13.6-9.9-22.5-9.9c-10.3,0-19.5,5.1-25,13
							c-3.6-3.8-8.8-6.2-14.4-6.2c-3.5,0-6.7,0.9-9.6,2.5c-2.1-14.9-14.9-26.4-30.4-26.4c-11.6,0-21.7,6.5-26.9,16
							c-4.9-10.9-16.2-18.4-29.2-18.4c-14.6,0-27,9.5-30.7,22.5c-5.2-4-11.7-6.4-18.7-6.4c-6.4,0-12.3,1.9-17.2,5.3
							c-1.7-16.5-15.6-29.4-32.5-29.4c-13,0-24.3,7.7-29.5,18.7c-4-4.9-10.1-8.1-17-8.1c-12.1,0-21.9,9.9-21.9,22
							c0,5,1.7,9.6,4.4,13.3v44.3h361.4v-36.9c1.8-3.2,2.9-7,2.9-11C362.1,263.5,352.3,253.6,340.2,253.6z"/>
						<path class="st29" d="M340.2,253.6c-10.4,0-19.1,7.3-21.4,17.1c-5.6-6.1-13.6-9.9-22.5-9.9c-10.3,0-19.5,5.1-25,13
							c-3.6-3.8-8.8-6.2-14.4-6.2c-3.5,0-6.7,0.9-9.6,2.5c-2.1-14.9-14.9-26.4-30.4-26.4c-11.6,0-21.7,6.5-26.9,16
							c-4.9-10.9-16.2-18.4-29.2-18.4c-14.6,0-27,9.5-30.7,22.5c-5.2-4-11.7-6.4-18.7-6.4c-6.4,0-12.3,1.9-17.2,5.3
							c-1.7-16.5-15.6-29.4-32.5-29.4c-13,0-24.3,7.7-29.5,18.7c-4-4.9-10.1-8.1-17-8.1c-12.1,0-21.9,9.9-21.9,22
							c0,5,1.7,9.6,4.4,13.3v44.3h361.4v-36.9c1.8-3.2,2.9-7,2.9-11C362.1,263.5,352.3,253.6,340.2,253.6z"/>
					</g>
				</g>
			</g>
		</g>
	</g>
	<path class="st3" d="M198.1,177c0,2.4-1.9,4.3-4.3,4.3c-2.4,0-4.3-1.9-4.3-4.3c0-2.4,1.9-4.3,4.3-4.3
		C196.2,172.7,198.1,174.7,198.1,177z"/>
	<path class="st3" d="M42.1,197.9c0,2.4-1.9,4.3-4.3,4.3c-2.4,0-4.3-1.9-4.3-4.3c0-2.4,1.9-4.3,4.3-4.3
		C40.2,193.6,42.1,195.5,42.1,197.9z"/>
	<path class="st3" d="M158.2,80.6c0,2.4-1.9,4.3-4.3,4.3c-2.4,0-4.3-1.9-4.3-4.3c0-2.4,1.9-4.3,4.3-4.3
		C156.3,76.3,158.2,78.2,158.2,80.6z"/>
	<path class="st3" d="M192.6,20.4c0,2.4-1.9,4.3-4.3,4.3c-2.4,0-4.3-1.9-4.3-4.3c0-2.4,1.9-4.3,4.3-4.3
		C190.7,16.1,192.6,18,192.6,20.4z"/>
</g>
</svg>
