<svg xmlns="http://www.w3.org/2000/svg" width="200" height="200" viewBox="0 0 200 200"><g transform="translate(-645 1321)"><circle cx="100" cy="100" r="100" transform="translate(645 -1321)" fill="#406493"/><path d="M100,1A99.737,99.737,0,0,0,80.047,3.011a98.452,98.452,0,0,0-35.4,14.9A99.292,99.292,0,0,0,8.779,61.465,98.493,98.493,0,0,0,3.011,80.047a99.975,99.975,0,0,0,0,39.906,98.452,98.452,0,0,0,14.9,35.4,99.292,99.292,0,0,0,43.558,35.869,98.493,98.493,0,0,0,18.582,5.768,99.975,99.975,0,0,0,39.906,0,98.452,98.452,0,0,0,35.4-14.9,99.292,99.292,0,0,0,35.869-43.558,98.493,98.493,0,0,0,5.768-18.582,99.975,99.975,0,0,0,0-39.906,98.452,98.452,0,0,0-14.9-35.4A99.292,99.292,0,0,0,138.535,8.779a98.493,98.493,0,0,0-18.582-5.768A99.737,99.737,0,0,0,100,1m0-1A100,100,0,1,1,0,100,100,100,0,0,1,100,0Z" transform="translate(645 -1321)" fill="#707070"/><text transform="translate(699 -1180)" fill="#fff" font-size="45" font-family="ArialMT, Arial"><tspan x="0" y="0">TOP</tspan></text><path d="M23,0,46,25H0Z" transform="translate(722 -1267)" fill="#fff"/><path d="M23,0,46,26H0Z" transform="translate(722 -1263)" fill="#406493"/></g></svg>