<?xml version="1.0" encoding="utf-8"?>
<!-- Generator: Adobe Illustrator 28.0.0, SVG Export Plug-In . SVG Version: 6.00 Build 0)  -->
<svg version="1.1" id="レイヤー_1" xmlns="http://www.w3.org/2000/svg" xmlns:xlink="http://www.w3.org/1999/xlink" x="0px"
	 y="0px" viewBox="0 0 102 100" style="enable-background:new 0 0 102 100;" xml:space="preserve">
<style type="text/css">
	.ドロップシャドウ{fill:none;}
	.光彩_x0020_外側_x0020_5_x0020_pt{fill:none;}
	.青のネオン{fill:none;stroke:#8AACDA;stroke-width:7;stroke-linecap:round;stroke-linejoin:round;}
	.クロムハイライト{fill:url(#SVGID_1_);stroke:#FFFFFF;stroke-width:0.3629;stroke-miterlimit:1;}
	.ジャイブ_GS{fill:#FFDD00;}
	.Alyssa_GS{fill:#A6D0E4;}
	.st0{fill:#FFFFFF;}
	.st1{fill:#8A6551;}
	.st2{fill:#D5ECF9;}
	.st3{fill:#9CD6F3;}
	.st4{fill:#E75532;}
	.st5{fill:#F3AA3C;}
</style>
<linearGradient id="SVGID_1_" gradientUnits="userSpaceOnUse" x1="0" y1="0" x2="6.123234e-17" y2="-1">
	<stop  offset="0" style="stop-color:#656565"/>
	<stop  offset="0.618" style="stop-color:#1B1B1B"/>
	<stop  offset="0.6292" style="stop-color:#545454"/>
	<stop  offset="0.9831" style="stop-color:#3E3E3E"/>
</linearGradient>
<g>
	<path class="st0" d="M85.6,33.1c-2.5-0.1-4.4,0.4-5.6,0.7l-0.2,0.1c-1.5,0.4-3.1,0.7-4.3,1l-1.2,0.3c-0.6,0.2-1.2,0.3-2,0.5
		l-0.8,0.2l-4.9,1.4c-2.2-7.1-7.2-12.1-10-14.6l-0.4-0.3c-1.1-1.1-3.1-2.8-6.1-3.9c-2.2-0.9-4.6-1.4-7.3-1.7l-0.7-3.1
		c0.8-2.4,1-6-2.3-9.8c-3.3-3.8-8.6-4.4-13.3-1.5c-0.3,0.2-0.6,0.5-1.1,0.8l-0.5,0.5l-0.5,0.7c-0.8,0.9-2.7,3.5-2.4,7
		c0.1,2.3,0.9,4.3,2.4,6l0.1,0.5c0.1,0.7,0.1,0.9,0.2,1.2c0.2,0.5,0.2,1.1,0.4,1.6c-0.7,0.3-1.7,0.7-2.6,1.3
		c-1.8,1.2-3.3,2.3-4.7,3.4c-2.9,2.5-5.1,5.2-6.6,8.4c-0.9,1.9-1.7,4.2-2.1,6.5c-1.2,0.4-2.5,1.1-3.6,2.1C5,42.5,4.6,43,4.2,43.4
		c-0.9,0.9-2.8,3.3-3.3,7.1l0,0.1c-0.3,3.3,0.7,6.6,3,9c0.1,1.9,0.5,3.7,1.4,5.4c1.9,3.8,5.8,6.3,10.1,6.8c2.7,0.3,5-0.3,6.6-0.8
		c1.7,0.9,3.6,1.7,5.7,2.2c0.3,0.9,0.8,1.9,1.2,2.8l0.5,1c0.4,0.6,0.7,1.4,1.2,2.2c0.3,0.4,0.6,0.9,0.9,1.3c0,0.2,0.1,0.4,0.1,0.5
		c0.5,4.3,2.8,7.8,3.7,9.2c5.7,7.9,16,10.3,24.2,5.5c1.5-0.9,2.7-1.7,3.8-2.6c1.3-1.1,2.4-2.2,3.2-3.6c1.1-0.3,2.2-0.7,3.3-1.1
		l1-0.3c1-0.3,2-0.7,3-1c3.3,1.3,7,1.8,10.5,1c3.2-0.6,6.4-2.2,9.1-4.6c1.8-1.6,3.4-3.5,4.4-5.4c2.5-4.6,2.6-10.3,0.5-15.3
		c0-0.2,0-0.3,0.1-0.5c0.1-0.3,0.1-0.5,0.3-0.8l0-0.2l0.5-2.2l0-0.2c0-0.5,0.2-1.1,0.2-1.6c0-0.2,0-0.4,0-0.6c0.5-2.9,0.5-6,0.1-9.3
		C98.6,44.2,96.4,33.6,85.6,33.1z"/>
	<g>
		<g>
			<path class="st1" d="M29.7,8.2c-0.4,0.7-1.1,1.4-1.1,2.4c0.1,1.5,0.9,2,1,2.2c0,0,0.6,0.5,0.6,0.4l0.2,0.8L31,16
				c0,0,0.2,0.6,0.1,0.7c0.6,2,0.9,4.3,1.5,6.3c0.4,1.3,1.1,3.8,2.8,4c3.9,0.5,1.6-4.4,0.9-5.9c0,0-0.4-2.2-0.4-2.3L35,15.2
				c0,0-0.5-2.2-0.5-2.3l-0.1-0.3l0.6-0.8c0.8-1.5,0-2.7-0.7-3.6C33.2,7,31.7,6.8,29.7,8.2C29.7,8.1,29.7,8.2,29.7,8.2z"/>
			<path class="st2" d="M85.3,40.1c-1.4-0.1-2.5,0.2-3.3,0.5l-0.4,0.1c-1.4,0.3-2.8,0.6-4.3,1L76,41.9c-0.8,0.2-1.7,0.4-3,0.7
				l-4.7,1.3c0,0-5.6,1.4-5.7,1.5l-2.3,0.7c0.1-1.7,0.1-3.3-0.1-5C59,34.7,54.4,30,51.8,27.8l-0.4-0.3c-0.9-0.9-2.2-2-4-2.7
				c-2.2-0.9-4.7-1.3-7.8-1.5c-1.4-0.1-2.6,0.3-3.6,0.5l-0.4,0.1c-1.6,0.4-3.5,1-5.7,1.7c-0.4,0.2-0.7,0.3-1.1,0.6
				c-0.2,0.1-0.4,0.2-0.6,0.3c-0.6,0.3-1.3,0.5-2.1,1c-1.6,1-2.8,2-3.9,2.9c-2.1,1.9-3.8,3.8-4.9,6.1c-1.1,2.1-1.6,4.7-1.7,7.2
				c0,0.6,0,1.1,0.2,1.7c0,0.1,0,0.2,0.1,0.2l-0.1,0.9c0,1.4,0.2,2.7,0.4,4c0.4,2,1.1,4.3,2.1,6.2c0.8,1.7,1.7,3.5,3.2,5.1
				c2.9,3,7,4.7,11.6,5.1c0.1,0.4,0,0.8,0.1,1.3c0.4,1.3,1,3,1.8,4.5l0.3,0.7c0.4,0.6,0.7,1.4,1.1,1.9c1.1,1.8,3,2.8,5,2.9
				s3.9-1.4,5-2.7c0.3-0.3,0.7-0.5,1-0.7l0,0c0.8-0.6,2.9-0.7,4.8-0.2c0.2,0.1,0.5,0.2,0.7,0.4l1.3,0.7c0.5,0.4,0.8,1,0.9,0.9l0,0
				l0.9,2.7c1.1,3,4.4,4.6,7.5,3.6c1.3-0.5,2.8-0.9,4.1-1.3l0.4-0.2c1.2-0.4,2.6-0.8,3.8-1.2c0.3-0.1,0.9-0.4,1.3-0.6l0.4-0.3
				c0.2-0.2,0.5-0.4,0.7-0.5c2-1.7,2.6-4.4,1.5-6.8c-1-2.3-0.8-2.8-0.5-3.4c0.1-0.3,0.2-0.6,0.2-0.7c0.2-0.4,0.4-0.7,0.6-1.1
				c0.6-1.1,0.7-1.1,1.8-1.6c0.5-0.3,1.2-0.5,1.3-0.6c0.2,0,0.5,0,0.7,0l0.5,0c0.6,0,1.2,0.2,1.6,0.2c1.2,0.8,2.8,1.1,4.3,0.9
				c0.8-0.1,1.7-0.5,2.4-0.9l0.5-0.4c1.1-0.9,1.8-2.1,1.9-3.3l0-0.4c0.1-0.3,0.1-0.6,0.3-0.9l0.3-1.8c0-0.4,0.2-0.9,0.2-1.3
				c0-0.4,0.1-0.8,0.2-1.1c0.6-2.9,0.3-5.5,0-7.1C91.5,43.2,89.2,40.3,85.3,40.1z"/>
			<path class="st0" d="M85.1,44c-0.8-0.1-1.5,0.2-2.1,0.3l-0.5,0.2c-1.5,0.3-2.9,0.7-4.2,1l-1.2,0.3c-0.9,0.2-1.8,0.5-2.7,0.6
				l-4.8,1.3c-0.1,0-5.4,1.4-5.7,1.5l-3.3,1.1c-0.2,0.1-0.4,0.1-0.7,0.1c-0.1,0.4-0.2,1-0.3,1.4l-0.3,0.9c0,0.1-0.1,0.4-0.1,0.7
				C59,53.5,59,53.8,58.8,54c-0.9,1.9-2.5,3.8-4.2,5.5c-0.2,0.2-0.4,0.4-0.6,0.6l-1.2,1c-0.3,0.3-0.4,0.4-0.4,0.5
				c-0.2,0.3-0.4,0.5-0.6,0.7c-0.2,0.2-0.4,0.4-0.7,0.4c-0.2,0.1-0.4,0.3-0.6,0.4c-0.2,0.1-0.5,0.3-0.8,0.4c0,0-1.1,0.5-1.4,0.7
				c-0.1,0.1-0.4,0.2-0.5,0.3c-0.3,0.1-0.5,0.3-0.7,0.3c-0.4,0.3-0.9,0.4-1.3,0.6c-0.6,0.3-1.2,0.4-1.8,0.5c-0.1,0-0.3,0.1-0.4,0.1
				c-0.3,0.1-0.7,0.1-1,0.3c-0.8,0.2-1.5,0.5-2.4,0.6c-1,0.1-1.9,0.2-2.8,0.2l0,0.1c0.4,1.3,0.9,2.7,1.5,3.9l0.4,0.6
				c0.4,0.6,0.6,1.1,0.9,1.7c0.4,0.6,1,1,1.7,1c0.7-0.1,1.3-0.3,1.7-0.9l0.1-0.3l0.2-0.2c0.2-0.2,0.3-0.3,0.5-0.5
				c0.4-0.3,0.6-0.5,0.8-0.6c2.8-2.3,7.2-1.2,8.5-0.9c0.4,0.1,0.9,0.4,1.5,0.8l1.4,0.9c1,0.9,1.7,1.7,2.1,2.4l1.1,3
				c0.3,1,1.5,1.6,2.6,1.3c1.4-0.5,2.8-0.9,4.2-1.4c1.7-0.6,3-0.9,4.2-1.4c0.2-0.1,0.4-0.2,0.6-0.3L72,76c0.6-0.6,0.9-1.5,0.6-2.4
				c-1.3-2.9-1.5-4.5-0.5-6.7c0.1-0.2,0.1-0.4,0.2-0.6l0.2-0.6c0.2-0.3,0.3-0.6,0.5-0.9c0.3-0.7,0.7-1.4,1.3-1.9l0,0
				c0.5-0.5,1.3-0.9,2.2-1.3c1-0.4,1.9-0.9,2.7-0.9c0.4-0.1,0.8,0,1.5,0.1l0.5,0c0.7,0,1.4,0.2,2,0.2l1.2,0.6c0.5,0.3,1,0.4,1.5,0.3
				c0.3-0.1,0.7-0.2,0.9-0.3c0.3-0.4,0.8-0.8,0.9-1.3l0.2-0.8c0.1-0.2,0.1-0.4,0.2-0.6l0.2-0.8l0.1-0.6c0-0.4,0.1-0.8,0.2-1.2
				c0-0.5,0.1-1,0.2-1.4c0.5-2.3,0.2-4.4-0.1-5.9C87.9,45.6,86.9,44,85.1,44z"/>
			<path class="st3" d="M48.5,68c-1.2,0.1-2.4,0.4-3.5,1c-0.9,0.4-1.9,1-2.7,1.7c-2.9,2.5-4.5,6.2-4,9.5c0.3,2.8,1.9,5.3,2.4,6
				c3.6,5,10,6.4,15,3.6c1.1-0.6,2-1.3,2.7-1.9c1.1-0.9,2-2.1,2.5-3.1c1.2-2.3,1.5-5.2,0.6-8C59.9,71.2,54.3,67.5,48.5,68z"/>
			<path class="st3" d="M82.8,58.8c-1.1-0.3-3.1-0.8-5.3-0.4c-0.8,0.1-1.4,0.3-1.8,0.6c-1,0.4-2,1-2.8,1.8c-0.4,0.4-0.9,0.7-1.2,1.1
				c-1.2,1.2-2.1,2.8-2.6,4.5c-1.5,4.8,1.2,9.8,4.7,12.7c2.5,2,5.9,2.8,9.1,2.1c2-0.4,4.1-1.4,5.9-3c1.2-1,2.2-2.3,2.8-3.4
				c1.7-3.2,1.4-7.5-0.6-10.9C88.5,60.9,85.3,59.6,82.8,58.8z"/>
			<path class="st0" d="M53.5,83.2c-0.5,0.5-1.2,0.8-2,1.1C49,85,46.6,84,45.3,82c-1.1-2.2-0.7-4.8,1.2-6.4c0.6-0.6,1.2-0.8,1.9-1.1
				c2.2-0.6,4.4,0.2,5.7,2C55.7,78.8,55.5,81.6,53.5,83.2L53.5,83.2z"/>
			<path class="st0" d="M83.7,73.7c-0.5,0.5-1.1,0.7-1.7,1c-2.4,0.8-5-0.1-6.3-2.1c-1.3-2.1-0.8-4.7,1-6.1c0.3-0.3,0.6-0.5,0.9-0.6
				c0.3-0.2,0.9-0.4,1.6-0.6c2.1-0.4,4.5,0.7,5.5,2.8C85.9,69.9,85.4,72.3,83.7,73.7L83.7,73.7z"/>
		</g>
		<g>
			<path class="st1" d="M11.1,57.9L11.1,57.9L11.1,57.9z"/>
		</g>
		<path class="st4" d="M19.7,56.3c-0.3,0.3-0.6,0.5-1,0.6c-2,0.8-6.2,0.8-8.6-1c-1.5-1.1-2.3-2.9-2.2-4.7C8,49.5,9,48.4,9.5,47.8
			c0.1-0.2,0.3-0.4,0.5-0.6c0.9-0.7,2.1-1.2,3.3-1l2,0.3c0.2,0,0.5,0.1,0.7,0.1c0,0,0.8,0.3,1,0.4c0.6,0.1,1.6,0.4,2.4,1.3
			c1.1,1.1,1.3,2.3,1.5,2.7c0.2,0.8,0.7,2.5-0.2,4.1C20.3,55.6,20,56,19.7,56.3z"/>
		<path class="st4" d="M22.8,62.8c-0.2,0.2-0.5,0.4-0.8,0.5l-0.7,0.3c-0.2,0.1-0.3,0.2-0.5,0.3l-0.4,0.2c-1.1,0.4-2.8,0.9-4.5,0.8
			c-2-0.2-3.7-1.4-4.6-3c-0.8-1.6-0.7-3.6,0.2-5.1c0.5-0.9,1.1-1.3,1.4-1.7c0.1-0.1,0.2-0.3,0.4-0.4c0.4-0.4,0.8-0.5,1.4-0.7l2.9-1
			c2.1-0.7,4.3,0.4,4.9,2.5c0.1,0.2,0.3,0.4,0.4,0.8c0.3,0.5,0.7,1.2,1,2c0.3,0.8,0.5,1.7,0.2,2.6C23.8,61.6,23.4,62.2,22.8,62.8z"
			/>
		<path class="st0" d="M56.5,47.5c0.2-2,0.4-3.8,0-5.5c-1-5.2-5-9.3-7.1-11.2l-0.5-0.4c-0.8-0.8-1.7-1.5-2.9-2
			c-1.9-0.7-3.8-1.1-6.5-1.2c-0.9-0.1-1.7,0.2-2.5,0.4l0,0l-0.4,0.1c-1.5,0.4-3.3,0.9-5.4,1.6l-0.2,0.2l-0.2,0.1
			c-0.3,0.2-0.6,0.4-1,0.4c-0.5,0.3-1,0.4-1.5,0.7c-1.5,1-2.5,1.8-3.5,2.6c-1.8,1.6-3.1,3.2-4,4.9c-0.8,1.5-1.3,3.5-1.3,5.5
			c0,0.4,0.1,0.7,0.1,1l0.1,0.4l0.1,0.7l-0.1,0.9c-0.1,1,0.2,2,0.4,3.1c0.3,1.6,0.9,3.6,1.7,5.1c0.7,1.5,1.5,3,2.6,4.2
			c3.3,3.5,8.7,4.8,14.8,3.8c0.6-0.2,1.2-0.3,1.9-0.5c0.5-0.2,0.8-0.2,1.2-0.3l0.1,0l0.5-0.1c0.5-0.1,0.9-0.1,1.3-0.3
			c0.4-0.2,0.7-0.2,1-0.4c0.4-0.2,0.8-0.3,1.2-0.5l1.4-0.7c0.3-0.2,0.5-0.3,0.6-0.4l0.7-0.3c0.3-0.4,0.7-0.8,1.1-1.1l1.3-1l0.3-0.4
			c1.4-1.4,2.6-3,3.4-4.6l0.1-0.4l0.4-1.2C56.1,49.6,56.3,48.5,56.5,47.5z"/>
		<path class="st5" d="M41.1,51.4c1,2.9-0.6,6-3.4,6.9c-2.9,1-6-0.6-6.9-3.4c-1-2.9,0.6-6,3.4-6.9C37.1,47,40.1,48.5,41.1,51.4z"/>
		<path class="st1" d="M30.3,45c5.2-1.7,7.3,6.1,1.8,7.3c-1.7,0.4-3.5-1.3-4-2.9c-0.2-0.9-0.1-1.9,0.3-2.7
			C28.8,46,29.6,45.5,30.3,45z"/>
	</g>
</g>
</svg>
