<?xml version="1.0" encoding="utf-8"?>
<!-- Generator: Adobe Illustrator 26.2.1, SVG Export Plug-In . SVG Version: 6.00 Build 0)  -->
<svg version="1.1" id="レイヤー_1" xmlns="http://www.w3.org/2000/svg" xmlns:xlink="http://www.w3.org/1999/xlink" x="0px"
	 y="0px" viewBox="0 0 22.7999992 22.7999992" style="enable-background:new 0 0 22.7999992 22.7999992;" xml:space="preserve">
<style type="text/css">
	.st0{fill:#F29600;}
	.st1{fill:#6CBB63;}
	.st2{fill:#E6F0CE;}
	.st3{fill:#FFF697;}
</style>
<g>
	<path class="st0" d="M10.2527018,3.3824461c5.5091372-0.5433185,9.7279501,1.9216187,11.1437159,5.8319016
		c1.4151821,3.9079943,0.7062416,10.6332779-9.4050779,11.7702618c-10.0458956,1.1296959-11.4159613-5.8028278-11.09904-9.5402832
		C1.2206641,7.5843921,5.1555281,3.8863506,10.2527018,3.3824461z"/>
	<path class="st1" d="M9.5226612,3.5721414c0.1519766-0.3979533,0.9244165-0.9853477,1.2290478-1.1429186
		c0.302597-0.158927,0.5492392,0.073488,0.656559,0.1906278c0.1073074,0.1169703,0.3059034,0.5579822,0.3542042,0.7374213
		c0.3884726-0.100018,1.0542583-0.1963067,1.4780636-0.100018c0.4234791,0.0963733,0.3218384,0.3053095,0.2228374,0.545692
		c-0.09865,0.2400434-0.7641211,0.8111637-1.0151711,0.9125378c0.1668816,0.1373129,0.4029541,0.6581697,0.4410114,1.0459518
		c0.0126295,0.1359568,0.0133076,0.2896285-0.5396738,0.2830172c-0.5518789-0.0069504-1.1448679-0.2546225-1.4435654-0.3327723
		c-0.3204947,0.1702003-1.0197611,0.545692-1.3313427,0.652915c-0.311594,0.1073074-0.6916504,0.1457043-0.7575102-0.2164803
		c-0.0669613-0.3626075-0.1135798-0.8327775-0.092474-1.2336974c-0.7495422-0.1396861-1.0922313-0.1989341-1.082314-0.3989701
		C7.6536064,4.3138008,8.6369076,3.6844497,9.5226612,3.5721414z"/>
	<path class="st2" d="M9.4732571,4.5230761c0.0040569-0.2287703,0.3156385-0.5436578,1.0811281-0.6353693
		c0.7641211-0.0944238,1.1713982,0.2039351,1.1972504,0.4635582c0.0250702,0.2598777-0.2271595,0.6985164-1.1145239,0.7889562
		C9.7504263,5.2309155,9.466053,4.9359469,9.4732571,4.5230761z"/>
	<path class="st1" d="M11.7251053,3.4132142c0.2403822-0.4492338,1.4578056-1.3727057,2.8761978-1.6074091
		c1.4191551-0.2344491,2.0031586-0.0562813,2.1373348,0.0962887c0.1334152,0.1525699-0.2655563,1.7041215-1.5022326,2.3455086
		c-1.2366514,0.6436758-2.570961,0.5393348-2.8629627,0.4492335"/>
	<g>
		<path class="st3" d="M18.8156242,8.8309736c0.0288067,0.3053093-0.1937771,0.5771379-0.4993286,0.6082449
			c-0.3049698,0.0294123-0.5778275-0.1940184-0.6066341-0.4986496c-0.0307674-0.3053093,0.1917286-0.5777311,0.4983826-0.6079063
			C18.5119247,8.3022337,18.7851105,8.5256634,18.8156242,8.8309736z"/>
		<path class="st3" d="M18.6911106,13.9004488c0.0304279,0.3052244-0.1927471,0.5773926-0.4979725,0.6072283
			c-0.3059998,0.0297508-0.5777302-0.1927471-0.6075668-0.4979715c-0.0301743-0.3056479,0.1933403-0.5780706,0.4983101-0.6079063
			C18.3891068,13.3729801,18.661274,13.5958176,18.6911106,13.9004488z"/>
		<path class="st3" d="M15.8876371,11.1235065c0.0311918,0.3056479-0.1923351,0.5770531-0.497632,0.6065502
			c-0.3052254,0.0304289-0.5767994-0.1919842-0.6065502-0.497633c-0.0314589-0.3059874,0.1924076-0.5773926,0.497632-0.6079063
			C15.5860577,10.5947666,15.8578863,10.8176031,15.8876371,11.1235065z"/>
		<path class="st3" d="M14.2093554,17.3964195c0.0304413,0.3066654-0.1940184,0.5774765-0.4986372,0.6069736
			c-0.3052244,0.0307693-0.5774775-0.1913891-0.6072283-0.496954c-0.0301752-0.3053093,0.1930008-0.5774765,0.4979715-0.6079063
			C13.9063473,16.8683586,14.1791925,17.09128,14.2093554,17.3964195z"/>
		<path class="st3" d="M4.444891,11.3006573c0.0298238,0.305563-0.1923351,0.5771379-0.4983103,0.6068888
			c-0.3048856,0.0304289-0.5777316-0.1924076-0.6078217-0.4972935c-0.0298359-0.3059025,0.1936791-0.5780706,0.4989038-0.6082449
			C4.142972,10.772171,4.4144616,10.9950085,4.444891,11.3006573z"/>
		<path class="st3" d="M3.8721483,14.8062906c0.0297632,0.3049698-0.1937518,0.5764599-0.4986556,0.6068888
			c-0.3058846,0.0291586-0.5773864-0.1930008-0.6068833-0.4982252c-0.030514-0.3053093,0.1919961-0.5781555,0.4976444-0.6082458
			C3.5691273,14.2761946,3.8419855,14.4993706,3.8721483,14.8062906z"/>
	</g>
</g>
</svg>
