<?xml version="1.0" encoding="utf-8"?>
<!-- Generator: Adobe Illustrator 26.2.1, SVG Export Plug-In . SVG Version: 6.00 Build 0)  -->
<svg version="1.1" id="レイヤー_1" xmlns="http://www.w3.org/2000/svg" xmlns:xlink="http://www.w3.org/1999/xlink" x="0px"
	 y="0px" viewBox="0 0 22.7999992 22.7999992" style="enable-background:new 0 0 22.7999992 22.7999992;" xml:space="preserve">
<style type="text/css">
	.st0{fill:#8BC461;}
	.st1{fill:none;stroke:#FDDE8E;stroke-width:1.3944373;stroke-linecap:round;stroke-linejoin:round;}
</style>
<g>
	<path class="st0" d="M21.8049507,5.064208c-0.4065037-0.0414438-2.3620739-0.6346283-3.600853-1.5854805
		c-1.2396297-0.9508522-1.6014175-2.428057-1.5671215-3.1647811c0.0523491-0.5094478-1.8878298-0.4422526-1.9049768,0.5236866
		c-0.013936,0.7949519,0.8579664,2.3357773,1.8878279,3.4354405c-0.6635904,0.4151077-1.9650812,1.5582752-2.4479303,2.389945
		c-0.5505276,0.9511552-0.0171471,1.5623956,0.1754713,1.6848502c0.1937695,0.1230593,1.6745491-0.6709833,1.8221493-0.9020162
		c0.4174709-0.8816576,1.0307713-1.8065162,1.8748627-2.0109496c1.3295441,0.8378501,3.1105518,1.536099,3.6312695,1.2825265
		C22.3034916,6.4118094,22.2123623,5.1061978,21.8049507,5.064208z"/>
	<path class="st0" d="M15.7345963,6.123033c4.0097198,2.9612565,5.4055519,8.9419365,1.1446819,14.0823421
		c-3.4954863,4.217123-9.1161346,2.60886-12.6788158,0.0032711c-3.5632262-2.6046791-5.1348314-7.8075533-1.3156695-12.4282112
		C6.5294528,3.3728149,11.7678347,3.1932235,15.7345963,6.123033z"/>
	<g>
		<path class="st1" d="M4.5258956,8.2632837c2.5109448,0.4313459,10.2016201,2.1694555,13.224678,3.1200647"/>
		<path class="st1" d="M2.5744293,12.3809767c2.9263122,0.6958256,12.9042912,2.8321981,14.9628038,3.3629742"/>
		<path class="st1" d="M2.7475541,16.257822c2.0002248,0.6242676,12.0018959,2.9955502,12.8229017,3.1286678"/>
		<path class="st1" d="M11.7964935,5.8884254C11.3459406,8.7620678,9.0945053,17.82761,8.4915056,20.7293644"/>
		<path class="st1" d="M15.6100817,8.3026075c-0.1967382,2.1417046-2.3946714,10.755784-2.8555861,12.5998049"/>
		<path class="st1" d="M7.4607949,6.5588632c-0.976058,2.5532374-2.88164,10.8930225-3.1121278,12.1722775"/>
	</g>
</g>
</svg>
