<?xml version="1.0" encoding="utf-8"?>
<!-- Generator: Adobe Illustrator 26.2.1, SVG Export Plug-In . SVG Version: 6.00 Build 0)  -->
<svg version="1.1" id="レイヤー_1" xmlns="http://www.w3.org/2000/svg" xmlns:xlink="http://www.w3.org/1999/xlink" x="0px"
	 y="0px" viewBox="0 0 263.1753845 240.3571472" style="enable-background:new 0 0 263.1753845 240.3571472;" xml:space="preserve">
<style type="text/css">
	.st0{display:none;}
	.st1{display:inline;fill:#231815;}
	.st2{font-family:'DFMaruGothicStd-W9-90ms-RKSJ-H';}
	.st3{font-size:15.3000002px;}
	.st4{fill:#00A6D8;}
	.st5{fill:#FFFFFF;}
	.st6{fill-rule:evenodd;clip-rule:evenodd;fill:#4C3733;}
	.st7{fill-rule:evenodd;clip-rule:evenodd;fill:#FFDF00;}
	.st8{fill-rule:evenodd;clip-rule:evenodd;fill:#7DCCF3;}
	.st9{fill-rule:evenodd;clip-rule:evenodd;fill:#FFFFFF;}
	.st10{fill-rule:evenodd;clip-rule:evenodd;fill:#C68212;}
	.st11{fill-rule:evenodd;clip-rule:evenodd;fill:#E50012;}
	.st12{fill-rule:evenodd;clip-rule:evenodd;fill:#FCCF00;}
	.st13{fill:#231815;}
</style>
<text transform="matrix(1 0 0 1 70.3874817 219.549408)" class="st0"><tspan x="0" y="0" class="st1 st2 st3">洗濯もだいじです</tspan><tspan x="7.6503906" y="18.3598633" class="st1 st2 st3">水もだいじです</tspan></text>
<g>
	<path class="st4" d="M259.8426208,47.2642403v0.0019531c-7.3330078-19.4609375-27.6835938-29.5761719-47.3222656-23.5175781
		c-12.0371094,3.7050781-21.0175781,12.0908203-25.3623047,23.4394531
		c-16.6054688-7.9443359-35.5722656-11.9658203-56.484375-11.9658203c-19.7402344,0-38.5,4.1132812-54.6630859,11.9414062
		c-4.3476562-11.3369141-13.323246-19.7119141-25.3535194-23.4150391
		c-19.6415997-6.0546875-39.9912109,4.0566406-47.3222656,23.515625C-0.3302335,56.9781075,0.3445712,68.022049,5.186368,77.5650177
		C9.8299227,86.718338,17.835783,93.6753693,27.9842205,97.468338c-4.0097656,10.1054688-6.0205078,20.6787109-5.9863281,31.5117188
		c0.0986328,28.765625,11.0898418,47.59375,33.6025391,57.5615234c20.5195312,9.0859375,48.5771484,9.8457031,75.5556641,9.8457031
		c39.9482422,0,64.0878906-3.6953125,80.7148438-12.3564453c19.9853516-10.4101562,29.2939453-28.0791016,29.2939453-55.6054688
		c0-10.703125-1.9580078-21.109375-5.828125-31.0107422c10.0771484-3.8037109,18.0283203-10.7363281,22.6513672-19.8476562
		C262.8299255,68.0240021,263.5057068,56.979084,259.8426208,47.2642403z"/>
	<path class="st5" d="M255.1637268,49.02845c-6.3799896-16.9302406-23.8924255-25.8259506-41.1729584-20.5018921
		c-13.5501251,4.1722336-21.2711334,14.4458313-23.7730255,25.8483772
		c-16.1901703-8.8822517-36.254303-14.1529388-59.5437164-14.1529388c-22.3005905,0-41.809433,5.2814522-57.7124557,14.1637039
		C70.463623,42.9800148,62.7412682,32.7001381,49.1857719,28.5265579
		C31.903883,23.2024994,14.3927946,32.0982094,8.0124454,49.02845
		c-6.3893204,16.9378662,2.5324039,38.5915833,25.3047581,44.9199066c0.4983177,0.1381454,1.0074005,0.2314377,1.5187263,0.3041
		c-5.1495819,10.834259-7.8762016,22.6238937-7.8376274,34.7108917
		c0.1978016,58.1179352,46.7521553,62.4242706,104.1582489,62.4242706c69.0688019,0,105.008667-10.4557037,105.008667-62.9624939
		c0-11.9291306-2.631073-23.5308228-7.6362305-34.1950912c0.4462891-0.0717697,0.8903351-0.1605759,1.3286285-0.2816772
		C252.6312408,87.6200333,261.552063,65.9663162,255.1637268,49.02845z"/>
	<g>
		<g>
			<path class="st6" d="M180.1791687,134.9842072c-0.0387573-1.0590668-0.214859-2.1011047-0.6016235-3.0958252
				c-0.1847992-0.4791718-0.4834442-0.8637238-0.8937531-1.1666718c-0.5488892-0.3995209-1.1676483-0.6465759-1.8132324-0.8270874
				c-1.3245087-0.3781738-2.6855469-0.5112762-4.0519562-0.5500031c-1.1988983-0.0365143-2.3955841-0.006485-3.5932465-0.0150604
				c-0.4179077-0.0020905-0.8358002-0.05159-1.2514954-0.0773315c-0.3040314-0.0171661-0.4898071-0.1890869-0.5865173-0.4555206
				c-0.1547699-0.4253693-0.3029327-0.8485336-0.4404449-1.2783051c-0.2578278-0.7948608-0.4931183-1.5984039-0.755249-2.3932648
				c-0.2942505-0.8830795-0.6090698-1.7596741-0.9141083-2.6404419c-0.3985291-1.1580811-0.7766876-2.3225403-1.2020721-3.4740219
				c-0.4458008-1.2074661-0.9442444-2.3955765-1.4039154-3.5986481c-0.4082336-1.0699692-0.7895966-2.1528091-1.201004-3.2226715
				c-0.1461792-0.3824692-0.2492523-0.7584457-0.1901855-1.1859055c0.1794128-0.0580826,0.3599243-0.1009827,0.5317383-0.1697311
				c0.484436-0.2041626,1.0075989-0.3502426,1.4437561-0.6338196c1.2074738-0.7927704,2.3976746-1.6134796,3.5578308-2.4750061
				c0.8872681-0.6574707,1.7090759-1.4158096,2.3386078-2.3289185c1.1697693-1.6950989,2.1022034-3.5170288,2.6941223-5.5020905
				c0.5069885-1.7037888,0.8067322-3.4417877,0.8991394-5.2186203c0.0933838-1.7616501,0.0214539-3.5105362-0.2943573-5.2507401
				c-0.1955872-1.0677643-0.4082184-2.1312485-0.6144409-3.1990204c-0.1537018-0.7906799-0.2793121-1.5941162-0.479187-2.3740158
				c-0.3823547-1.4931412-0.9216919-2.9283142-1.6413116-4.2969284c-0.0687408-0.131012-0.1203308-0.2707138-0.1697083-0.3823624
				c0.6165314-0.3674011,1.1955719-0.6960831,1.7595367-1.0485229c1.3556671-0.8464508,2.3675385-2.0495148,3.3644714-3.2634811
				c0.0493774-0.0579681,0.0816193-0.1330948,0.120224-0.1997604c1.3675232-2.3439865,1.8401947-4.8769531,1.4427643-7.5410461
				c-0.4866486-3.2655716-2.0851593-5.91679-4.678299-7.9577293c-1.5596924-1.2225418-3.3257446-1.9980392-5.3183899-2.1613922
				c-0.9131165-0.0751266-1.8316193-0.0665474-2.7490082-0.0773277c-0.244873-0.0020905-0.4919281,0.0408096-0.7337036,0.0859108
				c-0.4263611,0.0752373-0.8496399,0.1676369-1.2749939,0.2578392c-0.5006256,0.1052704-1.0163116,0.1654396-1.4932709,0.3308792
				c-2.8767242,1.0054016-5.1121368,2.77145-6.4882355,5.5386086c-0.1847992,0.3716927-0.3802795,0.741291-0.5703583,1.1129799
				c-0.1428833-0.0322266-0.2481232-0.0601654-0.3513336-0.0860214c-1.3621368-0.378067-2.7112885-0.7991486-4.0862885-1.1192474
				c-1.2374878-0.2922707-2.5008392-0.4855385-3.7532959-0.7025681c-1.1022034-0.1890907-2.2064972-0.3566208-3.3344116-0.3459511
				c-0.8851929,0.0085793-1.7746582,0.0172691-2.657608-0.0644608c-1.080658-0.0966911-2.1441345,0.0472984-3.2033234,0.1633492
				c-1.2762299,0.1395912-2.5523376,0.3050308-3.8339386,0.4145927c-0.2297974,0.0172691-0.4542999,0.0838165-0.6821136,0.1332092
				c-0.2256165,0.0450974-0.4511108,0.1031799-0.6789246,0.1482811c-0.1965637,0.0386086-0.4016876,0.05159-0.5928955,0.107357
				c-1.6693573,0.4877396-3.3558807,0.9131126-4.9607773,1.5963173c-0.1954727,0.0816269-0.3942184,0.1568604-0.6144638,0.2449722
				c-0.1009521-0.2664185-0.1933594-0.5113907-0.285759-0.754158c-0.2148514-0.5693588-0.4575958-1.1214485-0.8325043-1.6069908
				c-0.8238983-1.0613899-1.7949753-1.98946-2.8058777-2.8595581c-0.6841965-0.5887222-1.6080856-0.7927704-2.4319916-1.1515923
				c-0.1428833-0.0622597-0.2911682-0.1074677-0.4361267-0.1632385c-0.9399719-0.34375-1.9035721-0.5672722-2.91436-0.5585823
				c-0.5242386,0.0085831-1.0549011-0.0064888-1.5769348,0.0471916c-0.8464737,0.0859108-1.702713,0.1311188-2.5115433,0.4426384
				c-0.2599335,0.1009827-0.5252533,0.1911812-0.7970657,0.2642212c-1.3276978,0.3415489-2.5158081,1.0161819-3.6286774,1.7638512
				c-1.6156769,1.0806389-2.8123703,2.5845604-3.5749969,4.3871307c-0.8529205,2.0194855-1.2203217,4.1292877-1.0549011,6.3272018
				c0.1675262,2.227829,0.888382,4.2409363,2.2558823,6.0177689c0.8378677,1.0913086,1.8325958,1.9807663,3.1151962,2.5243912
				c0.5951004,0.2491455,1.1881104,0.5069885,1.7832108,0.7648239c-0.4007034,1.1902008-0.8229065,2.40625-1.2160492,3.6308823
				c-0.4618912,1.435173-0.88517,2.8938828-0.9474335,4.4063797c-0.085907,2.1269608-0.0719376,4.2582092-0.0998764,6.3873672
				c-0.0021973,0.1095657,0.0203476,0.2169266,0.0279388,0.3243942c0.0751266,1.1042862,0.2953491,2.1871262,0.5338287,3.2634811
				c0.1879883,0.8486481,0.3631134,1.7015915,0.6101685,2.5308762c0.3286819,1.1085815,0.9367599,2.0925293,1.4631119,3.1152039
				c0.4124985,0.8013458,0.9539185,1.4888458,1.6006088,2.1033096c0.5520935,0.5242615,1.1149597,1.0398254,1.6735458,1.5555115
				c1.8970566,1.7552643,4.0927658,3.0185089,6.4980469,3.9316177c0.2717056,0.1009827,0.5423889,0.2062531,0.8131027,0.3072281
				c-0.7218018,0.4404449-1.4437561,0.7691193-2.2150726,0.9539185c-1.8132401,0.4382401-3.6480408,0.7519608-5.5214233,0.8013535
				c-0.948555,0.0279388-1.8927994,0.0579681-2.8273544,0.257843c-1.9851456,0.4167862-3.4235306,1.4866486-4.1389465,3.4289169
				c-0.1106873,0.3072281-0.2051773,0.6187515-0.3029633,0.9302673c-0.0482941,0.1632385-0.0838242,0.3286819-0.1364059,0.5306396
				c-0.5123749,0.0665512-1.0215683,0.1052704-1.52108,0.1997604c-0.9142075,0.1783142-1.8003693,0.4576035-2.6780548,0.7713242
				c-0.6025848,0.212738-1.1451035,0.5006104-1.5522156,0.986145c-0.3781738,0.4511108-0.7068558,0.9409409-1.0463181,1.4243927
				c-0.1697311,0.2405701-0.3275757,0.4920273-0.4618683,0.7519608c-0.1354294,0.257843-0.2749939,0.5242615-0.3437729,0.8056412
				c-0.2051239,0.8292847-0.3759766,1.6628647-0.5618744,2.4986496c-0.2394485,1.0612793-0.5080948,2.1204681-0.4876328,3.2161713
				c0.0139694,0.9302826,0.0611801,1.8648376,0.1643372,2.7887268c0.111763,1.0290527,0.0752411,2.0131073-0.4113998,2.9497528
				c-0.258934,0.4984131-0.4329605,1.0269623-0.5425186,1.5812531c-0.0386124,0.1976776-0.0944901,0.3910522-0.1600494,0.5822296
				c-0.2761002,0.8078461-0.5016861,1.6199799-0.6069794,2.4792938c-0.1846924,1.4953461-0.2394714,2.9648285,0.1397018,4.4387207
				c0.2696075,1.0484161,0.474762,2.1098022,0.7132416,3.1925354c-0.0859146-0.0343323-0.1826019-0.0687561-0.277092-0.1095581
				c-0.5102921-0.2148438-1.0355377-0.337265-1.5898285-0.2234192c-0.3770828,0.0708466-0.7455826,0.2105408-1.1258316,0.2556458
				c-0.6230621,0.0795288-1.1128922,0.3781738-1.5274811,0.8207092c-0.5844269,0.6273346-0.9711914,1.3578339-1.1247482,2.2107849
				c-0.020462,0.1138458-0.0676498,0.2276917-0.1170425,0.3888397c-0.8164215-0.2276917-1.4695969,0.1654358-2.1399384,0.4920349
				c-0.0965805,0.045105-0.1965714,0.0879974-0.2942505,0.1374969c-1.6639709,0.8335876-2.3117371,2.7585754-1.4899521,4.4278259
				c0.0246429,0.0538025,0.0419083,0.1139679,0.0751343,0.1998749c-0.1889801,0.1181335-0.383461,0.2170258-0.5520935,0.3480377
				c-0.2761002,0.2191162-0.6004868,0.4189911-0.7916718,0.7025757c-0.3824692,0.5692444-0.8035507,1.0827332-1.3041534,1.5576019
				c-0.9194946,0.8678894-1.3170319,2.0280609-1.4813766,3.2463074c-0.2094345,1.5576019,0.1536713,3.0228119,0.9485321,4.3806458
				c0.2750015,0.4683838,0.5457077,0.938858,0.8218079,1.4072266c0.4973373,0.8464508,0.5993958,1.7487793,0.4093323,2.69841
				c-0.2353058,1.1816254-0.3437729,2.3697357-0.1354294,3.5642242c0.3330765,1.9272003,1.1795273,3.5557556,2.7263489,4.7867584
				c0.7832031,0.6273346,1.6521988,1.1064911,2.5749893,1.4845581c1.7068939,0.7025757,3.4986649,1.0806427,5.3033218,1.4007416
				c1.3922729,0.2449799,2.7844315,0.4855499,4.1808777,0.698288c1.2730331,0.1911774,2.55233,0.3566132,3.83284,0.5134735
				c1.0474243,0.1267242,2.0990219,0.2299042,3.1496582,0.3394623c1.0515976,0.1052704,2.1010818,0.2707062,3.1548843,0.3007355
				c2.5491409,0.0709534,5.0993805,0.1052704,7.6496201,0.0966949c0.9431381-0.0020905,1.8905945-0.1289215,2.8273315-0.257843
				c0.9055176-0.1224213,1.8003693-0.3350525,2.7037964-0.4812469c1.1322327-0.1846924,2.2784271-0.285675,3.4009781-0.5133667
				c1.9604263-0.4018402,3.9090652-0.8680115,5.8598099-1.3192291c0.2556458-0.0579834,0.5091858-0.1481781,0.7433777-0.2599335
				c1.5382385-0.7433777,3.0723114-1.4931488,4.6008606-2.2493896c0.3191376-0.1589508,0.6263428-0.34375,0.9270782-0.5371399
				c1.0849609-0.6917877,2.0614014-1.4996185,2.7371674-2.6210785c0.0558472-0.092392,0.1352997-0.1697235,0.1933441-0.2621307
				c0.1761169-0.2878571,0.3694916-0.5714417,0.513382-0.8765869c0.1697235-0.3652039,0.2976532-0.7497559,0.4383698-1.1279297
				c0.3866272-1.0441284,0.6122284-2.1161804,0.5821991-3.2355499c-0.0107727-0.3737793,0.0042877-0.7476654,0.0139923-1.1214447
				c0.0020752-0.0987854,0.0311127-0.1976776,0.0504761-0.3072357c0.2760925,0.0493927,0.522049,0.09021,0.762619,0.1439972
				c1.2117615,0.2642212,2.40625,0.2191162,3.5922699-0.1439972c0.3845673-0.1181335,0.7798004-0.2083435,1.162262-0.3372498
				c0.2846832-0.0988922,0.5027008-0.0687561,0.707962,0.1654358c0.2738953,0.3158112,0.5897064,0.5971832,0.8518372,0.9237823
				c0.4339752,0.5349274,0.9237823,1.0012207,1.46521,1.4243774c0.5650635,0.4426422,1.1816101,0.7413025,1.8777008,0.8830872
				c2.1796722,0.4425354,4.2292786,0.0300293,6.1800079-0.9732819c0.646698-0.337265,1.1752472-0.8056335,1.5630035-1.4329681
				c0.1460724-0.2321014,0.3157959-0.4512177,0.4468079-0.6381073c0.3051453,0.0536804,0.5479126,0.1332092,0.7906799,0.1289215
				c1.2589569-0.0129852,2.5180206-0.0322266,3.7780609-0.0817413c1.1805267-0.0450897,2.259079-0.3888397,3.1431427-1.2224274
				c0.1106567-0.1030579,0.2545624-0.2019501,0.3985291-0.2298889c0.4372559-0.0751343,0.7089539-0.3609161,0.938858-0.7024689
				c0.3286743-0.4920349,0.6316071-1.0012207,0.9796753-1.4759827c0.8357544-1.1472931,1.5543823-2.3590546,2.2215424-3.6072235
				c0.300766-0.5628662,0.6466827-1.0957184,0.9582062-1.6522064c0.1578522-0.2835693,0.3093262-0.5736389,0.4253693-0.8743896
				c0.4102936-1.0699615,0.4769897-2.1806335,0.3221893-3.3042908c-0.0708313-0.5091858-0.1245117-1.020462-0.2319946-1.5189819
				c-0.1675262-0.77771,0.3200989-1.2589569,0.7197418-1.8648376c0.0881042,0.302948,0.1503601,0.5263519,0.2191162,0.7498779
				c0.3040314,1.0096893,1.2052612,1.3620148,2.0818634,0.7712097c0.3651886-0.2470551,0.6917877-0.5757446,0.983963-0.9130096
				c1.067749-1.2311096,1.5189667-2.7586823,1.9808655-4.2754669c0.0666504-0.2191315,0.0901947-0.4576111,0.1009827-0.6895905
				c0.0257568-0.5585785,0.0301514-1.1171722,0.0439911-1.677948c0.0441132-1.7402039,0.0871277-3.4825897,0.1289215-5.2207031
				c0.0075836-0.2642212-0.005249-0.5328369,0.0236511-0.7927704
				C180.2177429,138.2176666,180.2393036,136.5998993,180.1791687,134.9842072z M125.0072098,129.5508728
				c0.0623703,0.2835846,0.0536804,0.5865173,0.0387192,0.8786774c-0.0182648,0.3072357-0.1268311,0.3824768-0.4232788,0.4726715
				c-0.4876328,0.1503754-0.9753723,0.3051453-1.4534302,0.4834595c-0.8443604,0.3093109-1.6800308,0.6401978-2.5190048,0.9602966
				c-0.0301361,0.0128632-0.0580521,0.0322266-0.0881042,0.0322266c-1.9593201,0.1976776-3.9025803,0.2792969-5.7556458-0.5822296
				c-0.971077-0.4533081-1.821907-1.0634766-2.5416565-1.8583374c-0.0429001-0.0430145-0.0902023-0.0860291-0.1245193-0.1397095
				c-0.6939926-1.117157-1.4373703-2.2085724-1.8659286-3.4697266c-0.0225525-0.0730362-0.0355301-0.1482773-0.0634689-0.2578354
				c4.9586868,0.4254761,9.7173996-0.4511108,14.4504776-2.0237808c0.0944901,0.9045334,0.1889801,1.7681427,0.2664185,2.6318588
				c0.0160599,0.1826019-0.0430069,0.3694916-0.0548935,0.5542908
				C124.8246078,128.010437,124.8374786,128.7817535,125.0072098,129.5508728z"/>
			<g>
				<path class="st7" d="M82.9193649,163.0127716c0.6058502,0.2320862,1.1826935,0.4941101,1.7831802,0.6768188
					c1.2589569,0.388855,2.5308838,0.7346954,3.7963257,1.1020966c1.8476944,0.5392151,3.7145844,0.9947205,5.6030884,1.3664246
					c1.1396866,0.2213135,2.281601,0.4382324,3.4428711,0.5414124c0.5231552,0.0471954,1.0344391,0.1997681,1.5555344,0.2727966
					c0.5531616,0.0730438,1.1117401,0.1095581,1.6682358,0.1611481c2.5232849,0.2384796,5.0541687,0.29216,7.5871582,0.3072357
					c1.0882111,0.006485,2.1753387,0.0795288,3.2613678,0.0493927c1.1149597-0.0300293,2.2289352-0.1503754,3.3429031-0.2319946
					c0.4178848-0.0322266,0.8357773-0.1074677,1.2514648-0.1009827c0.9872513,0.0150757,1.9400711-0.2084503,2.9090652-0.3286743
					c1.1375046-0.1396942,2.1913071-0.5585785,3.2709579-0.8894653c1.7047806-0.522049,3.4106598-1.0441132,5.1078491-1.5898285
					c0.5296555-0.1697235,1.0388412-0.4082031,1.5523148-0.6274414c0.6992798-0.2964478,1.3986816-0.5950928,2.0882416-0.9109039
					c0.5500031-0.2534485,1.0860291-0.5349274,1.6253662-0.8121338c0.5220642-0.2685089,1.0398254-0.5435028,1.5962067-0.8335724
					c0.1181641,0.2686157,0.2245178,0.5048981,0.3222961,0.7433777c0.3910522,0.9431305,0.9077301,1.8003693,1.6542969,2.5094299
					c0.1805115,0.171814,0.3545227,0.3566132,0.4898224,0.5606689c0.5993958,0.8980408,1.4416656,1.5383453,2.2913055,2.1699677
					c0.2449646,0.1804047,0.3985291,0.3996277,0.4350433,0.681015c0.0816345,0.6123657,0.1611633,1.2289124,0.0666656,1.8562469
					c-0.0946045,0.6101685-0.1138458,1.2354126-0.2278137,1.8455811c-0.29216,1.5533142-1.1020813,2.8208313-2.2397003,3.8908081
					c-1.0892181,1.024765-2.3665466,1.7444916-3.7393494,2.3224335c-0.6295013,0.2599182-1.2417908,0.5650635-1.8433685,0.8872528
					c-0.8035278,0.4275665-1.6542969,0.6811218-2.5351715,0.8894653c-0.6176605,0.1460724-1.2384949,0.2427673-1.8562546,0.3716888
					c-0.9066238,0.1911774-1.798172,0.4555054-2.7091904,0.6123657c-0.5005035,0.085907-1.0161819,0.0773315-1.5113983,0.2277069
					c-0.4618912,0.1395874-0.9334641,0.1997528-1.4189987,0.1997528c-0.2878723,0-0.5736542,0.1182556-0.8615265,0.1826019
					c-0.5134735,0.1117554-1.0237656,0.2384796-1.5404358,0.3202057c-0.4124985,0.0665588-0.8432617,0.03862-1.2482529,0.124527
					c-0.8776093,0.1869965-1.7660751,0.1289215-2.6468506,0.1611481c-1.3363876,0.045105-2.6759644,0.0344238-4.0122452,0.0042877
					c-1.4899521-0.0300293-2.9830933-0.0773315-4.4698486-0.1868896c-1.1730423-0.0838165-2.339592-0.2770844-3.5105438-0.4124908
					c-0.6616516-0.0795441-1.3245087-0.1675415-1.990448-0.2019653c-1.6188736-0.079422-3.1958313-0.4188843-4.7813721-0.7111511
					c-0.9302673-0.171814-1.8670273-0.3050232-2.7930069-0.4941254c-0.9108887-0.1847992-1.8111496-0.423172-2.7145844-0.6381073
					c-0.1965637-0.0471802-0.3877487-0.1138458-0.5822067-0.1589508c-1.2621613-0.2685089-2.3600693-0.8894501-3.3417969-1.6800232
					c-1.2268524-0.990448-1.9959717-2.2601776-2.1248932-3.8908081c-0.0773087-1.0183868-0.0365219-2.028183,0.1611481-3.0121307
					c0.3029404-1.5104218-0.1289215-2.8187561-0.8658066-4.084198c-0.257843-0.4404297-0.5371323-0.8743896-0.7819901-1.32341
					C83.1148071,164.3404694,82.9623489,163.6938782,82.9193649,163.0127716z"/>
			</g>
			<g>
				<path class="st7" d="M167.9931183,131.0440216c0.1385956-0.0085907,0.212738-0.0214539,0.2900696-0.0193634
					c1.725235,0.0042877,3.4536743-0.0429077,5.1756134,0.0387115c1.0140839,0.05159,2.0216827,0.3050385,3.0292816,0.4812622
					c0.1954803,0.0365143,0.3824768,0.1246185,0.5660706,0.2105255c0.6295166,0.2900848,1.0731506,0.7433929,1.189209,1.4502411
					c0.0944824,0.5800323,0.2170258,1.1665497,0.2148285,1.7487793c-0.0020905,0.653183-0.2105408,1.2805176-0.4855499,1.8820038
					c-0.4855347,1.0699615-1.1279297,2.0389557-1.8691101,2.9433746c-1.2976685,1.587738-2.5996399,3.1710815-3.9144592,4.7480316
					c-1.1451111,1.3707123-2.3052826,2.7307587-3.4611511,4.0927734c-0.6938629,0.8207092-1.5350494,1.4502411-2.5201111,1.8735199
					c-0.2621155,0.1138611-0.5714417,0.1632385-0.8572235,0.1675262c-1.5704651,0.0128784-3.1410217,0.0065002-4.7588196,0.0065002
					c0.1548004-0.1354065,0.2718048-0.2686157,0.4125061-0.3631134c1.0656738-0.7240143,1.9378967-1.6457062,2.7801361-2.6082153
					c0.450119-0.5113831,0.9667816-0.9667816,1.4587097-1.4416504c0.3351746-0.3221893,0.6843109-0.6316223,1.0205841-0.9560089
					c0.8712006-0.8421631,1.4491577-1.8584595,1.714447-3.0400696c0.1934052-0.8464508,0.3996429-1.6929016,0.5177765-2.5501404
					c0.1428833-1.0140839,0.1846924-2.0432434,0.0912933-3.0700989c-0.0107727-0.1246185-0.0225372-0.2471619-0.0225372-0.3738861
					C168.5732574,134.5245209,168.4594116,132.7929077,167.9931183,131.0440216z"/>
			</g>
			<g>
				<path class="st7" d="M160.7400513,166.6501312c0.6412964-1.4932404,0.4575958-2.9455719,0.1289215-4.4021912
					c-0.3072052-1.368515-0.8013611-2.6704712-1.3900757-3.9402008c-0.378067-0.8143311-0.73909-1.6414185-0.945343-2.5223083
					c-0.2148285-0.9237823-0.2168884-1.8411713,0.0601654-2.7542877c0.1031799-0.3480377,0.3115234-0.5177612,0.6660614-0.5349274
					c0.6187439-0.0279388,1.2375031-0.0816193,1.8583374-0.0881042c1.0871277-0.010788,2.1742554,0.0128632,3.2634735,0.0020905
					c0.4942322-0.004303,0.9883575-0.0622711,1.4824677-0.0923004c0.1504059-0.0086823,0.302948-0.0021973,0.4769745-0.0021973
					c0.034317,0.3652039,0.0773163,0.7025757,0.0944824,1.0398254c0.0795288,1.3470612,0.1396942,2.69841,0.2278137,4.045578
					c0.0987701,1.4694977,0.2394714,2.9389801,0.3254852,4.4063873c0.0600586,1.0355377,0.1750183,2.0753632-0.0677643,3.1045227
					c-0.2254944,0.945343-1.0462036,1.6563873-2.0205841,1.7036896c-1.0558929,0.0473022-2.1096954,0.0730438-3.1667938,0.0944824
					C161.4264526,166.7166901,161.1181183,166.6715851,160.7400513,166.6501312z"/>
			</g>
			<g>
				<path class="st7" d="M178.330368,139.7258759c-0.0462036,1.8003693-0.0913086,3.5127411-0.1363983,5.2207031
					c-0.0214539,0.7605438-0.0430145,1.5210876-0.0666656,2.2816315c-0.0063782,0.1847992,0.0150757,0.3867493-0.0428925,0.5542908
					c-0.3716888,1.0505981-0.6595612,2.1377411-1.2268372,3.1151886c-0.1654053,0.2814941-0.3737793,0.5264587-0.7110138,0.7649384
					c-0.1096954-0.5371246-0.1956024-1.0183716-0.3115387-1.4910431c-0.0731506-0.298645-0.1676483-0.5993958-0.2976685-0.8743896
					c-0.1449738-0.3137207-0.3898315-0.5070953-0.7690887-0.5091858c-0.3899841-0.0042877-0.6390991,0.171814-0.8249969,0.4962006
					c-0.3749084,0.646698-0.7573853,1.2827148-1.13974,1.9229126c-0.0633545,0.1052704-0.1332092,0.2105408-0.2148285,0.302948
					c-0.5822296,0.6746216-0.7025757,1.4631042-0.5833282,2.31604c0.1106567,0.7819977,0.2546387,1.5618896,0.3147125,2.3524628
					c0.0774384,0.9883575-0.1868896,1.8992615-0.7970734,2.704895c-0.1761017,0.2341919-0.3178864,0.4963226-0.4533081,0.7584534
					c-0.6659393,1.2803955-1.3427429,2.5544281-2.234314,3.7339478c-0.0279388-0.3308716-0.0590668-0.6574707-0.0827179-0.9839478
					c-0.0903168-1.2354126-0.1783142-2.4772034-0.2664185-3.7146912c-0.0074921-0.1267242-0.0096893-0.2492676-0.0161743-0.3737793
					c-0.0901947-1.5018311-0.1783142-3.007843-0.2685089-4.5117645c-0.0376282-0.601593-0.0783997-1.2052765-0.1246033-1.8068695
					c-0.0300598-0.4017181,0.122406-0.6746216,0.4769287-0.8786774c0.2675171-0.1525726,0.5059967-0.3588104,0.7337036-0.5671539
					c1.1096802-1.0097961,2.001236-2.2064972,2.9487762-3.3601685c1.1622467-1.4180145,2.3718109-2.795105,3.5384674-4.2131195
					C176.6233826,141.9344482,177.4291687,140.8688812,178.330368,139.7258759z"/>
			</g>
			<path class="st8" d="M86.3138275,144.3643494c-0.3372574-1.4329681-1.1117706-2.5200958-2.5394592-3.04216
				c-0.6906891-0.25354-1.4200974-0.3222961-2.1547928-0.3222961c-0.0763168,0-0.1611481-0.0021973-0.2298965,0.0257416
				c-0.5457077,0.219223-1.0988998,0.4254761-1.6306152,0.6768341c-0.3824921,0.1803894-0.6940155,0.470459-0.9185028,0.8378601
				c-0.4329834,0.7132416-0.7519836,1.4588318-0.7767334,2.3117676c-0.034317,1.2589417,0.3727951,2.3202209,1.3664246,3.1194916
				c0.9539185,0.7691193,2.0539169,1.1322327,2.9691162,1.1601715c1.8724213,0.0085754,3.2012177-0.9131165,3.7447281-2.3825989
				C86.4330673,145.9692535,86.5029221,145.1679077,86.3138275,144.3643494z"/>
			<path class="st8" d="M91.4389496,133.3299255c-0.0847855-0.5134735-0.2642212-1.0161743-0.451088-1.5082092
				c-0.2632523-0.6853027-0.7938919-1.1063843-1.5028458-1.2653351c-0.4061203-0.092392-0.8260956-0.1268311-1.2042542-0.1827087
				c-0.2083664,0.0150757-0.3856812,0-0.544632,0.0473022c-0.4447327,0.1332092-0.8829727,0.2900696-1.3223114,0.4469299
				c-0.3008499,0.1052704-0.5317383,0.3029327-0.7316132,0.5520935c-0.8980331,1.1150665-1.0161743,2.7242584-0.2964478,3.9724274
				c0.7368927,1.2827148,2.1613007,1.7617645,3.4686279,1.5189819
				C90.4990005,136.6020966,91.710762,134.9842072,91.4389496,133.3299255z"/>
			<path class="st8" d="M79.9816895,125.0314255c-0.0847855-0.5134811-0.2642212-1.0161819-0.451088-1.5082092
				c-0.2632523-0.6853027-0.7938919-1.1063766-1.5028381-1.2653275c-0.4061203-0.0923996-0.8261032-0.1268311-1.2042618-0.1827087
				c-0.2083588,0.0150681-0.3856812,0-0.544632,0.0472946c-0.4447327,0.1332092-0.8829727,0.2900696-1.3223114,0.4469299
				c-0.3008499,0.1052704-0.5317383,0.3029404-0.7316055,0.5520935c-0.8980408,1.1150665-1.0161819,2.7242584-0.2964554,3.9724274
				c0.7368927,1.2827072,2.1613083,1.7617569,3.4686356,1.5189896
				C79.0417404,128.3035889,80.2535019,126.6857147,79.9816895,125.0314255z"/>
			<g>
				<path class="st9" d="M138.2265625,169.644989c0.0021973,1.1279449-0.1449738,2.2258606-0.6026917,3.2677765
					c-0.4951019,1.1279449-1.3115234,1.9851685-2.2697144,2.7242584c-0.2815094,0.2191162-0.5693817,0.4318542-0.8701019,0.6251373
					c-0.2062683,0.1332092-0.4318695,0.2492523-0.6617737,0.3351593c-0.4189911,0.1547699-0.8249969,0.0236511-1.0269623-0.3029327
					c-0.2170258-0.34375-0.1740265-0.8077393,0.151474-1.1042938c0.2395782-0.2148285,0.5188599-0.3952332,0.793869-0.5628662
					c0.7197266-0.429657,1.3169098-0.9861603,1.8057556-1.6585846c0.6284332-0.8658142,0.9807587-1.8262177,0.9463348-2.9068604
					c-0.0139771-0.4683838-0.045105-0.9323578-0.0407867-1.3986511c0-0.1932678,0.032196-0.4102936,0.1192169-0.5800323
					c0.2954865-0.5757294,1.1075897-0.5736389,1.4340668,0.0193634c0.1289215,0.2362823,0.1740112,0.5263519,0.2138367,0.7991486
					C138.2545013,169.1422882,138.2265625,169.397934,138.2265625,169.644989z"/>
			</g>
			<g>
				<path class="st9" d="M132.1657867,177.0270996c-0.0665283,0.1224213-0.1417847,0.3609009-0.2964325,0.509079
					c-0.3351898,0.3287811-0.7756195,0.4447327-1.2385864,0.4082031c-0.3942719-0.0279388-0.6519928-0.2770844-0.7358246-0.6595612
					c-0.0816193-0.3587036,0.0601807-0.63591,0.34375-0.8486481c0.5714569-0.4317474,1.1601715-0.4661713,1.6134796-0.1030731
					C132.0455627,176.4877625,132.1508331,176.6789398,132.1657867,177.0270996z"/>
			</g>
		</g>
		<path class="st10" d="M114.1340637,107.0804062c-1.0334778-0.7927704-1.960556-1.7252426-2.8983078-2.6318588
			c-0.7594376-0.7348022-1.2117615-1.6887207-1.6521988-2.6339493c-0.7905655-1.7015915-1.2803955-3.4912949-1.5350494-5.3496323
			c-0.2674103-1.9529419-0.2394485-3.9101715-0.2094421-5.8674011c0.0128937-0.8099289,0.0730438-1.6156769,0.1181412-2.4213181
			c0.0558777-1.0011139,0.257843-1.9723053,0.5715637-2.9197311c0.5166931-1.5769577,1.0419159-3.1517181,1.586525-4.7179031
			c0.1471863-0.4232788,0.3705902-0.8207092,0.5833359-1.2182465c0.3609314-0.6681442,0.7648239-1.3169174,1.1128693-1.9937515
			c1.2149506-2.3438797,2.9111481-4.2968216,4.9521942-5.9404373c1.3664246-1.1000061,2.7971954-2.1204758,4.2173996-3.1538086
			c0.6649551-0.4856567,1.3996658-0.8615265,2.1569901-1.194603c1.506012-0.6616516,2.9906845-1.3770905,4.5632401-1.8777008
			c1.3019562-0.4124985,2.6093445-0.8164215,3.9682465-1.0033112c0.691803-0.0945969,1.3899841-0.1503677,2.0850525-0.2299004
			c0.924881-0.1052666,1.8508606-0.2234077,2.7757416-0.3265877c0.2481689-0.0300293,0.495224-0.05159,0.7433777-0.0451012
			c1.6639709,0.0193596,3.3300323,0,4.9897156,0.0923996c1.2375031,0.07304,2.4707031,0.2664223,3.695343,0.4726677
			c1.8841858,0.3201065,3.72966,0.8164215,5.5473022,1.4136124c1.6177673,0.5307541,3.1172791,1.3127441,4.554657,2.2150726
			c0.7111511,0.4469299,1.4018402,0.9237747,2.1054993,1.3792877c0.6895905,0.4512177,1.3921661,0.8786774,2.0774689,1.3363876
			c1.5167847,1.0054016,2.8466949,2.2063828,3.9037933,3.6995239c0.2964478,0.4167862,0.6325989,0.8078384,0.9688721,1.1966858
			c1.5877686,1.8390961,2.8327179,3.9058838,3.7629852,6.1338196c0.6929016,1.6564941,1.1719513,3.4030762,1.4319916,5.1949768
			c0.1298981,0.9066162,0.3534241,1.7981644,0.4984131,2.7026978c0.5048981,3.1174011,0.4877319,6.2154388-0.3007202,9.2963181
			c-0.9722137,3.800499-3.0659485,6.7846909-6.3722992,8.9116516c-0.9969635,0.6401978-1.9980621,1.2740173-3.0894928,1.7230377
			c-1.03125,0.4253693-2.103302,0.7562485-3.1646881,1.0999985c-1.6403198,0.5263519-3.2892303,1.0377426-4.9962006,1.3062515
			c-1.2427826,0.19767-2.4921722,0.3480377-3.7393188,0.5156784c-3.1388702,0.4210815-6.2991791,0.3566208-9.4048004,0.4554062
			c-1.7111664,0-3.376236,0.0258484-5.0391083-0.0063858c-1.0075989-0.0215607-2.017395-0.1268311-3.0229034-0.1933746
			c-0.5284424-0.0365219-1.0549011-0.0709534-1.5833435-0.1052704c-1.3835754-0.0902023-2.7425232-0.337265-4.0992584-0.6122589
			c-1.3233871-0.2707138-2.6598053-0.4856567-3.9617615-0.8400726
			C119.1623611,110.1568832,116.4972763,108.9001312,114.1340637,107.0804062z"/>
		<g>
			<path class="st6" d="M121.1959305,92.0886154c0.2308884,0.027832,0.5897293,0.0471878,0.9366455,0.1224289
				c1.1923981,0.2535477,2.0002441,0.9496307,2.3493805,2.1333389c0.2459641,0.8422699,0.2159348,1.6865234-0.0547791,2.5202103
				c-0.2814865,0.8636093-0.8292923,1.4758682-1.6833267,1.8089523c-1.0538025,0.4082108-2.1161804,0.4618912-3.1796646,0.0579681
				c-1.7714386-0.6703415-2.6136017-2.5845566-1.9292908-4.3506088c0.2781906-0.7154388,0.7314987-1.308342,1.3545685-1.737999
				C119.6060944,92.2174225,120.327919,92.0929031,121.1959305,92.0886154z"/>
		</g>
		<g>
			<path class="st6" d="M150.1933594,98.6111755c-0.4404449-0.079422-0.8443604-0.1138535-1.2288971-0.2276993
				c-1.7251587-0.5069885-2.661911-2.0045319-2.3343353-3.7683792c0.0870361-0.4661789,0.2589417-0.9280701,0.467392-1.3577347
				c0.2942505-0.6101685,0.8056335-1.003418,1.4350586-1.2611465c1.0860291-0.4512177,2.1656799-0.3459549,3.2269897,0.0300293
				c0.8185883,0.29216,1.3814545,0.8808823,1.6822052,1.7036819c0.4124908,1.1409149,0.3523254,2.2580795-0.2234192,3.3322296
				c-0.3394623,0.6295242-0.8572235,1.0720596-1.5478973,1.2611465
				C151.1795044,98.454422,150.6703186,98.5188828,150.1933594,98.6111755z"/>
		</g>
		<path class="st9" d="M144.1191254,102.5029297c-0.197998,1.5932922-1.1168976,2.6977005-2.5133362,3.401535
			c-1.1248169,0.5681381-2.3514709,0.8034821-3.6007233,0.8600311c-0.7683716,0.0339508-1.541275,0.0068359-2.3084869,0.0068359
			c0-0.0023193,0-0.0045242,0-0.0090408c-0.3937378,0-0.7864532-0.0068359-1.1779938,0.0022049
			c-1.2413788,0.0203934-2.454361-0.2059174-3.6313171-0.5295563c-1.6792603-0.4617615-2.7271271-1.6160049-3.1718674-3.3043137
			c-0.7931671-3.0054703,0.9041824-6.5859146,4.1812973-7.638298c1.4654541-0.4706879,2.9625702-0.6518021,4.500351-0.5476303
			c1.2843628,0.0859756,2.5269012,0.3303604,3.7173004,0.8282776c0.789917,0.3281631,1.5175018,0.7581787,2.1659698,1.3262024
			c0.8418121,0.7355728,1.3714905,1.652153,1.6419678,2.729454
			C144.1609802,100.5746384,144.2378998,101.5410461,144.1191254,102.5029297z"/>
		<path class="st6" d="M141.0915222,103.0434036c-0.2245178-0.1846924-0.4877472-0.3264771-0.7379913-0.4790497
			c-0.7927704-0.4855423-1.6038055-0.9474258-2.3762207-1.4631119c-0.4231415-0.2792892-0.7841949-0.6530685-1.1987762-1.005394
			c1.0140839-1.0721741,0.7497559-2.2946014,0.1868896-2.9327164c-0.5520935-0.6294174-1.8670349-0.807724-2.5201111-0.283577
			c-0.4425201,0.3566208-0.693985,0.8164215-0.8335571,1.3621292c-0.1633606,0.6424026,0.0193481,1.1859131,0.4178772,1.6607819
			c-0.0268402,0.0601654-0.0333405,0.0944901-0.0526733,0.1116486c-0.891571,0.8400726-1.7144775,1.7574692-2.7671814,2.4170303
			c-0.2975464,0.1890869-0.5585785,0.4425278-0.8056183,0.6960831c-0.1461029,0.1546555-0.2589569,0.350235-0.3351898,0.5499954
			c-0.1654358,0.4318619,0.0085754,0.8829727,0.4028168,1.1257401c0.2632294,0.1611481,0.5531921,0.2363892,0.84758,0.1482849
			c0.3877258-0.1138535,0.7616119-0.0795364,1.1472931-0.0020905c0.9602966,0.1932678,1.9356537,0.3115158,2.9143219,0.2792892
			c0.9613953-0.0344315,1.9174042-0.14608,2.8778229-0.2127457c0.7702179-0.05159,1.5232697-0.2814865,2.3117523-0.1654358
			c0.4575958,0.0687485,0.8314056-0.2900696,0.8980408-0.7583389
			C141.5287628,103.6751328,141.4181061,103.3077316,141.0915222,103.0434036z"/>
		<path class="st11" d="M137.7281647,103.2948685c-1.4416656,0.1589432-2.8832245,0.3243866-4.376358,0.0665436
			c0.7132416-0.6982803,1.3813782-1.3513489,2.0463562-2.002327c0.7852631,0.6144562,1.5715485,1.2246323,2.3579407,1.8368912
			C137.7475128,103.2304077,137.7367554,103.2647247,137.7281647,103.2948685z"/>
		<path class="st12" d="M174.6490021,70.5225677c-0.1954803,0.7476654-0.4060211,1.4974289-0.6789246,2.2236481
			c-0.4586945,1.2224274-1.3062439,2.1784363-2.2590637,3.04216c-0.7057648,0.6381073-1.4834747,1.17733-2.344986,1.5898285
			c-0.2084503,0.0988922-0.429657,0.1697311-0.6381073,0.2492599c-0.5542908-0.805748-1.0871277-1.5855408-1.626358-2.3590622
			c-0.3362732-0.4833374-0.6660461-0.9774551-1.0334473-1.4394608c-0.2685089-0.3372574-0.5908051-0.6337051-0.8872528-0.9517136
			c-0.3920441-0.4232864-0.4382477-0.7497635-0.1074829-1.2095642c1.0098114-1.4072266,2.279541-2.4749985,4.0154419-2.835907
			c0.9700928-0.2041626,1.9443665-0.4147034,2.953064-0.3545303c0.9056244,0.0558777,1.7778168,0.2535477,2.6715698,0.5392151
			C174.844574,69.5471954,174.7715607,70.0456085,174.6490021,70.5225677z"/>
		<path class="st10" d="M154.5987396,64.4897232c0.3212128-0.6015892,0.5919189-1.2482796,1.0044098-1.7810097
			c0.6789246-0.88517,1.41362-1.731617,2.3783112-2.3439903c1.368515-0.8700981,2.8370209-1.460907,4.4419098-1.7036781
			c1.8337097-0.27071,3.6663055-0.3051414,5.4301605,0.3200989c2.8273315,1.0012207,4.8318481,2.9068604,5.9941101,5.6868935
			c0.348053,0.8314896,0.6198578,1.6844254,0.8024597,2.6061172c-0.1224365-0.0150681-0.2245178-0.0172729-0.323288-0.0387192
			c-0.6230469-0.1267242-1.2417908-0.2878723-1.8692322-0.3737793c-0.3609161-0.0473022-0.7400818-0.0042877-1.1052856,0.0386047
			c-0.6327209,0.0752411-1.2579346,0.2084503-1.8895721,0.2707138c-1.2364044,0.1246338-2.3354187,0.6123734-3.3773346,1.2397003
			c-0.9647064,0.5800323-1.6876221,1.4115219-2.3160248,2.3289185c-0.045105,0.0622635-0.0881348,0.1245193-0.1762543,0.2556381
			c-0.2899475-0.2019577-0.5574493-0.3588181-0.7916565-0.556488c-2.3342896-1.9743881-4.8587036-3.6545258-7.5990295-5.0122604
			c-0.2481537-0.1246262-0.490921-0.2600403-0.7765961-0.4124985
			C154.4837952,64.8334732,154.5160217,64.6465836,154.5987396,64.4897232z"/>
		<path class="st10" d="M103.3423767,66.6295547c0.73909-2.7306404,2.4030838-4.6921616,4.9328384-5.9274597
			c1.1473007-0.5586891,2.3160553-1.0742607,3.5813828-1.2890892c1.8487701-0.3158112,3.6653137-0.2729111,5.4420319,0.4747581
			c1.9078369,0.8013496,2.0807571,0.8637199,3.5363846,2.3203392c0.8721924,0.8786812,1.4845657,1.9078407,1.8346939,3.0915489
			c0.0139694,0.0452118,0.0236511,0.0903091,0.0311508,0.1375046c0.0011063,0.0107803-0.0095901,0.0279388-0.0289536,0.0709457
			c-0.8229065,0.2127457-1.4921494,0.7562561-2.2107773,1.2095642c-1.4845581,0.9367599-2.9315033,1.931488-4.2796631,3.0637207
			c-0.3770752,0.317894-0.7530594,0.6422882-1.1601639,0.9882355c-0.1246338-0.1354065-0.2330933-0.2406769-0.3286819-0.3588181
			c-1.5404434-1.8819885-3.504158-3.0356674-5.910408-3.4052734c-0.5511017-0.085907-1.1128464-0.1073532-1.6693649-0.1654358
			c-0.9947281-0.1030731-1.9399567,0.1697311-2.8938751,0.3824692c-0.2750015,0.0622635-0.5457153,0.1052704-0.8035507,0.0450974
			C103.2210464,67.0528336,103.286499,66.8380051,103.3423767,66.6295547z"/>
		<path class="st12" d="M108.0947113,78.304184c-2.248291-0.8099289-3.6931458-2.3933792-4.4987793-4.6040497
			c-0.3513412-0.9667892-0.581131-1.9659195-0.7305145-2.9821014c-0.131012-0.8915482,0.05159-1.2224274,0.8604431-1.6349258
			c0.0957031-0.05159,0.194458-0.1031799,0.2986298-0.131012c0.9099197-0.2514572,1.8057556-0.5371323,2.7790375-0.4877396
			c1.0269623,0.05159,2.0474319,0.0944901,3.0443573,0.3823624c0.5886154,0.1697235,1.1322327,0.4189835,1.6155701,0.8014603
			c0.388855,0.3093185,0.7960739,0.5951004,1.1795349,0.9129944c0.4598007,0.3781815,0.8421555,0.8229141,1.132225,1.3922729
			c-1.0226669,1.1192474-2.0281525,2.2192459-2.744606,3.5491486c-0.5661469,1.0506134-1.1795273,2.0797729-1.7714386,3.1174011
			c-0.0225525,0.0387192-0.0558853,0.0709534-0.0838242,0.1052704
			C108.8101501,78.5813828,108.4556198,78.4331055,108.0947113,78.304184z"/>
		<path class="st10" d="M143.0240021,150.0212097c0.3996277,0.5284424,0.628418,1.1493988,1.3513489,1.3405762
			c0.0376129-0.1568604,0.0473022-0.2642212,0.0881042-0.3588257c0.1085663-0.2556305,0.2019653-0.5241394,0.354538-0.7497559
			c0.2137299-0.3072357,0.5349274-0.4082031,0.9066162-0.3093262c0.3663025,0.0965881,0.5242615,0.3737793,0.5714417,0.7175293
			c0.0258636,0.1783142,0.0215607,0.3737946-0.0171509,0.5522003c-0.09021,0.3780823-0.2030334,0.7475739-0.3222961,1.1149597
			c-0.1267242,0.3845673-0.0579834,0.7047729,0.2686157,0.9539337c0.7025604,0.5392151,1.3846741,1.1085663,2.1161804,1.6026917
			c0.7767029,0.5242615,1.4137115,1.1623688,1.8841858,1.9680176c0.3050385,0.5242615,0.6209717,1.0398254,0.8980408,1.5791473
			c0.2738953,0.5392303,0.5542908,1.0806427,0.7454681,1.6520996c0.6209564,1.8756104,0.4705811,3.6566162-0.8399353,5.2185059
			c-0.3953552,0.4705811-0.8959656,0.8572388-1.3557739,1.2719269c-0.1696167,0.1546631-0.3694916,0.2750092-0.5800323,0.429657
			c0.1343079,0.2127533,0.2385101,0.4018402,0.3674011,0.5736542c0.513504,0.6681366,1.1193695,1.2460785,1.8218231,1.712265
			c0.2278137,0.1504822,0.4942322,0.2707062,0.7584534,0.3287811c1.4651947,0.34375,2.9046631,0.1740265,4.3055267-0.3115082
			c1.1235199-0.3910522,1.9615021-1.1215668,2.4040222-2.2516022c0.1460876-0.3781738,0.2772064-0.7605286,0.4404449-1.1279297
			c0.2062531-0.4661865,0.2792969-0.9496307,0.2846832-1.4523315c0.0085754-0.6724243-0.0784302-1.3319855-0.2438507-1.9829712
			c-0.4296875-1.6801453-1.1988068-3.2248688-1.9432831-4.7738953c-0.3126221-0.6530609-0.5725403-1.2976685-0.6434937-2.0259705
			c-0.0816193-0.8164215-0.0052795-1.6177673,0.1417847-2.4126282c0.3245087-1.729538,1.160202-3.1367645,2.7189026-4.0412903
			c0.9421234-0.5457153,1.7090454-1.2804108,2.4266815-2.0861511c0.5134735-0.5800323,1.08284-1.1171722,1.6392212-1.6563873
			c0.4232788-0.4104004,0.8776855-0.7927704,1.2998962-1.2052612c0.6875-0.6703491,1.2438507-1.4329834,1.4823303-2.3825989
			c0.2878723-1.1301422,0.5403137-2.2709503,0.5199738-3.4460907c-0.0258484-1.3836823-0.045105-2.7650604-0.1117706-4.1486511
			c-0.0687408-1.4308777-0.3093109-2.842392-0.7272034-4.2131042c-0.4329376-1.4223022-0.9142151-2.8316193-1.3740082-4.2453384
			c-0.4339294-1.3427734-0.8292847-2.7027054-1.3083344-4.0283127c-0.6487885-1.7938766-1.3578491-3.5664215-2.0399628-5.3517227
			c-0.3598022-0.9388504-0.7186279-1.8798981-1.065567-2.8252411c-0.1773224-0.4790497-0.3298645-0.9688797-0.4974213-1.4523239
			c-0.0450897-0.1267242-0.1095581-0.2449722-0.171814-0.388855c-0.7584229,0.1718216-1.4889679,0.3115234-2.2053986,0.5069962
			c-2.2515869,0.6037903-4.5278168,1.0785446-6.8427582,1.3686142c-2.0227661,0.2556458-4.049881,0.4382401-6.0833282,0.5263519
			c-1.3664246,0.0579681-2.7371368,0.0687485-4.10466,0.0773315c-1.7251282,0.0107803-3.4524536,0.0408096-5.17659-0.0214539
			c-1.9099426-0.066658-3.8156891-0.2278061-5.7255859-0.3523254c-0.4641266-0.0301437-0.9302979-0.060173-1.3878937-0.1439896
			c-1.4845657-0.257843-2.9648132-0.534935-4.4440079-0.818512c-0.668251-0.1289215-1.3331985-0.2857819-2.0099182-0.4340591
			c-1.1665497,0.8186188-2.45784,1.3943558-3.8242645,1.7660522c-1.8927689,0.515564-3.8284378,0.8013458-5.7910538,0.8915482
			c-0.5596848,0.0236511-1.1193619,0.0301361-1.6779404,0.0687485c-0.924881,0.0644608-1.8111267,0.2857819-2.6199799,0.7498703
			c-0.2116394,0.1224289-0.4253464,0.2727966-0.5758514,0.4640884c-1.110672,1.4221878-1.4974289,3.0250015-1.0365295,4.7758713
			c0.338356,1.2827072,1.2621384,2.0689926,2.4416656,2.584671c1.0269623,0.4468155,2.1161804,0.6079712,3.2226715,0.6595612
			c2.0904388,0.0966873,4.1593246-0.1052704,6.2197342-0.4576035c2.1419144-0.3653107,4.2431641-0.8873672,6.2894669-1.6307526
			c-0.0300064-0.4404373-0.1750107-0.9109039,0.3105316-1.2181396c0.4952164-0.3136063,0.83358,0.0022049,1.1579666,0.3243942
			c0,0,0.3614807,0.5091095,0.4365692,1.3200455l0.100563,0.2762756l4.1193161-2.348671l8.2595673-1.6819458l1.2013855-0.2102432
			l0.1611481-0.0410004c0,0,0.3399353-0.3012085,1.0204773-1.0011139c0.0493927-0.0687485,0.1041718-0.1439896,0.157959-0.2192307
			c0.2975464-0.4102936,0.9269714-0.3802643,1.209549-0.1288071c0.3566284,0.3200989,0.4082184,0.7991486,0.0784607,1.2073593
			c-0.8831024,1.1064911-1.9186401,2.028183-3.1625061,2.7199707c-2.0646973,1.1493912-4.2764893,1.7208405-6.6333466,1.7938766
			c-1.6811371,0.0537949-3.2366333,0.5350418-4.6481628,1.4716949c-0.5156784,0.3416595-0.8712006,0.7863922-1.1021957,1.3449707
			c-0.3115234,0.7476654-0.4317551,1.5253677-0.3737793,2.3267212c0.1181412,1.6887207,0.8948441,2.9476624,2.4685135,3.6523285
			c0.3233948,0.1482849,0.6660461,0.2600403,1.0119934,0.3394623c2.4212036,0.5779419,4.8414307,0.4855347,7.2562866-0.0471954
			c2.6307373-0.5822296,5.0831909-1.6199646,7.3970337-2.9906769c0.8669128-0.5134888,1.7058868-1.0806427,2.5254822-1.66716
			c0.4254913-0.3029404,1.0248718-0.3588257,1.4169159,0.3093185c0,0,0.2497864,0.3731461-0.3404541,0.9633865
			c0,0-0.5996094,0.543396-1.2366943,0.908783s0,0,0,0l-4.7240295,17.4707184l-0.4121094,0.5315704l0.5343628,1.0449066
			L143.0240021,150.0212097z"/>
		<path class="st10" d="M126.9547577,152.7712097c0.5113907-0.9667816,1.275116-1.4179993,2.2892151-1.3986511
			c0.2169189-0.3200989,0.1460724-0.5801392,0.0493774-0.8271942c-0.1363983-0.34375-0.3114929-0.6745148-0.4544067-1.0182648
			c-0.1298828-0.3137207-0.2684784-0.6317291-0.3491364-0.9582214c-0.1073608-0.4469299,0.0408173-0.7219238,0.3996582-0.8873596
			c0.3791351-0.1697388,0.7927399-0.0730438,1.0397949,0.2686157c0.1085968,0.1481628,0.1805115,0.3221893,0.2567444,0.4898376
			c0.2761078,0.6079559,0.5446167,1.2181396,0.8153229,1.8283081c0.3029327,0.6789093,0.5995026,1.364212,0.911026,2.0409393
			c0.2437592,0.5350342,0.4553986,1.0936127,0.7648315,1.5920258c1.3191071,2.1012268,2.2450867,4.3936157,3.2784271,6.6344299
			c0.3159485,0.681015,0.6649628,1.3276978,1.1107788,1.9292908c0.32341,0.436142,0.6638489,0.859314,0.9850616,1.2997589
			c0.7573395,1.037735,1.7563629,1.7982788,2.8155518,2.4857788c0.2685089,0.1783142,0.5822601,0.3115234,0.8937531,0.3823547
			c1.2052765,0.2750092,2.4170227,0.4469299,3.6287079,0.0279388c0.1310883-0.0471802,0.2717743-0.0687408,0.4060974-0.1095581
			c0.9033203-0.2770844,1.8218079-0.5349274,2.6360321-1.0398254c1.4802704-0.9131165,2.1785583-2.2601624,2.0818634-3.9897003
			c-0.0236511-0.4360352-0.1675262-0.8915558-0.3544006-1.2889709c-0.4124908-0.8701019-0.8755035-1.7144623-1.3427887-2.5588226
			c-0.2332001-0.4210815-0.5586853-0.7819977-0.9604187-1.0655823c-0.6875-0.4791565-1.3770905-0.9582062-2.0625-1.4437408
			c-1.4974213-1.0613861-2.842392-2.286026-3.8177643-3.8522034c-1.1923981-1.9121246-2.1999969-3.9252319-2.9262238-6.0693512
			c-0.259903-0.766922-0.5628662-1.5102997-0.9388428-2.2300415c-0.5101624-0.9753723-0.9893494-1.9680023-1.4674072-2.9648285
			c-0.1803894-0.3738861-0.3501282-0.7648315-0.4596863-1.1644592c-0.2857819-1.03125-0.5199738-2.0797729-0.8056335-3.1110229
			c-0.0881195-0.3221893-0.2514648-0.6336975-0.4125061-0.9302673c-0.1525726-0.2727966-0.3975372-0.3737793-0.7337036-0.3909302
			c-1.1612701-0.0666656-2.3214417-0.1697388-3.4827118-0.268631c-0.2996063-0.0279388-0.5982819-0.0966797-0.9183807-0.1524506
			c-0.0870056,0.8421478-0.3566284,1.6198578-0.29216,2.5458374c0.2556305-0.2664185,0.4210815-0.4704742,0.6187439-0.6424103
			c0.3179016-0.2770844,0.7132416-0.2942505,1.03125-0.0730286c0.3125305,0.2170258,0.4447327,0.6230316,0.2427673,0.9947205
			c-0.5296478,0.9818573-1.3492279,1.6006165-2.453537,1.8283081c-0.045105,0.0085907-0.0924072,0.0085907-0.1386108,0.010788
			c-0.3856506,0.006485-0.6692352-0.1632385-0.7981567-0.5242615c-0.0923996-0.2620239-0.1697311-0.5370178-0.1911774-0.812027
			c-0.0816193-1.0591888-0.0064926-2.109787,0.2878723-3.1389465c0.0666809-0.2319946,0.0806274-0.4769592,0.1181335-0.7110443
			c-0.2727966-0.1419067-0.4908142-0.2557526-0.7110367-0.3695984c-0.5371323,0.8099213-1.0549011,1.6134796-1.2482834,2.5566101
			c-0.192276,0.956131-0.3158112,1.9272003-0.4661789,2.8917999c-0.0279388,0.1676331-0.0215607,0.3459473-0.0623703,0.5070953
			c-0.0784302,0.3179016-0.3061295,0.5027008-0.6165466,0.5693665c-0.3008499,0.0600586-0.5768433-0.0430145-0.7455826-0.2836914
			c-0.1170425-0.1675415-0.1846924-0.3931427-0.2040482-0.6014862c-0.0709534-0.7348022,0.0430069-1.4588165,0.1933823-2.1763458
			c0.2481537-1.1860199,0.515564-2.365448,1.1687469-3.4160461c0.1654663-0.2643433,0.2986526-0.5479126,0.4726715-0.8722992
			c-0.6950912,0.1074677-1.3384781,0.1847992-1.9486542,0.442627c-0.8432541,0.3523407-1.6887207,0.7003784-2.5416565,1.0333405
			c-0.2427673,0.0944977-0.5027008,0.1568604-0.7605438,0.2019653c-1.2170334,0.2191162-2.4394684,0.2599335-3.669487,0.1074677
			c-1.7401962-0.219223-3.3504639-0.7821045-4.7856598-1.8047638c-0.7314987-0.5198669-1.3373795-1.1514893-1.8078537-1.9207153
			c-0.7841873-1.2868805-1.6048965-2.55233-2.3955536-3.8349304c-0.2750015-0.4468155-0.6424026-0.7905655-1.0506363-1.1279373
			c-0.0408096,0.0816193-0.0837097,0.1439896-0.1116486,0.2148285c-0.647789,1.5426407-0.8486481,3.1710739-0.9302673,4.8210831
			c-0.0128479,0.2621307,0.0042877,0.5328369-0.0268402,0.7906799c-0.0547791,0.4812469-0.3513412,0.7648315-0.7778091,0.7819824
			c-0.4103012,0.0150757-0.6949844-0.2191162-0.8163986-0.676712c-0.1332321-0.5091858-0.1084824-1.0204773-0.0332413-1.5296631
			c0.1245422-0.8292847,0.2856674-1.6542816,0.401741-2.4814911c0.1117401-0.7927704,0.2814713-1.555397,0.6424026-2.2751312
			c0.1600266-0.3180084,0.2792664-0.6531754,0.4156647-0.9775696c-0.2631226-0.3158035-0.505867-0.6166534-0.7443695-0.9066162
			c-0.7906799,0.079422-2.089447,0.6917877-2.7091904,1.2846909c-0.1676407,0.1590576-0.3137207,0.3480377-0.4383469,0.5436172
			c-0.1417923,0.2191238-0.2319946,0.4640884-0.2105408,0.73909c0.1600494,0.0429001,0.2943802,0.0708389,0.4243774,0.1181412
			c0.4264679,0.1503677,0.6348114,0.4404373,0.5982895,0.8313828c-0.0300293,0.3523254-0.2975464,0.6123657-0.7089462,0.6917877
			c-0.9936295,0.1912918-1.8036728-0.3931427-1.9303894-1.4007416c-0.1503525-1.2095566,0.3061523-2.1527023,1.2665405-2.8746262
			c0.8164139-0.6122589,1.71875-1.0569916,2.6682663-1.4115219c0.1139603-0.0408096,0.2235413-0.0881119,0.3265915-0.1267242
			c-0.0730438-0.4404373-0.1417923-0.8464432-0.2051544-1.22892c-1.2406845,0.0816269-2.3536682,0.4726715-3.4783096,0.827095
			c-0.4178848,0.1311188-0.7498703,0.3610153-1.0065842,0.7133484c-0.1192627,0.1611481-0.2642441,0.3050308-0.386673,0.4661789
			c-0.4404373,0.5822296-0.8754883,1.1687546-1.0441208,1.9013519c-0.1955795,0.8594284-0.3824692,1.7273254-0.5575867,2.5910492
			c-0.1364059,0.6853027-0.277092,1.3727951-0.3641052,2.0647049c-0.1160507,0.9495087,0.0096817,1.8927612,0.1321106,2.8337097
			c0.1471786,1.1387177,0.1568604,2.2730408-0.3233948,3.3450928c-0.5413132,1.2139587-0.83358,2.5008545-1.1902008,3.7683868
			c-0.2813797,1.0075989-0.4188843,2.0410461-0.3631134,3.0894623c0.0484009,0.8873596,0.1847992,1.759552,0.3996277,2.6232758
			c0.4329605,1.7294159,0.9431458,3.4417877,1.0161819,5.248642c0.0366287,0.9366608,0.0473022,1.8669281-0.1052704,2.7908173
			c-0.0987549,0.6079712-0.2889709,1.203064-0.4575958,1.798172c-0.0859146,0.3072205-0.0085602,0.5242615,0.2278061,0.7433777
			c0.2835846,0.2599335,0.5500031,0.5457153,0.7808914,0.8551331c0.2653427,0.3566284,0.4823532,0.7454681,0.7143402,1.1128693
			c0.5672684-0.2406769,1.1322327-0.4791565,1.7617569-0.7433777c0,0,0.690033-0.3112793,1.4680634,0.1953583
			c0.7780304,0.5066223,0,0,0,0l13.841713-0.6694794l9.4811249-3.0397491l0.9001541,0.2181702
			c0,0,0.6559067,0.0170593,0.963501,0.2341766C126.5873718,153.3061371,126.8517075,153.4666595,126.9547577,152.7712097z"/>
		<path class="st9" d="M129.1784058,161.8117828c-1.7122574,0.8272095-3.5265961,1.3707123-5.3388443,1.9143372
			c-1.0688705,0.3221893-2.1247635,0.6788025-3.1915436,1.0033112c-0.5929031,0.178299-1.1902008,0.3672791-1.8003693,0.4618835
			c-0.747673,0.1138458-1.4974289,0.2319946-2.26017,0.2319946c-0.5080872,0-1.0140915,0.1031799-1.5221786,0.1439819
			c-0.4629898,0.0408173-0.924881,0.0601807-1.3889694,0.09021c-0.3072357,0.0193481-0.6144638,0.0387115-0.9237823,0.0601654
			c-0.1246338,0.006485-0.2470627,0.0193634-0.3716888,0.0193634c-2.2387009-0.0065002-4.4795303,0.0128632-6.717041-0.0322418
			c-1.2879868-0.0236511-2.5727921-0.1525574-3.8607559-0.2341766c-0.4963455-0.0322418-0.9936523-0.0473022-1.4877777-0.1031799
			c-1.0012131-0.1224365-2.0024338-0.2491608-2.9992599-0.3995209c-1.0892181-0.165451-2.1806335-0.3223114-3.2569656-0.5565033
			c-1.3943787-0.3007355-2.7747726-0.6703339-4.1594543-1.0161743c-1.4118195-0.352951-2.7617416-0.960083-4.2137833-1.2547607
			c-0.5853119-0.1187744-1.1999359-0.2297211-1.6712952-0.5964813c-0.4713593-0.3667755-0.7319336-1.0842896-0.3933716-1.5763092
			c0.2736511-0.3976593,0.8252106-0.5144196,1.1311569-0.8878021c0.5773544-0.7046356,0.483284-1.4382019,1.5735321-1.6530457
			c0.2287521-0.0450897,0.4628983-0.0601654,0.691658-0.1052551c0.6348038-0.1246185,0.9077148-0.7068481,0.5908051-1.2740173
			c-0.0816193-0.1460724-0.1965485-0.2771912-0.3018417-0.4104004c-0.077301-0.0987854-0.1546555-0.1975708-0.2406769-0.285675
			c-0.8120193-0.8378754-0.5477982-2.068985,0.4415436-2.5953369c0.2170258-0.1160583,0.4393387-0.2299042,0.6638489-0.3329773
			c0.4028168-0.1827087,0.8067398-0.1805115,1.2181396-0.0021973c0.2395782,0.1074677,0.4888382,0.2062531,0.745575,0.257843
			c0.581131,0.1160431,1.0107956-0.3008575,0.9334641-0.8894653c-0.020462-0.1676331-0.0579681-0.337265-0.1095581-0.4984131
			c-0.3007431-0.8894501,0.3716888-2.1591797,1.3578568-2.4492493c0.5027008-0.1503754,0.9893188-0.3308868,1.5404205-0.1718292
			c0.9345856,0.2705994,1.4555206,0.9044189,1.5145874,1.9399567c0.0536804,0.9259796-0.1181412,1.8262329-0.3200989,2.7199707
			c-0.0622559,0.2728119-0.1557617,0.5371399-0.2362823,0.8035583c-0.0860138,0.285675-0.2857742,0.429657-0.5758209,0.4704742
			c-0.1837006,0.0236511-0.3631363,0.0730286-0.5478058,0.0987701c-1.0130081,0.1311188-1.7617798,0.6574707-2.2720718,1.5253754
			c-0.3694839,0.6360168-0.6519699,1.3106537-0.6208344,2.068985c0.0096741,0.2084503,0.0687485,0.43396,0.1686249,0.6166687
			c0.1568832,0.2792816,0.4361496,0.3995209,0.7551498,0.3501282c0.3276901-0.05159,0.5855331-0.2191162,0.6671524-0.5671692
			c0.0408096-0.178299,0.0644836-0.3651886,0.0816193-0.5522003c0.1095581-1.1922913,0.9861526-1.9464417,2.1763535-1.8605347
			c0.0934982,0.0085754,0.1869125,0.0279388,0.2793121,0.0193634c0.5875931-0.0430145,0.9689636,0.25354,1.2397003,0.7411804
			c0.3200989,0.5715637,0.5885849,1.1623688,0.6284027,1.8327026c0.0095978,0.1567535,0.0375137,0.3093262,0.0676498,0.4618988
			c0.0751343,0.3716888,0.2567444,0.5500031,0.6036835,0.6165466c0.3480606,0.0666656,0.6079712-0.0536804,0.788475-0.3523254
			c0.0730438-0.1203461,0.1354141-0.2470703,0.2094421-0.3631134c0.4178925-0.6832123,1.036644-1.0569916,1.8251419-1.1450958
			c0.3029175-0.0322418,0.5886993,0.047287,0.8454361,0.2041473c0.5209656,0.3264923,0.9044266,0.7540588,1.0355682,1.375
			c0.0182343,0.0923004,0.0375977,0.1846924,0.0654221,0.2707214c0.1955795,0.6100616,0.8379822,0.762619,1.2697296,0.2878723
			c0.1525726-0.1697388,0.2557526-0.388855,0.369606-0.5887299c0.1289368-0.2299042,0.231987-0.4769592,0.3716888-0.7003632
			c0.2964478-0.4704742,0.6487808-0.5865173,1.1536789-0.34375c0.3308792,0.1611481,0.6466904,0.3716888,0.9324722,0.6058807
			c0.3715973,0.3029327,0.4038086,0.5027008,0.2169189,0.9409332c-0.2792892,0.6574707-0.3823624,1.3428802-0.3716888,2.0453339
			c0.0010986,0.1848145,0.023674,0.3781891,0.0752335,0.5542908c0.1192398,0.388855,0.3652039,0.5628815,0.7540512,0.5628815
			c0.3727951,0.0021973,0.6037903-0.1524658,0.7240219-0.5327301c0.0806274-0.251358,0.1085739-0.5134888,0.1439896-0.7756195
			c0.0387192-0.2771912,0.0430069-0.5607758,0.0902023-0.8335724c0.1042786-0.5887299,0.4200897-1.0248718,0.9764709-1.2740173
			c0.6392059-0.2878723,1.3116379-0.3739014,2.0034256-0.3265991c0.4737701,0.0365295,0.7262192,0.2664185,0.8378754,0.73909
			c0.0504837,0.2126312,0.0730362,0.4275665,0.1289139,0.6381073c0.1117859,0.4082184,0.34375,0.5800323,0.7359009,0.5778351
			c0.3985291-0.0042877,0.6390991-0.1740112,0.7443695-0.5714417c0.0687485-0.2664337,0.0934982-0.5500031,0.1536713-0.8207245
			c0.1546631-0.7197266,0.8174133-1.0999908,1.52108-0.865799c0.3383636,0.1138458,0.6692657,0.2513428,0.9990234,0.384552
			c0.383461,0.1503754,0.6412964,0.4253693,0.7702408,0.8207092c0.0687256,0.2062531,0.1363983,0.4125061,0.2276993,0.608078
			c0.1847992,0.388855,0.4694595,0.5370331,0.8625946,0.474762c0.4233093-0.0687408,0.596199-0.25354,0.6530762-0.7154388
			c0.0150681-0.1246185,0.0129776-0.2513428,0.0172653-0.3737793c0.0279617-0.73909,0.4736633-1.1279297,1.2170639-1.0463104
			c0.1998444,0.0214386,0.3974075,0.0708313,0.5972977,0.1009674c0.167511,0.0257416,0.3394394,0.0536804,0.5080719,0.0558929
			c0.4544296,0.0042877,0.7251205-0.1783142,0.8808746-0.6144714c0.0730438-0.2041626,0.1020813-0.4210815,0.1621399-0.6316223
			c0.0623703-0.2041473,0.1418152-0.401825,0.2299042-0.6531677c0.4663162,0.0493774,0.8669052,0.085907,1.2654419,0.1352997
			c0.7713165,0.0988922,1.117157-0.2448578,1.0033035-1.0119019c-0.0376205-0.2642059-0.0944901-0.522049-0.1278152-0.7841797
			c-0.045105-0.3329773,0.0075912-0.6509857,0.218132-0.9280701c0.3221893-0.4147034,0.8099518-0.5349274,1.2889786-0.2857819
			c0.2750015,0.1417847,0.5199661,0.3416595,0.7820969,0.5028076c0.2105408,0.131012,0.4188843,0.2727966,0.6466904,0.3609161
			c0.4715729,0.1826019,0.8872833-0.0408173,1.0022125-0.5263519c0.0525818-0.223526,0.0365143-0.4640961,0.0547791-0.6961975
			c0.0214539-0.2599182,0.0322266-0.5263519,0.0752411-0.7862701c0.0514832-0.3244019,0.2707062-0.5155792,0.5757446-0.6079712
			c0.3673859-0.1117706,0.736908-0.1052704,1.1021118,0.0085754c0.2642975,0.0838165,0.4404144,0.2599335,0.5650482,0.5177765
			c0.2567291,0.5285492,0.5028076,1.0698547,0.8207092,1.5597992c0.6166534,0.9560089,1.1376343,1.9593201,1.5812378,3.0056305
			c0.2041626,0.4855499,0.4350586,0.9582214,0.6767273,1.4866486
			C132.213089,160.3508759,130.6920013,161.0770874,129.1784058,161.8117828z"/>
		<path class="st9" d="M101.2659073,156.4880066c0.3599243-1.1859131,0.5123825-2.4341888,0.6370087-3.6867676
			c0.2170334-2.1655579,0.7025757-4.251709,1.7874985-6.1660461c0.3931427-0.6938782,0.850853-1.3362732,1.3814926-1.9292908
			c1.1579742-1.2975616,2.6210785-2.0667877,4.2882385-2.4813843c1.9293137-0.4855347,3.8887253-0.6896973,5.8684998-0.4640808
			c2.6995163,0.3050232,5.0907135,1.3470612,7.0822449,3.2183838c1.0506058,0.9882355,1.725235,2.2279358,2.2504883,3.5535431
			c0.4587021,1.1600647,0.7789078,2.3567505,1.0044098,3.5813751c0.0558777,0.2986603,0.0387192,0.612381,0.0580826,0.9582214
			c-1.274025-0.131012-2.3375015,0.5671539-2.7274551,1.7359009c-0.1225357,0.3653107-0.212738,0.7412872-0.3233948,1.1322327
			c-0.2341919,0.0623779-0.4554062,0.1332092-0.6789246,0.1805115c-0.5381165,0.1138458-0.919487,0.4232788-1.17733,0.9023285
			c-0.085907,0.1632385-0.1772079,0.3243866-0.2685089,0.4855347c-0.0988922,0.1826019-0.257843,0.2792969-0.4575958,0.2599335
			c-0.8980408-0.085907-1.6715622,0.223526-2.4159317,0.7799072c-0.2310028-0.1052704-0.4888458-0.2040558-0.7251205-0.337265
			c-0.6295319-0.3566132-1.3105392-0.556488-2.0131149-0.6896973c-0.5822296-0.1116486-1.1042862,0.0860138-1.5715637,0.4232788
			c-0.4082108,0.2964478-0.8313828,0.3631134-1.3051529,0.1762238c-1.0226669-0.4061279-2.0560074-0.2772064-3.0389709,0.0901947
			c-0.6284256,0.2341919-1.0688477,0.2213135-1.5694809-0.2792969c-0.3823547-0.3824615-0.9077148-0.6445923-1.4061279-0.8873596
			c-0.7756119-0.3802795-1.5350494-0.2083435-2.2655334,0.1933746c-0.1707458,0.0924072-0.3652039,0.1482849-0.5553055,0.1933746
			c-0.2932587,0.0644684-0.5220642-0.0558777-0.7605438-0.2427673
			C102.0275497,156.9241486,101.6407852,156.7221985,101.2659073,156.4880066z"/>
		<path class="st9" d="M126.2511978,123.0926666c0.0579681-0.0987854,0.1073608-0.2127457,0.180397-0.3072357
			c0.4683838-0.6187439,0.9185028-1.2525635,1.4223022-1.8390884c0.8035431-0.9366455,1.7854156-1.6112747,2.9637299-2.0216904
			c1.4867554-0.515564,2.9895782-0.9345551,4.5676422-1.0333405c1.4942322-0.0945969,2.9390869,0.1332169,4.3118896,0.7497635
			c0.0944824,0.0408096,0.1816101,0.1031799,0.2954559,0.1697311c-0.3867645,0.4039154-0.8207092,0.7025681-1.2740173,0.9667892
			c-1.8863831,1.1021957-3.9230347,1.6564865-6.1112671,1.7252426c-2.213974,0.0687485-4.231369,0.7476654-6.0060043,2.1011047
			c-0.0471649,0.0365219-0.0998764,0.0666656-0.1997604,0.1332092
			C126.3467865,123.5029678,126.3016891,123.3054047,126.2511978,123.0926666z"/>
		<path class="st9" d="M136.3123474,134.1699982c4.2517242-0.72612,7.9813843-2.4535522,11.4533081-4.8618927
			c0.0665588,0.1439819,0.1289215,0.2642212,0.1772156,0.388855c0.7530518,1.8798981,1.3352814,3.8091888,1.6112823,5.8180084
			c0.3191071,2.3289185,0.212738,4.6191101-0.6595612,6.8341827c-1.0096893,2.5609131-2.7789307,4.45578-5.1475677,5.8179016
			c-0.1858978,0.1095581-0.3792725,0.2084503-0.5726624,0.309433c-0.2340698,0.120224-0.4725494,0.2319946-0.7379913,0.3652039
			c-0.075119-0.1352997-0.1492615-0.2685089-0.220108-0.4017181c-0.6789093-1.2912903-1.2762146-2.6147003-1.7166595-4.0090637
			c-0.350235-1.110672-0.8637085-2.1504974-1.415802-3.1753693c-0.6316223-1.1751404-1.2460785-2.3568573-1.5661774-3.6631165
			c-0.1482697-0.6014709-0.3051453-1.1987762-0.4286804-1.804657
			C136.973999,135.2141113,136.7967834,134.6770935,136.3123474,134.1699982z"/>
	</g>
</g>
<g>
	<path class="st13" d="M78.2883759,215.2333984c0.2758789,0.1533203,0.4287109,0.4287109,0.4287109,0.8271484
		c0,0.2294922-0.0458984,0.4736328-0.1376953,0.71875c-0.2451172,0.8720703-0.4589844,1.5917969-0.6274414,2.1425781
		c-0.1835938,0.5664062-0.3212891,0.9648438-0.4287109,1.2089844c-0.1835938,0.5361328-0.5356445,0.8115234-1.0712891,0.8417969
		c-0.3364258-0.0458984-0.6123047-0.1679688-0.8417969-0.3671875c-0.1987305-0.1992188-0.3061523-0.4746094-0.3061523-0.8261719
		c0.1225586-0.4287109,0.4746094-1.484375,1.0869141-3.1992188c0.0917969-0.3056641,0.1987305-0.5810547,0.2905273-0.8105469
		c0.1533203-0.4746094,0.4135742-0.7197266,0.7807617-0.7197266
		C77.7683563,215.0498047,78.0437469,215.1113281,78.2883759,215.2333984z M77.2786102,211.2236328
		c0.2602539,0.1689453,0.5356445,0.4130859,0.8417969,0.75c0.581543,0.765625,0.9179688,1.3320312,0.9946289,1.7138672
		c0.0307617-0.2294922,0.1069336-0.3974609,0.2143555-0.4892578c0.168457-0.1533203,0.4438477-0.2451172,0.8261719-0.2451172
		h3.3520508v-1.7294922h-2.081543c-0.1533203,0.3066406-0.2910156,0.5664062-0.4287109,0.78125
		c-0.1220703,0.3212891-0.4438477,0.4736328-0.9638672,0.4736328c-0.2451172,0-0.4897461-0.1064453-0.7197266-0.3515625
		c-0.1987305-0.1220703-0.2905273-0.3369141-0.2905273-0.6582031c0-0.1835938,0.0766602-0.3828125,0.2294922-0.6123047
		c0.4897461-0.7958984,0.902832-1.7597656,1.2548828-2.8623047c0.1074219-0.3974609,0.3828125-0.5966797,0.8417969-0.5966797
		c0.2753906,0,0.5512695,0.0917969,0.7958984,0.2451172c0.2143555,0.1220703,0.3369141,0.3671875,0.3369141,0.7041016
		c-0.0307617,0.2294922-0.0766602,0.4746094-0.168457,0.7197266h1.1938477v-0.8876953
		c0-0.3984375,0.0761719-0.6894531,0.2602539-0.8730469c0.152832-0.1835938,0.4433594-0.2753906,0.8720703-0.2753906
		c0.4438477,0,0.75,0.0917969,0.918457,0.2753906c0.1835938,0.1835938,0.2753906,0.4746094,0.2753906,0.8730469v0.8876953h2.1577148
		c0.3979492,0,0.6582031,0.0761719,0.7807617,0.2294922c0.152832,0.1679688,0.2294922,0.4589844,0.2294922,0.8564453
		c0,0.3671875-0.0610352,0.6279297-0.1835938,0.7802734c-0.152832,0.1992188-0.4287109,0.2910156-0.8266602,0.2910156H85.833786
		v1.7294922h2.5097656c0.3828125,0,0.6582031,0.0917969,0.8417969,0.2451172
		c0.1533203,0.1376953,0.2294922,0.4130859,0.2294922,0.8417969c0,0.3369141-0.0610352,0.5664062-0.1835938,0.71875
		c-0.1987305,0.2451172-0.4897461,0.3525391-0.8876953,0.3525391h-1.7905273v2.9228516
		c0,0.2910156,0.1376953,0.4287109,0.4130859,0.4287109h0.1835938c0.0463867,0,0.1225586-0.0761719,0.2451172-0.2294922
		c0.1069336-0.1835938,0.168457-0.5820312,0.168457-1.2089844c0.0151367-0.1835938,0.0917969-0.3369141,0.2446289-0.4443359
		c0.1225586-0.0917969,0.2753906-0.1523438,0.4746094-0.1523438c0.2905273,0,0.5356445,0.0761719,0.7192383,0.2138672
		c0.2143555,0.1679688,0.3369141,0.4287109,0.3520508,0.7958984c0,0.9794922-0.1069336,1.7138672-0.3212891,2.1884766
		c-0.2910156,0.6425781-0.7041016,0.9951172-1.2246094,1.0410156h-1.7294922c-1.2089844,0-1.8056641-0.5966797-1.8056641-1.7910156
		v-3.7646484h-0.8266602c-0.0917969,0.9794922-0.3364258,1.9287109-0.7036133,2.8164062
		c-0.5053711,1.1474609-1.2397461,2.0507812-2.2041016,2.7392578c-0.1835938,0.1533203-0.4130859,0.2451172-0.6884766,0.2451172
		c-0.4594727,0-0.7807617-0.1230469-0.9492188-0.3369141c-0.2446289-0.2451172-0.3671875-0.5048828-0.3671875-0.75
		c0-0.3212891,0.1225586-0.5966797,0.3671875-0.8261719c0.8110352-0.6123047,1.4233398-1.3017578,1.8212891-2.0820312
		c0.2294922-0.4589844,0.3828125-1.0712891,0.4589844-1.8056641h-1.0253906c-0.3671875,0-0.6425781-0.0761719-0.8261719-0.2607422
		c-0.1533203-0.1220703-0.2451172-0.3671875-0.2451172-0.703125c-0.0610352,0.1835938-0.152832,0.3212891-0.2905273,0.3974609
		c-0.1992188,0.2138672-0.5205078,0.3212891-0.9643555,0.3212891c-0.3823242,0-0.6582031-0.1992188-0.8417969-0.5966797
		c-0.4282227-0.6738281-0.8417969-1.2705078-1.2397461-1.8212891c-0.1376953-0.1220703-0.1987305-0.2451172-0.1987305-0.3828125
		c0-0.3515625,0.152832-0.6269531,0.4897461-0.8261719c0.2446289-0.1220703,0.5205078-0.1992188,0.8266602-0.1992188
		C77.033493,211.0400391,77.1711884,211.1015625,77.2786102,211.2236328z M77.5847626,207.3974609
		c0.2294922,0.1533203,0.4897461,0.3984375,0.7802734,0.7197266c0.6274414,0.8105469,0.9487305,1.4082031,0.9487305,1.7900391
		c0,0.3222656-0.1069336,0.5361328-0.3212891,0.6582031c-0.1835938,0.1992188-0.5048828,0.2910156-0.9335938,0.2910156
		c-0.3520508,0-0.6118164-0.1679688-0.7802734-0.5351562c-0.4594727-0.6123047-0.9033203-1.1630859-1.331543-1.6689453
		c-0.1533203-0.1064453-0.2143555-0.2294922-0.2143555-0.3515625c0-0.3671875,0.168457-0.6738281,0.5205078-0.8876953
		c0.2446289-0.1220703,0.5200195-0.1992188,0.8569336-0.1992188
		C77.2937469,207.2138672,77.462204,207.2753906,77.5847626,207.3974609z"/>
	<path class="st13" d="M92.7009735,207.3369141c0.2138672,0.1679688,0.4589844,0.4130859,0.734375,0.75
		c0.4438477,0.6572266,0.7192383,1.1777344,0.8417969,1.5449219c0.0151367-0.0605469,0.0458984-0.1064453,0.0917969-0.1523438
		c0.0917969-0.0615234,0.2446289-0.1074219,0.4287109-0.1074219h2.2036133v-0.3671875
		c0-0.1074219-0.0610352-0.1689453-0.168457-0.1689453h-2.1577148c-0.3061523,0-0.4746094-0.2138672-0.4746094-0.6572266
		c0-0.5205078,0.168457-0.78125,0.5356445-0.78125h2.9233398c0.7651367,0.015625,1.1479492,0.4130859,1.1479492,1.1943359v3.1679688
		c0,0.6425781-0.3979492,0.9638672-1.1938477,0.9638672h-1.1020508c0.0917969,0.0458984,0.1835938,0.0917969,0.2753906,0.1533203
		c0.1992188,0.1074219,0.3061523,0.3369141,0.3217773,0.6728516h2.1884766
		c0.0302734-0.1220703,0.0761719-0.2597656,0.1069336-0.4130859c0.0766602-0.1835938,0.2143555-0.3369141,0.4287109-0.4287109
		c-0.4135742-0.0302734-0.6123047-0.2900391-0.6123047-0.7646484s0.152832-0.7197266,0.4746094-0.7197266h2.387207
		c0.0766602,0,0.1225586-0.0146484,0.1225586-0.0605469v-0.4746094H99.939743c-0.2143555,0-0.3520508-0.0458984-0.4438477-0.1689453
		c-0.1069336-0.0917969-0.152832-0.2441406-0.152832-0.4892578s0.0458984-0.4287109,0.1679688-0.5507812
		c0.0922852-0.0615234,0.2451172-0.1074219,0.4287109-0.1074219h2.2651367v-0.3671875
		c0-0.1074219-0.0610352-0.1689453-0.168457-0.1689453h-2.2192383c-0.3061523,0-0.4741211-0.2138672-0.4741211-0.6572266
		c0-0.5205078,0.1679688-0.78125,0.5356445-0.78125h2.984375c0.75,0.015625,1.1323242,0.4130859,1.1323242,1.1943359v3.1679688
		c0,0.6425781-0.3979492,0.9638672-1.1938477,0.9638672h-1.7597656c0.0307617,0.015625,0.0458984,0.0302734,0.0610352,0.0302734
		c0.1992188,0.1230469,0.3061523,0.3222656,0.3369141,0.5664062c0,0.0458984-0.015625,0.1230469-0.0458984,0.2294922h2.1884766
		c0.2446289,0,0.4287109,0.0615234,0.5205078,0.1533203s0.1376953,0.2607422,0.1376953,0.5048828
		c0,0.2451172-0.0458984,0.4287109-0.1225586,0.5205078c-0.1069336,0.1376953-0.2910156,0.1992188-0.5356445,0.1992188h-2.2651367
		v0.4746094h2.081543c0.2294922,0,0.3823242,0.0605469,0.4741211,0.1523438
		c0.0766602,0.0917969,0.1225586,0.2607422,0.1225586,0.5058594c0,0.2294922-0.0302734,0.3974609-0.0917969,0.4892578
		c-0.1069336,0.1220703-0.2753906,0.1679688-0.5048828,0.1679688h-2.081543v0.4902344h2.081543
		c0.2294922,0,0.3823242,0.0458984,0.4741211,0.1376953c0.0766602,0.0917969,0.1225586,0.2753906,0.1225586,0.5205078
		c0,0.2138672-0.0302734,0.3828125-0.0917969,0.4746094c-0.1069336,0.1220703-0.2753906,0.1679688-0.5048828,0.1679688h-2.081543
		v0.6123047h2.2651367c0.5205078,0,0.7802734,0.2597656,0.7802734,0.765625c0,0.5507812-0.2597656,0.8408203-0.7802734,0.8408203
		h-7.8359375c-0.7958984,0-1.1938477-0.3974609-1.1938477-1.1933594v-2.7089844
		c-0.1835938,0-0.3364258-0.0615234-0.4897461-0.1835938c-0.0151367,0.0302734-0.0307617,0.0615234-0.0307617,0.0761719
		c-0.2753906,0.8730469-0.5200195,1.5917969-0.7192383,2.1435547c-0.2143555,0.5654297-0.3671875,0.9638672-0.4897461,1.2089844
		c-0.1835938,0.5351562-0.5356445,0.8105469-1.0712891,0.8417969c-0.3364258-0.0458984-0.6123047-0.1689453-0.8417969-0.3681641
		c-0.1987305-0.1982422-0.3061523-0.4736328-0.3061523-0.8261719c0.1381836-0.4287109,0.5664062-1.484375,1.2705078-3.1982422
		c0.1225586-0.3066406,0.2294922-0.5820312,0.3520508-0.8115234c0.152832-0.4746094,0.4130859-0.71875,0.7802734-0.71875
		c0.3061523,0,0.5664062,0.0605469,0.7807617,0.1835938c0.0151367,0.0146484,0.0307617,0.0302734,0.0458984,0.0302734
		c0.4897461-0.5507812,0.918457-1.1933594,1.3164062-1.9433594c0.0917969-0.2607422,0.1987305-0.4443359,0.3515625-0.5361328
		h-0.7651367c-0.4897461,0-0.7192383-0.2597656-0.7192383-0.7802734c0-0.4746094,0.1533203-0.7197266,0.4746094-0.7197266h2.402832
		c0.0610352,0,0.1069336-0.0146484,0.1069336-0.0605469v-0.4746094h-2.2036133
		c-0.2143555,0-0.3520508-0.0458984-0.4438477-0.1689453c-0.0615234-0.0302734-0.0917969-0.0917969-0.1074219-0.1835938
		c-0.0610352,0.1230469-0.1376953,0.1992188-0.2446289,0.2451172c-0.1835938,0.1835938-0.4746094,0.2753906-0.8725586,0.2753906
		c-0.3364258,0-0.5664062-0.1679688-0.7192383-0.5351562c-0.3979492-0.6738281-0.7958984-1.2705078-1.1782227-1.8066406
		c-0.1381836-0.1220703-0.1992188-0.2597656-0.1992188-0.3974609c0-0.3212891,0.1533203-0.5820312,0.4746094-0.7802734
		c0.2143555-0.1230469,0.4741211-0.1835938,0.7802734-0.1835938
		C92.4407196,207.1533203,92.5784149,207.2138672,92.7009735,207.3369141z M92.470993,211.2851562
		c0.1835938,0.1533203,0.3979492,0.3974609,0.6430664,0.734375c0.5200195,0.8417969,0.7802734,1.4541016,0.7802734,1.8369141
		c0,0.3212891-0.1069336,0.5351562-0.3212891,0.6582031c-0.1835938,0.1982422-0.5048828,0.2900391-0.9335938,0.2900391
		c-0.3520508,0-0.6123047-0.1679688-0.7651367-0.5351562c-0.3369141-0.6425781-0.6733398-1.2392578-0.9794922-1.7753906
		c-0.1225586-0.1074219-0.168457-0.2294922-0.168457-0.3671875c0-0.3525391,0.168457-0.6279297,0.5053711-0.8261719
		c0.2294922-0.1230469,0.5048828-0.1992188,0.8110352-0.1992188
		C92.2112274,211.1015625,92.3489227,211.1630859,92.470993,211.2851562z M99.2205048,214.9277344h-2.5712891v0.4746094h2.5712891
		V214.9277344z M99.2205048,216.7177734h-2.5712891v0.4902344h2.5712891V216.7177734z M99.2205048,218.5087891h-2.5712891v0.3066406
		c0,0.2138672,0.0917969,0.3056641,0.3061523,0.3056641h2.2651367V218.5087891z"/>
	<path class="st13" d="M117.0769501,219.3046875c-0.8569336,0.6582031-2.1425781,0.9951172-3.8261719,0.9951172
		c-1.4541016-0.03125-2.5253906-0.3212891-3.1987305-0.8876953c-0.7651367-0.6279297-1.1323242-1.6533203-1.1323242-3.0761719
		c0-0.1835938,0-0.3984375,0.0151367-0.6123047c-0.75,0-1.4692383-0.03125-2.1425781-0.1074219
		c-0.5205078-0.0917969-0.7651367-0.4589844-0.7651367-1.1015625c0-0.2910156,0.0917969-0.5361328,0.2753906-0.7353516
		c0.1835938-0.1679688,0.3979492-0.2597656,0.6425781-0.2597656c1.0410156,0.0917969,1.8061523,0.1376953,2.2651367,0.1376953
		c0.0307617-0.3212891,0.0917969-0.8720703,0.1835938-1.6376953c-0.3364258,0-0.7802734,0-1.3007812-0.0146484
		c-0.3520508,0-0.6274414-0.03125-0.8261719-0.0927734c-0.5512695-0.1220703-0.8115234-0.4433594-0.8115234-0.9941406
		c0-0.2753906,0.0766602-0.5048828,0.2451172-0.7041016c0.152832-0.1835938,0.3823242-0.2910156,0.6582031-0.3066406
		c0.2138672,0,0.5507812,0.015625,0.9946289,0.0458984c0.6123047,0.0615234,1.0405273,0.0771484,1.2548828,0.0771484
		c0-0.3671875,0.0458984-0.9335938,0.1376953-1.6992188c0.0458984-0.2753906,0.1835938-0.4892578,0.4135742-0.6582031
		c0.2294922-0.1523438,0.5048828-0.2441406,0.8110352-0.2441406c0.3212891,0,0.581543,0.0917969,0.7958984,0.2441406
		c0.1987305,0.1689453,0.3056641,0.3828125,0.3056641,0.6435547l-0.1835938,1.6679688
		c0.5512695-0.03125,1.2856445-0.0917969,2.1733398-0.1835938c0.2294922,0,0.4287109,0.0917969,0.581543,0.2451172
		c0.1533203,0.1835938,0.2451172,0.3974609,0.2451172,0.6572266c0,0.6738281-0.2602539,1.0410156-0.7807617,1.1171875
		c-0.4897461,0.0917969-1.3007812,0.1533203-2.4638672,0.1992188c-0.0307617,0.3369141-0.0917969,0.8876953-0.1835938,1.6533203
		c0.3061523-0.015625,0.734375-0.0458984,1.3007812-0.1074219c0.4287109-0.0302734,0.734375-0.0615234,0.9487305-0.0615234
		c0.2451172,0,0.4594727,0.0917969,0.6430664,0.2607422c0.152832,0.1835938,0.2446289,0.4130859,0.2446289,0.6884766
		c0,0.6123047-0.3212891,0.9794922-0.9638672,1.0869141c-0.597168,0.1220703-1.4082031,0.1679688-2.418457,0.1679688
		c-0.0151367,0.2148438-0.0151367,0.3984375-0.0151367,0.5507812c0,0.765625,0.152832,1.2861328,0.4589844,1.5771484
		c0.3061523,0.2900391,0.8725586,0.4277344,1.6835938,0.4277344c1.8364258,0,2.7700195-0.5810547,2.7700195-1.7441406
		c0-0.2910156-0.0610352-0.5820312-0.168457-0.8574219c-0.1069336-0.2753906-0.2138672-0.5351562-0.3212891-0.7958984
		c-0.0610352-0.1376953-0.0766602-0.2597656-0.0766602-0.3828125c0-0.2753906,0.0766602-0.5048828,0.2451172-0.71875
		c0.168457-0.1992188,0.3828125-0.3066406,0.6582031-0.3066406c0.5356445,0,0.9179688,0.1992188,1.1630859,0.5976562
		c0.4897461,0.7949219,0.734375,1.6064453,0.734375,2.4482422
		C118.3469696,217.7285156,117.9187469,218.6621094,117.0769501,219.3046875z"/>
	<path class="st13" d="M127.6326141,211.3925781c-0.6425781,0.1835938-1.637207,0.3359375-2.96875,0.4433594
		c-0.7807617,3.1220703-1.5307617,5.6318359-2.2651367,7.4990234c-0.1835938,0.4746094-0.5205078,0.7197266-1.0102539,0.7197266
		c-0.3061523-0.015625-0.5664062-0.1220703-0.7958984-0.3212891c-0.2446289-0.1992188-0.3520508-0.4589844-0.3520508-0.765625
		c0-0.1376953,0.0307617-0.2910156,0.0917969-0.4433594c0.6123047-1.5917969,1.2856445-3.7802734,2.0048828-6.5351562
		c-0.5507812,0.0302734-1.0556641,0.0302734-1.5151367,0.0302734c-0.3671875,0-0.6425781-0.0917969-0.8261719-0.3056641
		c-0.1835938-0.2294922-0.2753906-0.4902344-0.2753906-0.765625c0-0.2910156,0.0917969-0.5507812,0.2905273-0.7646484
		c0.1835938-0.2148438,0.4589844-0.3222656,0.8110352-0.3222656c0.6123047,0,1.3012695-0.0146484,2.0507812-0.0605469
		c0.1074219-0.5048828,0.1992188-0.9492188,0.2602539-1.3320312c0.0917969-0.6123047,0.4594727-0.9335938,1.1020508-0.9335938
		c0.2910156,0.015625,0.5507812,0.1230469,0.7651367,0.3066406c0.2143555,0.1992188,0.3369141,0.4589844,0.3369141,0.7646484
		c0,0.1376953-0.0615234,0.4746094-0.168457,1.0107422c0.8417969-0.0917969,1.4692383-0.1835938,1.8671875-0.3066406
		c0.1069336-0.0302734,0.2143555-0.0458984,0.3369141-0.0458984c0.3056641,0,0.5507812,0.1230469,0.7495117,0.3369141
		c0.1835938,0.2138672,0.2910156,0.4746094,0.3217773,0.75
		C128.4441376,210.8720703,128.1682587,211.2236328,127.6326141,211.3925781z M132.0251923,219.8251953
		c-0.6274414,0.1533203-1.3466797,0.2451172-2.1733398,0.2451172c-1.6835938,0-2.8007812-0.1230469-3.3823242-0.3369141
		c-0.8569336-0.3369141-1.2856445-1.0566406-1.2856445-2.1425781c0-0.5820312,0.1225586-1.0869141,0.3676758-1.484375
		c0.2446289-0.3984375,0.565918-0.5976562,0.9638672-0.5976562c0.3061523,0,0.5664062,0.0917969,0.7651367,0.2451172
		c0.184082,0.1533203,0.2910156,0.3525391,0.2910156,0.5966797c0,0.1230469-0.0458984,0.3212891-0.1225586,0.5820312
		c-0.0761719,0.2753906-0.1069336,0.4589844-0.1069336,0.5507812c0,0.2138672,0.152832,0.3828125,0.4589844,0.4746094
		c0.2143555,0.0917969,0.4438477,0.1220703,0.7041016,0.1220703c0.3671875,0,0.902832-0.0458984,1.6069336-0.1679688
		c0.6889648-0.1074219,1.2089844-0.1689453,1.5761719-0.1689453c0.8115234,0,1.2241211,0.3681641,1.2241211,1.0869141
		C132.9123993,219.3505859,132.6067352,219.671875,132.0251923,219.8251953z M132.0710907,213.5957031
		c-0.2143555,0.2148438-0.4897461,0.3222656-0.8417969,0.3222656c-0.4589844,0-1.0864258,0.0458984-1.8671875,0.1064453
		c-0.8261719,0.0917969-1.4384766,0.1835938-1.8212891,0.2753906c-0.1069336,0.03125-0.2143555,0.03125-0.3061523,0.03125
		c-0.3364258,0-0.5966797-0.1230469-0.7954102-0.3828125c-0.184082-0.2148438-0.2602539-0.4902344-0.2602539-0.8115234
		c0-0.4892578,0.2753906-0.7958984,0.8417969-0.9335938c0.4897461-0.1220703,1.1933594-0.2294922,2.1118164-0.3212891
		c0.8876953-0.0615234,1.6225586-0.1074219,2.1733398-0.1074219c0.3364258,0.015625,0.5966797,0.1230469,0.8110352,0.3369141
		c0.168457,0.2148438,0.2602539,0.4589844,0.2602539,0.734375
		C132.377243,213.1367188,132.2703094,213.3818359,132.0710907,213.5957031z M131.5505829,210.3056641
		c-0.1376953,0.1074219-0.2753906,0.1533203-0.4130859,0.1533203c-0.2602539,0-0.4589844-0.1074219-0.581543-0.3212891
		c-0.1376953-0.2148438-0.3671875-0.5664062-0.6884766-1.0712891c-0.184082-0.2607422-0.2602539-0.4902344-0.2602539-0.6738281
		c0-0.3671875,0.2294922-0.5507812,0.6884766-0.5507812c0.2143555,0,0.3979492,0.1064453,0.581543,0.3056641
		c0.3061523,0.3984375,0.5664062,0.7958984,0.7651367,1.2089844c0.0615234,0.1689453,0.1074219,0.3525391,0.1074219,0.5664062
		C131.7498016,210.0761719,131.6731415,210.1982422,131.5505829,210.3056641z M132.9582977,209.8925781
		c-0.2597656,0-0.4584961-0.1074219-0.5810547-0.3212891c-0.1376953-0.2148438-0.3671875-0.5664062-0.6889648-1.0712891
		c-0.1835938-0.2607422-0.2597656-0.4902344-0.2597656-0.6738281c0-0.3671875,0.2294922-0.5507812,0.6884766-0.5507812
		c0.2143555,0,0.3979492,0.1074219,0.581543,0.3056641c0.3056641,0.3984375,0.5664062,0.7958984,0.7646484,1.2089844
		c0.0615234,0.1689453,0.1074219,0.3525391,0.1074219,0.5664062
		C133.5706024,209.7236328,133.3567352,209.8925781,132.9582977,209.8925781z"/>
	<path class="st13" d="M140.3313446,218.7080078c-0.8574219,0.9482422-1.6533203,1.4384766-2.4179688,1.4384766
		c-1.0410156,0-1.8066406-0.5205078-2.3115234-1.5458984c-0.4130859-0.8261719-0.6884766-2.1123047-0.8105469-3.8417969
		c-0.0458984-0.5966797-0.0615234-1.1933594-0.0615234-1.8056641c0-0.2910156,0.0458984-1.2705078,0.1533203-2.9228516
		c0.0146484-0.3369141,0.1523438-0.5966797,0.4130859-0.7958984c0.2451172-0.1835938,0.5507812-0.2753906,0.9179688-0.2753906
		c0.3212891,0,0.5820312,0.1074219,0.765625,0.3056641c0.1835938,0.1992188,0.2900391,0.4589844,0.2900391,0.765625
		c0,0.0917969-0.0146484,0.6123047-0.0458984,1.5761719c-0.0458984,1.0556641-0.0605469,1.8828125-0.0605469,2.4794922
		c0,0.9794922,0.0761719,1.7910156,0.2451172,2.4638672c0.1679688,0.734375,0.3974609,1.1015625,0.6728516,1.1015625
		c0.3671875,0,0.8115234-0.5048828,1.3320312-1.5449219c0.2597656-0.5361328,0.5810547-0.8115234,0.9482422-0.8115234
		c0.7802734,0,1.1787109,0.3056641,1.1787109,0.9033203C141.540329,216.9326172,141.127243,217.7744141,140.3313446,218.7080078z
		 M146.6516571,218.1416016c-0.2441406,0.2138672-0.5048828,0.3056641-0.8105469,0.3056641
		c-0.3066406,0-0.5664062-0.0917969-0.78125-0.2753906c-0.2138672-0.1835938-0.3359375-0.4589844-0.3515625-0.7958984
		c-0.0302734-0.6884766-0.2451172-1.7900391-0.6123047-3.3056641c-0.3671875-1.4541016-0.7041016-2.5253906-0.9951172-3.1982422
		c-0.0761719-0.1533203-0.1064453-0.3212891-0.1064453-0.4746094c0-0.3056641,0.1064453-0.5507812,0.3515625-0.765625
		c0.2451172-0.1982422,0.5205078-0.3056641,0.8271484-0.3056641c0.4589844,0,0.7949219,0.2294922,0.9941406,0.6738281
		c0.3369141,0.8105469,0.7197266,2.0048828,1.1171875,3.5957031c0.3984375,1.6376953,0.6279297,2.8623047,0.6738281,3.6884766
		C146.9582977,217.6367188,146.8508759,217.9277344,146.6516571,218.1416016z"/>
	<path class="st13" d="M159.7346649,215.4628906c-0.7958984,1.2705078-1.3623047,2.1123047-1.6992188,2.5107422
		c-0.6123047,0.7646484-1.2851562,1.3154297-1.9892578,1.6523438c-0.8271484,0.3984375-1.8369141,0.5966797-3.0615234,0.5966797
		c-1.3466797,0-2.3564453-0.4130859-3.0302734-1.2392578c-0.5810547-0.7041016-0.8564453-1.6376953-0.8564453-2.8310547
		c0-1.1025391,0.0761719-3.5361328,0.2441406-7.2705078c0-0.3359375,0.1230469-0.6113281,0.3671875-0.8261719
		c0.1992188-0.1533203,0.4599609-0.2451172,0.765625-0.2451172c0.3056641,0.015625,0.5507812,0.1074219,0.765625,0.2910156
		c0.2138672,0.2148438,0.3212891,0.4902344,0.3212891,0.8574219c-0.1689453,3.703125-0.2451172,6.0908203-0.2451172,7.1933594
		c0,0.71875,0.1220703,1.2236328,0.3828125,1.5302734c0.2597656,0.3056641,0.6884766,0.4433594,1.2851562,0.4433594
		c1.1943359,0,2.0966797-0.2753906,2.7246094-0.8564453c0.3828125-0.3369141,1.1015625-1.3466797,2.1425781-3
		c0.2138672-0.3369141,0.5351562-0.5205078,0.9335938-0.5205078c0.3212891,0,0.5966797,0.1220703,0.8105469,0.3369141
		c0.2148438,0.2294922,0.3222656,0.5048828,0.3222656,0.8115234
		C159.9182587,215.0810547,159.8567352,215.2646484,159.7346649,215.4628906z M157.4075165,210.8564453
		c-0.1376953,0.1230469-0.2753906,0.1689453-0.4130859,0.1689453c-0.2597656,0-0.4589844-0.1074219-0.5810547-0.3222656
		c-0.1376953-0.2138672-0.3671875-0.5654297-0.6894531-1.0712891c-0.1835938-0.2597656-0.2597656-0.4892578-0.2597656-0.6728516
		c0-0.3671875,0.2294922-0.5507812,0.6884766-0.5507812c0.2148438,0,0.3984375,0.1064453,0.5820312,0.3056641
		c0.3056641,0.3984375,0.5664062,0.7958984,0.7646484,1.2089844c0.0615234,0.1689453,0.1074219,0.3525391,0.1074219,0.5664062
		C157.6067352,210.6425781,157.5305634,210.7646484,157.4075165,210.8564453z M158.8010712,210.2138672
		c-0.2607422,0-0.4599609-0.1074219-0.5820312-0.3212891c-0.1376953-0.2148438-0.3671875-0.5664062-0.6884766-1.0712891
		c-0.1835938-0.2607422-0.2607422-0.4902344-0.2607422-0.6738281c0-0.3671875,0.2294922-0.5507812,0.6894531-0.5507812
		c0.2138672,0,0.3974609,0.1074219,0.5810547,0.3056641c0.3066406,0.3984375,0.5664062,0.7958984,0.765625,1.2099609
		c0.0605469,0.1679688,0.1064453,0.3515625,0.1064453,0.5654297
		C159.4123993,210.0458984,159.1985321,210.2138672,158.8010712,210.2138672z"/>
	<path class="st13" d="M173.1057587,210.4736328c-0.5205078,0.1074219-1.0400391,0.2148438-1.5605469,0.3066406
		c-0.6738281,0.1835938-1.2402344,0.4589844-1.6992188,0.8261719c-1.4082031,1.1015625-2.0966797,2.4492188-2.0966797,4.0253906
		c0,0.6728516,0.2294922,1.1630859,0.6884766,1.46875c0.5976562,0.4130859,1.6689453,0.6123047,3.2294922,0.6123047
		c0.734375,0,1.1025391,0.3828125,1.1025391,1.1171875c0,0.3066406-0.0917969,0.5507812-0.2763672,0.75
		c-0.2138672,0.2294922-0.4892578,0.3525391-0.8261719,0.3525391c-4.1015625,0-6.1367188-1.4238281-6.1367188-4.3007812
		c0-1.6533203,0.7646484-3.2294922,2.3105469-4.7294922c-1.7441406,0.1992188-3.5507812,0.4287109-5.4179688,0.7041016
		c-0.4130859,0-0.71875-0.0917969-0.9335938-0.2910156c-0.2441406-0.2441406-0.3515625-0.5351562-0.3515625-0.8720703
		c0-0.6123047,0.3056641-0.9638672,0.9335938-1.0253906c5.2646484-0.75,8.953125-1.1328125,11.0654297-1.1328125
		c0.3359375,0,0.5966797,0.1074219,0.7958984,0.3066406c0.1835938,0.2138672,0.2900391,0.4589844,0.3056641,0.734375
		C174.2385712,209.9384766,173.8557587,210.3212891,173.1057587,210.4736328z M172.2952118,214.6826172
		c-0.1376953,0.1074219-0.2753906,0.1533203-0.4130859,0.1533203c-0.2607422,0-0.4599609-0.1074219-0.5820312-0.3212891
		c-0.1376953-0.2148438-0.3671875-0.5664062-0.6884766-1.0712891c-0.1835938-0.2607422-0.2607422-0.4902344-0.2607422-0.6738281
		c0-0.3671875,0.2294922-0.5507812,0.6894531-0.5507812c0.2138672,0,0.3974609,0.1074219,0.5810547,0.3056641
		c0.3066406,0.3984375,0.5664062,0.7958984,0.765625,1.2089844c0.0605469,0.1689453,0.1064453,0.3525391,0.1064453,0.5664062
		C172.493454,214.453125,172.4172821,214.5751953,172.2952118,214.6826172z M173.7180634,214.2998047
		c-0.2597656,0-0.4589844-0.1064453-0.5810547-0.3212891c-0.1376953-0.2138672-0.3671875-0.5664062-0.6894531-1.0712891
		c-0.1835938-0.2597656-0.2597656-0.4892578-0.2597656-0.6728516c0-0.3681641,0.2294922-0.5517578,0.6884766-0.5517578
		c0.2148438,0,0.3984375,0.1074219,0.5820312,0.3066406c0.3056641,0.3974609,0.5664062,0.7958984,0.7646484,1.2089844
		c0.0615234,0.1679688,0.1074219,0.3515625,0.1074219,0.5664062
		C174.330368,214.1318359,174.1165009,214.2998047,173.7180634,214.2998047z"/>
	<path class="st13" d="M186.814743,211.0859375c-0.8564453-0.0458984-1.8359375-0.0761719-2.96875-0.0761719
		c-0.015625,0.5966797-0.0302734,1.46875-0.0615234,2.6015625c0.3212891,0.5507812,0.4902344,1.1474609,0.4902344,1.7753906
		c0,1.3466797-0.5820312,2.5712891-1.7451172,3.6884766c-1.1171875,1.0712891-2.234375,1.6064453-3.3515625,1.6064453
		c-0.2910156,0-0.5205078-0.1064453-0.7041016-0.2900391c-0.1992188-0.1992188-0.2910156-0.4443359-0.2910156-0.7353516
		c0-0.3671875,0.2763672-0.6728516,0.8574219-0.9482422c0.5048828-0.2451172,0.8417969-0.4130859,1.0253906-0.5048828
		c0.3369141-0.1835938,0.6582031-0.4287109,0.9794922-0.7041016c-1.2246094-0.0615234-2.1582031-0.3828125-2.7705078-0.9335938
		c-0.5507812-0.4746094-0.8261719-1.1025391-0.8261719-1.8671875c0-0.8271484,0.3525391-1.515625,1.0566406-2.0361328
		c0.4589844-0.3359375,1.1630859-0.5195312,2.1113281-0.5195312c0.2910156,0,0.6123047,0.0146484,0.9492188,0.0458984v-1.1787109
		c-0.6582031,0-1.6533203,0.0458984-2.984375,0.1074219c-0.6279297,0.0302734-1.5,0.0917969-2.6171875,0.1679688
		c-0.3056641,0-0.5664062-0.0615234-0.75-0.2138672c-0.1835938-0.1689453-0.2753906-0.3828125-0.2753906-0.6279297
		c0-0.5507812,0.2753906-0.8876953,0.8261719-1.0097656c0.4287109-0.0917969,1.1328125-0.1533203,2.1123047-0.1835938
		c0.0302734,0,1.2089844-0.03125,3.5351562-0.0917969v-0.8271484c0-0.2441406,0.1230469-0.4746094,0.3671875-0.6884766
		c0.2294922-0.1992188,0.5048828-0.3056641,0.8271484-0.3056641c0.8105469,0,1.2236328,0.5810547,1.2392578,1.7441406
		c1.7910156,0,2.8466797,0.015625,3.1523438,0.0458984c0.2607422,0.03125,0.4746094,0.1533203,0.6279297,0.3671875
		c0.1533203,0.2148438,0.2451172,0.4746094,0.2451172,0.75C187.8713837,210.8105469,187.5188446,211.0859375,186.814743,211.0859375
		z M181.3206024,213.9482422c-0.2138672-0.1533203-0.4746094-0.2451172-0.7802734-0.2451172
		c-0.1992188,0-0.3984375,0.0761719-0.5820312,0.2294922c-0.2441406,0.1992188-0.3515625,0.4589844-0.3515625,0.7802734
		c0,0.3066406,0.0917969,0.5205078,0.3056641,0.6738281c0.2148438,0.1679688,0.4599609,0.2451172,0.765625,0.2451172
		c0.6123047,0,0.9335938-0.3369141,0.9335938-1.0107422C181.611618,214.3457031,181.5041962,214.1162109,181.3206024,213.9482422z"
		/>
	<path class="st13" d="M91.2185516,226.5380859v1.8671875c0.3212891,0.8574219,0.6430664,1.6074219,0.9643555,2.25
		c0.8261719-0.8730469,1.5913086-1.8369141,2.3261719-2.9082031c0.152832-0.2138672,0.2910156-0.3974609,0.4130859-0.5507812
		c0.1835938-0.2138672,0.4135742-0.3369141,0.6582031-0.3671875c0.2602539,0,0.4897461,0.0917969,0.6733398,0.2451172
		c0.3061523,0.1982422,0.4589844,0.4892578,0.4589844,0.8876953c0,0.2294922-0.0610352,0.4433594-0.1835938,0.6572266
		c-0.7651367,1.3935547-1.8823242,2.6787109-3.3666992,3.8574219c0.0610352,0.1220703,0.1376953,0.2138672,0.1987305,0.3056641
		c0.6582031,1.0107422,1.7143555,2.1425781,3.1679688,3.3828125c0.2758789,0.1835938,0.4287109,0.4433594,0.4287109,0.7646484
		c0,0.2451172-0.1069336,0.4589844-0.3061523,0.6425781c-0.2294922,0.3066406-0.5664062,0.4443359-1.0102539,0.4443359
		c-0.3671875,0-0.6733398-0.1074219-0.902832-0.3056641c-1.4082031-1.1181641-2.5864258-2.5566406-3.5200195-4.3164062v3.9023438
		c0,0.7353516-0.168457,1.2246094-0.4897461,1.4697266c-0.3828125,0.3369141-0.9643555,0.5048828-1.7294922,0.5048828
		c-0.581543,0-1.1171875-0.0917969-1.6069336-0.2451172c-0.4282227-0.1982422-0.6582031-0.5351562-0.6582031-1.0097656
		c0-0.2451172,0.0766602-0.5507812,0.2299805-0.9492188c0.152832-0.2753906,0.3974609-0.4130859,0.7192383-0.4287109
		c0.0302734,0,0.0917969,0.015625,0.1679688,0.03125c0.184082,0.0615234,0.3520508,0.0917969,0.4897461,0.0917969
		c0.4287109,0,0.6582031-0.1533203,0.6582031-0.4902344v-4.8359375c-0.8110352,2.1123047-2.1118164,4.1015625-3.887207,5.984375
		c-0.1533203,0.2451172-0.4438477,0.3828125-0.8876953,0.4130859c-0.4589844-0.0302734-0.7651367-0.1533203-0.918457-0.3671875
		c-0.152832-0.1533203-0.2294922-0.3984375-0.2294922-0.7041016c0-0.1835938,0.1074219-0.4746094,0.3212891-0.8574219
		c1.8979492-2.0351562,3.0458984-3.6572266,3.4589844-4.8515625c0.1074219-0.1835938,0.168457-0.3671875,0.168457-0.5205078
		c0-0.0605469-0.0458984-0.1064453-0.1225586-0.1064453h-2.6323242c-0.2910156,0-0.5356445-0.0771484-0.7192383-0.2607422
		c-0.1533203-0.1679688-0.2294922-0.4433594-0.2294922-0.8261719s0.1069336-0.6884766,0.3364258-0.9033203
		c0.1533203-0.1064453,0.3676758-0.1679688,0.6123047-0.1679688h4.0097656
		c0.2910156,0.015625,0.5356445,0.0615234,0.7192383,0.1533203v-1.8828125c0-0.6738281,0.3520508-1.0253906,1.0712891-1.0253906
		C90.8054657,225.5126953,91.1877899,225.8642578,91.2185516,226.5380859z"/>
	<path class="st13" d="M109.4270477,237.6650391c-0.8569336,0.6572266-2.1425781,0.9941406-3.8261719,0.9941406
		c-1.4541016-0.0302734-2.5253906-0.3212891-3.1987305-0.8876953c-0.7651367-0.6269531-1.1323242-1.6523438-1.1323242-3.0761719
		c0-0.1835938,0-0.3974609,0.0151367-0.6123047c-0.75,0-1.4692383-0.0302734-2.1425781-0.1064453
		c-0.5205078-0.0917969-0.7651367-0.4599609-0.7651367-1.1025391c0-0.2910156,0.0917969-0.5351562,0.2753906-0.734375
		c0.1835938-0.1679688,0.3979492-0.2597656,0.6425781-0.2597656c1.0410156,0.0917969,1.8061523,0.1376953,2.2651367,0.1376953
		c0.0307617-0.3222656,0.0917969-0.8730469,0.1835938-1.6376953c-0.3364258,0-0.7802734,0-1.3007812-0.015625
		c-0.3520508,0-0.6274414-0.0302734-0.8261719-0.0917969c-0.5512695-0.1220703-0.8115234-0.4433594-0.8115234-0.9951172
		c0-0.2753906,0.0766602-0.5048828,0.2451172-0.7041016c0.152832-0.1835938,0.3823242-0.2900391,0.6582031-0.3056641
		c0.2138672,0,0.5507812,0.015625,0.9946289,0.0458984c0.6123047,0.0615234,1.0405273,0.0761719,1.2548828,0.0761719
		c0-0.3671875,0.0458984-0.9335938,0.1376953-1.6982422c0.0458984-0.2753906,0.1835938-0.4902344,0.4130859-0.6582031
		c0.2299805-0.1533203,0.5053711-0.2451172,0.8115234-0.2451172c0.3212891,0,0.581543,0.0917969,0.7958984,0.2451172
		c0.1987305,0.1679688,0.3056641,0.3828125,0.3056641,0.6425781l-0.1835938,1.6679688
		c0.5512695-0.0302734,1.2856445-0.0917969,2.1733398-0.1835938c0.2294922,0,0.4287109,0.0917969,0.581543,0.2451172
		c0.1533203,0.1835938,0.2451172,0.3974609,0.2451172,0.6582031c0,0.6728516-0.2602539,1.0410156-0.7807617,1.1171875
		c-0.4897461,0.0917969-1.3007812,0.1533203-2.4638672,0.1992188c-0.0307617,0.3359375-0.0917969,0.8876953-0.1835938,1.6523438
		c0.3061523-0.0146484,0.734375-0.0458984,1.3007812-0.1064453c0.4287109-0.03125,0.734375-0.0615234,0.9487305-0.0615234
		c0.2451172,0,0.4594727,0.0917969,0.6430664,0.2597656c0.152832,0.1835938,0.2446289,0.4130859,0.2446289,0.6894531
		c0,0.6113281-0.3212891,0.9794922-0.9638672,1.0859375c-0.597168,0.1230469-1.4082031,0.1689453-2.418457,0.1689453
		c-0.0151367,0.2138672-0.0151367,0.3974609-0.0151367,0.5507812c0,0.7646484,0.152832,1.2851562,0.4589844,1.5761719
		s0.8725586,0.4287109,1.6835938,0.4287109c1.8364258,0,2.7700195-0.5820312,2.7700195-1.7451172
		c0-0.2910156-0.0610352-0.5810547-0.168457-0.8564453c-0.1069336-0.2753906-0.2138672-0.5361328-0.3212891-0.7958984
		c-0.0610352-0.1376953-0.0761719-0.2607422-0.0761719-0.3828125c0-0.2753906,0.0761719-0.5048828,0.2446289-0.7197266
		c0.168457-0.1982422,0.3828125-0.3056641,0.6582031-0.3056641c0.5356445,0,0.9179688,0.1992188,1.1630859,0.5966797
		c0.4897461,0.7958984,0.734375,1.6074219,0.734375,2.4492188
		C110.6970673,236.0878906,110.2688446,237.0214844,109.4270477,237.6650391z"/>
	<path class="st13" d="M119.9827118,229.7519531c-0.6425781,0.1835938-1.637207,0.3369141-2.96875,0.4443359
		c-0.7807617,3.1220703-1.5307617,5.6318359-2.2651367,7.4990234c-0.1835938,0.4746094-0.5205078,0.71875-1.0102539,0.71875
		c-0.3061523-0.0146484-0.5664062-0.1220703-0.7958984-0.3212891c-0.2446289-0.1982422-0.3520508-0.4589844-0.3520508-0.7646484
		c0-0.1376953,0.0307617-0.2910156,0.0917969-0.4443359c0.6123047-1.5917969,1.2856445-3.7802734,2.0048828-6.5351562
		c-0.5507812,0.03125-1.0556641,0.03125-1.5151367,0.03125c-0.3671875,0-0.6425781-0.0917969-0.8261719-0.3066406
		c-0.1835938-0.2294922-0.2753906-0.4892578-0.2753906-0.7646484c0-0.2910156,0.0917969-0.5517578,0.2905273-0.765625
		c0.1835938-0.2138672,0.4594727-0.3212891,0.8110352-0.3212891c0.6123047,0,1.3012695-0.015625,2.0507812-0.0615234
		c0.1074219-0.5048828,0.1992188-0.9482422,0.2602539-1.3310547c0.0917969-0.6123047,0.4594727-0.9335938,1.1020508-0.9335938
		c0.2910156,0.015625,0.5507812,0.1220703,0.7651367,0.3056641c0.2143555,0.1992188,0.3369141,0.4589844,0.3369141,0.765625
		c0,0.1376953-0.0615234,0.4746094-0.168457,1.0097656c0.8417969-0.0917969,1.4692383-0.1835938,1.8671875-0.3056641
		c0.1069336-0.03125,0.2143555-0.0458984,0.3369141-0.0458984c0.3056641,0,0.5507812,0.1220703,0.7495117,0.3369141
		c0.184082,0.2138672,0.2910156,0.4736328,0.3217773,0.7490234
		C120.7942352,229.2314453,120.5183563,229.5839844,119.9827118,229.7519531z M124.3752899,238.1845703
		c-0.6274414,0.1533203-1.3466797,0.2451172-2.1733398,0.2451172c-1.6835938,0-2.8007812-0.1220703-3.3823242-0.3369141
		c-0.8569336-0.3359375-1.2856445-1.0556641-1.2856445-2.1425781c0-0.5810547,0.1225586-1.0859375,0.3676758-1.484375
		c0.2446289-0.3974609,0.565918-0.5966797,0.9638672-0.5966797c0.3061523,0,0.5664062,0.0917969,0.7651367,0.2451172
		c0.184082,0.1523438,0.2910156,0.3515625,0.2910156,0.5966797c0,0.1220703-0.0458984,0.3212891-0.1225586,0.5810547
		c-0.0761719,0.2753906-0.1069336,0.4599609-0.1069336,0.5517578c0,0.2138672,0.152832,0.3818359,0.4589844,0.4736328
		c0.2143555,0.0917969,0.4438477,0.1230469,0.7041016,0.1230469c0.3671875,0,0.902832-0.0458984,1.6069336-0.1689453
		c0.6889648-0.1064453,1.2089844-0.1679688,1.5761719-0.1679688c0.8115234,0,1.2246094,0.3671875,1.2246094,1.0869141
		C125.2629852,237.7109375,124.9568329,238.0322266,124.3752899,238.1845703z M124.4211884,231.9560547
		c-0.2143555,0.2138672-0.4897461,0.3212891-0.8417969,0.3212891c-0.4589844,0-1.0864258,0.0458984-1.8671875,0.1074219
		c-0.8261719,0.0917969-1.4384766,0.1835938-1.8212891,0.2753906c-0.1069336,0.0302734-0.2138672,0.0302734-0.3061523,0.0302734
		c-0.3364258,0-0.5966797-0.1220703-0.7954102-0.3828125c-0.184082-0.2138672-0.2602539-0.4892578-0.2602539-0.8105469
		c0-0.4902344,0.2753906-0.7958984,0.8417969-0.9335938c0.4897461-0.1230469,1.1933594-0.2294922,2.1118164-0.3212891
		c0.8876953-0.0615234,1.6220703-0.1074219,2.1733398-0.1074219c0.3364258,0.015625,0.5966797,0.1220703,0.8110352,0.3369141
		c0.168457,0.2138672,0.2602539,0.4589844,0.2602539,0.734375
		C124.7273407,231.4970703,124.6204071,231.7412109,124.4211884,231.9560547z M123.9006805,228.6650391
		c-0.1376953,0.1074219-0.2753906,0.1533203-0.4130859,0.1533203c-0.2602539,0-0.4589844-0.1074219-0.581543-0.3212891
		c-0.1376953-0.2138672-0.3671875-0.5664062-0.6884766-1.0712891c-0.184082-0.2597656-0.2602539-0.4892578-0.2602539-0.6738281
		c0-0.3671875,0.2294922-0.5507812,0.6884766-0.5507812c0.2143555,0,0.3979492,0.1074219,0.581543,0.3066406
		c0.3061523,0.3974609,0.5664062,0.7958984,0.7651367,1.2089844c0.0615234,0.1679688,0.1074219,0.3515625,0.1074219,0.5664062
		C124.0998993,228.4355469,124.0232391,228.5585938,123.9006805,228.6650391z M125.3088837,228.2519531
		c-0.2602539,0-0.4589844-0.1064453-0.581543-0.3212891c-0.1376953-0.2138672-0.3671875-0.5664062-0.6889648-1.0712891
		c-0.1835938-0.2597656-0.2597656-0.4892578-0.2597656-0.6728516c0-0.3681641,0.2294922-0.5517578,0.6884766-0.5517578
		c0.2143555,0,0.3979492,0.1074219,0.581543,0.3066406c0.3061523,0.3974609,0.5664062,0.7958984,0.7651367,1.2089844
		c0.0615234,0.1679688,0.1074219,0.3515625,0.1074219,0.5664062
		C125.9211884,228.0839844,125.7068329,228.2519531,125.3088837,228.2519531z"/>
	<path class="st13" d="M132.6814423,237.0673828c-0.8569336,0.9492188-1.652832,1.4384766-2.4179688,1.4384766
		c-1.0405273,0-1.8061523-0.5195312-2.3110352-1.5449219c-0.4130859-0.8271484-0.6884766-2.1123047-0.8110352-3.8417969
		c-0.0458984-0.5966797-0.0615234-1.1933594-0.0615234-1.8056641c0-0.2910156,0.0458984-1.2705078,0.1533203-2.9238281
		c0.0151367-0.3359375,0.152832-0.5966797,0.4130859-0.7958984c0.2451172-0.1835938,0.5512695-0.2753906,0.918457-0.2753906
		c0.3212891,0,0.581543,0.1074219,0.7651367,0.3066406c0.1835938,0.1982422,0.2905273,0.4589844,0.2905273,0.7646484
		c0,0.0917969-0.0151367,0.6123047-0.0458984,1.5771484c-0.0458984,1.0556641-0.0610352,1.8818359-0.0610352,2.4785156
		c0,0.9794922,0.0766602,1.7910156,0.2451172,2.4648438c0.1679688,0.734375,0.3979492,1.1015625,0.6733398,1.1015625
		c0.3671875,0,0.8110352-0.5048828,1.331543-1.5458984c0.2597656-0.5351562,0.581543-0.8115234,0.9487305-0.8115234
		c0.7802734,0,1.1777344,0.3066406,1.1777344,0.9033203C133.8899384,235.2919922,133.4768524,236.1337891,132.6814423,237.0673828z
		 M139.002243,236.5009766c-0.2451172,0.2148438-0.5048828,0.3066406-0.8115234,0.3066406
		c-0.3056641,0-0.5664062-0.0917969-0.7802734-0.2753906s-0.3369141-0.4589844-0.3515625-0.7958984
		c-0.03125-0.6884766-0.2451172-1.7910156-0.6123047-3.3056641c-0.3671875-1.4541016-0.7041016-2.5253906-0.9951172-3.1992188
		c-0.0761719-0.1523438-0.1074219-0.3212891-0.1074219-0.4746094c0-0.3056641,0.1074219-0.5507812,0.3525391-0.7646484
		c0.2441406-0.1992188,0.5205078-0.3066406,0.8261719-0.3066406c0.4589844,0,0.7958984,0.2304688,0.9951172,0.6738281
		c0.3359375,0.8115234,0.71875,2.0048828,1.1171875,3.5966797c0.3974609,1.6376953,0.6269531,2.8623047,0.6728516,3.6884766
		C139.3079071,235.9960938,139.2014618,236.2871094,139.002243,236.5009766z"/>
	<path class="st13" d="M152.0842743,233.8232422c-0.7958984,1.2705078-1.3623047,2.1123047-1.6992188,2.5097656
		c-0.6123047,0.765625-1.2851562,1.3164062-1.9892578,1.6533203c-0.8271484,0.3974609-1.8369141,0.5966797-3.0615234,0.5966797
		c-1.3466797,0-2.3564453-0.4130859-3.0302734-1.2402344c-0.5810547-0.7041016-0.8564453-1.6367188-0.8564453-2.8310547
		c0-1.1015625,0.0761719-3.5351562,0.2441406-7.2695312c0-0.3369141,0.1230469-0.6123047,0.3671875-0.8261719
		c0.1992188-0.1533203,0.4599609-0.2451172,0.765625-0.2451172c0.3056641,0.015625,0.5507812,0.1074219,0.765625,0.2910156
		c0.2138672,0.2138672,0.3212891,0.4892578,0.3212891,0.8564453c-0.1689453,3.7041016-0.2451172,6.0917969-0.2451172,7.1933594
		c0,0.7197266,0.1220703,1.2246094,0.3828125,1.5302734c0.2597656,0.3066406,0.6884766,0.4443359,1.2851562,0.4443359
		c1.1943359,0,2.0966797-0.2753906,2.7246094-0.8574219c0.3828125-0.3369141,1.1015625-1.3466797,2.1425781-3
		c0.2138672-0.3359375,0.5351562-0.5195312,0.9335938-0.5195312c0.3212891,0,0.5966797,0.1220703,0.8105469,0.3359375
		c0.2148438,0.2294922,0.3222656,0.5058594,0.3222656,0.8115234
		C152.267868,233.4404297,152.2063446,233.6240234,152.0842743,233.8232422z M149.7571259,229.2167969
		c-0.1376953,0.1220703-0.2753906,0.1679688-0.4130859,0.1679688c-0.2597656,0-0.4589844-0.1074219-0.5810547-0.3212891
		c-0.1376953-0.2138672-0.3671875-0.5664062-0.6894531-1.0712891c-0.1835938-0.2607422-0.2597656-0.4902344-0.2597656-0.6738281
		c0-0.3671875,0.2294922-0.5507812,0.6884766-0.5507812c0.2148438,0,0.3984375,0.1074219,0.5820312,0.3066406
		c0.3056641,0.3974609,0.5664062,0.7958984,0.7646484,1.2089844c0.0615234,0.1679688,0.1074219,0.3515625,0.1074219,0.5664062
		C149.9563446,229.0019531,149.8801727,229.125,149.7571259,229.2167969z M151.1506805,228.5732422
		c-0.2607422,0-0.4599609-0.1064453-0.5820312-0.3212891c-0.1376953-0.2138672-0.3671875-0.5664062-0.6884766-1.0712891
		c-0.1835938-0.2597656-0.2607422-0.4892578-0.2607422-0.6728516c0-0.3671875,0.2294922-0.5507812,0.6894531-0.5507812
		c0.2138672,0,0.3974609,0.1064453,0.5810547,0.3056641c0.3066406,0.3974609,0.5664062,0.7958984,0.765625,1.2089844
		c0.0605469,0.1679688,0.1064453,0.3515625,0.1064453,0.5664062
		C151.7620087,228.4052734,151.5481415,228.5732422,151.1506805,228.5732422z"/>
	<path class="st13" d="M165.4563446,228.8339844c-0.5205078,0.1074219-1.0410156,0.2138672-1.5615234,0.3056641
		c-0.6728516,0.1835938-1.2392578,0.4589844-1.6982422,0.8271484c-1.4082031,1.1015625-2.0966797,2.4482422-2.0966797,4.0244141
		c0,0.6738281,0.2294922,1.1630859,0.6884766,1.4697266c0.5966797,0.4130859,1.6679688,0.6123047,3.2294922,0.6123047
		c0.734375,0,1.1015625,0.3818359,1.1015625,1.1171875c0,0.3056641-0.0917969,0.5507812-0.2753906,0.75
		c-0.2138672,0.2294922-0.4902344,0.3515625-0.8261719,0.3515625c-4.1015625,0-6.1376953-1.4228516-6.1376953-4.3007812
		c0-1.6523438,0.765625-3.2294922,2.3115234-4.7285156c-1.7451172,0.1982422-3.5507812,0.4277344-5.4179688,0.7041016
		c-0.4130859,0-0.7197266-0.0917969-0.9335938-0.2910156c-0.2451172-0.2451172-0.3525391-0.5361328-0.3525391-0.8730469
		c0-0.6113281,0.3066406-0.9638672,0.9335938-1.0253906c5.265625-0.7490234,8.953125-1.1318359,11.0654297-1.1318359
		c0.3369141,0,0.5966797,0.1064453,0.7958984,0.3056641c0.1835938,0.2148438,0.2910156,0.4589844,0.3066406,0.734375
		C166.5891571,228.2978516,166.2063446,228.6806641,165.4563446,228.8339844z M164.6448212,233.0429688
		c-0.1376953,0.1064453-0.2753906,0.1523438-0.4130859,0.1523438c-0.2597656,0-0.4589844-0.1064453-0.5810547-0.3212891
		c-0.1376953-0.2138672-0.3681641-0.5664062-0.6894531-1.0712891c-0.1835938-0.2597656-0.2597656-0.4892578-0.2597656-0.6728516
		c0-0.3681641,0.2294922-0.5517578,0.6884766-0.5517578c0.2148438,0,0.3984375,0.1074219,0.5820312,0.3066406
		c0.3056641,0.3974609,0.5664062,0.7958984,0.7646484,1.2089844c0.0615234,0.1679688,0.1074219,0.3515625,0.1074219,0.5664062
		C164.8440399,232.8134766,164.767868,232.9355469,164.6448212,233.0429688z M166.0686493,232.6601562
		c-0.2607422,0-0.4589844-0.1074219-0.5820312-0.3212891c-0.1376953-0.2148438-0.3671875-0.5664062-0.6884766-1.0712891
		c-0.1835938-0.2607422-0.2597656-0.4902344-0.2597656-0.6738281c0-0.3671875,0.2294922-0.5507812,0.6884766-0.5507812
		c0.2138672,0,0.3974609,0.1074219,0.5810547,0.3056641c0.3066406,0.3984375,0.5664062,0.7958984,0.765625,1.2089844
		c0.0615234,0.1689453,0.1074219,0.3525391,0.1074219,0.5664062
		C166.680954,232.4912109,166.4661102,232.6601562,166.0686493,232.6601562z"/>
	<path class="st13" d="M179.165329,229.4462891c-0.8574219-0.0458984-1.8369141-0.0771484-2.96875-0.0771484
		c-0.015625,0.5976562-0.03125,1.4697266-0.0615234,2.6025391c0.3212891,0.5507812,0.4892578,1.1474609,0.4892578,1.7753906
		c0,1.3466797-0.5810547,2.5703125-1.7441406,3.6875c-1.1171875,1.0712891-2.234375,1.6074219-3.3515625,1.6074219
		c-0.2910156,0-0.5205078-0.1074219-0.7041016-0.2910156c-0.1992188-0.1992188-0.2910156-0.4433594-0.2910156-0.734375
		c0-0.3671875,0.2753906-0.6738281,0.8574219-0.9492188c0.5048828-0.2441406,0.8417969-0.4130859,1.0253906-0.5048828
		c0.3359375-0.1835938,0.6572266-0.4287109,0.9794922-0.7041016c-1.2246094-0.0605469-2.1582031-0.3828125-2.7705078-0.9335938
		c-0.5507812-0.4746094-0.8261719-1.1015625-0.8261719-1.8671875c0-0.8261719,0.3515625-1.5146484,1.0556641-2.0351562
		c0.4589844-0.3369141,1.1630859-0.5205078,2.1123047-0.5205078c0.2910156,0,0.6123047,0.015625,0.9482422,0.0458984v-1.1787109
		c-0.6572266,0-1.6523438,0.0458984-2.984375,0.1074219c-0.6269531,0.0302734-1.4990234,0.0917969-2.6162109,0.1679688
		c-0.3066406,0-0.5664062-0.0605469-0.75-0.2138672c-0.1835938-0.1679688-0.2763672-0.3828125-0.2763672-0.6279297
		c0-0.5507812,0.2763672-0.8867188,0.8271484-1.0097656c0.4287109-0.0917969,1.1318359-0.1533203,2.1113281-0.1835938
		c0.03125,0,1.2099609-0.0302734,3.5361328-0.0917969v-0.8261719c0-0.2451172,0.1220703-0.4746094,0.3671875-0.6884766
		c0.2294922-0.1992188,0.5048828-0.3066406,0.8261719-0.3066406c0.8115234,0,1.2246094,0.5820312,1.2402344,1.7451172
		c1.7900391,0,2.8457031,0.0146484,3.1523438,0.0458984c0.2597656,0.0302734,0.4746094,0.1523438,0.6269531,0.3671875
		c0.1533203,0.2138672,0.2451172,0.4746094,0.2451172,0.75C180.220993,229.1708984,179.8694305,229.4462891,179.165329,229.4462891z
		 M173.6711884,232.3076172c-0.2148438-0.1523438-0.4746094-0.2441406-0.78125-0.2441406
		c-0.1982422,0-0.3974609,0.0761719-0.5810547,0.2294922c-0.2451172,0.1982422-0.3525391,0.4589844-0.3525391,0.7802734
		c0,0.3056641,0.0917969,0.5205078,0.3066406,0.6738281c0.2138672,0.1679688,0.4589844,0.2441406,0.7646484,0.2441406
		c0.6123047,0,0.9335938-0.3369141,0.9335938-1.0097656C173.9612274,232.7060547,173.8547821,232.4765625,173.6711884,232.3076172z"
		/>
</g>
</svg>
