<?xml version="1.0" encoding="utf-8"?>
<!-- Generator: Adobe Illustrator 26.2.1, SVG Export Plug-In . SVG Version: 6.00 Build 0)  -->
<svg version="1.1" id="レイヤー_1" xmlns="http://www.w3.org/2000/svg" xmlns:xlink="http://www.w3.org/1999/xlink" x="0px"
	 y="0px" viewBox="0 0 263.2 240.4" style="enable-background:new 0 0 263.2 240.4;" xml:space="preserve">
<style type="text/css">
	.st0{display:none;}
	.st1{display:inline;fill:#231815;}
	.st2{font-family:'DFMaruGothicStd-W9-90ms-RKSJ-H';}
	.st3{font-size:15.3px;}
	.st4{fill:#D6A600;}
	.st5{fill:#FFFFFF;}
	.st6{fill:#FFE100;}
	.st7{fill:#4C3733;}
	.st8{fill-rule:evenodd;clip-rule:evenodd;fill:#4C3733;}
	.st9{fill-rule:evenodd;clip-rule:evenodd;fill:#FCCF00;}
	.st10{fill-rule:evenodd;clip-rule:evenodd;fill:#C68212;}
	.st11{fill-rule:evenodd;clip-rule:evenodd;fill:#9ED8F5;}
	.st12{fill-rule:evenodd;clip-rule:evenodd;fill:#E50012;}
	.st13{fill:#231815;}
</style>
<text transform="matrix(1 0 0 1 39.788 219.5489)" class="st0"><tspan x="0" y="0" class="st1 st2 st3">ごはんが食べられる毎日に</tspan><tspan x="45.9" y="18.4" class="st1 st2 st3">感謝すること</tspan></text>
<g>
	<path class="st4" d="M259.8,47.2L259.8,47.2c-7.3-19.5-27.7-29.6-47.3-23.5c-12,3.7-21,12.1-25.4,23.4c-16.6-7.9-35.6-12-56.5-12
		c-19.7,0-38.5,4.1-54.7,11.9c-4.3-11.3-13.3-19.7-25.4-23.4c-19.6-6.1-40,4.1-47.3,23.5c-3.7,9.7-3,20.8,1.9,30.3
		C9.8,86.6,17.8,93.6,28,97.4c-4,10.1-6,20.7-6,31.5c0.1,28.8,11.1,47.6,33.6,57.6c20.5,9.1,48.6,9.8,75.6,9.8
		c39.9,0,64.1-3.7,80.7-12.4c20-10.4,29.3-28.1,29.3-55.6c0-10.7-2-21.1-5.8-31c10.1-3.8,18-10.7,22.7-19.8
		C262.8,67.9,263.5,56.9,259.8,47.2z"/>
	<path class="st5" d="M255.2,48.9C248.8,32,231.3,23.1,214,28.4c-13.6,4.2-21.3,14.4-23.8,25.8C174,45.4,154,40.1,130.7,40.1
		c-22.3,0-41.8,5.3-57.7,14.2c-2.5-11.4-10.2-21.7-23.8-25.9C31.9,23.1,14.4,32,8,48.9c-6.4,16.9,2.5,38.6,25.3,44.9
		c0.5,0.1,1,0.2,1.5,0.3C29.7,105,27,116.8,27,128.9c0.2,58.1,46.8,62.4,104.2,62.4c69.1,0,105-10.5,105-63
		c0-11.9-2.6-23.5-7.6-34.2c0.4-0.1,0.9-0.2,1.3-0.3C252.6,87.5,261.6,65.9,255.2,48.9z"/>
	<g>
		<g>
			<path class="st6" d="M206.9,142.8c3.5-6.4,5.8-12.4,2-19.9c-5.4-10.8-15.5-13.2-19.2-14.2c-6.4-1.8-22-3.6-28.7-3.3
				c-5.4,0.3-12.1,0.7-17.5,2.6c-5.9,2.1-8.7,2.7-11.3,8.5c-9.6,21.2,14.6,33.1,19,33.8c3.7,0.6,5.9,4.7,27.3,6.1
				C189,157.2,203.2,149.6,206.9,142.8z"/>
			<path class="st7" d="M179.8,157.4C179.8,157.4,179.8,157.4,179.8,157.4c-0.5,0-0.9,0-1.4,0c-16-1-21.4-3.6-24.7-5.1
				c-1.1-0.5-1.9-0.9-2.8-1c-2.6-0.5-14.2-5.5-19.5-15.4c-3.2-6.1-3.3-12.7-0.1-19.7c2.6-5.8,5.5-6.7,10.7-8.6l1.1-0.4
				c5.3-1.9,11.7-2.4,17.8-2.7c0.5,0,1.1,0,1.7,0c7.4,0,21.2,1.7,27.2,3.4l0.5,0.1c4.2,1.1,14,3.8,19.3,14.5
				c4.1,8.2,1.2,14.7-2,20.7C203.8,150.4,190,157.4,179.8,157.4L179.8,157.4z M162.7,106.2c-0.6,0-1.1,0-1.6,0
				c-6,0.3-12.2,0.8-17.3,2.6l-1.1,0.4c-5.1,1.8-7.4,2.6-9.7,7.7c-2.9,6.4-2.9,12.5,0.1,18.2c4.9,9.2,15.9,14.1,18.3,14.5
				c1.1,0.2,2,0.6,3.2,1.2c3.1,1.5,8.4,3.9,24.1,4.9c0.4,0,0.8,0,1.3,0c10.3,0,23.1-7.3,26.4-13.3c3.8-7,5.4-12.4,2-19.1
				c-5-10-14.3-12.5-18.2-13.6l-0.5-0.1C183.5,107.9,170,106.2,162.7,106.2L162.7,106.2z"/>
		</g>
		<g>
			<g>
				<g>
					<path class="st8" d="M67.5,137.2c0-0.4,0.3-1,0.5-1.4c0.2-0.4,0.4-0.8,0.7-1.1c0.7-0.9,1.5-1.7,2.5-2.4c1-0.7,2.1-1.3,3.3-1.8
						c0.9-0.4,1.9-0.7,2.8-0.9c2-0.4,4.1-0.4,6.1,0.2c0.9,0.3,1.7,0.5,2.6,0.9c0.8,0.4,1.5,0.8,2.3,1.3c0.7,0.5,1.6,0.6,2.5,0.4
						c0.4-0.1,0.8-0.2,1.2-0.3c0.4-0.1,0.9-0.1,1.2-0.2c2-0.7,4.1-1,6.1-1.8c0.4-0.2,0.8-0.2,1.2-0.3c0.6-0.2,1.3-0.4,1.9-0.7
						c1-0.3,2-0.6,3-1c0.5-0.2,1.1-0.3,1.4-0.7c0.4-0.4,0.2-1,0-1.4c-0.2-0.5-0.4-1-0.6-1.5c-0.1-0.2-0.1-0.5-0.2-0.7
						c-0.1-0.3-0.2-0.6-0.3-0.9c-0.2-0.9-0.4-1.8-0.6-2.7c-0.1-0.5-0.2-1-0.3-1.5c-0.1-0.3-0.1-0.5-0.1-0.8c0-0.3,0-0.6,0-0.9
						c-0.1-0.9,0-1.8,0-2.7c0-0.6,0-1.1,0.2-1.6c0.1-0.6,0.2-1.1,0.4-1.7c0.1-0.3,0.2-0.5,0.3-0.8c0.1-0.2,0.3-0.4,0.4-0.7
						c0.1-0.1,0.1-0.3,0.1-0.4c0-0.1,0.1-0.2,0.2-0.2c0.1-0.1,0.2-0.3,0.3-0.4c0.5-0.9,1.5-1.8,2.4-2.3c0.4-0.2,1-0.5,1.5-0.6
						c0.5-0.1,1.1-0.1,1.7-0.1c0.4,0,0.9,0.1,1.3,0.3c0.2,0.1,0.4,0.2,0.6,0.3c0.2,0.1,0.4,0.3,0.6,0.3c0.4,0.1,0.6-0.4,0.7-0.7
						c0.1-0.3,0.3-0.6,0.5-0.8c0.3-0.7,1.1-1.2,1.5-1.9c0.2-0.3,0.6-0.6,0.9-0.9c0.4-0.5,0.8-0.9,1.3-1.3c0.9-0.9,1.9-1.7,2.9-2.5
						c1.9-1.3,4-2.1,6.1-2.9c1-0.4,2.1-0.8,3.1-1c0.4-0.1,0.8-0.1,1.2-0.3c0.4-0.1,0.2-0.7,0.1-1c-0.5-2.1,0.1-4.4,0.9-6.4
						c0.9-2.2,2.3-4.2,4.3-5.6c1.9-1.2,4-2.5,6.3-2.5c1,0,2,0.2,3,0.3c0.5,0,0.9,0.3,1.4,0.4c0.5,0.1,1,0.3,1.4,0.5
						c2,1,3.7,2.4,4.8,4.4c0.6,1,0.9,2.1,1.1,3.3c0.1,0.9,0.5,1.7,0.6,2.5c0.3,2-0.4,4.1-1.5,5.8c-0.3,0.5-0.7,1-1.1,1.5
						c-0.3,0.3-1.1,0.6-0.6,1.1c0.4,0.3,0.9,0.6,1.3,0.8c0.5,0.3,1,0.6,1.4,1c0.9,0.7,1.8,1.4,2.5,2.3c0.4,0.5,0.7,0.9,1.2,1.3
						c0.5,0.4,0.9,0.7,1.3,1.2c0.3,0.4,0.6,0.9,1,1.2c0.5,0.4,0.9,0.9,1.3,1.4c0.8,1.1,1.5,2.1,2.3,3.2c1.3,2,2.5,4,3.5,6.2
						c0.2,0.5,0.5,1.1,0.7,1.6c0.3,0.6,0.6,1.1,0.8,1.7c0.1,0.5,0.3,0.9,0.5,1.4c0.1,0.3,0.2,0.5,0.3,0.8c0.1,0.2,0.1,0.7,0.3,0.8
						c0.3,0.3,0.8-0.2,1.1-0.3c0.3,0,0.8-0.1,1.1-0.3c0.8-0.5,1.8-0.5,2.8-0.6c0.8,0,1.7-0.1,2.4,0c0.4,0.1,0.8,0.2,1.1,0.3
						c0.4,0.1,0.8,0.2,1.2,0.5c3.8,2.1,6.1,6.7,6.2,11c0.1,4.1-2.2,8.1-5.8,10.1c-1.8,1-3.6,1.9-5.6,1.9c-0.5,0-1,0-1.5,0
						c-0.4,0-0.9-0.2-1.4-0.2c-0.8,0.1-1.6-0.2-2.3-0.6c-0.3-0.2-1-0.6-1.4-0.4c-0.5,0.3-0.6,0.9-0.9,1.3c-0.3,0.5-0.7,0.9-1,1.4
						c-0.4,0.5-0.7,1-1.2,1.5c-1.7,1.8-3.7,3.2-5.7,4.6c-1,0.6-2,1.2-3,1.7c-0.4,0.2-0.8,0.4-1.1,0.6c-0.3,0.3,0.6,0.6,0.7,0.7
						c0.9,0.6,1.8,1.4,2.3,2.4c0.4,0.7,0.5,1.7,0.5,2.5c0.1,1.7-0.9,3.5-2.2,4.5c-0.9,0.7-1.9,1.1-2.9,1.4c-0.4,0.1-0.9,0.2-1.3,0.3
						c-0.2,0.1-0.4,0.1-0.5,0.1c-0.2,0-0.5,0.1-0.7,0.1c-0.2,0-0.3-0.1-0.5-0.1c-0.2,0-0.5,0-0.7,0.1c-0.5,0-0.9,0.1-1.4,0.2
						c-0.5,0-1,0.1-1.5-0.1c-0.2-0.1-0.5-0.1-0.8-0.1c-0.3-0.1-0.7-0.1-1-0.2c-1.9-0.5-3.7-1-5.5-1.7c-0.8-0.3-1.7-0.7-2.5-1.1
						c-0.5-0.2-0.9-0.5-1.3-0.8c-0.3-0.2-0.6-0.3-0.9-0.4c-0.3-0.1-0.5-0.3-0.8-0.5c-0.1-0.1-0.2-0.1-0.3-0.2
						c-0.2-0.1-0.5-0.4-0.6-0.4c-0.1,0-0.3-0.2-0.4-0.2c-0.2-0.1-0.3-0.2-0.5-0.3c-0.2-0.1-0.4-0.2-0.6-0.4
						c-0.1-0.1-0.3-0.2-0.4-0.2c-0.1,0-0.3-0.2-0.4-0.3c-0.1-0.1-0.4-0.2-0.5-0.3c-0.3-0.3-0.9,0.1-1.2,0.2c-0.5,0.3-0.9,0.7-1.4,1
						c-0.6,0.3-1.1,0.6-1.7,0.9c-0.5,0.3-1.1,0.6-1.6,0.9c-0.5,0.3-1.1,0.5-1.6,0.7c-1,0.5-2,0.9-3,1.4c-0.5,0.2-1,0.4-1.4,0.7
						c-0.4,0.2-0.9,0.3-1.4,0.5c-0.5,0.2-1.1,0.4-1.6,0.6c-0.5,0.2-1,0.4-1.5,0.6c-1.9,0.7-3.7,1.2-5.7,1.6c-1,0.2-2.1,0.5-3.2,0.6
						c-0.4,0.1-0.8,0.1-1.2,0.2c-0.3,0.1-0.6,0.1-0.9,0.2c-0.4,0.2-0.9,0.2-1.4,0.2c-0.5,0-1,0.1-1.4,0.2c-0.8,0.1-1.6,0.1-2.4,0.1
						c-1.1-0.1-1.9,0.8-2.8,1.3c-0.5,0.2-1,0.5-1.5,0.7c-0.6,0.2-1.1,0.5-1.7,0.7c-0.2,0.1-0.4,0.2-0.7,0.2c-0.1,0-0.5,0.2-0.6,0.1
						c-0.2,0-0.5,0.2-0.7,0.3c-0.2,0.1-0.5,0.2-0.7,0.2c-0.9,0.3-1.8,0.4-2.7,0.6c-2,0.3-4,0.5-6,0.1c-2.1-0.4-4.6-1.4-6.1-3.1
						c-0.7-0.9-1.3-1.9-1.6-3c-0.3-1-0.3-1.9,0-2.9c0.2-0.8,0.8-1.6,1.3-2.2c0.4-0.4,0.9-0.7,1.4-1c0.5-0.3,1.1-0.6,1.7-0.5
						c0.2,0,0.4,0,0.6,0c0.2,0,0.4,0.1,0.6,0.1c0.3,0,0.6,0,0.8,0.1c1.2,0.1,2.4,0.4,3.6,0.6c0.5,0.1,1,0.1,1.5,0.1
						c0.2,0,0.5,0,0.7-0.1c0.2,0,0.5,0,0.7-0.1c0.9-0.3,1.9-0.7,2.6-1.3c0.4-0.4,0.2-0.7-0.1-1.2c-0.3-0.5-0.6-1.1-0.9-1.7
						c-0.1-0.2-0.2-0.5-0.3-0.7c-0.1-0.2-0.2-0.3-0.3-0.5c-0.2-0.5-0.4-1-0.5-1.4c-0.3-0.9-0.7-1.8-1-2.6c-0.5-1.1-0.7-2.2-1-3.3
						c-0.3-1.1-0.5-2.2-0.8-3.3c-0.2-0.5-0.4-1-0.5-1.6c-0.1-0.5-0.3-0.9-0.3-1.4c0-0.3,0-0.6-0.1-0.9c-0.2-0.5-0.6-0.9-1-1.2
						c-0.7-0.5-1.5-0.7-2.3-0.9c-0.6-0.1-1.3-0.3-1.9-0.2c-0.4,0-0.7,0.2-1.1,0.2c-0.5,0.1-0.8,0.2-1.2,0.5c-0.7,0.5-1.4,1-2.2,1.5
						c-0.4,0.2-0.9,0.3-1.3,0.4c-0.4,0.1-0.7,0.2-1.1,0.1c-0.5-0.1-1.2-0.2-1.7-0.6c-0.4-0.2-0.7-0.6-1.1-0.8
						c-0.4-0.3-0.6-0.6-0.9-0.9c-0.5-0.8-1.1-1.5-1.3-2.5c-0.1-0.4-0.1-0.8-0.1-1.3C67.4,137.9,67.4,137.4,67.5,137.2"/>
					<path class="st9" d="M77.8,165.7c0.2-0.2,0.7,0.9,0.7,1c0.1,0.5,0.1,1.1,0,1.6c0,0.3-0.6,2.7-1.2,2.3c-0.3-0.2-0.5-0.8-0.7-1.2
						c-0.2-0.5-0.3-1-0.2-1.5C76.6,167.2,77,166,77.8,165.7"/>
					<path class="st10" d="M79.7,165c0.4-0.2,0.9,0,1.3,0.1c0.6,0,1.1,0.1,1.7,0.3c1.1,0.2,2.3,0.4,3.3,0.4c0.4,0,0.9,0.1,1.3,0
						c0.4-0.1,0.9-0.1,1.4-0.2c1.1-0.2,2.2-0.9,3.1-1.7c0.7-0.7,1.4-1.6,0.7-2.4c-0.7-1-1.2-2.2-1.7-3.3c-0.8-1.9-1.6-3.9-2.2-6
						c-0.6-2.1-1.1-4.2-1.7-6.3c-0.1-0.5-0.4-1-0.4-1.5c0-0.5-0.1-1-0.4-1.5c-0.5-0.8-1.5-1.7-2.4-2c-0.4-0.2-0.8-0.3-1.2-0.5
						c-0.5-0.2-1.1-0.3-1.6-0.3c-1.1-0.1-2.2-0.1-3.2,0.2c-1,0.3-1.8,0.9-2.7,1.5c-0.1,0.1-0.4,0.3-0.6,0.3
						c-0.2-0.1-0.2-0.4-0.3-0.6c-0.2-0.6-0.6-1.1-0.9-1.6c-0.7-1-1.4-1.8-2.3-2.5c-0.3-0.2-0.9-0.5-1.1-0.8
						c-0.1-0.2,0.2-0.5,0.3-0.6c0.2-0.2,0.3-0.5,0.5-0.7c0.8-1,1.8-1.6,3-2.2c0.5-0.2,0.9-0.5,1.4-0.7c0.5-0.2,1-0.5,1.6-0.6
						c0.4-0.1,0.9-0.2,1.3-0.3c0.5-0.2,1-0.1,1.5-0.1c0.5,0,0.9-0.1,1.3-0.1c0.5,0,1,0.2,1.5,0.3c1,0.1,2,0.4,2.8,0.9
						c0.3,0.2,0.7,0.3,1,0.4c0.5,0.2,0.8,0.5,1.2,0.7c0.7,0.6,1.6,0.8,2.5,0.8c0.5,0,1.1-0.1,1.6-0.3c0.6-0.1,1.2-0.2,1.7-0.3
						c0.5-0.1,1-0.3,1.5-0.4c0.6-0.1,1.1-0.3,1.6-0.5c1-0.3,1.9-0.6,2.9-0.8c2-0.5,4.1-1.2,6-1.9c0.5-0.2,1.1-0.5,1.6-0.7
						c0.6-0.2,1-0.4,1.5-0.9c0.7-0.8,0.7-1.9,0.3-2.9c-0.4-1.1-0.8-2.2-1.1-3.3c-0.1-0.5-0.1-0.9-0.2-1.4c-0.1-0.4-0.2-0.8-0.3-1.2
						c-0.1-0.4-0.1-0.9-0.2-1.3c-0.1-0.5-0.2-1-0.3-1.5c0-0.4,0.1-0.6,0.1-1c0-0.3,0-0.5,0-0.8c0-0.3,0.1-0.6,0-0.8
						c-0.2-1,0.4-2.2,0.7-3.1c0-0.1,0.5-1.2,0.7-1.1c0.1,0.1,0.1,0.4,0.2,0.5c0.1,0.3,0.1,0.6,0.2,0.9c0.2,1.1,1.3,2.1,2.1,2.7
						c0.4,0.3,0.8,0.5,1.2,0.7c0.5,0.2,1.1,0.1,1.2,0.7c0.1,0.4,0.1,0.9,0.1,1.3c0,0.2,0.2,0.5,0.1,0.7c0,0.2,0,0.3,0,0.5
						c0,0.3,0.1,0.6,0.1,0.9c0,0.3,0.1,0.6,0.1,0.9c-0.1,0.1,0.1,0.5,0.1,0.6c0,0.2,0,0.4,0.1,0.6c0,0.1,0.1,0.5,0.1,0.6
						c-0.1,0.2,0.2,0.5,0.2,0.7c-0.1,0.2,0,0.3,0.1,0.5c0.1,0.3,0.1,0.6,0.2,0.9c0.1,0.5,0.2,1,0.3,1.5c0.3,1.1,0.6,2.3,1.1,3.3
						c0.3,0.5,0.5,1,0.7,1.5c0.3,0.6,0.6,1.1,0.9,1.7c1.3,2.3,2.7,4.6,4.2,6.8c1.4,2.1,3.1,3.9,4.5,6c1.3,1.8,3,3.4,4.6,5
						c1.2,1.3,2.7,2.3,4.1,3.3c1.5,1.1,2.9,2.2,4.6,3.1c1.5,0.7,2.9,1.4,4.6,1.6c1.1,0.2,2.2,0.2,3.3,0.3c0.4,0,0.8,0.1,1.2,0.1
						c0.4,0,1-0.2,1.3,0c0.5,0.1,0.1,0.7,0.2,1c0.1,0.5,0.2,0.9,0.4,1.4c0.4,1,1,2,1.8,2.8c0.4,0.4,0.8,0.7,1.3,0.9
						c0.4,0.2,0.7,0.4,1.1,0.6c0.5,0.2,1.1,0.3,1.7,0.3c0.2,0,0.5,0,0.6,0.2c-0.2,0.2-0.5,0.4-0.8,0.5c-0.8,0.3-1.8,0.6-2.7,0.7
						c-0.5,0-1,0.1-1.5,0.1c-0.3,0-0.5,0-0.8,0c-0.3,0-0.5,0.1-0.8,0.1c-0.4,0-0.8-0.1-1.1-0.1c-0.6,0-1.1-0.1-1.6-0.3
						c-0.7-0.3-1.4-0.4-2.1-0.6c-1.7-0.6-3.4-1.2-5.1-2.1c-0.9-0.4-1.8-0.9-2.6-1.4c-0.7-0.5-1.5-1-2.2-1.4
						c-0.3-0.2-0.7-0.3-0.9-0.6c-0.1-0.1-0.2-0.2-0.4-0.2c-0.3-0.1-0.4-0.3-0.6-0.5c-0.1-0.1-0.3-0.1-0.5-0.1
						c-0.1,0-0.3-0.1-0.4-0.1c-0.5-0.1-1.1,0.2-1.5,0.4c-0.4,0.3-0.8,0.7-1.2,1c-0.5,0.4-1.2,0.7-1.8,0.9c-1,0.5-2,1-3,1.5
						c-2.1,1-4.3,2.2-6.6,3c-0.5,0.2-1,0.3-1.5,0.5c-0.6,0.2-1.2,0.6-1.8,0.7c-1.2,0.2-2.3,0.8-3.5,1c-0.9,0.2-1.9,0.4-2.8,0.6
						c-1,0.3-2.1,0.4-3.2,0.6c-0.4,0.1-0.9,0.1-1.3,0.2c-0.3,0.1-0.6,0-0.9,0.1c-0.4,0.1-0.9,0.1-1.3,0.1c-0.5,0-0.9,0.1-1.4,0.1
						c-0.4,0-0.9,0-1.3-0.1c-0.5-0.1-0.7,0-1.1,0.4c-0.4,0.5-0.8,0.6-1.4,0.9c-0.5,0.3-1.1,0.6-1.6,0.8c-1,0.4-2.1,0.7-3.1,1.1
						c-1,0.4-2.2,0.8-3.3,1c-0.4,0.1-0.9,0-1.3,0.1c-0.4,0.1-0.7,0.1-1.1,0.1c-0.2,0-0.4,0-0.5,0.1c-0.2,0.1-0.4,0-0.6,0
						c-0.4,0-0.9,0-1.3,0c-0.6-0.1-1.3-0.2-1.8-0.4c-0.3-0.1-0.5-0.1-0.8-0.3c-0.2-0.1-0.6-0.1-0.8-0.2c-0.3-0.2-0.7-0.3-1-0.4
						c-0.2-0.1-0.3-0.3-0.5-0.4c-0.1-0.1-0.3-0.2-0.3-0.2c-0.2-0.3,0.3-0.6,0.5-0.8c0.3-0.3,0.5-0.8,0.6-1.2
						c0.1-0.4,0.3-0.7,0.4-1.1c0.1-0.5,0.2-0.9,0.2-1.4c0-0.5-0.1-1-0.2-1.4C80.1,165.8,79.8,165.4,79.7,165"/>
					<path class="st9" d="M69.3,138.4c0.3-0.1,0.7,0.2,0.9,0.5c0.4,0.3,0.7,0.7,1,1.1c0.3,0.4,0.6,0.8,0.9,1.3
						c0.1,0.2,0.7,1.1,0.2,1.1c-0.8-0.1-1.5-0.8-1.9-1.4C69.8,140.2,69.1,139.3,69.3,138.4"/>
					<path class="st10" d="M122.8,137.8c-0.7-1-1.4-2.1-2.1-3.2c-0.7-1.1-1.4-2.1-1.9-3.3c-0.5-1.1-1.1-2.1-1.6-3.2
						c-0.2-0.6-0.5-1.1-0.7-1.7c-0.2-0.5-0.4-1.1-0.5-1.7c-0.1-0.4-0.2-0.8-0.3-1.3c-0.1-0.4-0.1-0.7-0.2-1.1
						c-0.1-0.4-0.1-0.8-0.2-1.1c-0.1-0.6-0.1-1.2-0.2-1.8c-0.2-0.9-0.2-2-0.3-2.9c-0.1-1.2-0.2-2.3,0-3.5c0.1-0.9,0.3-1.9,0.6-2.7
						c0.1-0.4,0.3-0.8,0.5-1.2c0.1-0.2,0-0.4,0.1-0.6c0.1-0.2,0.2-0.5,0.4-0.7c0.4-0.9,0.9-1.8,1.5-2.6c0.4-0.4,0.7-0.8,1.1-1.3
						c0.2-0.2,0.4-0.4,0.6-0.6c0.2-0.2,0.4-0.4,0.6-0.6c0.8-0.7,1.5-1.5,2.3-2.2c0.9-0.8,1.9-1.4,3-1.9c0.6-0.2,1.1-0.5,1.7-0.7
						c0.6-0.3,1.2-0.6,1.8-0.8c0.3-0.1,0.5-0.1,0.8-0.2c0.2,0,0.5,0,0.7-0.1c0.5-0.4,1-0.6,1.6-0.7c1-0.2,2.1-0.3,3.1-0.4
						c1-0.1,2-0.3,3.1-0.3c1.7,0.1,3.4,0.2,5.1,0.5c0.5,0.1,1,0.2,1.5,0.4c0.5,0.2,1,0.3,1.5,0.4c0.8,0.2,1.5,0.5,2.3,0.8
						c1,0.4,1.9,0.9,2.9,1.4c0.4,0.2,0.8,0.6,1.2,0.8c0.4,0.3,0.8,0.5,1.2,0.8c1.8,1.2,3.5,2.5,4.8,4.2c0.1,0.2,0.4,0.2,0.5,0.4
						c0.2,0.2,0.3,0.4,0.5,0.5c0.4,0.5,0.9,1,1.3,1.4c0.8,0.9,1.6,1.8,2.4,2.8c0.8,1.1,1.5,2.2,2.2,3.3c0.6,1.1,1.4,2.2,2,3.4
						c0.5,1,0.9,2.1,1.4,3.1c0.5,1.1,1.1,2.1,1.4,3.3c0.3,1.1,0.4,2.2,0.7,3.2c0.1,0.5,0.2,1,0.3,1.6c0.1,0.5,0.2,1,0.3,1.5
						c0.1,1.8,0.1,3.5,0,5.2c-0.1,1-0.4,2-0.6,3c-0.1,0.6-0.3,1.1-0.5,1.7c-0.1,0.4-0.1,0.8-0.3,1.1c-0.1,0.3-0.2,0.6-0.2,0.8
						c-0.2,0.5-0.5,1-0.8,1.4c-0.6,1-1.1,2-1.7,2.9c-1.2,1.9-3,3.5-4.7,4.9c-2,1.5-4.2,2.9-6.5,4c-1.1,0.5-2.3,0.9-3.5,1.2
						c-0.5,0.1-1,0.3-1.5,0.4c-0.4,0.1-0.8,0.1-1.2,0.2c-0.4,0.1-0.8,0.1-1.2,0.1c-0.4,0-0.8,0-1.2-0.1c-0.9-0.1-1.8,0-2.6-0.1
						c-2.1-0.4-4.3-0.8-6.1-2c-0.8-0.5-1.6-0.9-2.4-1.5c-0.5-0.3-0.9-0.7-1.3-1c-0.4-0.4-0.9-0.6-1.3-1c-0.3-0.3-0.8-0.6-1.1-0.9
						c-0.5-0.4-1-0.8-1.4-1.3c-0.8-0.8-1.7-1.5-2.4-2.4c-1.6-1.9-3.2-3.9-4.7-5.9C123.8,139.3,123.4,138.6,122.8,137.8"/>
					<path class="st9" d="M110.6,111.8c-0.4-0.7-0.6-1.4-0.8-2.2c0-0.2-0.1-0.5,0-0.8c0.1-0.2,0.1-0.4,0.1-0.6c0-0.1,0-0.4,0.1-0.4
						c1.1-0.7,2.6-0.7,3.5,0.2c0.2,0.2,0.5,0.5,0.4,0.9c-0.1,0.3-0.2,0.5-0.3,0.8c-0.2,0.7-0.4,1.3-0.6,2c-0.1,0.3-0.2,0.7-0.2,1
						c0,0.3-0.1,0.8-0.6,0.6c-0.4-0.2-0.6-0.5-1-0.8C111.2,112.4,110.9,112.1,110.6,111.8"/>
					<path class="st9" d="M152.1,160.8c-0.2-0.3-0.3-0.6-0.4-1c-0.1-0.4-0.4-0.8-0.2-1.2c0.1-0.2,0.2-0.3,0.4-0.5
						c0.2-0.2,0.2-0.3,0.5-0.3c0.3-0.1,0.6-0.1,0.9-0.1c0.6,0,1.3,0.1,1.9,0.1c0.5,0,0.8-0.1,1.2,0.2c0.5,0.3,0.9,0.6,1.4,1
						c0.8,0.7,1.2,1.7,1.2,2.8c0,1-0.8,1.3-1.7,1.4c-0.5,0.1-1.1,0-1.6,0c-0.2,0-0.4-0.2-0.7-0.2c-0.2,0-0.4-0.1-0.6-0.2
						C153.5,162.4,152.6,161.6,152.1,160.8"/>
					<path class="st9" d="M135.2,94c-0.2-0.2-0.2-0.5-0.2-0.7c0-0.3-0.1-0.5-0.2-0.8c0-0.2,0.1-0.5,0-0.7c0-0.2-0.1-0.5,0-0.6
						c0.1-0.4,0.1-0.9,0.2-1.2c0.1-0.4,0.2-0.8,0.3-1.1c0.6-2.1,1.6-4.2,3.4-5.5c0.3-0.2,0.7-0.7,1.2-0.5c0.5,0.2,0.9,0.8,1.2,1.2
						c0.6,0.9,1.2,1.9,1.5,3c0.2,0.9,0.4,1.9,0.4,2.8c0,0.5,0,1-0.1,1.4c-0.1,0.5-0.3,0.9-0.5,1.3c-0.2,0.7-0.8,1.5-1.7,1.5
						c-0.6-0.1-1.2-0.2-1.9-0.2c-0.5,0-1,0-1.4,0c-0.1,0-0.3,0-0.4,0c-0.3,0-0.5,0.1-0.8,0.1C135.9,94,135.4,94.2,135.2,94"/>
					<path class="st9" d="M171.1,143.2c-0.2-0.2,0.1-0.6,0.2-0.8c0.2-0.4,0.4-0.9,0.6-1.3c0.2-0.4,0.2-0.8,0.3-1.2
						c0.1-0.4,0.2-0.8,0.3-1.3c0.1-0.4,0.2-1.1,0.5-1.4c0.4-0.2,1-0.3,1.4-0.3c1-0.1,2,0.1,2.9,0.5c0.4,0.2,0.7,0.4,1.1,0.7
						c0.4,0.2,0.8,0.5,1.1,0.8c0.4,0.4,0.7,0.9,1.1,1.3c0.4,0.5,0.7,1,0.9,1.6c0.2,0.5,0,0.9-0.5,1.1c-0.5,0.3-1.1,0.5-1.6,0.7
						c-0.8,0.4-1.7,0.7-2.6,0.7c-0.9,0-1.8,0-2.7-0.1c-0.6-0.1-1.2-0.2-1.8-0.4c-0.3-0.1-0.5-0.2-0.8-0.3
						C171.5,143.4,171.2,143.3,171.1,143.2"/>
					<path class="st10" d="M141.5,81.6c0.3-0.4,0.8-0.5,1.2-0.6c0.5-0.1,1-0.4,1.5-0.4c0.3,0,0.6,0.1,0.9,0c0.5-0.1,1.1,0.1,1.5,0.1
						c1,0.2,2,0.4,3,0.9c0.9,0.4,2.1,1.1,2.7,1.9c0.3,0.4,0.7,0.8,1,1.2c0.3,0.5,0.5,1,0.7,1.6c0.4,1,0.4,2.1,0.7,3.1
						c0.2,0.5,0.2,1.1,0.3,1.6c0,0.1,0.1,0.3,0,0.4c0,0.2-0.1,0.4-0.1,0.5c0.1,0.5-0.3,1-0.4,1.4c-0.2,0.4-0.4,0.8-0.6,1.2
						c-0.1,0.2-0.1,0.4-0.2,0.5c-0.1,0.2-0.2,0.4-0.4,0.6c-0.4,0.4-0.9,0.9-1.3,1.3c-0.2,0.2-0.4,0.2-0.7,0
						c-0.2-0.1-0.4-0.2-0.6-0.3c-0.4-0.2-0.9-0.4-1.4-0.6c-0.6-0.2-1.2-0.5-1.8-0.7c-1-0.4-2-0.6-3-0.9c-0.3-0.1-1.1-0.1-1.2-0.4
						c-0.1-0.2,0.1-0.3,0.2-0.5c0.2-0.3,0.3-0.6,0.4-0.9c0.3-0.9,0.5-1.8,0.5-2.7c0-0.8-0.1-1.7-0.2-2.5c-0.1-0.4-0.1-0.8-0.2-1.2
						c-0.2-0.6-0.5-1.1-0.7-1.6c-0.3-0.5-0.6-1.1-0.9-1.5C142.3,82.6,141.7,82.2,141.5,81.6"/>
					<path class="st10" d="M172.8,125.5c0.5-0.3,0.9-0.6,1.4-0.7c0.2,0,0.5-0.1,0.7-0.1c0.3-0.1,0.5-0.3,0.8-0.4
						c0.2-0.1,0.6-0.1,0.8-0.1c0.2,0,0.5-0.1,0.7-0.1c0.4,0,0.8,0.1,1.2,0.1c0.4-0.1,0.9-0.1,1.3,0c0.4,0.1,0.8,0.4,1.2,0.5
						c0.4,0.1,0.8,0.5,1.2,0.8c0.4,0.3,0.9,0.7,1.3,1.1c0.9,0.8,1.3,1.9,1.8,3c0.2,0.5,0.5,1,0.7,1.5c0.2,0.5,0.2,0.9,0.4,1.4
						c0.1,0.4,0.1,1,0.1,1.4c0,0.4,0.2,0.8,0.1,1.2c-0.2,0.9-0.1,2-0.7,2.8c-0.1,0.2-0.2,0.4-0.2,0.6c0,0.3-0.2,0.4-0.3,0.6
						c-0.2,0.3-0.4,0.7-0.6,1.1c-0.2,0.2-0.3,0.4-0.5,0.6c-0.2,0.2-0.4,0.5-0.6,0.6c-0.4-0.1-0.7-1-0.9-1.4
						c-0.7-1.1-1.3-2.1-2.4-2.8c-0.8-0.5-1.6-1.2-2.6-1.4c-0.4-0.1-0.7-0.3-1.1-0.3c-0.5,0-1-0.1-1.5-0.1c-0.4,0-0.8,0-1.2,0.1
						c-0.6,0.1-0.4-0.6-0.4-1c0.1-0.9,0.2-1.8,0.2-2.6c0-0.4-0.2-0.8-0.1-1.3c0-0.2,0.1-0.4,0-0.6c0-0.2-0.1-0.5-0.1-0.7
						c0-0.1,0-0.4-0.1-0.6c-0.1-0.3-0.1-0.7-0.2-1.1C172.9,126.8,172.6,126.1,172.8,125.5"/>
				</g>
			</g>
			<path class="st5" d="M101.4,134.9c4.5-1.4,9.9-2.4,14.1,0.3c2.1,1.3,3.6,3.5,4.7,5.7c1,2.2,1.7,4.6,1.5,7
				c-0.4,6.2-6.3,9.4-11.5,11.3c-2.9,1.1-5.9,2-9,1.7c-3.1-0.3-5.8-1.7-7.7-4.2c-1.5-2-2.4-4.4-2.8-6.8c-0.4-2.1-0.5-4.3,0.1-6.4
				C92.2,138.8,97.1,136.3,101.4,134.9"/>
			<g>
				<path class="st8" d="M138.7,115c-0.3,0.1-0.4,0.4-0.7,0.5c-0.2,0.1-0.7,0-0.9,0c-0.8-0.1-1.6-0.8-2.1-1.4
					c-0.5-0.6-1.1-1.2-1.4-1.9c-0.3-0.6-0.6-1.6-0.1-2.2c0.5-0.5,1.5-0.5,2.1-0.2c0.7,0.3,1.2,0.9,1.7,1.4
					C138.2,112.2,139.3,113.6,138.7,115"/>
				<path class="st8" d="M151.4,135.9c-0.6-0.7-1.4-1.7-1.6-2.6c-0.1-0.7-0.1-1.5,0.7-1.9c0.7-0.3,1.7-0.1,2.3,0.3
					c0.4,0.2,0.6,0.6,0.9,0.9c0.3,0.3,0.5,0.6,0.7,0.8c0.8,0.9,1.8,2.2,1.3,3.5c-0.3,0.8-1.3,1-2.1,0.8
					C152.7,137.5,152,136.6,151.4,135.9"/>
				<path class="st5" d="M135.8,134.4c-2.9-3.6-6.4-8.9-2.7-13.3c1.7-2,5-2.4,7.4-1.4c2.2,0.9,4.1,2.8,5.3,4.8
					c1.8,3.2,2.2,7.9-0.8,10.6C142.3,137.6,138.1,137.2,135.8,134.4"/>
				<path class="st8" d="M137.3,131.8c-1-1.2-2-2.5-2.5-4.1c-0.1-0.4-0.2-0.8-0.4-1.1c-0.2-0.3-0.6-0.4-0.8-0.6
					c-0.5-0.5-0.2-1.3,0.3-1.6c0.6-0.3,1.2,0.2,1.7,0.4c0.7,0.3,1.6,0.4,2.3,0.5c0.7,0.1,1.6,0.2,2.3-0.2c0.3-0.1,0.4-0.5,0.5-0.7
					c0.1-0.3,0.4-0.5,0.6-0.7c1-0.6,2.3-0.2,2.9,0.8c0.5,1.1,0.4,2.4-0.7,2.9c-0.3,0.2-0.7,0.2-1,0.4c-0.3,0.2-0.3,0.6-0.5,0.9
					c-0.4,0.7-0.6,1.5-0.7,2.3c-0.1,0.7,0,1.2,0.2,1.8c0.1,0.2,0.2,0.5,0.1,0.7c0,0.3-0.3,0.5-0.4,0.9c-0.2,0.5-0.2,1.1-0.5,1.6
					c-0.2,0.5-0.7,0.9-1.1,1.2c-0.8,0.6-2.1,0.7-2.9,0c-0.8-0.7-0.9-1.8-0.9-2.8c0-0.5,0.2-0.8,0.4-1.2
					C136.6,132.8,136.9,132.3,137.3,131.8"/>
				<path class="st11" d="M138.7,133.1c1.3,0.2,0.8,2.1,0,2.7c-0.6,0.5-1-0.1-1-0.7C137.7,134.2,138.2,133.6,138.7,133.1"/>
				<path class="st12" d="M137,127.5c0.1-0.2,0.3-0.1,0.5,0c0.2,0.1,0.5,0,0.7,0.1c0.7,0.1,1.4-0.1,2.1-0.1c0.1,0.5-0.3,1-0.5,1.5
					c-0.2,0.6-0.2,1.3-0.6,1.9C138.1,129.9,137.4,128.7,137,127.5"/>
			</g>
		</g>
	</g>
</g>
<g>
	<path class="st13" d="M51.1,220.1c-1.4,0-2.5-0.2-3.5-0.5c-1.4-0.5-2.1-1.3-2.1-2.4c0-0.9,0.2-1.5,0.5-2c0.3-0.4,0.6-0.6,1-0.6
		c0.3,0,0.5,0.1,0.7,0.3c0.2,0.2,0.3,0.4,0.3,0.7c0,0.2,0,0.4-0.1,0.6c-0.1,0.2-0.1,0.4-0.1,0.5c0,0.4,0.3,0.7,0.9,0.9
		c0.5,0.1,1.3,0.2,2.6,0.2c1.9,0,3.4-0.1,4.5-0.4c0.1,0,0.2,0,0.3,0c0.3,0,0.6,0.1,0.8,0.4c0.2,0.2,0.3,0.5,0.3,0.8
		c0,0.6-0.3,0.9-0.8,1.1C54.9,219.9,53.2,220.1,51.1,220.1z M54.8,210.5c-0.2,0.2-0.5,0.4-0.8,0.4c-0.9,0.1-1.9,0.1-2.9,0.1
		c-0.9,0-2-0.1-3.5-0.2c-0.8-0.1-1.2-0.4-1.2-1.1c0-0.3,0.1-0.6,0.3-0.8c0.2-0.2,0.5-0.3,0.9-0.3c1.3,0.1,2.2,0.2,2.8,0.2
		c1.1,0,2.2,0,3.3-0.1c0.4,0,0.8,0.1,1.1,0.3c0.2,0.2,0.3,0.5,0.3,0.8C55.1,210.1,55,210.3,54.8,210.5z M56.7,209.6
		c-0.1,0.1-0.3,0.2-0.4,0.2c-0.3,0-0.5-0.1-0.6-0.3c-0.1-0.2-0.4-0.6-0.7-1.1c-0.2-0.3-0.3-0.5-0.3-0.7c0-0.4,0.2-0.6,0.7-0.6
		c0.2,0,0.4,0.1,0.6,0.3c0.3,0.4,0.6,0.8,0.8,1.2c0.1,0.2,0.1,0.4,0.1,0.6C56.9,209.4,56.8,209.5,56.7,209.6z M58.1,209.1
		c-0.3,0-0.5-0.1-0.6-0.3c-0.1-0.2-0.4-0.6-0.7-1.1c-0.2-0.3-0.3-0.5-0.3-0.7c0-0.4,0.2-0.6,0.7-0.6c0.2,0,0.4,0.1,0.6,0.3
		c0.3,0.4,0.6,0.8,0.8,1.2c0.1,0.2,0.1,0.4,0.1,0.6C58.7,208.9,58.5,209.1,58.1,209.1z"/>
	<path class="st13" d="M62.3,212.1c-0.2,1.6-0.2,2.8-0.2,3.8c0,0.9,0,2,0.1,3.1c0,0.4-0.1,0.6-0.3,0.9c-0.2,0.2-0.5,0.3-0.8,0.3
		c-0.3,0-0.5-0.1-0.7-0.3c-0.2-0.2-0.4-0.4-0.4-0.8c-0.1-1.2-0.1-2.3-0.1-3.2c0-1,0.2-3.4,0.6-7c0.1-0.7,0.4-1,1.1-1
		c0.3,0,0.6,0.1,0.8,0.3c0.2,0.2,0.3,0.5,0.3,0.9C62.5,210.1,62.4,211.1,62.3,212.1z M72.5,218.6c-0.2,0.3-0.5,0.4-0.7,0.4
		c-0.1,0-0.3-0.1-0.5-0.2c-0.2-0.1-0.5-0.4-1.1-0.7c-0.7,1.3-1.8,2-3.4,2c-1,0-1.8-0.2-2.4-0.7c-0.7-0.5-1-1.1-1-1.8
		c0-0.8,0.4-1.5,1.1-2c0.6-0.4,1.4-0.6,2.3-0.6c0.5,0,0.9,0.1,1.3,0.3c0-0.5,0-1.4-0.1-2.6c-2.1,0-3.2,0-3.3,0
		c-0.3,0-0.6-0.1-0.8-0.3c-0.2-0.2-0.3-0.4-0.3-0.7c0-0.3,0.1-0.6,0.3-0.8c0.2-0.2,0.5-0.3,0.9-0.3c0.8,0,1.9,0,3.2,0
		c0-0.2,0-0.4,0-0.7c0-0.2,0-0.4,0-0.5c0-0.9,0.4-1.4,1.2-1.4c0.4,0,0.7,0.1,0.9,0.3c0.2,0.2,0.3,0.5,0.3,0.9c0,0.2,0,0.6,0,1.2
		c0.3-0.1,0.7-0.1,1.3-0.2c0.8,0,1.2,0.3,1.2,0.8c0,0.5-0.1,0.8-0.3,1c-0.2,0.2-0.5,0.3-1,0.3c-0.2,0-0.6,0.1-1.2,0.1
		c0,1.4,0.1,2.6,0.1,3.4c0.7,0.3,1.3,0.6,1.6,0.8c0.6,0.4,0.8,0.8,0.8,1.2C72.9,218,72.7,218.3,72.5,218.6z M66.7,216.5
		c-0.8,0-1.2,0.3-1.2,0.9c0,0.2,0.2,0.4,0.5,0.6c0.3,0.2,0.6,0.2,0.9,0.2s0.6-0.1,0.9-0.4c0.2-0.2,0.4-0.5,0.4-0.8
		C67.7,216.7,67.2,216.5,66.7,216.5z"/>
	<path class="st13" d="M85.9,219c-0.9,0.8-1.8,1.2-2.8,1.2c-0.9,0-1.7-0.2-2.2-0.7c-0.5-0.5-0.8-1.1-0.8-2c0-0.1,0-0.3,0-0.7
		c0-0.4,0-0.6,0-0.8c0-0.6-0.2-0.9-0.7-0.9c-0.2,0-0.6,0.2-1,0.6c-0.5,0.4-0.8,0.7-1,1.1c-0.3,0.5-0.8,1.4-1.3,2.7
		c-0.3,0.6-0.6,0.9-0.9,0.9c-0.9,0-1.3-0.4-1.3-1.2c0-0.3,0.7-1.9,2.1-4.9c0.6-1.4,1.6-3.5,3-6.2c0.2-0.4,0.5-0.6,0.9-0.6
		c0.3,0,0.6,0.1,0.8,0.3c0.2,0.2,0.4,0.4,0.4,0.7c0,0.2-0.1,0.4-0.2,0.6c-0.4,0.8-1.1,2.3-2.2,4.5c0.6-0.3,1.2-0.4,1.6-0.4
		c0.7,0,1.2,0.3,1.5,1c0.2,0.5,0.4,1.1,0.4,1.7c0,0.8,0,1.3,0.1,1.6c0.1,0.5,0.4,0.8,0.8,0.8c0.6,0,1.2-0.6,1.8-1.7
		c0.1-0.2,0.2-0.4,0.3-0.7c0.2-0.3,0.5-0.5,0.9-0.5c0.3,0,0.5,0.1,0.8,0.3c0.2,0.2,0.3,0.5,0.3,0.8C87.3,217.4,86.8,218.2,85.9,219z
		"/>
	<path class="st13" d="M94.3,220.1c-0.6,0-1.2-0.1-1.7-0.4c-0.6-0.3-1-0.7-1-1.2c0-0.6,0.3-0.9,0.9-0.9c0.2,0,0.4,0.1,0.7,0.2
		c0.3,0.1,0.5,0.2,0.7,0.2c0.5,0,0.8-0.6,1-1.7c0.1-0.4,0.1-1.2,0.1-2.3c0-0.9-0.4-1.3-1.2-1.3c-0.2,0-0.4,0-0.7,0.1
		c-0.7,2.5-1.5,4.7-2.5,6.5c-0.3,0.6-0.7,0.9-1,0.9c-0.3,0-0.6-0.1-0.8-0.3c-0.2-0.2-0.3-0.4-0.3-0.6c0-0.3,0.1-0.6,0.2-0.8
		c0.8-1.5,1.6-3.2,2.2-5.3c-0.7,0.2-1.2,0.2-1.5,0.2c-0.2,0-0.4,0-0.5-0.1c-0.3-0.2-0.5-0.5-0.5-1c0-0.5,0.3-0.8,1-0.9
		c0.4,0,1.1-0.1,2-0.2c0.2-0.9,0.4-1.5,0.4-1.9c0.1-0.7,0.5-1.1,1.2-1.1c0.3,0,0.5,0.1,0.8,0.3c0.2,0.2,0.3,0.4,0.3,0.7
		c0,0.2,0,0.4-0.1,0.6c-0.1,0.2-0.2,0.6-0.3,1.2l0.9-0.1c0.1,0,0.2,0,0.3,0c0.6,0,1.1,0.2,1.6,0.7c0.6,0.6,0.8,1.5,0.8,2.8
		C97.1,218,96.2,220.1,94.3,220.1z M100.5,215.8c-0.2,0.2-0.5,0.3-0.8,0.3c-0.4,0-0.7-0.2-0.9-0.6c-0.2-0.5-0.4-1.3-0.7-2.3
		c-0.3-1-0.5-1.6-0.6-1.9c-0.1-0.2-0.2-0.5-0.3-0.8c-0.1-0.3-0.2-0.6-0.2-0.8c0-0.2,0.1-0.4,0.3-0.6s0.5-0.3,0.9-0.3
		c0.3,0,0.5,0.2,0.7,0.4c0.6,0.9,1.3,2.7,1.9,5.3c0,0.1,0,0.2,0,0.3C100.9,215.3,100.7,215.6,100.5,215.8z M100.1,209.2
		c-0.1,0.1-0.3,0.2-0.4,0.2c-0.3,0-0.5-0.1-0.6-0.3c-0.1-0.2-0.4-0.6-0.7-1.1c-0.2-0.3-0.3-0.5-0.3-0.7c0-0.4,0.2-0.6,0.7-0.6
		c0.2,0,0.4,0.1,0.6,0.3c0.3,0.4,0.6,0.8,0.8,1.2c0.1,0.2,0.1,0.4,0.1,0.6C100.3,209,100.3,209.1,100.1,209.2z M101.7,209.1
		c-0.3,0-0.5-0.1-0.6-0.3c-0.1-0.2-0.4-0.6-0.7-1.1c-0.2-0.3-0.3-0.5-0.3-0.7c0-0.4,0.2-0.6,0.7-0.6c0.2,0,0.4,0.1,0.6,0.3
		c0.3,0.4,0.6,0.8,0.8,1.2c0.1,0.2,0.1,0.4,0.1,0.6C102.3,208.9,102.1,209.1,101.7,209.1z"/>
	<path class="st13" d="M112.2,207.6c1,0.6,2.6,1.4,4.7,2.3c0.2,0.2,0.4,0.4,0.4,0.7c0,0.4-0.1,0.6-0.3,0.9c-0.2,0.2-0.4,0.3-0.8,0.3
		s-0.7-0.1-1.1-0.2c0.3,0.3,0.4,0.7,0.4,1.2v2.8c0,0.2-0.1,0.4-0.2,0.5c0.1,0,0.2-0.1,0.2-0.1c0.3,0,0.5,0.1,0.7,0.3
		c0.2,0.2,0.2,0.4,0.2,0.7c0,0.2-0.1,0.4-0.3,0.5c-0.4,0.3-1,0.6-1.7,1c0.6,0.2,1.3,0.5,2.1,0.7c0.3,0.2,0.5,0.4,0.5,0.8
		c0,0.4-0.1,0.6-0.3,0.8c-0.2,0.2-0.4,0.3-0.8,0.3c-0.5,0-1-0.1-1.8-0.4c-1.3-0.5-2.6-1.1-3.8-2c0,0.2,0.1,0.3,0.1,0.4
		c0,0.3-0.1,0.5-0.2,0.7c-0.1,0.1-0.4,0.2-0.7,0.3c-2.3,0.4-4.1,0.5-5.3,0.5c-0.4,0-0.6-0.1-0.8-0.3c-0.1-0.2-0.2-0.4-0.2-0.7
		c0-0.3,0.1-0.6,0.3-0.8c0.1-0.1,0.3-0.2,0.6-0.2c0.3,0,0.5,0,0.8-0.1v-5.7c0-0.4,0.1-0.8,0.3-1.1c-0.1,0-0.1,0.1-0.1,0.1
		c-0.4,0.2-0.7,0.2-0.9,0.2c-0.4,0-0.7-0.1-0.9-0.4c-0.2-0.2-0.2-0.5-0.2-0.9c0-0.2,0.2-0.4,0.4-0.5c1.9-0.9,3.6-1.8,5-2.8
		c0.5-0.3,1-0.4,1.6-0.4C110.8,207,111.5,207.2,112.2,207.6z M106.7,211.2h2.3v-0.4c0-0.3,0.1-0.5,0.3-0.8c0.2-0.1,0.4-0.2,0.8-0.2
		c0.4,0,0.6,0.1,0.8,0.2c0.2,0.2,0.3,0.4,0.3,0.7v0.4h2.7c0.1,0,0.2,0,0.3,0c-1.1-0.5-2.4-1.2-3.7-2.1c-0.2-0.1-0.3-0.1-0.3-0.1
		c-0.2,0-0.3,0-0.5,0.1c-1.3,0.9-2.5,1.6-3.4,2.2C106.4,211.2,106.6,211.2,106.7,211.2z M113.2,213.2v-0.5c0-0.1-0.1-0.2-0.4-0.2
		h-5.2c-0.2,0-0.3,0.1-0.3,0.2v0.5H113.2z M107.7,215.1h5.2c0.2,0,0.4-0.1,0.4-0.2v-0.5h-5.9v0.5C107.4,215,107.5,215.1,107.7,215.1
		z M108.3,216.4h-0.9v1.9c0.8-0.1,1.6-0.1,2.3-0.2c0,0,0.1,0,0.1,0C109.2,217.6,108.7,217,108.3,216.4z M115,216.2
		c-0.3,0.1-0.7,0.2-1.2,0.2h-3.1c0.4,0.4,0.8,0.7,1.2,0.9c0.2,0.1,0.4,0.2,0.7,0.3C113.6,217.2,114.4,216.7,115,216.2z"/>
	<path class="st13" d="M131.1,218.7c-0.3,0.3-0.5,0.4-0.8,0.4s-0.6-0.1-0.8-0.3c-0.6-0.5-1.4-1.5-2.7-2.8c-1.2-1.3-2.2-2.5-2.9-3.3
		c-0.3-0.3-0.5-0.5-0.6-0.5c-0.2,0-0.4,0.2-0.6,0.6c-0.5,0.8-0.9,1.4-1.2,1.8c-0.5,0.7-0.9,1.3-1.3,1.8c-0.2,0.3-0.5,0.4-0.8,0.4
		c-0.3,0-0.6-0.1-0.8-0.3c-0.3-0.2-0.4-0.5-0.4-0.8c0-0.2,0.1-0.5,0.3-0.7c0.6-0.9,1.2-1.7,1.8-2.6c1-1.4,1.6-2.2,1.9-2.4
		c0.3-0.2,0.7-0.3,1-0.3c0.5,0,0.9,0.2,1.3,0.5c0.2,0.2,0.6,0.6,1,1.1c0.6,0.8,1.6,1.8,2.9,3.2c1.2,1.3,2.1,2.2,2.6,2.7
		c0.2,0.2,0.4,0.5,0.4,0.8C131.5,218.1,131.3,218.4,131.1,218.7z M129.2,211.3c-0.1,0.1-0.3,0.2-0.4,0.2c-0.3,0-0.5-0.1-0.6-0.3
		c-0.1-0.2-0.4-0.6-0.7-1.1c-0.2-0.3-0.3-0.5-0.3-0.7c0-0.4,0.2-0.6,0.7-0.6c0.2,0,0.4,0.1,0.6,0.3c0.3,0.4,0.6,0.8,0.8,1.2
		c0.1,0.2,0.1,0.4,0.1,0.6C129.4,211.1,129.3,211.2,129.2,211.3z M130.7,210.9c-0.3,0-0.5-0.1-0.6-0.3c-0.1-0.2-0.4-0.6-0.7-1.1
		c-0.2-0.3-0.3-0.5-0.3-0.7c0-0.4,0.2-0.6,0.7-0.6c0.2,0,0.4,0.1,0.6,0.3c0.3,0.4,0.6,0.8,0.8,1.2c0.1,0.2,0.1,0.4,0.1,0.6
		C131.3,210.7,131.1,210.9,130.7,210.9z"/>
	<path class="st13" d="M142.3,219.2c-1.1,0.7-2.5,1.1-4.1,1.1c-0.9,0-1.6-0.1-2.1-0.2c-0.6-0.1-1-0.4-1-1.1c0-0.3,0.1-0.6,0.4-0.8
		c0.2-0.2,0.5-0.3,0.9-0.3c0.4,0.1,1,0.1,1.8,0.1c1.2,0,2.2-0.2,2.9-0.7c0.6-0.4,0.9-0.8,0.9-1.4c0-0.5-0.2-0.8-0.4-1.1
		c-0.3-0.4-0.8-0.5-1.4-0.5c-1,0-2,0.2-3,0.6c-0.5,0.2-1.2,0.6-2,1.1c-0.6,0.4-1.1,0.6-1.3,0.6c-0.8,0-1.1-0.5-1.1-1.5
		c0-0.3,0.1-0.9,0.2-1.7c0.1-0.7,0.2-1.4,0.4-2.1c0.1-0.6,0.4-0.9,1.1-0.9c0.3,0,0.6,0.1,0.8,0.3c0.2,0.2,0.3,0.5,0.3,0.8
		c0,0.3-0.1,0.7-0.2,1.2c-0.1,0.4-0.2,0.8-0.3,1.2c1.5-0.9,3.2-1.4,5.1-1.4c1.3,0,2.3,0.4,3,1.1c0.7,0.7,1,1.5,1,2.4
		C144.1,217.4,143.5,218.4,142.3,219.2z M140.4,209.9c-0.2,0.2-0.5,0.3-0.8,0.3c-0.4,0-1-0.1-1.9-0.3c-0.7-0.2-1.4-0.3-2.1-0.5
		c-0.6-0.1-0.9-0.5-0.9-1.1c0-0.3,0.1-0.5,0.3-0.7c0.2-0.2,0.5-0.3,0.8-0.3c0.1,0,0.2,0,0.2,0c0.8,0.2,2,0.4,3.7,0.7
		c0.6,0.1,0.9,0.5,0.9,1.1C140.7,209.4,140.6,209.7,140.4,209.9z"/>
	<path class="st13" d="M158.5,219c-0.6,0.5-1.2,0.7-2,0.7c-0.7,0-1.2-0.2-1.6-0.6c-0.4-0.4-0.6-1-0.6-1.7c0-0.4,0.2-1.8,0.5-4.2
		c0-0.4,0.1-0.7,0.1-0.8c0-0.4-0.2-0.6-0.6-0.6c-0.3,0-0.7,0.2-1.3,0.6c-0.9,0.7-1.7,1.3-2.3,1.9v5.3c0,0.3-0.1,0.5-0.3,0.7
		c-0.2,0.2-0.5,0.3-0.8,0.3c-0.7,0-1.1-0.3-1.1-1c0-0.1,0-0.5,0-1.3l0-2.1c-0.8,1.6-1.5,2.3-1.9,2.3c-0.4,0-0.7-0.1-0.9-0.4
		c-0.2-0.2-0.3-0.5-0.3-0.8c0-0.2,0-0.3,0.2-0.5c0.6-0.9,1.6-2.4,3-4.5c-0.4,0.1-1,0.3-1.8,0.4c-0.3,0-0.5-0.1-0.8-0.3
		c-0.2-0.2-0.4-0.5-0.4-0.9c0-0.6,0.3-1,0.8-1.1c0.5-0.1,1.2-0.2,2.3-0.5c0-0.6,0-1.1,0-1.8c0-0.3,0.1-0.5,0.3-0.6
		c0.2-0.2,0.5-0.2,0.8-0.2c0.3,0,0.6,0.1,0.8,0.2c0.2,0.2,0.3,0.4,0.3,0.6c0,1.3-0.1,2.4-0.2,3.2c1-0.7,1.8-1.3,2.4-1.5
		c0.6-0.3,1.2-0.5,1.8-0.5c0.8,0,1.3,0.3,1.7,0.8c0.2,0.4,0.4,0.8,0.4,1.1c0,0.2-0.2,1.8-0.5,4.7c0,0.7,0.1,1,0.4,1.1
		c0.2,0,0.4-0.1,0.7-0.4s0.5-0.4,0.7-0.4c0.3,0,0.5,0.1,0.7,0.3c0.2,0.2,0.2,0.4,0.2,0.7C159.3,218.1,159,218.6,158.5,219z"/>
	<path class="st13" d="M171.5,219.3c-1,0.8-2.4,1.2-4.2,1.2c-1.2,0-2.2-0.2-2.8-0.7s-1-1-1-1.8c0-0.6,0.2-1.1,0.7-1.5
		c0.5-0.4,1.2-0.6,2.1-0.6c0.7,0,1.3,0.2,2,0.6c0.6,0.4,1,0.8,1.4,1.4c0.8-0.5,1.3-1.2,1.3-2c0-0.5-0.3-0.9-0.9-1.3
		c-0.6-0.3-1.2-0.5-2-0.5c-0.7,0-1.5,0.1-2.4,0.4c-0.9,0.3-1.8,0.7-2.4,1.2c-0.5,0.4-0.7,0.6-0.8,0.6c-0.3,0.2-0.6,0.3-0.8,0.3
		c-0.3,0-0.6-0.1-0.7-0.3c-0.2-0.2-0.3-0.4-0.3-0.6c0-0.4,0.2-0.8,0.5-1.1c1-0.8,2.8-2.3,5.5-4.5l-3.4,0.3c-0.4,0-0.7-0.1-0.9-0.3
		c-0.2-0.2-0.4-0.4-0.4-0.7c0-0.3,0.1-0.6,0.3-0.8c0.2-0.2,0.5-0.3,0.8-0.3c0.6,0,1.6,0,3.2-0.1s2.6-0.2,3.2-0.2
		c0.3,0,0.6,0.1,0.8,0.3c0.2,0.2,0.3,0.6,0.3,0.9c0,0.2-0.5,0.7-1.3,1.3c-0.6,0.5-1.5,1.1-2.5,2c0.6-0.1,1.3-0.2,2.1-0.2
		c1,0,1.9,0.3,2.7,0.8c0.9,0.7,1.4,1.6,1.4,2.8C173.1,217.4,172.5,218.5,171.5,219.3z M166.3,217.7c-0.6,0-0.9,0.2-0.9,0.5
		c0,0.4,0.5,0.5,1.4,0.5c0.3,0,0.5,0,0.8-0.1C167.2,218,166.8,217.7,166.3,217.7z"/>
	<path class="st13" d="M177.4,210.9c0.1,0,0.2,0,0.3,0h6.8c1,0,1.7,0.2,2.1,0.5c0.3,0.3,0.5,1.3,0.5,2.9h0.4c0.4,0,0.6,0.1,0.8,0.2
		c0.1,0.1,0.2,0.4,0.2,0.7c0,0.3-0.1,0.5-0.2,0.7c-0.2,0.2-0.5,0.3-0.8,0.3h-0.4c0,0.6,0,1.1-0.1,1.6h0.4c0.6,0,0.9,0.4,0.9,1
		c0,0.6-0.4,0.9-0.9,0.9h-0.7c-0.2,0.4-0.4,0.7-0.8,0.9c-0.4,0.3-1,0.4-1.9,0.4c-0.4,0-0.8-0.1-1.1-0.3c-0.4-0.1-0.6-0.3-0.7-0.7
		c0-0.2,0-0.3,0.1-0.4h-5.2c-1.1,0-1.6-0.5-1.6-1.4c0-0.2,0-0.4,0.1-0.8c0-0.4,0.1-0.8,0.1-1.2h-0.3c-0.3,0-0.6-0.1-0.8-0.2
		c-0.2-0.1-0.2-0.4-0.2-0.8c0-0.4,0.1-0.6,0.2-0.7c0.2-0.1,0.4-0.2,0.8-0.2h0.4c0-0.5,0-1,0.1-1.6c0-0.4,0.1-0.7,0.2-0.9
		c-0.1,0-0.2,0-0.2,0c-0.4,0-0.7-0.2-1.1-0.5c-0.3-0.2-0.4-0.6-0.4-0.9c0-0.1,0.1-0.3,0.2-0.5c0.2-0.2,0.4-0.3,0.6-0.6
		c0.4-0.4,0.8-0.8,1.2-1.2c0.4-0.4,0.6-0.7,0.8-0.9c0.2-0.2,0.4-0.3,0.7-0.3c0.3,0,0.6,0.1,0.9,0.3c0.3,0.2,0.5,0.5,0.5,0.8h7.8
		c0.4,0,0.7,0.1,0.8,0.2c0.2,0.2,0.2,0.4,0.2,0.8s-0.1,0.6-0.2,0.8c-0.2,0.2-0.4,0.3-0.8,0.3h-8.9
		C177.9,210.5,177.6,210.7,177.4,210.9z M180,216.3h-2.2c0,0.2,0,0.3,0,0.4c0,0.5-0.1,0.7-0.1,0.8c0,0.2,0.2,0.4,0.5,0.4h1.8
		L180,216.3z M180.1,214.3l0.1-1.6h-1.8c-0.3,0-0.4,0.2-0.5,0.6c0,0.3,0,0.6,0,0.9H180.1z M184.9,216.3h-2.6l-0.1,1.6h2.6
		C184.9,217.4,184.9,216.9,184.9,216.3z M182.4,214.3h2.6c0-0.8-0.1-1.3-0.2-1.4c-0.1-0.1-0.3-0.2-0.6-0.2h-1.7L182.4,214.3z"/>
	<path class="st13" d="M201,207.8c1.1,0,1.6,0.6,1.6,1.6v9.6c0,1.1-0.5,1.6-1.6,1.6h-8.4c-1.1,0-1.6-0.5-1.6-1.6v-9.6
		c0-1.1,0.5-1.6,1.6-1.6H201z M200.3,213v-2.4c0-0.4-0.2-0.7-0.7-0.7h-5.8c-0.4,0-0.7,0.2-0.7,0.7v2.4H200.3z M200.3,217.8v-2.7
		h-7.1v2.7c0,0.4,0.2,0.7,0.7,0.7h5.8C200.1,218.5,200.3,218.2,200.3,217.8z"/>
	<path class="st13" d="M208.1,209.5c-0.5,2-0.7,3.7-0.7,5.3c0,0.4,0,1.1,0.1,2.1c0,1,0.1,1.8,0.1,2.4c0,0.3-0.1,0.5-0.4,0.7
		c-0.3,0.2-0.6,0.3-0.9,0.3c-0.2,0-0.4-0.1-0.6-0.2c-0.2-0.2-0.3-0.3-0.3-0.6c-0.1-1.2-0.1-2.6-0.1-4.4c0-2.1,0.2-4.1,0.7-5.9
		c0.2-0.6,0.5-0.9,1.1-0.9c0.3,0,0.6,0.1,0.8,0.3c0.2,0.2,0.3,0.4,0.3,0.7C208.1,209.3,208.1,209.4,208.1,209.5z M216.9,219.5
		c-0.6,0.1-1.5,0.2-2.8,0.2c-1.7,0-3-0.2-3.7-0.6c-1-0.5-1.4-1.3-1.4-2.6c0-0.5,0.2-1,0.5-1.5c0.3-0.5,0.6-0.8,1-0.8
		c0.3,0,0.6,0.1,0.8,0.3c0.2,0.2,0.3,0.4,0.3,0.6c0,0-0.1,0.2-0.2,0.6c-0.2,0.3-0.2,0.6-0.2,0.8c0,0.7,0.9,1.1,2.9,1.1
		c0.5,0,1.1,0,1.7-0.1c0.6-0.1,0.9-0.1,1-0.1c0.7,0,1.1,0.3,1.1,1C217.7,219,217.4,219.4,216.9,219.5z M216.9,211
		c-0.2,0.2-0.6,0.3-0.9,0.3c-0.6-0.1-1.4-0.1-2.2-0.1c-1.1,0-2,0.1-2.9,0.2c-0.4,0-0.7-0.1-0.9-0.3c-0.2-0.2-0.3-0.5-0.3-0.8
		c0-0.6,0.4-0.9,1.1-1c1-0.1,1.9-0.2,2.7-0.2c0.8,0,1.7,0.1,2.7,0.2c0.3,0,0.6,0.2,0.7,0.4c0.2,0.2,0.2,0.4,0.2,0.7
		C217.2,210.6,217.1,210.9,216.9,211z"/>
	<path class="st13" d="M92.9,235.3c0.2,0.1,0.3,0.4,0.3,0.7c0,0.2-0.1,0.4-0.2,0.7c-0.3,0.9-0.6,1.5-0.8,1.9
		c-0.1,0.3-0.4,0.5-0.9,0.5c-0.2,0-0.5-0.1-0.7-0.3c-0.2-0.1-0.3-0.3-0.3-0.6c0-0.1,0-0.3,0.1-0.4c0.3-0.6,0.6-1.2,0.8-2
		c0.1-0.4,0.4-0.6,0.8-0.6C92.4,235,92.7,235.1,92.9,235.3z M104.6,227.2c0,0.5-0.3,0.8-0.8,0.8h-2.7c0.1,0.8,0.2,1.5,0.4,2.1
		c0.3-0.4,0.6-0.8,0.9-1.1c0.2-0.2,0.4-0.4,0.7-0.4c0.2,0,0.4,0.1,0.6,0.3c0.2,0.2,0.3,0.4,0.4,0.6c0,0.2-0.1,0.4-0.2,0.5
		c-0.5,0.9-1,1.7-1.7,2.4c0.2,0.4,0.4,0.6,0.6,0.6c0.1,0,0.3-0.2,0.4-0.5c0.1-0.3,0.3-0.4,0.4-0.4c0.2,0,0.4,0.1,0.7,0.3
		c0.2,0.2,0.3,0.5,0.3,0.7c0,0.6-0.2,1-0.5,1.4c-0.4,0.4-0.8,0.6-1.3,0.6c-0.1,0-0.3,0-0.4,0c0,0,0.1,0.1,0.1,0.1
		c0.3,0.2,0.6,0.5,0.9,0.9c0.7,1,1.1,1.7,1.1,2.2c0,0.3-0.1,0.5-0.3,0.6c-0.2,0.2-0.5,0.3-0.9,0.3c-0.3,0-0.6-0.2-0.7-0.5
		c-0.4-0.7-0.8-1.3-1.2-1.9c0,0.1,0,0.1,0,0.2c0,0.6-0.2,1.1-0.4,1.5c-0.3,0.4-0.8,0.7-1.7,0.8h-3.9c-0.5,0-0.9-0.2-1.1-0.5
		c-0.2-0.3-0.3-0.7-0.3-1.4v-1.6c0-0.3,0.1-0.5,0.3-0.7c0.2-0.2,0.4-0.2,0.8-0.2c0.3,0,0.6,0.1,0.8,0.2c0.2,0.2,0.3,0.4,0.3,0.7v1.1
		c0,0.2,0.1,0.4,0.4,0.4h2.4c0.2,0,0.3,0,0.4-0.2c0.1-0.1,0.2-0.4,0.2-0.6c0.1-0.2,0.4-0.4,0.8-0.4c0.2,0,0.5,0.1,0.7,0.2
		c0-0.1-0.1-0.2-0.1-0.2c0-0.3,0.1-0.6,0.4-0.7c0.2-0.1,0.5-0.2,0.8-0.2c0,0,0,0,0.1,0c-0.5-0.2-1-0.6-1.4-1.2
		c-0.1,0.1-0.2,0.2-0.3,0.3c-0.3,0.3-0.6,0.5-1.1,0.5c-0.3,0-0.6-0.1-0.8-0.4c0,0-0.1-0.1-0.1-0.1c-0.2,0.2-0.4,0.3-0.8,0.3h-3
		c-0.7,0-1-0.3-1-1v-1.3c0-0.7,0.3-1,1-1h3c0.7,0,1,0.3,1,1v0.7c0.3-0.2,0.6-0.5,0.8-0.7c0.1-0.1,0.2-0.2,0.2-0.2
		c-0.3-0.7-0.5-1.6-0.7-2.5c-0.1-0.5-0.2-0.9-0.2-1.3h-4.9c-0.3,0-0.5,0.1-0.5,0.4v1.3c0,1.8-0.3,3.3-0.9,4.4
		c-0.1,0.2-0.2,0.4-0.4,0.6c-0.2,0.2-0.4,0.2-0.7,0.2c-0.4,0-0.7-0.1-0.8-0.2c-0.2-0.2-0.3-0.4-0.3-0.8c0-0.1,0-0.2,0.1-0.3
		c0.5-0.7,0.8-1.5,0.9-2.2c0-0.6,0.1-1.2,0.1-1.7v-1.8c0-1,0.6-1.6,1.7-1.6h5.6v-0.1c0-0.3,0.1-0.6,0.3-0.7c0.2-0.1,0.4-0.2,0.8-0.2
		c0.6,0,0.9,0.2,1,0.7c0,0.1,0,0.2,0,0.3h0.8c0-0.1-0.1-0.1-0.1-0.2c-0.1,0-0.1-0.1-0.1-0.1c0-0.2,0.1-0.4,0.3-0.6
		c0.2-0.1,0.4-0.2,0.7-0.2c0.3,0,0.5,0.1,0.7,0.4c0.2,0.2,0.4,0.4,0.6,0.7h0C104.3,226.4,104.6,226.7,104.6,227.2z M98.2,228.9
		c0.3,0,0.5,0.1,0.6,0.2c0.1,0.1,0.2,0.3,0.2,0.6c0,0.2,0,0.4-0.1,0.5c-0.2,0.2-0.4,0.2-0.6,0.2h-3.5c-0.3,0-0.5-0.1-0.6-0.2
		c-0.1-0.1-0.2-0.3-0.2-0.6c0-0.3,0.1-0.5,0.2-0.6c0.1-0.1,0.3-0.2,0.6-0.2H98.2z M97.3,232.9v-0.4c0-0.1-0.1-0.2-0.2-0.2h-1.4
		c-0.1,0-0.2,0.1-0.2,0.2v0.4c0,0.1,0,0.2,0.2,0.2h1.4C97.2,233.1,97.3,233.1,97.3,232.9z M98.8,234.8c0.1,0.1,0.3,0.3,0.4,0.6
		c0.1,0.2,0.2,0.4,0.2,0.5c0,0.3-0.1,0.5-0.2,0.6c-0.2,0.2-0.4,0.3-0.8,0.3c-0.3,0-0.5,0-0.6-0.2c-0.1-0.1-0.2-0.2-0.2-0.3
		c-0.2-0.2-0.4-0.5-0.7-0.8c0,0,0,0,0-0.1c0-0.1,0-0.2,0.1-0.4c0.1-0.2,0.3-0.3,0.5-0.4c0.2-0.1,0.3-0.1,0.5-0.1
		C98.3,234.4,98.6,234.5,98.8,234.8z"/>
	<path class="st13" d="M109.7,228c0.3,0,0.4,0.1,0.6,0.2c0.1,0.1,0.2,0.3,0.2,0.6c0,0.3,0,0.5-0.1,0.6c-0.1,0.2-0.4,0.3-0.7,0.3
		h-3.1c-0.2,0-0.4-0.1-0.6-0.2c-0.2-0.1-0.2-0.3-0.2-0.6c0-0.3,0.1-0.5,0.2-0.6c0.1-0.1,0.3-0.2,0.6-0.2H109.7z M109.5,234.4
		c0.3,0,0.5,0.1,0.6,0.2c-0.1-0.1-0.1-0.3-0.1-0.5c0-0.2,0.1-0.4,0.2-0.5c0.1-0.1,0.2-0.2,0.4-0.2l0.2,0c0,0,0-0.1,0-0.2v-5.1
		c0-0.9,0.4-1.4,1.1-1.4h0.4c0-0.2,0.1-0.5,0.2-0.8c0.1-0.3,0.4-0.5,0.8-0.5c0.2,0,0.5,0,0.6,0.1c0.2,0.1,0.3,0.2,0.3,0.5
		c0,0.1,0,0.4-0.1,0.7h0.3c0.8,0,1.2,0.4,1.2,1.3v3.1c0,0,0,0,0.1-0.1c0.2-0.1,0.3-0.2,0.5-0.2c0.2,0,0.4,0.1,0.5,0.2
		c0.2,0.4,0.4,0.8,0.6,1.3V230h-0.6c-0.3,0-0.5-0.1-0.7-0.2c-0.2-0.1-0.3-0.4-0.3-0.8c0-0.4,0.1-0.6,0.3-0.8
		c0.1-0.1,0.4-0.2,0.7-0.2h0.6v-1.7c0-0.5,0.3-0.8,0.9-0.8c0.6,0,1,0.3,1,0.8v1.7c0.2,0,0.4,0.1,0.5,0.2c0.2,0.1,0.2,0.4,0.2,0.8
		c0,0.3,0,0.6-0.1,0.7c-0.2,0.2-0.4,0.3-0.6,0.3v7.9c0,1-0.7,1.5-2,1.5c-0.5,0-0.9-0.2-1.1-0.4c-0.2-0.2-0.3-0.5-0.3-0.8
		c0-0.4,0.1-0.7,0.2-1c0.2-0.2,0.5-0.2,0.8-0.2c0.2,0,0.4-0.1,0.4-0.2v-1.9c-0.1,0-0.2,0-0.2,0c-0.3,0-0.6-0.1-0.7-0.4
		c-0.1-0.4-0.2-0.8-0.3-1.1c-0.1,0.2-0.3,0.5-0.4,0.7v3.8c0,1-0.4,1.5-1.3,1.5h-0.8c-0.3,0-0.6-0.1-0.7-0.2
		c-0.1-0.1-0.3-0.2-0.4-0.3c-0.1-0.1-0.1-0.3-0.1-0.5c0-0.3,0.1-0.4,0.2-0.5c0.1-0.1,0.2-0.1,0.4-0.2c0.2,0,0.4,0,0.5,0
		c0.2,0,0.2,0,0.2-0.1v-1.3c-0.8,0.8-1.5,1.3-2,1.7c-0.1,0.1-0.3,0.2-0.6,0.2c-0.2,0-0.4-0.1-0.5-0.2v0.2c0,0.6-0.3,0.9-0.9,0.9
		h-2.4c-0.6,0-1-0.3-1-0.9v-2.6c0-0.6,0.3-1,1-1H109.5z M109.7,225.9c0.2,0,0.4,0,0.5,0.1c0.1,0.1,0.2,0.3,0.2,0.6
		c0,0.3,0,0.4-0.1,0.5c-0.1,0.2-0.3,0.2-0.6,0.2h-2.7c-0.2,0-0.4,0-0.5-0.2c-0.1-0.1-0.2-0.3-0.2-0.6c0-0.3,0.1-0.5,0.2-0.6
		c0.1-0.1,0.3-0.1,0.5-0.1H109.7z M109.7,230.3c0.2,0,0.4,0.1,0.5,0.2c0.1,0.1,0.2,0.3,0.2,0.6c0,0.2,0,0.4-0.1,0.5
		c-0.1,0.2-0.3,0.2-0.6,0.2h-2.8c-0.2,0-0.4-0.1-0.5-0.2c-0.1-0.1-0.2-0.3-0.2-0.5s0.1-0.5,0.2-0.6c0.1-0.1,0.2-0.1,0.5-0.1H109.7z
		 M109.7,232.3c0.2,0,0.4,0,0.5,0.1c0.1,0.1,0.2,0.3,0.2,0.6c0,0.2,0,0.4-0.1,0.5c-0.1,0.2-0.3,0.2-0.6,0.2h-2.8
		c-0.2,0-0.4,0-0.5-0.2c-0.1-0.1-0.2-0.3-0.2-0.5s0.1-0.5,0.2-0.6c0.1-0.1,0.2-0.1,0.5-0.1H109.7z M108.8,237.3v-1.2
		c0-0.2-0.1-0.2-0.2-0.2H108c-0.2,0-0.2,0.1-0.2,0.2v1.2c0,0.2,0.1,0.2,0.2,0.2h0.6C108.7,237.5,108.8,237.5,108.8,237.3z
		 M113,234.5l-2.2,0.4c-0.3,0-0.5,0-0.6-0.1c0.1,0.2,0.2,0.4,0.2,0.7v1.3C111.5,235.9,112.4,235.2,113,234.5z M113.6,229v-0.8h-0.9
		v0.8H113.6z M113.6,231v-0.7h-0.9v0.7H113.6z M113.6,233v-0.8h-0.9v1L113.6,233z"/>
	<path class="st13" d="M132.8,229.4c-0.9,0-1.8-0.1-3-0.1c0,0.6,0,1.5-0.1,2.6c0.3,0.6,0.5,1.1,0.5,1.8c0,1.3-0.6,2.6-1.7,3.7
		c-1.1,1.1-2.2,1.6-3.4,1.6c-0.3,0-0.5-0.1-0.7-0.3c-0.2-0.2-0.3-0.4-0.3-0.7c0-0.4,0.3-0.7,0.9-0.9c0.5-0.2,0.8-0.4,1-0.5
		c0.3-0.2,0.7-0.4,1-0.7c-1.2-0.1-2.2-0.4-2.8-0.9c-0.6-0.5-0.8-1.1-0.8-1.9c0-0.8,0.4-1.5,1.1-2c0.5-0.3,1.2-0.5,2.1-0.5
		c0.3,0,0.6,0,0.9,0v-1.2c-0.7,0-1.7,0-3,0.1c-0.6,0-1.5,0.1-2.6,0.2c-0.3,0-0.6-0.1-0.8-0.2c-0.2-0.2-0.3-0.4-0.3-0.6
		c0-0.6,0.3-0.9,0.8-1c0.4-0.1,1.1-0.2,2.1-0.2c0,0,1.2,0,3.5-0.1v-0.8c0-0.2,0.1-0.5,0.4-0.7c0.2-0.2,0.5-0.3,0.8-0.3
		c0.8,0,1.2,0.6,1.2,1.7c1.8,0,2.8,0,3.2,0c0.3,0,0.5,0.2,0.6,0.4c0.2,0.2,0.2,0.5,0.2,0.8C133.8,229.2,133.5,229.4,132.8,229.4z
		 M127.3,232.3c-0.2-0.2-0.5-0.2-0.8-0.2c-0.2,0-0.4,0.1-0.6,0.2c-0.2,0.2-0.4,0.5-0.4,0.8c0,0.3,0.1,0.5,0.3,0.7
		c0.2,0.2,0.5,0.2,0.8,0.2c0.6,0,0.9-0.3,0.9-1C127.5,232.7,127.4,232.5,127.3,232.3z"/>
	<path class="st13" d="M145.8,237.7c-1,0.8-2.4,1.2-4.2,1.2c-1.2,0-2.2-0.2-2.8-0.7c-0.7-0.4-1-1-1-1.8c0-0.6,0.2-1.1,0.7-1.5
		c0.5-0.4,1.2-0.6,2.1-0.6c0.7,0,1.3,0.2,2,0.6c0.6,0.4,1,0.8,1.4,1.4c0.8-0.5,1.3-1.2,1.3-2c0-0.5-0.3-0.9-0.9-1.3
		c-0.6-0.3-1.2-0.5-2-0.5c-0.7,0-1.5,0.1-2.4,0.4c-0.9,0.3-1.8,0.7-2.4,1.2c-0.5,0.4-0.7,0.6-0.8,0.6c-0.3,0.2-0.6,0.3-0.8,0.3
		c-0.3,0-0.6-0.1-0.7-0.3c-0.2-0.2-0.3-0.4-0.3-0.6c0-0.4,0.2-0.8,0.5-1.1c1-0.8,2.8-2.3,5.5-4.5l-3.4,0.3c-0.4,0-0.7-0.1-0.9-0.3
		c-0.2-0.2-0.4-0.4-0.4-0.7c0-0.3,0.1-0.6,0.3-0.8c0.2-0.2,0.5-0.3,0.8-0.3c0.6,0,1.6,0,3.2-0.1s2.6-0.2,3.2-0.2
		c0.3,0,0.6,0.1,0.8,0.3c0.2,0.2,0.3,0.6,0.3,0.9c0,0.2-0.5,0.7-1.3,1.3c-0.6,0.5-1.5,1.1-2.5,2c0.6-0.1,1.3-0.2,2.1-0.2
		c1,0,1.9,0.3,2.7,0.8c0.9,0.7,1.4,1.6,1.4,2.8C147.3,235.8,146.8,236.9,145.8,237.7z M140.6,236.1c-0.6,0-0.9,0.2-0.9,0.5
		c0,0.4,0.5,0.5,1.4,0.5c0.3,0,0.5,0,0.8-0.1C141.5,236.4,141,236.1,140.6,236.1z"/>
	<path class="st13" d="M154.3,238.5c-1.4,0-2.5-0.2-3.5-0.5c-1.4-0.5-2.1-1.3-2.1-2.4c0-0.9,0.2-1.5,0.5-2c0.3-0.4,0.6-0.6,1-0.6
		c0.3,0,0.5,0.1,0.7,0.3c0.2,0.2,0.3,0.4,0.3,0.7c0,0.2,0,0.4-0.1,0.6s-0.1,0.4-0.1,0.5c0,0.4,0.3,0.7,0.9,0.9
		c0.5,0.1,1.3,0.2,2.6,0.2c1.9,0,3.4-0.1,4.5-0.4c0.1,0,0.2,0,0.3,0c0.3,0,0.6,0.1,0.8,0.4c0.2,0.2,0.3,0.5,0.3,0.8
		c0,0.6-0.3,0.9-0.8,1.1C158.1,238.3,156.4,238.5,154.3,238.5z M158.9,228.9c-0.2,0.2-0.5,0.4-0.8,0.4c-0.9,0.1-1.9,0.1-2.9,0.1
		c-1.4,0-2.9-0.1-4.4-0.2c-0.8-0.1-1.2-0.4-1.2-1.1c0-0.3,0.1-0.6,0.3-0.8c0.2-0.2,0.6-0.3,0.9-0.3c1.3,0.1,2.5,0.2,3.6,0.2
		c1.1,0,2.2,0,3.3-0.1c0.5,0,0.8,0.1,1.1,0.3c0.2,0.2,0.3,0.5,0.3,0.8C159.2,228.4,159.1,228.7,158.9,228.9z"/>
	<path class="st13" d="M171.6,238c-1.5,0.3-3,0.4-4.5,0.4c-1.5,0-2.7-0.2-3.6-0.7c-1.2-0.6-1.7-1.4-1.7-2.5c0-1.7,1.1-3.1,3.5-4.3
		l-0.8-3.8c0-0.1,0-0.2,0-0.3c0-0.3,0.1-0.6,0.3-0.8c0.2-0.2,0.5-0.3,0.8-0.3c0.7,0,1.1,0.3,1.2,0.9l0.7,3.4
		c0.4-0.1,1.6-0.5,3.6-1.1c0.1,0,0.2,0,0.3,0c0.3,0,0.6,0.1,0.8,0.3c0.2,0.2,0.3,0.5,0.3,0.8c0,0.5-0.3,0.9-0.8,1
		c-0.9,0.2-1.8,0.5-2.7,0.7c-1.4,0.4-2.5,0.9-3.3,1.3c-1.1,0.6-1.6,1.3-1.6,2c0,0.4,0.4,0.7,1.3,0.9c0.6,0.2,1.3,0.2,2,0.2
		c0.7,0,1.5-0.1,2.6-0.2c0.6-0.1,1.1-0.1,1.5-0.2c0.3,0,0.6,0.1,0.8,0.4c0.2,0.2,0.3,0.5,0.3,0.8C172.5,237.6,172.2,237.9,171.6,238
		z"/>
</g>
</svg>
