<?xml version="1.0" encoding="utf-8"?>
<!-- Generator: Adobe Illustrator 28.0.0, SVG Export Plug-In . SVG Version: 6.00 Build 0)  -->
<svg version="1.1" id="レイヤー_1" xmlns="http://www.w3.org/2000/svg" xmlns:xlink="http://www.w3.org/1999/xlink" x="0px"
	 y="0px" viewBox="0 0 184 78" style="enable-background:new 0 0 184 78;" xml:space="preserve">
<style type="text/css">
	.st0{fill:#FFFFFF;}
	.st1{fill:#CF9842;}
	.st2{fill:#8A6551;}
	.st3{fill:#FBD73F;}
</style>
<g>
	<path class="st0" d="M176.4,5.4L176,5.3l-3.8-1.1l-0.9,0.1c-0.2,0.1-0.5,0-0.7,0c-0.3,0.1-1,0.1-1,0.1l-0.2,0.1
		c-1.7,0.3-4.2,0.8-6.4,2.3c-1.1,0.7-1.9,1.6-2.7,2.5c-0.5-0.2-1.2-0.3-2-0.3c-0.1,0-0.6-0.1-0.7-0.1c-1.6-0.3-2.9-0.2-3.8-0.1
		c-0.2,0-0.4,0-0.5,0l-2.5,0.2l-0.4,0c-0.1,0-0.3,0.1-0.6,0.1c-1.8-2.4-3.6-3.2-5.7-4.1l-0.1,0c-0.7-0.3-1.8-0.9-3.3-0.9
		c-0.2,0-0.4-0.1-0.6-0.1l-0.1,0c-0.2,0-0.4-0.1-0.6-0.1l-0.1,0c-2.7-0.5-4.9,0.4-6,0.8c-1,0.4-1.8,0.9-2.7,1.3
		c-5.2,3.4-7.5,10.2-5.5,16.2l0,0.1l0.1,0.4c0.7,1.8,1.7,3.6,3.2,4.9c0.1,0.1,0.2,0.1,0.3,0.2c-0.6,2-0.9,4.2-0.8,6.2l0,0.2l0,0.2
		c0.1,0.7,0.1,1.3,0.2,2l0,0.4c0.1,0.9,0.2,2.1,0.6,3.5l0,0.1c1.3,4,4.4,7.7,7.9,9.8c0,0.3-0.2,0.5-0.2,0.8
		c-0.7,2.9-0.8,5.3-0.5,7.4c0.6,3.4,3.4,7.1,7.4,8.4c1,3.3,2.5,5.8,4.9,7.7c1.5,1.1,3.1,1.5,4.1,1.9c1.8,0.4,3.6,0.4,5.5-0.2
		l0.9-0.3l0.6-0.2l0.6-0.3c0.2-0.1,0.3-0.2,0.6-0.3c1.1-0.8,2.1-1.7,2.7-2.8c1.4,1,3,1.7,4.7,2c2.5,0.3,4.9-0.2,6.9-1.6
		c4.2-2.7,5.4-7.9,5.3-11.9c0-0.6-0.1-1.3-0.2-2c0.1-0.2,0.3-0.4,0.4-0.6l0.1-0.3c0.6-0.9,1.7-2.5,1.9-4.6c0.4-4-1.2-7.8-3-10.5
		c0.7-1.1,1.4-2.5,1.8-4.1c1-4,0.9-8.5-0.1-12.3c0.4-0.5,0.6-0.8,0.8-1.2c0.1-0.2,0.3-0.6,0.4-0.6c1.2-2.3,1.9-4.8,1.9-7.1
		c0-0.5-0.1-0.9,0-1.2l-0.1-0.2c-0.1-0.2,0-0.4-0.1-0.6C183.2,11.1,180.3,7.2,176.4,5.4z"/>
	<g>
		<path class="st1" d="M174.1,10.4c-0.9-0.2-1.7-0.4-2.5-0.8c-0.5,0-1,0.1-1.6,0.1c-2,0.3-4.6,1.2-5.8,3c-0.3,0.4-0.5,0.7-0.7,1.1
			s-0.3,1.3-0.6,1.5c-0.6,0.3-2.8-0.9-3.6-0.8c-0.5-0.2-1.1-0.3-1.5-0.3c-0.2,0-0.5-0.1-0.7-0.1c-0.2,0-0.5-0.1-0.7-0.1
			c-1.1-0.2-2.2-0.1-3.2,0c-0.7,0-1.5,0.1-2.2,0.1c-0.6,0.1-3.8,0.9-4.1,0.7c-0.4-0.2-1-1.7-1.2-2.1c-1.2-1.8-2-2.2-4.1-3.1
			c-0.5-0.2-1-0.5-1.4-0.5c-0.2,0-0.5-0.1-0.7-0.1c-0.2,0-0.4-0.1-0.6-0.1c-0.2,0-0.4-0.1-0.6-0.1c-1.1-0.2-2.2,0.1-3.2,0.5
			c-7,2.8-7.2,13.2,0.2,15.7l0,0.1c0.2,0-0.4,1.2-0.4,1.4c-1,2-1.5,4.6-1.5,6.9c0.1,0.7,0.2,1.4,0.2,2.1c0.1,1,0.1,1.9,0.4,2.8
			c1,3,3.5,5.9,6.4,7.2c0.9,0.4,2.3,0.7,2.9,1.3c0.2,0,0.1,0.3-0.1,0.4c-0.4,1.6-1,3-1.4,4.5c-0.4,1.6-0.7,3.6-0.4,5.1
			c0.3,2,2.2,4,4.3,4.2c0.7,0.1,1.3-0.1,2.1-0.3c0-0.2,0.1-0.1,0.2-0.1c-0.1,0.4,0.4,2.1,0.5,2.6c0.5,2.4,1.4,4.7,3.4,6.2
			c0.5,0.5,1.3,0.7,2.1,0.8c0.9,0.2,1.7,0.1,2.5-0.1c0.3-0.1,0.6-0.2,1-0.3c1.7-1,2.4-3.4,2.6-5.4c0.1,0,0.1,0,0.1-0.1
			c0.9,0,1.9,0.1,2.8,0c0.4,0,1-0.2,1.4,0c0.5,0.2,0.8,0.9,1,1.4c0.7,1.1,1.8,2.1,3.3,2.3c4.2,0.5,6.1-3.8,5.9-7.6
			c-0.1-1.3-0.5-3.4-1-4.7c0-0.1,0-0.1-0.1-0.1l0-0.1c0.7,0.2,1.7-0.5,2.1-1c0.5-0.7,1.1-1.6,1.2-2.4c0.4-2.6-1.2-5.5-2.4-7.4
			c-0.6-0.9-1.2-1.6-1.8-2.5c-0.2,0,0.2-0.4,0.3-0.5c1.1-1.5,2.3-3,2.9-4.9c0.9-3.4,0.6-7.6-0.4-10.5c-0.2-0.6-0.7-1.1-0.9-1.7
			c-0.1,0-0.1,0-0.1-0.1c0.2,0,0.6-0.3,0.7-0.4c1.9-1.6,3.1-3.9,3.3-6.6C178.8,15,176.8,11.6,174.1,10.4z"/>
		<g>
			<g>
				<path class="st2" d="M164.5,30.6c3.3,1,1.8,5.6-1.6,4.3c-1.4-0.5-1.8-2.7-0.6-3.7C162.9,30.6,163.6,30.7,164.5,30.6z"/>
				<path class="st0" d="M155.1,42.1c-1.5-0.2-3.1,0-4.2-1.3c-1.1-1.3-1.2-3.6-0.4-5c1.5-2.8,5.6-3.4,8.3-2c1.7,0.9,2.8,3.2,2.5,5.2
					c-0.3,2.5-4.7,3-6.6,3"/>
				<path class="st2" d="M155.2,34.5c0.8,0.2,1.6,0.8,1.6,1.7c0,0.3-0.2,0.7-0.2,1l0.1,0c0.6,0.7,3.1,1.6,2,2.8
					c-0.7,0.8-1.9-0.2-2.5-0.7c-0.2-0.1-0.5-0.4-0.6-0.5l0,0.1c-0.6,0.6-0.9,2.1-2,1.9c-0.3,0-0.5-0.2-0.7-0.4
					c-0.7-0.9,1-2.2,1.1-3.2c0.1-0.4-0.4-1-0.4-1.4c0-0.2,0.1-0.4,0.2-0.5C154.1,34.8,154.6,34.7,155.2,34.5z"/>
				<path class="st2" d="M146.3,32.4c0.6,0.2,1.1,0.3,1.5,0.7c1.8,1.6,0.2,4.5-2.1,4.2c-2.2-0.4-2.7-3-1.1-4.3
					C145.1,32.5,145.8,32.5,146.3,32.4z"/>
				<path class="st0" d="M162.2,49.6c2.9,1.1,4.4,5.8,3.8,8.6c-0.6,2.6-4.7,3.2-7.7,3c-3.3-0.2-4.3-3.7-4.4-6.4
					C153.9,51.3,158,48,162.2,49.6z"/>
			</g>
			<g>
				<path class="st3" d="M141.3,17.9c0.1-0.1-0.9-0.8-1-0.9c-0.1-0.1-0.3-0.3-0.5-0.6c-0.3-0.2-0.7-0.4-0.9-0.6
					c-0.2-0.1-0.6-0.4-1.1-0.6c-0.2,0-0.3-0.1-0.5-0.2c-0.4-0.2-0.8-0.4-1.3-0.5c-0.5-0.2-1.1-0.2-1.8-0.2l-0.4-0.1
					c-0.4-0.1-0.8,0-1.1-0.1c-0.4,0-0.7,0.1-0.8,0.1c-0.7,0.1-1.3,0.5-1.6,1.1c-0.1,0.2-0.2,0.4-0.2,0.6c-0.2,0.8-0.2,1.7-0.3,2.6
					c0,0.5,0.1,1,0.2,1.5c0,0.2,0.1,0.3,0.1,0.5c0.4,1.1,1,2,1.8,2.8c0.4,0.5,0.9,0.7,1.5,1.1c0.3,0.2,1.2,1,1.5,0.7
					c0.1-0.1,0.2-0.2,0.4-0.4c0.6-0.9,1.4-1.9,2-2.9c0.7-0.9,1.3-1.7,2.2-2.5l0,0l0,0c0.2-0.2,0.4-0.4,0.6-0.5
					C140.5,18.6,140.8,18.3,141.3,17.9z"/>
				<path class="st3" d="M176.5,14.1c-0.5-0.1-0.9-0.1-1.3-0.1c-0.3,0.1-0.6,0.1-1,0.2l-0.4,0c-0.7,0.1-1.1,0.2-1.6,0.4
					c-0.5,0.2-1,0.5-1.3,0.6c-0.1,0.1-0.2,0.2-0.3,0.3c-0.4,0.2-0.8,0.5-1,0.8c-0.1,0.1-0.5,0.3-0.7,0.5c-0.1,0.1-0.3,0.4-0.4,0.6
					c-0.3,0.4-0.9,0.7-0.4,1c0.1,0.1,0.2,0.1,0.3,0.1c0.5,0.3,1,0.6,1.5,1.1c1.3,1.3,2.7,2.5,3.7,4c0.3,0.3,0.5,1.6,1,1.6
					c0.6,0,1.3-1,1.6-1.4c0.4-0.5,0.7-0.9,1-1.4c0.1-0.1,0.3-0.4,0.3-0.4c0.8-1.4,1.2-3.1,1.2-4.5c0-0.6-0.1-1.2-0.3-1.9
					C177.9,14.8,177.3,14.2,176.5,14.1z"/>
			</g>
		</g>
	</g>
</g>
</svg>
