<?xml version="1.0" encoding="utf-8"?>
<!-- Generator: Adobe Illustrator 26.0.3, SVG Export Plug-In . SVG Version: 6.00 Build 0)  -->
<svg version="1.1" id="Layer_1" xmlns="http://www.w3.org/2000/svg" xmlns:xlink="http://www.w3.org/1999/xlink" x="0px" y="0px"
	 viewBox="0 0 44 44" style="enable-background:new 0 0 44 44;" xml:space="preserve">
<style type="text/css">
	.st0{fill:#FFFFFF;}
	.st1{fill:#0599D9;}
</style>
<g>
	<path class="st0" d="M1.572,17.308c0.825,1.036,1.983,1.606,3.138,1.916c-0.755,1.744-1.158,3.641-1.164,5.599
		c-0.011,3.154,0.899,5.675,2.706,7.496c2.822,2.84,7.668,4.118,15.713,4.142c10.096,0.036,18.455-0.775,18.489-11.081
		c0.009-2.08-0.439-4.166-1.326-6.112c1.168-0.283,2.352-0.835,3.211-1.853c0.761-0.842,1.266-1.996,1.258-3.605
		c0.006-0.427-0.029-0.852-0.109-1.266c-0.011-0.079-0.006-0.144-0.02-0.225c-0.022-0.128-0.079-0.243-0.152-0.351
		c-0.512-1.707-1.725-3.191-3.495-3.937c-3.156-1.336-6.791,0.138-8.128,3.292c-0.049,0.119-0.078,0.233-0.115,0.351
		c-2.617-1.274-5.797-2.035-9.53-2.048c-3.585-0.011-6.87,0.672-9.654,1.962c-0.026-0.078-0.041-0.151-0.075-0.228
		c-1.313-3.163-4.94-4.658-8.102-3.346c-1.775,0.739-2.998,2.216-3.52,3.919c-0.075,0.109-0.133,0.225-0.154,0.351
		c-0.014,0.079-0.01,0.144-0.022,0.221c-0.083,0.411-0.12,0.833-0.119,1.258C0.383,15.327,0.852,16.466,1.572,17.308z"/>
</g>
<path class="st1" d="M29.584,22.034c-0.155-0.155-0.413-0.31-0.723-0.361h-0.052l-5.421,0.103v-5.369
	c0-0.413-0.207-0.671-0.413-0.826c-0.207-0.207-0.568-0.361-0.878-0.413c-0.361,0-0.723,0.103-1.033,0.413
	c-0.155,0.155-0.413,0.465-0.413,0.826v5.318h-5.369c-0.413,0-0.671,0.207-0.826,0.413c-0.258,0.258-0.413,0.62-0.413,1.033
	c0,0.31,0.155,0.671,0.413,0.878c0.207,0.207,0.465,0.31,0.878,0.361h5.421v5.369c0,0.31,0.103,0.568,0.361,0.826
	c0.207,0.207,0.568,0.361,0.929,0.361h0.052c0.361,0,0.671-0.155,0.929-0.361c0.207-0.207,0.361-0.568,0.413-0.774v-5.473
	l5.266-0.103c0.361,0,0.62-0.103,0.878-0.361C30.1,23.376,29.997,22.447,29.584,22.034z"/>
</svg>
