<?xml version="1.0" encoding="utf-8"?>
<!-- Generator: Adobe Illustrator 26.2.1, SVG Export Plug-In . SVG Version: 6.00 Build 0)  -->
<svg version="1.1" id="レイヤー_1" xmlns="http://www.w3.org/2000/svg" xmlns:xlink="http://www.w3.org/1999/xlink" x="0px"
	 y="0px" viewBox="0 0 182.1087036 107.7657852" style="enable-background:new 0 0 182.1087036 107.7657852;" xml:space="preserve">
<style type="text/css">
	.st0{fill:#FFFFFF;}
	.st1{fill:#E84E6A;}
	.st2{fill:#583C32;}
	.st3{fill:#7A382E;}
	.st4{fill-rule:evenodd;clip-rule:evenodd;fill:#7A382E;}
	.st5{fill-rule:evenodd;clip-rule:evenodd;fill:#583C32;}
	.st6{fill:#0091B5;}
</style>
<g>
	<g>
		<g>
			<path class="st0" d="M21.7700424,35.2469025c-9.906909,2.9969978-15.5283356,13.4947014-12.531805,23.4000702
				c2.997467,9.9084702,13.4951324,15.5297241,23.4020405,12.5327301
				c9.9053688-2.9965286,15.5266762-13.49403,12.5292091-23.4025002
				C42.1729546,37.8718338,31.6754093,32.2503738,21.7700424,35.2469025z M28.9129734,58.8586731
				c-3.1129246,0.9417076-6.4104309-0.8265572-7.3521385-3.9394798c-0.9407711-3.1098251,0.8245258-6.4064445,3.9374523-7.348156
				c3.1098213-0.9407692,6.4093952,0.8236504,7.3501663,3.9334755
				C33.7901611,54.6174355,32.0227966,57.9179039,28.9129734,58.8586731z"/>
		</g>
	</g>
	<g>
		<g>
			<path class="st1" d="M23.8660831,58.0661354c-1.0654736-0.7329788-1.9017868-1.8132553-2.3052483-3.1469421
				c-0.3924313-1.2972221-0.3082008-2.6263351,0.1426086-3.8048019c-4.4637756-3.8736458-8.6930742-4.8074722-11.838541-5.0668945
				c-1.6019096,3.8691978-1.9320745,8.2898941-0.6282167,12.5999451c1.3039045,4.3102036,4.0252151,7.8043938,7.5000792,10.1376152
				C19.3612232,66.7538834,22.2834911,63.3884544,23.8660831,58.0661354z"/>
		</g>
	</g>
	<g>
		<g>
			<path class="st1" d="M32.6893196,55.3969688c0.4819145-1.201088,0.5776482-2.563324,0.1741867-3.8970108
				c-0.3924294-1.297226-1.1992817-2.3567696-2.2275696-3.0877838c1.5679321-5.6983337,4.5705833-8.8199387,7.0447884-10.7794037
				c3.4780159,2.3324432,6.2030563,5.8288918,7.506916,10.1389427c1.3039055,4.3102036,0.9759178,8.7268524-0.6229477,12.5949554
				C41.2542763,60.1308937,36.9567146,58.9495735,32.6893196,55.3969688z"/>
		</g>
	</g>
	<g>
		<g>
			<path class="st2" d="M32.8630905,71.9162216C22.5498848,75.0361328,11.6212654,69.1846161,8.5009375,58.870018
				c-3.1198597-10.3130493,2.7330914-21.2397346,13.0462942-24.3596382
				c10.3122749-3.119627,21.239706,2.7307281,24.3595638,13.0437775
				C49.0271263,57.8687553,43.1753616,68.7966003,32.8630905,71.9162216z M21.9928532,35.983429
				C12.492837,38.8573341,7.1018696,48.9246864,9.9755402,58.4239273
				c2.8741379,9.5007858,12.9419155,14.893158,22.4419289,12.0192566
				c9.4990883-2.8736267,14.8888512-12.9421425,12.0147133-22.4429321
				C41.5585136,38.5010071,31.4919395,33.1098061,21.9928532,35.983429z M29.1357822,59.5951958
				c-3.5182762,1.0643311-7.2472229-0.9323502-8.3122597-4.4529533c-1.0641003-3.5175056,0.9336758-7.2433968,4.4519539-8.3077278
				c3.5181217-1.0642891,7.2461796,0.9294472,8.3102779,4.446949
				C34.6507912,54.8020706,32.6539078,58.5309067,29.1357822,59.5951958z M25.7211456,48.3077202
				c-2.705246,0.8183784-4.2409344,3.6847343-3.4230232,6.3884315c0.8188,2.7066383,3.6867962,4.2443733,6.3920403,3.4259949
				c2.7050915-0.8183327,4.2397919-3.6879539,3.42099-6.3945923C31.2932434,49.0238609,28.4262352,47.4893875,25.7211456,48.3077202
				z"/>
		</g>
	</g>
</g>
<g>
	<g>
		<path class="st3" d="M175.2946014,79.8738098c-0.0052643-0.3935852-0.0029144-0.3776321-0.1663971-0.9264603
			c-0.088089-0.3113785-0.4936218-0.7949829-1.0003357-0.9946823c-0.2437134-0.0952988-1.0995789-0.5190048-2.672821-0.7016678
			c-1.5691833-0.1883545-2.8100281,0.1836472-3.1533203,0.736969c-0.0726166,0.1213531-0.1362305,0.2440186-0.1917572,0.3773651
			c-1.456604-1.5077438-3.2966461-1.5626678-4.4887695-1.2025452c-2.0435638-1.7066193-12.8885345-1.6753082-13.2642365-1.5132599
			l-0.0782013,0.5354004c0.0052948-0.9829636-0.2712555-1.9192276-0.7703552-2.730629l0.4363251,0.5634155
			c0.4141693-0.0275269,9.9785156-4.8253708,10.9143982-7.2407761c1.2405243-0.2085495,2.8365631-1.0754852,3.3568573-3.0551491
			c0.1363983,0.1205025,0.2750397,0.2257233,0.4036407,0.2916603c0.4842987,0.256134,0.8241577,0.2209702,1.5057831-0.0661621
			c1.9306641-0.8022881,2.8244934-1.7246552,3.4853058-2.7407608c0.39711-0.6209412,0.393692-1.275116,0.2498627-1.7644196
			c-0.1694031-0.5401917-0.6208801-1.0430527-0.8887329-1.2958946c-0.2915497-0.2846184-0.276474-0.2698669-0.7960815-0.5531998
			c-0.2937775-0.162323-0.9246521-0.2325935-1.4304504-0.0298462c-0.2419739,0.096611-1.1553192,0.3780518-2.3863373,1.3173065
			c-1.2342072,0.9291267-1.8275604,2.0431175-1.6584625,2.6712875c0.0368652,0.1342888,0.0882111,0.2674713,0.1471252,0.4017639
			c-2.1277771-0.0971184-3.4559631,1.1201782-4.026062,2.1934776c-2.6819763,0.1677551-10.2345581,7.5570068-10.3789215,7.9319534
			l0.3600922,0.4612045c-0.5865784-0.6104736-1.3209076-1.0917358-2.1604767-1.3904266l0.3108063,0.0453949
			c0.2716827-0.2998581,3.4260712-10.242588,2.3093109-12.6026802c0.7093048-0.993412,1.1868439-2.7025261,0.0928192-4.4653206
			l-0.0092468-0.0013504c0.1865234-0.0073509,0.3656006-0.0283432,0.509552-0.0670204
			c0.5304718-0.14571,0.7390747-0.401207,1.0048981-1.0696411c0.7552032-1.8886986,0.7026825-3.1535225,0.4150085-4.3365059
			c-0.1778717-0.7079849-0.6582336-1.1741943-1.1256256-1.4280205c-0.5102386-0.2724724-1.1966248-0.3288078-1.5678711-0.3263893
			c-0.4116821-0.0004349-0.3947601,0.002037-0.9671936,0.1446762c-0.3189392,0.0855293-0.813858,0.4720306-1.0164032,0.9548302
			c-0.1001434,0.2336807-0.530014,1.057106-0.699707,2.5630379c-0.1773834,1.5048141,0.225235,2.7076454,0.8021088,3.0402222
			c0.1257629,0.0750198,0.256424,0.1380386,0.3961182,0.1930428c-1.5540924,1.3759613-1.5860748,3.1440468-1.1925507,4.3016205
			c-1.7559967,1.9404373-1.6002045,12.3636589-1.4265289,12.7346992c-0.5896759,0.0239334-1.1605072,0.1447525-1.6940002,0.3434601
			c-0.0655212-0.4873657-5.132843-9.616478-7.6481628-10.5465088c-0.2372589-1.1944504-1.1582184-2.7433586-3.2213898-3.2615089
			c0.1211243-0.1300354,0.2284241-0.2620926,0.2996521-0.3838081c0.2600861-0.4679565,0.2228241-0.7939606-0.0834045-1.451664
			c-0.8592529-1.8636742-1.8270569-2.7372589-2.8970642-3.3839035c-0.6470795-0.3899879-1.3237457-0.3945274-1.8374023-0.2558556
			c-0.5575027,0.1480408-1.0719833,0.582058-1.3334351,0.8328819c-0.2894287,0.2815056-0.2728729,0.2650948-0.5655746,0.762886
			c-0.1677856,0.2772255-0.2297668,0.8843536-0.0149536,1.371479c0.1020203,0.2379456,0.4075241,1.1155243,1.3924866,2.3123398
			c0.9860764,1.2001991,2.1473618,1.7814903,2.8014755,1.6287308c0.1404419-0.0359726,0.279129-0.081852,0.4191437-0.1367111
			c-0.0785675,2.0440254,1.2007751,3.3342209,2.3243103,3.8943825c0.2063141,2.5790367,7.6743011,9.7329826,8.2528534,10.0218697
			c-0.3738098,0.4074097-0.6809692,0.8747635-0.9110718,1.3849258c-0.5693207-0.3628616-10.5626526-3.3218536-13.0024567-2.2733765
			c-1.0407715-0.6957932-2.8266373-1.1766663-4.6509476-0.1451263c-0.0107346-0.1744003-0.0330811-0.3442307-0.0745163-0.4791794
			c-0.1565857-0.5100021-0.4236221-0.7155609-1.1248779-0.9815063c-1.9680557-0.7495041-3.2867737-0.7158813-4.51091-0.4482956
			c-0.7352676,0.159729-1.2142944,0.6209717-1.4754562,1.0636673c-0.2754669,0.4877548-0.3216171,1.1474075-0.3173904,1.5062485
			c0.0048065,0.3967361,0.0045013,0.377861,0.1659622,0.929451c0.0880585,0.3115387,0.4940567,0.7919846,0.9991913,0.9914627
			c0.2468643,0.0957642,1.1058884,0.5199203,2.6750717,0.7082748c1.5664978,0.1847382,2.8093567-0.1900253,3.1526566-0.7433472
			c0.0721436-0.1182098,0.137207-0.2408218,0.192894-0.3741379c1.4504471,1.5068512,3.2931671,1.5655365,4.4894714,1.1965256
			c2.0370636,1.7087326,12.3423462,1.7683563,13.0545807,1.5832138c0.049057,0.5572052,0.1907501,1.0933533,0.4110565,1.5970459
			c-0.7196198,0.1494598-9.772583,4.7925262-10.7126312,7.2042694c-1.2379227,0.2119827-2.8374863,1.0816269-3.3490906,3.0561218
			l0.0105286,0.0140915c-0.1406479-0.1241837-0.2849884-0.2332916-0.4177246-0.3028946
			c-0.484436-0.2563095-0.8222885-0.2239151-1.5089188,0.0655441c-1.9276733,0.8027267-2.8214951,1.72509-3.4796219,2.744812
			c-0.3966522,0.6177902-0.3927994,1.2689667-0.2514343,1.7641907c0.1668396,0.5367584,0.6197357,1.0398331,0.8846054,1.2922287
			c0.2905731,0.2812653,0.2800827,0.2671738,0.7996826,0.5505142c0.2937927,0.162323,0.9282684,0.2299042,1.4300156,0.0328445
			c0.2455978-0.0993042,1.1557693-0.3812103,2.3858566-1.3141708c1.2326813-0.9293442,1.8295593-2.0460434,1.6573715-2.6746597
			c-0.0365219-0.1372986-0.0862656-0.2702408-0.145195-0.4047012c2.1288986,0.100502,3.4540176-1.1172485,4.0241165-2.1905365
			c2.6819763-0.1677628,9.9396515-7.1412964,10.29039-7.7562943c0.4400635,0.3439713,0.9372711,0.6303101,1.4793854,0.8351898
			c-0.374939,0.5549774-3.3242798,10.1160126-2.2059937,12.4764862c-0.7138977,0.9925842-1.1890259,2.6959305-0.0943604,4.4650955
			c-0.1834259,0.007637-0.3563385,0.0295258-0.4987793,0.0685959c-0.5284576,0.1427841-0.73909,0.4011917-1.0094757,1.0688095
			c-0.7521362,1.8891449-0.7020569,3.1600418-0.4150238,4.3365021c0.1758881,0.7109146,0.6623993,1.1780243,1.1256256,1.4280167
			c0.5133209,0.2729263,1.1981659,0.3290329,1.5713959,0.3238449c0.4092407,0.0063553,0.3896942,0.0002899,0.9621429-0.1423492
			c0.3246307-0.0814819,0.8180084-0.4682083,1.022522-0.9537811c0.0975189-0.2372742,0.5265198-1.0547104,0.7017212-2.5659637
			c0.1743164-1.5052567-0.2302856-2.7053223-0.8071747-3.0379028c-0.1262207-0.0718613-0.2568817-0.1348877-0.3961182-0.1930466
			c1.5529938-1.3791733,1.5900269-3.1495819,1.1960754-4.3041611c1.7509155-1.938118,1.6610107-12.0593109,1.4607544-12.6355515
			c0.5827484-0.0626068,1.1402588-0.2104797,1.6573181-0.4366837c0.0659943,0.4842148,5.1308746,9.6192474,7.6512756,10.5468063
			c0.2295685,1.1933136,1.1555786,2.7399063,3.2137451,3.2605438c-0.1211853,0.1300278-0.2285004,0.262085-0.298111,0.383873
			c-0.2588501,0.4588013-0.2224274,0.7911301,0.0868378,1.4491119c0.8587799,1.8666611,1.8254242,2.7371826,2.8985748,3.384285
			c0.6429749,0.3861694,1.3242188,0.3913803,1.8344269,0.2552567c0.5595398-0.1508026,1.0749664-0.5814514,1.3375854-0.829216
			c0.2846832-0.2820435,0.2681122-0.2656326,0.5639954-0.7631149c0.1632233-0.2778931,0.2306366-0.8903427,0.0142517-1.3777008
			c-0.1013336-0.2315674-0.4109497-1.1129608-1.3945007-2.3095703c-0.9838562-1.1934433-2.1462555-1.7781067-2.800354-1.6253586
			c-0.1414185,0.0327759-0.2806549,0.0814667-0.4190826,0.1367264c0.0754547-2.0444794-1.1998291-3.3403549-2.3269806-3.8978271
			c-0.2020721-2.5755157-7.979538-9.9347916-8.3674316-10.0764313l-0.0806885,0.0574112
			c0.4708099-0.5441895,0.8297577-1.1832504,1.0404663-1.8941803l-0.0606995,0.4154968
			c0.3152161,0.2628174,10.6907501,3.4129791,13.1366577,2.3652344c1.0409241,0.6958237,2.8193512,1.1725464,4.6429596,0.1470261
			c0.0105438,0.17453,0.0333557,0.3412018,0.0760498,0.4795609c0.156601,0.5099945,0.4286499,0.7132339,1.125351,0.9783478
			c1.9726257,0.7501755,3.289917,0.7163467,4.5138702,0.4488907c0.7337189-0.1601181,1.2138672-0.6179733,1.4677734-1.064949
			C175.2516937,80.8890991,175.3003998,80.2328796,175.2946014,79.8738098z"/>
		<path class="st2" d="M149.2210846,46.944416c0.307724,0.0449524,0.6451569,0.1288452,0.9287109,0.2801743
			c0.467392,0.2538261,0.9477539,0.7200356,1.1256256,1.4280205c0.287674,1.1829834,0.3401947,2.4478073-0.4150085,4.3365059
			c-0.2658234,0.6684341-0.4744263,0.9239311-1.0048981,1.0696411c-0.1439514,0.0386772-0.3230286,0.0596695-0.509552,0.0670204
			l0.0092468,0.0013504c1.0940247,1.7627945,0.6164856,3.4719086-0.0928192,4.4653206
			c1.1167603,2.3600922-2.0376282,12.3028221-2.3093109,12.6026802l-0.3108063-0.0453949
			c0.8395691,0.2986908,1.5738983,0.779953,2.1604767,1.3904266l-0.3600922-0.4612045
			c0.1443634-0.3749466,7.6969452-7.7641983,10.3789215-7.9319534c0.5700989-1.0732994,1.8982849-2.290596,4.026062-2.1934776
			c-0.0589142-0.1342926-0.11026-0.2674751-0.1471252-0.4017639c-0.1690979-0.62817,0.4242554-1.7421608,1.6584625-2.6712875
			c1.2310181-0.9392548,2.1443634-1.2206955,2.3863373-1.3173065c0.3195801-0.1277618,0.6894073-0.1476021,0.9925537-0.1033173
			c0.1761627,0.0257301,0.3294983,0.0732346,0.4378967,0.1331635c0.5196075,0.2833328,0.5045319,0.2685814,0.7960815,0.5531998
			c0.2678528,0.2528419,0.7193298,0.755703,0.8887329,1.2958946c0.1438293,0.4893036,0.1472473,1.1434784-0.2498627,1.7644196
			c-0.6608124,1.0161057-1.5546417,1.9384727-3.4853058,2.7407608c-0.4521484,0.1901474-0.7538452,0.2703094-1.0476837,0.2273865
			c-0.1484375-0.0216827-0.2955017-0.074707-0.4580994-0.1612244c-0.1286011-0.065937-0.2672424-0.1711578-0.4036407-0.2916603
			c-0.5202942,1.9796638-2.116333,2.8465996-3.3568573,3.0551491c-0.9358826,2.4154053-10.5002289,7.2132492-10.9143982,7.2407761
			l-0.4363251-0.5634155c0.4990997,0.8114014,0.77565,1.7476654,0.7703552,2.730629l0.0782013-0.5354004
			c0.2641602-0.1139679,5.6923981-0.1633072,9.608429,0.4087448c1.6594696,0.2424088,3.0480957,0.5960541,3.6558075,1.1045151
			c0.5400848-0.1631317,1.2131653-0.24086,1.9233093-0.1371231c0.8569794,0.1251831,1.7690277,0.5146103,2.5654602,1.3396683
			c0.0555267-0.1333466,0.1191406-0.256012,0.1917572-0.3773651c0.3432922-0.5533218,1.584137-0.9253235,3.1533203-0.736969
			c0.1143646,0.0136414,0.2245636,0.0281372,0.3315582,0.0437622c1.362442,0.199028,2.1153259,0.5698624,2.3412628,0.6579056
			c0.5067139,0.1996994,0.9122467,0.6833038,1.0003357,0.9946823c0.1634827,0.5488281,0.1611328,0.5328751,0.1663971,0.9264603
			c0.0057983,0.3590698-0.0429077,1.0152893-0.3251038,1.5051193c-0.2539062,0.4469757-0.7340546,0.9048309-1.4677734,1.064949
			c-0.7507935,0.1637344-1.5375214,0.2404785-2.4884033,0.1015701c-0.598587-0.0874405-1.2632751-0.2600098-2.0254669-0.5504608
			c-0.696701-0.2651138-0.96875-0.4683533-1.125351-0.9783478c-0.0426941-0.1383591-0.065506-0.3050308-0.0760498-0.4795609
			c-0.992157,0.557663-1.9705353,0.6707764-2.8245239,0.5460281c-0.7154846-0.1045227-1.34375-0.3754044-1.8184357-0.6930542
			c-0.7217255,0.309433-2.1316986,0.2528076-3.7711487,0.0133209c-3.9191589-0.5725021-9.1434174-2.1937103-9.365509-2.3785553
			l0.0606995-0.4154968c-0.2107086,0.7109299-0.5696564,1.3499908-1.0404663,1.8941803l0.0806885-0.0574112
			c0.3878937,0.1416397,8.1653595,7.5009155,8.3674316,10.0764313c1.1271515,0.5574722,2.4024353,1.8533478,2.3269806,3.8978271
			c0.1384277-0.0552597,0.2776642-0.1039505,0.4190826-0.1367264c0.1230164-0.0291748,0.2638855-0.0306396,0.4176636-0.0081787
			c0.6671295,0.0974579,1.583725,0.6650391,2.3826904,1.6335373c0.983551,1.1966095,1.2931671,2.0780029,1.3945007,2.3095703
			c0.2163849,0.4873581,0.1489716,1.0998077-0.0142517,1.3777008c-0.2958832,0.4974823-0.2793121,0.4810715-0.5639954,0.7631149
			c-0.262619,0.2477646-0.7780457,0.6784134-1.3375854,0.829216c-0.2813263,0.0752487-0.6151733,0.1066284-0.9651184,0.0555038
			c-0.284729-0.0415878-0.5810089-0.138298-0.8693085-0.3107605c-1.0731506-0.6471024-2.0397949-1.5176239-2.8985748-3.384285
			c-0.3092651-0.6579819-0.3456879-0.9903107-0.0868378-1.4491119c0.0696106-0.121788,0.1769257-0.2538452,0.298111-0.383873
			c-2.0581665-0.5206375-2.9841766-2.0672302-3.2137451-3.2605438c-2.520401-0.9275589-7.5852814-10.0625916-7.6512756-10.5468063
			c-0.5170593,0.2262039-1.0745697,0.3740768-1.6573181,0.4366837c0.2002563,0.5762405,0.2901611,10.6974335-1.4607544,12.6355515
			c0.3939514,1.1545792,0.3569183,2.9249878-1.1960754,4.3041611c0.1392365,0.0581589,0.2698975,0.1211853,0.3961182,0.1930466
			c0.576889,0.3325806,0.9814911,1.5326462,0.8071747,3.0379028c-0.1752014,1.5112534-0.6042023,2.3286896-0.7017212,2.5659637
			c-0.2045135,0.4855728-0.6978912,0.8722992-1.022522,0.9537811c-0.5724487,0.1426392-0.5529022,0.1487045-0.9621429,0.1423492
			c-0.1677094,0.0022202-0.3980255-0.0079269-0.6472931-0.044342c-0.3061981-0.0447311-0.641098-0.1296997-0.9241028-0.2795029
			c-0.4632263-0.2499924-0.9497375-0.7171021-1.1256256-1.4280167c-0.2870331-1.1764603-0.3371124-2.4473572,0.4150238-4.3365021
			c0.2703857-0.6676178,0.4810181-0.9260254,1.0094757-1.0688095c0.1424408-0.0390701,0.3153534-0.0609589,0.4987793-0.0685959
			c-1.0946655-1.769165-0.6195374-3.4725113,0.0943604-4.4650955c-1.1182861-2.3604736,1.8310547-11.9215088,2.2059937-12.4764862
			c-0.5421143-0.2048798-1.0393219-0.4912186-1.4793854-0.8351898c-0.3507385,0.6149979-7.6084137,7.5885315-10.29039,7.7562943
			c-0.5700989,1.073288-1.8952179,2.2910385-4.0241165,2.1905365c0.0589294,0.1344604,0.1086731,0.2674026,0.145195,0.4047012
			c0.1721878,0.6286163-0.4246902,1.7453156-1.6573715,2.6746597c-1.2300873,0.9329605-2.1402588,1.2148666-2.3858566,1.3141708
			c-0.3175812,0.1249924-0.688736,0.1430283-0.9934692,0.0985107c-0.1753616-0.0256195-0.3289108-0.071701-0.4365463-0.1313553
			c-0.5195999-0.2833405-0.5091095-0.269249-0.7996826-0.5505142c-0.2648697-0.2523956-0.7177658-0.7554703-0.8846054-1.2922287
			c-0.1413651-0.495224-0.1452179-1.1464005,0.2514343-1.7641907c0.6581268-1.019722,1.5519485-1.9420853,3.4796219-2.744812
			c0.4547348-0.1913757,0.7560196-0.2698288,1.0484543-0.2271118c0.1492081,0.0217972,0.2963028,0.0746689,0.4604645,0.1615677
			c0.1327362,0.069603,0.2770767,0.1787109,0.4177246,0.3028946l-0.0105286-0.0140915
			c0.5116043-1.9744949,2.1111679-2.8441391,3.3490906-3.0561218c0.9400482-2.4117432,9.9930115-7.0548096,10.7126312-7.2042694
			c-0.2203064-0.5036926-0.3619995-1.0398407-0.4110565-1.5970459c-0.486084,0.1270905-5.4333496,0.1382294-9.1770172-0.4086456
			c-1.7456512-0.2550049-3.2301331-0.6305237-3.8775635-1.1745682c-0.5429459,0.1673889-1.2184601,0.2463684-1.9309616,0.1422882
			c-0.8569946-0.1251831-1.766449-0.5158386-2.5585098-1.3388138c-0.055687,0.133316-0.1207504,0.255928-0.192894,0.3741379
			c-0.3432999,0.5533218-1.5861588,0.9280853-3.1526566,0.7433472c-0.0997009-0.0115051-0.1966019-0.0256577-0.2905121-0.0393753
			c-1.3856049-0.2024078-2.1533279-0.578476-2.3845596-0.6688995c-0.5051346-0.1994781-0.9111328-0.679924-0.9991913-0.9914627
			c-0.1614609-0.55159-0.1611557-0.5327148-0.1659622-0.929451c-0.0042267-0.3588409,0.0419235-1.0184937,0.3173904-1.5062485
			c0.2611618-0.4426956,0.7401886-0.9039383,1.4754562-1.0636673c0.7508316-0.163887,1.5375443-0.2406311,2.4884415-0.1017227
			c0.598587,0.0874405,1.2618408,0.2598038,2.0224686,0.5500183c0.7012558,0.2659454,0.9682922,0.4715042,1.1248779,0.9815063
			c0.0414352,0.1349487,0.0637817,0.3047791,0.0745163,0.4791794c0.9925537-0.5605087,1.9733887-0.6750336,2.8289566-0.5500488
			c0.7178574,0.1048584,1.3474731,0.3775482,1.821991,0.6951752c0.756958-0.3247223,2.240509-0.2652359,3.9438629-0.0164185
			c3.7890625,0.5535049,8.6661835,2.0391998,9.0585938,2.2897949c0.2301025-0.5101624,0.537262-0.9775162,0.9110718-1.3849258
			c-0.5785522-0.288887-8.0465393-7.4428329-8.2528534-10.0218697c-1.1235352-0.5601616-2.4028778-1.8503571-2.3243103-3.8943825
			c-0.1400146,0.0548592-0.2787018,0.1007385-0.4191437,0.1367111c-0.1236572,0.0290909-0.2647552,0.032135-0.4194794,0.0095329
			c-0.6661835-0.0973167-1.581955-0.6649475-2.3819962-1.6382637c-0.9849625-1.1968155-1.2904663-2.0743942-1.3924866-2.3123398
			c-0.2148132-0.4871254-0.152832-1.0942535,0.0149536-1.371479c0.2927017-0.4977913,0.2761459-0.4813805,0.5655746-0.762886
			c0.2614517-0.250824,0.7759323-0.6848412,1.3334351-0.8328819c0.2829971-0.0766144,0.6154633-0.109642,0.9655762-0.0584984
			c0.2847137,0.0415916,0.5814362,0.1398125,0.8718262,0.3143539c1.0700073,0.6466446,2.0378113,1.5202293,2.8970642,3.3839035
			c0.3062286,0.6577034,0.3434906,0.9837074,0.0834045,1.451664c-0.071228,0.1217155-0.1785278,0.2537727-0.2996521,0.3838081
			c2.0631714,0.5181503,2.9841309,2.0670586,3.2213898,3.2615089c2.5153198,0.9300308,7.5826416,10.0591431,7.6481628,10.5465088
			c0.533493-0.1987076,1.1043243-0.3195267,1.6940002-0.3434601c-0.1736755-0.3710403-0.3294678-10.7942619,1.4265289-12.7346992
			c-0.3935242-1.1575737-0.3615417-2.9256592,1.1925507-4.3016205c-0.1396942-0.0550041-0.2703552-0.1180229-0.3961182-0.1930428
			c-0.5768738-0.3325768-0.9794922-1.535408-0.8021088-3.0402222c0.169693-1.5059319,0.5995636-2.3293571,0.699707-2.5630379
			c0.2025452-0.4827995,0.697464-0.8693008,1.0164032-0.9548302c0.5724335-0.1426392,0.5555115-0.1451111,0.9671936-0.1446762
			C148.7470856,46.8972244,148.9741211,46.9083405,149.2210846,46.944416 M149.4305725,45.510273L149.4305725,45.510273
			c-0.3585052-0.052372-0.664505-0.0608635-0.8578186-0.0607758c-0.5162354-0.0000992-0.6459503,0.0218277-1.2112579,0.1640625
			l-0.0969543,0.0234947c-0.8367004,0.2250481-1.6501007,0.9628334-2.0019684,1.8008728
			c-0.1863556,0.409687-0.624176,1.3735657-0.8034668,2.9612999c-0.1652985,1.4059982,0.0684204,2.6784592,0.6121521,3.5499649
			c-0.8240509,1.3002739-0.9533691,2.7287445-0.7229156,3.9159279c-1.0987701,2.2234421-1.4546814,7.0858002-1.4390411,10.3677444
			c-1.612915-2.8850937-4.397522-7.1249504-6.5386658-8.5724106c-0.3871307-1.1313744-1.2015076-2.312767-2.5470581-3.0798035
			c0.0477905-0.6121025-0.1441193-1.154129-0.3803711-1.6616058c-0.8598175-1.8653603-1.8952484-3.0663376-3.4607391-4.0116234
			c-0.4382629-0.2651749-0.9131012-0.4351196-1.4116364-0.5079422c-0.5123901-0.074852-1.0490112-0.0433273-1.5520782,0.0922279
			c-0.8257141,0.2203789-1.521492,0.7663078-1.9592667,1.1864243c-0.3930206,0.3825569-0.4687881,0.4925041-0.7677994,1.0004768
			l-0.0429764,0.073864c-0.4316025,0.711647-0.4731522,1.8244934-0.0919724,2.6896324
			c0.1675949,0.4126358,0.5660934,1.3916626,1.5995102,2.6489868c0.9181747,1.1164131,2.0162888,1.8724098,3.0486069,2.1049614
			c0.3697662,1.5029831,1.3284302,2.6158257,2.3581085,3.3021202c0.8153687,2.3632164,4.0381927,5.9377708,6.3835297,8.2196846
			c-2.0175781-0.5666809-4.6373901-1.1849823-6.6338348-1.4766159c-2.0472565-0.2990646-3.2287292-0.253273-3.9627228-0.1121826
			c-0.4717102-0.235466-1.0783081-0.4608612-1.8038864-0.5668564c-0.7515717-0.109787-1.5070267-0.0708084-2.2379532,0.1132126
			c-0.4193497-0.5013885-0.9715042-0.7502136-1.4860458-0.9447784c-0.8269119-0.3156815-1.5889511-0.5213013-2.3268127-0.6290817
			c-1.0062103-0.1469879-1.9610825-0.1088104-3.0063858,0.1187592c-1.0249557,0.2226562-1.8822861,0.8423386-2.4140244,1.7437363
			c-0.4661179,0.8245697-0.5236282,1.7669144-0.5184479,2.2580032c0.0068741,0.5401077,0.0346069,0.6730576,0.2039719,1.2509079
			c0.243248,0.8575363,1.0087357,1.6576309,1.8773041,1.9998322l0.081459,0.0339508
			c0.3678131,0.1557541,1.2300873,0.5190811,2.6257782,0.7229614c0.1054077,0.0153961,0.2148361,0.0297775,0.3276138,0.04319
			c1.4878006,0.1748505,2.793129-0.0414505,3.6786118-0.5784912c0.6689682,0.4120102,1.4074783,0.6817856,2.1883621,0.7958603
			c0.7194366,0.1050873,1.3587799,0.0633087,1.87397-0.0263824c0.6748657,0.3562241,1.8211365,0.7500839,3.9345474,1.0588074
			c2.0657043,0.3017578,4.609787,0.4485855,6.5957489,0.484108c-2.8711243,1.4947968-6.9837799,3.974144-8.4477692,6.0296631
			c-1.166008,0.3546066-2.3842392,1.1257858-3.1723938,2.4219742c-0.6406097-0.0684738-1.203392,0.1211166-1.7183685,0.338295
			c-1.9226456,0.8002319-3.1612396,1.786972-4.1333237,3.2934952c-0.5675888,0.883606-0.7186432,1.9286423-0.4274597,2.947197
			c0.2787018,0.9002151,0.9194794,1.6021118,1.2775421,1.9436035c0.3752213,0.3628235,0.4980392,0.4419174,1.014061,0.7232819
			l0.0915222,0.0510254c0.2566299,0.1412811,0.5689468,0.2417831,0.9204712,0.293129
			c0.594017,0.0867767,1.2093201,0.0212021,1.7320099-0.1837387l0.0842209-0.0334015
			c0.3789673-0.1409683,1.3854294-0.5172806,2.6474762-1.4754868c1.1523514-0.8688354,1.9164963-1.9202194,2.1675491-2.9128265
			c1.5433502-0.3340836,2.6862488-1.2405014,3.3939667-2.223053c2.4807129-0.7533188,6.3008728-3.95755,8.6356049-6.1859894
			c-0.9229126,3.0474777-2.0065308,7.7436676-1.5365143,10.2387695c-0.5501556,1.0496445-0.8335571,2.4195709-0.4468842,3.8714371
			c-0.4630432,0.3834305-0.7254639,0.8888702-0.9332581,1.4022827c-0.7633209,1.9172821-0.9061432,3.4759064-0.480072,5.2228775
			c0.2479858,1.0025787,0.9203186,1.8598785,1.8452454,2.359642c0.4039612,0.2146301,0.8730316,0.3600693,1.4023438,0.4373932
			c0.3685303,0.053833,0.6798859,0.0632706,0.8767395,0.0604782c0.4752045,0.0066681,0.6235046-0.0188293,1.15271-0.1505661
			l0.1394348-0.034668c0.8238068-0.2064896,1.648407-0.9457016,2.0069122-1.7969284l0.0332184-0.0768967
			c0.1622314-0.3628464,0.5921326-1.3262634,0.7727814-2.8856354c0.1626587-1.4094467-0.0718384-2.6820221-0.6163483-3.5536423
			c0.8246307-1.2987442,0.9555664-2.7223129,0.7285156-3.905777c1.1500092-2.2568359,1.4658966-7.1248779,1.4563446-10.3354492
			c1.61586,2.881012,4.3868256,7.0904007,6.516098,8.5330734c0.3827667,1.1291199,1.1940308,2.3100662,2.5408936,3.0788956
			c-0.0457916,0.6093445,0.1495361,1.1549225,0.3899078,1.6662216c0.8559113,1.8599625,1.8920593,3.0610428,3.4612427,4.0084763
			c0.4363098,0.2618332,0.9089508,0.4314575,1.4075012,0.5042801c0.5123749,0.074852,1.0474548,0.0429382,1.547699-0.0898056
			c0.8255463-0.2236252,1.5201569-0.7616806,1.9584503-1.1754379c0.3987885-0.3944321,0.4732971-0.5013428,0.7692261-1.0002747
			l0.0458069-0.0766602c0.4352417-0.7410507,0.4716034-1.8514404,0.0926208-2.7051544
			c-0.1722565-0.4181366-0.5748138-1.3947067-1.5990448-2.6411972c-0.9057617-1.0988312-2.0270996-1.8677139-3.0473328-2.1015549
			c-0.3716583-1.5174255-1.338562-2.6330719-2.3741302-3.317009c-0.8416748-2.3121872-4.0914001-5.9661484-6.4996033-8.2965164
			c2.1825867,0.6205673,5.0141296,1.2794495,6.9437256,1.5613174c1.6501617,0.2410583,2.8798523,0.2792358,3.7813416,0.1107941
			c0.4722595,0.2371597,1.0802307,0.4642029,1.8080139,0.5705185c0.7493744,0.1094666,1.5040741,0.068924,2.2347717-0.1135178
			c0.4189758,0.4995575,0.9703522,0.7482758,1.4854431,0.9445343c0.8306885,0.3162231,1.5935211,0.521965,2.3313904,0.6297531
			c1.0063477,0.1470032,1.9610748,0.1088028,3.0071716-0.1186523c1.0259705-0.2241135,1.9081421-0.8684998,2.4179535-1.7652054
			c0.4642181-0.806015,0.5213928-1.7514725,0.5138397-2.2429199c-0.0076294-0.5448761-0.0374908-0.6797562-0.2165527-1.2826614
			c-0.2322235-0.8195648-0.9986267-1.6199646-1.8676147-1.9636612c-0.4346313-0.1830673-1.2827148-0.5410995-2.6629639-0.7427292
			c-0.1208496-0.0176544-0.2449341-0.0341644-0.3738098-0.0497665c-1.4859314-0.177803-2.7912445,0.0385056-3.6771393,0.5738754
			c-0.6703491-0.4091568-1.4092865-0.6804352-2.1909485-0.7946167c-0.7170715-0.1047516-1.3555603-0.0644531-1.8689423,0.0238876
			c-0.6474609-0.3333893-1.7346802-0.7012558-3.7095947-0.9897461c-1.9380341-0.2831116-4.8504944-0.4633026-7.1145477-0.4939117
			c2.9685211-1.5214386,7.2264252-4.064537,8.7200623-6.0857925c1.1701508-0.3507843,2.3963165-1.1224213,3.190918-2.4253845
			c0.6392822,0.0666733,1.2020874-0.1230774,1.7152405-0.3387527c1.9198608-0.7977448,3.1589355-1.7812004,4.1377106-3.2851372
			c0.5663452-0.8870049,0.7188721-1.9631996,0.4249725-2.9631577c-0.2827911-0.9040337-0.9256134-1.6030197-1.2839661-1.9414902
			c-0.3743744-0.3641472-0.4891052-0.4391632-1.0240326-0.7310104l-0.0726318-0.0403862
			c-0.2583618-0.1415367-0.5705109-0.2421722-0.9220276-0.2935219c-0.5970154-0.0872116-1.2145233-0.0185814-1.7411194,0.19207
			c-0.4443512,0.1644096-1.4538116,0.5388298-2.7254791,1.5096397c-1.1476746,0.8632393-1.9117584,1.9146271-2.1636047,2.9071198
			c-1.5489655,0.334877-2.6958313,1.246994-3.4024506,2.2327576c-2.4281311,0.7753181-6.3176422,4.0024185-8.7179718,6.3249054
			c0.9671631-3.1353226,2.04039-7.9163818,1.6224976-10.3755417c0.5526581-1.0507355,0.8400421-2.4263496,0.4544067-3.879837
			c0.4907837-0.401268,0.7377625-0.9247284,0.9327087-1.414753c0.7600861-1.9005356,0.9031372-3.4607315,0.4761963-5.2124977
			c-0.2557526-1.0194855-0.9086761-1.8535156-1.8413849-2.3590889
			C150.4356384,45.7357864,149.9645081,45.5882683,149.4305725,45.510273L149.4305725,45.510273z"/>
	</g>
	<g>
		<path class="st4" d="M122.7586746,75.3141479c1.9022141-12.5866814,11.5501633-20.5814857,22.6070633-20.2501755
			c11.1247253,0.3347816,20.4116974,8.9629974,21.383255,19.8698807
			c0.9952393,11.1634674-7.7912598,21.3082352-19.4520111,22.3785629
			c-6.484787,0.5959854-12.3692169-1.0728989-17.3403473-5.3146515
			C124.3028336,87.1738281,122.0410767,80.9580688,122.7586746,75.3141479z M146.9450378,60.7825584
			c-8.9853668-1.3173943-17.2438812,4.5733528-18.4356384,13.1511955
			c-1.1904602,8.5637207,4.9516144,16.4245148,13.8707428,17.7541199
			c8.9019623,1.3287125,16.5616302-4.1529007,17.8690948-12.7860947
			C161.580658,70.1101837,155.6711121,62.0619202,146.9450378,60.7825584z"/>
		<path class="st5" d="M121.3353271,74.4667053c1.9024353-13.007946,12.5381927-21.6220512,25.028595-20.7923126
			c11.8920135,0.7894821,21.486969,10.2626457,21.9692993,22.1777115
			c0.4797363,11.8535309-9.3857574,22.4079437-21.7130585,23.0006409
			c-8.4086609,0.4044189-15.5453339-2.4013596-20.868721-9.0942917
			C121.9581146,84.9895248,120.712265,79.4689789,121.3353271,74.4667053z M122.7586746,75.3141479
			c-0.717598,5.6439209,1.5441589,11.8596802,7.1979599,16.6836166c4.9711304,4.2417526,10.8555603,5.9106369,17.3403473,5.3146515
			c11.6607513-1.0703278,20.4472504-11.2150955,19.4520111-22.3785629
			c-0.9715576-10.9068832-10.2585297-19.535099-21.383255-19.8698807
			C134.3088379,54.7326622,124.6608887,62.7274666,122.7586746,75.3141479z"/>
		<path class="st5" d="M146.9450378,60.7825584c8.7260742,1.2793617,14.6356201,9.3276253,13.3041992,18.1192207
			c-1.3074646,8.633194-8.9671326,14.1148071-17.8690948,12.7860947
			c-8.9191284-1.3296051-15.061203-9.1903992-13.8707428-17.7541199
			C129.7011566,65.3559113,137.959671,59.4651642,146.9450378,60.7825584z M158.7674866,78.6695557
			c1.1893158-7.9856796-4.2010651-15.3388634-12.076828-16.4737358c-8.0127563-1.1547203-15.5799103,4.225666-16.7058258,11.8795967
			c-1.126297,7.6616058,4.523819,14.9366989,12.573761,16.1863327
			C150.5454559,91.502327,157.6095734,86.4509354,158.7674866,78.6695557z"/>
	</g>
</g>
<path class="st6" d="M109.8433609,34.0950279c-0.0333176-1.1619606-0.5158997-2.3583355-1.0259476-3.500967
	c-1.1942215-2.6801949-2.610817-3.816946-2.610817-3.816946c-0.4924469-0.3808918-1.1985168-0.4578819-1.7277145-0.1177998
	c-0.5126114,0.3290024-1.0100937,0.9795494-1.3788452,2.0509892c0,0-0.315094,0.8950691-0.9776001,2.1087246
	c-0.3209534,0.6236324-1.0322342,1.6239567-1.5054779,2.290575c-0.310585,0.3739014-0.61409,0.7853928-0.9689178,1.1486969
	c-0.3633423,0.355938-0.710907,0.7336998-1.1176682,1.0294533c-0.3794022,0.3341942-0.8037949,0.6086426-1.2250214,0.8591118
	c-0.3930054,0.292038-0.8609009,0.4470253-1.2726135,0.6553917c-0.3931961,0.239357-0.8726578,0.3121948-1.2616501,0.4614182
	c-0.3323135,0.1399574-0.6765671,0.1909714-0.999115,0.2491646l-0.4974518-9.0366192l3.9345932-0.1892529
	c2.3892593-0.1150932,2.7493744-0.3779678,2.619339-2.8320827c-0.1478882-2.6630325-0.5221405-2.6889668-2.9126511-2.5669498
	l-3.9345779,0.189249l-0.2293015-4.2160854c1.9926376-1.1120052,3.3008881-3.2382498,3.1693039-5.6393661
	c-0.1896515-3.4113779-3.1669159-6.0323615-6.6503296-5.8651681c-3.4834137,0.1671915-6.1590881,3.067739-5.9734344,6.4768767
	c0.1319504,2.4603128,1.7369995,4.4980783,3.928154,5.3833418l0.229538,4.1238651l-3.9327164,0.1952934
	c-2.2104797,0.10742-2.7658234,0.1686535-2.6202164,2.8289604c0.1428299,2.5460262,0.9262848,2.6638432,2.9144058,2.5731907
	l3.9343872-0.1959324l0.4929199,9.037899c-6.4500275-0.1074905-10.0836334-7.5777493-10.0836334-7.5777493
	c-0.4920807-1.0258999-1.0699768-1.6163425-1.6207428-1.8886242c-0.5609589-0.2857437-1.2548065-0.1326828-1.6989517,0.2986259
	c0,0-1.2716827,1.2769451-2.1418991,4.0693321c-0.3751373,1.1884727-0.7097473,2.428009-0.6034393,3.5858803
	c0,0-0.0276184,0.8929367,0.4939575,1.0385132c0.5306168,0.1430206,1.0639801-0.211544,1.0639801-0.211544l3.3862152-1.6598587
	c1.6882172,3.5212517,3.9005814,5.6706161,5.6543503,6.929348c0,0,2.4143448,1.7106056,6.1539612,2.1950073
	c0.5315552,0.0704842,1.1863098,0.0994568,2.0080795,0.1077347c0,0,0.9112396-0.0006371,1.3573074-0.064045
	c1.6703644-0.1785202,2.4110641-0.3875999,3.0636673-0.581749c0.7979126-0.2152863,1.1974182-0.3971252,1.7654877-0.6167755
	c0,0,5.3580475-2.4206276,7.8830566-9.5791664l3.4671707,1.2554016c0,0,0.5776443,0.2977104,1.0862732,0.094841
	C109.9783936,34.9750748,109.8433609,34.0950279,109.8433609,34.0950279z M89.7263336,15.6612511
	c-1.2054672,0.0540342-2.234787-0.8530693-2.3031845-2.0282097c-0.0633011-1.1797829,0.8607635-2.1842403,2.0676422-2.2452459
	c1.2054749-0.054038,2.2386398,0.8553505,2.3011017,2.0321674C91.8557663,14.5963821,90.9301376,15.6012812,89.7263336,15.6612511z"
	/>
</svg>
