<?xml version="1.0" encoding="utf-8"?>
<!-- Generator: Adobe Illustrator 26.2.1, SVG Export Plug-In . SVG Version: 6.00 Build 0)  -->
<svg version="1.1" id="レイヤー_1" xmlns="http://www.w3.org/2000/svg" xmlns:xlink="http://www.w3.org/1999/xlink" x="0px"
	 y="0px" viewBox="0 0 84 72.0466614" style="enable-background:new 0 0 84 72.0466614;" xml:space="preserve">
<style type="text/css">
	.st0{display:none;fill:#694B3A;}
	.st1{fill:#4C3733;}
	.st2{fill:#C68212;}
	.st3{fill:#FCCF00;}
	.st4{fill:#FFFFFF;}
	.st5{clip-path:url(#SVGID_00000024691770190607052560000002242748600269239443_);fill:#FFFFFF;}
	.st6{fill:#FFF0CA;}
	.st7{fill:#F09CB4;}
	.st8{fill:#E50012;}
	.st9{clip-path:url(#SVGID_00000136390294897639624790000016382352261079443132_);fill:#FFFFFF;}
	.st10{fill:#FFE100;}
	.st11{fill:#F29600;}
</style>
<path class="st0" d="M46.7999992,29.3366661c0.75,0,1.4099998,0.0599995,1.9599991,0.4099998
	c0.1599998,0.0900002,0.2700005,0.2199993,0.4000015,0.3500004c0.2700005,0.2700005,0.4700012,0.5200005,0.6300011,0.8400002
	c0.0999985,0.2199993,0.1399994,0.4599991,0.1800003,0.7099991c0.0999985,0.7300014-0.0200005,1.4699993-0.3400002,2.0599995
	c-0.0900002,0.1399994-0.1899986,0.25-0.2900009,0.3700027c-0.0999985,0.1499977-0.1899986,0.2900009-0.3199997,0.4099998
	c-0.3699989,0.3199997-0.9000015,0.5-1.4000015,0.5699997c-0.4300003,0.079998-1.1100006,0.0099983-1.4700012-0.1300011
	c-0.0999985-0.0599976-0.1899986-0.1100006-0.2900009-0.1699982c-0.3699989-0.2099991-0.8100014-0.4500008-1.0999985-0.8199997
	c-0.1699982-0.2099991-0.2799988-0.5400009-0.3499985-0.8100014c-0.0999985-0.2700005-0.2099991-0.5400009-0.2599983-0.8499985
	C44.0400009,31.4266663,44.5,30.5166664,45.1000023,30.0066662c0.0900002-0.0799999,0.2099991-0.1200008,0.3100014-0.1800003
	c0.3400002-0.2199993,0.5900002-0.3199997,0.9900017-0.4200001C46.5200005,29.3866653,46.6599998,29.3566666,46.7999992,29.3366661z
	"/>
<path class="st0" d="M32,48.626667c0.3400002,0,0.6500015,0,0.9300003,0.0800018
	c0.8600006,0.25,2.0400009,1.2200012,2.2599983,2.1399994c0.0499992,0.2000008,0.0400009,0.4300003,0.0400009,0.6599998
	c0,0.2400017-0.0099983,0.4700012-0.0200005,0.7000008c-0.0400009,0.2299995-0.1399994,0.4700012-0.2400017,0.6699982
	c-0.0600014,0.1399994-0.1199989,0.2999992-0.1800003,0.4399986c-0.3499985,0.5699997-1.1500015,1.1899986-1.7900009,1.3199997
	c-0.3800011,0.0800018-0.8600006,0.0499992-1.2299995,0c-0.4899998-0.0699997-0.9400005-0.1599998-1.3400002-0.4199982
	c-1.2299995-0.8199997-1.5799999-2.1399994-1.1000004-3.5699997c0.1299992-0.4199982,0.3099995-0.7999992,0.6200008-1.1199989
	c0.1299992-0.0999985,0.2600002-0.1899986,0.3899994-0.2900009c0.3400002-0.2700005,0.7700005-0.5299988,1.2299995-0.5299988
	C31.7099991,48.6666679,31.8600006,48.6466675,32,48.626667z"/>
<g>
	<g>
		<path class="st1" d="M77.8803253,56.3087883c0.3051605-0.5226669,0.99366-0.5508499,1.0547256,0.1109734
			c0.0835419,0.9551544-1.1972275,4.1683083-2.2207565,4.4160919c-0.1585312,0.0385017-0.3367004,0.0020142-0.4738464-0.111393
			c-0.5689621-0.4641151,0.4189911-1.156723,0.6716385-1.558094c0.1872253-0.3607712,0.3727798-0.7216301,0.5583115-1.0829048
			c0.0307007-0.0880775,0.0605621-0.1769066,0.0888367-0.2621307c0.0360641-0.1003189,0.0712967-0.2006416,0.1061096-0.2997894
			c-0.003273-0.1233063,0.0450439-0.2625504,0.1072845-0.3866081c-0.006546-0.1147499,0.0315323-0.2359581,0.0897522-0.3518829
			C77.8676605,56.626194,77.8750458,56.4669037,77.8803253,56.3087883"/>
		<path class="st1" d="M79.9548798,56.7355728c0.3006287-0.5161209,1.0174026-0.5472412,1.0497742,0.112236
			c0.0286026,0.5807915-0.1450348,1.1242561-0.3252106,1.7046318c-0.1761475,0.4840775-0.3510437,0.9686584-0.5287857,1.4527397
			c-0.2744598,0.5689659-0.6573792,1.0325775-1.0272064,1.4663239c-0.2216187,0.2534904-0.4882736,0.6049538-0.8306808,0.6884995
			c-0.134697,0.0315399-0.2846069,0.013504-0.4164658-0.0713005c-0.2019882-0.1285896-0.2855301-0.3767929-0.1982956-0.6024361
			c0.1150818-0.3014679,0.4308929-0.4665451,0.6320419-0.6884956c0.3755341-0.4173927,0.7036057-0.8851128,0.9857712-1.4430084
			c0.0299454-0.0879898,0.0602264-0.1769028,0.088913-0.2645607c0.058548-0.1446114,0.119194-0.2912331,0.1777496-0.4386139
			c0.0282745-0.0880737,0.058548-0.175312,0.0876541-0.2625465c0.023735-0.0770035,0.0474777-0.1524124,0.0724716-0.2289963
			c0.0221481-0.0761642,0.0475616-0.1527481,0.0684509-0.2289124c0.0298615-0.0876579,0.061409-0.1757317,0.0900879-0.2629662
			c-0.0057068-0.1941032,0.0200424-0.7376518,0.1089554-0.9141388
			C79.9777756,56.7474022,79.9667892,56.7421188,79.9548798,56.7355728"/>
	</g>
	<g>
		<path class="st1" d="M14.1589012,24.5330868c0.7106419-1.4106312,1.5342703-2.4636745,2.6184349-3.3405685
			c0.2752151-0.2232075,0.6221466-0.3198395,0.9457607-0.475523c0.4779549-0.2284927,1.009594-0.4615974,1.5284824-0.6143456
			c1.0997753-0.3223553,2.6057682-0.1683502,3.714426,0.1322803c0.9048271,0.2466106,2.1654758,0.6344776,2.9710712,1.2676964
			c0.3416481,0.2780666,0.6844711,0.5578098,1.0256157,0.8358765c0.7855473,0.7295151,1.5710945,2.0040894,1.7705631,3.1176949
			c0.0676098,0.3797302,0.1900749,0.7909164,0.2326965,1.1787834c-0.0032806,0.4210835-0.0045395,0.8409081-0.0069714,1.2623272
			c-0.00453,0.0626602-0.00453,0.3861885,0.0307007,0.3174057c0.4943943-0.0228996,0.9600201,0.0106544,1.458107,0.0487366
			c0.6676102,0.052845,1.3618107,0.0806923,2.0380592,0.1794205c2.1457634,0.3137169,4.6150589,1.0816479,6.6461601,2.3587399
			c0.5496712,0.3469315,1.1107521,0.648737,1.5821648,1.0591679c0.629528,0.5492516,1.1636086,1.1918678,1.6956596,1.8053741
			c0.6717186,0.774559,1.2020988,1.3836212,1.5559959,2.3984985c0.4411278,1.2651787,0.9490318,2.5164337,1.0919647,3.8316078
			c0.008976,0.0852242,0.0814476,0.2190971,0.039257,0.3026428c0.0299454-0.0294418,0.0590515-0.058548,0.0876541-0.0880737
			l-0.0352287-0.017952c0.1294289-0.4595833,0.19133-0.9866943,0.2232895-1.4576874
			c0.025753-0.3989372,0.0048676-0.8306732,0.2071877-1.2312088c0.0311203-0.3825798,0.4145393-0.8679161,0.6397629-1.1337357
			c1.3893242-1.653801,3.640358-1.8160286,5.4006882-0.3837585c1.0415535,0.849884,1.5149765,2.5668488,1.4990387,3.8779106
			c-0.0089722,0.6667747-0.1044312,1.3384933-0.1868019,2.004425c-0.0773277,0.6213074-0.1457863,1.2357407-0.3059158,1.8660202
			c-0.0426102,0.1642418-0.0548553,0.3395538-0.138813,0.5054703c0.0483055,0.0241585,0.0946083,0.0777588,0.1232109,0.0176163
			c0.0688782-0.0008392,0.1212921-0.0151825,0.1769905-0.0553627c0.1629829-0.1216278,0.278904-0.3185806,0.4173088-0.4762764
			c0.2748795-0.312542,0.6094933-0.6307869,0.9301605-0.8933372c0.4763603-0.3919754,1.1050491-0.6671906,1.7378502-0.7359734
			c0.8760529-0.0946159,2.3317261,0.2399864,3.0963898,0.906002c0.2375488,0.2076073,0.5693016,0.744194,0.7978745,0.8539085
			c0.2560081,0.1228867,0.8777351,0.0295296,1.1644402-0.0078011c0.2965202-0.0257492,0.5938797-0.0520058,0.8891411-0.077755
			c1.2914352-0.2555885,1.8697128-1.1435547,2.491436-2.3813057c0.0286865-0.0884933,0.0602264-0.1764832,0.0884933-0.2637215
			c0.029953-0.0884933,0.0598145-0.1761513,0.0893402-0.2633858c0.0290222-0.0884933,0.0597229-0.1761513,0.0875702-0.2638054
			c-0.0057068-0.2162476,0.0708923-0.4886093,0.1785812-0.7031784c0.0291061-0.0880737,0.0602264-0.1757317,0.0880737-0.2629662
			c0.0291061-0.088913,0.0598068-0.1765709,0.0897522-0.2638054c0.0281982-0.0884132,0.0597229-0.1760674,0.0875778-0.2633057
			c0.0168533-0.3723488,0.4850082-0.9072571,0.7036743-1.1419563c1.3299408-1.423214,4.0593491-0.9583435,5.5575485,0.3158112
			c0.355072,0.3023071,0.6557007,0.6930275,0.9039078,1.0730934c0.6578064,1.0050621,0.747879,2.6204491,0.4993439,3.7463837
			c-0.0184555,0.0749893-0.1441956,0.4972496-0.1159286,0.5123482c-0.0065384,0.0114899-0.010231,0.0229836-0.0180359,0.0340538
			c0.4329147,0.0683632,0.8764801,0.1101379,1.3122406,0.2784882c1.6375427,0.6393394,2.5660095,1.9626503,2.8998566,3.5387764
			c0.1331177,0.6302834,0.0561142,1.2749939-0.0062103,1.9085503c-0.0872345,0.9002953-0.171524,1.8161125-0.3845825,2.7208519
			c-0.4054947,1.6960793-1.120575,3.3150711-1.8848114,5.0300217c-0.5603256,1.2553635-1.2381821,2.5774155-1.9795227,3.71241
			c-0.1310196,0.170784-0.2625427,0.3415642-0.3939896,0.5127678c-0.5148621,0.71064-0.9875336,1.4237137-1.5346909,2.0744667
			c-0.2551651,0.2842712-0.509491,0.5664482-0.7654953,0.8507195c-0.1618118,0.1552658-0.3243713,0.3096085-0.4853363,0.4648743
			c0.0110703,0.0056992,0.0228958,0.0110703,0.0348053,0.016777c0.2186813,0.4718246,0.5647736,1.188591,0.5918655,1.7276154
			c0.0241623,0.5009384-0.0717163,0.9928131-0.2174988,1.4966049c-0.6766739,2.3107605-2.5189514,3.6001816-4.7543869,3.3728638
			c-0.9264679-0.0946198-1.8754158-0.5763474-2.6056747-1.195137c-0.196209-0.2257233-0.3919868-0.4501953-0.5890236-0.6749954
			c-0.8404045,0.5451431-1.9384956,0.8838577-2.9161301,1.1889343c-2.7221107,0.8511429-5.3023682,1.0522003-8.0445404,1.0158005
			c-3.2548409-0.0430298-6.3934212-0.4616013-9.6631126-1.5539856c-1.2303658-0.4099274-2.4709702-0.898201-3.7082901-1.5465164
			c-0.56604-0.2953415-1.1017914-0.6311188-1.6854362-0.9362793c-0.1527481-0.0794373-0.3132973-0.214653-0.4762764-0.2227936
			c-0.2191811-0.0127487-0.4563141,0.293251-0.6164322,0.4062424c-0.535759,0.3715057-1.1063194,0.7352142-1.6575851,1.0719147
			c-0.4381981,0.2129745-0.8752174,0.4259491-1.3130779,0.6401825c-0.413702,0.15728-0.8289967,0.3132935-1.2438736,0.468895
			c-0.2936687,0.0593872-0.5877552,0.1167603-0.8834362,0.1765671c-1.5518856,0.4320755-3.3970203,0.5140305-4.9489059,0.3465195
			c-3.0784397-0.3330078-6.5708237-1.9029312-9.1057119-3.9524002c-0.7224779-0.5824738-1.4863749-1.1341553-2.0712872-1.8156891
			c-0.0376635-0.0426178-0.1228027-0.1126556-0.0941992-0.1699448c-0.035985-0.0180359-0.0707865-0.0356522-0.1060162-0.0524292
			c-1.2500906,1.7455673-3.6157913,3.0509262-5.776319,3.0439682c-0.6913486-0.0004196-1.4433341-0.2654037-2.1285686-0.5459824
			c-0.3935704-0.1589584-0.8260622-0.3034821-1.2229877-0.5438919c-2.1715159-1.3135757-4.0568295-3.8889809-3.8352153-6.4570007
			c0.0511675-0.6069641,0.0286874-1.4560089,0.3223554-2.0384827c-0.0160213-0.2379684,0.1097257-0.4829025,0.2297506-0.7216301
			c0.0290229-0.0876541,0.0598072-0.1757278,0.0888393-0.2633858c0.0123214-0.158535,0.1167534-0.3174057,0.1950147-0.4734268
			c0.0159373-0.3493614,0.4103466-0.7593727,0.5950531-1.0219231c0.6455494-0.9227753,1.4359618-1.533432,2.350183-2.0904846
			c0.2425003-0.1486397,0.49968-0.3071747,0.7822757-0.4005356c0.6811152-0.2253036,1.3643274-0.330574,2.0499721-0.441967
			c0.4201608-0.0659332,1.3109794-0.0909271,1.7054725,0.1077003c0.0069618-0.0126648,0.0118275-0.0249939,0.0179501-0.0352287
			c-0.0122461-0.005703-0.0228996-0.0114059-0.0339718-0.017952c0.0057039-0.0119095,0.0110722-0.0229836,0.0176153-0.0352287
			c-0.0098143-0.2986183-0.0196285-0.5975685-0.0302811-0.8961868c-0.0913467-1.3012466,0.0343914-2.7339401,0.2940874-4.0278053
			c0.06141-0.3108635,0.0696211-0.6368256,0.2260599-0.9469337c-0.0156021-0.2477875,0.0720539-0.5823898,0.1953592-0.8264847
			c0.0237379-0.0754089,0.0487347-0.1524086,0.0712986-0.2281532c-0.0197115-0.2289124,0.0970507-0.4558105,0.2137384-0.6852264
			c0.0286779-0.0880775,0.0593786-0.1760674,0.0873117-0.2625504c-0.0143347-0.2354546,0.1134071-0.4877663,0.2313442-0.7216301
			c0.0295258-0.0880737,0.0602264-0.1761475,0.0889139-0.2633858c0.0294514-0.0884933,0.0606461-0.1760674,0.0884943-0.2637215
			c0.0524254-0.1347961,0.1064453-0.2690926,0.1588707-0.4034691c0.013505-0.1638184,0.1311064-0.3460922,0.2125549-0.5094948
			c0.0299463-0.0884933,0.0593977-0.1757317,0.0889139-0.2633858c0.0294428-0.088829,0.0593977-0.1760674,0.0884953-0.2629662
			c0.0233192-0.0770035,0.0478964-0.1523285,0.0712147-0.2289124c0.0110722-0.2953453,0.3149738-0.7143326,0.4595852-1.0014572
			c0.0257521-0.3030624,0.3751163-0.8321877,0.5312195-1.1401978c0.9690046-1.9254074,2.0908222-3.6223259,3.3552475-5.1250572
			c0.2248011-0.2690887,0.5016928-0.4844971,0.7519941-0.7216301c0.0720539-0.069706,0.1453667-0.1380692,0.2174206-0.2085266
			c0.0454636,0.0237389,0.0291061,0.030365,0.052845-0.0171967c-0.2097034-0.2014809-0.4202452-0.401371-0.6311216-0.6024361
			c-1.3504038-1.418848-1.6932259-2.806076-1.9012508-4.7134495c-0.06635-0.5963116-0.0991478-1.347887,0.1961975-1.9356422
			c-0.025835-0.4100113,0.1821899-1.0604267,0.3907185-1.474884C14.1351633,24.6973248,14.1475029,24.6157932,14.1589012,24.5330868
			"/>
		<path class="st2" d="M15.1247187,24.975811c-0.0687828,0.2125549-0.1376581,0.4246902-0.2060213,0.6376648
			c-0.1126528,0.5148621-0.2244663,1.0288868-0.3374538,1.5445881c-0.0843849,0.5164566-0.0041103,1.0492687,0.0810289,1.5669842
			c0.184371,1.157896,0.4964085,2.4091511,1.337327,3.2528286c0.1810055,0.1839504,0.5971413,0.6983929,0.8928223,0.6918507
			c0.2064304-0.0036888,0.4489307-0.2707672,0.6168613-0.3776321c0.4627724-0.2961845,0.917408-0.6049519,1.3765736-0.9117889
			c0.1077042-0.0474758,0.2138138-0.0957928,0.3210983-0.1441078c0.2891388-0.1642399,0.5795345-0.3297367,0.8699322-0.4943962
			c0.7811108-0.4381943,1.6444893-0.7777462,2.4443798-1.1934605c0.0896702-0.047142,0.3337631-0.0778427,0.3809147-0.1728783
			c-0.4206734-0.3022251-0.7462997-0.7285938-1.0022221-1.1607494c-0.7933483-1.3363934-1.2213936-2.5811062-0.8765583-4.1387806
			c0.0499935-0.229332,0.0725574-0.4673023,0.1892357-0.7011623c0.0299454-0.087656,0.0602264-0.1748924,0.0889149-0.2633877
			c0.0290222-0.087656,0.0593872-0.1760654,0.0892487-0.2637215c0.0336361-0.342823,0.819603-1.4609585,0.7876453-1.6141262
			c-0.061821-0.2822609-1.9590454-0.2011471-2.2264595-0.1790028c-0.380064,0.0315399-0.7110596,0.1896553-1.0645351,0.3330078
			c-0.4517002,0.1818542-0.9165688,0.3239498-1.3306904,0.5619202
			C16.5553875,22.5253067,15.7091932,23.8138046,15.1247187,24.975811"/>
		<path class="st2" d="M2.0587897,56.8711281c-0.0589594,0.1592903-0.1191113,0.3195-0.1805871,0.4796295
			c-0.1322898,0.3751183-0.2776467,0.7634048-0.3473611,1.1402817c-0.1445273,0.7687721-0.2571797,1.5465164-0.1879777,2.3128548
			c0.0156019,0.1851273,0.126996,0.3128777,0.1744728,0.4873505c0.0344752,0.1843719,0.0717185,0.3694954,0.1061097,0.5550423
			c0.2875446,0.9260483,0.9760413,1.927002,1.6661317,2.566761c0.0802743,0.0757446,0.324033,0.3178253,0.4497709,0.3182449
			c0.0208864-0.0245743,0.0433667-0.0495682,0.0630879-0.0761642c0.139653-0.3514557,0.11625-0.7237244,0.2952616-1.0792122
			c0.0110631-0.260952,0.2617092-0.607048,0.389535-0.8605347c0.8539104-1.6969185,2.2829194-2.7154884,4.0166507-3.1672707
			c0.3809137-0.0974693,0.7904959-0.2014847,1.1792011-0.1716232c0.0806942,0.0061264,0.360857,0.0839653,0.4054813-0.0041084
			c-0.0134954-0.0052834-0.0237379-0.0109901-0.0360689-0.017952c0.0065432-0.0114899,0.0127506-0.0238228,0.0180349-0.034893
			c-0.2129745-0.3533936-0.2924004-0.8416634-0.4100113-1.2406044c-0.2514668-0.8457718-0.5110884-1.6476784-0.6765852-2.4938698
			c-0.0802746-0.4091721-0.1085424-0.8326874-0.1720409-1.2406044c-0.0311108-0.2125549-0.0634975-0.4255295-0.0974693-0.6373291
			c-0.4296398-0.0524254-0.8416643-0.2162437-1.2664385-0.2080231C5.2186775,53.5384445,3.1155248,54.7728386,2.0587897,56.8711281"
			/>
		<path class="st2" d="M12.072525,41.1794739c-0.0687828,0.3783875-0.3628702,0.8007278-0.4898663,1.1615028
			c-0.4668827,1.3139153-0.9587622,2.600399-1.3384924,3.9008102c-0.2940035,1.0034714-0.5041256,2.1117935-0.5271091,3.1250763
			c-0.0130854,0.5271111-0.110136,1.0391197-0.1265764,1.5645523c0.025835,0.398941,0.0520897,0.797039,0.0782614,1.1968155
			c0.0863972,1.4990425,0.2469549,3.0214844,0.6344862,4.5098724c0.1322718,0.4042244,0.2661457,0.8084488,0.3980904,1.2139282
			c0.2440948,0.7811012,0.4910498,1.6051521,0.8801661,2.3153725c0.8040009,1.4736252,1.7709827,2.8518753,2.915803,4.0765457
			c0.4050522,0.4349213,0.9116945,0.7486343,1.3659115,1.1496735c0.6958885,0.6163559,1.4810162,1.1201477,2.3394451,1.6387024
			c2.6712914,1.6173935,5.3732605,2.3984146,8.1374817,2.4307938c0.1540051-0.0208893,0.3071728-0.0413589,0.4603405-0.0602264
			c0.9584351-0.0380859,1.9135799-0.1056061,2.8760338-0.3587646c2.0065212-0.526268,3.7291889-1.7063065,5.2774677-2.9125214
			c0.677845-0.5299606,1.255703-1.202858,1.806633-1.9089661c0.5094948-0.6504135,1.0640411-1.2955437,1.5452576-2.0016556
			c0.6258392-0.9235344,1.1058922-1.9434433,1.6571579-2.9931335c0.1470451-0.2629662,0.2957649-0.5271111,0.4419708-0.7904968
			c0.0098114-0.2949257,0.3153915-0.7155075,0.4591637-1.0001984c0.0192108-0.164238,0.131443-0.348526,0.2121353-0.510334
			c0.0196304-0.1633987,0.131443-0.3473511,0.2129745-0.5094948c0.0180359-0.167511,0.1285896-0.3424034,0.2125549-0.5090752
			c0.028698-0.088913,0.0593872-0.1761475,0.0889168-0.2633858c0.0286026-0.0876541,0.0593872-0.1761513,0.0872345-0.2633858
			c0.0355644-0.0990639,0.0712166-0.1994705,0.1068649-0.298954c-0.0052834-0.1683502,0.0905075-0.3551521,0.1769066-0.5275269
			c0.0299454-0.0872383,0.0602264-0.1744728,0.0897522-0.2625504c0.0282669-0.088913,0.0598068-0.175312,0.0884094-0.2638054
			c0.0225639-0.0770035,0.0475616-0.1519089,0.0704613-0.2289124c0.0479813-0.122467,0.0958748-0.2457695,0.1425972-0.3686562
			c0.028183-0.0876579,0.0593872-0.1760674,0.087574-0.2625504c-0.0048676-0.2019005,0.076664-0.4127769,0.1774063-0.6151848
			c-0.0045204-0.1224632,0.0437851-0.2617073,0.1068649-0.3866081c0.0295372-0.0880737,0.0598068-0.1764832,0.0896683-0.2633858
			c0.0286903-0.088829,0.0593872-0.176487,0.0876579-0.2637215c0.0241661-0.0761642,0.0479774-0.1524124,0.0712967-0.228157
			c0.0188751-0.1691055,0.1285896-0.3415642,0.2121353-0.510334c-0.0061226-0.1727943,0.0541039-0.3678169,0.1421814-0.5438843
			c0.0290222-0.0889168,0.0593872-0.1761513,0.0892601-0.2638054c-0.0135155-0.4255295,0.2326736-1.0591698,0.3436508-1.4966087
			c0.0520058-0.2141495,0.0478935-0.41605,0.1540031-0.6291084c0.0450554-0.2817574,0.0888329-0.5639343,0.1310234-0.8445168
			c0.108963-0.8965225,0.2158279-1.7914505,0.2486229-2.6876373c0.0761642-2.1211891-0.2019005-4.2370911-0.7159233-6.3430939
			c-0.1118164-0.3128777-0.223629-0.6266785-0.3375282-0.9399719c-0.2477951-0.7487259-0.5345001-1.4633942-0.9862022-2.0716133
			c-0.21138-0.2359581-0.4219208-0.4735107-0.6344757-0.7110634c-0.4964104-0.608223-1.0215073-1.2442932-1.6472588-1.7500954
			c-1.1607475-0.9379597-2.9703064-1.894289-4.427166-2.312521c-0.4246902-0.1399975-0.8503036-0.2796593-1.2745743-0.4194069
			c-3.0161057-0.6913471-5.9855938-0.8314285-8.9897976-0.2084446c-1.0776215,0.2244663-2.087635,0.7319489-3.0292015,1.2000885
			c-0.451355,0.2244663-0.9330101,0.3902988-1.3680172,0.6241608c-1.2475643,0.6680298-2.5127449,1.3863869-3.6046257,2.2764511
			c-0.1642399,0.1613884-0.3281441,0.3243675-0.493557,0.4857559c-0.289978,0.2645607-0.5795364,0.5312195-0.8711901,0.797039
			C14.392436,36.7994499,13.2258911,38.8886795,12.072525,41.1794739"/>
		<path class="st3" d="M22.3033447,23.3080006l-0.1449471,0.4964104c-0.0619049,0.321516-0.1220474,0.6414394-0.1826935,0.9632912
			c-0.1081219,1.3512421,0.5066433,2.7143097,1.4420853,3.6547031c0.2035789,0.1830273,0.4075794,0.3673992,0.6107388,0.5525246
			c0.4718323-0.2690907,1.0816479-0.3247871,1.5948334-0.4075794c0.4313164-0.0741501,0.8629684-0.1498947,1.2926083-0.2252197
			c0.202322-0.016777,0.4054813-0.0332165,0.6062088-0.048315c0.1200352-0.0249977,0.2518959-0.0484009,0.312458-0.1687698
			c0.21138-0.419405,0.0676079-1.3446159-0.0274296-1.7996712c-0.1035919-0.484581-0.1588707-0.9866943-0.3657207-1.4609585
			c-0.5447254-1.2426987-1.550209-2.3063126-2.9027081-2.9358406c-0.1875591-0.0872364-0.7748947-0.3821621-0.9226933-0.3227749
			C22.9205418,21.8839512,22.6703243,22.580164,22.3033447,23.3080006"/>
		<path class="st3" d="M5.0110717,64.0362549c-0.0184541,0.5083237-0.2920742,1.0292206-0.0373273,1.5277328
			c0.1396623,0.2727814,0.6684494,0.352211,0.9277258,0.4624329c2.0306797,0.8666611,4.2162037,0.0454636,5.7115536-1.3454514
			c0.3128767-0.2924957,0.7507362-0.6504135,0.9587622-1.0632782c-0.0118275-0.006546-0.022481-0.0123329-0.0348015-0.0176163
			c-0.2207012-0.3870277-2.0642414-2.8932304-1.9606485-3.1009178c-2.1788883-0.1736374-3.6816287,0.4808044-4.9525962,2.3509369
			C5.4189858,63.2457619,5.2149959,63.6405907,5.0110717,64.0362549"/>
		<path class="st1" d="M31.9574814,37.7197952c0.0261707-0.0962944,0.0609818-0.1909142,0.1035919-0.2851143
			c0.0983086-0.2199364,0.2359581-0.4214172,0.404644-0.5922012c0.7717056-0.780262,2.0188522-1.0375252,3.0673676-0.440712
			c0.9923973,0.5635147,1.398716,2.2935638,0.5467377,3.3683357c-0.5606613,0.7073669-1.4396553,0.9186668-2.3161278,0.7728806
			C32.4591751,40.3250618,31.5974636,38.9796066,31.9574814,37.7197952"/>
		<path class="st1" d="M25.0544796,54.6164017c0.187149-0.7515755,0.6900902-1.4122238,1.4507236-1.6534691
			c1.0960026-0.3481064,2.2661438-0.0249939,2.9079933,0.9293213c0.6352329,0.9436646,0.3235302,2.9006119-1.0169754,3.442482
			c-0.9318352,0.3768806-2.138792,0.2564278-2.944891-0.5778542C24.92589,56.2129097,24.8717861,55.3454971,25.0544796,54.6164017"
			/>
		<path class="st4" d="M38.9096375,48.5460854c0.0794334-0.2351189,0.1527481-0.4722481,0.2178383-0.713913
			c0.1794205-0.6671906,0.309269-1.772995,0.1045151-2.4816246c-0.2724342-0.9408112-0.7872238-1.6804733-1.7706451-2.1231995
			c-1.0820694-0.4882698-2.1011314-0.5218239-3.2155876-0.2085266c-1.0124435,0.2855301-1.8869057,0.958004-2.5987225,1.7214928
			c-0.3871117,0.418148-0.6299477,0.8997917-0.8409081,1.4232941c-0.5684624,1.4068565-0.7904968,3.3531532-0.2055931,4.8079872
			c0.3223648,0.8015671,0.6950397,1.5088539,1.4118061,2.0114708c0.9186745,0.644207,2.2334175,0.9824982,3.3315086,0.6335526
			c0.4382896-0.1392403,0.9153938-0.4033852,1.251255-0.7216301c0.1605492-0.1515732,0.328476-0.333847,0.4427338-0.5218239
			c0.2019768-0.3419838,0.4439735-0.6647568,0.6488113-1.0034714c0.2149887-0.3591766,0.3587608-0.760128,0.5373421-1.1386032
			C38.4811707,49.6814194,38.7150307,49.1223488,38.9096375,48.5460854"/>
		<path class="st1" d="M32.1540985,46.6128769c0.3996925-0.7949409,1.0742645-1.1148643,1.8843918-0.8633881
			c0.31707,0.0983086,0.5668678,0.2612877,0.7119064,0.5287857c0.0278397,0.0556984,0.0917587,0.154007,0.0597992,0.2190971
			c0.5099144-0.0163574,1.0357628-0.4226761,1.4437637-0.6905098c0.4263687-0.2818413,0.9436607-0.8810043,1.4973602-0.5447235
			c0.8899803,0.5414543,0.0728951,1.1754265-0.4279594,1.5153961c-0.1876411,0.1285896-1.9758224,1.0468369-1.9901657,1.039875
			c-0.0119095,0.0217285-0.0233078,0.0454636-0.036068,0.0700417l0.036068,0.0180359
			c0.2379723,0.724144,1.3680191,3.3965988,0.1711998,3.7041931c-0.2567596,0.0655937-0.6201324-0.0982246-0.7556725-0.3263817
			c-0.2084541-0.342823-0.1236534-0.8609581-0.2047653-1.246727c-0.1220474-0.5783615-0.3375359-1.106308-0.5222435-1.6690674
			c0.0036888-0.0208855,0.0069618-0.0405159,0.0082207-0.0609818c-0.047142-0.0242424-0.0295258-0.0299454-0.0524254,0.0171967
			c-0.1769066,0.0483131-0.3375397,0.1007385-0.5115929,0.1035919c-0.5893478,0.0102348-1.2610703-0.5168762-1.3535805-1.0956573
			C32.0713081,47.0842896,32.1200409,46.8610802,32.1540985,46.6128769"/>
		<path class="st2" d="M46.4920845,37.863903c-0.0187988,0.1765709-0.038929,0.3514633-0.058979,0.5271912
			c-0.0421906,0.8739586-0.1519051,1.824585-0.3874435,2.6851234c-0.1970406,0.7052727-0.5549583,1.4040871-0.6737366,2.1159019
			c-0.0065422,0.4444008-0.0131683,0.8879662-0.0213051,1.3327866c-0.0032692,0.9059181-0.1376495,1.8520966-0.247364,2.7601128
			c-0.2060127,1.6730919-0.7741394,3.3380508-1.3356323,5.0107231c-0.4587555,1.360218-0.8322792,2.7883797-1.3634987,4.1559792
			c-0.6131706,1.5723534-1.3634758,3.1057854-2.2043114,4.6560745c-0.6541061,1.2045364-1.4134827,2.3058968-2.2170639,3.3274002
			c-0.3907204,0.4631882-0.7822762,0.9260483-1.1750908,1.3909149c-0.2207756,0.2395706-0.4418869,0.4816513-0.6639214,0.7228928
			c0.9354439,0.4714127,1.7468262,0.9862747,2.7039948,1.4494629c0.9465981,0.4587479,1.9660072,0.8277435,2.9292984,1.0956573
			c0.7065315,0.1982117,1.3876457,0.4890289,2.0909042,0.6565399c0.8400726,0.1998901,1.7169647,0.2768936,2.5660095,0.4206619
			c1.470356,0.249382,2.8949089,0.3337631,4.3624115,0.351799c2.3787842,0.0311203,4.7625198-0.081955,7.1425629-0.744194
			c1.4826851-0.4120255,2.8784676-1.0571518,4.1997643-1.7435532c0.5828896-0.3023071,1.2692909-0.447258,1.8411064-0.781105
			c0.6569595-0.4001083,1.3143387-0.8019028,1.9717102-1.2029419c0.6380844-0.486084,1.2413635-0.9993591,1.8541107-1.5162354
			c0.4300613-0.3637085,0.8785706-0.7159233,1.2782669-1.1316376c1.5825882-1.6489372,2.9817276-3.7635803,4.1166382-6.0178871
			c0.0127563-0.2138138,0.1961975-0.4763603,0.300293-0.6843872c0.0102463-0.2892227,0.3022232-0.6864853,0.4414673-0.9662285
			c0.0225754-0.2354546,0.2207718-0.5209846,0.3387146-0.7552643c0.0135117-0.1514893,0.1171799-0.3202591,0.1925049-0.4730072
			c0.0156097-0.1556816,0.1183548-0.3211823,0.1957779-0.4751015c0.0291061-0.0884972,0.0593872-0.1761513,0.0876541-0.26297
			c0.0245819-0.0774193,0.0475769-0.152832,0.0717239-0.2298317c0.0298615-0.087574,0.0609741-0.1752281,0.0884094-0.2624664
			c0.0413513-0.1114769,0.0843811-0.2228699,0.1245575-0.333847c-0.0041046-0.1261559,0.0417786-0.2580185,0.1064453-0.3861885
			c0.0291138-0.088913,0.0593948-0.1769905,0.0880814-0.264225c-0.0147552-0.1601295,0.0434494-0.3493652,0.1257324-0.5090752
			c0.0585556-0.3510437,0.1207886-0.7020035,0.1798477-1.0538826c0.0876541-0.5754242,0.1105499-1.1397781,0.181015-1.7054749
			c0.0446243-0.3735199,0.1560135-1.0661278-0.0217285-1.4146538c-0.0892487-0.176487-0.5627594-0.0815315-0.7155075-0.0716362
			c-1.4458618,0.101162-2.74543-0.4084167-4.2157822-1.1480789c-0.2633896-0.1331215-0.4628601-0.3206787-0.7032623-0.4415512
			c-0.5562134,1.106308-0.6282654,2.1613655-1.0718307,3.247963c-0.3870316,0.9432449-0.96698,1.7652779-1.4535751,2.5688591
			c-0.259697,0.4280472-0.6762543,1.182476-1.0341721,1.4368019c-0.1200333,0.0859795-0.2727814,0.1183548-0.4100113,0.0827065
			c-0.2850266-0.0737305-0.4533768-0.3370323-0.3903046-0.6069641c0.0859833-0.3759537,0.5537033-0.8490448,0.7670975-1.187336
			c0.2707672-0.4210854,0.5422897-0.842083,0.8138123-1.2627487c0.2723618-0.5381813,0.5472412-1.0751038,0.8204422-1.6125336
			c0.0294418-0.0872345,0.0597229-0.1756439,0.0879898-0.2633018c0.030365-0.0872345,0.0598145-0.1757317,0.0893478-0.2625465
			c-0.0139313-0.1634026,0.0426025-0.3473549,0.1240463-0.5094948c-0.0004196-0.2756348,0.1150894-0.6664352,0.2494659-0.9325905
			c0.0291138-0.0876579,0.0589676-0.175312,0.088913-0.2633896c0.0278473-0.0876541,0.058548-0.1757278,0.0892487-0.2625465
			c0.0073853-0.2432556,0.2420807-0.5791168,0.3752136-0.7806816c0.2092743-0.3206787,0.3677216-0.700325,0.6499863-0.9293213
			c0.2301712-0.1883965,0.5136032-0.3550682,0.8007278-0.4705734c0.2162476-0.0872345,0.5090714-0.1446114,0.6822891-0.3006287
			c0.0630798-0.114666,0.1257401-0.228157,0.1880646-0.3424034c0.0294418-0.0884933,0.0597229-0.1765709,0.0896759-0.2633858
			c0.0311127-0.1888161,0.0618134-0.3767967,0.0913391-0.5635986c0.0405121-0.3804855,0.0474777-1.7480011-0.1667557-2.0597038
			c-0.0822754-0.1175995-0.5839844,0.0057068-0.7269974,0.0081367c-1.1840668,0.0327988-2.2153854,0.0176163-3.409256-0.5610809
			c-0.2551804-0.1351318-0.5087509-0.2682495-0.7655106-0.4009514c-0.1769104-0.1187744-0.3092728-0.2727814-0.5164566-0.3767929
			c-0.4456635,0.8862877-0.5853271,1.8110771-0.9011383,2.7179184c-0.5802917,1.6608467-1.9217186,2.8092613-3.5251923,2.9534531
			c-0.23629,0.0213089-1.217617,0.1585388-1.3741379,0.0790176c-0.0061264,0.0127487-0.0118294,0.0249977-0.016777,0.0352287
			c0.6593895,2.0012398-0.3628616,4.4570274-1.6243591,6.3165054c-0.2961006,0.4345894-0.5312195,0.8855324-0.8596992,1.2729797
			c-0.4742622,0.5549583-0.9575882,1.0857582-1.4302559,1.628891c-0.5610847,0.6426125-1.1836395,1.132061-1.793129,1.6894493
			c-0.1883965,0.1720428-0.3841782,0.4354286-0.6180382,0.5353317c-0.1322784,0.0548553-0.2997894,0.036068-0.431736-0.0352325
			c-0.2387238-0.1310196-0.3296509-0.411602-0.2186775-0.6569557c0.1441917-0.329319,0.4386978-0.510334,0.6782646-0.7196159
			c0.3989372-0.3554878,0.8003082-0.7110634,1.1996765-1.0673904c0.63237-0.677002,1.2864761-1.3618088,1.8475571-2.1064224
			c0.6651764-0.8851166,1.2266884-1.8758354,1.7620087-2.9407921c0.0213051-0.2341957,0.2182579-0.5213203,0.3367004-0.7535858
			c0.0396729-0.1126556,0.0827065-0.2227898,0.1232185-0.3354416c0.0348206-0.2158279,0.0700531-0.4329109,0.1044426-0.6495781
			c0.0671806-0.4624367,0.0873108-1.0038872,0-1.4674988c-0.1236496-0.6557846-0.6327248-1.5273094-1.1595001-1.9131622
			c-1.0005341-0.7302704-2.4529343-0.8248863-3.3650513-0.1588707c-0.9227867,0.6737328-1.5162468,1.7390251-2.2362709,2.6839447
			c-0.5185623,0.682373-1.1066551,1.3348007-1.6100273,2.0102119c-0.5513496,0.7359734-1.2619057,1.3380737-1.9377365,1.8999939
			c-0.3317413,0.2756348-0.5537834,0.6733131-0.9662285,0.833107c-0.1555977,0.0609818-0.3476868,0.0298615-0.4959908-0.0765839
			c-0.2240448-0.1626434-0.2702637-0.4767799-0.0983086-0.7155876c0.1659203-0.1527481,0.333847-0.3067551,0.4985085-0.460762
			c0.3337631-0.2977791,0.6565361-0.5951347,0.9928284-0.8740425c0.1342812-0.1445274,0.2706718-0.2895546,0.4058876-0.4324913
			c0.611496-0.6114922,1.1193123-1.2914314,1.6939812-1.9663429c0.3059158-0.3915558,0.612751-0.7839508,0.9182472-1.1755104
			c-0.8584404,0.0110741-1.7193947,0.1048546-2.5815277,0.1818542c-0.4922981,0.0446281-0.9878654,0.1613884-1.4777336,0.2154083
			c-0.1716194,0.0184555-0.342823,0.0598068-0.5140114,0.0295258c-0.243351-0.043869-0.4161453-0.2690887-0.4124565-0.4948158
			c0.0081482-0.635231,0.8101234-0.5667839,1.2192993-0.6188736c0.5815468-0.075325,1.1468201-0.1982117,1.727951-0.2456894
			c0.4190712-0.0377464,0.8359604-0.0765839,1.2537727-0.1130714c0.1109734-0.0323792,0.1892357-0.1326981,0.2432556-0.2399826
			c0.0241547-0.0761642,0.0475578-0.1519928,0.0712967-0.228157c-0.0086403-0.1544266,0.0311203-0.3235321,0.1068764-0.4738464
			c0.0639076-0.4095917,0.1289978-0.8200226,0.1933365-1.2296143c0.1474609-1.4871292,0.3846054-2.9013634-0.2129745-4.3828735
			c-0.3780518-0.9378777-1.664959-1.7779465-2.7187576-1.6824913c-0.5087395,0.0454636-1.1132698,0.2948456-1.514225,0.5930405
			C47.0052605,36.843235,46.7513542,37.3519745,46.4920845,37.863903"/>
		<path class="st3" d="M66.8705902,38.3074646c0.7605515,0.4808922,1.608757,0.9392204,2.4594803,1.0473404
			c0.3100204,0.0184555,0.6200485,0.0368271,0.9273071,0.056118c0.1756439-0.0028534,0.4324875-0.1048508,0.6012573-0.0197105
			c0.0229034-0.0462189,0.0061264-0.0409355,0.0536041-0.0163574c0.0053635-0.0126686,0.0123291-0.0249977,0.0176086-0.0352325
			c-0.1904068-0.1977921-0.3534698-0.3972588-0.6024323-0.5545387
			C69.3931503,38.1981697,67.736412,37.7046127,66.8705902,38.3074646"/>
		<path class="st2" d="M62.7583961,68.9446487c0.4419823,0.3694153,0.8277397,0.7425156,1.4216194,1.0198288
			c1.3131638,0.6093979,3.0014343,0.1384048,3.8570251-0.9629593c0.2539062-0.328476,0.44767-0.7622299,0.6508408-1.1656113
			c-0.0069656-0.2007294,0.075737-0.4148788,0.1773148-0.6151886c0.0078049-0.2404022,0.0159378-0.4787903,0.0241623-0.7184372
			c-0.006546-0.1457901-0.2502213-1.1123505-0.3538971-1.164772c0.023407-0.0458832,0.0291214-0.0295334-0.0171967-0.0516739
			c-0.1973724,0.1765671-0.3944092,0.3538971-0.5914459,0.5304642c-1.0341721,0.9387131-2.2477493,1.7300491-3.4829941,2.3861694
			C63.9011116,68.4920273,63.2990112,68.6673355,62.7583961,68.9446487"/>
		<g>
			<defs>
				<path id="SVGID_1_" d="M48.927063,35.9471321c-0.5091591,0.0454636-1.1136894,0.2948456-1.5146446,0.5930405
					c-0.4071579,0.3030624-0.6606483,0.8109627-0.9203339,1.3237305c-0.0187988,0.1765709-0.038929,0.3514633-0.0598145,0.5279465
					c-0.0413551,0.8732033-0.1510696,1.8238297-0.3866081,2.6843681c-0.1970406,0.7052727-0.5549583,1.4036674-0.6737366,2.1159019
					c-0.0061226,0.4444008-0.0131683,0.8879662-0.0213051,1.3331223c-0.0028534,0.9055824-0.1376495,1.8513412-0.2469444,2.7606125
					c-0.2064323,1.6722565-0.774559,3.3372154-1.3360519,5.0098877c-0.4583359,1.360218-0.8326988,2.7883797-1.3634987,4.1559792
					c-0.6131706,1.5723534-1.3634758,3.1057854-2.204731,4.6560745c-0.6541061,1.2041168-1.412632,2.3058968-2.2166443,3.3274002
					c-0.3903008,0.4631882-0.7822762,0.9260483-1.1750908,1.3909149c-0.2211952,0.2395706-0.4418869,0.4816513-0.6639214,0.7228928
					c0.9354439,0.4714127,1.7468262,0.987114,2.7039948,1.4490433c0.9465981,0.4595871,1.9655991,0.8278275,2.929718,1.096077
					c0.7052727,0.1982117,1.3872261,0.4890289,2.0904846,0.6561203c0.8400726,0.2003098,1.7169647,0.2768936,2.5660095,0.4210815
					c1.470356,0.2498016,2.8952446,0.3337631,4.3624115,0.351799c2.3787842,0.0311203,4.7621002-0.081955,7.1425629-0.744194
					c1.4826851-0.4120255,2.8781319-1.0571518,4.2001839-1.7435532c0.5828896-0.3023071,1.2688713-0.447258,1.840271-0.781105
					c0.6573753-0.4001083,1.3151741-0.8019028,1.9724617-1.2029419c0.6381836-0.486084,1.2410278-0.9993591,1.853775-1.5158157
					c0.4300613-0.3641281,0.8785706-0.7163429,1.2782669-1.1316376c1.5825882-1.6493568,2.9817276-3.7639999,4.1166382-6.0183067
					c0.0127563-0.2138138,0.1961975-0.4759445,0.300293-0.6843872c0.0102463-0.2892227,0.3022232-0.6864853,0.4414673-0.9662285
					c0.0225754-0.2354546,0.2207718-0.5209846,0.3375397-0.7556839c0.0146866-0.1510696,0.1170959-0.3198395,0.1936798-0.4725876
					c0.0156097-0.1561012,0.1171799-0.3211823,0.1957779-0.4751015c0.0291061-0.0884972,0.0593872-0.1761513,0.0876541-0.26297
					c0.0245819-0.0774193,0.0475769-0.1524124,0.0717239-0.2298317c0.0298615-0.087574,0.0598068-0.1748085,0.0884094-0.2624664
					c0.0413513-0.1114769,0.0843811-0.2224541,0.1245575-0.333847c-0.0041046-0.1261559,0.0417786-0.2580185,0.1064453-0.3861885
					c0.0291138-0.088913,0.0593948-0.1765709,0.0880814-0.2633858c-0.0147552-0.1609688,0.0434494-0.3506241,0.1257324-0.5099144
					c0.0585556-0.3510437,0.1207886-0.7028389,0.1798477-1.0542183c0.0876541-0.5750885,0.1113892-1.1391068,0.181015-1.7051392
					c0.0454636-0.3739395,0.1560135-1.0657082-0.0217285-1.4146538c-0.0892487-0.176487-0.5627594-0.0818672-0.7155075-0.0716362
					c-1.4458618,0.101162-2.74543-0.4084167-4.2157822-1.1480789c-0.2633896-0.1335411-0.4628601-0.3206787-0.7032623-0.4411316
					c-0.5562134,1.1058884-0.6282654,2.1609459-1.0718307,3.2475433c-0.3870316,0.9432449-0.96698,1.7652779-1.4535751,2.5688591
					c-0.2592773,0.4280472-0.6762543,1.182476-1.0337524,1.4376411c-0.1208725,0.0855598-0.273201,0.1175156-0.4104309,0.0814476
					c-0.2850266-0.0736465-0.4533768-0.3366127-0.3903046-0.6065445c0.0859833-0.3763733,0.5541229-0.8490448,0.7670975-1.187336
					c0.2707672-0.4210854,0.5422897-0.8413315,0.8138123-1.2631683c0.2723618-0.5381813,0.5472412-1.0746841,0.8204422-1.6116943
					c0.028183-0.0876541,0.0597229-0.1760635,0.0879898-0.2637215c0.030365-0.0872345,0.0598145-0.1761513,0.0893478-0.2625465
					c-0.0139313-0.1626472,0.0437775-0.3473549,0.1240463-0.5094948c-0.0004196-0.2756348,0.1159286-0.6664352,0.2494659-0.9322548
					c0.0291138-0.0879936,0.0589676-0.176487,0.0876541-0.2637253c0.0291061-0.0876541,0.0598068-0.1761475,0.0905075-0.2625465
					c0.0073853-0.2432556,0.2420807-0.5791168,0.3752136-0.7806816c0.2092743-0.3206787,0.3677216-0.700325,0.6499863-0.9293213
					c0.2301712-0.1883965,0.5147781-0.3550682,0.8007278-0.4705734c0.2162476-0.0872345,0.5090714-0.1446114,0.6822891-0.3006287
					c0.0630798-0.114666,0.1257401-0.2277374,0.1880646-0.3424034c0.0294418-0.0884933,0.0597229-0.1765709,0.0896759-0.2633858
					c0.0311127-0.1888161,0.0618134-0.3759575,0.0913391-0.5635986c0.0405121-0.3804855,0.0474777-1.7480011-0.1667557-2.0597038
					c-0.0822754-0.1175995-0.5839844,0.0057068-0.7269974,0.0081367c-1.1840668,0.0327988-2.2153854,0.0176163-3.409256-0.5610809
					c-0.2551804-0.1351318-0.5087509-0.2686691-0.7655106-0.4009514c-0.1769104-0.1187744-0.3092728-0.2727814-0.5164566-0.3767929
					c-0.4456635,0.8858681-0.5853271,1.8110771-0.9011383,2.7187538c-0.5799408,1.6600113-1.9217186,2.8096848-3.5256081,2.9517822
					c-0.2354546,0.0221443-1.2172012,0.1605453-1.3737221,0.0798531c-0.0061264,0.0130844-0.0118294,0.0249977-0.016777,0.0348091
					c0.6593895,2.0016594-0.3632889,4.4570274-1.6243591,6.316925c-0.2961006,0.4345894-0.5312195,0.8855324-0.8596992,1.2729797
					c-0.4742622,0.5562172-0.9575882,1.0857582-1.4298401,1.628891c-0.5615005,0.6430321-1.1840553,1.132061-1.7931252,1.6907082
					c-0.1883965,0.170784-0.3845978,0.4341698-0.619297,0.5340729c-0.1314392,0.0548553-0.2985306,0.0364876-0.4312325-0.0352325
					c-0.2388077-0.1306-0.3293152-0.4111862-0.2183418-0.6569557c0.1441917-0.329319,0.4386978-0.510334,0.6786842-0.7196159
					c0.3993568-0.3563271,0.7990494-0.7110634,1.1992569-1.0673904c0.63237-0.677002,1.2864761-1.3618088,1.8475571-2.1064224
					c0.665596-0.8851166,1.2270966-1.8766747,1.7620087-2.9403725c0.0208855-0.2346153,0.2186775-0.52174,0.3358612-0.7552643
					c0.0405121-0.1113968,0.0835457-0.2215309,0.1240578-0.3341827c0.0348206-0.2158279,0.0700531-0.4329109,0.1048508-0.6495781
					c0.0667725-0.4624367,0.0869026-1.0026321,0-1.4674988c-0.1240578-0.6557846-0.6335526-1.5273094-1.1599083-1.9131622
					c-1.0005341-0.7302704-2.4525185-0.8244705-3.3650513-0.1588707c-0.9223671,0.6728935-1.5170822,1.7386055-2.2362709,2.6843643
					c-0.5185623,0.6819534-1.1066551,1.3343811-1.6096802,2.0093727c-0.5516968,0.736393-1.2626724,1.3384933-1.9380836,1.9008331
					c-0.3313332,0.2752151-0.5537834,0.6728935-0.9662285,0.8326874c-0.1564369,0.0609818-0.3476868,0.0298615-0.4955711-0.0765839
					c-0.2244644-0.1622238-0.2706833-0.4767799-0.0987282-0.7155876c0.1659203-0.1527481,0.333847-0.3067551,0.4980888-0.460762
					c0.3334274-0.2977791,0.6569557-0.5951347,0.9936562-0.8740425c0.133873-0.1449432,0.2702637-0.2895546,0.4050598-0.4324913
					c0.6123352-0.6106529,1.1201515-1.2910156,1.6944008-1.9663429c0.3059158-0.3915558,0.6123352-0.7839508,0.9182472-1.1755104
					c-0.8584404,0.0110741-1.7193947,0.1048546-2.5815277,0.1818542c-0.4931374,0.0454636-0.9882851,0.1613884-1.477314,0.2154083
					c-0.1716194,0.0184555-0.3432426,0.0598068-0.5140228,0.0295258c-0.2437592-0.043869-0.4165535-0.2690887-0.4120255-0.493557
					c0.007309-0.6364899,0.8092842-0.5680428,1.2188759-0.6201324c0.5815506-0.075325,1.1464043-0.1982117,1.7279549-0.246109
					c0.4186516-0.0373268,0.8355408-0.0758286,1.2533531-0.1126518c0.111393-0.0323792,0.1892357-0.1326981,0.2432556-0.2399826
					c0.023735-0.0761642,0.0475578-0.1519928,0.0712967-0.228157c-0.0082207-0.1556015,0.0311203-0.3243675,0.1068764-0.4738464
					c0.0643272-0.4095917,0.1289978-0.8200226,0.1933365-1.2291946c0.1474609-1.4883881,0.3846054-2.9014511-0.2129745-4.3836288
					c-0.3591805-0.8896446-1.5346794-1.6903763-2.5525055-1.6903763
					C49.0371971,35.9389114,48.9823418,35.9417648,48.927063,35.9471321"/>
			</defs>
			<clipPath id="SVGID_00000178891324656569227720000002588285320549120653_">
				<use xlink:href="#SVGID_1_"  style="overflow:visible;"/>
			</clipPath>
			<path style="clip-path:url(#SVGID_00000178891324656569227720000002588285320549120653_);fill:#FFFFFF;" d="
				M48.3778076,49.7793083c-0.5087395-0.1863861-0.1822739-1.8975601-0.1134911-2.3407059
				c0.092186-0.5996666,0.3219376-1.5396385,0.7618217-1.9917564c0.2387962-0.2433395,0.6434402-0.2895584,0.9801407-0.3408089
				c0.6790276-0.104435,1.3430214-0.1601295,2.0269966-0.1621437c0.5860672-0.0016785,0.4480858,0.1769066,0.1261482,0.5844002
				c-0.4067383,0.5169601-0.7290955,1.0808945-1.1611671,1.580574c-0.3526382,0.4091721-2.1437531,3.0358276-2.7663193,2.5238152"/>
			<path style="clip-path:url(#SVGID_00000178891324656569227720000002588285320549120653_);fill:#FFFFFF;" d="
				M54.9269142,55.2049942c0.5815582,0.1801758,1.4302597-0.0069618,2.0339508-0.048317
				c0.9834251-0.0671883,2.0737114-0.5590668,2.9550514-0.9903831c1.9496498-0.9523048,3.3778114-2.9587402,3.7226448-5.0942726
				c0.2113838-1.3119011,0.1150856-3.1685257-0.9776344-4.106823c-0.5877533-0.503788-1.1087418-0.5984077-1.876255-0.5390205
				c-0.3952446,0.0319595-0.7421799,0.0708809-0.7737198,0.4620171c-0.0413513,0.5049667,0.1302795,1.0931396,0.1941872,1.6002045
				c0.2256393,1.7927055-0.8888054,3.291748-1.8390121,4.6519661c-0.6758308,0.9653854-1.4663277,1.7677116-2.2391243,2.649971
				c-0.2752991,0.312458-0.5361671,0.6278534-0.7823601,0.9546547c-0.120369,0.1589546-0.3788071,0.3702507-0.3931389,0.5418701
				c0.0228882-0.0237389,0.0270004-0.0609818,0.0487251-0.0818672"/>
		</g>
	</g>
	<g>
		<g>
			<path class="st1" d="M50.9134636,0.623332c0.5918541,0,1.1181374,0.0983087,1.6305542,0.2088642
				c0.2092857,0.0401791,0.4194069,0.0795194,0.6291084,0.117182c1.1947212,0.3669802,2.0179329,1.0198274,2.8215141,2.0241365
				c0.3456726,0.4320722,0.6508331,1.0091746,0.8118019,1.5289023c0.0754089,0.2486238,0.1359711,0.8175058,0.2912331,1.0043097
				c0.0577126,0.0687823,0.2727814,0.0380816,0.365303,0.0380816c0.1946068-0.1142459,0.4534607-0.1105552,0.7036896-0.1105552
				c0.085968-0.0131693,0.1732063-0.0242414,0.2592659-0.0373273c0.0855598-0.0130854,0.173214-0.0241575,0.2592773-0.0372429
				c0.1457977-0.0589685,0.343998-0.0369081,0.5172958-0.0369081c0.1425133-0.0581293,0.3522186-0.0368237,0.5188904-0.0368237
				c0.3169861-0.1281705,0.8470306-0.0221443,1.1840668-0.0053682c1.4265671,0.0660143,2.8318253,0.262548,4.1453323,0.5484991
				c0.341217,0.0744863,0.6843796,0.1477985,1.0251846,0.2227883c0.5713196,0.2138133,1.1423035,0.4275422,1.711174,0.6397619
				V6.6547246c0.2842789-0.498003,0.5656128-0.9772158,0.9477768-1.4236317
				c0.6094818-0.7160096,1.4876328-1.1239238,2.2969208-1.4847808c0.4668884-0.209703,0.9108658-0.3849306,1.4924927-0.3849306
				c0.0864029-0.0131693,0.1736374-0.0241578,0.259697-0.0364883c0.0868149-0.0122466,0.1723785-0.0245771,0.2588577-0.0372434
				c0.0872345-0.0127499,0.174057-0.0249965,0.2580185-0.0369077c0.1355515-0.012666,0.2723618-0.0245771,0.407074-0.0364044
				c0.5656128,0,0.9989471,0.086817,1.4818497,0.2125549c2.7106171,0.7007432,4.3501587,3.0734062,4.2116699,6.0400319
				c-0.088829,1.8873272-0.9080124,3.6779385-2.4291992,4.7781239c-0.2780609,0.1625614-0.5557938,0.3259621-0.8342819,0.4897823
				c-0.1646576,0.0811129-0.3297348,0.1622257-0.4955597,0.2433395c-0.0041199,0.0081358-0.0110779,0.0159369-0.016777,0.0233183
				c-0.0451355,0.1347971,0.3169785,1.189435,0.3611832,1.4253092c0.0487366,0.3330078,0.0991516,0.6664352,0.1478806,0.9977665
				c0.0045319,0.7020016,0.0106583,1.4061012,0.0126801,2.1081028c-0.0335541,0.2706833-0.0675354,0.5422916-0.1020126,0.8142338
				c-0.2158203,2.7409019-0.9931488,5.225378-2.9104233,7.0827599c-0.6581345,0.6377487-1.4572678,1.0235176-2.2236023,1.4478722
				c-0.6540222,0.3612766-1.358963,0.6094818-2.0916672,0.8191833c-0.233017,0.0531807-0.4656982,0.1072845-0.6995697,0.1617241
				v0.0364876c0.111412,0.3051605,0.0368271,0.6876583,0.0368271,1.035429c0,0.8305912-0.1014938,1.5960903-0.1736374,2.3681355
				c-0.0859756,0.8756332-0.1392365,1.777523-0.3641129,2.5954514c-0.0241699,0.0897522-0.215416,0.6614838-0.126503,0.6614838
				c0.1543427,0.0930252,0.3075943,0.1863861,0.4648666,0.2784882c0.2362976,0.1646576,0.4545517,0.4247742,0.6204681,0.661068
				c0.960022,1.3655853,0.3845978,3.4846764-1.0108414,4.2780228c-0.556221,0.3145561-1.3987274,0.4681396-2.0687714,0.2801628
				c-0.2068481-0.058548-0.6860657-0.2912369-0.8748779-0.2551651c-0.1355515,0.0237389-0.7031784,0.5771027-0.9010544,0.6864815
				c-0.8375397,0.4623528-1.758316,0.7433548-2.7154846,0.9637108c-0.2932472,0.0233192-0.5856476,0.048317-0.8789062,0.0716362
				c-0.5328979,0.0418549-1.145649,0.0619049-1.7038803,0.0451279c-2.5741425-0.0835457-4.9599648-0.5979881-6.9435158-1.8836365
				c-0.6414375-0.4169731-0.9776344-1.0907059-1.5621071-1.5412331c-0.4006271-0.3080101-0.7712135-0.3641281-1.2537003-0.5021973
				c-1.0268707-0.2977753-1.8705482-1.07024-2.1663132-2.115818c-0.3907089-1.3836212,0.5292053-3.320015,1.7870026-3.7771683
				c0.3371201-0.1216278,0.8163338-0.2190971,1.2123375-0.1228867c0.2146492,0.0680275,0.431736,0.1356354,0.6463127,0.2027397
				c0.0549316,0.0143433,0.2138023,0.0602264,0.2138023-0.0077171c0.1150856-0.2162437,0.4812279-1.0371056,0.4812279-1.2582169
				c-0.2706833-0.1851273-0.5119286-0.3727684-0.7896576-0.5333176c-0.2019005-0.0900879-0.4022102-0.1793365-0.6041031-0.2690887
				c-0.3145523-0.149477-0.6180458-0.3579216-0.8949394-0.5745869c-0.2112961-0.1679306-0.3796425-0.4259491-0.5062218-0.6463051
				c-0.574585-0.9928169-0.5443039-2.0081997,0.1159248-2.9457397c0.2604523-0.3739414,1.0239372-1.0628567,1.4941025-1.0628567
				V26.489687c-0.4791412-0.2138119-0.9976959-0.7946053-1.3491554-1.2057915
				c-0.3632889-0.4267864-0.8424187-0.9616966-1.1037941-1.4368c-1.0300598-1.8631687-1.410965-4.0490284-1.1459846-6.4246273
				c0.0647583-0.5839806,0.1098022-1.1504307,0.2531548-1.6944008c0.2190971-0.8383923,0.5074806-1.6435671,0.8014832-2.4468136
				c0.092186-0.2580185,0.4628563-0.7515755,0.4546356-0.9997797c-0.0011711-0.0085564-0.0028496-0.0176153-0.0041084-0.0265903
				c-0.025753-0.119195-0.7425156-0.6114941-0.88134-0.7376509c-0.1515732-0.1687689-0.3018875-0.3387127-0.4517822-0.5074816
				c-0.4677124-0.5836449-0.8477898-1.2676125-1.1058922-1.9573669c-0.2043343-0.5447245-0.282177-1.1344934-0.3219337-1.7677121
				c-0.1327019-2.1159029,0.5894318-3.8029213,2.079834-5.1066027c0.4866028-0.4259485,1.1173897-0.6823733,1.6912117-0.9460957
				c0.6135063-0.2851122,1.3306885-0.5340715,2.0838585-0.5340715C50.7406693,0.6729057,50.8279037,0.6479092,50.9134636,0.623332"
				/>
			<path class="st6" d="M50.9134636,1.6218536c-0.2084541,0.0327975-0.4157257,0.0647563-0.6237526,0.096715
				c-0.309269,0.0835457-0.6168518,0.1670913-0.9268875,0.2506369c-0.1761475,0.0761641-0.3514595,0.1531671-0.5283661,0.2301699
				c-0.8666611,0.3767943-1.5481949,0.897361-2.1592674,1.6636994c-0.1724625,0.2125549-0.536171,0.7081251-0.536171,0.9788933
				h0.037674c0.0868912-0.0126657,0.1732864-0.0245771,0.2585106-0.0368237
				c0.087574-0.0131693,0.1736336-0.0245771,0.2591934-0.0373273c0.3075943-0.1379843,0.7946053,0,1.0751991,0.0614853
				c1.7271881,0.3735228,2.7277222,1.468256,3.5797043,2.9395318c0.0294418,0.0499096,0.0490685,0.1072841,0.1191101,0.1072841
				c0.2797432-0.3178258,0.7717056-0.5021129,1.1321449-0.6905937c0.371006-0.1965337,0.7285919-0.4357629,1.1009407-0.6159396
				c0.4640388-0.2277374,0.9571686-0.3710904,1.4608727-0.5250959c0.3105278-0.0794358,0.6218109-0.1597099,0.931839-0.2404037
				c-0.0937805-0.413702-0.1622276-0.8294172-0.3178291-1.2111602c-0.2154884-0.523838-0.5344887-1.0218406-0.9604378-1.4342844
				c-0.2175026-0.2109611-0.3801498-0.4517839-0.6238251-0.6286893C53.3045692,1.88977,52.1209221,1.6218536,50.9134636,1.6218536"
				/>
			<path class="st6" d="M73.3009186,4.2132788c-0.3936539,0.063498-0.7880478,0.1265769-1.1824722,0.1904101
				c-1.1427155,0.2899776-2.3349991,0.9727702-3.0144348,1.9807701c-0.1073685,0.1601295-0.3965073,0.4607596-0.2945023,0.6831284
				c0.0561066,0.1171823,1.1464005,0.6754112,1.3470383,0.8076921c0.0913467,0.0786805,0.1831131,0.1576967,0.2744598,0.2371321
				c0.398941,0.2875443,0.8044205,0.5644369,1.1824722,0.8973608c0.1379852,0.145031,0.2756348,0.2883835,0.4140396,0.4333305
				c0.0548553,0.0508318,0.2371292,0.1433525,0.2371292,0.2093668h0.0741577V9.6159821
				c0.5443039-0.6237411,1.5392151-1.2954617,2.4058762-1.2954617c0.1928406-0.1139107,0.454216-0.1110582,0.703598-0.1110582
				c0.4689789-0.2100387,1.9107285,0.1761503,2.3157883,0.3588438c0.0671921,0.0311193,0.6004257,0.3435774,0.6073837,0.3435774
				v0.0377464h0.0360718c-0.0786819-2.5283465-1.6719208-4.3595567-4.1100922-4.7195749
				C73.9648514,4.2243509,73.6330872,4.2185631,73.3009186,4.2132788"/>
			<path class="st7" d="M46.694397,5.7299342c-0.3387108,0.1228862-0.6954575,0.0585494-0.8764725,0.4324913
				c-0.1183586,0.244514-0.0565376,0.7356381-0.0249977,1.0124459c0.039341,0.347352,0.0295258,0.6967173,0.1106377,1.026454
				c0.2305908,0.9481926,0.8715248,2.1314211,1.6637001,2.7650595c0.1322823,0.1064453,0.354229,0.3513784,0.5345001,0.3513784
				c0,0.0491543-0.0135155,0.0372429,0.0355568,0.0372429c0.1421776-0.3481064,0.4334145-0.6585512,0.6791115-0.9460955
				c0.3391228-0.3989391,0.6549339-0.8527365,1.0432205-1.2147675c0.1977921-0.1876421,0.5332336-0.3985195,0.633564-0.6562023
				c0.0868912-0.2330217-0.2633133-0.7794242-0.4124527-0.9391341c-0.2719421-0.2887187-0.4881897-0.6274309-0.7732162-0.930913
				C48.7013397,6.0211697,47.6446152,5.7299342,46.694397,5.7299342"/>
			<path class="st6" d="M59.7213974,6.2476492c-0.3210983,0.0278482-0.641777,0.0565357-0.961689,0.0843844
				c-0.5156288,0.0777578-1.0320854,0.1564384-1.5486259,0.2350349c-0.7974586,0.1883969-1.6460838,0.3358603-2.4074707,0.6184559
				c-0.552948,0.2048378-1.0616035,0.4891114-1.5715141,0.7782497c-0.5894356,0.3321691-1.1738358,0.6511693-1.7169647,1.0714145
				c-0.7720413,0.594717-1.6980896,1.5916452-2.2403831,2.3755989c-1.2360725,1.7783642-1.9291,3.7901707-2.224781,6.0469093
				c-0.2723618,2.0765629,0.066349,4.1838264,0.968998,5.8168259c0.1741371,0.23386,0.3486099,0.4668827,0.523838,0.6991482
				c0.2896385,0.4320736,0.6603203,0.9108658,1.0788879,1.2512569c1.4715996,1.1935444,3.0005035,1.9447002,4.761673,2.5774994
				c1.0710793,0.3845959,2.1622047,0.7228889,3.2803421,0.9374561c1.4305916,0.2752991,2.9022026,0.2605362,4.3513336,0.335022
				c1.3888206,0.0647564,2.7896385,0.0680275,4.17519-0.0020123c0.2257233-0.0122471,0.4657059-0.0126667,0.6938629-0.0015945
				c0.6200485,0.0302811,1.2692871-0.2130585,1.8614883-0.3772964c0.2101212-0.0720558,0.4198303-0.1433544,0.6299515-0.2149887
				c1.2799377-0.4583263,2.595871-1.1922874,3.5534592-2.2490215c0.6946182-0.766674,1.1017761-1.71772,1.4633865-2.6556778
				c0.1036758-0.298954,0.207695-0.59799,0.3105316-0.8973618c0.1764832-0.7696095,0.255928-1.5494537,0.3464279-2.3669586
				c0.1254044-1.1246796,0.1794205-2.5139198-0.0241547-3.6247578c-0.1412582-0.7625637-0.4161301-1.4973631-0.7310257-2.1805754
				c-0.098732-0.2477846-0.1957779-0.4955702-0.2953491-0.7437744c-0.1613846-0.3063335-0.3231125-0.612752-0.4870148-0.92068
				c-0.3468475-0.6377487-0.8059998-1.1976547-1.3191986-1.7452316c-0.194519-0.2257242-0.3882828-0.4517841-0.5824661-0.677844
				c-0.5315552-0.5320578-1.0734329-0.9912233-1.6616058-1.4146557c-0.3354263-0.2425003-0.6312027-0.5042095-0.9911423-0.6938648
				C66.2508774,6.8841395,63.1520538,6.2476492,59.7213974,6.2476492"/>
			<path class="st7" d="M75.4482803,9.1704044c-0.7929306,0.2162457-1.8938751,0.2965202-2.315712,1.11973
				c-0.0352249,0.0676088-0.1274109,0.1659174-0.1274109,0.2506371c0.1503143,0.0802746,0.2331009,0.2294149,0.3506241,0.3502045
				c0.6532669,0.674572,1.0706558,1.5477753,1.5027313,2.3480854c0.0802689,0.1810999,0.1601257,0.3645477,0.2399826,0.5448084
				c0.036499,0.0687828,0.0962906,0.2354546,0.2019806,0.2354546v-0.0376625
				c1.3278427-0.3112831,2.5057831-1.8553677,2.8559189-3.1066236c0.0458679-0.1638203,0.1794052-0.4751034,0.0839539-0.6569576
				C77.7681808,9.3284369,76.4427719,9.1704044,75.4482803,9.1704044"/>
			<path class="st1" d="M53.4024582,18.2727718c0.749897,0,3.0189667,0.2064304,2.300621,1.5416508
				c-0.3956795,0.73522-3.0972404,0.3784733-3.5399666-0.1592903c-0.1126518-0.137228-0.1396599-0.2953453-0.1269951-0.4919624
				C52.0799026,18.4628468,52.7987671,18.2736092,53.4024582,18.2727718"/>
			<path class="st1" d="M65.678299,20.0917339c0.2031631-0.0127487,0.410347,0.0028534,0.6106567,0.0180359
				c0.6880798,0.0527611,1.9134979,0.3018036,2.0638123,0.9735241c0.036911,0.1654968,0.0598068,0.3624516-0.0318756,0.507061
				c-0.5374222,0.8264828-2.8772888,0.3784733-3.4498596-0.1773243c-0.3878708-0.3739414-0.2305908-0.8744602,0.1899872-1.1398602
				C65.2519302,20.1531353,65.4612198,20.1060791,65.678299,20.0917339"/>
			<path class="st4" d="M59.8946953,26.0202885c0.1154213,0.0098972,0.2313423,0.0205517,0.3468475,0.0312042
				c0.3600197,0.0376625,0.7163467,0.0413532,1.0784607-0.0069618c1.0628586-0.1430187,2.1932526-0.792593,2.4111633-1.9655876
				c0.3432503-1.8516769-0.5824699-3.2086239-2.1330986-3.9917374c-1.1685486-0.5910282-2.4910164-0.6864853-3.741436-0.2314301
				c-0.052845,0.0200481-0.1093712,0.0397606-0.161377,0.0626602c-0.9003067,0.3563271-1.5711861,1.0723362-1.9934464,1.9508247
				c-0.2399826,0.5025311-0.3174057,1.0452423-0.2346992,1.5887928c0.0504112,0.3317509,0.0930252,0.6065445,0.289978,0.8810043
				c0.1974564,0.2784863,0.4182434,0.516037,0.6971359,0.7150879c0.4185677,0.3018875,0.8953476,0.4444027,1.3835373,0.57794
				c0.5120087,0.1399975,0.9952507,0.2862873,1.530159,0.3427391C59.5419731,25.9941177,59.718544,26.0072041,59.8946953,26.0202885
				"/>
			<path class="st1" d="M59.6198158,20.500906c0.2314262,0,0.4026299,0.0114079,0.5885925,0.1031742
				c0.1617241,0.0786819,0.3792267,0.2682533,0.4501076,0.4321556c0.1031761,0.2395649,0.0315399,0.9460964-0.3047409,1.1427135
				c0,0,0.2244759,0.1936817,0.3075943,0.2768078c0.2268982,0.1920891,0.4533768,0.3841763,0.6778412,0.5762653
				c0.2518959,0.1937637,0.4152985,0.3710899,0.6843872,0.5341549c0.1822739,0.110136,0.3166542,0.1404171,0.4558945,0.3161469
				c0.1122322,0.1400833,0.1572762,0.3628712,0.0577126,0.5296268c-0.2117081,0.3526363-0.5734138,0.1625614-0.8879662,0.2346153
				c-0.3505402,0.0762482-0.6130905,0.2220345-0.9747849,0.2830982c-0.8486137,0.1404171-1.6059036,0.052763-2.330471-0.2175026
				c-0.2727814-0.1389084-0.5447121-0.2768917-0.8179245-0.4152966c-0.0925102-0.0671883-0.1834488-0.1352158-0.2768936-0.202404
				c-0.2600288-0.078598-0.5332298,0.1458683-0.7519112-0.1129894c-0.08564-0.1003208-0.1326981-0.2429199-0.1085396-0.3895435
				c0.0159378-0.1035938,0.0707932-0.2047539,0.1568565-0.2699299c0.2571907-0.1973724,0.7826958-0.2928295,1.0935593-0.4349232
				c0.2645607-0.1248989,0.4894447-0.2851124,0.7388268-0.4423904c0.1696053-0.1092968,0.4054794-0.2694263,0.5276108-0.4480095
				c0.1007538-0.1511536-0.0364876-0.2903957-0.0606461-0.6012592c-0.0119095-0.1462059,0.0180359-0.3973465,0.1904106-0.6192951
				C59.2622299,20.4844666,59.4621201,20.5811806,59.6198158,20.500906"/>
			<path class="st8" d="M59.5669708,22.6823215c-0.418148,0.5136032-1.3237305,0.9014702-1.3237305,0.9059162h-0.0339699
				c0.5639343,0.4517841,1.1729927,0.5816326,1.8323822,0.5488338c0.3240356-0.0155182,0.830677-0.2649803,0.830677-0.2649803
				h-0.0343933c-0.2916527-0.23839-0.4399567-0.4033852-0.7310944-0.6524277
				C59.9114723,23.0529079,59.7124214,22.8952961,59.5669708,22.6823215"/>
			<path class="st6" d="M49.9878235,27.4522247c-0.6926079,0.3190002-1.1324806,0.6208878-1.3311119,1.4060154
				c-0.0815315,0.3182449-0.0028496,0.6557827,0.114666,0.9207649c0.4779549,1.0800533,1.7341614,1.2005062,2.5655899,1.907793
				c0.1523285,0.1306858,0.3387146,0.2609539,0.4309006,0.4444008c0.275631,0.549675-0.2236176,1.4457779-0.4239388,1.9384956
				c-0.2076874,0.5026169-0.5152817,0.8642273-1.1337357,0.7765732c-0.1727943-0.0343933-0.3448372-0.069622-0.5184708-0.1040154
				c-0.0258331,0.845356-0.333847,1.5903893-0.6954575,2.2772064c-0.1826935,0.2429199-0.3645477,0.4865952-0.5479965,0.7295151
				c-0.0667686,0.0962143-0.2503014,0.4349251-0.3834114,0.4349251v0.0741501
				c0.2002983,0.1020012,0.4013634,0.2051735,0.6016693,0.309269c0.3325882,0.1441078,0.7319489,0.2482071,1.0985069,0.3190002
				c0.0552788,0.0102348,0.1863136,0.0147629,0.1863136,0.0741539c0.0336227-0.2801666,0.0680161-0.5619202,0.1008148-0.8425026
				c0.2141457-0.8768959,1.1549568-2.2284737,2.1932411-2.2284737c0.1838646-0.1150856,0.4230957-0.1106377,0.665596-0.1106377
				c0.3739433-0.167511,2.1220245,0.3145523,2.378788,0.546402c0.1265755,0.1142464,0.1785812,0.2993698,0.1396599,0.4771156
				c-0.0467224,0.2060966-0.2334404,0.3486099-0.4468346,0.3600159c-0.1757317,0.0082207-0.3321686-0.075325-0.4820671-0.1183548
				c-0.4063072-0.1207886-0.7933464-0.2658195-1.2557831-0.2658195c0,1.3508224-0.1888161,2.7470245-0.9538956,3.7058716
				c-0.0609818,0.0745697-0.1973724,0.289978-0.3047409,0.289978v0.0737305
				c0.2949257,0.1736336,0.5910263,0.3481064,0.8859634,0.5197258c0.372673,0.1433563,0.7450218,0.2862892,1.1164589,0.430481
				c1.7456398,0.6454659,3.6862297,0.7888184,5.7693481,0.7888184c0.0868034-0.012249,0.1727943-0.0245781,0.2588463-0.0364037
				c0.1396599-0.0511703,0.3182564-0.0364914,0.4803848-0.0364914c0.1118164-0.013504,0.2227898-0.0253296,0.333847-0.0376625
				c0.1023369-0.0561142,0.2367134-0.0741501,0.3702545-0.0741501c0.2064285-0.0671043,0.4140358-0.1331177,0.6196289-0.2006416
				c0.493557-0.1593742,0.9731903-0.306839,1.4003944-0.5942993c1.8934479-1.2807808,3.0402756-3.9725304,3.4793091-6.128109
				c0.0831299-0.565609,0.1638184-1.132061,0.2453537-1.6964111c0.0626678-0.4219246,0.3710861-3.5298042,0.1560211-3.7095623
				c-0.0552826-0.0093937-0.1101303-0.0184536-0.1658401-0.0295258c-1.2938614,0-2.6164169,0.0930233-3.9593544,0.0712986
				c-0.892498-0.0139236-1.7968216-0.1098003-2.6643181-0.1098003v0.0380821h0.0372429
				c0.1126518,0.1032581,0.2523155,0.193346,0.3088493,0.3403893c0.1396637,0.3641281-0.1633987,0.7687721-0.568882,0.6589718
				c-1.2705498-0.3431587-1.915596-1.5809097-3.4842567-1.0157185c-0.3575859,0.1261578-0.6762505,0.3227749-0.8306732,0.6872387
				c-0.7711945,1.8222351,0.9584351,2.5623207,2.1437492,3.2299309c0.2949257,0.164238,0.5906067,0.3301544,0.8867073,0.4939728
				c0.3047409,0.2756348,0.1167641,0.7962036-0.2723618,0.8347015c-0.3194199,0.0319595-0.5619202-0.1883965-0.8064346-0.3161469
				c-0.5361671-0.2834358-1.0710754-0.5668678-1.6084213-0.8511429c-0.2420692-0.0937767-0.5434647,0.0671883-0.8023224,0.0761642
				c-0.8187523,0.0254173-1.6236038-0.3431587-2.0757217-0.9526367c-0.9424896-1.2688713-0.0889168-3.3339424,1.5588455-3.3339424
				c0.0942001-0.0327969,0.1961136,0,0.295681,0v-0.0364876c0.1077042-0.0983086,0.4759445-0.5193081,0.591877-0.5193081v-0.0372448
				h-0.036499c-0.2641411-0.1507339-0.5610809-0.1957779-0.8547478-0.2863693
				c-0.3899651-0.1207886-0.7826958-0.2617092-1.1713905-0.4009533c-0.2510681-0.1122322-0.5017891-0.2236271-0.753685-0.3374538
				c-0.2658195-0.0991478-0.5303802-0.1974564-0.797039-0.2969379c-0.3141327-0.140501-0.6045303-0.3223553-0.934185-0.4263687
				C50.7893906,27.4427452,50.3978348,27.4522247,49.9878235,27.4522247"/>
			<path class="st8" d="M54.5767097,30.8934498c-0.2625465,0.2117996-0.5066414,0.299036-0.6373291,0.6406002
				c-0.2489586,0.6458855,0.0520935,1.2421951,0.6397629,1.4982033c0.1228867,0.052845,0.2740402,0.1425133,0.4300575,0.0974693
				c0.0848045-0.0270119-0.0364037-0.2019043-0.0531807-0.2416611c-0.1400795-0.338295-0.277729-0.6454659-0.3281403-1.0345917
				C54.5914764,31.5840435,54.7126846,31.1089401,54.5767097,30.8934498"/>
			<path class="st7" d="M48.5817223,34.6681023v0.0372429c-0.6114922,0.2392311-1.0668831,1.165699-1.1340714,1.7771912
				c-0.033638,0.2916565,0.0241661,0.6069641,0.0241661,0.8867073h0.0372353V37.33284
				c0.2085381-0.2711868,0.4185677-0.5427094,0.6258354-0.8142357
				C48.3044968,36.2404556,48.8868942,34.9360199,48.5817223,34.6681023"/>
			<path class="st7" d="M52.2089958,36.8896942c-0.1732979,0.1101379-0.3444977,0.2219505-0.5165405,0.3329277
				c-0.618454,0.5050468-0.7868042,1.3852119-0.6663513,2.2186546c0.0184555,0.1409225,0.0962219,0.4726715,0.2477875,0.5209885
				c0.1515732,0.049572,0.275631-0.1601295,0.3399811-0.2621307C51.9747162,39.1177483,52.4072075,37.6555328,52.2089958,36.8896942
				"/>
			<path class="st6" d="M67.1576309,37.5175476c-0.081871,0.2301674-0.1629791,0.459919-0.2465286,0.6900902
				c-0.3080139,0.6164436-0.6143417,1.2336388-0.9236145,1.8480682c-0.1150818,0.2047539-0.6053619,0.7388268-0.6053619,0.9403915
				h0.0749817c0.2531509,0.126915,0.5677109,0.1482201,0.8871384,0.1482201
				c0.0745621-0.012249,0.1470337-0.0249977,0.2224426-0.0368233c0.3992767-0.2346992,0.6613998-0.2326889,1.0148773-0.6463051
				C68.2807159,39.6415863,68.2078247,38.0204964,67.1576309,37.5175476"/>
			<g>
				<defs>
					<path id="SVGID_00000134245143461614048240000011388122176984023709_" d="M49.9878235,27.4522247
						c-0.6926079,0.3190002-1.1324806,0.6208878-1.3311119,1.4060154c-0.0815315,0.3182449-0.0028496,0.6557827,0.114666,0.9207649
						c0.4779549,1.0800533,1.7341614,1.2005062,2.5655899,1.907793c0.1523285,0.1306858,0.3387146,0.2609539,0.4309006,0.4444008
						c0.275631,0.549675-0.2236176,1.4457779-0.4239388,1.9384956c-0.2076874,0.5026169-0.5152817,0.8642273-1.1337357,0.7765732
						c-0.1727943-0.0343933-0.3448372-0.069622-0.5184708-0.1040154c-0.0258331,0.845356-0.333847,1.5903893-0.6954575,2.2772064
						c-0.1826935,0.2429199-0.3645477,0.4865952-0.5479965,0.7295151c-0.0667686,0.0962143-0.2503014,0.4349251-0.3834114,0.4349251
						v0.0741501c0.2002983,0.1020012,0.4013634,0.2051735,0.6016693,0.309269
						c0.3325882,0.1441078,0.7319489,0.2482071,1.0985069,0.3190002c0.0552788,0.0102348,0.1863136,0.0147629,0.1863136,0.0741539
						c0.0336227-0.2801666,0.0680161-0.5619202,0.1008148-0.8425026c0.2141457-0.8768959,1.1549568-2.2284737,2.1932411-2.2284737
						c0.1838646-0.1150856,0.4230957-0.1106377,0.665596-0.1106377c0.3739433-0.167511,2.1220245,0.3145523,2.378788,0.546402
						c0.1265755,0.1142464,0.1785812,0.2993698,0.1396599,0.4771156c-0.0467224,0.2060966-0.2334404,0.3486099-0.4468346,0.3600159
						c-0.1757317,0.0082207-0.3321686-0.075325-0.4820671-0.1183548c-0.4063072-0.1207886-0.7933464-0.2658195-1.2557831-0.2658195
						c0,1.3508224-0.1888161,2.7470245-0.9538956,3.7058716c-0.0609818,0.0745697-0.1973724,0.289978-0.3047409,0.289978v0.0737305
						c0.2949257,0.1736336,0.5910263,0.3481064,0.8859634,0.5197258c0.372673,0.1433563,0.7450218,0.2862892,1.1164589,0.430481
						c1.7456398,0.6454659,3.6862297,0.7888184,5.7693481,0.7888184c0.0868034-0.012249,0.1727943-0.0245781,0.2588463-0.0364037
						c0.1396599-0.0511703,0.3182564-0.0364914,0.4803848-0.0364914c0.1118164-0.013504,0.2227898-0.0253296,0.333847-0.0376625
						c0.1023369-0.0561142,0.2367134-0.0741501,0.3702545-0.0741501c0.2064285-0.0671043,0.4140358-0.1331177,0.6196289-0.2006416
						c0.493557-0.1593742,0.9731903-0.306839,1.4003944-0.5942993c1.8934479-1.2807808,3.0402756-3.9725304,3.4793091-6.128109
						c0.0831299-0.565609,0.1638184-1.132061,0.2453537-1.6964111c0.0626678-0.4219246,0.3710861-3.5298042,0.1560211-3.7095623
						c-0.0552826-0.0093937-0.1101303-0.0184536-0.1658401-0.0295258c-1.2938614,0-2.6164169,0.0930233-3.9593544,0.0712986
						c-0.892498-0.0139236-1.7968216-0.1098003-2.6643181-0.1098003v0.0380821h0.0372429
						c0.1126518,0.1032581,0.2523155,0.193346,0.3088493,0.3403893c0.1396637,0.3641281-0.1633987,0.7687721-0.568882,0.6589718
						c-1.2705498-0.3431587-1.915596-1.5809097-3.4842567-1.0157185c-0.3575859,0.1261578-0.6762505,0.3227749-0.8306732,0.6872387
						c-0.7711945,1.8222351,0.9584351,2.5623207,2.1437492,3.2299309c0.2949257,0.164238,0.5906067,0.3301544,0.8867073,0.4939728
						c0.3047409,0.2756348,0.1167641,0.7962036-0.2723618,0.8347015c-0.3194199,0.0319595-0.5619202-0.1883965-0.8064346-0.3161469
						c-0.5361671-0.2834358-1.0710754-0.5668678-1.6084213-0.8511429c-0.2420692-0.0937767-0.5434647,0.0671883-0.8023224,0.0761642
						c-0.8187523,0.0254173-1.6236038-0.3431587-2.0757217-0.9526367c-0.9424896-1.2688713-0.0889168-3.3339424,1.5588455-3.3339424
						c0.0942001-0.0327969,0.1961136,0,0.295681,0v-0.0364876c0.1077042-0.0983086,0.4759445-0.5193081,0.591877-0.5193081
						v-0.0372448h-0.036499c-0.2641411-0.1507339-0.5610809-0.1957779-0.8547478-0.2863693
						c-0.3899651-0.1207886-0.7826958-0.2617092-1.1713905-0.4009533c-0.2510681-0.1122322-0.5017891-0.2236271-0.753685-0.3374538
						c-0.2658195-0.0991478-0.5303802-0.1974564-0.797039-0.2969379c-0.3141327-0.140501-0.6045303-0.3223553-0.934185-0.4263687
						C50.7893906,27.4427452,50.3978348,27.4522247,49.9878235,27.4522247"/>
				</defs>
				<clipPath id="SVGID_00000181804052241465335880000017258982051825692295_">
					<use xlink:href="#SVGID_00000134245143461614048240000011388122176984023709_"  style="overflow:visible;"/>
				</clipPath>
				<path style="clip-path:url(#SVGID_00000181804052241465335880000017258982051825692295_);fill:#FFFFFF;" d="
					M53.4450722,36.3620834c0.3039017,0.0418549,0.6548576,0.1802597,0.9424019,0.2842712
					c0.523838,0.1896553,0.9445038,0.5922852,1.5400581,0.4964104c0.347271-0.0544395,0.7347183-0.331749,1.0087585-0.5647736
					c0.2588539-0.2211914,0.5042076-0.5681267,0.6062088-0.8855324c0.058548-0.1831131,0.0974693-0.3755341,0.1051865-0.5697212
					c0.0073814-0.2055931-0.0396652-0.5914459-0.2223701-0.6889153c-0.3014679-0.1609688-0.629528-0.2875443-0.9391327-0.4365997
					c-0.31707-0.1507378-0.5402794-0.1998901-0.8720169-0.1494789c-0.3792381,0.0598068-0.6987305-0.0208855-1.0444183-0.1748924
					c-0.4283791-0.1916656-0.6504135-0.5120087-1.0026321-0.8052597c-0.0921822-0.077755-0.2359543-0.1998863-0.3543129-0.226059
					c-0.2289124-0.0491524-0.2248001,0.050415-0.3439941,0.2547493c-0.2834358,0.4857559-0.4661293,0.9805679-0.5292091,1.5433273
					c-0.0385017,0.3456764-0.0737305,0.7101402-0.0307007,1.0574913c0.0298615,0.2318459,0.1646614,0.6373291,0.3612785,0.7872238
					C52.8839073,36.4473076,53.1992989,36.3276901,53.4450722,36.3620834"/>
			</g>
		</g>
		<g>
			<path class="st1" d="M76.6148148,24.1202965c0.1703644,0,0.3153076,0.0126648,0.443985,0.1098003
				c0.1572876,0.1195297,0.7388229,1.3253231,0.7511673,1.5321732l0.0343857-0.0020123l-0.0016785-0.0356503l0.0352325-0.0015945
				c0.2523041-0.2638054,0.5881653-0.4079971,0.8757172-0.6086407c0.1727982-0.1220474,0.3226852-0.289978,0.5373383-0.333847
				c0.2031555-0.043787,0.392395,0.0397587,0.4955673,0.1994686c0.3595963,0.5545387-0.6266785,0.9776363-0.9445038,1.2053738
				c-0.1514893,0.11022-0.3039017,0.2191811-0.4562302,0.3284779c0.0024338,0.0463028-0.0106506,0.0352306,0.0360718,0.0323772
				c0.4111862,0.1957798,0.8232117,0.3907204,1.2336426,0.5860786c0.953476,0.5312195,1.9004059,1.3565273,2.5041046,2.2772903
				c0.2425003,0.3673992,0.4964066,0.7581177,0.672554,1.1672897c0.5938797,1.3913383,0.8764725,3.3269806,0.8928299,5.0361443
				c-0.0245743,0.5606613-0.0491486,1.1197281-0.0737305,1.6776237c-0.0180359,0.7593765,0.0156021,1.5039024-0.0368195,2.2432327
				c-0.0532684,0.7032585-0.2842636,1.405262-0.576683,2.0122261c-0.1417618,0.2924919-0.4054718,0.5681267-0.6364899,0.8035812
				c-0.1769104,0.1785851-0.3293076,0.3764572-0.5103378,0.5546227c-0.3874435,0.3767929-0.9706573,0.727417-1.4466095,0.9580078
				c-1.8955536,0.9124603-4.2571411,1.137764-6.4934158,0.8973618c-0.5144424-0.1126556-1.0304794-0.2273216-1.5474396-0.3408127
				c-0.588089-0.1408348-1.1181335-0.4394531-1.6702423-0.6585503c-0.1433487-0.0569534-0.2932434-0.1961975-0.4496841-0.206852
				c-0.2170868-0.0180321-0.4070663,0.1409225-0.5832138,0.2162476c-0.1368256,0.057373-0.388298,0.1003227-0.4694138,0.2342796
				c-0.1908264,0.3055801,0.1540222,0.9940758-0.1859589,1.3286781c-0.0982285,0.0933609-0.2399902,0.1445274-0.3898849,0.1294289
				c-0.4792099-0.0491562-0.3932343-0.5873375-0.4144516-0.9809914c-0.3186646,0.1437721-0.6151886,0.6188774-1.0338364,0.3923988
				c-0.0990677-0.0544395-0.1785889-0.1584549-0.2071915-0.2612915c-0.1654816-0.6004219,0.7077179-0.7602158,0.6946259-0.990387
				c0.0458832-0.0032692,0.0352249,0.0098991,0.0335464-0.0368233c-0.3366165-0.122467-0.956749-0.3489456-0.8190994-0.8409081
				c0.0417786-0.15065,0.1547623-0.2522316,0.2907333-0.3039017c0.2236252-0.0876541,1.0584106,0.3064194,1.2910156,0.4157143
				c0.1065292,0.0565376,0.2121353,0.1134911,0.3178253,0.1683502c0.1761551,0.0262566,0.3129654-0.0851402,0.4857559-0.0953712
				l-0.003273-0.0356522l-0.0360641,0.0015945c-0.335022-0.3194199-0.7576981-0.5525246-1.0943146-0.8850288
				c-1.0305634-1.0137062-1.748085-2.3834-1.9717102-3.858284c-0.0188675-0.176487-0.036911-0.3517952-0.057373-0.5287018
				c0.0123291-0.119194,0.1483002-0.31707,0.0352249-0.3584251c-2.1764641-0.7961998-3.0111656-3.4666405-1.5973511-5.398592
				c0.3341827-0.4563141,0.842926-0.7785854,1.4253235-0.9219379c0.9248657-0.2277374,2.0667343,0.0208855,2.0798187,0.2354546
				l0.0343933-0.0015945l-0.003273-0.0373268c0.5611649-0.7736359,1.0567398-1.5981045,1.669487-2.3505192
				c0.6807022-0.8379726,1.7407074-1.5895481,2.6663361-2.0400734c0.3398819-0.1650791,0.7536011-0.3756199,1.164772-0.3985195
				c0.0836334-0.0156021,0.1654968-0.0323792,0.2457733-0.0487347c0.0835419-0.0171967,0.1654968-0.0327988,0.2473679-0.0495739
				c0.0827866-0.0163574,0.1646576-0.0327988,0.2457657-0.0487347c0.0827103-0.0176163,0.1654968-0.0327988,0.2465439-0.0487366
				c0.136795-0.0655098,0.3325729-0.0552769,0.495636-0.0643368c0.3186646-0.1675091,1.751358,0.1081238,1.802948,0.0401802
				c0.0491486-0.0634975-0.0327988-0.1937656-0.0565414-0.2494621c-0.1285858-0.2986183-0.5677032-1.0845852-0.5209808-1.3774128
				C76.342041,24.324295,76.473053,24.2190247,76.6148148,24.1202965"/>
			<path class="st10" d="M75.1378326,27.0139446c-0.470993,0.0905075-0.9378738,0.1805973-1.4048386,0.2707691
				c-1.3008347,0.3915577-2.3468323,1.1246796-3.2528305,2.1703415c-0.5201492,0.5984077-1.0517883,1.3646622-1.4285812,2.0474548
				c0.2678299,0.2678337,0.4881897,0.6864014,0.2121353,0.9571686c-0.0180206,0.0156021-0.0360641,0.0311203-0.0548553,0.0467224
				c-0.4480972,0.3252068-0.8659058-0.3391304-1.7489243-0.5922852c-0.8903961-0.255167-1.967598,0.0765839-2.3321457,0.8367996
				c-0.6545258,1.3535881,0.1548386,2.8023033,1.2836304,3.52108c0.2539062,0.1613884,0.6119156,0.2871246,0.7642441,0.5623398
				c0.1359711,0.2429199-0.054863,0.7606316-0.0409393,1.0886917c0.0188751,0.5320587,0.2760544,1.2651825,0.5029678,1.7033768
				c0.2490311,0.4829025,0.5218124,0.9596825,0.8846817,1.3769913c1.300827,1.5076828,3.6845627,2.5509109,5.5923615,2.8179054
				c0.9256287,0.1282539,1.895546,0.0884933,2.9178009,0.0315399c0.1318665-0.0572891,0.3030624-0.0532646,0.4587479-0.061821
				c0.0720673-0.0163574,0.1425247-0.0315399,0.2121506-0.0474777c0.0802612-0.0164375,0.1629639-0.0315361,0.2457657-0.0483971
				c0.0704651-0.0155182,0.1416702-0.0327148,0.2105408-0.048317c0.0720444-0.0155182,0.1416702-0.0302811,0.2112885-0.0463028
				c0.0712967-0.016777,0.1409225-0.0315399,0.21138-0.0483131c0.1261597-0.0814514,0.286705-0.1232224,0.4546356-0.1318626
				c0.1244812-0.0495758,0.2498016-0.0946198,0.3759537-0.1433525c0.217926-0.0999031,0.4357681-0.2007294,0.6520157-0.2993736
				c0.7946014-0.3669777,1.5916443-1.0506096,2.0856171-1.8283577c0.6659317-1.0550575,0.5627594-2.882576,0.5512772-4.2329788
				c0.0212936-0.4272079,0.0441971-0.855587,0.0630722-1.286068c-0.033638-1.3585396-0.1712036-2.7773056-0.5447235-3.9515572
				C81.288002,28.7505379,78.3136597,26.8382149,75.1378326,27.0139446"/>
			<path class="st1" d="M71.124794,30.3921757c0.5250931-0.0131702,1.4269867,0.0892506,1.5122147,0.7003231
				c0.0196228,0.1597099-0.0270996,0.2990379-0.118782,0.4128647c-0.5275345,0.6479797-2.5385742-0.1555996-1.8193817-0.8825989
				C70.8135071,30.5047436,70.9872284,30.4642296,71.124794,30.3921757"/>
			<path class="st1" d="M73.9205475,31.3763542c0.4587479-0.0258369,0.9018936-0.0450439,1.3139191,0.005703
				c1.324646,0.1638203,2.8777084,0.9801521,2.9866714,2.4972267c0.0319595,0.4529572,0.0024338,0.8973618-0.181015,1.2516747
				c-0.1106415,0.2178383-0.2638092,0.5037918-0.47435,0.6438713c-0.1826096,0.1084595-0.3677368,0.2162476-0.5536957,0.3231125
				c-0.108963,0.1847038-0.2170792,0.3715096-0.3252106,0.5557976c-0.289978,0.4513626-0.7495651,0.7605476-1.254097,0.8838539
				c-1.2369232,0.2969398-2.4526138-0.4246902-2.8294067-1.5047455c-0.1122284-0.3215141-0.0442047-0.7040977-0.120369-1.0473404
				c-0.0475616-0.2117157-0.2605362-0.3927307-0.3440781-0.5947151c-0.2760544-0.6909294-0.0466385-1.4257278,0.2916489-1.9917603
				C72.781105,31.8101025,73.3766632,31.6856232,73.9205475,31.3763542"/>
			<path class="st11" d="M74.1155701,32.326561c-0.2695084,0.1740532-0.5488281,0.2445107-0.78479,0.4783745
				c-0.1662521,0.1613846-0.2637177,0.4361801-0.3202591,0.6532669c-0.0647507,0.2449303-0.0458832,0.4783745,0.0876617,0.6905937
				c0.430809,0.688076,2.4025345,1.0907059,3.2413406,1.0444031c0.198288-0.0937805,0.4267807-0.0478973,0.6070404-0.1744728
				c0.262886-0.1859665,0.335022-0.5570564,0.3259583-0.8736229C77.2365417,32.6063042,75.4008026,32.2553444,74.1155701,32.326561"
				/>
			<path class="st1" d="M78.9009933,32.3933296c0.1950226-0.0110741,0.398941-0.0254173,0.5668716,0.0122452
				c0.4464951,0.0975533,1.6579971,0.6734009,1.1500931,1.3246536
				C80.0773468,34.4190598,77.6542664,33.2268562,78.9009933,32.3933296"/>
			<path class="st1" d="M74.1352005,32.6812935c0.1696091,0.0020142,0.3153915,0.0126648,0.4431458,0.1118126
				c0.2793274,0.2195168,0.1794205,0.7081261-0.1531677,0.7990532
				C73.8058853,33.762104,73.6396332,33.0265465,74.1352005,32.6812935"/>
			<path class="st1" d="M76.0856094,33.1780357c0.1687698,0.0004196,0.3162308,0.0131721,0.4415512,0.1114807
				c0.2841873,0.220356,0.1793365,0.7064476-0.1524048,0.7998886C75.7554474,34.258091,75.588356,33.5245514,76.0856094,33.1780357"
				/>
			<path class="st11" d="M73.474144,35.5298996c0.0687866,0.5819664,0.5930405,0.9739418,1.1239166,1.083744
				c0.2268982-0.0033569,0.4546356-0.0053673,0.6790161-0.0078011c0.1106415-0.0630798,0.217926-0.1261597,0.3277206-0.1879768
				c0.0744858-0.059391,0.1547623-0.2318497,0.2547531-0.2372169l-0.0025177-0.0343933
				c-0.2989578-0.0511665-0.5995712-0.1011581-0.9010544-0.1519089
				C74.4096603,35.9152489,73.9197922,35.8264198,73.474144,35.5298996"/>
		</g>
		<g>
			<path class="st1" d="M75.1689529,24.3697586c-0.4587479,1.1369247-1.1156998,2.1703415-2.0339508,3.0599022
				c-0.6581345,0.6377487-1.4572678,1.0235176-2.2236023,1.4478722c-0.6540222,0.3612766-1.358963,0.6094818-2.0916672,0.8191833
				c-0.2121353,0.048317-0.4247742,0.0982246-0.6377487,0.1470451"/>
		</g>
		<path class="st6" d="M68.9172058,28.6350327c0.1523361-0.0524254,0.3055801-0.1040134,0.4583282-0.1560192
			c1.2799377-0.4583263,2.595871-1.1922874,3.5534592-2.2490215c0.5738297-0.6331348,0.9514618-1.3925114,1.2688675-2.1666508"/>
	</g>
	<g>
		<path class="st1" d="M48.5432205,49.2706528c0,0,1.1181374-1.0391197,1.9176941-2.038063
			c0.799469-0.9989395,1.8381729-2.1174965,2.1977692-2.6765633c0.3596001-0.559906,0.83638-1.4081116,1.4768982-1.8230743
			c0.6406097-0.414875,1.0001984-0.7740555,2.0789948-0.7343788c1.0788879,0.0397606,2.1576729,0.4398727,2.7970161,1.0788803
			c0.6393433,0.6389236,1.5187531,1.5584297,1.3987198,2.9567261c-0.1200333,1.3983002-0.5590706,2.9968262-1.438385,4.5548325
			c-0.8794212,1.558094-3.196804,4.3149338-4.1555672,4.9943695"/>
		<path class="st2" d="M53.9373779,54.9842186c0.3223457-0.2862854,0.9543076-0.8670807,1.2766724-1.1550446
			c0.63237-0.677002,1.2864761-1.3618088,1.8475571-2.1064224c0.6651764-0.8851166,1.2266884-1.8758354,1.7620087-2.9407921
			c0.0213051-0.2341957,0.2182579-0.5213203,0.3367004-0.7535858c0.0396729-0.1126556,0.0827065-0.2227898,0.1232185-0.3354416
			c0.0348206-0.2158279,0.0700531-0.4329109,0.1044426-0.6495781c0.0671806-0.4624367,0.0873108-1.0038872,0-1.4674988
			c-0.1236496-0.6557846-0.6327248-1.5273094-1.1595001-1.9131622c-1.0005341-0.7302704-2.4529343-0.8248863-3.3650513-0.1588707
			c-0.9227867,0.6737328-1.5162468,1.7390251-2.2362709,2.6839447c-0.5185623,0.682373-1.1066551,1.3348007-1.6100273,2.0102119
			c-0.5513496,0.7359734-1.2619057,1.3380737-1.9377365,1.8999939c-0.1155052,0.0958748-0.2175064,0.2064323-0.3190842,0.3165665"/>
	</g>
	<g>
		<path class="st1" d="M66.4020309,51.7072334c0,0,0.5995789-0.9174919,0.8392258-1.3573647
			c0.2395782-0.4398727,0.6393433-1.2795258,0.7990646-1.5990295c0.1596985-0.319416,0.3600082-0.9583397,0.399765-1.3183594
			c0.0396805-0.3595963,0.1945267-0.8666611,0.396843-1.3119011c0.2023239-0.4456596,0.5693054-1.4154968,1.0251999-1.7100029
			c0.4558105-0.2945061,1.1353302-0.654438,1.7344894-0.7740555c0.5992508-0.1196136,1.2385941-0.0802727,1.8779373,0.0798569
			c0.6393433,0.1605492,1.0783768,0.3600159,1.717804,0.9591789c0.6393356,0.599247,1.3589554,1.558094,1.5186615,2.5570335
			c0.1597137,0.9989433,0.0798569,2.197773-0.1998825,3.7963791c-0.279747,1.5976868-1.1590729,3.8753967-1.3987198,4.4745598
			c-0.239563,0.599247-0.8388138,1.9577866-0.9587631,2.1580925"/>
		<path class="st2" d="M73.0351028,57.4613152c0.023735-0.0421944,0.4459915-0.7212105,0.4657059-0.7601318
			c0.0102463-0.2892227,0.3022232-0.6864853,0.4414673-0.9662285c0.0225754-0.2354546,0.2207718-0.5209846,0.3387146-0.7552643
			c0.0135117-0.1514893,0.1171799-0.3202591,0.1925049-0.4730072c0.0156097-0.1556816,0.1183548-0.3211823,0.1957779-0.4751015
			c0.0291061-0.0884972,0.0593872-0.1761513,0.0876541-0.26297c0.0245819-0.0774193,0.0475769-0.152832,0.0717239-0.2298317
			c0.0298615-0.087574,0.0609741-0.1752281,0.0884094-0.2624664c0.0413513-0.1114769,0.0843811-0.2228699,0.1245575-0.333847
			c-0.0041046-0.1261559,0.0417786-0.2580185,0.1064453-0.3861885c0.0291138-0.088913,0.0593948-0.1769905,0.0880814-0.264225
			c-0.0147552-0.1601295,0.0434494-0.3493652,0.1257324-0.5090752c0.0585556-0.3510437,0.1207886-0.7020035,0.1798477-1.0538826
			c0.0876541-0.5754242,0.1105499-1.1397781,0.181015-1.7054749c0.0446243-0.3735199,0.1560135-1.0661278-0.0217285-1.4146538
			c-0.0892487-0.176487-0.5627594-0.0815315-0.7155075-0.0716362c-1.4458618,0.101162-2.74543-0.4084167-4.2157822-1.1480789
			c-0.2633896-0.1331215-0.4628601-0.3206787-0.7032623-0.4415512c-0.5562134,1.106308-0.6282654,2.1613655-1.0718307,3.247963
			c-0.3870316,0.9432449-0.96698,1.7652779-1.4535751,2.5688591c-0.1126556,0.1855469-0.2547531,0.4324913-0.4091644,0.6737366"/>
		<path class="st3" d="M70.7021103,45.12323c1.3667603,0.8626366,2.6634827,1.3340492,4.0745316,1.3663406
			c0.0884094,0.0029373,0.5184708,0.0036926,0.5467377-0.0520058c0.0114899,0.0062065,0.0249939,0.0114937,0.0352325,0.0171967
			c0.0049438-0.0114098,0.0130844-0.0245781,0.017189-0.0348091c-0.2621231-0.2682533-0.4300537-0.6167793-0.714325-0.8670807
			C73.538475,44.5691109,71.8935623,44.2340927,70.7021103,45.12323"/>
	</g>
</g>
</svg>
