<?xml version="1.0" encoding="utf-8"?>
<!-- Generator: Adobe Illustrator 26.0.3, SVG Export Plug-In . SVG Version: 6.00 Build 0)  -->
<svg version="1.1" id="レイヤー_1" xmlns="http://www.w3.org/2000/svg" xmlns:xlink="http://www.w3.org/1999/xlink" x="0px"
	 y="0px" viewBox="0 0 9.445 10.75" style="enable-background:new 0 0 9.445 10.75;" xml:space="preserve">
<style type="text/css">
	.st0{fill:#F6B7A0;}
	.st1{fill:#FCDDD4;}
</style>
<g>
	<g>
		<g>
			<path class="st0" d="M3.861,10.061c-0.097,0.103-0.188,0.217-0.27,0.338c0.23,0.074,0.776,0.407,0.703-0.002
				c-0.026-0.156-0.314-0.36-0.112-0.513c0.094-0.07,0.218,0.082,0.312,0.109c0.152,0.045,0.327,0.019,0.485,0.001
				c0.12-0.013-0.688,0.075,0,0c1.041-0.11,1.674-0.355,2.472-1.057c0.123-0.108,0.223-0.255,0.355-0.351
				c0.442-0.33,0.789-0.93,0.983-1.436c0.239-0.624,0.384-1.313,0.409-1.984c0.018-0.448-0.163-0.911-0.213-1.358
				c-0.042-0.385-0.032-0.68-0.288-0.999c-0.037-0.088-0.147-0.286-0.22-0.405C8.318,2.135,8.151,1.865,7.909,1.663
				C7.626,1.441,7.398,1.17,7.092,0.978C6.18,0.367,5.028,0.137,3.954,0.407c-1.011,0.255-1.89,0.828-2.543,1.646
				C0.812,2.801,0.481,3.785,0.369,4.726C0.297,5.337,0.351,6.005,0.445,6.613C0.523,7.22,0.798,7.96,1.193,8.429
				c0.77,0.907,1.976,1.518,3.186,1.582"/>
			<g>
				<g>
					<path class="st0" d="M4.355,9.931l0.009-0.011c-0.025,0.007-0.055,0.013-0.078,0.02L4.355,9.931z"/>
					<path class="st0" d="M3.874,9.872C3.911,9.938,4.077,9.884,4.145,9.93c0.018-0.01,0.033-0.026,0.042-0.039
						C4.1,9.887,3.957,9.913,3.874,9.872C3.911,9.933,3.947,9.902,3.874,9.872z"/>
					<path class="st0" d="M4.068,9.758c0.007,0.008,0.002,0.01-0.01,0.016C4.078,9.77,4.1,9.771,4.123,9.772
						C4.114,9.764,4.097,9.76,4.068,9.758C4.081,9.782,4.091,9.763,4.068,9.758z"/>
					<path class="st0" d="M4.013,9.786C4.063,9.788,3.982,9.765,4.013,9.786L4.013,9.786z"/>
					<path class="st0" d="M3.785,9.754C3.811,9.755,3.832,9.752,3.851,9.75C3.847,9.743,3.788,9.72,3.805,9.718
						C3.742,9.713,3.757,9.731,3.785,9.754z"/>
					<path class="st0" d="M3.718,9.777l0.034,0.001C3.748,9.771,3.738,9.768,3.718,9.777z"/>
					<path class="st0" d="M3.865,9.794C3.9,9.813,3.945,9.828,3.877,9.833C4.002,9.851,3.989,9.813,3.865,9.794z"/>
					<path class="st0" d="M3.839,9.918l0.049,0.027l0.047-0.008C3.914,9.94,3.84,9.904,3.839,9.918z"/>
					<path class="st0" d="M3.499,9.631C3.5,9.645,3.506,9.662,3.513,9.678c0.017,0.001,0.034,0,0.053,0.001
						C3.528,9.667,3.506,9.648,3.499,9.631C3.491,9.639,3.496,9.646,3.499,9.631z"/>
					<path class="st0" d="M3.514,9.679L3.441,9.675C3.5,9.697,3.515,9.693,3.514,9.679z"/>
					<path class="st0" d="M3.694,9.83l0.127-0.012C3.778,9.817,3.659,9.817,3.694,9.83z"/>
					<path class="st0" d="M3.241,9.55C3.269,9.54,3.213,9.503,3.247,9.502c-0.051-0.011-0.1-0.01-0.134-0.006
						C3.163,9.506,3.208,9.52,3.241,9.55C3.277,9.539,3.195,9.516,3.241,9.55z"/>
					<path class="st0" d="M3.047,9.491c0.02,0.003,0.041,0.003,0.067,0.003C3.092,9.491,3.068,9.488,3.047,9.491z"/>
					<path class="st0" d="M3.324,9.631c-0.003-0.016-0.018-0.03-0.045-0.046C3.277,9.597,3.284,9.617,3.324,9.631
						C3.32,9.624,3.316,9.626,3.324,9.631z"/>
					<path class="st0" d="M3.296,9.621c-0.003-0.008-0.023-0.016-0.057-0.02L3.296,9.621z"/>
					<path class="st0" d="M3.618,9.754C3.57,9.761,3.478,9.76,3.558,9.803C3.594,9.789,3.547,9.764,3.618,9.754z"/>
					<path class="st0" d="M3.354,9.68c0.019,0.01,0.05,0.022,0.071,0.032C3.418,9.699,3.424,9.69,3.439,9.685
						C3.413,9.685,3.38,9.68,3.354,9.68z"/>
					<polygon class="st0" points="3.314,9.677 3.354,9.68 3.326,9.668 					"/>
					<path class="st0" d="M3.156,9.564C3.125,9.566,3.089,9.559,3.046,9.54C3.085,9.564,3.125,9.582,3.17,9.595
						C3.177,9.589,3.203,9.58,3.156,9.564C3.12,9.566,3.202,9.578,3.156,9.564z"/>
					<path class="st0" d="M2.677,9.374C2.685,9.394,2.679,9.378,2.677,9.374C2.677,9.378,2.677,9.374,2.677,9.374z"/>
					<path class="st0" d="M3.174,9.602c0.03,0.014,0.054,0.02,0.071,0.013C3.183,9.59,3.157,9.586,3.174,9.602
						C3.204,9.619,3.165,9.6,3.174,9.602z"/>
					<path class="st0" d="M2.937,9.458c0.014,0.013,0.029,0.025,0.046,0.039C2.972,9.48,2.946,9.453,2.937,9.458z"/>
					<path class="st0" d="M3.117,9.552C3.103,9.556,3.088,9.553,3.071,9.555C3.12,9.577,3.137,9.57,3.117,9.552
						C3.099,9.552,3.121,9.557,3.117,9.552z"/>
					<path class="st0" d="M2.479,9.485C2.521,9.432,2.642,9.58,2.687,9.539c0.037-0.035,0.02-0.094-0.005-0.156
						C2.668,9.398,2.641,9.396,2.594,9.382C2.61,9.41,2.684,9.461,2.681,9.479C2.667,9.535,2.563,9.413,2.552,9.4
						c0.021,0.053-0.14-0.007-0.145,0.036c0.026,0.006,0.062,0.022,0.09,0.029C2.481,9.464,2.473,9.473,2.479,9.485
						C2.498,9.463,2.459,9.466,2.479,9.485z"/>
					<path class="st0" d="M2.812,9.446c0.032,0.001-0.019-0.031-0.052-0.071C2.722,9.368,2.697,9.371,2.685,9.377
						C2.733,9.406,2.803,9.436,2.812,9.446z"/>
					<path class="st0" d="M2.971,9.511c-0.03,0.015-0.108,0.003-0.079,0.048c0.083,0.037,0.069,0.002,0.126,0.014
						C2.994,9.568,2.976,9.557,2.964,9.546c0.01-0.005,0.04,0.005,0.032-0.011c-0.034-0.058,0.13,0.066-0.013-0.039
						C2.991,9.506,2.978,9.51,2.971,9.511C2.922,9.48,2.994,9.513,2.985,9.498L2.843,9.454C2.882,9.479,2.926,9.497,2.971,9.511
						C2.938,9.529,2.906,9.487,2.971,9.511z"/>
					<path class="st0" d="M3.46,9.847C3.455,9.842,3.456,9.84,3.456,9.837C3.446,9.838,3.442,9.84,3.46,9.847z"/>
					<path class="st0" d="M3.407,9.81C3.47,9.807,3.461,9.818,3.457,9.838c0.121-0.004-0.171-0.117-0.1-0.122
						C3.364,9.745,3.377,9.775,3.407,9.81C3.417,9.809,3.374,9.77,3.407,9.81z"/>
					<path class="st0" d="M3.085,9.642c-0.033-0.009-0.081-0.023-0.12-0.036c0.011,0.017,0.03,0.037,0.049,0.052
						C3.043,9.65,3.06,9.66,3.085,9.642z"/>
					<path class="st0" d="M2.671,9.355c0.01-0.007,0.022-0.014,0.03-0.02L2.618,9.341L2.671,9.355z"/>
					<path class="st0" d="M2.53,9.278c0.009-0.004,0.011-0.014,0.019-0.02C2.482,9.238,2.527,9.263,2.53,9.278z"/>
					<path class="st0" d="M1.994,8.92C2.022,8.937,2.001,8.918,1.994,8.92L1.994,8.92z"/>
					<path class="st0" d="M2.026,8.958c-0.009-0.01-0.019-0.019-0.027-0.031C2.001,8.933,2.011,8.944,2.026,8.958z"/>
					<path class="st0" d="M2.031,8.943C2.04,8.952,2.049,8.957,2.053,8.961C2.058,8.961,2.058,8.956,2.031,8.943z"/>
					<path class="st0" d="M1.954,8.891c0.014,0.013,0.028,0.024,0.045,0.035C1.995,8.915,1.981,8.905,1.954,8.891
						C1.97,8.905,1.974,8.906,1.954,8.891z"/>
					<g>
						<path class="st0" d="M2.24,9.186C2.175,9.166,2.197,9.178,2.231,9.227c0.037,0.053-0.03,0.004-0.094-0.045
							C2.23,9.116,1.791,8.942,1.833,9.03c0.017,0.011,0.036,0.022,0.05,0.031c0.041,0.109-0.206-0.134-0.234-0.163
							c-0.036-0.03-0.094-0.081-0.151-0.13C1.446,8.714,1.401,8.659,1.392,8.625C1.411,8.666,1.469,8.706,1.495,8.72
							C1.481,8.695,1.472,8.668,1.45,8.645C1.518,8.72,1.556,8.831,1.616,8.804C1.645,8.788,1.711,8.76,1.595,8.666
							c0,0-0.287-0.163-0.268-0.178c0.037-0.028-0.042-0.073-0.119-0.126c-0.075-0.05-0.17-0.096-0.193-0.08
							c0.041,0.037,0.159,0.137,0.14,0.185c-0.048-0.04-0.129-0.139-0.157-0.13c-0.001-0.025,0.15,0.047-0.009-0.064
							c0.062,0.026-0.005-0.088-0.078-0.208c-0.059-0.129-0.11-0.271-0.074-0.274C0.782,7.712,0.672,7.644,0.655,7.688
							C0.62,7.625,0.624,7.577,0.594,7.513C0.597,7.537,0.594,7.556,0.592,7.57C0.571,7.529,0.573,7.487,0.543,7.49
							C0.516,7.428,0.55,7.385,0.526,7.314C0.483,7.187,0.394,7.206,0.397,7.223C0.376,7.154,0.428,7.123,0.4,7.026
							C0.383,6.974,0.336,6.93,0.336,6.863c0.098,0.159,0-0.098-0.003-0.097C0.366,6.774,0.476,6.845,0.395,6.66
							C0.353,6.558,0.293,6.479,0.252,6.492c0.026,0.077,0.051,0.156,0.086,0.235C0.3,6.742,0.265,6.561,0.225,6.578L0.209,6.352
							c0.024,0.132,0.038,0.066,0.042,0.009c0.008-0.1,0.044,0.017,0.074,0.005C0.309,6.307,0.233,6.212,0.278,6.169
							C0.301,6.147,0.34,6.148,0.371,6.177C0.356,5.991,0.239,6.041,0.235,5.848C0.231,5.87,0.222,5.891,0.221,5.911
							C0.215,5.893,0.21,5.727,0.201,5.74c0.017-0.032,0.064-0.085,0.087-0.034C0.254,5.658,0.233,5.608,0.203,5.558
							c0.019,0.05,0.065-0.005,0.09,0.014c0-0.068-0.08-0.105-0.09-0.063C0.23,5.44,0.249,5.373,0.28,5.32
							c-0.009-0.045-0.072,0-0.079,0.028C0.187,5.291,0.183,5.241,0.195,5.183c0.042,0.198,0.068-0.093,0.068-0.2
							C0.256,4.817,0.25,4.651,0.288,4.478c-0.009,0.05,0.034-0.014,0.04-0.086C0.385,4.3,0.267,4.234,0.338,4.142
							c-0.022,0.089-0.006,0.12,0.019,0.118C0.35,4.155,0.408,4,0.336,4.022C0.363,3.97,0.372,3.928,0.399,3.938L0.41,3.735
							c0.005,0.026,0.023,0.023,0.04-0.021c-0.032,0.087-0.006,0.23-0.064,0.272c0.033,0.009,0.077-0.017,0.098,0.04
							c0.031-0.188,0.002-0.312-0.01-0.436C0.468,3.507,0.516,3.452,0.563,3.366L0.546,3.35l0.058-0.012
							C0.603,3.326,0.593,3.243,0.617,3.307c0.029-0.115,0.046-0.003,0.061,0.039c-0.11,0.099,0.019,0.117,0.017,0.043
							C0.7,3.418,0.709,3.429,0.726,3.423c0.009-0.046,0.015-0.095,0.025-0.144c-0.11,0.114-0.012-0.196-0.117-0.09
							c0.098-0.085,0.073-0.244,0.107-0.367c0.01,0.017,0.022,0.024,0.042,0.024C0.781,2.755,0.875,2.682,0.92,2.627
							c0.055-0.061,0.005-0.121,0.018-0.16c0.002,0.009,0.008,0.01,0.021,0C0.957,2.444,0.966,2.408,0.964,2.389
							c0.049-0.032-0.002,0.12,0.075-0.081c0.025-0.075,0.071-0.14,0.13-0.204c0.08-0.123-0.062-0.009-0.033-0.064
							c0.028-0.052,0.08-0.027,0.111-0.053c0.056-0.041,0.046-0.082,0.059-0.13c0.001,0.027,0.101-0.06,0.106-0.066
							c0.074-0.07,0.115-0.139,0.182-0.21c0.019-0.023,0.12-0.134,0.105-0.123c0.029-0.022,0.046,0.006,0.067-0.013
							C1.712,1.493,1.675,1.563,1.72,1.553c0.015-0.026,0.044-0.058,0.054-0.085c0.02,0.002-0.036,0.046,0.008,0.021
							c0.019-0.038,0.037-0.078,0.044-0.113c0.03-0.025,0.095-0.083,0.136-0.119C1.94,1.274,1.99,1.266,2.042,1.182
							C2.014,1.227,2.155,1.149,2.181,1.079c0.008-0.027,0.008-0.075,0.082-0.094L2.237,1.008c0.017-0.001,0.041-0.013,0.062-0.017
							C2.279,0.955,2.35,0.898,2.423,0.839c0.074-0.053,0.15-0.102,0.132-0.143c0.09-0.01-0.014,0.058-0.055,0.113
							c0.027-0.008,0.062-0.011,0.094-0.023C2.561,0.803,2.53,0.826,2.503,0.845C2.621,0.819,2.696,0.721,2.747,0.66
							c0.048-0.01,0.035,0.089,0.158-0.027c0.048-0.046-0.093-0.026-0.016-0.075l0.096,0.009c0.082-0.08,0.36-0.138,0.382-0.177
							c0.094-0.022,0.177-0.085,0.253-0.12c0.082-0.038,0.135-0.025,0.164-0.005c0.027-0.005,0.135-0.07,0.162-0.076
							C3.871,0.218,3.883,0.252,3.878,0.278c0.034-0.014,0.07-0.031,0.11-0.049C3.959,0.247,3.957,0.258,3.979,0.264
							C4.02,0.248,4.216,0.173,4.1,0.186c0.156-0.03,0.204-0.057,0.183,0.004C4.225,0.168,4.192,0.207,4.171,0.226
							c0.111-0.025,0.04,0.002,0.097,0.01c0.09-0.019,0.119-0.057,0.094-0.08C4.463,0.158,4.512,0.159,4.6,0.128
							C4.585,0.141,4.594,0.155,4.58,0.168c0.033-0.008,0.061-0.012,0.096-0.02L4.603,0.203c0.109,0.005,0.089-0.025,0.121-0.049
							c0.048-0.04,0.137,0.003,0.112,0.026c0.052-0.008,0.109-0.064,0.162-0.026c0.061-0.013-0.065-0.04-0.007-0.05
							c0.074-0.011,0.139,0.027,0.209,0.039c0.051-0.006-0.028-0.046-0.077-0.038c0.225,0.001,0.182,0.13,0.396,0.116
							C5.437,0.185,5.584,0.164,5.405,0.14C5.508,0.136,5.579,0.207,5.68,0.196L5.611,0.224C5.647,0.229,5.677,0.23,5.704,0.226
							c-0.009,0.009-0.005,0.022-0.015,0.03c0.103-0.024,0.223,0.068,0.297,0.022C5.962,0.283,5.96,0.292,5.98,0.303
							c0.039,0.007,0.104,0.005,0.132,0.035c-0.07,0.001-0.159-0.036-0.248-0.043C5.752,0.289,5.82,0.31,5.876,0.33
							c0.008-0.001,0.017-0.002,0.018-0.007c0.006,0.004,0,0.008-0.004,0.011c0.024,0.007,0.046,0.011,0.049,0.015
							C5.903,0.35,5.872,0.354,5.848,0.362c0.006,0.004,0.013,0.007,0.02,0.01c0.015,0,0.034-0.002,0.072-0.005
							C5.918,0.374,5.919,0.381,5.935,0.392c0.085,0.01,0.151,0.003,0.234,0.015L6.013,0.366c0.059-0.097,0.523,0.17,0.684,0.242
							c0.096,0.031,0.176,0.069,0.255,0.137C6.945,0.738,6.934,0.76,6.924,0.778C7.038,0.844,7.089,0.77,7.075,0.761
							C7.13,0.796,7.12,0.844,7.179,0.891c0.03,0.007,0.065,0.021,0.128,0.05c-0.011-0.004-0.016-0.004-0.02-0.003
							C7.316,0.95,7.345,0.962,7.37,0.988C7.323,0.972,7.304,0.97,7.302,0.974l0.005,0.007c0.015,0.018,0.127,0.081,0.127,0.081
							C7.427,1.064,7.418,1.068,7.41,1.072C7.417,1.075,7.426,1.08,7.435,1.083C7.479,1.122,7.53,1.18,7.589,1.236
							c0.041,0.007,0.07,0.004,0.08-0.014L7.455,1.095c0.018-0.036,0.16,0.082,0.183,0.045l0.154,0.161
							C7.69,1.215,7.726,1.275,7.756,1.32C7.77,1.342,7.773,1.352,7.774,1.357c0.074,0.058,0.177,0.131,0.288,0.235
							c0.118,0.101,0.201,0.205,0.237,0.246c-0.012-0.02-0.024-0.039-0.037-0.062c0.035,0.049,0.13,0.119,0.149,0.188
							C8.35,1.89,8.342,1.95,8.386,2.026c0.008-0.001,0.026,0.01,0.035,0.005L8.418,2.064C8.433,2.087,8.44,2.091,8.444,2.089
							c-0.002-0.004,0-0.008-0.003-0.009l0.007,0.005c0.006-0.01,0.006-0.032,0.037,0.012c-0.005,0.01,0,0.021,0,0.031
							c0.019,0.028,0.036,0.059,0.05,0.094C8.518,2.208,8.513,2.2,8.504,2.194c0.047,0.1,0.144,0.244,0.155,0.331l0.018,0.027
							C8.693,2.531,8.604,2.405,8.66,2.431c0.002,0.029,0.011,0.061,0.028,0.102c0.002-0.019,0.016-0.018,0.02-0.035l0.059,0.138
							l0.03,0.069C8.808,2.731,8.815,2.75,8.815,2.75c0.047,0.1,0.112,0.188,0.152,0.295c0.028,0.027,0.057,0.06,0.051,0.119
							C9.003,3.113,8.988,3.083,8.971,3.069l0.005,0.013C8.961,3.121,9.008,3.22,9.046,3.25C9.041,3.263,9.029,3.248,9.02,3.24
							c0.018,0.037,0.027,0.06,0.055,0.037C9.068,3.337,9.075,3.375,9.051,3.381l0,0.01l0.067,0.186
							c-0.012-0.021-0.03-0.013-0.03,0.035c0.001-0.046-0.018-0.1-0.036-0.15C9.051,3.516,9.037,3.567,9.043,3.607
							c0.023,0.042,0.045,0.083,0.07,0.125c0.037,0.072,0.026,0.134,0.024,0.23l0.021,0.003l-0.044,0.04
							c0.004,0.008,0.051,0.074,0.004,0.032c0.032,0.108-0.045,0.028-0.076-0.002C9.092,3.897,8.97,3.94,9.009,4.003
							C8.992,3.98,8.976,3.976,8.963,3.99L9.01,4.126C9.042,3.973,9.129,4.287,9.16,4.14c-0.03,0.125,0.073,0.24,0.125,0.353
							C9.268,4.484,9.253,4.486,9.239,4.497c0.054,0.074,0.023,0.189,0.021,0.26c0,0.077,0.068,0.104,0.081,0.143
							C9.334,4.892,9.328,4.895,9.325,4.912C9.337,4.931,9.35,4.967,9.366,4.983C9.343,5.04,9.297,4.876,9.347,5.097
							C9.372,5.18,9.366,5.253,9.349,5.338c-0.005,0.146,0.057-0.024,0.06,0.035C9.414,5.43,9.356,5.438,9.342,5.475
							C9.315,5.539,9.35,5.568,9.367,5.614C9.351,5.595,9.324,5.722,9.319,5.729c-0.024,0.1-0.026,0.176-0.037,0.273
							c-0.004,0.03-0.019,0.179-0.012,0.16c-0.013,0.034-0.042,0.019-0.048,0.05C9.24,6.141,9.225,6.061,9.196,6.095
							c0.006,0.03,0.001,0.072,0.006,0.103c-0.017,0.009,0.002-0.06-0.018-0.016c0.005,0.044,0.01,0.087,0.02,0.119
							C9.192,6.334,9.177,6.42,9.165,6.474C9.173,6.45,9.139,6.484,9.147,6.58c-0.005-0.053-0.075,0.091-0.05,0.163
							C9.108,6.77,9.135,6.811,9.085,6.869l0.008-0.037C9.08,6.845,9.067,6.866,9.053,6.884C9.13,6.921,8.966,7.232,9.032,7.272
							C8.966,7.333,9.015,7.221,9.006,7.148C8.989,7.171,8.965,7.206,8.95,7.226c0.016-0.033,0.024-0.069,0.031-0.102
							C8.913,7.22,8.899,7.338,8.898,7.418C8.867,7.457,8.814,7.369,8.793,7.539C8.786,7.605,8.879,7.5,8.85,7.589
							C8.823,7.606,8.798,7.626,8.769,7.64C8.74,7.749,8.561,7.968,8.567,8.013C8.502,8.087,8.464,8.185,8.427,8.258
							C8.38,8.338,8.33,8.36,8.295,8.365c-0.013,0.021-0.083,0.13-0.102,0.154C8.244,8.451,8.218,8.43,8.208,8.407
							c-0.027,0.033-0.05,0.068-0.073,0.1c0.018-0.032,0.013-0.043-0.012-0.036C8.1,8.509,7.969,8.68,8.06,8.605
							C7.941,8.718,7.913,8.766,7.902,8.704C7.962,8.689,7.974,8.639,7.98,8.61C7.896,8.694,7.946,8.629,7.891,8.654
							C7.826,8.715,7.836,8.762,7.863,8.768C7.794,8.822,7.767,8.836,7.721,8.92c0-0.019-0.016-0.022-0.016-0.041
							c-0.022,0.027-0.038,0.051-0.059,0.08l0.021-0.09C7.58,8.936,7.613,8.945,7.605,8.985c-0.013,0.063-0.099,0.098-0.1,0.058
							C7.472,9.082,7.468,9.163,7.401,9.17C7.366,9.221,7.477,9.157,7.443,9.199C7.395,9.257,7.322,9.271,7.261,9.308
							C7.228,9.351,7.312,9.322,7.345,9.287C7.178,9.436,7.12,9.314,6.978,9.47C7.06,9.44,6.97,9.558,7.114,9.45
							C7.047,9.528,6.94,9.516,6.874,9.594l0.032-0.07c-0.03,0.023-0.053,0.046-0.07,0.066c0.002-0.013-0.012-0.02-0.01-0.032
							c-0.059,0.09-0.209,0.11-0.235,0.186c0.015-0.018,0.01-0.026-0.015-0.023c-0.034,0.014-0.08,0.064-0.119,0.062
							C6.508,9.73,6.604,9.705,6.673,9.652c0.133-0.11-0.077,0.012-0.092,0.007C6.61,9.635,6.632,9.613,6.643,9.59
							C6.497,9.628,6.462,9.711,6.37,9.773l0.141-0.079c0.027,0.117-0.507,0.23-0.673,0.272c-0.095,0.041-0.178,0.065-0.282,0.067
							c0.015,0-0.016-0.065,0.004-0.076c-0.082,0.022-0.1,0.04-0.141,0.07c-0.005-0.007-0.026-0.011-0.035-0.02
							c-0.079,0.052-0.083,0.075-0.219,0.115c0.066-0.028-0.086-0.027-0.035-0.052c-0.062,0.008-0.11,0.022-0.149,0.042
							c-0.043,0.005-0.099,0.003-0.16,0.004c-0.03,0.003-0.062,0.004-0.092,0.006l-0.01,0.002l-0.009,0l-0.002,0l-0.006,0
							l-0.008,0.001l-0.015-0.002L4.597,10.04l0.057-0.114l0.017-0.005l0.007-0.004l0.004-0.001c0.004,0,0.002,0,0.002,0
							l0.023-0.004c0.014-0.001,0.028-0.007,0.044-0.009c-0.009-0.015,0.026-0.026,0.086-0.04c0.031-0.006,0.068-0.011,0.107-0.019
							L4.961,9.84l0.006-0.002l0.006,0l0.008,0l0.011-0.001C5.005,9.843,4.99,9.825,5.065,9.859c0.182,0.22-0.091,0.312-0.025,0.273
							l-0.02,0.004l-0.01,0.002l-0.035,0.005l-0.068,0.007c-0.182,0.031-0.42,0.019-0.534-0.041
							c0.029,0.017,0.064,0.039,0.093,0.046c-0.036-0.008-0.114-0.039-0.152-0.059c-0.037-0.02-0.07-0.041-0.076-0.053
							c0.022,0.004,0.046,0.009,0.042-0.009c0.001-0.015-0.021-0.042-0.034-0.048c-0.005,0.003-0.013,0.021-0.009,0.014
							C4.241,9.982,4.253,9.983,4.254,9.97c0.011-0.044-0.011-0.004-0.01-0.01c-0.001,0.004,0,0,0.003-0.004
							c0.003-0.001,0.005-0.004,0.003-0.001l-0.008,0.01L4.235,9.972L4.229,9.979l-0.001,0l0,0l0,0l0.056,0.033l0,0l0,0l0,0.002
							c-0.013-0.015-0.032-0.013-0.039-0.011C4.242,10,4.231,10.01,4.246,10.041c0.026,0.064,0.097,0.157,0.089,0.216
							c0.07,0.023-0.081-0.16-0.01-0.127c0.004,0.031,0.014,0.056,0.036,0.104c0-0.019,0.017-0.021,0.019-0.039
							c0.027,0.043,0.047,0.107,0.062,0.172l0.001,0.088c-0.003,0.034-0.008,0.068-0.023,0.102
							c-0.026,0.086-0.125,0.148-0.194,0.149c-0.133,0.005-0.213-0.032-0.304-0.058c-0.018-0.033-0.15-0.074-0.22-0.073
							c-0.011-0.02,0.076,0.005,0.044-0.022c-0.122-0.006-0.243-0.068-0.306-0.111c0.064-0.075,0.144-0.133,0.139-0.171
							c0.037,0.003,0.114-0.043,0.172-0.067c0.061-0.024,0.101-0.026,0.114,0.006l0.018-0.037c0.034,0.026-0.081,0.112-0.036,0.123
							c-0.02,0.014-0.056,0.036-0.053,0.049c0,0.01,0.004,0.022,0.011,0.035c0.011-0.006,0.066-0.017,0.057-0.027
							c0.034,0.011,0.045,0.006,0.047-0.013c-0.042,0.05,0.42,0.237,0.278,0.074l-0.01-0.024c-0.019-0.042-0.065-0.1-0.11-0.171
							c-0.021-0.031-0.044-0.08-0.057-0.13C4.003,10.06,3.998,10.029,3.996,10c0.005-0.032,0.017-0.07,0.028-0.101
							c0.013-0.034,0.045-0.057,0.074-0.086L4.12,9.796l0.002,0l0.02-0.015l0.002,0l0.004,0l0.007-0.004
							C4.173,9.771,4.17,9.768,4.205,9.762c0.06-0.008,0.091,0.003,0.102,0.001C4.32,9.762,4.324,9.755,4.301,9.738
							C4.411,9.82,4.409,9.763,4.475,9.791C4.5,9.835,4.509,9.866,4.527,9.894c0.04-0.01,0.014-0.029,0.025-0.046
							c0.069,0.01,0.176,0.025,0.281,0.025C4.862,9.871,4.892,9.871,4.918,9.87l0.042-0.003l0.017-0.002l0.001,0l0,0l0.013,0.102
							L4.982,9.895C4.976,9.856,4.977,9.866,4.977,9.866l0,0l-0.001,0L4.971,9.867L4.958,9.87C4.954,9.872,4.95,9.872,4.933,9.88
							c-0.014-0.055-0.118,0.174-0.003,0.214c0.071,0.031,0.05,0.013,0.06,0.018c0.021-0.002,0.006,0,0.008,0l-0.013,0
							c-0.053,0.005-0.107,0.015-0.155,0.031c-0.046-0.01,0-0.051-0.073-0.051c0.03,0.012,0.027,0.022,0.011,0.029
							c-0.01,0.005-0.018,0.009-0.032,0.012l-0.018,0.004c-0.002,0-0.006,0.001,0,0l0.014,0.001
							c0.005-0.004,0.002-0.001,0.027-0.013L4.804,9.95L4.724,9.899c-0.026-0.003-0.021,0-0.025,0L4.695,9.898c-0.002,0,0,0,0,0
							l0.013-0.001c0.061-0.014,0.129-0.025,0.095-0.041c0.075,0.052,0.287-0.002,0.266,0.08C5.148,9.93,5.162,9.888,5.115,9.88
							c0.091-0.008,0.262-0.059,0.307-0.066c0.054-0.004,0.12-0.02,0.174-0.03C5.722,9.758,5.919,9.695,6,9.723
							C5.92,9.699,6.126,9.64,5.985,9.637C6.088,9.603,6.131,9.576,6.18,9.594c0.064,0.029,0.163-0.085,0.15-0.098l0.057-0.032
							C6.359,9.475,6.305,9.555,6.4,9.523c-0.001-0.013,0.063-0.098,0.11-0.09C6.41,9.475,6.487,9.506,6.592,9.432L6.536,9.409
							C6.577,9.385,6.667,9.334,6.777,9.27c0.107-0.071,0.235-0.153,0.354-0.239c0.244-0.171,0.434-0.343,0.455-0.298
							C7.512,8.799,7.619,8.765,7.674,8.702C7.594,8.746,7.73,8.558,7.582,8.681c0.029-0.04,0.072-0.09,0.09-0.128
							C7.663,8.519,7.695,8.452,7.767,8.391C7.83,8.337,7.897,8.299,7.962,8.246c0.072-0.05,0.083-0.118,0.097-0.088
							C8.1,8.061,8.343,7.843,8.335,7.798c0.011,0.008,0.031-0.006,0.039,0.004C8.389,7.733,8.399,7.656,8.451,7.57
							C8.476,7.534,8.499,7.5,8.523,7.462C8.527,7.48,8.536,7.481,8.547,7.467c-0.005-0.06-0.002-0.123,0.048-0.221
							c0.023-0.008,0.06-0.106,0.081-0.179C8.766,7.101,8.74,6.714,8.858,6.692C8.846,6.649,8.854,6.456,8.887,6.418
							C8.857,6.339,9.053,5.986,8.924,6.1c0.051-0.084,0.022-0.227,0.02-0.306c-0.006-0.113,0.062-0.077,0.079-0.09
							c0.009-0.107-0.091-0.005-0.037-0.149C8.999,5.652,9.13,5.392,9.123,5.37L9.102,5.411c-0.014-0.106,0.121-0.357,0-0.278
							C9.11,5.075,9.116,4.905,9.116,4.857C9.117,4.84,9.077,4.565,9.068,4.715c-0.007-0.037-0.059-0.29-0.06-0.306
							C8.965,4.414,8.936,4.187,8.929,4.108C8.948,4.195,8.963,4.149,8.975,4.12C8.938,4.086,8.92,4.041,8.935,3.961
							C8.897,3.963,8.818,3.975,8.789,3.808c0.006,0.028,0.019,0.042,0.03,0.038C8.82,3.822,8.816,3.802,8.805,3.788
							C8.82,3.795,8.833,3.798,8.849,3.8C8.793,3.723,8.825,3.609,8.794,3.5c0.018,0.036,0.03-0.002,0.043-0.017
							c-0.026,0-0.022-0.036-0.019-0.072C8.812,3.414,8.811,3.418,8.811,3.427C8.8,3.367,8.79,3.36,8.78,3.406
							C8.793,3.322,8.767,3.237,8.764,3.16c0.004-0.048,0.017-0.13-0.025-0.182c-0.035-0.046-0.059,0.014-0.101-0.03
							C8.621,2.929,8.619,2.925,8.603,2.894C8.576,2.85,8.581,2.849,8.571,2.825C8.563,2.79,8.556,2.754,8.543,2.72
							C8.517,2.658,8.503,2.656,8.47,2.608C8.427,2.543,8.392,2.471,8.347,2.401C8.325,2.376,8.299,2.351,8.274,2.33
							c0.02,0.012,0.03,0.013,0.041,0.011L8.301,2.315C8.286,2.292,8.272,2.26,8.257,2.229L8.22,2.21
							c0.006-0.002,0.01-0.013,0.012-0.021c-0.018-0.029-0.033-0.044-0.038-0.01C8.181,2.087,8.137,2.131,8.1,2.093L8.084,2.01
							L8.036,1.97C8.036,1.975,8.032,1.981,8.028,1.984L7.984,1.932C7.978,1.93,7.972,1.928,7.967,1.927
							c0.002-0.005,0-0.012-0.001-0.017C7.93,1.876,7.893,1.834,7.859,1.793c-0.04,0.002-0.08,0.023-0.06-0.043
							c-0.079-0.044-0.11-0.094-0.079-0.025c-0.04-0.078-0.25-0.276-0.329-0.353C7.362,1.341,7.365,1.307,7.32,1.274
							C7.23,1.21,7.219,1.262,7.129,1.205C7.036,1.145,7.101,1.108,6.902,1.037c0.01-0.021-0.004-0.065-0.063-0.111
							C6.79,0.946,6.698,0.893,6.647,0.839C6.594,0.83,6.536,0.853,6.483,0.838c-0.092-0.032-0.191-0.129-0.217-0.16
							c-0.019,0.066-0.163,0.014-0.28-0.034c-0.061-0.03-0.107-0.052-0.177-0.074C5.696,0.543,5.594,0.532,5.478,0.518
							c0.02,0.003-0.186-0.011-0.142-0.014C5.265,0.511,5.21,0.516,5.121,0.501c-0.066-0.01-0.088-0.021-0.164-0.018
							c0.094-0.013,0.015-0.04-0.007-0.065L4.925,0.416C4.909,0.423,4.891,0.427,4.882,0.435C4.867,0.427,4.885,0.416,4.887,0.411
							L4.85,0.407C4.768,0.417,4.59,0.449,4.713,0.479c-0.026-0.001-0.07,0.021-0.066,0.036C4.583,0.487,4.478,0.493,4.43,0.457
							c0.09,0.046-0.199,0.036-0.138,0.085C4.267,0.531,4.238,0.531,4.216,0.524C4.148,0.529,4.077,0.533,4.01,0.537
							C3.923,0.554,3.876,0.596,3.881,0.566c-0.05,0.025-0.155,0.049-0.25,0.069C3.537,0.663,3.451,0.687,3.44,0.701
							C3.436,0.688,3.413,0.685,3.412,0.672C3.359,0.716,3.3,0.766,3.208,0.809c-0.04,0.017-0.081,0.034-0.119,0.045
							c0.008-0.014,0.003-0.019-0.017-0.018C3.038,0.888,2.993,0.925,2.895,0.978c-0.024-0.01-0.108,0.055-0.173,0.096
							C2.671,0.988,2.459,1.313,2.353,1.263C2.338,1.305,2.215,1.453,2.169,1.465c-0.025,0.08-0.375,0.26-0.21,0.242
							C1.871,1.744,1.807,1.869,1.773,1.939C1.715,2.041,1.68,1.973,1.659,1.974C1.593,2.061,1.733,2.032,1.608,2.116
							C1.647,2.029,1.394,2.17,1.391,2.194l0.043-0.022C1.392,2.27,1.14,2.408,1.284,2.409C1.243,2.451,1.139,2.592,1.11,2.632
							C1.096,2.643,0.966,2.887,1.063,2.774c-0.016,0.036-0.13,0.27-0.138,0.278c0.041,0.024-0.067,0.222-0.098,0.289
							c0.027-0.081-0.01-0.052-0.034-0.037c0.01,0.048,0.009,0.096-0.038,0.155C0.786,3.48,0.86,3.503,0.816,3.654
							c0.002-0.03-0.001-0.046-0.012-0.047C0.792,3.626,0.785,3.647,0.79,3.663C0.78,3.652,0.77,3.643,0.758,3.635
							c0.014,0.093-0.044,0.179-0.062,0.296C0.691,3.887,0.669,3.92,0.649,3.928C0.702,3.952,0.553,4.093,0.64,4.064
							C0.569,4.237,0.537,4.451,0.505,4.647C0.491,4.712,0.48,4.794,0.459,4.834C0.433,4.859,0.464,4.95,0.463,4.987
							C0.455,4.978,0.444,4.983,0.436,4.974c0.025,0.08,0.027,0.178,0.055,0.26C0.461,5.177,0.44,5.199,0.418,5.261l0.06,0.105
							C0.461,5.364,0.448,5.386,0.435,5.388C0.449,5.432,0.448,5.479,0.439,5.53C0.437,5.511,0.431,5.51,0.425,5.52
							c0.054,0.018,0.046,0.201,0.094,0.238C0.477,5.801,0.534,5.893,0.493,5.923C0.517,5.965,0.602,5.982,0.53,6.019
							c0.022,0.082,0.011,0.137,0.035,0.069C0.551,6.163,0.544,6.263,0.57,6.373c0.027,0.13,0.094,0.252,0.069,0.369
							c0.004-0.027-0.001-0.051-0.016-0.067c0.033,0.145,0.044,0.27,0.066,0.394c0.03,0.122,0.066,0.246,0.135,0.384
							c0.04,0.097,0.114,0.177,0.159,0.28C1.031,7.819,1.046,7.918,1.11,7.995c0.076,0.097,0.082,0.154,0.158,0.257
							c0.048,0.075,0.129,0.126,0.193,0.195C1.448,8.435,1.597,8.574,1.563,8.55c0.057,0.043,0.106,0.064,0.169,0.133
							c0.043,0.05,0.055,0.073,0.116,0.118C1.755,8.747,1.822,8.844,1.814,8.866c0.019,0.006,0.048,0.021,0.065,0.021
							c0.008,0.021-0.046,0-0.016,0.031C1.92,8.946,2.121,9.072,2.036,8.959c0.019,0.019,0.072,0.029,0.078,0.014
							c0.031,0.062,0.112,0.122,0.13,0.181C2.203,9.06,2.419,9.26,2.404,9.181C2.421,9.214,2.451,9.234,2.46,9.263
							C2.383,9.211,2.29,9.203,2.24,9.186z"/>
					</g>
					<path class="st0" d="M2.291,9.107C2.268,9.095,2.247,9.084,2.228,9.072c0.021,0.017,0.036,0.032,0.046,0.049
						C2.271,9.106,2.276,9.102,2.291,9.107z"/>
					<path class="st0" d="M2.764,9.601c0.021,0.002,0.048,0.017,0.038-0.005C2.777,9.587,2.712,9.571,2.764,9.601
						C2.775,9.602,2.721,9.575,2.764,9.601z"/>
					<path class="st0" d="M2.287,9.238C2.279,9.266,2.326,9.281,2.376,9.304C2.333,9.283,2.413,9.278,2.287,9.238
						C2.277,9.267,2.345,9.256,2.287,9.238z"/>
					<path class="st0" d="M2.386,9.309c0.015,0.007,0.028,0.014,0.043,0.024C2.444,9.321,2.411,9.318,2.386,9.309z"/>
					<path class="st0" d="M1.89,8.867c0.016,0.022,0.036-0.02,0.04-0.001C1.974,8.855,1.778,8.793,1.89,8.867z"/>
					<path class="st0" d="M2.276,9.34C2.28,9.33,2.279,9.316,2.28,9.302C2.238,9.299,2.228,9.31,2.276,9.34z"/>
					<path class="st0" d="M1.938,9.084c0.061,0.051,0.038,0.035,0.091,0.06C2.023,9.139,1.943,9.072,1.938,9.084z"/>
					<path class="st0" d="M2.029,9.143c0.022,0.015,0.044,0.03,0.059,0.034C2.076,9.169,2.052,9.152,2.029,9.143z"/>
					<path class="st0" d="M2.17,9.29C2.146,9.269,2.14,9.254,2.104,9.23L2.17,9.29z"/>
				</g>
			</g>
		</g>
		<g>
			<path class="st1" d="M8.455,5.548l0.12-0.024c0.18,0.071,0.111,0.1,0.278,0.083c-0.396-0.058-0.02-0.162-0.422-0.212l0.087-0.017
				C8.514,5.387,8.535,5.39,8.534,5.398c0.195-0.033-0.288-0.066-0.225-0.123c0.034-0.017,0.094-0.03,0.141-0.012L8.352,5.207
				c0.01-0.012,0.081-0.004,0.071,0.009L8.393,5.14l0.012,0.001C8.343,5.127,8.247,5.096,8.206,5.083
				c0.059-0.014,0.042,0.01,0.092,0.008L8.203,5.046c0.105-0.012,0.206,0.025,0.189,0.055C8.796,5.08,8.292,5.063,8.531,4.985
				l0.052,0.042c0.229-0.018,0.147-0.054,0.291-0.099C8.798,4.939,8.509,5.014,8.411,4.967c0.03-0.012,0.046-0.03-0.034-0.058
				c0.143,0.004,0.107-0.023,0.099-0.053l0.192,0.003C8.613,4.825,8.517,4.827,8.431,4.81c0.018-0.038,0.162-0.05,0.287-0.062
				c0.03-0.062-0.236,0.049-0.272-0.022c0.073-0.052-0.008-0.087-0.126-0.14c0.062-0.038,0.115-0.001,0.17-0.019l-0.153-0.02
				C8.338,4.542,8.387,4.539,8.41,4.54C8.349,4.518,8.219,4.553,8.165,4.519c-0.21,0.012,0.301-0.117,0.051-0.145
				c0.05-0.021,0.116-0.01,0.189-0.025c-0.17-0.057-0.127-0.053-0.344-0.07l0.11-0.077c-0.13,0.07-0.304,0.06-0.447,0.065
				C7.661,4.295,7.604,4.319,7.579,4.33c0,0-0.106-0.017-0.108-0.016c0.028-0.015,0.092-0.028,0.17-0.043
				C7.622,4.273,7.608,4.274,7.594,4.276C7.656,4.237,7.762,4.213,7.87,4.199C7.836,4.215,7.798,4.233,7.763,4.25
				C7.876,4.231,8.004,4.215,8.11,4.184c-0.021,0.001-0.042-0.003-0.055-0.01c0.031-0.004,0.06-0.009,0.077-0.016
				c0.019-0.006-0.023-0.002-0.071-0.001L8.26,4.084L8.176,4.106l0.097-0.129C8.044,3.979,7.739,4.045,7.627,4.009
				C7.778,3.965,7.861,3.91,8.026,3.833c-0.165,0.103,0.105,0.038,0.09,0.106c0.009-0.033,0.092-0.061,0.123-0.065
				c0,0-0.049-0.006-0.099-0.014C8.09,3.856,8.039,3.852,8.039,3.852c0.141-0.06,0.096-0.065,0.14-0.114
				C7.919,3.88,7.97,3.762,7.871,3.773c0.087-0.05,0.181-0.09,0.182-0.036c0.172-0.152-0.341,0.106-0.196-0.025
				c0.008,0.009-0.002,0.021,0.046-0.003c-0.092,0.023-0.06-0.065,0.022-0.099L7.932,3.62C7.93,3.534,7.808,3.432,7.6,3.574
				c0.026-0.021,0.251-0.172,0.295-0.199c0,0-0.192,0.098-0.377,0.202C7.332,3.684,7.155,3.797,7.155,3.797
				C7.331,3.672,7.705,3.312,7.84,3.284C7.855,3.252,7.867,3.21,7.784,3.23C7.768,3.258,7.559,3.453,7.536,3.453
				C7.694,3.268,7.617,3.35,7.737,3.176C7.712,3.219,7.446,3.428,7.436,3.402c0.041-0.031,0.25-0.223,0.283-0.24
				c0,0-0.073,0.042-0.147,0.085C7.499,3.293,7.427,3.335,7.427,3.335c0.054-0.027,0.21-0.187,0.269-0.264
				C7.651,3.122,7.658,3.02,7.621,3.029L7.587,3.107c-0.018-0.095-0.383,0.28-0.418,0.226c0.053-0.046,0.307-0.296,0.308-0.352
				c-0.133,0.111-0.609,0.558-0.726,0.63L6.808,3.53L6.705,3.593c0.181-0.19,0.589-0.548,0.772-0.668
				c0.03-0.077,0.071-0.091,0.031-0.114c0.05-0.079,0.111-0.087,0.125-0.082L7.592,2.613C7.464,2.765,7.401,2.714,7.3,2.846
				c0,0,0.053-0.023,0.107-0.047c0.055-0.019,0.111-0.04,0.111-0.04C7.389,2.91,7.105,3.146,7.078,3.084
				c0.039-0.071,0.234-0.27,0.274-0.32C7.302,2.81,7.22,2.826,7.244,2.784l0.089-0.066c0.014-0.085-0.211,0.171-0.134-0.009
				C7.197,2.69,7.312,2.473,7.241,2.565c-0.11,0.202-0.53,0.77-0.637,0.903C6.61,3.45,6.679,3.252,6.729,3.152
				C6.81,2.99,7.001,2.821,7.074,2.684C7.04,2.728,6.99,2.776,6.974,2.791c0.013-0.05,0.102-0.137,0.058-0.134
				C6.912,2.82,6.982,2.604,6.923,2.79c-0.061,0.028-0.008-0.056-0.044-0.07C6.816,2.836,6.606,3.076,6.553,3.108
				c0.028-0.043,0.059-0.103,0.072-0.131c-0.042-0.05-0.027-0.141-0.078-0.174c0.022-0.046,0.023-0.112,0.078-0.181
				C6.599,2.647,6.558,2.704,6.542,2.7c0.051-0.172,0.049-0.004,0.126-0.202C6.608,2.599,6.544,2.617,6.486,2.667
				C6.41,2.833,6.524,2.728,6.584,2.678C6.461,2.897,6.294,3.104,6.196,3.18C6.127,3.215,6.252,3.029,6.228,3.056
				c-0.057-0.077-0.26,0.361-0.239,0.171c0.045-0.156,0.136-0.289,0.179-0.398C6.23,2.794,6.179,2.947,6.202,2.954l0.005-0.083
				C6.243,2.827,6.283,2.803,6.276,2.85c0.042-0.136-0.124-0.089-0.134-0.239c-0.034,0.045-0.076,0.086-0.094,0.15l0.03-0.013
				C6.044,2.873,5.97,2.896,5.971,2.959C5.909,3.033,5.826,3.153,5.82,3.073L5.881,2.9C5.863,2.951,5.865,3.009,5.896,2.962
				C5.852,3.033,5.932,2.711,5.826,2.927L5.803,3.054c-0.06,0.074-0.156,0.241-0.167,0.176c-0.05,0.173,0.016-0.015-0.041,0.188
				c0.078-0.251,0.069,0.041,0.143-0.226C5.669,3.426,5.736,3.304,5.683,3.506C5.704,3.45,5.718,3.398,5.73,3.434
				c0.009-0.016,0.022-0.036,0.026-0.047l0,0.007l0.002-0.008c0.004-0.008,0.005-0.01,0.001-0.003
				c0.004-0.027,0.012-0.057,0.023-0.09c0.068-0.122,0.107-0.1,0.149-0.161c0.004,0.032-0.034,0.061-0.054,0.123l0.065-0.088
				C5.891,3.29,5.887,3.386,5.823,3.442l0.025,0.021c-0.014,0.075-0.003,0.113,0.034,0.07c0.001,0.034,0.102-0.117,0.042-0.029
				l0.084-0.051L5.992,3.482c0.037,0.036,0.198-0.143,0.129,0.095c0.03-0.022,0.068-0.049,0.072-0.003l-0.055,0.1
				C6.178,3.65,6.129,3.806,6.2,3.709C6.049,3.983,6.24,3.816,6.242,3.881l0.086-0.121c0.018,0.02,0.058-0.002,0.12-0.031
				L6.524,3.62c0.089-0.069-0.003,0.118,0.039,0.135c-0.035,0.036-0.034,0.021-0.02-0.009c-0.152,0.26,0.222-0.098,0.11,0.096
				c0.042-0.029,0.038-0.009,0.02,0.02c0-0.001-0.004,0-0.007,0.002C6.668,3.867,6.668,3.868,6.669,3.87
				C6.657,3.889,6.64,3.913,6.63,3.932c0.02-0.028,0.034-0.05,0.04-0.06C6.678,3.873,6.698,3.87,6.732,3.856L6.637,3.963
				C6.64,3.961,6.64,3.961,6.644,3.961C6.612,4.007,6.699,3.92,6.768,3.839C6.79,3.827,6.812,3.81,6.842,3.79
				c-0.157,0.168,0.077-0.03-0.09,0.152c0.091-0.077,0.106-0.018,0.302-0.175C7.03,3.787,7.02,3.801,7.014,3.798
				C7.002,3.826,6.99,3.856,7.055,3.823L6.919,3.942L7.131,3.81C7.055,3.898,7.008,3.94,6.889,4.016
				c0.195-0.098,0.083-0.024,0.278-0.116L7.071,3.967c0.01,0.008,0.153-0.062,0.078-0.001C6.986,4.113,7.201,4.121,7.054,4.275
				c0.31-0.159-0.126,0.09,0.116-0.013C7.098,4.296,7.056,4.322,6.989,4.34C7.072,4.339,6.881,4.427,7.1,4.37
				C7.026,4.399,6.986,4.404,6.942,4.423C6.959,4.419,7.01,4.407,6.966,4.427C6.921,4.444,6.899,4.444,6.863,4.452
				C6.885,4.47,7.129,4.401,7.358,4.336c-0.099,0.05-0.086,0.051,0.068,0.03C7.353,4.394,7.274,4.423,7.244,4.405
				C7.236,4.423,7.146,4.503,7.334,4.471C7.287,4.485,7.324,4.493,7.348,4.493C7.343,4.526,7.328,4.527,7.349,4.56L7.38,4.545
				c0.23-0.011,0.055,0.026,0.086,0.052L7.44,4.597C7.279,4.678,7.52,4.621,7.337,4.701L7.48,4.689
				C7.787,4.678,7.302,4.758,7.42,4.791l0.081-0.016c0.105,0.019-0.417,0.067-0.456,0.086C7.019,4.865,7.003,4.853,6.982,4.849
				C6.805,4.897,7.169,4.853,7.214,4.892C7.113,4.897,6.958,4.882,6.94,4.905C6.858,4.914,7.262,4.989,7.068,5.021
				c0.079-0.006,0.158-0.01,0.215,0.012c0.025,0.032-0.295,0.058-0.055,0.102c-0.021,0.002-0.041,0.003-0.063,0
				c0.062,0.029,0.099,0.081,0.229,0.109C6.903,5.21,7.618,5.414,7.167,5.36l0.013,0.072L7.134,5.424
				c-0.038,0.038,0.068,0.068,0.173,0.1C7.276,5.531,7.235,5.517,7.212,5.513C7.112,5.562,7.13,5.568,7.342,5.666L7.195,5.643
				c0.08,0.032-0.245,0.045-0.091,0.143C7.087,5.78,7.061,5.774,7.041,5.763c0.152,0.113-0.437,0.054,0.075,0.221l0.115,0.083
				c0.056-0.049,0.221,0.075,0.311,0.074c0.024,0.036-0.176,0.02-0.189-0.019l0.025,0.002C7.116,6.036,7.262,6.173,7.078,6.113
				C7.056,6.235,6.869,6.286,6.819,6.378l0.203,0.071L6.996,6.482C6.944,6.47,6.836,6.425,6.855,6.405
				C6.737,6.369,6.932,6.487,6.974,6.507c-0.102,0.009-0.222-0.12-0.232-0.11l0.005,0.027L6.773,6.43
				c0.071,0.051,0.156,0.092,0.133,0.119C6.857,6.546,6.78,6.497,6.767,6.5c-0.013-0.008-0.02-0.008-0.01,0.007L6.721,6.541
				l0.161,0.06c0.066,0.058-0.028,0.038,0.156,0.104C6.758,6.6,6.855,6.814,6.764,6.785C6.854,6.873,6.838,6.9,6.807,6.922
				C6.84,6.933,7.008,7.033,6.968,7.05C6.643,6.82,6.788,7,6.543,6.852c0.168,0.095-0.009,0.094,0.223,0.23
				C6.725,7.084,6.648,6.994,6.563,6.953C6.649,7.099,6.406,6.98,6.405,7.058c0.038,0.038,0.102,0.085,0.148,0.15L6.343,7.052
				c0.011,0.026,0.205,0.227,0.06,0.111c0.029,0.028,0.081,0.073,0.085,0.093c-0.138-0.052-0.147,0.032-0.19,0.09
				c-0.04,0.05-0.107,0.1-0.265-0.095C6.094,7.337,6.088,7.35,6.078,7.356c0.018,0.02,0.058,0.117,0.091,0.178
				c0,0-0.036-0.039-0.07-0.078C6.066,7.418,6.037,7.38,6.037,7.38c0.068,0.181-0.045,0.035,0.018,0.211l0.004-0.04
				c0.057,0.219,0.22,0.444,0.332,0.704c-0.068-0.246,0.266,0.29,0.171-0.066C6.605,8.234,6.597,8.276,6.635,8.33
				C6.596,8.215,6.597,8.18,6.661,8.208l0.01,0.027c0.082-0.088,0.19-0.008,0.351-0.026L6.93,8.101
				C6.964,8.099,6.995,8.129,7.027,8.15C6.92,7.962,6.958,8.189,6.837,7.984c0.204,0.203,0.147-0.118,0.381,0.109
				c0.035-0.027-0.12-0.112-0.085-0.138l0.068,0.054L7.132,7.921c0.035-0.005,0.121,0.063,0.173,0.116
				c-0.011-0.002,0.003,0.028,0,0.04c0.1,0.046,0.049-0.106,0.082-0.09L7.321,7.982c0.017-0.144,0.211-0.18,0.131-0.378L7.396,7.57
				C7.343,7.431,7.492,7.561,7.5,7.455l0.01,0.01C7.468,7.414,7.455,7.377,7.471,7.361C7.525,7.423,7.621,7.41,7.676,7.48
				C7.61,7.332,7.614,7.386,7.432,7.207l0.101,0.047C7.458,7.188,7.414,7.158,7.41,7.109c0.062,0.077,0.16,0.06,0.246,0.157
				C7.914,7.304,7.512,7.034,7.84,7.161C7.589,6.983,7.657,7.15,7.607,7.099C7.514,7.067,7.423,6.963,7.46,6.954
				c0.019-0.021,0.369,0.138,0.397,0.067C7.851,7.026,7.872,7.038,7.869,7.043c0.082,0.01-0.071-0.092,0.057-0.07
				C7.767,6.88,7.954,6.937,7.743,6.836l0.021,0.082C7.726,6.857,7.488,6.715,7.631,6.717C7.673,6.739,7.724,6.78,7.751,6.804
				c0.071,0.011-0.029-0.049,0.043-0.037C8.006,6.865,7.813,6.86,7.958,6.971c0.1,0.023-0.124-0.141,0.1-0.019
				C7.772,6.794,8.124,6.9,7.916,6.759l0.128,0.055C8.027,6.799,7.972,6.759,7.979,6.746l0.162,0.095
				C8.012,6.744,8.295,6.815,8.232,6.747c-0.027,0.08-0.164-0.042-0.273-0.048C7.816,6.542,8.326,6.778,8.3,6.644
				c0.012,0.02-0.099,0.025-0.151-0.019c0.034-0.011,0.096-0.019,0.168-0.008c-0.005-0.08-0.142-0.035-0.214-0.093
				C8.275,6.554,8.048,6.467,8.005,6.42l0.138,0.044c0.115-0.051-0.279-0.111-0.15-0.146l0.179,0.087L8.137,6.355l0.155,0.054
				C8.186,6.333,8.217,6.33,8.276,6.301C8.173,6.282,8.024,6.225,8.029,6.189c0.09,0,0.129,0.051,0.121-0.004
				C8.235,6.219,8.339,6.26,8.206,6.248c0.042,0.017,0.083,0.033,0.128,0.05c0.102,0,0.038-0.06,0.042-0.081
				C8.368,6.224,8.357,6.23,8.339,6.229L8.166,6.108c0.056,0.002,0.096,0.021,0.136,0.04C8.289,6.128,8.226,6.105,8.22,6.078
				c0.112,0.034,0.23,0.061,0.275,0.105L8.389,6.082c0.049,0.006,0.143-0.006,0.183,0.012C8.644,6.068,8.37,5.946,8.469,5.912
				c-0.02-0.005-0.04-0.016-0.055-0.03c0.035-0.043,0.187-0.063,0.037-0.149l0.212,0C8.625,5.677,8.396,5.735,8.33,5.646
				C8.271,5.583,8.508,5.653,8.567,5.643C8.47,5.598,8.265,5.525,8.44,5.498C8.476,5.522,8.441,5.531,8.455,5.548z"/>
		</g>
	</g>
</g>
</svg>
