<?xml version="1.0" encoding="utf-8"?>
<!-- Generator: Adobe Illustrator 26.0.3, SVG Export Plug-In . SVG Version: 6.00 Build 0)  -->
<svg version="1.1" id="レイヤー_1" xmlns="http://www.w3.org/2000/svg" xmlns:xlink="http://www.w3.org/1999/xlink" x="0px"
	 y="0px" viewBox="0 0 9.445 10.75" style="enable-background:new 0 0 9.445 10.75;" xml:space="preserve">
<style type="text/css">
	.st0{fill:#DCE359;}
	.st1{fill:#F4F487;}
</style>
<g>
	<g>
		<g>
			<path class="st0" d="M3.304,9.932c-0.109,0.091-0.211,0.195-0.307,0.305c0.22,0.1,0.724,0.493,0.699,0.079
				c-0.008-0.158-0.27-0.393-0.053-0.522C3.744,9.735,3.849,9.899,3.94,9.937c0.146,0.062,0.323,0.056,0.481,0.056
				c0.121,0.001-0.692-0.005,0,0c1.046,0.01,1.704-0.161,2.577-0.767c0.135-0.093,0.251-0.228,0.393-0.308
				c0.477-0.277,0.89-0.834,1.141-1.314C8.841,7.012,9.064,6.344,9.165,5.68c0.069-0.443-0.058-0.924-0.056-1.373
				C9.111,3.92,9.155,3.628,8.937,3.281C8.911,3.189,8.824,2.981,8.765,2.853C8.639,2.569,8.505,2.281,8.287,2.052
				C8.031,1.8,7.836,1.505,7.554,1.279C6.718,0.568,5.6,0.207,4.502,0.352C3.469,0.49,2.53,0.959,1.787,1.696
				C1.106,2.37,0.665,3.31,0.446,4.232C0.304,4.831,0.282,5.5,0.305,6.115C0.313,6.727,0.502,7.493,0.84,8.005
				c0.661,0.989,1.79,1.734,2.983,1.936"/>
			<g>
				<g>
					<path class="st0" d="M3.81,9.859l0.01-0.01C3.794,9.852,3.764,9.855,3.74,9.859L3.81,9.859z"/>
					<path class="st0" d="M3.339,9.745c0.029,0.07,0.2,0.036,0.263,0.089c0.019-0.008,0.035-0.022,0.046-0.034
						C3.562,9.787,3.417,9.796,3.339,9.745C3.368,9.81,3.407,9.783,3.339,9.745z"/>
					<path class="st0" d="M3.544,9.655c0.006,0.009,0.001,0.01-0.011,0.014c0.021-0.002,0.042,0.002,0.065,0.006
						C3.589,9.665,3.573,9.66,3.544,9.655C3.554,9.68,3.566,9.662,3.544,9.655z"/>
					<path class="st0" d="M3.487,9.676C3.536,9.684,3.459,9.652,3.487,9.676L3.487,9.676z"/>
					<path class="st0" d="M3.264,9.618C3.289,9.622,3.31,9.621,3.33,9.622C3.326,9.615,3.271,9.585,3.288,9.585
						C3.226,9.572,3.238,9.592,3.264,9.618z"/>
					<path class="st0" d="M3.194,9.633l0.033,0.005C3.225,9.631,3.216,9.627,3.194,9.633z"/>
					<path class="st0" d="M3.338,9.667C3.372,9.69,3.414,9.71,3.346,9.707C3.468,9.739,3.46,9.7,3.338,9.667z"/>
					<path class="st0" d="M3.299,9.787L3.344,9.82l0.048-0.002C3.37,9.818,3.301,9.774,3.299,9.787z"/>
					<path class="st0" d="M2.994,9.463C2.993,9.477,2.997,9.494,3.002,9.512c0.016,0.003,0.034,0.004,0.052,0.007
						C3.018,9.502,2.999,9.481,2.994,9.463C2.985,9.47,2.989,9.478,2.994,9.463z"/>
					<path class="st0" d="M3.003,9.512L2.931,9.5C2.987,9.529,3.002,9.527,3.003,9.512z"/>
					<path class="st0" d="M3.165,9.683l0.127,0.002C3.249,9.68,3.131,9.666,3.165,9.683z"/>
					<path class="st0" d="M2.746,9.353c0.029-0.006-0.022-0.049,0.011-0.047C2.708,9.29,2.659,9.285,2.625,9.285
						C2.674,9.3,2.718,9.319,2.746,9.353C2.784,9.346,2.705,9.314,2.746,9.353z"/>
					<path class="st0" d="M2.56,9.272C2.58,9.277,2.601,9.279,2.626,9.283C2.606,9.277,2.582,9.272,2.56,9.272z"/>
					<path class="st0" d="M2.82,9.443C2.819,9.427,2.806,9.411,2.781,9.392C2.777,9.404,2.782,9.425,2.82,9.443
						C2.817,9.436,2.812,9.438,2.82,9.443z"/>
					<path class="st0" d="M2.793,9.43C2.791,9.422,2.772,9.412,2.739,9.403L2.793,9.43z"/>
					<path class="st0" d="M3.098,9.599C3.049,9.6,2.958,9.589,3.032,9.641C3.069,9.631,3.026,9.601,3.098,9.599z"/>
					<path class="st0" d="M2.844,9.496c0.018,0.012,0.047,0.027,0.067,0.04C2.905,9.522,2.912,9.514,2.928,9.51
						C2.902,9.507,2.87,9.498,2.844,9.496z"/>
					<polygon class="st0" points="2.804,9.488 2.844,9.496 2.818,9.481 					"/>
					<path class="st0" d="M2.661,9.357C2.629,9.356,2.594,9.344,2.554,9.321C2.59,9.349,2.628,9.372,2.671,9.39
						C2.678,9.385,2.705,9.378,2.661,9.357C2.624,9.355,2.705,9.376,2.661,9.357z"/>
					<path class="st0" d="M2.206,9.114C2.212,9.134,2.208,9.118,2.206,9.114C2.206,9.118,2.206,9.114,2.206,9.114z"/>
					<path class="st0" d="M2.674,9.397c0.029,0.018,0.051,0.026,0.069,0.021C2.685,9.387,2.659,9.38,2.674,9.397
						C2.702,9.417,2.665,9.394,2.674,9.397z"/>
					<path class="st0" d="M2.455,9.227c0.012,0.014,0.026,0.028,0.041,0.044C2.487,9.253,2.464,9.223,2.455,9.227z"/>
					<path class="st0" d="M2.623,9.341C2.609,9.343,2.594,9.339,2.577,9.339C2.623,9.366,2.641,9.361,2.623,9.341
						C2.606,9.339,2.626,9.347,2.623,9.341z"/>
					<path class="st0" d="M1.997,9.201c0.049-0.048,0.152,0.113,0.201,0.077c0.041-0.03,0.031-0.091,0.013-0.155
						C2.195,9.137,2.168,9.132,2.124,9.112c0.012,0.03,0.08,0.088,0.075,0.107c-0.019,0.053-0.109-0.08-0.119-0.094
						C2.094,9.179,1.94,9.102,1.93,9.144c0.025,0.009,0.059,0.029,0.086,0.04C2.001,9.181,1.993,9.189,1.997,9.201
						C2.018,9.182,1.98,9.18,1.997,9.201z"/>
					<path class="st0" d="M2.332,9.2c0.032,0.004-0.015-0.033-0.044-0.076C2.252,9.113,2.226,9.113,2.214,9.117
						C2.258,9.151,2.324,9.189,2.332,9.2z"/>
					<path class="st0" d="M2.483,9.284C2.451,9.295,2.376,9.274,2.399,9.322c0.078,0.046,0.069,0.01,0.124,0.029
						C2.5,9.343,2.483,9.33,2.472,9.317c0.01-0.004,0.04,0.01,0.033-0.007C2.478,9.249,2.627,9.391,2.496,9.27
						C2.504,9.281,2.49,9.283,2.483,9.284C2.438,9.247,2.506,9.289,2.498,9.272L2.362,9.212C2.398,9.241,2.44,9.265,2.483,9.284
						C2.448,9.298,2.421,9.252,2.483,9.284z"/>
					<path class="st0" d="M2.93,9.673C2.926,9.668,2.927,9.666,2.928,9.662C2.917,9.663,2.913,9.664,2.93,9.673z"/>
					<path class="st0" d="M2.881,9.631c0.063,0.004,0.053,0.014,0.047,0.034c0.12,0.01-0.157-0.136-0.085-0.133
						C2.847,9.56,2.856,9.592,2.881,9.631C2.891,9.631,2.854,9.587,2.881,9.631z"/>
					<path class="st0" d="M2.581,9.426C2.549,9.414,2.503,9.394,2.466,9.377c0.009,0.018,0.026,0.04,0.043,0.057
						C2.538,9.43,2.555,9.441,2.581,9.426z"/>
					<path class="st0" d="M2.203,9.094c0.011-0.005,0.023-0.012,0.032-0.016L2.151,9.074L2.203,9.094z"/>
					<path class="st0" d="M2.071,9.002c0.01-0.003,0.012-0.012,0.021-0.018C2.028,8.956,2.07,8.986,2.071,9.002z"/>
					<path class="st0" d="M1.58,8.585C1.606,8.604,1.587,8.584,1.58,8.585L1.58,8.585z"/>
					<path class="st0" d="M1.608,8.626C1.6,8.615,1.591,8.605,1.584,8.592C1.586,8.598,1.594,8.61,1.608,8.626z"/>
					<path class="st0" d="M1.614,8.612c0.008,0.01,0.016,0.016,0.02,0.02C1.639,8.633,1.639,8.627,1.614,8.612z"/>
					<path class="st0" d="M1.544,8.552c0.012,0.014,0.025,0.028,0.041,0.04C1.581,8.58,1.569,8.568,1.544,8.552
						C1.558,8.567,1.561,8.568,1.544,8.552z"/>
					<g>
						<path class="st0" d="M1.794,8.876C1.732,8.85,1.752,8.864,1.78,8.917c0.031,0.057-0.03,0-0.088-0.056
							c0.101-0.055-0.316-0.278-0.285-0.186C1.422,8.688,1.44,8.7,1.453,8.711c0.028,0.113-0.19-0.156-0.213-0.189
							C1.208,8.489,1.155,8.432,1.105,8.376C1.06,8.317,1.021,8.257,1.016,8.223C1.03,8.266,1.083,8.312,1.108,8.329
							C1.096,8.303,1.09,8.275,1.071,8.249C1.13,8.331,1.155,8.446,1.218,8.426c0.031-0.012,0.099-0.033-0.005-0.139
							c0,0-0.267-0.195-0.246-0.208c0.04-0.024-0.033-0.077-0.103-0.138C0.795,7.882,0.706,7.825,0.681,7.838
							c0.036,0.041,0.143,0.155,0.117,0.2C0.756,7.993,0.687,7.884,0.657,7.891c0.002-0.025,0.143,0.064-0.001-0.064
							c0.058,0.032,0.005-0.088-0.054-0.216C0.558,7.476,0.524,7.329,0.56,7.331C0.515,7.245,0.413,7.166,0.391,7.207
							C0.363,7.141,0.373,7.093,0.35,7.026c0,0.025-0.004,0.043-0.008,0.056c-0.016-0.043-0.009-0.084-0.04-0.084
							c-0.02-0.065,0.019-0.104,0.004-0.177C0.278,6.69,0.186,6.699,0.188,6.715C0.174,6.645,0.23,6.62,0.214,6.52
							c-0.011-0.054-0.052-0.103-0.045-0.17C0.248,6.52,0.18,6.254,0.177,6.254C0.209,6.267,0.309,6.349,0.25,6.156
							C0.221,6.05,0.17,5.964,0.128,5.973c0.017,0.079,0.033,0.16,0.059,0.244c-0.04,0.011-0.054-0.173-0.095-0.161l0.01-0.226
							c0.009,0.133,0.03,0.07,0.041,0.014c0.019-0.099,0.041,0.022,0.073,0.013C0.205,5.796,0.14,5.692,0.19,5.655
							c0.026-0.019,0.064-0.014,0.092,0.019c0.006-0.187-0.116-0.15-0.098-0.342C0.178,5.353,0.166,5.372,0.164,5.393
							C0.159,5.374,0.173,5.209,0.163,5.22c0.02-0.03,0.073-0.077,0.09-0.023C0.225,5.145,0.209,5.093,0.186,5.04
							c0.013,0.052,0.065,0.003,0.087,0.024C0.281,4.996,0.206,4.95,0.191,4.991c0.035-0.066,0.062-0.13,0.098-0.179
							C0.286,4.766,0.218,4.804,0.207,4.831C0.201,4.772,0.202,4.722,0.221,4.666c0.019,0.202,0.078-0.084,0.09-0.191
							C0.323,4.31,0.337,4.144,0.394,3.977C0.38,4.026,0.43,3.967,0.444,3.896c0.067-0.085-0.043-0.165,0.039-0.248
							c-0.032,0.085-0.02,0.118,0.005,0.12c0.005-0.105,0.08-0.253,0.006-0.24C0.527,3.481,0.54,3.44,0.566,3.453l0.034-0.201
							c0.002,0.026,0.02,0.025,0.042-0.016C0.601,3.319,0.611,3.464,0.548,3.499C0.58,3.512,0.627,3.491,0.641,3.55
							c0.052-0.183,0.038-0.31,0.04-0.435c0.003-0.083,0.057-0.132,0.114-0.212L0.78,2.885L0.839,2.88
							c0-0.012-0.001-0.096,0.016-0.029C0.897,2.74,0.902,2.853,0.912,2.897C0.791,2.982,0.918,3.015,0.923,2.942
							C0.924,2.97,0.932,2.982,0.95,2.978c0.014-0.045,0.026-0.093,0.042-0.14C0.87,2.939,1.003,2.642,0.885,2.736
							c0.107-0.074,0.101-0.234,0.149-0.353C1.042,2.401,1.053,2.41,1.073,2.412c0.009-0.091,0.11-0.152,0.161-0.202
							c0.061-0.054,0.019-0.12,0.036-0.157C1.27,2.062,1.276,2.064,1.29,2.055c0.001-0.023,0.014-0.058,0.015-0.077
							c0.052-0.026-0.015,0.119,0.084-0.072c0.033-0.072,0.086-0.131,0.153-0.188c0.093-0.113-0.06-0.016-0.025-0.067
							c0.033-0.048,0.082-0.018,0.117-0.04c0.061-0.034,0.055-0.076,0.073-0.122C1.704,1.515,1.813,1.441,1.819,1.436
							c0.082-0.061,0.13-0.125,0.205-0.187c0.022-0.021,0.134-0.119,0.118-0.11C2.173,1.119,2.187,1.148,2.21,1.133
							C2.151,1.174,2.106,1.239,2.152,1.235C2.17,1.21,2.202,1.182,2.215,1.156c0.02,0.004-0.04,0.041,0.005,0.022
							c0.023-0.035,0.046-0.074,0.057-0.107C2.31,1.049,2.381,1,2.426,0.969C2.402,0.982,2.452,0.981,2.514,0.903
							c-0.033,0.041,0.116-0.02,0.15-0.087C2.675,0.79,2.681,0.742,2.756,0.732l-0.029,0.02C2.744,0.753,2.77,0.744,2.791,0.743
							C2.775,0.704,2.853,0.656,2.932,0.605c0.079-0.044,0.161-0.085,0.147-0.127c0.091,0-0.021,0.056-0.068,0.106
							c0.027-0.005,0.063-0.004,0.097-0.012C3.073,0.586,3.039,0.605,3.01,0.621C3.13,0.609,3.216,0.52,3.274,0.465
							c0.049-0.005,0.025,0.093,0.16-0.009C3.487,0.415,3.345,0.42,3.427,0.38L3.522,0.4c0.09-0.07,0.373-0.096,0.4-0.132
							c0.096-0.011,0.185-0.064,0.265-0.09C4.272,0.15,4.323,0.169,4.35,0.192C4.378,0.19,4.492,0.138,4.52,0.135
							c-0.078,0.02-0.07,0.055-0.079,0.08c0.036-0.01,0.073-0.023,0.115-0.036C4.525,0.193,4.522,0.204,4.543,0.213
							C4.586,0.202,4.789,0.15,4.672,0.149C4.83,0.137,4.881,0.116,4.854,0.173C4.798,0.145,4.762,0.18,4.739,0.197
							c0.113-0.012,0.039,0.007,0.095,0.021C4.925,0.209,4.958,0.175,4.936,0.15c0.1,0.013,0.149,0.019,0.24-0.001
							C5.159,0.16,5.166,0.175,5.152,0.187C5.186,0.183,5.213,0.182,5.25,0.178L5.17,0.223c0.108,0.018,0.091-0.014,0.126-0.035
							c0.052-0.034,0.136,0.018,0.109,0.039C5.457,0.226,5.52,0.177,5.569,0.221c0.062-0.006-0.06-0.047-0.001-0.05
							c0.075-0.002,0.135,0.043,0.203,0.062c0.052,0-0.022-0.049-0.073-0.046c0.224,0.027,0.166,0.15,0.38,0.161
							c-0.078-0.046,0.07-0.05-0.104-0.095C6.077,0.261,6.139,0.339,6.241,0.34L6.169,0.36c0.035,0.01,0.065,0.014,0.093,0.013
							c-0.01,0.008-0.008,0.021-0.019,0.028c0.105-0.012,0.213,0.093,0.292,0.055C6.511,0.458,6.508,0.467,6.527,0.481
							c0.038,0.012,0.103,0.017,0.127,0.05C6.584,0.524,6.5,0.477,6.413,0.46C6.302,0.441,6.367,0.469,6.42,0.495
							c0.009,0,0.017,0,0.018-0.005c0.005,0.004-0.001,0.008-0.005,0.011c0.023,0.01,0.044,0.017,0.047,0.021
							C6.445,0.519,6.414,0.519,6.389,0.524c0.005,0.004,0.012,0.008,0.019,0.012C6.422,0.538,6.442,0.538,6.48,0.539
							C6.457,0.544,6.457,0.551,6.472,0.564c0.084,0.02,0.15,0.02,0.23,0.042l-0.15-0.058c0.069-0.09,0.5,0.229,0.652,0.319
							c0.092,0.041,0.167,0.089,0.237,0.165C7.436,1.024,7.422,1.044,7.41,1.061c0.106,0.078,0.165,0.011,0.152,0
							C7.613,1.102,7.597,1.148,7.65,1.202C7.68,1.213,7.712,1.23,7.771,1.267C7.761,1.261,7.756,1.261,7.752,1.261
							c0.028,0.015,0.055,0.03,0.077,0.059C7.784,1.299,7.765,1.295,7.763,1.299l0.004,0.007C7.78,1.326,7.884,1.401,7.884,1.401
							C7.877,1.403,7.868,1.406,7.859,1.408c0.007,0.004,0.015,0.01,0.024,0.014c0.039,0.043,0.083,0.108,0.136,0.17
							c0.039,0.012,0.069,0.012,0.081-0.005L7.901,1.436c0.022-0.034,0.15,0.1,0.176,0.066l0.134,0.178
							C8.121,1.582,8.149,1.646,8.174,1.695c0.012,0.023,0.014,0.033,0.014,0.039C8.254,1.799,8.349,1.884,8.447,2
							c0.105,0.114,0.176,0.227,0.207,0.271c-0.01-0.021-0.019-0.042-0.03-0.066C8.653,2.258,8.739,2.339,8.75,2.409
							C8.699,2.329,8.685,2.388,8.719,2.468c0.009,0,0.025,0.013,0.034,0.009L8.747,2.509C8.759,2.534,8.765,2.539,8.77,2.538
							C8.769,2.534,8.771,2.53,8.769,2.528l0.007,0.006c0.007-0.009,0.01-0.031,0.036,0.016c-0.006,0.01-0.003,0.02-0.004,0.031
							c0.016,0.03,0.029,0.063,0.039,0.099C8.83,2.663,8.826,2.655,8.817,2.648c0.035,0.105,0.115,0.259,0.116,0.347l0.015,0.029
							c0.019-0.019-0.055-0.155-0.002-0.122C8.944,2.93,8.949,2.964,8.962,3.006C8.966,2.987,8.98,2.99,8.986,2.974l0.043,0.143
							L9.05,3.189c0.008,0.027,0.013,0.048,0.013,0.048c0.035,0.105,0.09,0.2,0.117,0.311c0.025,0.03,0.049,0.066,0.037,0.124
							c-0.01-0.053-0.021-0.084-0.036-0.101l0.003,0.014C9.166,3.621,9.2,3.725,9.235,3.76C9.229,3.772,9.218,3.756,9.21,3.747
							C9.224,3.786,9.23,3.81,9.26,3.79C9.247,3.848,9.25,3.887,9.225,3.89L9.224,3.9l0.045,0.192
							C9.259,4.07,9.241,4.075,9.235,4.123C9.241,4.077,9.229,4.022,9.216,3.97C9.209,4.024,9.19,4.073,9.191,4.114
							c0.018,0.044,0.036,0.088,0.056,0.132c0.029,0.076,0.011,0.136-0.003,0.231l0.021,0.006L9.217,4.517
							c0.003,0.008,0.042,0.079,0,0.032c0.02,0.111-0.048,0.023-0.075-0.01C9.207,4.407,9.08,4.436,9.112,4.503
							c-0.014-0.024-0.029-0.03-0.044-0.018l0.031,0.141c0.049-0.148,0.099,0.173,0.147,0.031C9.202,4.777,9.291,4.904,9.33,5.022
							C9.314,5.011,9.299,5.011,9.283,5.02c0.045,0.08,0.002,0.19-0.009,0.26C9.266,5.358,9.33,5.392,9.339,5.432
							c-0.006-0.009-0.012-0.006-0.017,0.01C9.332,5.463,9.341,5.5,9.354,5.517C9.325,5.572,9.298,5.404,9.323,5.629
							c0.015,0.085,0.001,0.157-0.026,0.239c-0.021,0.145,0.06-0.018,0.056,0.042c-0.002,0.057-0.06,0.058-0.078,0.093
							C9.24,6.064,9.272,6.098,9.283,6.145C9.27,6.124,9.228,6.247,9.223,6.253C9.187,6.35,9.177,6.425,9.155,6.52
							c-0.008,0.029-0.039,0.175-0.03,0.158C9.108,6.711,9.081,6.693,9.072,6.722c0.025-0.068,0.019-0.15-0.014-0.12
							C9.06,6.633,9.05,6.675,9.052,6.705c-0.018,0.007,0.009-0.06-0.016-0.018c0,0.044,0,0.087,0.007,0.12
							C9.027,6.839,9.002,6.923,8.984,6.976c0.01-0.023-0.027,0.007-0.03,0.104c0.001-0.053-0.085,0.082-0.068,0.156
							c0.008,0.028,0.03,0.072-0.026,0.124l0.012-0.036C8.858,7.334,8.842,7.355,8.826,7.37c0.073,0.046-0.126,0.336-0.065,0.383
							C8.687,7.807,8.749,7.701,8.749,7.628c-0.02,0.021-0.048,0.053-0.064,0.07C8.704,7.667,8.716,7.632,8.727,7.6
							C8.648,7.688,8.62,7.804,8.61,7.883C8.575,7.918,8.533,7.825,8.492,7.991c-0.015,0.064,0.09-0.029,0.051,0.056
							C8.514,8.061,8.488,8.078,8.457,8.089C8.416,8.194,8.213,8.39,8.214,8.436C8.141,8.503,8.092,8.595,8.046,8.664
							c-0.055,0.074-0.108,0.09-0.144,0.09C7.888,8.773,7.805,8.874,7.784,8.895c0.059-0.06,0.035-0.084,0.028-0.109
							c-0.031,0.03-0.058,0.062-0.084,0.091C7.75,8.849,7.746,8.836,7.721,8.841c-0.028,0.034-0.178,0.19-0.079,0.126
							C7.511,9.065,7.478,9.11,7.474,9.047C7.536,9.039,7.552,8.99,7.562,8.962C7.469,9.036,7.527,8.977,7.469,8.996
							C7.397,9.049,7.401,9.096,7.428,9.105C7.353,9.152,7.324,9.162,7.27,9.24c0.002-0.019-0.013-0.024-0.011-0.043
							C7.234,9.221,7.215,9.243,7.191,9.27l0.031-0.087C7.127,9.24,7.159,9.253,7.147,9.291c-0.02,0.061-0.11,0.086-0.105,0.046
							C7.003,9.373,6.99,9.453,6.923,9.452C6.882,9.499,7,9.448,6.961,9.486C6.907,9.538,6.833,9.544,6.768,9.573
							C6.73,9.612,6.817,9.593,6.854,9.562c-0.183,0.129-0.227,0.001-0.386,0.14c0.085-0.02-0.018,0.086,0.137-0.005
							c-0.075,0.07-0.18,0.046-0.255,0.116l0.04-0.066c-0.033,0.02-0.058,0.04-0.077,0.058c0.004-0.012-0.01-0.021-0.006-0.033
							C6.239,9.855,6.088,9.857,6.054,9.93c0.017-0.017,0.013-0.025-0.012-0.024C6.006,9.916,5.955,9.96,5.917,9.954
							C5.972,9.906,6.07,9.892,6.144,9.847C6.288,9.753,6.067,9.85,6.052,9.843c0.032-0.02,0.056-0.039,0.069-0.06
							C5.972,9.803,5.928,9.882,5.83,9.933l0.149-0.063c0.014,0.12-0.53,0.17-0.699,0.194c-0.099,0.03-0.184,0.044-0.288,0.035
							c0.015,0.002-0.009-0.067,0.013-0.075c-0.084,0.012-0.104,0.028-0.148,0.053c-0.004-0.008-0.025-0.014-0.032-0.024
							c-0.084,0.043-0.091,0.065-0.23,0.089c0.068-0.02-0.083-0.037-0.029-0.056c-0.062,0-0.112,0.01-0.153,0.025
							c-0.043,0-0.098-0.009-0.159-0.014c-0.03-0.001-0.062-0.003-0.092-0.005l-0.01,0.001l-0.009-0.001l-0.002,0l-0.006-0.001
							l-0.008,0l-0.015-0.004L4.038,9.995l0.07-0.107l0.017-0.003l0.007-0.003l0.004-0.001c0.004,0,0.002,0,0.002,0L4.162,9.88
							C4.176,9.881,4.19,9.876,4.207,9.876c-0.008-0.016,0.029-0.022,0.09-0.03c0.031-0.003,0.069-0.003,0.108-0.007l0.017,0
							l0.006-0.001l0.006,0.001l0.008,0.001l0.011,0c0.012,0.007,0-0.013,0.07,0.03c0.155,0.239-0.126,0.299-0.056,0.269
							l-0.02,0.002l-0.01,0.001l-0.035,0.001l-0.068,0c-0.185,0.01-0.42-0.03-0.526-0.102c0.027,0.021,0.06,0.046,0.088,0.056
							c-0.035-0.012-0.108-0.052-0.144-0.076C3.716,9.995,3.685,9.97,3.682,9.957c0.021,0.007,0.045,0.014,0.043-0.004
							c0.003-0.015-0.016-0.044-0.028-0.051C3.69,9.904,3.681,9.921,3.685,9.915c0.005-0.018,0.017-0.016,0.02-0.028
							c0.016-0.042-0.011-0.005-0.009-0.011c-0.002,0.004,0,0,0.003-0.003C3.701,9.87,3.704,9.868,3.701,9.87L3.692,9.88
							L3.685,9.887L3.679,9.892L3.678,9.892l0,0l0,0l0.052,0.04l0,0l0,0l0,0.002C3.718,9.918,3.699,9.917,3.692,9.919
							C3.689,9.915,3.677,9.923,3.688,9.956c0.018,0.067,0.078,0.167,0.064,0.224c0.067,0.031-0.063-0.168,0.005-0.127
							c0.001,0.031,0.007,0.058,0.024,0.108c0.002-0.019,0.019-0.019,0.023-0.036c0.022,0.046,0.034,0.111,0.042,0.178L3.837,10.39
							c-0.007,0.033-0.016,0.067-0.035,0.098c-0.036,0.082-0.142,0.133-0.21,0.126c-0.132-0.01-0.208-0.056-0.295-0.092
							c-0.014-0.035-0.14-0.091-0.21-0.097c-0.009-0.021,0.075,0.014,0.046-0.017c-0.12-0.02-0.234-0.095-0.292-0.145
							C2.914,10.197,3,10.148,3,10.109c0.036,0.007,0.119-0.03,0.178-0.047c0.063-0.017,0.103-0.014,0.112,0.019l0.023-0.035
							c0.031,0.029-0.094,0.102-0.05,0.118c-0.021,0.012-0.059,0.029-0.058,0.043c-0.001,0.01,0.001,0.022,0.007,0.036
							c0.012-0.005,0.068-0.009,0.06-0.02c0.033,0.015,0.044,0.011,0.049-0.008c-0.048,0.045,0.39,0.283,0.268,0.105l-0.007-0.025
							c-0.014-0.044-0.053-0.107-0.09-0.183c-0.018-0.033-0.034-0.084-0.042-0.135C3.445,9.947,3.443,9.915,3.445,9.887
							C3.454,9.855,3.469,9.82,3.484,9.79c0.017-0.033,0.052-0.051,0.083-0.077l0.024-0.015l0.002,0l0.022-0.013l0.002,0l0.004,0
							L3.63,9.683C3.647,9.68,3.645,9.677,3.68,9.674c0.06-0.001,0.09,0.013,0.101,0.013c0.013,0,0.017-0.006-0.004-0.025
							c0.101,0.094,0.105,0.037,0.167,0.072C3.965,9.78,3.97,9.812,3.984,9.842C4.025,9.836,4.001,9.815,4.015,9.8
							c0.068,0.018,0.172,0.045,0.277,0.057c0.028,0,0.059,0.004,0.084,0.006l0.042,0.001l0.017,0l0.001,0.001l0,0l0.001,0.103
							l0-0.073c-0.002-0.039-0.001-0.03-0.001-0.03l0,0L4.434,9.865L4.429,9.866L4.416,9.868c-0.004,0.001-0.009,0-0.027,0.006
							c-0.008-0.056-0.137,0.159-0.027,0.213c0.067,0.039,0.048,0.018,0.057,0.024c0.021,0,0.006,0.001,0.008,0.001l-0.012-0.001
							c-0.053-0.001-0.108,0.003-0.158,0.013c-0.044-0.016,0.006-0.051-0.067-0.059c0.028,0.016,0.024,0.025,0.008,0.03
							c-0.01,0.004-0.019,0.007-0.033,0.008l-0.019,0.002c-0.002,0-0.006,0,0,0l0.014,0.003c0.005-0.003,0.002-0.001,0.029-0.009
							L4.253,9.93L4.18,9.87C4.154,9.864,4.159,9.868,4.155,9.867L4.151,9.865c-0.002,0,0,0,0,0l0.013,0
							c0.062-0.007,0.131-0.01,0.099-0.03c0.069,0.061,0.286,0.031,0.255,0.11c0.079,0.004,0.098-0.037,0.052-0.05
							c0.092,0.003,0.267-0.028,0.312-0.03c0.054,0.002,0.122-0.006,0.176-0.01c0.129-0.011,0.332-0.051,0.408-0.014
							C5.39,9.808,5.602,9.773,5.462,9.754C5.569,9.732,5.615,9.71,5.661,9.733c0.06,0.036,0.172-0.065,0.161-0.08l0.06-0.025
							C5.853,9.636,5.79,9.709,5.888,9.689c0-0.013,0.074-0.09,0.12-0.077C5.903,9.641,5.977,9.681,6.089,9.62L6.036,9.59
							C6.08,9.571,6.175,9.531,6.291,9.48C6.406,9.422,6.542,9.355,6.67,9.284c0.262-0.142,0.47-0.291,0.486-0.244
							c-0.08,0.057,0.029,0.036,0.092-0.021C7.163,9.053,7.32,8.881,7.159,8.988C7.192,8.952,7.24,8.906,7.263,8.871
							C7.258,8.835,7.297,8.773,7.375,8.72c0.07-0.047,0.141-0.076,0.211-0.121c0.077-0.042,0.096-0.108,0.106-0.076
							C7.744,8.43,8.01,8.242,8.008,8.196c0.01,0.009,0.032-0.002,0.038,0.008c0.023-0.066,0.042-0.142,0.103-0.222
							C8.178,7.95,8.204,7.919,8.233,7.884c0.002,0.019,0.01,0.021,0.024,0.008c0.002-0.06,0.012-0.122,0.073-0.214
							c0.024-0.005,0.071-0.098,0.101-0.168c0.084,0.043,0.103-0.344,0.223-0.352C8.647,7.113,8.677,6.922,8.714,6.889
							c-0.02-0.082,0.215-0.411,0.073-0.312c0.06-0.077,0.048-0.223,0.055-0.302c0.007-0.113,0.07-0.069,0.088-0.08
							c0.021-0.106-0.089-0.016-0.019-0.152C8.914,6.14,9.073,5.897,9.068,5.875L9.043,5.913c-0.001-0.107,0.161-0.34,0.032-0.276
							C9.089,5.58,9.115,5.411,9.12,5.364c0.003-0.016-0.005-0.295-0.031-0.146C9.087,5.18,9.064,4.923,9.065,4.907
							C9.021,4.906,9.018,4.678,9.021,4.598C9.03,4.687,9.05,4.643,9.065,4.616C9.032,4.577,9.019,4.531,9.043,4.453
							c-0.038-0.003-0.118,0-0.128-0.168c0.003,0.029,0.014,0.044,0.025,0.041c0.004-0.024,0.002-0.045-0.007-0.06
							c0.014,0.008,0.027,0.013,0.042,0.016C8.93,4.2,8.974,4.091,8.956,3.979c0.014,0.037,0.03,0.002,0.045-0.012
							C8.975,3.965,8.983,3.929,8.99,3.894C8.983,3.896,8.982,3.9,8.981,3.909C8.977,3.848,8.968,3.839,8.953,3.883
							C8.976,3.802,8.96,3.714,8.965,3.638c0.009-0.047,0.032-0.127-0.004-0.184C8.931,3.404,8.9,3.461,8.864,3.412
							C8.85,3.392,8.848,3.388,8.836,3.355C8.814,3.309,8.819,3.308,8.812,3.283C8.807,3.248,8.805,3.211,8.796,3.175
							c-0.02-0.064-0.033-0.069-0.06-0.119c-0.036-0.07-0.062-0.145-0.099-0.22C8.619,2.808,8.596,2.781,8.573,2.758
							c0.019,0.014,0.028,0.017,0.04,0.015L8.602,2.745C8.59,2.721,8.579,2.687,8.568,2.655L8.533,2.631
							c0.006-0.001,0.011-0.012,0.015-0.02C8.533,2.581,8.52,2.564,8.512,2.597C8.509,2.505,8.46,2.544,8.428,2.501L8.422,2.418
							L8.379,2.372c-0.001,0.005-0.005,0.011-0.01,0.013L8.331,2.328C8.325,2.326,8.32,2.323,8.315,2.322
							C8.317,2.316,8.317,2.31,8.316,2.305C8.284,2.266,8.252,2.221,8.223,2.177C8.183,2.174,8.141,2.19,8.168,2.127
							C8.095,2.075,8.07,2.022,8.093,2.093C8.062,2.011,7.877,1.79,7.806,1.704c-0.026-0.034-0.019-0.068-0.06-0.105
							C7.664,1.525,7.647,1.576,7.565,1.509c-0.086-0.071-0.017-0.1-0.206-0.193c0.013-0.019,0.004-0.065-0.05-0.117
							c-0.052,0.013-0.137-0.05-0.182-0.11C7.076,1.074,7.016,1.091,6.965,1.07C6.878,1.027,6.79,0.919,6.768,0.885
							C6.742,0.949,6.604,0.88,6.493,0.819c-0.057-0.037-0.1-0.064-0.168-0.094C6.217,0.686,6.117,0.664,6.003,0.637
							c0.019,0.005-0.184-0.032-0.139-0.03C5.793,0.606,5.737,0.604,5.65,0.579c-0.064-0.017-0.085-0.03-0.16-0.036
							c0.095-0.002,0.019-0.038,0.001-0.065L5.466,0.473C5.449,0.477,5.431,0.479,5.42,0.486c-0.014-0.01,0.006-0.017,0.008-0.023
							L5.392,0.455c-0.082,0-0.263,0.011-0.144,0.055c-0.025-0.004-0.071,0.013-0.07,0.028c-0.06-0.035-0.165-0.041-0.209-0.083
							c0.084,0.056-0.202,0.013-0.147,0.069C4.799,0.511,4.77,0.508,4.749,0.498c-0.068-0.003-0.14-0.007-0.206-0.01
							c-0.089,0.007-0.14,0.043-0.132,0.013c-0.053,0.019-0.16,0.031-0.257,0.04C4.059,0.559,3.97,0.572,3.958,0.585
							C3.956,0.572,3.933,0.567,3.933,0.553C3.875,0.591,3.812,0.634,3.715,0.666C3.673,0.678,3.63,0.69,3.591,0.697
							c0.01-0.013,0.005-0.018-0.015-0.02c-0.04,0.048-0.089,0.079-0.192,0.121C3.363,0.786,3.272,0.841,3.202,0.873
							C3.161,0.782,2.913,1.081,2.814,1.019c-0.02,0.041-0.16,0.174-0.207,0.18C2.574,1.275,2.205,1.414,2.371,1.415
							C2.28,1.442,2.202,1.559,2.16,1.624C2.091,1.719,2.064,1.647,2.043,1.646C1.967,1.725,2.11,1.712,1.976,1.781
							C2.025,1.699,1.757,1.81,1.751,1.834l0.045-0.017c-0.052,0.092-0.319,0.2-0.176,0.218C1.575,2.073,1.455,2.2,1.422,2.237
							c-0.016,0.01-0.173,0.236-0.064,0.136c-0.02,0.034-0.161,0.254-0.169,0.26c0.038,0.029-0.092,0.213-0.131,0.276
							c0.036-0.077-0.004-0.053-0.03-0.041c0.005,0.049-0.002,0.097-0.056,0.15c0.029,0.024,0.1,0.055,0.039,0.2
							c0.005-0.03,0.004-0.046-0.007-0.048c-0.014,0.018-0.024,0.038-0.02,0.054C0.977,3.212,0.968,3.202,0.957,3.193
							C0.961,3.287,0.893,3.366,0.862,3.48c0-0.044-0.025-0.015-0.047-0.009c0.05,0.03-0.114,0.154-0.024,0.135
							C0.701,3.769,0.644,3.978,0.59,4.169c-0.021,0.062-0.041,0.143-0.066,0.18C0.494,4.371,0.515,4.465,0.51,4.502
							c-0.007-0.01-0.019-0.006-0.026-0.015C0.5,4.568,0.49,4.666,0.509,4.751C0.486,4.691,0.462,4.71,0.433,4.769L0.481,4.88
							C0.465,4.876,0.449,4.896,0.436,4.897c0.009,0.045,0.003,0.092-0.012,0.141c0-0.018-0.006-0.02-0.013-0.011
							c0.052,0.024,0.022,0.205,0.067,0.247C0.43,5.312,0.476,5.41,0.432,5.435c0.019,0.045,0.101,0.071,0.025,0.1
							C0.47,5.619,0.453,5.673,0.485,5.607C0.463,5.681,0.444,5.779,0.457,5.891C0.47,6.023,0.522,6.152,0.484,6.265
							c0.007-0.026,0.004-0.05-0.008-0.068c0.017,0.148,0.012,0.273,0.02,0.399c0.016,0.125,0.037,0.252,0.091,0.397
							C0.615,7.094,0.679,7.182,0.712,7.29c0.038,0.09,0.042,0.191,0.096,0.275c0.064,0.105,0.063,0.162,0.128,0.273
							c0.039,0.08,0.114,0.14,0.17,0.216C1.093,8.04,1.225,8.195,1.194,8.168c0.052,0.049,0.098,0.076,0.153,0.152
							c0.037,0.055,0.046,0.079,0.101,0.13c-0.086-0.064-0.03,0.039-0.042,0.06C1.425,8.518,1.452,8.536,1.47,8.539
							C1.475,8.56,1.424,8.533,1.45,8.567C1.504,8.601,1.689,8.75,1.617,8.628c0.017,0.021,0.068,0.037,0.076,0.023
							c0.024,0.065,0.097,0.134,0.108,0.195C1.772,8.747,1.963,8.971,1.957,8.89C1.97,8.925,1.998,8.948,2.004,8.978
							C1.933,8.918,1.842,8.899,1.794,8.876z"/>
					</g>
					<path class="st0" d="M1.853,8.804C1.832,8.79,1.813,8.776,1.795,8.763c0.019,0.019,0.032,0.036,0.04,0.054
						C1.834,8.801,1.839,8.798,1.853,8.804z"/>
					<path class="st0" d="M2.267,9.35c0.02,0.005,0.046,0.022,0.039-0.001C2.281,9.336,2.219,9.313,2.267,9.35
						C2.278,9.352,2.227,9.318,2.267,9.35z"/>
					<path class="st0" d="M1.835,8.934C1.824,8.96,1.869,8.981,1.915,9.01C1.875,8.984,1.956,8.988,1.835,8.934
						C1.821,8.962,1.89,8.959,1.835,8.934z"/>
					<path class="st0" d="M1.925,9.016c0.014,0.008,0.026,0.017,0.04,0.029C1.981,9.034,1.949,9.027,1.925,9.016z"/>
					<path class="st0" d="M1.482,8.519c0.014,0.024,0.038-0.015,0.04,0.003C1.568,8.517,1.38,8.434,1.482,8.519z"/>
					<path class="st0" d="M1.812,9.034C1.817,9.025,1.818,9.01,1.82,8.997C1.779,8.989,1.768,8.998,1.812,9.034z"/>
					<path class="st0" d="M1.506,8.741C1.561,8.798,1.54,8.78,1.589,8.81C1.584,8.805,1.511,8.73,1.506,8.741z"/>
					<path class="st0" d="M1.589,8.81c0.02,0.018,0.04,0.035,0.055,0.04C1.633,8.841,1.611,8.821,1.589,8.81z"/>
					<path class="st0" d="M1.712,8.972C1.692,8.948,1.686,8.933,1.654,8.905L1.712,8.972z"/>
				</g>
			</g>
		</g>
		<g>
			<path class="st1" d="M8.385,5.974l0.122-0.01c0.171,0.092,0.099,0.112,0.266,0.114C8.386,5.976,8.772,5.916,8.378,5.82
				l0.088-0.006C8.462,5.821,8.482,5.827,8.48,5.834c0.197-0.011-0.278-0.099-0.21-0.148c0.036-0.013,0.097-0.019,0.141,0.004
				L8.322,5.624c0.012-0.011,0.081,0.005,0.07,0.017L8.37,5.562l0.012,0.003c-0.06-0.021-0.152-0.063-0.191-0.08
				c0.061-0.007,0.041,0.015,0.091,0.018L8.192,5.447c0.106,0,0.202,0.049,0.182,0.076c0.403,0.026-0.096-0.05,0.151-0.1
				l0.046,0.048c0.23,0.008,0.152-0.037,0.3-0.065C8.796,5.409,8.499,5.45,8.408,5.392c0.031-0.008,0.049-0.024-0.027-0.061
				C8.523,5.351,8.49,5.32,8.485,5.29l0.19,0.024c-0.051-0.04-0.146-0.049-0.23-0.075C8.467,5.203,8.612,5.208,8.738,5.21
				c0.037-0.058-0.24,0.022-0.267-0.053C8.549,5.114,8.473,5.07,8.361,5.004c0.066-0.031,0.115,0.012,0.171,0.001l-0.15-0.037
				c0.002-0.006,0.05-0.003,0.074,0C8.397,4.939,8.264,4.959,8.214,4.919c-0.21-0.012,0.312-0.082,0.067-0.138
				c0.052-0.015,0.116,0.004,0.191-0.003C8.31,4.702,8.352,4.711,8.139,4.669l0.119-0.064C8.121,4.659,7.949,4.63,7.807,4.618
				C7.739,4.639,7.68,4.657,7.654,4.664c0,0-0.104-0.029-0.105-0.029c0.03-0.012,0.094-0.018,0.174-0.023
				c-0.019,0-0.033-0.001-0.048,0c0.066-0.031,0.174-0.044,0.283-0.044C7.923,4.58,7.883,4.593,7.846,4.606
				C7.96,4.6,8.089,4.599,8.198,4.581C8.177,4.579,8.157,4.572,8.145,4.564c0.031-0.001,0.061-0.002,0.078-0.007
				c0.02-0.004-0.022-0.005-0.071-0.009l0.206-0.05L8.272,4.511l0.111-0.117C8.156,4.369,7.845,4.4,7.738,4.351
				c0.155-0.027,0.244-0.072,0.417-0.13c-0.176,0.083,0.1,0.05,0.077,0.116c0.013-0.032,0.099-0.05,0.13-0.05
				c0,0-0.048-0.012-0.097-0.026C8.216,4.252,8.166,4.242,8.166,4.242c0.147-0.043,0.102-0.053,0.152-0.097
				c-0.274,0.111-0.209,0-0.31-0.001c0.092-0.039,0.19-0.068,0.185-0.015c0.188-0.131-0.351,0.066-0.192-0.047
				c0.007,0.01-0.005,0.02,0.046,0.003C7.953,4.097,7.995,4.013,8.081,3.989l0.005,0.01c0.009-0.085-0.102-0.201-0.324-0.084
				C7.79,3.898,8.031,3.773,8.077,3.752c0,0-0.202,0.075-0.398,0.158C7.483,3.994,7.293,4.086,7.293,4.086
				c0.19-0.104,0.603-0.419,0.739-0.431c0.019-0.03,0.036-0.071-0.049-0.06c-0.02,0.026-0.249,0.196-0.272,0.193
				C7.89,3.622,7.804,3.696,7.943,3.536c-0.03,0.04-0.319,0.217-0.325,0.19C7.663,3.7,7.892,3.533,7.926,3.52
				c0,0-0.077,0.033-0.156,0.067C7.693,3.625,7.617,3.658,7.617,3.658c0.056-0.021,0.23-0.161,0.298-0.232
				c-0.051,0.045-0.032-0.055-0.07-0.05L7.802,3.451C7.795,3.354,7.39,3.684,7.361,3.627C7.419,3.587,7.7,3.368,7.708,3.313
				C7.563,3.408,7.038,3.797,6.914,3.855L6.98,3.781L6.87,3.832c0.202-0.168,0.648-0.477,0.844-0.576
				c0.039-0.073,0.081-0.082,0.044-0.11c0.059-0.072,0.12-0.073,0.134-0.067L7.863,2.96C7.719,3.097,7.662,3.039,7.547,3.158
				c0,0,0.056-0.017,0.112-0.035c0.057-0.012,0.115-0.027,0.115-0.027C7.627,3.232,7.318,3.434,7.299,3.369
				c0.047-0.066,0.264-0.242,0.309-0.287C7.553,3.123,7.469,3.129,7.498,3.09l0.096-0.055c0.024-0.083-0.229,0.146-0.132-0.024
				c0-0.019,0.139-0.222,0.058-0.139C7.388,3.06,6.906,3.576,6.784,3.697c0.008-0.017,0.1-0.207,0.16-0.3
				c0.099-0.151,0.308-0.297,0.397-0.425c-0.039,0.04-0.094,0.081-0.112,0.095C7.247,3.018,7.346,2.943,7.302,2.94
				C7.165,3.088,7.259,2.882,7.179,3.059C7.115,3.079,7.177,3.002,7.143,2.984c-0.075,0.109-0.311,0.323-0.368,0.35
				c0.032-0.04,0.07-0.095,0.086-0.122C6.825,3.157,6.851,3.068,6.804,3.029C6.831,2.986,6.84,2.921,6.902,2.858
				C6.873,2.88,6.826,2.932,6.81,2.927C6.88,2.761,6.859,2.928,6.958,2.74c-0.07,0.093-0.136,0.104-0.2,0.147
				C6.664,3.044,6.789,2.952,6.855,2.909C6.707,3.113,6.518,3.3,6.412,3.364C6.339,3.39,6.484,3.22,6.458,3.244
				C6.411,3.161,6.159,3.573,6.201,3.387c0.062-0.15,0.168-0.272,0.224-0.375C6.49,2.984,6.422,3.13,6.444,3.139l0.015-0.081
				c0.04-0.04,0.083-0.059,0.07-0.013c0.057-0.13-0.113-0.102-0.106-0.253c-0.039,0.04-0.085,0.077-0.11,0.138l0.032-0.01
				C6.296,3.041,6.22,3.055,6.213,3.118C6.144,3.184,6.047,3.295,6.05,3.214l0.081-0.164C6.107,3.098,6.102,3.156,6.139,3.113
				C6.087,3.178,6.204,2.868,6.073,3.07L6.036,3.194C5.968,3.26,5.853,3.416,5.85,3.35C5.78,3.516,5.867,3.336,5.787,3.532
				C5.894,3.291,5.851,3.58,5.955,3.323C5.86,3.548,5.941,3.434,5.864,3.629c0.028-0.053,0.048-0.103,0.055-0.067
				C5.93,3.547,5.946,3.529,5.951,3.518L5.951,3.525l0.002-0.007c0.005-0.007,0.006-0.01,0.001-0.003
				C5.961,3.488,5.973,3.46,5.987,3.428C6.068,3.314,6.105,3.34,6.154,3.285c0,0.032-0.041,0.056-0.067,0.116l0.075-0.08
				c-0.065,0.117-0.079,0.212-0.149,0.26l0.022,0.023C6.011,3.677,6.018,3.717,6.059,3.678C6.057,3.712,6.174,3.573,6.105,3.654
				l0.089-0.041L6.174,3.64c0.032,0.04,0.213-0.12,0.117,0.109c0.032-0.019,0.073-0.04,0.071,0.006L6.297,3.848
				C6.34,3.829,6.273,3.978,6.355,3.89C6.173,4.144,6.383,4,6.377,4.065l0.099-0.11C6.491,3.977,6.533,3.96,6.598,3.938l0.089-0.1
				C6.783,3.78,6.671,3.955,6.711,3.977C6.672,4.008,6.674,3.993,6.692,3.966C6.511,4.206,6.924,3.893,6.79,4.074
				C6.835,4.05,6.829,4.069,6.808,4.096c0.001-0.001-0.004,0-0.007,0.002C6.802,4.1,6.802,4.101,6.803,4.103
				c-0.014,0.018-0.034,0.04-0.046,0.057c0.023-0.026,0.04-0.046,0.047-0.056c0.007,0.002,0.028,0.002,0.063-0.008L6.76,4.192
				c0.003-0.001,0.003-0.001,0.007-0.001C6.73,4.233,6.827,4.156,6.904,4.084c0.024-0.01,0.048-0.024,0.08-0.04
				c-0.175,0.149,0.08-0.021-0.107,0.14c0.099-0.066,0.108-0.006,0.32-0.139C7.17,4.062,7.159,4.074,7.154,4.071
				C7.138,4.098,7.123,4.126,7.191,4.1L7.043,4.203l0.226-0.106C7.183,4.175,7.132,4.212,7.004,4.273
				c0.205-0.075,0.085-0.014,0.29-0.084L7.191,4.246C7.2,4.255,7.35,4.202,7.268,4.254C7.09,4.381,7.303,4.413,7.139,4.55
				c0.326-0.122-0.136,0.075,0.117,0C7.18,4.575,7.135,4.596,7.066,4.607C7.15,4.616,6.949,4.68,7.174,4.649
				C7.097,4.669,7.056,4.67,7.01,4.684C7.028,4.682,7.08,4.676,7.034,4.69C6.987,4.702,6.966,4.7,6.929,4.704
				c0.02,0.02,0.27-0.021,0.505-0.059C7.329,4.683,7.342,4.686,7.497,4.683C7.422,4.702,7.34,4.722,7.312,4.701
				C7.303,4.717,7.204,4.787,7.395,4.776C7.347,4.785,7.382,4.797,7.405,4.8C7.397,4.832,7.382,4.831,7.399,4.866l0.032-0.011
				C7.661,4.87,7.483,4.887,7.51,4.917L7.485,4.914C7.316,4.975,7.562,4.947,7.371,5.005L7.514,5.01
				c0.307,0.025-0.185,0.048-0.071,0.094l0.083-0.006C7.628,5.129,7.104,5.116,7.063,5.13C7.036,5.132,7.022,5.118,7.002,5.111
				C6.82,5.139,7.187,5.137,7.227,5.181C7.126,5.174,6.974,5.142,6.953,5.162c-0.082,0,0.31,0.121,0.114,0.13
				C7.146,5.294,7.225,5.3,7.279,5.328c0.021,0.034-0.3,0.024-0.066,0.095c-0.021,0-0.041-0.002-0.062-0.007
				C7.209,5.451,7.24,5.508,7.366,5.551c-0.485-0.09,0.202,0.195-0.24,0.09l0.005,0.073L7.087,5.7
				C7.045,5.733,7.147,5.775,7.248,5.82C7.215,5.823,7.177,5.804,7.154,5.797C7.049,5.835,7.066,5.843,7.265,5.965l-0.144-0.04
				c0.076,0.041-0.248,0.016-0.106,0.132c-0.016-0.008-0.041-0.017-0.06-0.03c0.138,0.13-0.44,0.003,0.049,0.228L7.11,6.35
				C7.17,6.308,7.321,6.45,7.41,6.459c0.02,0.038-0.177-0.001-0.186-0.04L7.25,6.424C6.999,6.306,7.127,6.459,6.952,6.379
				C6.916,6.497,6.725,6.527,6.664,6.612l0.194,0.094L6.828,6.735c-0.05-0.017-0.152-0.074-0.131-0.092
				C6.584,6.593,6.764,6.733,6.803,6.758C6.701,6.755,6.597,6.613,6.585,6.622l0.001,0.027l0.026,0.009
				c0.065,0.059,0.145,0.11,0.119,0.133C6.683,6.783,6.612,6.725,6.599,6.728C6.587,6.718,6.579,6.717,6.588,6.733l-0.04,0.029
				L6.702,6.84C6.76,6.905,6.669,6.875,6.845,6.961C6.578,6.825,6.65,7.049,6.563,7.01c0.08,0.098,0.061,0.123,0.027,0.141
				c0.032,0.015,0.187,0.134,0.145,0.146c-0.297-0.266-0.173-0.07-0.4-0.246c0.156,0.114-0.02,0.092,0.196,0.254
				C6.491,7.302,6.424,7.204,6.344,7.153C6.413,7.309,6.185,7.163,6.175,7.24c0.033,0.043,0.092,0.096,0.13,0.166L6.114,7.227
				c0.008,0.027,0.177,0.249,0.047,0.117c0.026,0.032,0.072,0.082,0.074,0.102C6.104,7.378,6.085,7.461,6.036,7.513
				C5.99,7.559,5.918,7.601,5.783,7.389c0.051,0.092,0.043,0.104,0.033,0.11C5.831,7.52,5.86,7.621,5.885,7.686
				c0,0-0.031-0.042-0.061-0.086C5.797,7.559,5.773,7.517,5.773,7.517C5.82,7.705,5.724,7.547,5.767,7.729L5.776,7.69
				c0.031,0.224,0.168,0.466,0.249,0.737c-0.04-0.253,0.231,0.318,0.178-0.046C6.24,8.431,6.226,8.472,6.258,8.53
				C6.233,8.411,6.237,8.377,6.298,8.412L6.305,8.44c0.091-0.078,0.19,0.014,0.352,0.014l-0.08-0.118
				c0.034,0.001,0.062,0.035,0.091,0.059C6.583,8.197,6.595,8.427,6.499,8.209c0.18,0.225,0.159-0.1,0.366,0.152
				c0.038-0.023-0.107-0.125-0.068-0.147l0.062,0.061L6.799,8.181c0.035-0.001,0.113,0.076,0.158,0.135
				c-0.011-0.003,0,0.028-0.004,0.04c0.094,0.057,0.061-0.099,0.092-0.08L6.98,8.263c0.034-0.141,0.23-0.155,0.173-0.36l-0.052-0.04
				C7.065,7.718,7.197,7.864,7.217,7.76l0.009,0.011C7.191,7.716,7.182,7.677,7.2,7.663c0.046,0.068,0.143,0.065,0.19,0.141
				c-0.048-0.154-0.051-0.1-0.211-0.298l0.095,0.059c-0.067-0.075-0.107-0.11-0.105-0.159C7.221,7.489,7.32,7.483,7.395,7.59
				c0.252,0.067-0.117-0.247,0.194-0.083C7.36,7.301,7.408,7.474,7.365,7.418c-0.089-0.043-0.168-0.156-0.13-0.161
				C7.257,7.239,7.586,7.437,7.622,7.37C7.616,7.374,7.634,7.388,7.631,7.393c0.08,0.019-0.06-0.1,0.064-0.063
				C7.549,7.219,7.728,7.297,7.53,7.173l0.011,0.084C7.51,7.191,7.29,7.023,7.433,7.042c0.039,0.026,0.085,0.074,0.109,0.101
				C7.611,7.162,7.518,7.09,7.589,7.11c0.199,0.121,0.008,0.095,0.139,0.221c0.097,0.034-0.107-0.154,0.102-0.008
				C7.563,7.134,7.901,7.28,7.711,7.116l0.121,0.07C7.816,7.168,7.766,7.122,7.774,7.11l0.15,0.113
				C7.807,7.112,8.081,7.215,8.026,7.14C7.99,7.216,7.867,7.079,7.76,7.061c-0.124-0.172,0.356,0.12,0.345-0.016
				c0.01,0.021-0.101,0.014-0.147-0.036C7.993,7.003,8.055,7.001,8.125,7.02c0.004-0.08-0.137-0.051-0.202-0.117
				c0.167,0.05-0.049-0.062-0.086-0.114l0.132,0.06c0.12-0.038-0.265-0.142-0.133-0.162l0.167,0.107L7.976,6.74l0.147,0.071
				C8.028,6.724,8.058,6.725,8.12,6.702c-0.099-0.03-0.242-0.104-0.232-0.139c0.089,0.01,0.123,0.066,0.12,0.01
				c0.08,0.044,0.179,0.097,0.048,0.069c0.04,0.022,0.079,0.043,0.121,0.064C8.28,6.717,8.222,6.65,8.229,6.63
				c-0.008,0.007-0.02,0.011-0.037,0.009L8.033,6.497c0.055,0.008,0.093,0.032,0.13,0.055c-0.01-0.021-0.07-0.05-0.073-0.078
				C8.198,6.52,8.313,6.561,8.352,6.61L8.258,6.497c0.048,0.012,0.143,0.01,0.18,0.033c0.075-0.017-0.183-0.17-0.081-0.192
				c-0.019-0.007-0.038-0.02-0.051-0.036C8.345,6.263,8.498,6.261,8.36,6.158l0.21,0.024C8.539,6.122,8.305,6.153,8.249,6.057
				C8.198,5.988,8.425,6.085,8.485,6.081C8.394,6.026,8.198,5.93,8.376,5.923C8.409,5.952,8.373,5.956,8.385,5.974z"/>
		</g>
	</g>
</g>
</svg>
