<svg xmlns="http://www.w3.org/2000/svg" viewBox="0 0 42.326 42.325"><path fill="#00b900" d="M42.326 21.163A21.163 21.163 0 1 1 21.163 0a21.163 21.163 0 0 1 21.163 21.163"/><path fill="#fff" d="M35.24 19.892c0-6.3-6.315-11.423-14.077-11.423S7.086 13.594 7.086 19.892c0 5.647 5.008 10.376 11.773 11.27.459.1 1.082.3 1.241.694a2.89 2.89 0 0 1 .045 1.273s-.165.993-.2 1.2c-.061.356-.283 1.392 1.22.759s8.107-4.774 11.06-8.173a10.162 10.162 0 0 0 3.018-7.028"/><path fill="#00b900" d="M18.303 16.848h-.988a.274.274 0 0 0-.274.274v6.134a.274.274 0 0 0 .274.273h.988a.274.274 0 0 0 .274-.273v-6.134a.274.274 0 0 0-.274-.274"/><path fill="#00b900" d="M25.099 16.848h-.987a.274.274 0 0 0-.274.274v3.644l-2.811-3.8c-.006-.01-.014-.019-.021-.028l-.017-.017-.015-.012-.007-.006-.014-.01h-.008l-.014-.008h-.009l-.016-.007h-.009l-.016-.005h-1.07a.274.274 0 0 0-.274.274v6.134a.274.274 0 0 0 .274.273h.987a.274.274 0 0 0 .274-.273v-3.668l2.814 3.8a.274.274 0 0 0 .069.067l.017.01h.008l.013.007.013.005h.008l.019.006a.27.27 0 0 0 .07.009h.987a.274.274 0 0 0 .274-.273v-6.122a.274.274 0 0 0-.274-.274"/><path fill="#00b900" d="M15.921 21.993H13.24v-4.871a.274.274 0 0 0-.274-.274h-.988a.274.274 0 0 0-.274.274v6.133a.272.272 0 0 0 .077.189.272.272 0 0 0 .189.076h3.951a.274.274 0 0 0 .274-.274v-.988a.274.274 0 0 0-.274-.274"/><path fill="#00b900" d="M30.552 18.38a.274.274 0 0 0 .274-.274v-.987a.274.274 0 0 0-.274-.274h-3.944a.271.271 0 0 0-.19.077.273.273 0 0 0-.075.189v6.132a.272.272 0 0 0 .077.189.273.273 0 0 0 .19.077h3.944a.274.274 0 0 0 .274-.274v-.988a.274.274 0 0 0-.274-.274h-2.685v-1.017h2.683a.274.274 0 0 0 .274-.274v-.987a.274.274 0 0 0-.274-.274h-2.683V18.38Z"/></svg>