<svg xmlns="http://www.w3.org/2000/svg" viewBox="0 0 58.79484 47.76965"><defs><style>.a{fill:#406394;}</style></defs><path class="a" d="M58.792,5.68964,58.793,5.6887a.32548.32548,0,0,1-.032.01292l-.02378.009c.0146-.02.03014-.03652.04213-.05561a24.0984,24.0984,0,0,1-5.462,1.6676c-.39583.065-.79448.117-1.19687.15991l-.01554.00187c-.05018,0-.10055-.00187-.15167-.00356a12.09242,12.09242,0,0,0,4.49557-4.93728,12.41245,12.41245,0,0,0,.726-1.62922l-.001.00094V.91432c-.00824.00562-.01835.00917-.02659.0146l-.01461.00731c.00543-.01817.01648-.03464.02191-.05393a24.12584,24.12584,0,0,1-7.657,2.92571A12.04909,12.04909,0,0,0,28.906,14.56375c.0118.08033.01912.16085.0339.2423A34.19,34.19,0,0,1,6.46951,4.83486,33.88994,33.88994,0,0,1,4.12427,2.22541v.00094h0l-.00541.01011c-.00826-.01011-.01837-.01929-.02736-.02921A12.03222,12.03222,0,0,0,6.20531,16.982c.191.18649.414.34191.61435.51923.309.27881.60986.5432.89972.79635a12.00672,12.00672,0,0,1-5.35784-1.49852c-.00187.05037-.00187.10148-.00187.15185a12.03094,12.03094,0,0,0,7.03649,10.923,13.188,13.188,0,0,0,1.8659.70666c.21589.07415.43347.15354.6473.21945a12.03966,12.03966,0,0,1-3.05172.39865,11.96628,11.96628,0,0,1-1.84043-.15541c-.12995-.02659-.26608-.03839-.39416-.07322L6.624,28.971h0v.00187l.00543.01461c-.01271-.00281-.02734-.00281-.04194-.00543a12.08039,12.08039,0,0,0,9.34017,8.18468c.364.06946.74149.08856,1.11373.126.25129.03389.49283.07509.74973.10973A24.19318,24.19318,0,0,1,2.87534,42.51967c-.81265,0-1.61181-.06292-2.40535-.14063C.32,42.356.16721,42.348.0191,42.3195l.01554.00918L.033,42.32774c.01554.01011.032.01835.04756.02827C.05393,42.35339.02659,42.35433,0,42.35152a34.12941,34.12941,0,0,0,18.485,5.41813c.58327,0,1.131-.06142,1.69963-.08688.3273-.01386.65461-.02753.97648-.04943.96076-.06666,1.89886-.171,2.81861-.30727.44171-.06479.88417-.127,1.31109-.20654.55874-.10429,1.11-.21664,1.65225-.34565.71678-.17,1.41614-.35652,2.09172-.564.48646-.149.96188-.3127,1.43374-.482.54844-.19661,1.07965-.40408,1.6-.62259q.86113-.36064,1.68764-.7634c.39771-.19474.78269-.39678,1.162-.60162.64375-.34828,1.27271-.71041,1.88257-1.09539.24585-.15541.48178-.31438.71865-.47354a32.76068,32.76068,0,0,0,5.14737-4.2632l.00187-.00187c.299-.30353.62166-.58983.907-.90328.04924-.05486.10149-.108.15167-.16365q.93528-1.04089,1.77564-2.1477c.13351-.17564.27057-.34921.40033-.52766.47542-.64806.92163-1.31184,1.3478-1.98667.17191-.27057.34378-.53758.5065-.8119.38123-.63719.73325-1.28731,1.06975-1.94285.15541-.30166.31249-.60069.45892-.907.33648-.70292.64356-1.41614.93248-2.13385.097-.24136.19754-.47916.28892-.7222.33011-.87238.62-1.75468.87949-2.64054.02022-.0704.044-.14081.06216-.21121a34.08929,34.08929,0,0,0,1.34686-9.35028q0-.78447-.03576-1.55994c.27433-.19736.51117-.44153.77631-.65087q.55528-.439,1.08621-.91151c.52207-.46549,1.01937-.94821,1.49928-1.45658q.4404-.46483.85945-.9572c.23687-.27787.50577-.52653.73063-.81451.35839-.44621.71041-.89785,1.04034-1.36521.0146-.01723.02846-.03464.04213-.05205Z"/></svg>