<svg xmlns="http://www.w3.org/2000/svg" viewBox="0 0 62.92969 64"><defs><style>.a{fill:#406394;}</style></defs><path class="a" d="M44.84279,0H18.0869A18.0868,18.0868,0,0,0,0,18.0869V45.9131A18.0868,18.0868,0,0,0,18.0869,64H44.84279a18.08679,18.08679,0,0,0,18.0869-18.0869V18.0869A18.08679,18.08679,0,0,0,44.84279,0ZM6.4214,18.0869A11.67843,11.67843,0,0,1,18.0869,6.4214H44.84279a11.67843,11.67843,0,0,1,11.6655,11.6655V45.9131a11.67843,11.67843,0,0,1-11.6655,11.6655H18.0869A11.67843,11.67843,0,0,1,6.4214,45.9131Z"/><path class="a" d="M31.4648,48.4814A16.48165,16.48165,0,1,0,14.9834,32,16.50012,16.50012,0,0,0,31.4648,48.4814Zm0-27.8261A11.3447,11.3447,0,1,1,20.1206,32,11.35731,11.35731,0,0,1,31.4648,20.6553Z"/><path class="a" d="M48.42819,18.7295a3.69265,3.69265,0,1,0-3.6924-3.6924A3.6926,3.6926,0,0,0,48.42819,18.7295Z"/></svg>