<?xml version="1.0" encoding="utf-8"?>
<!-- Generator: Adobe Illustrator 26.5.0, SVG Export Plug-In . SVG Version: 6.00 Build 0)  -->
<svg version="1.1" id="レイヤー_1" xmlns="http://www.w3.org/2000/svg" xmlns:xlink="http://www.w3.org/1999/xlink" x="0px"
	 y="0px" viewBox="0 0 70 70" style="enable-background:new 0 0 70 70;" xml:space="preserve">
<style type="text/css">
	.st0{fill:#FFFFFF;stroke:#F4A45C;stroke-miterlimit:10;}
	.st1{fill:#F4A45C;}
	.st2{fill:#FFFFFF;}
</style>
<circle class="st0" cx="35" cy="35" r="33.9"/>
<g>
	<g>
		<path class="st1" d="M24.8,20.4c0-0.4,0.2-0.6,0.5-0.6s0.5,0.2,0.5,0.5c0,4,0.3,7.2,0.4,9c0,0.2,0,0.5,0,0.7
			c0,0.4-0.2,0.6-0.5,0.6c-0.2,0-0.5-0.1-0.5-0.5c-0.2-2.3-0.4-5.4-0.4-7.9c-1,1.4-2.7,4.2-3.2,5.2c0,0.1,0,0.1,0,0.2
			c0,0.4-0.2,0.6-0.4,0.6h-0.1c-0.3,0-0.4-0.2-0.6-0.7c-0.5-1-2-3.8-3-5.4c0,2.8-0.1,6-0.4,8c0,0.3-0.3,0.4-0.6,0.4
			c-0.2,0-0.5-0.2-0.5-0.4c0-0.1,0-0.5,0-0.7c0.2-1.9,0.4-5.2,0.5-8.5c-0.2-0.2-0.2-0.4-0.2-0.5c0-0.2,0.1-0.3,0.2-0.4
			s0.2-0.1,0.4-0.1c0.1,0,0.2,0,0.3,0.1c1.2,1.7,3.1,5,3.8,6.5C22,24.8,23.9,21.9,24.8,20.4L24.8,20.4z"/>
		<path class="st1" d="M32.3,19.7c0.2,0,0.5,0.2,0.7,0.7c0,0.1,0,0.1,0,0.2c0,0.3-0.3,0.4-0.9,0.4H32c-1.6,0-2.9,2-2.9,4.3
			c0,2.6,0.9,4.2,3.1,4.2c1.6,0,3.1-1.5,3.1-4v-0.2c0-2.2-1-3.4-1.7-4c-0.2-0.1-0.3-0.3-0.3-0.4s0-0.2,0.1-0.3
			c0.1-0.1,0.2-0.2,0.4-0.2c0.1,0,0.3,0.1,0.5,0.2c0.9,0.6,2.2,2,2.2,4.7c0,3.4-1.9,5.3-4.3,5.3c-2.8,0-4.3-1.9-4.3-5.3
			c0-3,1.6-5,3.9-5.2C32,19.9,32.2,19.7,32.3,19.7z"/>
		<path class="st1" d="M39.6,30.1c0,0.3-0.3,0.5-0.5,0.5s-0.5-0.1-0.5-0.5l0.1-7.3c-0.2-0.1-0.3-0.2-0.3-0.3c0-0.2,0.3-0.4,0.8-0.6
			h0.1c0.2,0,0.4,0.2,0.4,0.5v0.1l-0.1,2.4c0.4,0,0.9,0.1,1.4,0.1c0.3,0,0.6,0,0.9-0.1c1.6-0.3,2.1-1.2,2.1-2.2c0-1.2-0.6-1.8-2-1.8
			c-0.8,0-2.3,0.2-3,0.6c-0.2,0.1-0.4,0.2-0.5,0.2c-0.2,0-0.3-0.1-0.3-0.3c0-0.1,0-0.2,0-0.2c0.1-0.6,0.3-0.8,0.5-0.8
			c0.1,0,0.2,0.1,0.3,0.2c0.7-0.3,2.1-0.5,3.1-0.5c1.6,0,3,0.8,3,2.7c0,1.6-0.7,2.8-2.6,3.2l2.8,3.7c0.1,0.2,0.2,0.3,0.2,0.4
			c0,0.4-0.3,0.6-0.6,0.6s-0.4-0.2-0.4-0.2L41.3,26h-0.2c-0.5,0-1-0.1-1.5-0.1V30.1z"/>
		<path class="st1" d="M47.4,21.2L47.4,21.2c-0.3,0-0.5-0.2-0.5-0.4v-0.1c0.3-0.5,0.5-0.8,0.7-0.8c0.1,0,0.2,0.1,0.3,0.3l5.3-0.1
			c0.3,0,0.4,0.3,0.4,0.5s-0.1,0.5-0.4,0.5l-4.9,0.1v8.2l5-0.1c0.3,0,0.4,0.3,0.4,0.5s-0.1,0.5-0.4,0.5h-5c0,0.3-0.4,0.5-0.6,0.5
			c-0.2,0-0.5-0.1-0.5-0.5v-9.1H47.4z M52.5,24.6c0.3,0,0.4,0.3,0.4,0.5s-0.1,0.5-0.4,0.5l-3,0.1h-0.3c-0.2,0-0.4-0.2-0.4-0.4v-0.1
			c0.2-0.6,0.4-0.8,0.6-0.8c0.1,0,0.2,0.1,0.3,0.3L52.5,24.6z"/>
	</g>
	<g>
		<path class="st1" d="M25.2,41.2c0.4,0.5,0.9,0.8,1.5,0.9c-0.4,0.8-0.5,1.8-0.5,2.7c0,1.5,0.4,2.7,1.3,3.6c1.4,1.3,3.7,2,7.5,2
			c4.9,0,8.9-0.3,8.9-5.3c0-1-0.2-2-0.6-2.9c0.6-0.1,1.1-0.4,1.6-0.9c0.4-0.4,0.6-0.9,0.6-1.7c0-0.2,0-0.4-0.1-0.6v-0.1
			c0-0.1,0-0.1-0.1-0.2c-0.3-0.8-0.8-1.5-1.7-1.9c-1.5-0.6-3.2,0.1-3.9,1.6c0,0.1,0,0.1-0.1,0.2c-1.3-0.6-2.8-1-4.6-1
			c-1.7,0-3.3,0.3-4.6,0.9v-0.1c-0.6-1.5-2.4-2.2-3.9-1.6c-0.9,0.3-1.4,1.1-1.7,1.9c0,0.1-0.1,0.1-0.1,0.2V39c0,0.2-0.1,0.4-0.1,0.6
			C24.6,40.2,24.8,40.8,25.2,41.2z"/>
		<path class="st2" d="M37.3,44.6l-3-2.2c-0.1-0.1-0.2-0.1-0.3,0s-0.2,0.1-0.2,0.3v4.4c0,0.1,0.1,0.2,0.2,0.3c0.1,0,0.1,0,0.1,0
			s0.1,0,0.2-0.1l3-2.2c0.1-0.1,0.1-0.1,0.1-0.3C37.4,44.8,37.3,44.7,37.3,44.6z"/>
	</g>
</g>
</svg>
