<?xml version="1.0" encoding="utf-8"?>
<!-- Generator: Adobe Illustrator 26.2.1, SVG Export Plug-In . SVG Version: 6.00 Build 0)  -->
<svg version="1.1" id="レイヤー_1" xmlns="http://www.w3.org/2000/svg" xmlns:xlink="http://www.w3.org/1999/xlink" x="0px"
	 y="0px" viewBox="0 0 151.1 97.4" style="enable-background:new 0 0 151.1 97.4;" xml:space="preserve">
<style type="text/css">
	.st0{display:none;fill:#583C32;enable-background:new    ;}
	.st1{font-family:'AB-babywalk-90ms-RKSJ-H';}
	.st2{font-size:29px;}
	.st3{fill:#FFFFFF;}
	.st4{fill:#583C32;}
	.st5{enable-background:new    ;}
</style>
<text transform="matrix(1 0 0 1 6.4581 44.4259)" class="st0 st1 st2">Rilanowa</text>
<path class="st3" d="M148.7,46.7c0.1-0.2,0.1-0.5,0.2-0.6c0.1-0.2,0.1-0.3,0.2-0.5c0-0.3,0-0.5,0-0.7c0,0.3-0.1,0.1-0.1-0.1
	c0-0.1,0,0-0.1-0.1c0,0.3,0,0.5,0,0.8c-0.1,0.1-0.1,0.2-0.2,0.4c0.1-0.8,0.1-0.9,0-1.3c0.1-0.2,0.1-0.2,0.2-0.3c0-0.4,0-0.6-0.1-0.9
	c-0.2,0.2-0.3,0.1-0.5-1.1c0.1,0.2,0.1,0.3,0.2,0.5c0-0.4,0.1-0.7,0.1-1.1c0-0.4,0-0.9,0-1.4c0.1,0.3,0.1,0.4,0.2,0.7
	c0-0.2,0-0.3,0.1-0.5c-0.1-0.3-0.1-0.6-0.1-0.9c-0.1,0-0.1,0-0.2-0.1c0.1-0.5,0.1-0.9,0.2-1.2c-0.1-0.8-0.3-0.8-0.4-1.1
	c0-0.3,0.1-0.4,0.1-0.7c0-0.2,0-0.4,0-0.7c0.1,0.3,0.2,0.7,0.3,0.3c0-0.3,0-0.7,0.1-1c0-0.1,0-0.2,0.1-0.2c0-0.3-0.1-0.6-0.1-1
	c-0.1-0.1-0.2-0.2-0.3-0.3c0-0.4,0-0.7,0.1-1c0.1-0.1,0.1-0.1,0.1-0.2c0-0.4-0.1-0.7-0.1-0.9c-0.1-0.2-0.1-0.3-0.2-0.4
	c0.1-0.9,0.2-1.7,0.2-2.4c0.1,0.3,0.1,0.5,0.2,0.8c0-0.4,0.1-0.7,0.1-0.9c-0.1-0.5-0.1-1-0.2-1.5c-0.1-0.1-0.1-0.1-0.2-0.3
	c0.1-0.2,0.1-0.4,0.1-0.5c0,0.1,0,0.2,0.1,0.3c0-0.3,0-0.5,0.1-0.8c-0.1-0.7-0.5-0.4-0.6-1.1c0-0.7,0-0.7,0.2-0.9
	c0,0.3,0.3-0.4,0.3-0.1c0.1-0.5-0.2-0.2-0.2-0.8c0-0.1,0-0.1,0-0.2c0,0.1,0.1,0.3,0.1,0.4c0-0.7,0-1.5-0.1-2.3
	c0-0.2-0.1-0.5-0.1-0.6c0-0.7-0.1-1.3-0.2-1.9c-0.1,0.2-0.1,0.6-0.2,0.5c0-0.9-0.2-2.1-0.4-3.1c-0.1-0.3-0.3-0.5-0.4-0.8
	c-0.1-0.3-0.2-0.6-0.2-0.8s0.1-0.3,0.1-0.4c0-0.1-0.1-0.1-0.1-0.2l-0.4-0.3c-0.2-0.4-0.4-0.8-0.6-1.2c0.2,0.4,0.3,0.8,0.1,0.6
	c-0.1-0.1-0.1-0.2-0.2-0.3v0.2l-0.1-0.2c0-0.1,0-0.2-0.1-0.3c-0.1-0.2-0.1-0.4-0.2-0.6c-0.2-0.4-0.5-0.6-0.7-0.9
	c-0.3-0.3-0.5-0.5-0.8-1c-0.1-0.3-0.3-0.6-0.5-0.8c0.1,0.1,0.2,0.1,0.3,0.2l-0.1-0.1c-0.4-0.4-0.8-0.8-1.3-1.2
	c-0.4-0.4-0.8-0.8-1.4-1.4c-0.2-0.1-0.4-0.3-0.7-0.5c-0.1,0-0.2,0-0.3,0c-0.4-0.3-0.4-0.5-1.1-0.8c0.1,0.1,0.2,0.2,0.3,0.3
	c0.1,0.1,0.1,0.1,0.1,0.2c-0.2-0.2-0.4-0.3-0.6-0.4c-0.2-0.2-0.4-0.4-0.6-0.5c-0.5-0.3-0.7-0.2-1.4-0.6c-0.1-0.1-0.1-0.1-0.3-0.3
	c-0.7-0.2-1.7-0.5-2.5-0.9c-0.3-0.1-0.6-0.2-0.8-0.4c0,0,0.2,0,0.5,0.1c0-0.1,0-0.1,0-0.2c0.1,0,0.3,0,0.4,0c-0.1,0-0.1,0-0.2-0.1
	c-0.7-0.1-1.3-0.2-1.9-0.3c-0.2-0.1-0.4-0.1-0.5-0.2c-0.1,0-0.2,0-0.2,0c0.1,0.1,0.4,0.2,0.2,0.3c0,0,0.1,0,0.2,0.1
	c0,0.1-0.1,0.1-0.2,0.2c-0.5,0-0.9-0.1-1.4-0.2c-0.4,0-0.9-0.1-1.3-0.1c-0.3,0-0.5,0-0.7,0c-0.3,0-0.6-0.1-0.8-0.1
	c-0.6,0-0.6-0.1-0.9-0.2c0.4,0,0.7,0.1,1.2,0.1c0-0.1,0.1-0.1,0.1-0.2c0.1,0.1,0.2,0.1,0.3,0.2c0.2-0.1,0.4-0.2,0.5-0.2
	c0.3,0,0.3,0.1,0.9,0.1c-0.1,0-0.2-0.1-0.2-0.1c-0.2,0-0.5-0.1-0.7-0.1c-0.8,0-1.4,0-2.2,0c-0.5,0.1-0.9,0.2-1.5,0.3
	c-0.1-0.1-0.7-0.1-1-0.1c-0.1,0-0.2-0.1-0.2-0.1c-0.7,0-1.2,0-1.7,0c-0.2,0-0.3,0-0.5,0h-0.1c0,0,0,0,0,0.1c-0.3,0-0.6,0-0.8,0
	l-0.1,0.1c-0.2,0-0.5,0-0.8,0c0.1-0.1,0.3-0.2,0.4-0.3c-0.4,0-0.7,0-1.1,0s-0.7,0-1,0c-0.6,0-1,0.1-1.5,0.1c-0.1,0-0.2,0-0.2,0.1
	c-0.2,0-0.3-0.1-0.5-0.1s-0.5,0-0.7-0.1c0.1,0,0.2-0.1,0.3-0.1c-0.8,0.1-1.1,0.1-1,0.2c-0.4,0-0.8,0.1-1.2,0.1c-0.5,0-1.1,0-1.6,0
	c-0.1,0-0.4,0-0.7,0V2c-0.4,0-0.9,0-1.5,0c-0.5-0.2-1-0.3-2.4-0.3c-0.1,0.1,0.5,0.2,0.7,0.3c-0.4,0-0.7,0.1-1.1,0.1
	c-0.2-0.1-0.4-0.1-0.6-0.2c-0.5,0-1,0.1-1.5,0.1c-0.4-0.1-0.7-0.2-1.1-0.3c0.6,0,1.1,0.1,1.6,0.1s1.1,0,1.8,0
	c-0.2-0.1-0.3-0.1-0.5-0.2c-0.4,0-0.7,0-1.2,0c0.3-0.1,0.5-0.1,0.7-0.2c-0.2,0-0.3-0.1-0.5-0.1c-1,0.1-1.9,0.1-2.8,0.2
	c0.2,0.1-0.1,0.1-0.5,0.2c-0.2,0-0.4,0-0.6,0s-0.4,0.1-0.6,0.1c-0.4,0-0.8-0.1-1-0.1c-0.6,0-1.2,0-1.7,0c0,0-0.2,0-0.3,0
	c-0.2,0-0.4,0-0.6,0c-0.1,0-0.2,0.1-0.3,0.1c-0.5-0.1-1.1-0.2-1.7-0.3c-0.3,0-0.5,0.1-0.9,0.1c0.9,0,0.7,0.2,1.2,0.2
	c-0.5-0.1-0.9,0-1.3,0C94.2,2,94,2,94,2c-0.2,0-0.3-0.1-0.5-0.1c-0.5,0-1,0-1.6,0c0.3-0.1,1.3-0.1,1.1-0.3c-0.3,0-0.6-0.1-0.8-0.1
	c-0.2,0-0.4,0-0.7,0.1c0.2,0.1,0.3,0.1,0.6,0.2c-0.5,0-0.8,0-1,0c-0.3,0-0.5,0.1-1.1,0.1c-0.4,0-0.6,0-0.5,0.1
	c0.5,0,1.1-0.1,1.3,0.1c-0.5,0-1,0.1-1.6,0.1c0.1,0,0.2,0,0.3,0.1c-0.4,0-0.7,0.1-1,0.1c-0.2,0,0.1,0,0.4,0.1c-0.1,0-0.1,0-0.2,0
	c-0.5,0-0.7,0.1-1.2,0.1c-0.2-0.1,0.9-0.2,0.1-0.3c-0.3,0.1-0.6,0.1-0.9,0.2c0.1,0,0.2,0.1,0.2,0.1c-0.2,0.1-0.6,0-1.1,0
	c-0.1-0.1-0.2-0.1-0.3-0.1c-0.3,0-0.5,0-0.9-0.1c0.3,0,0.5-0.1,0.7-0.1L84.1,2c-0.2,0-0.5-0.1-0.9-0.1C83.4,2,82.8,2.1,83,2.2
	c0.1,0-0.1,0.1-0.6,0.1c-0.1,0-0.3-0.1-0.6,0c-0.3,0-1.7-0.3-2.1-0.2c0-0.1-0.3-0.1,0-0.2c0.1,0-0.2-0.1-0.3-0.1
	c-0.4,0.1-0.7,0.2-1,0.3c0.2,0.1,0.3,0.1,0.5,0.1c-0.2,0-0.4,0-0.5,0c0.1,0,0.2,0.1,0.4,0.1c-0.3,0-0.5,0-0.7,0
	C78,2.2,77.9,2.1,77.8,2c0.3,0,0.4-0.1,0.6-0.1c-0.5-0.1-0.9,0-1.2,0c0.1,0,0.1-0.1,0.2-0.1c-0.6-0.1-0.9-0.1-1.1,0
	c0,0.1,0,0.1,0,0.2c-0.2,0-0.3,0.1-0.4,0.1C76.1,2,76.3,2,76,2.1c-0.4,0.1-0.8-0.1-1.2,0C74.6,2,74.5,2,74.3,1.9
	c-1.1,0-1.6-0.1-1.8-0.3c-0.2,0-0.4,0.1-0.6,0.1c-0.4,0-0.9,0.1-1.4,0.1c0.2,0,0.4,0.1,0.5,0.1c-0.2,0-0.5,0-0.8,0
	c0-0.1,0-0.1,0-0.2c-0.3-0.1-0.6-0.1-0.8-0.2c-0.2,0.1-0.4,0.1-0.6,0.2l-1-0.1c0.4,0,0.6,0.1,0.6,0.2c-0.3,0-0.6,0-0.8,0
	c0,0,0-0.1-0.1-0.1c-0.4,0.1-0.7,0.1-0.9,0.1c-0.1,0,0.3,0.1-0.3,0.1c-0.3,0-0.6,0-0.9-0.1c-1,0-2.1,0-3-0.1c-0.6,0.1-1,0.2-1.5,0.2
	s-1.1,0-1.6-0.1c-0.5,0-0.7,0-1-0.1c0.1,0,0.2-0.1,0.3-0.1c-0.2,0-0.4-0.1-0.6-0.1c-0.8,0.1,0.1,0.2,0,0.2c-0.4,0-0.8,0-1.1,0
	s-0.6,0-1,0c0,0-0.1,0.1-0.3,0.1s-0.4-0.1-0.8-0.1C55,1.9,54.8,2,54,2.1c-0.1,0-0.2-0.1-0.2-0.1c0.1-0.1,0.2-0.1,0.5-0.2
	c0.4-0.1,0.3-0.1-0.3-0.2c-0.2,0-0.5,0-0.6,0.1c-0.6,0-1.1-0.1-1.5,0c0.1,0,0.3,0.1,0.5,0.2c-1.3-0.1-2.1,0-2.9,0.1
	c-0.1,0-0.2,0-0.2,0c-0.9-0.1-0.9-0.1-1.6,0c-0.2,0-0.4,0.1-0.8,0.1V2c-0.2,0-0.3,0-0.6,0c0-0.1,0.1-0.1,0.1-0.1s-0.1-0.1-0.3-0.1
	c-0.2,0.1-0.3,0.2-0.4,0.3c-0.3,0-0.6,0-0.9,0c-0.2,0-0.3-0.1-0.4-0.1c-0.2,0-0.4,0.1-0.5,0.1c-0.6,0-1.1-0.1-1.8-0.1
	c1,0,1.6-0.1,2.5-0.1c0-0.1,0-0.1,0-0.2c-0.2,0-0.3,0-0.4,0c-0.1-0.1,0.1-0.1-0.6-0.2c-0.1,0.1-0.4,0.2-1.1,0.2
	c-0.1,0-0.2-0.1-0.3-0.1c-0.2,0-0.5,0-0.7,0c0.2,0,0.3,0.1,0.5,0.1c-0.3,0-0.5,0.1-0.8,0.1c0.4,0,0.6,0,0.7,0
	c-0.1,0.1-0.1,0.1-0.2,0.2c-0.4,0.1-0.9,0.1-1.6,0.1c-0.4,0-0.2-0.1-0.8-0.1c-0.5,0.1-0.6,0.1-1.2,0.1c-0.2,0-0.4,0-0.5,0
	c-0.2,0-0.3,0-0.6,0C36.8,2,35.8,2,35.7,1.9c-1,0-1.8,0.1-2.4,0.2c-0.3,0.1-0.7,0.1-1.2,0.1c-0.5-0.1-1-0.2-1.4-0.4
	c-0.3,0-0.5,0-0.8,0C30,1.7,30,1.7,30.2,1.6c-0.5,0.1-0.9,0.1-1.4,0.2c0.1,0,0-0.1-0.2-0.1c-0.3,0.1-0.8,0.1-1.3,0.1
	c0,0-0.1,0-0.2,0c0.1,0,0.1-0.1,0.2-0.1c-0.4,0-0.8,0-1.3,0c0.2,0,0.4,0.1,0.5,0.1C26.2,1.9,26,2,26.5,2c-0.1,0-0.1,0-0.2,0l0,0
	c-0.4,0-0.8,0-1.2,0c-0.1,0.1,0,0.1-0.1,0.2c-0.3,0-0.5-0.1-1-0.3c0.3,0,0.6,0,1,0c-0.3-0.1-0.6-0.1-0.8-0.2c-0.5,0-0.9,0.1-1.4,0.1
	c0.2,0,0.3,0.1,0.4,0.1c-0.1,0-0.4,0.1-0.7,0.1c-0.1,0-0.2,0-0.3,0l0,0c0,0-0.1,0-0.2,0c0,0-0.1,0-0.1-0.1C21.4,1.9,21,2,20.8,2
	c-0.6,0-1,0.1-1.4,0.2s-0.6,0-1.1,0.1c0.5,0,0.2,0.2,0,0.3c-0.4,0-0.5-0.2-1.3-0.1c-0.2,0.1-0.3,0.1-0.5,0.2c0.3-0.1,0.6-0.1,1-0.1
	c-0.1,0.1-0.3,0.1-0.4,0.2c-0.1,0-0.2,0-0.3,0C16,3,15.4,3.2,15,3.2c-0.4,0.2-0.8,0.4-1.1,0.6c-0.1,0-0.3,0.1-0.5,0.1
	C13.2,4,13,4,12.7,4.1c-0.2,0.1-0.4,0.2-0.5,0.3c-0.1,0.1-0.3,0.2-0.3,0.2c0,0.1,0.1,0.1,0.1,0.2c-0.2,0.1-0.4,0.2-0.6,0.3
	c0-0.1-0.3,0-0.8,0.3C10.3,5.7,10,5.9,9.7,6.1C9.6,6.2,9.6,6.2,9.5,6.3C9.7,6.1,10,6,10.2,5.9C9.9,6.1,9.6,6.3,9.4,6.5
	c0.3,0.5,0.1,0.8-0.1,1C8.9,7.8,8.7,7.9,8.2,8.4C8,8.7,7.8,9.1,7.5,9.6c0,0.1-0.1,0.2-0.2,0.4c-0.3,0.3-0.7,0.6-1,1
	c-0.2,0.2-0.4,0.5-0.6,0.7c-0.4,0.6-0.6,1.2-0.9,1.8c-0.1,0.2-0.3,0.4-0.4,0.8c-0.2,0.4-0.4,0.9-0.6,1.3c-0.4,1-0.7,2-0.8,2.3
	c0,0,0.1,0,0.1,0.1L3,18.3c-0.1,0-0.1,0.1-0.1,0.2c-0.1,0.5-0.1,0.8-0.2,1.2l0.1,0.1c0,0.1,0,0.2,0,0.3c0,0.1,0,0.2,0,0.3
	c-0.1,0.2-0.1,0.2-0.2,1c0,0.3,0,0.8,0.1,1c0.1,0.1,0,1,0.2,0.9c0-0.2,0.1-0.5,0.1-0.7c0,0.4,0,0.7-0.1,1.1c-0.1,0-0.1,0.1-0.2,0.1
	c0-0.2,0-0.4-0.1-0.5c0,0.2-0.1,0.3-0.1,0.4c0-0.2,0-0.3-0.1-0.5c0,0.7,0,1.3,0,1.7c0,0.4-0.1,0.7-0.1,1c0.1,0,0.1,0,0.1,0
	c0,0.2,0.1,0.4,0.1,0.6c0.1-0.5,0.2-1,0.3-1.5C3,25.1,3,25.2,3,25.3c0,0.3-0.1,0.5-0.1,0.7c0,0.3,0,0.6,0.1,1
	c-0.1,0.3-0.1,0.6-0.2,0.8c-0.1,0.3-0.1,0.7-0.1,1.2c0,0.3,0,0.5,0,0.8s0.1,0.4,0.1,0.9c-0.1,0.5-0.4,0.7-0.4,1.2
	c0.1,0.2,0,0.9,0.1,1.1c0.1,0.1,0.1,0.7,0.1,1.1c0-0.3,0-0.4,0.1-0.7c0,0.5,0.1,0.7,0.1,1.2c-0.1-0.3-0.3-0.2-0.4-0.1
	c-0.1,0.2-0.1,0.5-0.2,0.6c-0.1,0.2-0.1,0.3-0.2,0.5c0,0.3,0,0.5,0,0.7c0-0.3,0.1-0.1,0.1,0.1c0,0.1,0,0,0.1,0.1c0-0.3,0-0.5,0-0.8
	c0.1-0.1,0.1-0.2,0.2-0.4c-0.1,0.8,0,0.9,0,1.3c-0.1,0.2-0.1,0.2-0.2,0.3c0,0.4,0,0.6,0.1,0.9c0.2-0.2,0.3-0.1,0.5,1.1
	c-0.1-0.2-0.1-0.3-0.2-0.5c0,0.4-0.1,0.7-0.1,1.1c0,0.4,0,0.9,0,1.4c-0.1-0.3-0.2-0.5-0.2-0.7c0,0.2,0,0.4-0.1,0.5
	c0.1,0.3,0.1,0.6,0.1,0.9c0.1,0,0.1,0,0.2,0.1c-0.1,0.5-0.1,0.9-0.2,1.2c0.1,0.8,0.3,0.8,0.4,1.1c0,0.3-0.1,0.5-0.1,0.7s0,0.4,0,0.7
	c-0.1-0.3-0.2-0.7-0.3-0.3c0,0.3,0,0.7-0.1,1c0,0.1,0,0.2-0.1,0.2c0,0.3,0.1,0.7,0.1,1c0.1,0.1,0.2,0.2,0.3,0.3c0,0.4,0,0.7-0.1,1
	c0,0.1-0.1,0.1-0.1,0.2c0,0.4,0.1,0.7,0.1,0.9c0.1,0.2,0.1,0.3,0.2,0.4c-0.1,0.9-0.2,1.7-0.2,2.4c-0.1-0.3-0.1-0.5-0.2-0.8
	c0,0.4-0.1,0.7-0.1,0.9c0.1,0.5,0.1,1,0.2,1.5c0.1,0.1,0.1,0.2,0.2,0.3c-0.1,0.2-0.1,0.4-0.1,0.5c0-0.1,0-0.2-0.1-0.3
	c0,0.3,0,0.5-0.1,0.8c0.1,0.7,0.2,1.4,0.3,2.2c0,0.7,0,0.7-0.2,0.9c0-0.3,0-0.6,0-1c-0.1,0.5-0.1,1.2-0.1,1.8c0,0.1,0,0.1,0,0.2
	c0-0.1-0.1-0.3-0.1-0.4c0,0.7,0,1.5,0,2.3c0,0.2,0.1,0.4,0.1,0.6c0,0.7,0,1.2,0,1.8c0.1-0.1,0.2-0.5,0.3-0.4c-0.1,0.8-0.2,2-0.3,2.9
	c0,0.3,0.1,0.6,0.1,0.9S2.2,67.8,2.2,68C2.1,68.1,2,68.2,2,68.3c0,0.1,0,0.1,0,0.2l0.2,0.4c0,0.4,0,0.8,0,1.2
	c0.1-0.4,0.1-0.8,0.2-0.6c0,0.1,0,0.2,0,0.4c0-0.1,0.1-0.1,0.1-0.2c0,0.1,0,0.1,0,0.2l-0.1,0.3c0,0.2-0.1,0.4-0.1,0.6
	c0,0.9,0.2,1.2,0.1,2.3c-0.1,0.3-0.1,0.6-0.2,0.9c0-0.1-0.1-0.2-0.1-0.4v0.1c0.1,0.5,0.1,1.1,0.2,1.7c0,0.6,0,1.2,0,2
	c0,0.2,0.1,0.5,0.2,0.8c0.1,0.1,0.1,0.2,0.2,0.2c0,0.5-0.1,0.6,0.2,1.4c0-0.2,0-0.3,0-0.5c0-0.1,0-0.2,0-0.3c0,0.2,0.1,0.5,0.2,0.7
	c0,0.2,0.2,0.9,0.5,1.5C4,82,4.3,82.6,4.3,82.7c0.2,0.6,0.5,0.6,0.8,1.3c0,0.1,0,0.2,0,0.4c0.2,0.3,0.5,0.6,0.8,1s0.4,0.8,0.7,1.2
	c0.1,0.3,0.3,0.5,0.4,0.8c0,0-0.1-0.1-0.3-0.4c0,0.1-0.1,0.1-0.1,0.2C6.5,87.1,6.4,87,6.2,87c0,0.1,0.1,0.1,0.1,0.2
	c0.5,0.5,0.9,1,1.4,1.4c0.1,0.2,0.2,0.3,0.3,0.5c0.1,0.1,0.2,0.1,0.2,0.1c0-0.1-0.2-0.4,0-0.3c0,0-0.1-0.1-0.1-0.2
	c0.1,0,0.1,0,0.2,0c0.7,0.7,1.3,1.3,1.9,1.9c0.2,0.2,0.5,0.3,0.6,0.4c0.2,0.2,0.4,0.4,0.6,0.6c0.5,0.4,0.5,0.5,0.7,0.7
	c-0.3-0.2-0.6-0.4-1-0.8c-0.1,0-0.1,0-0.2,0.1c-0.1-0.1-0.1-0.2-0.1-0.4c-0.3-0.1-0.4-0.1-0.6-0.2c-0.3-0.2-0.2-0.3-0.7-0.6
	c0,0.1,0.1,0.1,0.1,0.2c0.2,0.2,0.3,0.3,0.5,0.5c0.6,0.4,1.2,0.9,2,1.3c0.5,0.2,0.9,0.4,1.5,0.5c0,0.2,0.6,0.4,0.9,0.5
	c0.1,0.1,0.2,0.2,0.2,0.2c0.6,0.3,1.2,0.5,1.6,0.7c0.2,0.1,0.3,0.1,0.5,0.2h0.1c0,0,0,0,0-0.1c0.3,0.1,0.6,0.1,0.9,0.2h0.1
	c0.2,0.1,0.5,0.1,0.8,0.2c-0.2,0-0.3,0.1-0.5,0.1c0.4,0.1,0.8,0.2,1.1,0.2c0.4,0.1,0.8,0.1,1,0.2c0.6,0.1,1.1,0,1.6,0
	c0.1,0,0.2,0,0.3-0.1c0.2,0,0.3,0.1,0.5,0.1s0.5,0.1,0.7,0.1c-0.1,0-0.2,0.1-0.3,0.1c0.8-0.1,1.1-0.1,1-0.2c0.4,0,0.8-0.1,1.2-0.1
	c0.5,0,1.1,0,1.6,0c0.1,0,0.4,0,0.7,0c0-0.1,0-0.1,0-0.2c0.4,0,0.9,0,1.4,0c0.5,0.2,1,0.3,2.4,0.3c0.1-0.1-0.5-0.2-0.7-0.3
	c0.4,0,0.7-0.1,1.1-0.1c0.2,0.1,0.4,0.1,0.6,0.2c0.5,0,1-0.1,1.5-0.1c0.4,0.1,0.7,0.2,1.1,0.3c-0.6,0-1.1-0.1-1.6-0.1s-1.1,0-1.8,0
	c0.2,0.1,0.3,0.1,0.5,0.2c0.3,0,0.7,0,1.2,0c-0.3,0.1-0.5,0.1-0.7,0.2c0.2,0,0.3,0.1,0.5,0.1c1-0.1,1.9-0.1,2.8-0.2
	c-0.2-0.1,0.1-0.1,0.5-0.2c0.2,0,0.4,0,0.6,0c0.2,0,0.4-0.1,0.6-0.1c0.4,0,0.8,0.1,1,0.1c0.6,0,1.2,0,1.7,0c0,0,0.2,0,0.3,0
	c0.2,0,0.4,0,0.6,0c0.1,0,0.2-0.1,0.3-0.1c0.5,0.1,1.1,0.2,1.7,0.3c0.3,0,0.5-0.1,0.9-0.1c-0.9,0-0.7-0.2-1.2-0.2
	c0.5,0.1,0.9,0,1.3,0c0.1,0,0.3,0,0.3,0c0.2,0,0.3,0.1,0.5,0.1c0.5,0,1.1,0,1.6,0c-0.3,0.1-1.3,0.1-1.1,0.3c0.3,0,0.6,0.1,0.8,0.1
	s0.4,0,0.7-0.1c-0.2-0.1-0.3-0.1-0.6-0.2c0.5,0,0.8,0,1,0c0.3,0,0.5-0.1,1.1-0.1c0.4,0,0.6,0,0.5-0.1c-0.5,0-1.1,0.1-1.3-0.1
	c0.5,0,1-0.1,1.6-0.1c-0.1,0-0.2,0-0.3-0.1c0.4,0,0.7-0.1,1-0.1c0.5,0,1.2,0.1,1.5,0.2c0.2,0.1-1.6,0.4-1.3,0.4
	c0.5,0,0.7-0.1,1.3-0.1c0.2,0.1-0.9,0.2-0.1,0.3c0.3-0.1,0.6-0.1,0.9-0.2c-0.1,0-0.2-0.1-0.2-0.1c0.4-0.1,0.6-0.2,1.4-0.2l0.2,0.1
	c0.4,0,0.9,0,1.2,0c0.2,0,0.3,0.1,0.5,0.1c-0.1,0-0.2,0.1-0.3,0.1c-0.6,0-1.2-0.1-1.9-0.1c0.1,0.1,0.2,0.1,0.3,0.2
	c0.3,0,0.5,0,0.9,0.1c-0.3,0-0.5,0.1-0.7,0.1l1.2,0.1c0.2,0,0.5,0.1,0.9,0.1c-0.2-0.1,0.5-0.2,0.3-0.3c-0.1,0,0.1-0.1,0.6-0.1
	c0.1,0,0.3,0.1,0.6,0c0.3,0,0.6,0,1-0.1c0,0.1,0.3,0.1,0,0.2c-0.1,0,0.2,0.1,0.3,0.1c0.4-0.1,0.7-0.2,1-0.3
	c-0.2-0.1-0.3-0.1-0.5-0.1c0.2,0,0.4,0,0.5,0c-0.1,0-0.2-0.1-0.4-0.1c0.3,0,0.5,0,0.7,0c0.1,0.1,0.2,0.2,0.3,0.3
	c-0.3,0.1-0.4,0.1-0.6,0.1c0.5,0.1,0.8,0,1.2,0c-0.1,0-0.1,0.1-0.2,0.1c0.6,0.1,0.9,0.1,1.1,0c0-0.1,0-0.1,0-0.2
	c0.2,0,0.3-0.1,0.4-0.1c-0.3,0-0.6-0.1-0.3-0.1c0.4-0.1,0.9,0.1,1.2,0c0.2,0.1,0.3,0.1,0.5,0.2c1.1,0,1.6,0.1,1.8,0.3l0.6-0.1
	c0.4,0,0.9-0.1,1.4-0.1c-0.2,0-0.4-0.1-0.5-0.1c0.2,0,0.5,0,0.8,0c0,0.1,0,0.1,0,0.2c0.3,0.1,0.5,0.1,0.8,0.2l0.6-0.2l1,0.1
	c-0.4,0-0.6-0.1-0.6-0.2c0.3,0,0.6,0,0.8,0c0,0,0,0.1,0.1,0.1c0.4-0.1,0.7-0.1,0.9-0.1c0.1,0-0.3-0.1,0.3-0.1c0.3,0,0.6,0,0.9,0.1
	c1,0,2.1,0,3,0.1c0.6-0.1,1-0.2,1.5-0.2s1.1,0.1,1.6,0.1s0.7,0,1,0.1c-0.1,0-0.2,0.1-0.3,0.1c0.2,0,0.4,0.1,0.6,0.1
	c0.8-0.1-0.1-0.2,0-0.2c0.4,0,0.8,0,1.1,0c0.3,0,0.6,0,1,0c0-0.1,0.1-0.1,0.3-0.2c0.2,0,0.4,0.1,0.8,0.1c-0.2-0.2,0-0.3,0.8-0.4
	c0.1,0,0.2,0.1,0.2,0.1c-0.1,0.1-0.2,0.1-0.5,0.2c-0.4,0.1-0.3,0.1,0.3,0.2c0.2,0,0.5,0,0.6-0.1c0.6,0,1.1,0.1,1.5,0
	c-0.1,0-0.3-0.1-0.5-0.2c1.3,0.1,2.1,0,2.9-0.1c0.1,0,0.2,0,0.2,0c0.9,0.1,0.9,0.1,1.6,0c0.2,0,0.4-0.1,0.8-0.1v0.1
	c0.2,0,0.3,0,0.6,0c0,0.1-0.1,0.1-0.1,0.1s0.1,0.1,0.3,0.1c0.2-0.1,0.3-0.2,0.4-0.3c0.3,0,0.6,0,0.9,0c0.1,0.1,0.2,0.1,0.3,0.1
	c0.2,0,0.4-0.1,0.5-0.1c0.6,0,1.1,0.1,1.8,0.1c-1,0-1.6,0.1-2.5,0.1c0,0.1,0,0.1,0,0.2c0.2,0,0.3,0,0.4,0c0.1,0.1-0.1,0.1,0.6,0.2
	c0.1-0.1,0.4-0.2,1.1-0.2c0.1,0,0.2,0.1,0.3,0.1c0.2,0,0.5,0,0.8,0c-0.2,0-0.3-0.1-0.5-0.1c0.3,0,0.5-0.1,0.8-0.1
	c-0.4,0-0.6,0-0.7,0c0.1-0.1,0.1-0.1,0.2-0.2c0.4-0.1,0.9-0.1,1.6-0.1c0.3,0.1,0.1,0.2,0.7,0.2c0.6-0.1,0.6-0.1,1.2-0.1
	c0.2,0,0.4,0,0.5,0c0.2,0,0.3,0,0.6,0c0.2,0.1,1.2,0.1,1.3,0.2c1,0,1.8-0.1,2.4-0.2c0.3-0.1,0.7-0.1,1.2-0.1c0.5,0.1,1,0.2,1.4,0.4
	c0.3,0,0.5,0,0.8,0c-0.1,0.1-0.2,0.1-0.3,0.2c0.7-0.1,1.2-0.2,1.7-0.2c0-0.1-0.1-0.2-0.1-0.3c0.4,0,0.7,0.1,1,0c0.4,0,0.7,0,1.1,0
	c0.1,0.1,0.1,0.1,0.2,0.2c0.4,0,0.7,0,1.2,0c0.1-0.1,0.2-0.2,0.1-0.3c-0.1-0.1-0.1-0.1,0.5-0.1c0.2,0.1,0.3,0.1,0.5,0.2
	c-0.1,0-0.2,0.1-0.4,0.1c0.2,0,0.4,0,0.6,0.1c0.2,0,0.3,0.1,0.4,0.1c0.4,0,0.8,0,1.1,0c0.2-0.1-0.5-0.3-0.5-0.4c0.6,0,1,0,1.5,0
	c0.1,0,0.2,0.1,0.3,0.1c0.2,0,0.5,0,0.8,0c0.8,0,0.8,0,1.1-0.1c0.2,0,0.4,0,0.6,0s0.4,0,0.6,0c0.1,0.2,0.2,0.2,0.8,0.3
	c0.7-0.1,0.1-0.2-0.2-0.3c0.7-0.1,1.3,0,1.8,0c0.3,0,0.8,0,1.2,0.1c0.6,0,0.1-0.2,1.1-0.2c-0.1,0-0.2,0.1-0.2,0.1
	c0.3,0.1,1.3,0.1,1.7,0.2c0.6,0,1.2-0.1,1.7-0.1c0.1-0.1-0.1-0.1,0.3-0.2c0.1,0,0-0.1,0-0.1c-0.4,0.1-0.7,0.1-1,0.2
	c-0.4,0-0.9,0-1.5,0c0.5,0,0.8,0,1.1,0c-0.1,0-0.2-0.1-0.2-0.1c1,0,1,0,1.8-0.3c-0.2,0-0.5,0-0.8-0.1c-0.1,0.1-0.2,0.1-0.2,0.2
	c-1,0-0.9-0.1-1.5-0.2c-0.3,0-0.6,0.1-0.9,0.1s-0.5,0-0.8,0l-0.5-0.3c0.7,0,1.5,0,2.3-0.1c0.1,0,0.1-0.1,0.2-0.1h2.3
	c1.4,0,2.7-0.2,4.1-0.4c-0.1,0-0.1,0-0.2,0.1c-0.5,0.1-1,0.2-1.5,0.3c-0.7,0.2-1.4,0.2-1.9,0.4c-0.2,0.1-0.7,0.2-0.4,0.2
	c0.2,0,1.1,0,1.4-0.1c0.4,0,0.9-0.1,1.3-0.1c0.4-0.1,0.9-0.1,1.3-0.2c0.8-0.2,1.7-0.4,2.5-0.6c0.5-0.1,0.7-0.2,1.2-0.3
	c0.6-0.2,1.3-0.6,1.9-0.9c0.7-0.5,1.6-1,2.2-1.3c0.2-0.1,0.7-0.3,0.6-0.3c0,0.1-0.2,0.2-0.2,0.3l0.3-0.1c0.2-0.2,0.7-0.6,1-1
	c0,0,0.1-0.1,0.2-0.1c0,0.1-0.1,0.2-0.1,0.3c0.3-0.3,0.6-0.5,1-0.9c-0.2,0.2-0.3,0.2-0.4,0.3c0.2-0.3,0.3-0.5-0.1-0.2
	c0.3-0.3,0.6-0.6,0.9-1c-0.1,0-0.1,0-0.1,0c-0.2,0.2-0.4,0.4-0.6,0.6c0.8-1,0.9-1,1.6-1.5c-0.2,0.3-0.4,0.5-0.7,0.8
	c0.3-0.2,0.5-0.3,0.7-0.5c0.3-0.5,0.5-0.8,0.8-1.3c-0.1,0.1-0.2,0.2-0.4,0.3c0.1-0.2,0.5-0.8,0.5-1c0,0,0.1,0,0.1-0.1
	c0.2-0.4,0.4-0.8,0.6-1c0.3-0.5,0.5-0.9,0.7-1.3s0.3-0.5,0.5-0.9c-0.3,0.4-0.2,0-0.3-0.2c0.2-0.3,0.4-0.3,0.8-1
	c0-0.2,0.1-0.3,0.1-0.5c-0.1,0.3-0.3,0.6-0.5,0.8c0-0.2,0.1-0.3,0.1-0.4c0.4-0.8,0.6-1.6,0.8-1.9c0.1-0.5,0.1-0.9,0.2-1.3
	c0.1-0.1,0.1-0.3,0.2-0.5c0.1-0.2,0.2-0.4,0.2-0.6s0-0.4,0-0.6s0-0.3,0-0.4c-0.1-0.1-0.1,0-0.2-0.1c0-0.2,0-0.5,0-0.7
	c0.1,0.1,0.2-0.3,0.2-0.7c0-0.4,0-0.7-0.1-1.1c0-0.1,0-0.1-0.1-0.3c0,0.2-0.1,0.5-0.1,0.7c0-0.4,0-0.7,0-1c-0.1-0.3-0.1-0.6-0.2-0.9
	c0-0.5,0.1-0.7,0.1-1.4c-0.1-0.7-0.1-1.6-0.2-2.4c0.1,0,0.1,0.1,0.2,0.1c0,0.3,0,0.6,0,0.9c0.1-0.5,0.2-0.9,0.2-1.3
	c0-0.3,0.1-0.6,0.2-0.9c0-0.7-0.1-1.3-0.1-1.9s0-1.2,0-1.9l-0.1-0.1v-0.3c0,0,0.1-0.1,0.1-0.2c0-0.4,0-0.8,0-1.2l-0.1-0.1
	c0-0.1,0-0.2,0-0.3s0-0.2,0-0.2c0.1-0.2,0.1-0.2,0.1-0.9c0-0.3,0-0.8-0.1-1s0-1-0.2-0.9c0,0.2-0.1,0.5-0.1,0.7
	c-0.1-0.5-0.1-0.8,0-1.2c0.1,0,0.1-0.1,0.2-0.1c0,0.2,0,0.4,0.1,0.5c0-0.2,0.1-0.3,0.1-0.4c0,0.2,0,0.3,0.1,0.5c0-0.7,0-1.3,0-1.7
	s0.1-0.6,0.1-1c-0.1,0-0.1,0-0.1,0c0-0.2-0.1-0.4-0.1-0.6c-0.1,0.5-0.2,1-0.3,1.5c0-0.2-0.1-0.3-0.1-0.4c0.1-0.2,0.1-0.5,0.1-0.7
	c0-0.3,0-0.6,0-1c0.1-0.3,0.1-0.6,0.2-0.8c0.1-0.3,0.1-0.7,0.1-1.2c0-0.3,0-0.5,0-0.8s-0.1-0.4-0.1-0.9c0.1-0.5,0.1-0.9,0.2-1.4
	c-0.1-0.3,0-1-0.1-1.3c-0.1-0.1-0.1-0.7-0.1-1.1c0,0.3,0,0.4-0.1,0.7c0-0.5-0.1-0.7-0.1-1.2C148.5,46.9,148.6,46.8,148.7,46.7z
	 M83.6,2.3C83.6,2.4,83.6,2.4,83.6,2.3L83.6,2.3z M84.4,2.3c0.1,0,0.1,0,0.2,0C84.5,2.3,84.4,2.3,84.4,2.3L84.4,2.3z M7.3,10
	c-0.1,0.3-0.3,0.6-0.4,0.8c0-0.1-0.1-0.1-0.1-0.2C7,10.4,7.1,10.2,7.3,10z"/>
<g>
	<g>
		<g>
			<path class="st4" d="M89.8,59.1c0-0.1,0-0.3,0-0.4c0-0.1,0-0.3-0.1-0.5c0-0.1,0-0.1-0.1-0.2c-0.3-1-1.1-1.9-2.1-2.4
				c-1.9-0.8-4.1,0.1-4.8,2c0,0.1-0.1,0.1-0.1,0.2C81,57,79,56.6,76.7,56.6c-2.1,0-4,0.4-5.5,1.1c0,0,0,0,0-0.1
				c-0.8-1.9-3-2.8-4.9-2c-1.1,0.5-1.8,1.4-2.1,2.4c0,0.1-0.1,0.1-0.1,0.2c0,0.2,0,0.3-0.1,0.4c0,0.1,0,0.3,0,0.4
				c0,1.1,0.4,1.9,1,2.4c0.4,0.4,1,0.7,1.5,0.8c-0.5,1.1-0.8,2.4-0.8,3.7c0,6.2,5,6.7,11.1,6.6c6.1,0,11-1.2,11-7
				c0-1.2-0.2-2.3-0.7-3.3c0.6-0.1,1.3-0.4,1.8-0.9C89.5,61,89.8,60.2,89.8,59.1z"/>
			<path class="st3" d="M79.8,63.3c-0.1-0.1-0.2-0.2-0.4-0.2h-5c-0.2,0-0.3,0.1-0.4,0.2c-0.1,0.1-0.1,0.3,0,0.4l2.5,4.3
				c0.1,0.1,0.2,0.2,0.4,0.2s0.3-0.1,0.4-0.2l2.5-4.3C79.8,63.6,79.8,63.4,79.8,63.3z"/>
		</g>
		<g class="st5">
			<path class="st4" d="M21.2,42.1c-1.1-1.9-3.3-5.9-3.8-6.8c-0.1-0.1-0.2-0.2-0.3-0.2c-0.7,0-2.7,0-4,0c-0.6,0-1.1-0.5-1.1-1.1
				c0-0.6,0.5-1.1,1.1-1.1h3c4.2,0.2,4.7-3.4,4.8-4.1c0-2-0.8-4.2-3.9-4.1c0,0-4.4,0-5.5,0c-0.1,0-0.2,0.1-0.2,0.2
				c0,1.8,0,13.4,0,17.1c0,0.6-0.5,1.1-1.1,1.1C9.5,43.1,9,42.7,9,42V23.9c0-0.8,0.6-1.5,1.5-1.5H17c3.9,0.1,6.2,2.3,6.2,6.1
				c0,3-1.9,5.2-3.5,5.9c-0.1,0-0.1,0.2-0.1,0.3c0.6,1,3,5,4.1,7C24.1,42.2,24,43,23,43C22.1,43,21.6,42.8,21.2,42.1z"/>
			<path class="st4" d="M32.4,23.2v1.7c0,0.6-0.5,1.1-1.1,1.1c-0.6,0-1.1-0.5-1.1-1.1v-1.7c0-0.6,0.5-1.1,1.1-1.1
				C31.9,22.1,32.4,22.6,32.4,23.2z M32.4,28.7v13c0,0.6-0.5,1.1-1.1,1.1c-0.6,0-1.1-0.5-1.1-1.1v-13c0-0.6,0.5-1.1,1.1-1.1
				C31.9,27.5,32.4,28,32.4,28.7z"/>
			<path class="st4" d="M42.1,41.7c0,0.6-0.5,1.1-1.1,1.1c-0.6,0-1.1-0.5-1.1-1.1V23.2c0-0.6,0.5-1.1,1.1-1.1c0.6,0,1.1,0.5,1.1,1.1
				V41.7z"/>
			<path class="st4" d="M50.3,35.1c0.1,3.7,2.1,5.5,4.9,5.5c2.3,0,3.8-1.5,3.9-3.9v-8.1c0-0.6,0.5-1.1,1.1-1.1
				c0.6,0,1.2,0.5,1.2,1.1V38c-0.1,0.9,0,1.7,0.3,2.1c0.2,0.2,0.7,0.4,1.2,0.5c0.6,0.1,1,0.2,1,0.8c0,0.6-0.5,1.1-1.1,1.2
				c-1.7,0.1-2.8-0.9-3.1-1.7c0-0.1-0.2-0.1-0.2,0c-1,1.1-2.3,1.8-4.1,1.8c-4.6,0.2-7-2.8-7.1-7.3c-0.2-5.3,3.2-7.8,6.6-7.8
				c0.8,0,1.4,0,2.2,0.3c0.6,0.2,1,0.7,1,1.3c-0.1,0.6-0.6,0.9-1.1,0.7c-0.5-0.1-1.2-0.3-1.9-0.2C52.8,29.7,50.3,31.2,50.3,35.1z"/>
			<path class="st4" d="M70.7,41.7c0,0.6-0.5,1.1-1.1,1.1c-0.6,0-1.1-0.5-1.1-1.1V28.6c0-0.6,0.5-1.1,1.1-1.1c0.6,0,1.1,0.5,1.1,1.1
				V41.7z M78.1,33.1c0.1-2.2-0.9-3.5-2.9-3.5c-0.9,0-1.4,0.3-2.6,0.8c-0.4,0.2-1.3-0.1-1.4-0.7c-0.1-0.7,0.3-1.1,1-1.5
				c1.4-0.7,2.7-0.8,3.1-0.8c3.2,0.1,5,1.8,5.1,5.5v8.7c0,0.6-0.5,1.1-1.1,1.1c-0.6,0-1.1-0.5-1.1-1.1V33.1z"/>
			<path class="st4" d="M98.3,35.7c-0.3,4.3-2.1,7.2-6.9,7.2c-4-0.1-6.4-3-6.6-7.5c-0.1-5.8,3.1-8,6.6-8.1c1-0.1,2.1,0.2,3,0.6
				c1,0.4,1,1.2,0.9,1.6c-0.1,0.5-0.8,0.8-1.3,0.6c-0.7-0.3-1.8-0.6-2.6-0.6c-3.1,0.1-4.6,2.1-4.5,5.7c0.1,2.6,0.9,5.5,4.4,5.7
				c3.4,0.1,4.4-2.3,4.6-5.2c0-0.8,0-1.9-0.4-3.1c-0.2-0.5,0.2-1.1,0.7-1.1c0.7-0.1,1.3,0.4,1.5,1C98.2,33.6,98.4,34.8,98.3,35.7z"
				/>
			<path class="st4" d="M121.9,28.6l-3.9,12.9c-0.2,0.7-0.8,1.2-1.5,1.2c-0.7,0-1.4-0.4-1.7-1.1c-0.7-1.7-2.1-4.8-2.6-5.9
				c0-0.1-0.1-0.1-0.2,0c-0.5,1.2-1.9,4.3-2.6,5.9c-0.3,0.7-1,1.1-1.7,1.1c-0.7,0-1.3-0.5-1.5-1.2l-3.7-13.1
				c-0.2-0.6,0.3-1.2,0.9-1.2c0.7,0,1.2,0.3,1.4,0.9c0.8,2.6,2.6,9.5,3.1,11.3c0,0.1,0.1,0.1,0.1,0c0.6-1.3,2-4.6,2.7-6.3
				c0.2-0.6,0.8-0.9,1.4-0.9c0.6,0,1.2,0.4,1.4,0.9c0.7,1.6,2.1,4.9,2.7,6.2c0.1,0.1,0.1,0.1,0.2,0c0.5-1.8,2.4-8.4,3.2-11
				c0.3-0.9,0.7-1,1.5-1C121.7,27.5,122.1,28.1,121.9,28.6z"/>
			<path class="st4" d="M128.6,35.1c0.1,3.7,2.1,5.5,4.9,5.5c2.3,0,3.8-1.5,3.9-3.9v-8.1c0-0.6,0.5-1.1,1.1-1.1
				c0.6,0,1.2,0.5,1.2,1.1V38c-0.1,0.9,0,1.7,0.3,2.1c0.2,0.2,0.7,0.4,1.2,0.5c0.6,0.1,1,0.2,1,0.8c0,0.6-0.5,1.1-1.1,1.2
				c-1.7,0.1-2.8-0.9-3.1-1.7c0-0.1-0.2-0.1-0.2,0c-1,1.1-2.3,1.8-4.1,1.8c-4.6,0.2-7-2.8-7.1-7.3c-0.2-5.3,3.2-7.8,6.6-7.8
				c0.8,0,1.4,0,2.2,0.3c0.6,0.2,1,0.7,1,1.3c-0.1,0.6-0.6,0.9-1.1,0.7c-0.5-0.1-1.2-0.3-1.9-0.2C131.1,29.7,128.6,31.2,128.6,35.1z
				"/>
		</g>
	</g>
</g>
</svg>
