<?xml version="1.0" encoding="utf-8"?>
<!-- Generator: Adobe Illustrator 26.1.0, SVG Export Plug-In . SVG Version: 6.00 Build 0)  -->
<svg version="1.1" id="レイヤー_1" xmlns="http://www.w3.org/2000/svg" xmlns:xlink="http://www.w3.org/1999/xlink" x="0px"
	 y="0px" viewBox="0 0 151.1000061 97.4000015" style="enable-background:new 0 0 151.1000061 97.4000015;" xml:space="preserve">
<style type="text/css">
	.st0{display:none;fill:#583C32;enable-background:new    ;}
	.st1{font-family:'AB-babywalk-90ms-RKSJ-H';}
	.st2{font-size:29px;}
	.st3{fill:#FFFFFF;}
	.st4{fill:#583C32;}
	.st5{enable-background:new    ;}
</style>
<text transform="matrix(1 0 0 1 39.9728012 44.4925995)" class="st0 st1 st2">News</text>
<path class="st3" d="M148.6999969,46.7000008c0.1000061-0.2000008,0.1000061-0.5,0.1999969-0.5999985
	C149,45.9000015,149,45.8000031,149.0999908,45.6000023c0-0.2999992,0-0.5,0-0.7000008
	c0,0.2999992-0.1000061,0.0999985-0.1000061-0.0999985c0-0.0999985,0,0-0.1000061-0.0999985c0,0.2999992,0,0.5,0,0.7999992
	c-0.1000061,0.0999985-0.1000061,0.2000008-0.1999969,0.4000015c0.1000061-0.7999992,0.1000061-0.9000015,0-1.2999992
	c0.1000061-0.2000008,0.1000061-0.2000008,0.1999969-0.2999992c0-0.4000015,0-0.5999985-0.1000061-0.9000015
	c-0.1999969,0.2000008-0.3000031,0.0999985-0.5-1.0999985c0.1000061,0.2000008,0.1000061,0.2999992,0.1999969,0.5
	c0-0.4000015,0.1000061-0.7000008,0.1000061-1.0999985c0-0.4000015,0-0.9000015,0-1.4000015
	c0.1000061,0.2999992,0.1000061,0.4000015,0.1999969,0.7000008c0-0.2000008,0-0.2999992,0.1000061-0.5
	c-0.1000061-0.2999992-0.1000061-0.5999985-0.1000061-0.9000015c-0.1000061,0-0.1000061,0-0.1999969-0.0999985
	c0.1000061-0.5,0.1000061-0.9000015,0.1999969-1.2000008c-0.1000061-0.7999992-0.3000031-0.7999992-0.3999939-1.0999985
	c0-0.2999992,0.1000061-0.4000015,0.1000061-0.7000008c0-0.2000008,0-0.4000015,0-0.7000008
	c0.1000061,0.2999992,0.1999969,0.7000008,0.3000031,0.2999992c0-0.2999992,0-0.7000008,0.1000061-1
	c0-0.0999985,0-0.2000008,0.1000061-0.2000008c0-0.2999992-0.1000061-0.5999985-0.1000061-1
	c-0.1000061-0.0999985-0.1999969-0.2000008-0.3000031-0.2999992c0-0.4000015,0-0.7000008,0.1000061-1
	c0.1000061-0.0999985,0.1000061-0.0999985,0.1000061-0.2000008c0-0.4000015-0.1000061-0.7000008-0.1000061-0.8999996
	c-0.1000061-0.2000008-0.1000061-0.2999992-0.1999969-0.3999996c0.1000061-0.8999996,0.1999969-1.7000008,0.1999969-2.3999996
	c0.1000061,0.2999992,0.1000061,0.5,0.1999969,0.7999992c0-0.3999996,0.1000061-0.7000008,0.1000061-0.8999996
	c-0.1000061-0.5-0.1000061-1-0.1999969-1.5c-0.1000061-0.1000004-0.1000061-0.1000004-0.1999969-0.2999992
	c0.1000061-0.2000008,0.1000061-0.3999996,0.1000061-0.5c0,0.1000004,0,0.2000008,0.1000061,0.2999992
	c0-0.2999992,0-0.5,0.1000061-0.7999992c-0.1000061-0.7000008-0.5-0.3999996-0.6000061-1.1000004
	c0-0.7000008,0-0.7000008,0.1999969-0.8999996c0,0.2999992,0.3000031-0.3999996,0.3000031-0.1000004
	c0.1000061-0.5-0.1999969-0.2000008-0.1999969-0.7999992c0-0.1000004,0-0.1000004,0-0.2000008
	c0,0.1000004,0.1000061,0.2999992,0.1000061,0.3999996c0-0.7000008,0-1.5-0.1000061-2.2999992
	c0-0.2000008-0.1000061-0.5-0.1000061-0.6000004c0-0.7000008-0.1000061-1.2999992-0.1999969-1.8999996
	c-0.1000061,0.2000008-0.1000061,0.6000004-0.1999969,0.5c0-0.8999996-0.1999969-2.1000004-0.3999939-3.1000004
	c-0.1000061-0.3000002-0.3000031-0.5-0.3999939-0.8000002c-0.1000061-0.3000002-0.1999969-0.6000004-0.1999969-0.8000002
	s0.1000061-0.3000002,0.1000061-0.3999996c0-0.1000004-0.1000061-0.1000004-0.1000061-0.1999998l-0.3999939-0.3000002
	c-0.1999969-0.3999996-0.3999939-0.8000002-0.6000061-1.1999998c0.1999969,0.3999996,0.3000031,0.8000002,0.1000061,0.6000004
	c-0.1000061-0.1000004-0.1000061-0.1999998-0.1999969-0.3000002v0.1999998l-0.1000061-0.1999998
	c0-0.1000004,0-0.1999998-0.1000061-0.3000002c-0.1000061-0.1999998-0.1000061-0.3999996-0.1999969-0.6000004
	c-0.1999969-0.3999996-0.5-0.6000004-0.6999969-0.8999996c-0.3000031-0.3000002-0.5-0.5-0.8000031-1
	c-0.1000061-0.3000002-0.3000031-0.6000004-0.5-0.8000002c0.1000061,0.1000004,0.1999969,0.1000004,0.3000031,0.1999998
	l-0.1000061-0.1000004c-0.3999939-0.3999996-0.8000031-0.8000002-1.3000031-1.1999998
	c-0.3999939-0.4000001-0.8000031-0.8000002-1.3999939-1.4000001c-0.1999969-0.0999999-0.3999939-0.3000002-0.6999969-0.5
	c-0.1000061,0-0.1999969,0-0.3000031,0c-0.3999939-0.3000002-0.3999939-0.5-1.1000061-0.8000002
	c0.1000061,0.0999999,0.1999969,0.1999998,0.3000031,0.3000002c0.1000061,0.0999999,0.1000061,0.0999999,0.1000061,0.1999998
	c-0.1999969-0.1999998-0.3999939-0.3000002-0.6000061-0.4000001c-0.1999969-0.1999998-0.3999939-0.4000001-0.6000061-0.5
	c-0.5-0.3000002-0.6999969-0.1999998-1.3999939-0.5999999c-0.1000061-0.0999999-0.1000061-0.0999999-0.3000031-0.3
	c-0.6999969-0.2-1.6999969-0.5-2.5-0.8999999c-0.3000031-0.0999999-0.6000061-0.2-0.8000031-0.4000001
	c0,0,0.1999969,0,0.5,0.0999999c0-0.0999999,0-0.0999999,0-0.2c0.1000061,0,0.3000031,0,0.3999939,0
	c-0.1000061,0-0.1000061,0-0.1999969-0.0999999c-0.6999969-0.0999999-1.3000031-0.2-1.8999939-0.3
	c-0.1999969-0.1-0.3999939-0.1-0.5-0.2c-0.1000061,0-0.1999969,0-0.1999969,0c0.1000061,0.1,0.3999939,0.2,0.1999969,0.3
	c0,0,0.1000061,0,0.1999969,0.0999999c0,0.0999999-0.1000061,0.0999999-0.1999969,0.2c-0.5,0-0.8999939-0.0999999-1.3999939-0.2
	c-0.3999939,0-0.8999939-0.1-1.3000031-0.1c-0.3000031,0-0.5,0-0.6999969,0c-0.3000031,0-0.5999985-0.1-0.8000031-0.1
	c-0.5999985,0-0.5999985-0.1-0.9000015-0.2c0.4000015,0,0.6999969,0.1,1.1999969,0.1c0-0.1,0.0999985-0.1,0.0999985-0.2
	c0.0999985,0.1,0.1999969,0.1,0.3000031,0.2c0.1999969-0.1,0.3999939-0.2,0.5-0.2c0.3000031,0,0.3000031,0.1,0.8999939,0.1
	c-0.1000061,0-0.1999969-0.1-0.1999969-0.1c-0.1999969,0-0.5-0.1-0.6999969-0.1c-0.8000031,0-1.4000015,0-2.1999969,0
	c-0.5,0.1-0.9000015,0.2-1.5,0.3c-0.0999985-0.1-0.6999969-0.1-1-0.1c-0.0999985,0-0.1999969-0.1-0.1999969-0.1
	c-0.6999969,0-1.1999969,0-1.6999969,0c-0.1999969,0-0.3000031,0-0.5,0h-0.0999985c0,0,0,0,0,0.1
	c-0.3000031,0-0.5999985,0-0.8000031,0l-0.0999985,0.1c-0.1999969,0-0.5,0-0.8000031,0c0.0999985-0.1,0.3000031-0.2,0.4000015-0.3
	c-0.4000015,0-0.6999969,0-1.0999985,0s-0.6999969,0-1,0c-0.5999985,0-1,0.1-1.5,0.1c-0.0999985,0-0.1999969,0-0.1999969,0.1
	c-0.1999969,0-0.3000031-0.1-0.5-0.1s-0.5,0-0.6999969-0.1c0.0999985,0,0.1999969-0.1,0.3000031-0.1
	c-0.8000031,0.1-1.0999985,0.1-1,0.2c-0.4000015,0-0.8000031,0.1-1.1999969,0.1c-0.5,0-1.0999985,0-1.5999985,0
	c-0.0999985,0-0.4000015,0-0.6999969,0V2c-0.4000015,0-0.9000015,0-1.5,0c-0.5-0.2-1-0.3-2.4000015-0.3
	c-0.0999985,0.1,0.5,0.2,0.6999969,0.3c-0.4000015,0-0.6999969,0.0999999-1.0999985,0.0999999
	c-0.1999969-0.1-0.4000015-0.1-0.5999985-0.2c-0.5,0-1,0.1-1.5,0.1c-0.4000015-0.1-0.6999969-0.2-1.0999985-0.3000001
	c0.5999985,0,1.0999985,0.1,1.5999985,0.1s1.0999985,0,1.8000031,0c-0.1999969-0.1-0.3000031-0.1-0.5-0.2
	c-0.4000015,0-0.6999969,0-1.1999969,0c0.3000031-0.1,0.5-0.1,0.6999969-0.2c-0.1999969,0-0.3000031-0.1-0.5-0.1
	c-1,0.1-1.9000015,0.1-2.8000031,0.2c0.1999969,0.1-0.0999985,0.1-0.5,0.2c-0.1999969,0-0.4000015,0-0.5999985,0
	s-0.4000015,0.1-0.5999985,0.1c-0.4000015,0-0.8000031-0.1-1-0.1c-0.5999985,0-1.1999969,0-1.6999969,0c0,0-0.1999969,0-0.3000031,0
	c-0.1999969,0-0.4000015,0-0.5999985,0c-0.0999985,0-0.1999969,0.1-0.3000031,0.1c-0.5-0.1-1.0999985-0.2-1.6999969-0.3000001
	c-0.3000031,0-0.5,0.1-0.9000015,0.1c0.9000015,0,0.6999969,0.2,1.1999969,0.2c-0.5-0.1-0.9000015,0-1.3000031,0
	C94.1999969,2,94,2,94,2c-0.1999969,0-0.3000031-0.1-0.5-0.1c-0.5,0-1,0-1.5999985,0C92.2000046,1.8,93.2000046,1.8,93,1.5999999
	c-0.3000031,0-0.5999985-0.1-0.8000031-0.1c-0.1999969,0-0.4000015,0-0.6999969,0.1c0.1999969,0.1,0.3000031,0.1,0.5999985,0.2
	c-0.5,0-0.8000031,0-1,0c-0.3000031,0-0.5,0.1-1.0999985,0.1c-0.4000015,0-0.5999985,0-0.5,0.1
	c0.5,0,1.0999985-0.1,1.3000031,0.0999999c-0.5,0-1,0.0999999-1.5999985,0.0999999c0.0999985,0,0.1999969,0,0.3000031,0.0999999
	c-0.4000015,0-0.6999969,0.0999999-1,0.0999999c-0.1999969,0,0.0999985,0,0.4000015,0.0999999c-0.0999985,0-0.0999985,0-0.1999969,0
	c-0.5,0-0.6999969,0.0999999-1.1999969,0.0999999c-0.1999969-0.0999999,0.9000015-0.2,0.0999985-0.3
	c-0.3000031,0.0999999-0.5999985,0.0999999-0.9000015,0.2c0.0999985,0,0.1999969,0.0999999,0.1999969,0.0999999
	c-0.1999969,0.0999999-0.5999985,0-1.0999985,0c-0.0999985-0.0999999-0.1999969-0.0999999-0.3000031-0.0999999
	c-0.3000031,0-0.5,0-0.9000015-0.0999999c0.3000031,0,0.5-0.0999999,0.6999969-0.0999999L84.0999985,2
	c-0.1999969,0-0.5-0.1-0.9000015-0.1C83.4000015,2,82.8000031,2.0999999,83,2.2C83.0999985,2.2,82.9000015,2.3,82.4000015,2.3
	c-0.0999985,0-0.3000031-0.0999999-0.5999985,0c-0.3000031,0-1.6999969-0.3-2.0999985-0.2c0-0.1-0.3000031-0.1,0-0.2
	c0.0999985,0-0.1999969-0.1-0.3000031-0.1c-0.4000015,0.1-0.6999969,0.2-1,0.3000001
	c0.1999969,0.0999999,0.3000031,0.0999999,0.5,0.0999999c-0.1999969,0-0.4000015,0-0.5,0
	c0.0999985,0,0.1999969,0.0999999,0.4000015,0.0999999c-0.3000031,0-0.5,0-0.6999969,0
	c-0.0999985-0.0999999-0.1999969-0.2-0.3000031-0.3c0.3000031,0,0.4000015-0.1,0.5999985-0.1c-0.5-0.1-0.9000015,0-1.1999969,0
	c0.0999985,0,0.0999985-0.1,0.1999969-0.1c-0.5999985-0.1-0.9000015-0.1-1.0999985,0c0,0.1,0,0.1,0,0.2
	c-0.1999969,0-0.3000031,0.0999999-0.4000015,0.0999999C76.0999985,2,76.3000031,2,76,2.0999999
	c-0.4000015,0.0999999-0.8000031-0.1-1.1999969,0C74.5999985,2,74.5,2,74.3000031,1.9C73.2000046,1.9,72.7000046,1.8,72.5,1.5999999
	c-0.1999969,0-0.4000015,0.1-0.5999985,0.1C71.5,1.6999999,71,1.8,70.5,1.8c0.1999969,0,0.4000015,0.1,0.5,0.1
	c-0.1999969,0-0.5,0-0.8000031,0c0-0.1,0-0.1,0-0.2c-0.3000031-0.1-0.5999985-0.1-0.8000031-0.2
	c-0.1999969,0.1-0.4000015,0.1-0.5999985,0.2l-1-0.1c0.4000015,0,0.5999985,0.1,0.5999985,0.2c-0.3000031,0-0.5999985,0-0.8000031,0
	c0,0,0-0.1-0.0999985-0.1c-0.4000015,0.1-0.6999969,0.1-0.9000015,0.1c-0.0999985,0,0.3000031,0.1-0.3000031,0.1
	c-0.3000031,0-0.5999985,0-0.9000015-0.1c-1,0-2.0999985,0-3-0.1c-0.5999985,0.1-1,0.2-1.5,0.2s-1.0999985,0-1.5999985-0.1
	c-0.5,0-0.7000008,0-1-0.1c0.0999985,0,0.2000008-0.1,0.2999992-0.1c-0.2000008,0-0.4000015-0.1-0.5999985-0.1
	c-0.7999992,0.1,0.0999985,0.2,0,0.2c-0.4000015,0-0.7999992,0-1.0999985,0s-0.5999985,0-1,0c0,0-0.0999985,0.1-0.2999992,0.1
	s-0.4000015-0.1-0.7999992-0.1c0.2000008,0.2,0,0.3000001-0.7999992,0.4c-0.0999985,0-0.2000008-0.1-0.2000008-0.1
	c0.0999985-0.1,0.2000008-0.1,0.5-0.2c0.4000015-0.1,0.2999992-0.1-0.2999992-0.2c-0.2000008,0-0.5,0-0.5999985,0.1
	c-0.5999985,0-1.0999985-0.1-1.5,0c0.0999985,0,0.2999992,0.1,0.5,0.2c-1.2999992-0.1-2.0999985,0-2.9000015,0.1
	c-0.0999985,0-0.2000008,0-0.2000008,0c-0.9000015-0.1-0.9000015-0.1-1.5999985,0c-0.2000008,0-0.4000015,0.1-0.7999992,0.1v-0.1
	c-0.2000008,0-0.2999992,0-0.5999985,0c0-0.1,0.0999985-0.1,0.0999985-0.1s-0.0999985-0.1-0.2999992-0.1
	c-0.2000008,0.1-0.2999992,0.2-0.4000015,0.3000001c-0.2999992,0-0.5999985,0-0.9000015,0C44.5999985,2.0999999,44.5,2,44.4000015,2
	c-0.2000008,0-0.4000015,0.0999999-0.5,0.0999999c-0.5999985,0-1.0999985-0.1-1.7999992-0.1c1,0,1.5999985-0.1,2.5-0.1
	c0-0.1,0-0.1,0-0.2c-0.2000008,0-0.2999992,0-0.4000015,0c-0.0999985-0.1,0.0999985-0.1-0.5999985-0.2
	c-0.0999985,0.1-0.4000015,0.2-1.0999985,0.2c-0.0999985,0-0.2000008-0.1-0.2999992-0.1c-0.2000008,0-0.5,0-0.7000008,0
	c0.2000008,0,0.2999992,0.1,0.5,0.1c-0.2999992,0-0.5,0.1-0.7999992,0.1c0.4000015,0,0.5999985,0,0.7000008,0
	c-0.0999985,0.1-0.0999985,0.1-0.2000008,0.2c-0.4000015,0.1-0.9000015,0.1-1.5999985,0.1
	C39.7000008,2.0999999,39.9000015,2,39.2999992,2c-0.5,0.0999999-0.5999985,0.0999999-1.2000008,0.0999999
	c-0.2000008,0-0.4000015,0-0.5,0c-0.2000008,0-0.2999992,0-0.5999985,0C36.7999992,2,35.7999992,2,35.7000008,1.9
	c-1,0-1.7999992,0.1-2.4000015,0.1999999C33,2.1999998,32.5999985,2.1999998,32.0999985,2.1999998
	c-0.5-0.0999999-1-0.2-1.3999996-0.4c-0.2999992,0-0.5,0-0.7999992,0c0.1000004-0.1,0.1000004-0.1,0.2999992-0.2
	c-0.5,0.1-0.8999996,0.1-1.3999996,0.2c0.1000004,0,0-0.1-0.2000008-0.1c-0.2999992,0.1-0.7999992,0.1-1.2999992,0.1
	c0,0-0.1000004,0-0.2000008,0c0.1000004,0,0.1000004-0.1,0.2000008-0.1c-0.3999996,0-0.7999992,0-1.2999992,0
	c0.2000008,0,0.3999996,0.1,0.5,0.1c-0.2999992,0.1-0.5,0.2,0,0.2c-0.1000004,0-0.1000004,0-0.2000008,0l0,0
	c-0.3999996,0-0.7999992,0-1.2000008,0c-0.1000004,0.1,0,0.1-0.1000004,0.1999999c-0.2999992,0-0.5-0.0999999-1-0.3
	c0.2999992,0,0.6000004,0,1,0c-0.2999992-0.1-0.6000004-0.1-0.7999992-0.2c-0.5,0-0.8999996,0.1-1.3999996,0.1
	c0.2000008,0,0.2999992,0.1,0.3999996,0.1c-0.1000004,0-0.3999996,0.1-0.7000008,0.1c-0.1000004,0-0.2000008,0-0.2999992,0l0,0
	c0,0-0.1000004,0-0.2000008,0c0,0-0.1000004,0-0.1000004-0.1c-0.5,0-0.8999996,0.1-1.1000004,0.1
	c-0.6000004,0-1,0.1-1.3999996,0.1999999s-0.6000004,0-1.1000004,0.0999999c0.5,0,0.2000008,0.2,0,0.3
	c-0.3999996,0-0.5-0.2-1.2999992-0.0999999c-0.2000008,0.0999999-0.2999992,0.0999999-0.5,0.2
	c0.2999992-0.0999999,0.6000004-0.0999999,1-0.0999999c-0.1000004,0.0999999-0.2999992,0.0999999-0.3999996,0.2
	c-0.1000004,0-0.2000008,0-0.2999992,0C15.999999,3,15.3999996,3.2,14.999999,3.2
	c-0.3999996,0.2-0.8000002,0.4000001-1.1000004,0.6000001c-0.1000004,0-0.3000002,0.0999999-0.5,0.0999999
	C13.1999989,4,12.999999,4,12.6999989,4.0999999c-0.1999998,0.0999999-0.3999996,0.1999998-0.5,0.3000002
	C12.0999985,4.5,11.8999987,4.5999999,11.8999987,4.5999999c0,0.0999999,0.1000004,0.0999999,0.1000004,0.1999998
	c-0.1999998,0.0999999-0.3999996,0.1999998-0.6000004,0.3000002c0-0.0999999-0.3000002,0-0.8000002,0.3000002
	c-0.3000002,0.3000002-0.6000004,0.5-0.8999996,0.6999998C9.5999985,6.1999998,9.5999985,6.1999998,9.499999,6.2999997
	c0.1999998-0.1999998,0.5-0.3000002,0.6999998-0.4000001C9.8999987,6.0999994,9.5999985,6.2999997,9.3999987,6.4999995
	C9.6999998,7,9.5,7.3000002,9.3000002,7.5C8.8999996,7.8000002,8.6999998,7.9000001,8.1999998,8.3999996
	C8,8.6999998,7.8000002,9.1000004,7.5,9.6000004C7.5,9.6999998,7.4000001,9.8000002,7.3000002,10
	c-0.3000002,0.3000002-0.6999998,0.6000004-1,1c-0.1999998,0.1999998-0.4000001,0.5-0.5999999,0.6999998
	C5.3000002,12.3000002,5.1000004,12.8999996,4.8000002,13.5C4.7000003,13.6999998,4.5,13.8999996,4.4000001,14.3000002
	C4.2000003,14.6999998,4,15.1999998,3.8000002,15.6000004c-0.4000001,1-0.7,2-0.8,2.2999992c0,0,0.0999999,0,0.0999999,0.1000004
	L3,18.2999992c-0.0999999,0-0.0999999,0.1000004-0.0999999,0.2000008c-0.0999999,0.5-0.0999999,0.7999992-0.2,1.2000008
	L2.8,19.8000011c0,0.1000004,0,0.2000008,0,0.2999992c0,0.1000004,0,0.2000008,0,0.2999992
	c-0.0999999,0.2000008-0.0999999,0.2000008-0.2,1c0,0.2999992,0,0.7999992,0.0999999,1c0.0999999,0.1000004,0,1,0.2,0.8999996
	c0-0.2000008,0.0999999-0.5,0.0999999-0.7000008C3,23,3,23.2999992,2.9000001,23.7000008
	c-0.0999999,0-0.0999999,0.1000004-0.2,0.1000004c0-0.2000008,0-0.3999996-0.0999999-0.5
	c0,0.2000008-0.0999999,0.2999992-0.0999999,0.3999996c0-0.2000008,0-0.2999992-0.0999999-0.5c0,0.7000008,0,1.2999992,0,1.7000008
	c0,0.3999996-0.0999999,0.7000008-0.0999999,1c0.0999999,0,0.0999999,0,0.0999999,0
	c0,0.2000008,0.0999999,0.3999996,0.0999999,0.6000004c0.0999999-0.5,0.2-1,0.3-1.5C3,25.1000004,3,25.2000008,3,25.2999992
	c0,0.2999992-0.0999999,0.5-0.0999999,0.7000008c0,0.2999992,0,0.6000004,0.0999999,1
	c-0.0999999,0.2999992-0.0999999,0.6000004-0.2,0.7999992C2.7,28.0999985,2.7,28.5,2.7,29c0,0.2999992,0,0.5,0,0.7999992
	S2.8,30.1999989,2.8,30.6999989c-0.0999999,0.5-0.4000001,0.7000008-0.4000001,1.2000008
	c0.0999999,0.1999989,0,0.8999996,0.0999999,1.1000004c0.0999999,0.0999985,0.0999999,0.7000008,0.0999999,1.0999985
	c0-0.2999992,0-0.4000015,0.0999999-0.7000008c0,0.5,0.0999999,0.7000008,0.0999999,1.2000008
	c-0.0999999-0.2999992-0.3-0.2000008-0.4000001-0.0999985c-0.0999999,0.2000008-0.0999999,0.5-0.2,0.5999985
	c-0.0999999,0.2000008-0.0999999,0.2999992-0.2,0.5c0,0.2999992,0,0.5,0,0.7000008
	c0-0.2999992,0.0999999-0.0999985,0.0999999,0.0999985c0,0.0999985,0,0,0.0999999,0.0999985c0-0.2999992,0-0.5,0-0.7999992
	c0.0999999-0.0999985,0.0999999-0.2000008,0.2-0.4000015c-0.0999999,0.7999992,0,0.9000015,0,1.2999992
	c-0.0999999,0.2000008-0.0999999,0.2000008-0.2,0.2999992c0,0.4000015,0,0.5999985,0.0999999,0.9000015
	c0.2-0.2000008,0.3-0.0999985,0.5,1.0999985c-0.0999999-0.2000008-0.0999999-0.2999992-0.2-0.5
	c0,0.4000015-0.0999999,0.7000008-0.0999999,1.0999985c0,0.4000015,0,0.9000015,0,1.4000015
	c-0.0999999-0.2999992-0.2-0.5-0.2-0.7000008c0,0.2000008,0,0.4000015-0.0999999,0.5
	c0.0999999,0.2999992,0.0999999,0.5999985,0.0999999,0.9000015c0.0999999,0,0.0999999,0,0.2,0.0999985
	c-0.0999999,0.5-0.0999999,0.9000015-0.2,1.2000008c0.0999999,0.7999992,0.3,0.7999992,0.4000001,1.0999985
	c0,0.2999992-0.0999999,0.5-0.0999999,0.7000008s0,0.4000015,0,0.7000008c-0.0999999-0.2999992-0.2-0.7000008-0.3-0.2999992
	c0,0.2999992,0,0.7000008-0.0999999,1c0,0.0999985,0,0.2000008-0.0999999,0.2000008c0,0.2999992,0.0999999,0.7000008,0.0999999,1
	c0.0999999,0.0999985,0.2,0.2000008,0.3,0.2999992c0,0.4000015,0,0.7000008-0.0999999,1
	c0,0.0999985-0.0999999,0.0999985-0.0999999,0.2000008c0,0.4000015,0.0999999,0.7000008,0.0999999,0.9000015
	c0.0999999,0.2000008,0.0999999,0.2999992,0.2,0.4000015c-0.0999999,0.9000015-0.2,1.7000008-0.2,2.4000015
	c-0.0999999-0.2999992-0.0999999-0.5-0.2-0.7999992c0,0.4000015-0.0999999,0.7000008-0.0999999,0.9000015
	c0.0999999,0.5,0.0999999,1,0.2,1.5c0.0999999,0.0999985,0.0999999,0.2000008,0.2,0.2999992
	c-0.0999999,0.2000008-0.0999999,0.4000015-0.0999999,0.5c0-0.0999985,0-0.2000008-0.0999999-0.2999992
	c0,0.2999992,0,0.5-0.0999999,0.7999992c0.0999999,0.7000008,0.2,1.4000015,0.3,2.2000008c0,0.7000008,0,0.7000008-0.2,0.9000015
	c0-0.2999992,0-0.5999985,0-1c-0.0999999,0.5-0.0999999,1.2000008-0.0999999,1.7999992c0,0.0999985,0,0.0999985,0,0.2000008
	c0-0.0999985-0.0999999-0.2999992-0.0999999-0.4000015c0,0.7000008,0,1.5,0,2.2999992
	c0,0.2000008,0.0999999,0.4000015,0.0999999,0.5999985c0,0.7000008,0,1.2000008,0,1.7999992
	c0.0999999-0.0999985,0.2-0.5,0.3-0.4000015c-0.0999999,0.7999992-0.2,1.9999962-0.3,2.8999977
	c0,0.3000031,0.0999999,0.5999985,0.0999999,0.9000015S2.1999998,67.7999954,2.1999998,68
	c-0.0999999,0.0999985-0.2,0.1999969-0.2,0.3000031c0,0.0999985,0,0.0999985,0,0.1999969l0.2,0.4000015
	c0,0.4000015,0,0.8000031,0,1.1999969c0.0999999-0.4000015,0.0999999-0.8000031,0.2-0.5999985c0,0.0999985,0,0.1999969,0,0.4000015
	c0-0.0999985,0.0999999-0.0999985,0.0999999-0.1999969c0,0.0999985,0,0.0999985,0,0.1999969l-0.0999999,0.3000031
	C2.3999999,70.4000015,2.3,70.6000061,2.3,70.8000031C2.3,71.7000046,2.5,72,2.3999999,73.1000061
	C2.3,73.4000092,2.3,73.7000046,2.1999998,74.0000076c0-0.0999985-0.0999999-0.1999969-0.0999999-0.4000015v0.0999985
	c0.0999999,0.5,0.0999999,1.0999985,0.2,1.6999969c0,0.5999985,0,1.1999969,0,2c0,0.1999969,0.0999999,0.5,0.2,0.8000031
	c0.0999999,0.0999985,0.0999999,0.1999969,0.2,0.1999969c0,0.5-0.0999999,0.5999985,0.2,1.4000015c0-0.1999969,0-0.3000031,0-0.5
	c0-0.0999985,0-0.1999969,0-0.3000031c0,0.1999969,0.0999999,0.5,0.2,0.6999969c0,0.1999969,0.2,0.9000015,0.5,1.5
	c0.3999999,0.8000031,0.7,1.4000015,0.7,1.5C4.5,83.2999954,4.8000002,83.2999954,5.1000004,84c0,0.0999985,0,0.1999969,0,0.4000015
	c0.1999998,0.3000031,0.5,0.5999985,0.8000002,1s0.4000001,0.8000031,0.6999998,1.1999969
	c0.0999999,0.3000031,0.3000002,0.5,0.4000001,0.8000031c0,0-0.0999999-0.0999985-0.3000002-0.4000015
	c0,0.0999985-0.0999999,0.0999985-0.0999999,0.1999969C6.5000005,87.0999985,6.4000006,87,6.2000003,87
	c0,0.0999985,0.0999999,0.0999985,0.0999999,0.1999969c0.5,0.5,0.9000001,1,1.4000001,1.4000015
	c0.0999999,0.1999969,0.1999998,0.3000031,0.2999997,0.5c0.1000004,0.0999985,0.1999998,0.0999985,0.1999998,0.0999985
	c0-0.0999985-0.1999998-0.4000015,0-0.3000031c0,0-0.1000004-0.0999985-0.1000004-0.1999969c0.1000004,0,0.1000004,0,0.1999998,0
	C8.999999,89.3999939,9.5999994,90,10.1999989,90.5999985c0.1999998,0.1999969,0.5,0.3000031,0.6000004,0.4000015
	c0.1999998,0.1999969,0.3999996,0.4000015,0.6000004,0.5999985c0.5,0.4000015,0.5,0.5,0.6999998,0.6999969
	c-0.3000002-0.1999969-0.6000004-0.4000015-1-0.8000031c-0.1000004,0-0.1000004,0-0.1999998,0.0999985
	c-0.1000004-0.0999985-0.1000004-0.1999969-0.1000004-0.4000015c-0.3000002-0.0999985-0.3999996-0.0999985-0.6000004-0.1999969
	c-0.3000002-0.1999969-0.1999998-0.3000031-0.6999998-0.5999985c0,0.0999985,0.1000004,0.0999985,0.1000004,0.1999969
	c0.1999998,0.1999969,0.3000002,0.3000031,0.5,0.5c0.6000004,0.4000015,1.1999998,0.9000015,2,1.3000031
	c0.5,0.1999969,0.8999996,0.4000015,1.5,0.5c0,0.1999969,0.6000004,0.4000015,0.8999996,0.5
	c0.1000004,0.0999985,0.1999998,0.1999969,0.1999998,0.1999969c0.6000004,0.3000031,1.1999998,0.5,1.6000004,0.6999969
	c0.2000008,0.0999985,0.2999992,0.0999985,0.5,0.1999969h0.1000004c0,0,0,0,0-0.0999985
	c0.2999992,0.0999985,0.6000004,0.0999985,0.8999996,0.1999969h0.1000004c0.2000008,0.0999985,0.5,0.0999985,0.7999992,0.1999969
	c-0.2000008,0-0.2999992,0.0999985-0.5,0.0999985c0.3999996,0.0999985,0.7999992,0.1999969,1.1000004,0.1999969
	c0.3999996,0.0999985,0.7999992,0.0999985,1,0.1999969c0.6000004,0.0999985,1.1000004,0,1.6000004,0
	c0.1000004,0,0.2000008,0,0.2999992-0.0999985c0.2000008,0,0.2999992,0.0999985,0.5,0.0999985s0.5,0.0999985,0.7000008,0.0999985
	c-0.1000004,0-0.2000008,0.0999985-0.2999992,0.0999985c0.7999992-0.0999985,1.1000004-0.0999985,1-0.1999969
	c0.3999996,0,0.7999992-0.0999985,1.2000008-0.0999985c0.5,0,1.1000004,0,1.6000004,0c0.1000004,0,0.3999996,0,0.7000008,0
	c0-0.0999985,0-0.0999985,0-0.1999969c0.3999996,0,0.8999996,0,1.3999996,0c0.5,0.1999969,1,0.3000031,2.3999996,0.3000031
	c0.1000004-0.0999985-0.5-0.1999969-0.7000008-0.3000031c0.3999996,0,0.7000008-0.0999985,1.1000004-0.0999985
	C32,94.9999771,32.2000008,94.9999771,32.4000015,95.0999756c0.5,0,1-0.0999985,1.5-0.0999985
	C34.3000031,95.0999756,34.6000023,95.1999741,35,95.2999802c-0.5999985,0-1.0999985-0.0999985-1.5999985-0.0999985
	s-1.0999985,0-1.7999992,0c0.2000008,0.0999985,0.2999992,0.0999985,0.5,0.1999969c0.2999992,0,0.7000008,0,1.2000008,0
	c-0.2999992,0.0999985-0.5,0.0999985-0.7000008,0.1999969c0.2000008,0,0.2999992,0.0999985,0.5,0.0999985
	c1-0.0999985,1.9000015-0.0999985,2.7999992-0.1999969c-0.2000008-0.0999985,0.0999985-0.0999985,0.5-0.1999969
	c0.2000008,0,0.4000015,0,0.5999985,0c0.2000008,0,0.4000015-0.0999985,0.5999985-0.0999985
	c0.4000015,0,0.7999992,0.0999985,1,0.0999985c0.5999985,0,1.2000008,0,1.7000008,0c0,0,0.2000008,0,0.2999992,0
	c0.2000008,0,0.4000015,0,0.5999985,0c0.0999985,0,0.2000008-0.0999985,0.2999992-0.0999985
	c0.5,0.0999985,1.0999985,0.1999969,1.7000008,0.3000031c0.2999992,0,0.5-0.0999985,0.9000015-0.0999985
	c-0.9000015,0-0.7000008-0.1999969-1.2000008-0.1999969c0.5,0.0999985,0.9000015,0,1.2999992,0c0.0999985,0,0.2999992,0,0.2999992,0
	c0.2000008,0,0.2999992,0.0999985,0.5,0.0999985c0.5,0,1.0999985,0,1.5999985,0
	c-0.2999992,0.0999985-1.2999992,0.0999985-1.0999985,0.3000031c0.2999992,0,0.5999985,0.0999985,0.7999992,0.0999985
	s0.4000015,0,0.7000008-0.0999985c-0.2000008-0.0999985-0.2999992-0.0999985-0.5999985-0.1999969c0.5,0,0.7999992,0,1,0
	c0.2999992,0,0.5-0.0999985,1.0999985-0.0999985c0.4000015,0,0.5999985,0,0.5-0.0999985
	c-0.5,0-1.0999985,0.0999985-1.2999992-0.0999985c0.5,0,1-0.0999985,1.5999985-0.0999985
	c-0.0999985,0-0.2000008,0-0.2999992-0.0999985c0.4000015,0,0.7000008-0.0999985,1-0.0999985
	c0.5,0,1.2000008,0.0999985,1.5,0.1999969c0.2000008,0.0999985-1.5999985,0.4000015-1.2999992,0.4000015
	c0.5,0,0.7000008-0.0999985,1.2999992-0.0999985c0.2000008,0.0999985-0.9000015,0.1999969-0.0999985,0.3000031
	c0.2999992-0.0999985,0.5999985-0.0999985,0.9000015-0.1999969c-0.0999985,0-0.2000008-0.0999985-0.2000008-0.0999985
	C52.5,95.2000122,52.6999969,95.1000137,53.5,95.1000137l0.2000008,0.0999985c0.4000015,0,0.9000015,0,1.2000008,0
	c0.2000008,0,0.2999992,0.0999985,0.5,0.0999985c-0.0999985,0-0.2000008,0.0999985-0.2999992,0.0999985
	c-0.5999985,0-1.2000008-0.0999985-1.9000015-0.0999985c0.0999985,0.0999985,0.2000008,0.0999985,0.2999992,0.1999969
	c0.2999992,0,0.5,0,0.9000015,0.0999985c-0.2999992,0-0.5,0.0999985-0.7000008,0.0999985l1.2000008,0.0999985
	c0.2000008,0,0.5,0.0999985,0.9000015,0.0999985c-0.2000008-0.0999985,0.5-0.1999969,0.2999992-0.3000031
	c-0.0999985,0,0.0999985-0.0999985,0.5999985-0.0999985c0.0999985,0,0.2999992,0.0999985,0.5999985,0
	c0.2999992,0,0.5999985,0,1-0.0999985c0,0.0999985,0.2999992,0.0999985,0,0.1999969
	c-0.0999985,0,0.2000008,0.0999985,0.2999992,0.0999985c0.4000015-0.0999985,0.7000008-0.1999969,1-0.3000031
	c-0.2000008-0.0999985-0.2999992-0.0999985-0.5-0.0999985c0.2000008,0,0.4000015,0,0.5,0
	c-0.0999985,0-0.2000008-0.0999985-0.4000015-0.0999985c0.2999992,0,0.5,0,0.7000008,0
	c0.0999985,0.0999985,0.2000008,0.1999969,0.2999992,0.3000031c-0.2999992,0.0999985-0.4000015,0.0999985-0.5999985,0.0999985
	c0.5,0.0999985,0.7999992,0,1.2000008,0c-0.0999985,0-0.0999985,0.0999985-0.2000008,0.0999985
	c0.5999985,0.0999985,0.9000015,0.0999985,1.0999985,0c0-0.0999985,0-0.0999985,0-0.1999969
	c0.2000008,0,0.2999992-0.0999985,0.4000015-0.0999985c-0.2999992,0-0.5999985-0.0999985-0.2999992-0.0999985
	c0.4000015-0.0999985,0.9000015,0.0999985,1.2000008,0c0.2000008,0.0999985,0.2999992,0.0999985,0.5,0.1999969
	c1.0999985,0,1.5999985,0.0999985,1.8000031,0.3000031l0.5999985-0.0999985c0.4000015,0,0.9000015-0.0999985,1.4000015-0.0999985
	c-0.1999969,0-0.4000015-0.0999985-0.5-0.0999985c0.1999969,0,0.5,0,0.8000031,0c0,0.0999985,0,0.0999985,0,0.1999969
	c0.3000031,0.0999985,0.5,0.0999985,0.8000031,0.1999969l0.5999985-0.1999969l1,0.0999985
	c-0.4000015,0-0.5999985-0.0999985-0.5999985-0.1999969c0.3000031,0,0.5999985,0,0.8000031,0c0,0,0,0.0999985,0.0999985,0.0999985
	c0.4000015-0.0999985,0.6999969-0.0999985,0.9000015-0.0999985c0.0999985,0-0.3000031-0.0999985,0.3000031-0.0999985
	c0.3000031,0,0.5999985,0,0.9000015,0.0999985c1,0,2.0999985,0,3,0.0999985c0.5999985-0.0999985,1-0.1999969,1.5-0.1999969
	s1.0999985,0.0999985,1.5999985,0.0999985s0.6999969,0,1,0.0999985c-0.0999985,0-0.1999969,0.0999985-0.3000031,0.0999985
	c0.1999969,0,0.4000015,0.0999985,0.5999985,0.0999985c0.8000031-0.0999985-0.0999985-0.1999969,0-0.1999969
	c0.4000015,0,0.8000031,0,1.0999985,0c0.3000031,0,0.5999985,0,1,0c0-0.0999985,0.0999985-0.0999985,0.3000031-0.1999969
	c0.1999969,0,0.4000015,0.0999985,0.8000031,0.0999985c-0.1999969-0.1999969,0-0.3000031,0.8000031-0.4000015
	c0.0999985,0,0.1999969,0.0999985,0.1999969,0.0999985c-0.0999985,0.0999985-0.1999969,0.0999985-0.5,0.1999969
	c-0.4000015,0.0999985-0.3000031,0.0999985,0.3000031,0.1999969c0.1999969,0,0.5,0,0.5999985-0.0999985
	c0.5999985,0,1.0999985,0.0999985,1.5,0c-0.0999985,0-0.3000031-0.0999985-0.5-0.1999969
	c1.3000031,0.0999985,2.0999985,0,2.9000015-0.0999985c0.0999985,0,0.1999969,0,0.1999969,0
	c0.9000015,0.0999985,0.9000015,0.0999985,1.5999985,0c0.1999969,0,0.4000015-0.0999985,0.8000031-0.0999985v0.0999985
	c0.1999969,0,0.3000031,0,0.5999985,0c0,0.0999985-0.0999985,0.0999985-0.0999985,0.0999985S91.5000153,95.5,91.7000198,95.5
	c0.1999969-0.0999985,0.3000031-0.1999969,0.4000015-0.3000031c0.3000031,0,0.5999985,0,0.9000015,0
	c0.0999985,0.0999985,0.1999969,0.0999985,0.3000031,0.0999985c0.1999969,0,0.4000015-0.0999985,0.5-0.0999985
	c0.5999985,0,1.0999985,0.0999985,1.8000031,0.0999985c-1,0-1.5999985,0.0999985-2.5,0.0999985c0,0.0999985,0,0.0999985,0,0.1999969
	c0.1999969,0,0.3000031,0,0.4000015,0c0.0999985,0.0999985-0.0999985,0.0999985,0.5999985,0.1999969
	c0.0999985-0.0999985,0.4000015-0.1999969,1.0999985-0.1999969c0.0999985,0,0.1999969,0.0999985,0.3000031,0.0999985
	c0.1999969,0,0.5,0,0.8000031,0c-0.1999969,0-0.3000031-0.0999985-0.5-0.0999985c0.3000031,0,0.5-0.0999985,0.8000031-0.0999985
	c-0.4000015,0-0.5999985,0-0.6999969,0c0.0999985-0.0999985,0.0999985-0.0999985,0.1999969-0.1999969
	c0.4000015-0.0999985,0.9000015-0.0999985,1.5999985-0.0999985c0.3000031,0.0999985,0.0999985,0.1999969,0.6999969,0.1999969
	c0.5999985-0.0999985,0.5999985-0.0999985,1.1999969-0.0999985c0.1999969,0,0.4000015,0,0.5,0c0.1999969,0,0.3000031,0,0.5999985,0
	c0.1999969,0.0999985,1.1999969,0.0999985,1.3000031,0.1999969c1,0,1.8000031-0.0999985,2.4000015-0.1999969
	c0.3000031-0.0999985,0.6999969-0.0999985,1.1999969-0.0999985c0.5,0.0999985,1,0.1999969,1.4000015,0.4000015
	c0.3000031,0,0.5,0,0.8000031,0c-0.0999985,0.0999985-0.1999969,0.0999985-0.3000031,0.1999969
	c0.6999969-0.0999985,1.1999969-0.1999969,1.6999969-0.1999969c0-0.0999985-0.0999985-0.1999969-0.0999985-0.3000031
	c0.4000015,0,0.6999969,0.0999985,1,0c0.4000015,0,0.6999969,0,1.0999985,0
	c0.0999985,0.0999985,0.0999985,0.0999985,0.1999969,0.1999969c0.4000015,0,0.6999969,0,1.1999969,0
	c0.0999985-0.0999985,0.1999969-0.1999969,0.0999985-0.3000031c-0.0999985-0.0999985-0.0999985-0.0999985,0.5-0.0999985
	c0.1999969,0.0999985,0.3000031,0.0999985,0.5,0.1999969c-0.0999985,0-0.1999969,0.0999985-0.4000015,0.0999985
	c0.1999969,0,0.4000015,0,0.5999985,0.0999985c0.1999969,0,0.3000031,0.0999985,0.4000015,0.0999985
	c0.4000015,0,0.8000031,0,1.0999985,0c0.1999969-0.0999985-0.5-0.3000031-0.5-0.4000015c0.5999985,0,1,0,1.5,0
	c0.0999985,0,0.1999969,0.0999985,0.3000031,0.0999985c0.1999969,0,0.5,0,0.8000031,0c0.8000031,0,0.8000031,0,1.0999985-0.0999985
	c0.1999969,0,0.4000015,0,0.5999985,0s0.4000015,0,0.5999985,0c0.0999985,0.1999969,0.1999969,0.1999969,0.8000031,0.3000031
	c0.6999969-0.0999985,0.0999985-0.1999969-0.1999969-0.3000031c0.6999969-0.0999985,1.3000031,0,1.8000031,0
	c0.3000031,0,0.8000031,0,1.1999969,0.0999985c0.5999985,0,0.0999985-0.1999969,1.0999985-0.1999969
	c-0.0999985,0-0.1999969,0.0999985-0.1999969,0.0999985c0.3000031,0.0999985,1.3000031,0.0999985,1.6999969,0.1999969
	c0.5999985,0,1.1999969-0.0999985,1.6999969-0.0999985c0.0999985-0.0999985-0.0999985-0.0999985,0.2999954-0.1999969
	c0.1000061,0,0-0.0999985,0-0.0999985c-0.4000015,0.0999985-0.6999969,0.0999985-1,0.1999969c-0.4000015,0-0.9000015,0-1.5,0
	c0.5,0,0.8000031,0,1.0999985,0c-0.0999985,0-0.1999969-0.0999985-0.1999969-0.0999985c1,0,1,0,1.7999954-0.3000031
	c-0.1999969,0-0.5,0-0.8000031-0.0999985c-0.0999985,0.0999985-0.1999969,0.0999985-0.1999969,0.1999969
	c-1,0-0.9000015-0.0999985-1.5-0.1999969c-0.3000031,0-0.5999985,0.0999985-0.9000015,0.0999985s-0.5,0-0.8000031,0l-0.5-0.3000031
	c0.6999969,0,1.5,0,2.3000031-0.0999985c0.0999985,0,0.0999985-0.0999985,0.1999969-0.0999985h2.2999954
	c1.3999939,0,2.6999969-0.1999969,4.1000061-0.4000015c-0.1000061,0-0.1000061,0-0.1999969,0.0999985
	c-0.5,0.0999985-1,0.1999969-1.5,0.3000031c-0.6999969,0.1999969-1.3999939,0.1999969-1.8999939,0.4000015
	c-0.1999969,0.0999985-0.6999969,0.1999969-0.3999939,0.1999969c0.1999969,0,1.1000061,0,1.3999939-0.0999985
	c0.3999939,0,0.8999939-0.0999985,1.3000031-0.0999985c0.3999939-0.0999985,0.8999939-0.0999985,1.3000031-0.1999969
	c0.8000031-0.1999969,1.6999969-0.4000015,2.5-0.5999985c0.5-0.0999985,0.6999969-0.1999969,1.1999969-0.3000031
	c0.6000061-0.1999969,1.3000031-0.5999985,1.8999939-0.9000015c0.6999969-0.5,1.6000061-1,2.1999969-1.3000031
	c0.1999969-0.0999985,0.6999969-0.3000031,0.6000061-0.3000031c0,0.0999985-0.1999969,0.1999969-0.1999969,0.3000031
	l0.3000031-0.0999985c0.1999969-0.1999969,0.6999969-0.5999985,1-1c0,0,0.1000061-0.0999985,0.1999969-0.0999985
	c0,0.0999985-0.1000061,0.1999969-0.1000061,0.3000031c0.3000031-0.3000031,0.6000061-0.5,1-0.9000015
	c-0.1999969,0.1999969-0.3000031,0.1999969-0.3999939,0.3000031c0.1999969-0.3000031,0.3000031-0.5-0.1000061-0.1999969
	c0.3000031-0.3000031,0.6000061-0.5999985,0.8999939-1c-0.1000061,0-0.1000061,0-0.1000061,0
	c-0.1999969,0.1999969-0.3999939,0.4000015-0.6000061,0.5999985c0.8000031-1,0.8999939-1,1.6000061-1.5
	c-0.1999969,0.3000031-0.3999939,0.5-0.6999969,0.8000031c0.3000031-0.1999969,0.5-0.3000031,0.6999969-0.5
	c0.3000031-0.5,0.5-0.8000031,0.8000031-1.3000031c-0.1000061,0.0999985-0.1999969,0.1999969-0.3999939,0.3000031
	c0.1000061-0.1999969,0.5-0.8000031,0.5-1c0,0,0.1000061,0,0.1000061-0.0999985
	c0.1999969-0.4000015,0.3999939-0.8000031,0.6000061-1c0.3000031-0.5,0.5-0.9000015,0.6999969-1.3000031
	s0.3000031-0.5,0.5-0.9000015c-0.3000031,0.4000015-0.1999969,0-0.3000031-0.1999969
	c0.1999969-0.3000031,0.3999939-0.3000031,0.8000031-1c0-0.1999969,0.1000061-0.3000031,0.1000061-0.5
	c-0.1000061,0.3000031-0.3000031,0.5999985-0.5,0.8000031c0-0.1999969,0.1000061-0.3000031,0.1000061-0.4000015
	c0.3999939-0.8000031,0.6000061-1.5999985,0.8000031-1.9000015c0.1000061-0.5,0.1000061-0.9000015,0.1999969-1.3000031
	c0.1000061-0.0999985,0.1000061-0.3000031,0.1999969-0.5c0.1000061-0.1999969,0.1999969-0.4000015,0.1999969-0.5999985
	s0-0.4000015,0-0.5999985s0-0.3000031,0-0.4000015c-0.1000061-0.0999985-0.1000061,0-0.1999969-0.0999985
	c0-0.1999969,0-0.5,0-0.6999969c0.1000061,0.0999985,0.1999969-0.3000031,0.1999969-0.6999969
	c0-0.4000015,0-0.6999969-0.1000061-1.0999985c0-0.0999985,0-0.0999985-0.1000061-0.3000031
	c0,0.1999969-0.1000061,0.5-0.1000061,0.6999969c0-0.4000015,0-0.6999969,0-1
	c-0.1000061-0.3000031-0.1000061-0.5999985-0.1999969-0.9000015c0-0.5,0.1000061-0.6999969,0.1000061-1.4000015
	c-0.1000061-0.6999969-0.1000061-1.5999985-0.1999969-2.4000015c0.1000061,0,0.1000061,0.0999985,0.1999969,0.0999985
	c0,0.3000031,0,0.5999985,0,0.9000015c0.1000061-0.5,0.1999969-0.9000015,0.1999969-1.3000031
	c0-0.3000031,0.1000061-0.5999985,0.1999969-0.9000015c0-0.6999969-0.1000061-1.3000031-0.1000061-1.9000015
	s0-1.2000008,0-1.9000015L148.5,63.1999817v-0.2999992c0,0,0.1000061-0.0999985,0.1000061-0.2000008
	c0-0.4000015,0-0.7999992,0-1.2000008L148.5,61.3999825c0-0.0999985,0-0.2000008,0-0.2999992s0-0.2000008,0-0.2000008
	c0.1000061-0.2000008,0.1000061-0.2000008,0.1000061-0.9000015c0-0.2999992,0-0.7999992-0.1000061-1s0-1-0.1999969-0.9000015
	c0,0.2000008-0.1000061,0.5-0.1000061,0.7000008c-0.1000061-0.5-0.1000061-0.7999992,0-1.2000008
	c0.1000061,0,0.1000061-0.0999985,0.1999969-0.0999985c0,0.2000008,0,0.4000015,0.1000061,0.5
	c0-0.2000008,0.1000061-0.2999992,0.1000061-0.4000015c0,0.2000008,0,0.2999992,0.1000061,0.5c0-0.7000008,0-1.2999992,0-1.7000008
	s0.1000061-0.5999985,0.1000061-1c-0.1000061,0-0.1000061,0-0.1000061,0c0-0.2000008-0.1000061-0.4000015-0.1000061-0.5999985
	c-0.1000061,0.5-0.1999969,1-0.3000031,1.5c0-0.2000008-0.1000061-0.2999992-0.1000061-0.4000015
	c0.1000061-0.2000008,0.1000061-0.5,0.1000061-0.7000008c0-0.2999992,0-0.5999985,0-1
	c0.1000061-0.2999992,0.1000061-0.5999985,0.1999969-0.7999992c0.1000061-0.2999992,0.1000061-0.7000008,0.1000061-1.2000008
	c0-0.2999992,0-0.5,0-0.7999992S148.5,50.9999771,148.5,50.4999771c0.1000061-0.5,0.1000061-0.9000015,0.1999969-1.4000015
	c-0.1000061-0.2999992,0-1-0.1000061-1.2999992c-0.1000061-0.0999985-0.1000061-0.7000008-0.1000061-1.0999985
	c0,0.2999992,0,0.4000015-0.1000061,0.7000008c0-0.5-0.1000061-0.7000008-0.1000061-1.2000008
	C148.5,46.9000015,148.6000061,46.7999992,148.6999969,46.7000008z M83.5999985,2.3
	C83.5999985,2.4000001,83.5999985,2.4000001,83.5999985,2.3L83.5999985,2.3z M84.4000015,2.3C84.5,2.3,84.5,2.3,84.5999985,2.3
	C84.5,2.3,84.4000015,2.3,84.4000015,2.3L84.4000015,2.3z M7.3000002,10C7.2000003,10.3000002,7,10.6000004,6.9000001,10.8000002
	c0-0.1000004-0.0999999-0.1000004-0.0999999-0.1999998C7,10.3999996,7.0999999,10.1999998,7.3000002,10z"/>
<g>
	<g>
		<g>
			<path class="st4" d="M89.8000031,59.0999985c0-0.0999985,0-0.2999992,0-0.4000015c0-0.0999985,0-0.2999992-0.0999985-0.5
				c0-0.0999985,0-0.0999985-0.0999985-0.2000008c-0.3000031-1-1.0999985-1.9000015-2.0999985-2.4000015
				c-1.9000015-0.7999992-4.0999985,0.0999985-4.8000031,2c0,0.0999985-0.0999985,0.0999985-0.0999985,0.2000008
				c-1.5999985-0.7999992-3.5999985-1.2000008-5.9000015-1.2000008c-2.0999985,0-4,0.4000015-5.5,1.0999985c0,0,0,0,0-0.0999985
				c-0.8000031-1.9000015-3-2.7999992-4.9000015-2c-1.0999985,0.5-1.8000031,1.4000015-2.0999985,2.4000015
				c0,0.0999985-0.0999985,0.0999985-0.0999985,0.2000008c0,0.2000008,0,0.2999992-0.0999985,0.4000015
				c0,0.0999985,0,0.2999992,0,0.4000015c0,1.0999985,0.4000015,1.9000015,1,2.4000015
				c0.4000015,0.4000015,1,0.7000008,1.5,0.7999992c-0.5,1.0999985-0.8000031,2.3999977-0.8000031,3.7000008
				c0,6.1999969,5,6.6999969,11.0999985,6.5999985c6.0999985,0,11-1.1999969,11-7
				c0-1.1999969-0.1999969-2.2999992-0.6999969-3.2999992c0.5999985-0.0999985,1.3000031-0.4000015,1.8000031-0.9000015
				C89.5,61,89.8000031,60.2000008,89.8000031,59.0999985z"/>
			<path class="st3" d="M79.8000031,63.2999992c-0.0999985-0.0999985-0.1999969-0.2000008-0.4000015-0.2000008h-5
				c-0.1999969,0-0.3000031,0.0999985-0.4000015,0.2000008c-0.0999985,0.0999985-0.0999985,0.2999992,0,0.4000015L76.5,68
				c0.0999985,0.0999985,0.1999969,0.1999969,0.4000015,0.1999969S77.2000046,68.0999985,77.3000031,68l2.5-4.2999992
				C79.8000031,63.5999985,79.8000031,63.4000015,79.8000031,63.2999992z"/>
		</g>
		<g class="st5">
			<path class="st4" d="M37.006813,24.3461914c0-0.6083984,0.5219727-1.1308594,1.1313477-1.1308594
				c0.6088867,0,1.1313477,0.4931641,1.1313477,1.1308594v18.7392578c0,0.6083984-0.5224609,1.1308594-1.1313477,1.1308594
				c-0.609375,0-1.1313477-0.5224609-1.1313477-1.1308594V24.3461914z M54.091774,24.5209961v18.1289062
				c0,0.7832031-0.2900391,1.421875-1.3920898,1.3925781c-0.8413086-0.0292969-1.4794922-0.1738281-1.9145508-0.8994141
				L40.2846451,24.7817383c-0.2900391-0.4931641,0.1450195-1.1308594,0.7250977-1.1025391
				c0.6088867,0,1.2470703-0.1445312,1.8276367,0.8701172c1.9140625,3.3359375,7.4545898,13.1982422,8.8466797,15.6064453
				c0.0292969,0.0869141,0.1743164,0.0576172,0.1743164-0.0292969c0-2.6396484,0-12.328125,0-15.6054688
				c0-0.6386719,0.4931641-1.1318359,1.1020508-1.1318359C53.5986099,23.3891602,54.091774,23.8823242,54.091774,24.5209961z"/>
			<path class="st4" d="M65.7470474,34.4995117c1.4790039,0,4.0610352,0,4.9311523,0
				c0.1157227,0,0.2319336-0.1162109,0.203125-0.2324219c-0.2324219-2.2919922-1.6245117-3.6259766-3.9453125-3.6259766
				c-3.3935547,0-4.6992188,2.5820312-4.8149414,4.9892578c-0.1450195,3.5966797,1.4794922,6.2949219,4.9892578,6.2949219
				c1.5952148,0,2.9296875-0.7548828,3.480957-2.03125c0.3476562-0.8408203,0.5800781-1.0439453,1.3925781-0.9863281
				c0.5800781,0.0585938,1.0439453,0.7255859,0.8701172,1.3056641c-0.6669922,2.3203125-2.5239258,3.8867188-5.8017578,3.8867188
				c-4.0029297,0.0292969-7.4545898-2.8427734-7.2226562-8.5566406c0.203125-4.3515625,3.1328125-7.1357422,7.1357422-7.0195312
				c4.1191406,0.0283203,6.1201172,2.9296875,6.265625,6.6132812c0.0292969,0.8408203-0.609375,1.5087891-1.4501953,1.5087891
				H65.688942c-0.5800781,0-1.1025391-0.4931641-1.1025391-1.0732422
				C64.6156998,34.9633789,65.1376724,34.4995117,65.7470474,34.4995117z"/>
			<path class="st4" d="M97.8237076,29.7133789l-3.8574219,12.9365234c-0.203125,0.6962891-0.8125,1.1601562-1.5380859,1.1601562
				c-0.7246094,0-1.3916016-0.4345703-1.6816406-1.1025391c-0.7255859-1.6816406-2.0888672-4.7861328-2.6113281-5.9462891
				c-0.0283203-0.0869141-0.1445312-0.0869141-0.1738281,0c-0.5224609,1.1601562-1.8857422,4.2646484-2.6103516,5.9179688
				c-0.2900391,0.6962891-0.9570312,1.1308594-1.7119141,1.1308594c-0.6953125,0-1.3339844-0.4931641-1.5371094-1.1601562
				L78.3598404,29.597168c-0.1738281-0.5517578,0.3193359-1.1601562,0.8994141-1.1601562
				c0.6962891,0,1.21875,0.2607422,1.421875,0.9277344c0.7539062,2.5820312,2.5810547,9.4853516,3.1035156,11.2841797
				c0.0292969,0.0576172,0.1162109,0.0869141,0.1445312,0c0.5800781-1.3349609,2.0019531-4.6416016,2.6982422-6.265625
				c0.2314453-0.5517578,0.7832031-0.9287109,1.3925781-0.9287109c0.6376953,0,1.1884766,0.3769531,1.4208984,0.9287109
				c0.7255859,1.6240234,2.1464844,4.9023438,2.6972656,6.2363281c0.0585938,0.0576172,0.1455078,0.0576172,0.1748047-0.0292969
				c0.5214844-1.7695312,2.4365234-8.4121094,3.1904297-10.9931641c0.2607422-0.8701172,0.7255859-1.0449219,1.4794922-1.0449219
				C97.5629654,28.5522461,97.9975357,29.1616211,97.8237076,29.7133789z"/>
			<path class="st4" d="M114.0912857,38.9946289c0.0869141,3.1914062-2.8134766,4.8154297-5.2509766,4.8740234
				c-2.8134766,0.0869141-5.0175781-1.0449219-5.7431641-3.1328125c-0.2314453-0.6669922,0.2324219-1.3349609,1.015625-1.3632812
				c0.609375-0.0292969,1.0732422,0.2900391,1.3046875,0.8701172c0.3779297,0.9277344,1.3925781,1.5078125,3.3945312,1.4794922
				c2.1464844-0.0585938,3.1611328-1.421875,3.1035156-2.6113281c-0.0576172-1.2177734-0.6669922-1.7978516-2.6972656-2.1464844
				c-4.0908203-0.7246094-5.9755859-1.9433594-6.1210938-4.1767578c-0.203125-3.5390625,2.9882812-4.4091797,5.2216797-4.4091797
				c1.2470703,0,2.7841797,0.3193359,4.0322266,0.9863281c0.6083984,0.3486328,1.0732422,0.8994141,0.9853516,1.5957031
				c-0.0869141,0.5800781-0.8701172,1.0146484-1.3339844,0.6962891c-1.3339844-0.8994141-2.7265625-1.2480469-3.6542969-1.2480469
				c-2.1181641,0-3.0751953,0.6679688-3.0751953,2.03125c0.0869141,1.3046875,1.5957031,1.8847656,4.3505859,2.4072266
				C112.7563248,35.3979492,114.0912857,36.9936523,114.0912857,38.9946289z"/>
		</g>
	</g>
</g>
</svg>
