<?xml version="1.0" encoding="utf-8"?>
<!-- Generator: Adobe Illustrator 26.2.1, SVG Export Plug-In . SVG Version: 6.00 Build 0)  -->
<svg version="1.1" id="レイヤー_1" xmlns="http://www.w3.org/2000/svg" xmlns:xlink="http://www.w3.org/1999/xlink" x="0px"
	 y="0px" viewBox="0 0 22.7999992 22.7999992" style="enable-background:new 0 0 22.7999992 22.7999992;" xml:space="preserve">
<style type="text/css">
	.st0{fill:#2BAB38;}
	.st1{fill:#E50012;}
	.st2{fill:#FFFBDA;}
	.st3{fill:#583C32;}
</style>
<g>
	<g>
		<g>
			<path class="st0" d="M16.4179077,1.6330684c0.2486095-0.4406608,0.3620739-0.520537,0.0536346-0.8294832
				c-0.8410702-0.8466044-1.7003937-0.8707314-1.9933624-0.7517217c-0.1193275,0.0466288-1.0045834,3.1146531-1.1581545,3.7180209
				c-0.1048193,0.565043-0.0467758,0.9555058,0.4608927,1.1747789c0.4336472,0.1876431,0.8210001,0.0006533,1.1010914-0.4864807
				C15.1722097,3.9523106,16.3665371,1.7256652,16.4179077,1.6330684z"/>
		</g>
	</g>
	<path class="st1" d="M8.2208443,20.7285652c0.4744139,0.0644035,1.8118925,1.7100105,3.7977419,2.0235062
		c1.2787981,0.2019958,2.5486231-0.2624798,3.6854191-0.8686085c1.9476957-1.036869,3.7424822-2.5442314,4.8828573-5.3999882
		c0.8456383-2.139101,1.2580986-4.3412848,0.4597416-6.5759001c-0.528368-1.4882975-2.1638756-3.1206951-3.6378117-3.8683424
		c-2.1593113-1.0947318-3.4327192-0.2406321-4.1720552-0.4879351c-0.7386818-0.2558017-1.1904392-1.7794533-3.6775894-2.1785624
		C7.9262676,3.1109231,6.3776574,3.337528,5.0497894,4.1966896C3.0621428,5.484942,1.8858945,7.5588098,1.2590607,9.7693281
		c-0.8352058,2.9612293-0.4636602,5.2129822,0.4461967,7.2193747c0.5345793,1.1770649,1.0829988,2.0005226,2.3994598,2.9408665
		C5.8546553,21.1795044,7.815228,20.5443516,8.2208443,20.7285652z"/>
	<path class="st2" d="M5.3944163,18.7979984c-0.1688962-0.0617981-0.3164415-0.1320648-0.4364157-0.2080231
		c-0.7280769-0.4656105-1.3373308-1.2259789-1.8075068-2.2584457c-0.8914294-1.9677486-1.0027804-3.8608227-0.3620753-6.1306677
		C3.3968332,8.0503597,4.4495158,6.478929,5.9120302,5.5314002C6.8954263,4.8951039,7.8475113,4.6922913,9.242053,4.9312983
		c2.1454554,0.3651848,2.813055,2.0654073,3.3458309,2.2479963c0.551692,0.189929,1.9470501-0.6291356,3.7103624,0.1136365
		c0.1424828,0.0598311,0.286272,0.1129684,0.4167061,0.1760731c1.1654778,0.5655484,2.4630299,1.9242063,2.8330994,2.9710116
		c0.5658588,1.5805588,0.4310436,3.2615376-0.4380722,5.4590015c-1.0662041,2.6666679-2.7788124,3.8508949-4.1524849,4.5815907
		c-0.9910479,0.5293541-1.9348125,0.7603531-2.8078308,0.687645c-0.1967716-0.0151615-0.4127932-0.0603123-0.6447792-0.1525993
		c-1.721262-0.6840515-2.2602262-1.7812405-2.768712-1.9625244C8.2761126,18.8891335,6.8722792,19.3161011,5.3944163,18.7979984z"/>
	<path class="st3" d="M8.8778553,14.2302618c0.3886585,0.1320496,0.9735994,0.0143623,1.4305658-1.5337677
		c0.3795223-1.289217,0.012557-1.5776281-0.3847485-1.6557007c-0.4315405-0.0846195-0.9957676,0.4250164-1.3762779,1.2959108
		C8.3527222,12.7794724,8.3470316,14.0502787,8.8778553,14.2302618z"/>
	<path class="st3" d="M11.3539181,14.9162903c-0.391427-0.1304159-0.7859564-0.5774527-0.2152061-2.0867672
		c0.475564-1.2554789,0.9428015-1.2644444,1.3078156-1.0867538c0.3948479,0.193202,0.5373545,0.940197,0.3133469,1.8630934
		C12.6473799,14.0776787,11.8837624,15.0936613,11.3539181,14.9162903z"/>
	<path class="st0" d="M16.1762962,3.8135824c-0.0907993,0.1281302-0.1116695,0.200511-0.1351585,0.2949195
		c0.0399494,0.0854201,0.0991268,0.1962891,0.21422,0.3027334c0.3059998,0.2838316,1.3122234,0.852654,2.6575317,0.8386269
		c0.8174229-0.0130391,1.3674831-0.186336,1.8229809-0.3823142c0.7005272-0.2989941,1.2295475-0.4527283,1.271286-0.5981507
		c-0.0479279-0.2378564-0.8216534-0.8325853-1.3555794-1.1530938c-0.5824909-0.3482196-1.1866837-0.5221777-1.8793907-0.539952
		C17.4035759,2.5447292,16.505621,3.340786,16.1762962,3.8135824z"/>
</g>
</svg>
