<?xml version="1.0" encoding="utf-8"?>
<!-- Generator: Adobe Illustrator 26.5.0, SVG Export Plug-In . SVG Version: 6.00 Build 0)  -->
<svg version="1.1" id="レイヤー_1" xmlns="http://www.w3.org/2000/svg" xmlns:xlink="http://www.w3.org/1999/xlink" x="0px"
	 y="0px" viewBox="0 0 50.3 33.5" style="enable-background:new 0 0 50.3 33.5;" xml:space="preserve">
<style type="text/css">
	.st0{display:none;fill:#F2A8C8;enable-background:new    ;}
	.st1{font-family:'TsukuARdGothicStd-B-90ms-RKSJ-H';}
	.st2{font-size:10px;}
	.st3{letter-spacing:-2;}
	.st4{display:none;fill:#C3B3D6;enable-background:new    ;}
	.st5{display:none;fill:#93D0C5;enable-background:new    ;}
	.st6{display:none;fill:#FAC959;enable-background:new    ;}
	.st7{enable-background:new    ;}
	.st8{fill:#F2A8C8;}
	.st9{fill:#C3B3D6;}
	.st10{fill:#93D0C5;}
	.st11{fill:#FAC959;}
	.st12{fill:#F5BED6;}
	.st13{display:none;fill:#FFFFFF;}
	.st14{fill:#FFFFFF;}
</style>
<text transform="matrix(1 0 0 1 7.1008 15.8717)" class="st0 st1 st2"> S</text>
<text transform="matrix(1 0 0 1 15.7008 15.8717)" class="st0 st1 st2 st3">​</text>
<text transform="matrix(1 0 0 1 15.7008 15.8717)" class="st4 st1 st2">p</text>
<text transform="matrix(1 0 0 1 21.8008 15.8717)" class="st5 st1 st2">r</text>
<text transform="matrix(1 0 0 1 25.7008 15.8717)" class="st6 st1 st2">i</text>
<text transform="matrix(1 0 0 1 28.5008 15.8717)" class="st0 st1 st2">n</text>
<text transform="matrix(1 0 0 1 34.2008 15.8717)" class="st4 st1 st2">g</text>
<g class="st7">
	<path class="st8" d="M12.7,13.4c-1.6,0-2.5-0.9-2.5-1.4c0-0.3,0.3-0.6,0.6-0.6c0.2,0,0.3,0.1,0.4,0.2c0.3,0.4,0.7,0.7,1.5,0.7
		c1.1,0,1.3-0.7,1.3-1.1c0-0.4-0.2-0.8-0.8-1.1c-0.4-0.2-1-0.5-1.5-0.8c-0.9-0.4-1.3-1.1-1.3-1.8c0-1,0.8-1.9,2.2-1.9
		s2.2,0.7,2.2,1.1c0,0.3-0.2,0.6-0.6,0.6c-0.1,0-0.3-0.1-0.5-0.2c-0.2-0.2-0.5-0.5-1.1-0.5s-1,0.4-1,0.8c0,0.3,0.2,0.6,0.6,0.9
		c0.4,0.2,1.1,0.5,1.6,0.8c1,0.5,1.4,1.3,1.4,2C15.2,12.3,14.3,13.4,12.7,13.4z"/>
	<path class="st9" d="M17.5,8.9L17.5,8.9c0.4-0.3,0.9-0.5,1.4-0.5c1.4,0,2.4,1,2.4,2.5s-1,2.5-2.4,2.5c-0.5,0-1-0.2-1.4-0.5
		c0,0,0,0-0.1,0c0,0,0,0,0,0.1c0,1.1,0,2,0,2.5c0,0.3-0.2,0.5-0.5,0.5s-0.5-0.2-0.5-0.5l0,0c0-0.4,0-1.1,0-2c0-1.5,0-3.4,0-4.3
		c0-0.4,0.3-0.6,0.5-0.6C17.2,8.4,17.4,8.5,17.5,8.9L17.5,8.9z M20.3,10.8c0-1-0.6-1.6-1.4-1.6s-1.4,0.6-1.4,1.6s0.6,1.6,1.4,1.6
		C19.7,12.4,20.3,11.8,20.3,10.8z"/>
	<path class="st10" d="M22.6,12.8L22.6,12.8c0-1,0-1.6,0-2.2c0-0.6,0-1.1,0-1.8l0,0c0-0.3,0.3-0.5,0.5-0.5s0.5,0.2,0.5,0.5v0.1l0,0
		l0,0l0,0c0.4-0.4,0.9-0.6,1.3-0.6c0.3,0,0.5,0.2,0.5,0.5s-0.2,0.5-0.6,0.5c-0.5,0.1-1.2,0.6-1.2,1.3c0,0.2,0,0.4,0,0.7
		c0,0.4,0,0.9,0,1.6c0,0.2-0.1,0.5-0.5,0.5C22.9,13.3,22.6,13.2,22.6,12.8z"/>
	<path class="st11" d="M26.3,6.4c0-0.5,0.4-0.7,0.7-0.7c0.4,0,0.7,0.3,0.7,0.7S27.4,7.1,27,7.1S26.3,6.8,26.3,6.4z M27,13.4
		c-0.3,0-0.5-0.2-0.5-0.5c0-0.8,0-2,0-2.9c0-0.5,0-0.8,0-1.1s0.2-0.5,0.5-0.5s0.5,0.2,0.5,0.5l0,0c0,0.4,0,1.2,0,2
		c0,0.7,0,1.4,0,1.9l0,0C27.6,13.2,27.3,13.4,27,13.4z"/>
	<path class="st8" d="M32.5,12.8c0-0.4,0-1.2,0-1.8c0-0.4,0-0.7,0-0.9c0-0.6-0.4-0.9-0.8-0.9c-0.6,0-1.3,0.5-1.4,1.2
		c0,0.2,0,0.4,0,0.7c0,0.4,0,0.9,0,1.6c0,0.2-0.1,0.5-0.5,0.5c-0.3,0-0.5-0.2-0.5-0.5l0,0c0-1,0-1.6,0-2.2c0-0.6,0-1.1,0-1.8l0,0
		c0-0.3,0.3-0.5,0.5-0.5s0.5,0.2,0.5,0.5v0.1l0,0l0,0l0,0c0.4-0.4,0.9-0.6,1.4-0.6c0.8,0,1.6,0.5,1.7,1.7c0,0.4,0,1.2,0,2
		c0,0.3,0,0.6,0,0.8c0,0.4-0.3,0.5-0.5,0.5S32.5,13.1,32.5,12.8L32.5,12.8z"/>
	<path class="st9" d="M35.8,12.2c0,0.2,0.1,0.2,1.6,0.2s2.2,0.7,2.2,1.5c0,1.3-1.3,1.9-2.6,1.9c-1.8,0-2.4-0.9-2.4-1.6
		c0-0.5,0.4-0.9,0.9-1.1l0,0c0,0,0,0-0.1-0.1c-0.4-0.1-0.5-0.4-0.5-0.7c0-0.4,0.2-0.7,0.6-0.9c0.1,0,0.1-0.1,0.1-0.1s0-0.1-0.1-0.1
		c-0.4-0.3-0.6-0.8-0.6-1.2c0-1.2,1-1.7,2-1.7l0,0c0.4,0,0.8,0.1,1.1,0.2c0.1,0,0.1,0,0.2,0c0.1,0,0.1,0,0.2,0
		c0.3-0.1,0.5-0.2,0.7-0.2c0.3,0,0.7,0,0.7,0.5c0,0.2-0.1,0.5-0.4,0.5h-0.1h-0.1c-0.1,0-0.1,0-0.2,0.1l0,0c0,0,0,0,0,0.1
		c0.1,0.2,0.1,0.3,0.1,0.6c0,1-0.7,1.6-1.9,1.7C36.5,11.7,35.8,11.8,35.8,12.2z M37,13.3c-1.3,0-1.5,0.8-1.5,0.9s0,0.8,1.5,0.8
		c0.3,0,1.6,0,1.6-1C38.6,13.3,37.8,13.3,37,13.3z M36.9,9.2c-0.6,0-1,0.4-1,0.9c0,0.3,0.1,0.9,1,0.9c0.6,0,1.1-0.3,1.1-0.9
		C37.9,9.6,37.6,9.2,36.9,9.2z"/>
</g>
<g>
	<path class="st12" d="M33.3,19.3c0-0.1,0-0.2,0-0.3c0-0.1,0-0.2,0-0.3v-0.1c-0.2-0.7-0.7-1.2-1.3-1.5c-1.2-0.5-2.6,0.1-3.1,1.3v0.1
		c-1-0.5-2.3-0.8-3.8-0.8c-1.4,0-2.5,0.3-3.5,0.7l0,0c-0.5-1.2-1.9-1.8-3.1-1.2c-0.7,0.3-1.2,0.9-1.3,1.5v0.1c0,0.1,0,0.2,0,0.3
		c0,0.1,0,0.2,0,0.3c0,0.7,0.2,1.2,0.6,1.5c0.3,0.3,0.6,0.4,1,0.5c-0.3,0.7-0.5,1.5-0.5,2.3c0,3.9,3.1,4.2,7,4.2s7-0.8,7-4.4
		c0-0.7-0.1-1.4-0.4-2.1c0.4-0.1,0.8-0.3,1.1-0.6C33,20.5,33.3,20,33.3,19.3z"/>
	<path class="st13" d="M22.9,23c0-0.1,0-0.1,0-0.1c0-0.1,0.1-0.2,0.2-0.2h3.2c0.1,0,0.2,0.1,0.2,0.2V23l-1.6,2.8
		c-0.1,0.1-0.1,0.1-0.2,0.1s-0.2,0-0.2-0.1L22.9,23z"/>
</g>
<g>
	<g>
		<path class="st8" d="M6.5,14.4c-0.2,0-0.4-0.1-0.4-0.3c-0.5-1.3-2.5-6.8-2.8-7.5c0-0.1,0-0.1,0-0.2C3.3,6.1,3.6,6,3.8,6
			s0.4,0.1,0.4,0.3c0.2,0.8,2.3,6.3,2.8,7.4c0,0.1,0,0.1,0,0.2C7,14.2,6.7,14.4,6.5,14.4z"/>
	</g>
	<g>
		<path class="st8" d="M43.7,14.4c-0.2,0-0.5-0.2-0.5-0.4c0-0.1,0-0.1,0-0.2c0.5-1.1,2.6-6.6,2.8-7.4c0.1-0.2,0.2-0.3,0.4-0.3
			s0.5,0.2,0.5,0.4c0,0.1,0,0.1,0,0.2c-0.3,0.7-2.3,6.1-2.8,7.5C44.1,14.3,43.9,14.4,43.7,14.4z"/>
	</g>
</g>
<path class="st14" d="M23.1,21.8c0-0.1,0-0.1,0-0.1c0-0.1,0.1-0.3,0.3-0.3h3.7c0.1,0,0.3,0.1,0.3,0.3v0.1l-1.9,3.3
	c-0.1,0.1-0.1,0.1-0.3,0.1s-0.3,0-0.3-0.1L23.1,21.8z"/>
</svg>
