<?xml version="1.0" encoding="utf-8"?>
<!-- Generator: Adobe Illustrator 26.2.1, SVG Export Plug-In . SVG Version: 6.00 Build 0)  -->
<svg version="1.1" id="レイヤー_1" xmlns="http://www.w3.org/2000/svg" xmlns:xlink="http://www.w3.org/1999/xlink" x="0px"
	 y="0px" viewBox="0 0 263.2000122 240.3999939" style="enable-background:new 0 0 263.2000122 240.3999939;" xml:space="preserve">
<style type="text/css">
	.st0{display:none;enable-background:new    ;}
	.st1{display:inline;fill:#231815;}
	.st2{font-family:'DFMaruGothicStd-W9-90ms-RKSJ-H';}
	.st3{font-size:15.3000002px;}
	.st4{fill:#00963B;}
	.st5{fill:#FFFFFF;}
	.st6{fill-rule:evenodd;clip-rule:evenodd;fill:#4C3733;}
	.st7{fill-rule:evenodd;clip-rule:evenodd;fill:#FFFFFF;}
	.st8{fill-rule:evenodd;clip-rule:evenodd;fill:#FFE100;}
	.st9{fill-rule:evenodd;clip-rule:evenodd;fill:#D1A26C;}
	.st10{fill-rule:evenodd;clip-rule:evenodd;fill:#BC7950;}
	.st11{fill-rule:evenodd;clip-rule:evenodd;fill:#F29600;}
	.st12{fill-rule:evenodd;clip-rule:evenodd;fill:#FFF0CA;}
	.st13{fill-rule:evenodd;clip-rule:evenodd;fill:#F09CB4;}
	.st14{fill-rule:evenodd;clip-rule:evenodd;fill:#E50012;}
	.st15{fill:#4C3733;}
	.st16{fill-rule:evenodd;clip-rule:evenodd;fill:#D2D2D3;}
	.st17{enable-background:new    ;}
	.st18{fill:#231815;}
</style>
<text transform="matrix(1 0 0 1 75.7389832 219.1095581)" class="st0"><tspan x="0" y="0" class="st1 st2 st3">体をいたわること</tspan><tspan x="0" y="18.3603516" class="st1 st2 st3">心もいたわること</tspan></text>
<g>
	<path class="st4" d="M259.7999878,47.2999992c-7.3000031-19.5-27.6999969-29.6000004-47.3000031-23.5
		c-12,3.7000008-21,12.1000023-25.3999939,23.3999977c-16.6000061-7.9000015-35.5999908-12-56.5-12
		c-19.6999969,0-38.5,4.0999985-54.6999969,11.9000015c-4.3000031-11.2999992-13.2999992-19.7000008-25.4000015-23.3999996
		c-19.6000004-6.1000004-40,4.1000004-47.2999992,23.4999981C-0.3,57,0.3,68,5.1999998,77.5999985
		C9.8000002,86.6999969,17.7999992,93.6999969,28,97.5c-4,10.0999985-6,20.6999969-6,31.5
		c0.1000004,28.8000031,11.0999985,47.6000061,33.5999985,57.6000061c20.5,9.1000061,48.5999985,9.8000031,75.5999985,9.8000031
		c39.9000092,0,64.0999908-3.6999969,80.6999969-12.3999939c20-10.3999939,29.3000031-28.1000061,29.3000031-55.5999908
		c0-10.6999969-2-21.0999985-5.8000031-31c10.1000061-3.8000031,18-10.6999969,22.7000122-19.8000031
		C262.7999878,68,263.5,57,259.7999878,47.2999992z"/>
	<path class="st5" d="M255.1999969,49C248.8000031,32.0999985,231.3000031,23.2000008,214,28.5
		c-13.6000061,4.2000008-21.3000031,14.4000015-23.8000031,25.7999992C174,45.5,154,40.2000008,130.6999969,40.2000008
		C108.3999939,40.2000008,88.8999939,45.5,73,54.4000015C70.5,43,62.7000008,32.7000008,49.2000008,28.5
		C31.8999996,23.2000008,14.3999996,32.0999985,8,49C1.6,66,10.5,87.5999985,33.2999992,93.9000015
		c0.5,0.0999985,1,0.1999969,1.5,0.3000031C29.7000008,105.0999985,27,116.9000015,27,129
		c0.2000008,58.1000061,46.8000031,62.3999939,104.1999969,62.3999939c69.0999908,0,105-10.5,105-63
		c0-11.9000015-2.6000061-23.5-7.6000061-34.1999969c0.3999939-0.0999985,0.8999939-0.1999969,1.3000031-0.3000031
		C252.6000061,87.5999985,261.6000061,66,255.1999969,49z"/>
	<g>
		<g>
			<path class="st6" d="M151,140.5c-0.5-0.6000061-0.6999969-1.3999939-1-2.1999969
				c-0.6000061-1.6999969-0.6999969-3.5-0.3999939-5.3000031c0.3000031-1.6000061,0.8999939-3.1000061,1.8000031-4.5
				c0.3999939-0.5999985,1-1.0999985,1.5-1.5999985c1-0.9000015,2.1000061-1.5999985,3.3000031-2.0999985
				c1-0.4000015,2-0.6999969,3.1000061-1c1-0.1999969,1.8999939-0.3000031,2.8999939-0.3000031
				c0.1999969-0.4000015,0.5-0.6999969,0.8000031-1c1-0.9000015,2.1000061-0.9000015,3.3000031-0.6999969
				c1.8000031,0.4000015,3.1999969,1.3000031,4.6999969,2.4000015c0.8000031,0.5999985,1.6000061,1.1999969,2.3000031,1.9000015
				c0.8000031,0.8000031,1.5,1.8000031,1.6000061,3c0.1000061,0.8000031-0.1000061,1.5-0.6999969,2.1000061
				c-0.1000061,0.1000061-0.3000031,0.3000031-0.3999939,0.3999939c0.6000061,1.6000061,0.6000061,3.3000031,0.3999939,4.8999939
				c-0.1999969,1.3000031-0.6000061,2.3999939-1.3999939,3.3999939c-0.8999939,1.1999969-2,2.1000061-3.3000031,2.8999939
				c-0.1000061,0.1000061-0.3000031,0.1000061-0.3000031,0.3000031c0.3999939,0.5,0.8000031,1,1.1999969,1.5
				c0.5,0.6000061,0.8000031,1.3999939,1.1999969,2.1000061c0.6000061,1,1,2.1000061,1.3000031,3.1999969
				c0.3999939,1.3999939,0.6000061,2.8000031,0.3999939,4.1999969c-0.3000031,1.3999939-1.1999969,2.3000031-2.6999969,2.3999939
				c-1.5,0.1000061-2.8000031-0.6999969-3.3999939-2.1999969c-0.3999939-0.8999939-0.3000031-1.8999939-0.6000061-3
				c-1.1000061,2.8999939-2.8999939,5.1000061-5.3999939,6.6000061c0,0.5-0.1000061,1-0.1000061,1.3999939
				c-0.1000061,1.3000031-0.3999939,2.5-1.1000061,3.6000061c-0.8000031,1.1999969-1.8999939,1.8000031-3.3000031,1.6999969
				c-1.1999969,0-2.1999969-0.6000061-2.8000031-1.6000061c-0.3999939-0.8000031-0.3999939-1.6000061-0.1000061-2.5
				c0.1999969-0.6000061,0.5-1.1999969,1-1.8000031c-1.8999939-0.5-3.6000061-1.1999969-5.1000061-2.5
				c-0.5,0.6999969-1.1000061,1.1000061-1.6999969,1.5c-2.1999969,1.3000031-5,0-5.1000061-2.5
				c-0.1000061-1.6000061,0.6999969-2.8999939,2.1999969-3.6999969c0.8000031-0.3999939,1.6000061-0.6999969,2.5-0.8999939
				c0.3000031-0.6999969,0.3000031-1.5,0.6999969-2.1999969s0.8000031-1.3000031,1.3000031-1.8999939
				c-0.3000031,0.1000061-0.5,0.1000061-0.8000031,0.1999969c-0.6999969,0.1999969-1.5,0.3999939-2.3000031,0.3999939
				c-1.1999969,0-2.1999969-0.6000061-2.5-1.6000061c-0.5-1.1999969,0.3000031-2.8999939,1.1999969-3.3999939
				c1-0.5,2.1000061-0.8999939,3.1999969-1.1000061c0.8000031-0.1999969,1.6999969-0.3000031,2.6000061-0.5
				C150.8999939,140.6999969,150.8999939,140.6999969,151,140.5z"/>
			<path class="st7" d="M154.1999969,142.8999939c1.5,0.6999969,3,0.8999939,4.5,0.8999939
				c1.6000061,0,3.1999969,0.1000061,4.8000031,0c1.1000061-0.1000061,2.1999969-0.1999969,3.3000031-0.3999939
				c0,0,0.1000061,0,0.1000061,0.1000061c-0.1999969,1.3999939-0.5,2.8000031-0.8999939,4.1000061
				c-0.3999939,1.1999969-0.6999969,2.3000031-1.1000061,3.5c-0.6000061,1.8000031-1.8000031,3.3000031-3.1999969,4.6000061
				c-1.1000061,1-2.5,1.3999939-4,1.5c-1.3000031,0.1000061-2.6000061,0.1000061-3.8000031-0.3000031
				c-0.6999969-0.1999969-1.3999939-0.5-2-0.8999939s-1.1000061-0.8000031-1.6000061-1.3999939
				c-1.3999939-1.6999969-1.6999969-4.3000031,0.1000061-6.3000031c1-1.1000061,1.8000031-2.3000031,2.6999969-3.5
				C153.5,144.3000031,153.6999969,143.6000061,154.1999969,142.8999939z"/>
			<path class="st7" d="M162.1000061,125.3000031c0.3000031,1.3000031,1.3999939,1.9000015,2.3999939,2.5
				c0.3999939,0.3000031,0.8000031,0.5,1.1999969,0.8000031c1.1999969,0.8999939,2.3999939,1.6999969,3.6000061,2.5
				c0.3000031,0.1999969,0.3999939,0.3999939,0.5,0.6999969c0.6000061,1.3999939,0.6999969,2.8999939,0.6999969,4.5
				c0,0.5,0,1.1000061-0.1000061,1.6000061c-0.3000031,1.1999969-1,2.1000061-2,2.8000031
				C167.0999908,141.6000061,165.5,142.0000153,164,142.1000061c-2.1999969,0.1000061-4.5,0.1999969-6.6999969-0.1000061
				c-1.5-0.1999969-2.8999939-0.6999969-4.1000061-1.6999969c-0.8000031-0.6999969-1.1999969-1.6000061-1.5-2.5
				c-0.6000061-1.6999969-0.5-3.3999939-0.1000061-5.1999969c0.5-2.1000061,1.6000061-3.6999969,3.3000031-4.9000015
				c1.5-1,3.1000061-1.6999969,4.8000031-2.0999985C160.3999939,125.4000015,161.1999969,125.3000031,162.1000061,125.3000031z"/>
			<path class="st8" d="M159.3999939,158.8000031c-0.1000061,1.3000031-0.3000031,2.5-1,3.5
				c-0.5,0.6999969-1.5,1-2.3000031,0.6999969c-0.6000061-0.1999969-1-0.8999939-0.6999969-1.6999969
				c0.1000061-0.3999939,0.3000031-0.6999969,0.5-1c0.3000031-0.3999939,0.6000061-0.8999939,0.8999939-1.3999939
				C157.6000061,158.8999939,158.3999939,158.8000031,159.3999939,158.8000031z"/>
			<path class="st8" d="M148.5,155.1000061c-0.3999939,0.6000061-0.8000031,1-1.3000031,1.3999939
				c-0.5,0.3000031-1.1000061,0.3999939-1.6000061,0.3000031c-0.6000061-0.1000061-1.1000061-0.8000031-1-1.3999939
				c0-0.8000031,0.3000031-1.3999939,1-1.8000031c0.6000061-0.3999939,1.3000031-0.6000061,2-0.8999939
				C147.8000031,153.5,148,154.3000031,148.5,155.1000061z"/>
			<path class="st9" d="M169.3999939,129.1999969c0.6000061-0.8000031,1.1999969-1.5,1.6999969-2.3000031
				c0.8999939,0.5999985,1.6000061,1.3999939,1.8000031,2.5c0.1999969,0.6000061-0.3000031,1.1000061-1,1
				c-0.6999969,0-1.3000031-0.3999939-2-0.6999969C169.8000031,129.5,169.6000061,129.3999939,169.3999939,129.1999969z"/>
			<path class="st9" d="M165.1999969,126.3000031c-0.6000061-0.4000015-1.3000031-0.5999985-1.6999969-1.4000015
				c0-0.0999985,0-0.3000031,0-0.4000015c0.1000061-0.1999969,0.3000031-0.3000031,0.3999939-0.5
				c0.3000031-0.4000015,0.6999969-0.5999985,1.1999969-0.5c0.6999969,0.0999985,1.3999939,0.1999969,2.1000061,0.5999985
				C166.3999939,124.8000031,165.8000031,125.5999985,165.1999969,126.3000031z"/>
			<path class="st10" d="M168.1999969,128.3000031c-0.5-0.3000031-0.8999939-0.5-1.3000031-1
				c0.6000061-0.8000031,1.3000031-1.5999985,2-2.3000031c0.5,0.1999969,0.8000031,0.4000015,1.1999969,0.6999969
				C169.6000061,126.6999969,168.8999939,127.4000015,168.1999969,128.3000031z"/>
			<path class="st6" d="M158.1000061,140.8999939c-0.6000061-0.1000061-1.3000031-0.1000061-1.8999939-0.5
				c-1.5-0.8000031-2-1.8999939-1.6000061-3.6000061c0.3999939-1.6000061,1.3999939-2.6000061,3-3.1000061
				c1.1000061-0.3999939,2.1999969-0.5,3.3999939-0.3999939c1.3000031,0.1000061,2.3000031,0.6999969,3.1999969,1.6000061
				c0.8000031,0.8999939,1.1999969,2,1.1999969,3.3000031c-0.1000061,1.1000061-0.8999939,2.1000061-2.1999969,2.3999939
				c-1.1000061,0.3000031-2.3000031,0.3999939-3.3999939,0.3000031
				C159.1999969,140.8999939,158.6999969,140.8999939,158.1000061,140.8999939z"/>
			<path class="st6" d="M165.3999939,130.8000031c1,0.1999969,1.5,0.8000031,1.3999939,1.8000031
				c-0.1000061,0.8000031-0.8999939,1.5-1.6999969,1.3999939c-1-0.1999969-1.6000061-0.8000031-1.5-1.8999939
				C163.6999969,131.3999939,164.6000061,130.6999969,165.3999939,130.8000031z"/>
			<path class="st6" d="M156.3000031,132.5c0,1.1000061-1.1000061,1.6000061-1.8999939,1.5
				c-0.8000031-0.1000061-1.3999939-0.8000031-1.3000031-1.6000061c0.1000061-1,0.8999939-1.6000061,1.8999939-1.5
				C155.8999939,131,156.5,131.6999969,156.3000031,132.5z"/>
			<path class="st11" d="M156.6999969,136.3999939c0.8999939-1.3000031,2.1000061-1.5,3.3999939-1.5
				c1.1999969,0,2.3999939,0.3000031,3.1000061,1.6000061C161,136.6000061,158.8999939,136.6000061,156.6999969,136.3999939z"/>
			<path class="st11" d="M163.6000061,138.1999969C163.4000092,138.8000031,162.9000092,138.8999939,162.5,139
				c-0.6999969,0.1000061-1.3999939,0.3000031-2.1000061,0.1999969c-1.1000061,0-2.1999969,0-3.3000031-0.3999939
				c-0.3999939-0.1000061-0.6000061-0.3000031-0.8000031-0.6999969c1.3000031-0.1999969,2.3999939,0.1999969,3.6000061,0.1000061
				C161.1000061,138.1000061,162.3000031,138.3000031,163.6000061,138.1999969z"/>
		</g>
		<g>
			<g>
				<path class="st6" d="M150.8000031,96.8000031c0-1.1999969-0.1000061-2.5-0.5-3.6999969
					c-0.1000061-0.4000015-0.3999939-0.6999969-0.5-1.1999969c-0.3000031-1-0.8999939-1.9000015-1.6000061-2.6999969
					c-1.6999969-2-4.1000061-2.8000031-6.5-3.1999969c-1.5-0.3000031-3.1999969-0.0999985-4.6999969,0.1999969
					c-1.6000061,0.3000031-3.1000061,1-4.3000031,2.0999985c-0.6999969,0.5999985-1.3999939,1.1999969-1.8999939,2
					c-0.6000061,1-0.8999939,2-1.1999969,3.0999985c-6.5-2.3000031-13-2.5-19.5999985-0.9000015
					c-0.3000031-0.9000015-0.5999985-1.6999969-1.0999985-2.4000015c-0.8000031-1.1999969-1.6999969-2.3000031-3-3
					c-0.4000015-0.1999969-0.8000031-0.4000015-1.1999969-0.5999985c-1-0.5999985-2-0.9000015-3.0999985-1.0999985
					c-2.0999985-0.4000015-4.0999985-0.3000031-6.0999985,0.3000031c-1,0.3000031-1.8000031,0.8000031-2.5999985,1.4000015
					c-1.3000031,0.9000015-2.3000031,2.1999969-3,3.5999985c-0.5,1-0.6999969,2-0.8000031,3.0999985
					c-0.3000031,2.4000015-0.0999985,4.8000031,1.0999985,6.9000015c0.6999969,1.1999969,1.4000015,2.3000031,2.5999985,3.0999985
					c0.4000015,0.3000031,0.9000015,0.5999985,1.3000031,0.9000015c0,0.0999985,0,0.0999985,0,0.1999969
					c-0.0999985,0.0999985-0.0999985,0.3000031-0.1999969,0.4000015c-1,2.1999969-1.6999969,4.4000015-2,6.6999969
					c-0.3000031,2.5-0.5,5-0.4000015,7.5c0,0.5,0,1,0.1999969,1.5c0.0999985,0.5999985,0.1999969,1.0999985,0.3000031,1.6999969
					c0.0999985,0.4000015,0.3000031,0.8000031,0.4000015,1.0999985c0.4000015,1.4000015,1,2.6999969,1.8000031,3.9000015
					c1.5999985,2.2999954,3.6999969,4.0000076,6.3000031,5.0999985c0.6999969,0.3000031,1.5,0.6000061,2.3000031,0.8000031
					c-0.5,1.8000031-1,3.6000061-1.4000015,5.3999939c-0.1999969,0-0.3000031,0-0.3000031,0
					c-1.6999969-0.1000061-3.0999985,0.5-4.3000031,1.6000061c-0.4000015,0.3000031-0.5999985,0.6999969-0.8000031,1.1999969
					c-0.5,1-0.5,2.1000061-0.5,3.1000061c0,2.1999969,1.4000015,3.8999939,3.1999969,4.8000031
					c0.5,0.3000031,1.0999985,0.3000031,1.6999969,0.6000061c0,0.5-0.0999985,1.3999939,0.5,1.6999969
					c0.1999969,0.1000061,0.5,0.1000061,0.6999969,0.3000031s0.3000031,0.6000061,0.4000015,0.8999939
					c0.1999969,0.3999939,0.4000015,0.8999939,0.5,1.3999939c0.0999985,0.1999969,0.0999985,0.3999939,0.1999969,0.6000061
					c0,0.1000061,0.0999985,0.1999969,0.0999985,0.3000031s0.1999969,0.3999939,0,0.1000061
					c0.0999985,0.3000031,0.1999969,0.5,0.0999985,0.8000031c0,0.1000061-0.0999985,0.3000031-0.1999969,0.3999939
					c0.0999985,0.3000031,0.0999985,0.5,0.1999969,0.8000031c0.4000015,1.1000061,0.9000015,2.1999969,2,2.8000031
					c2,1.1000061,4,1.3999939,6.0999985,0.3000031c0.8000031-0.3999939,1.3000031-1.1000061,1.5999985-1.8999939
					c0.3000031-0.6999969,0.1999969-1.3000031,0.3000031-2.1000061c2.9000015,0.3000031,5.8000031,0.1999969,8.5999985,0.3000031
					c0.1999969,0.1999969,0.0999985,0.3999939,0.0999985,0.6000061c0.1999969,1.3999939,0.6999969,2.5,2.1999969,3
					c2.0999985,0.8000031,4.0999985,0.6000061,6.0999985-0.1999969c0.3000031-0.1000061,0.6000061-0.3999939,0.8999939-0.6000061
					c0.6999969-0.6999969,1.1000061-1.6000061,1.1999969-2.6000061c0-0.5,0.1000061-0.8000031,0.3000031-1.1000061
					s0.3999939-0.6000061,0.6000061-0.8999939c0.3000031-0.6999969,0.3999939-1.3999939,0.5-2.1000061
					c0.1000061-1.1999969,0-2.3999939-0.1000061-3.6000061c0-1.3000031-0.1000061-2.6000061-0.3000031-3.8999939
					c0-0.1999969-0.1999969-0.3999939,0.1000061-0.6000061c0.3999939,0.1000061,0.8999939,0.1999969,1.3000031,0.3000031
					c0.8999939,0.3000031,1.8000031,0.1000061,2.6999969-0.1999969c2-0.8999939,3.3000031-4,2-6.3000031
					c-0.5-0.8999939-1.1999969-1.5-1.8999939-2.1999969c0.1999969-0.5-0.1000061-0.8000031-0.3999939-1.1999969
					c-0.3999939-0.5-1-0.8000031-1.3999939-1.5c0.6999969-0.1000061,1.3000031-0.5,1.8000031-0.6999969
					c2-0.8000031,3.6000061-2,5-3.5c1.1999969-1.3000031,2.1000061-2.9000015,2.8000031-4.5999985
					c0.1999969-0.4000015,0.3999939-0.9000015,0.6000061-1.4000015c0.6000061-2.0999985,0.8000031-4.3000031,0.8000031-6.5
					c0-1.9000015-0.3000031-3.9000015-0.8999939-5.6999969c-0.3999939-1.5-0.6999969-3.0999985-1.5-4.5
					c0.1000061-0.0999985,0.1999969-0.0999985,0.3000031-0.1999969c1.8000031-0.5999985,3.3000031-1.5,4.5-2.9000015
					c0.8999939-1.0999985,1.5-2.3000031,1.8999939-3.5999985C150.8999939,98.6999969,150.8000031,97.6999969,150.8000031,96.8000031
					z"/>
				<path class="st12" d="M117.4000015,133.3000031c-2.8000031,0.1000061-5.5999985-0.1999969-8.4000015-0.3999939
					c-2.3000031-0.1999969-4.5999985-0.6000061-6.8000031-1.3999939c-2.3000031-0.8000031-4.3000031-2.1000061-5.9000015-4
					c-0.8000031-0.9000015-1.4000015-2-1.8000031-3.0999985c-0.1999969-0.5999985-0.4000015-1.1999969-0.5999985-1.6999969
					s-0.3000031-0.9000015-0.5-1.4000015c-0.0999985-0.4000015-0.0999985-0.9000015-0.0999985-1.3000031
					c-0.1999969-1.1999969-0.0999985-2.4000015,0-3.6999969c0-1.8000031,0.1999969-3.5999985,0.5-5.3000031
					c0.3000031-1.9000015,1-3.6999969,1.9000015-5.4000015c1.0999985-2.0999985,2.5999985-3.8000031,4.1999969-5.5
					c1-1,2.3000031-1.8000031,3.5-2.5999985c2-1.3000031,4.1999969-2.3000031,6.5-3.0999985
					c0.8000031-0.3000031,1.6999969-0.4000015,2.5999985-0.5c1.0999985-0.0999985,2.1999969-0.5,3.3000031-0.5
					c2.5-0.0999985,5-0.0999985,7.4000015,0.3000031c2,0.4000015,3.9000015,0.8000031,5.8000031,1.5
					c1.6999969,0.6999969,3.3999939,1.5,4.8999939,2.5c1.3000031,0.8000031,2.6000061,1.6999969,3.6999969,2.8000031
					c1.8000031,1.9000015,3.3999939,3.8000031,4.3999939,6.3000031c0.6999969,1.5999985,1.1999969,3.1999969,1.6999969,4.9000015
					c0.3999939,1.3000031,0.5,2.5999985,0.6999969,3.9000015c0.1999969,1.9000015,0,3.9000015-0.3000031,5.8000031
					c-0.1000061,0.8000031-0.3999939,1.5-0.6999969,2.1999969c-0.6000061,1.4000015-1.1999969,2.8000031-2.1999969,3.9000015
					c-1.3000031,1.5-2.8000031,2.6000061-4.6000061,3.5c-1.1000061,0.5-2.1000061,0.8999939-3.3000031,1.1999969
					c-1.6000061,0.3999939-3.1999969,0.5-4.8999939,0.8000031c-1.3000031,0.3000031-2.6999969,0.1999969-4.0999985,0.3000031
					s-2.9000015,0.1999969-4.3000031,0.3000031C119.1999969,133.3999939,118.3000031,133.1999969,117.4000015,133.3000031z"/>
				<path class="st7" d="M102.0999985,153.1000061c-0.0999985-6.3999939,0.3000031-12.8000031,2.5-18.8999939
					c9.5,1.5,19,1.3000031,28.7000046-0.1999969c0.6000061,0.5,1.1999969,1.1000061,1.8000031,1.6999969c-0.5,0.6000061-1,1-1.5,1.5
					c-0.3000031-0.1000061-0.6000061-0.1999969-0.8999939-0.3999939c-0.8999939-0.3999939-1.8999939-0.3999939-2.8999939-0.3000031
					c-1.5,0.1000061-2.9000015,0.3999939-4.1999969,0.8000031c-1.5,0.5-3,1-4.4000015,1.8999939
					c-0.5-0.3000031-0.6999969-0.6999969-1.1999969-1c-0.8000031-0.5-1.5999985-0.8000031-2.5-1
					c-0.4000015-0.1000061-0.8000031-0.3000031-1.0999985-0.5c-0.4000015-0.3000031-0.8000031-0.3999939-1.1999969-0.5
					c-0.5-0.1000061-0.9000015,0.1999969-1,0.6999969s0.0999985,0.8999939,0.5999985,1.1000061
					c0.1999969,0.1000061,0.5,0,0.5999985,0.1999969c0.0999985,0.6000061-1.3000031,5.6999969-1.5999985,6.1999969
					c-0.4000015-0.1000061-0.6999969-0.1000061-1.0999985-0.1999969c-0.5999985-0.1000061-1,0.1999969-1.0999985,0.6999969
					s0.1999969,1,0.8000031,1.1000061c0.5,0.1000061,0.9000015,0.1999969,1.4000015,0.1999969
					c0.4000015,0,0.9000015,0.1000061,1.3000031,0.1999969c1.6999969,0.3999939,3.3000031,0.3000031,4.8000031-0.5
					c1,0.3999939,2.1999969,0.3999939,3.3000031,0.3000031c2.5-0.3000031,4.8000031-1.1000061,7.1999969-2
					c0.1999969-0.1000061,0.3999939-0.1999969,0.8000031-0.1999969c0.6000061,3.1000061,0.3999939,6.3999939,0.6999969,9.5
					c-0.5,0.5-1.1999969,0.3999939-1.6999969,0.5c-1.8999939,0.1999969-3.8000031,0.3000031-5.6999969,0.3999939
					c-1.0999985,0.1000061-2.3000031,0.3000031-3.4000015,0.1999969c-2-0.1000061-4.0999985,0-6.0999985-0.1000061
					c-1.6999969-0.1000061-3.5-0.1999969-5.1999969-0.5c-1-0.1999969-2.0999985-0.1000061-3.1999969-0.1999969
					C104.9000015,153.8000031,103.5,153.6000061,102.0999985,153.1000061z"/>
				<path class="st12" d="M148.6999969,94.4000015C147.5,93.9000015,146.3999939,94,145.3000031,94
					C143.5,94,142,94.6999969,140.6000061,95.6999969c-0.8999939,0.6999969-1.5,1.5999985-2.1000061,2.5999985
					c-0.1000061,0.0999985-0.1000061,0.1999969-0.1999969,0.3000031c-2.1999969-1.6999969-4.5-3.1999969-7-4.4000015
					c-0.1000061-0.6999969,0.1999969-1.4000015,0.5-2c0.6999969-1.5,1.8000031-2.5,3.3000031-3.3000031
					c2.6999969-1.4000015,5.5-1.4000015,8.3000031-0.4000015c1.1999969,0.4000015,2.3000031,1,3.1999969,1.9000015
					c0.6000061,0.5999985,1.1999969,1.3000031,1.3999939,2.1999969
					C148.1999969,93.0999985,148.6000061,93.5999985,148.6999969,94.4000015z"/>
				<path class="st12" d="M101.6999969,96.3000031c-0.1999969-0.3000031-0.3000031-0.5-0.5-0.6999969
					c-0.9000015-1.4000015-2.0999985-2.4000015-3.5999985-3.0999985c-0.9000015-0.4000015-1.8000031-0.8000031-2.8000031-0.9000015
					c-1.0999985-0.1999969-2.0999985,0.0999985-3.0999985,0.4000015c-0.1999969,0.0999985-0.3000031,0.1999969-0.5,0.0999985
					c0.5999985-1.4000015,1.5-2.5999985,2.6999969-3.5c1.4000015-1.0999985,3-1.4000015,4.6999969-1.5999985
					c1.1999969-0.0999985,2.4000015,0.0999985,3.5999985,0.4000015c0.4000015,0.0999985,0.8000031,0.3000031,1.1999969,0.5
					c1,0.5999985,2,0.9000015,2.8000031,1.8000031c0.9000015,1,1.5999985,2.0999985,2,3.4000015
					C105.9000015,93.9000015,103.6999969,94.9000015,101.6999969,96.3000031z"/>
				<path class="st13" d="M100.0999985,97.5C98.0999985,99,96.5,100.9000015,95,103.0999985
					c-1.0999985-0.5999985-2.0999985-1.3000031-2.8000031-2.3000031c-1-1.5999985-1.5999985-3.1999969-1.5-5.0999985
					c0-0.8000031,0.4000015-1.3000031,1.0999985-1.5999985c1.6999969-0.8000031,3.3000031-0.8000031,5,0.0999985
					c1.3000031,0.6999969,2.4000015,1.5,3.0999985,2.8000031C100,97,100.1999969,97.1999969,100.0999985,97.5z"/>
				<path class="st13" d="M148.8999939,96.4000015c0.6000061,4.3000031-2.1999969,7.4000015-5.8000031,8.1999969
					C142.1999969,103,141.1999969,101.5,139.9999847,100.1999969c-0.1000061-1.1999969,0.5-2,1.1000061-2.5999985
					c0.8999939-0.9000015,2-1.5999985,3.3000031-1.8000031c1.1000061-0.0999985,2.3000031-0.3000031,3.3999939,0.0999985
					C148.1999969,96.1999969,148.6000061,96.0999985,148.8999939,96.4000015z"/>
				<path class="st12" d="M100.3000031,148.1999969c-1.9000015-0.3000031-3.0999985-1.6999969-3.1999969-3.3999939
					c0-0.6000061,0-1.1999969,0.0999985-1.6999969c0.3000031-1.1000061,1.0999985-1.6999969,2-2
					c0.5-0.1999969,1-0.3999939,1.5999985-0.1999969C100.5,143.3000031,100.3000031,145.6999969,100.3000031,148.1999969z"/>
				<path class="st12" d="M104.1999969,155.5c2.3000031,0.3999939,4.5,0.1999969,6.5999985,0.6000061
					c0.4000015,1.1000061-0.0999985,2.5-1.5,2.8000031c-1.1999969,0.3000031-2.4000015,0.1999969-3.5-0.3999939
					c-0.5999985-0.3999939-1-1-1.3000031-1.6999969C104.4000015,156.5,104.3000031,156.1000061,104.1999969,155.5z"/>
				<path class="st12" d="M115.5,144.6999969c0.5-1.8999939,0.9000015-3.8000031,1.5-5.6000061
					c1.5999985,0.3000031,2.5999985,1.1000061,2.6999969,1.8999939c0.1999969,1.1999969,0.0999985,2.1999969-0.8000031,3.1000061
					c-0.1999969,0.1999969-0.3000031,0.3000031-0.5,0.3999939C117.5999985,144.8000031,116.5999985,144.8999939,115.5,144.6999969z"
					/>
				<path class="st12" d="M123.3000031,156.3999939C125.5,156.1999969,127.7000046,156,130,155.8999939
					c0.1000061,0.8000031-0.1000061,1.5-0.5,2.1000061c-0.1999969,0.1999969-0.3999939,0.3999939-0.6000061,0.5
					c-1.3000031,0.3999939-2.5,0.5-3.8000031,0.1999969C123.6999969,158.5,123.4000015,158,123.3000031,156.3999939z"/>
				<path class="st12" d="M133.3999939,142.6000061c1.6000061-1.6000061,1.8999939-2.1999969,1.3999939-4
					c0.3000031-0.3999939,0.6000061-0.8000031,1.1000061-1.1000061c1.6999969,1,2.3000031,2.8999939,1.3000031,4.3999939
					c-0.5,0.8000031-1.1999969,1.1999969-2.1000061,1.1000061C134.5,142.8999939,133.8999939,142.8000031,133.3999939,142.6000061z"
					/>
				<path class="st10" d="M126.6999969,143.6000061C126.0999985,143,125.5999985,141.6000061,125,139.5
					c0.8000031-0.3000031,1.5999985-0.6000061,2.4000015-0.6999969C128,140.1000061,128.3999939,141.5,129,142.6999969
					C128.3000031,143.1000061,127.5,143.1999969,126.6999969,143.6000061z"/>
				<path class="st9" d="M124.8000031,144.1000061C123.5,144.6000061,122.4000015,144.5,121.1000061,144.5
					c0.5999985-1.1000061,0.6999969-2.1999969,0.5999985-3.3999939c0.5-0.3999939,1-0.6999969,1.5999985-0.8999939
					C123.9000015,141.3999939,124.0999985,142.8000031,124.8000031,144.1000061z"/>
				<path class="st9" d="M130.8000031,141.8000031c-0.6000061-1.1000061-0.8999939-2.1999969-1.3999939-3.3999939
					c1.1999969-0.1999969,2.3000031-0.1999969,3.1999969,0.5c0.6000061,0.3999939,0.6999969,0.8999939,0.3000031,1.5
					C132.5,141,131.6999969,141.5,130.8000031,141.8000031z"/>
				<path class="st5" d="M122.3000031,130.3000031c0.1999969,0,0.4000015,0,0.5999985,0
					c0.6999969,0,1.3000031-0.1000061,2-0.3000031c1.9000015-0.5,3.7999954-2,3.7999954-4.0999985
					c0.1000061-3.4000015-2-5.5-5.0999985-6.5c-2.3000031-0.6999969-4.8000031-0.5999985-6.9000015,0.5999985
					c-0.0999985,0-0.1999969,0.0999985-0.3000031,0.1999969c-1.5,0.9000015-2.5999985,2.3000031-3.0999985,4
					c-0.3000031,1-0.3000031,1.9000015,0.0999985,2.9000015c0.1999969,0.5999985,0.4000015,1.0999985,0.8000031,1.5000076
					c0.5,0.3999939,0.9000015,0.8000031,1.5,1.1000061c0.9000015,0.3999939,1.8000031,0.5,2.6999969,0.6999969
					c1,0.1000061,1.9000015,0.1999969,2.9000015,0.1999969
					C121.5999985,130.3000031,121.9000015,130.3000031,122.3000031,130.3000031z"/>
				<path class="st6" d="M134.8000031,119.1999969c0.1999969,1.6999969-1.3000031,3.0999985-3.1000061,3
					c-1.6000061-0.0999985-3.3000031-1-3.1999969-2.9000015c0.1000061-2.1999969,1.3000031-3.1999969,3.3999939-3.1999969
					C133.5,116.0999985,134.8999939,117.3000031,134.8000031,119.1999969z"/>
				<path class="st6" d="M109.5,122.1999969c-2.1999969,0.0999985-3.5-1.4000015-3.4000015-3
					c0.0999985-1.8000031,1.3000031-3.0999985,3.1999969-3.1999969c1.6999969,0,3,1.0999985,3.0999985,3.1999969
					C112.5,120.8000031,111,122.4000015,109.5,122.1999969z"/>
			</g>
			<g>
				<path class="st6" d="M125.1999969,127.0999985c-2.8000031,1.7000046-5.5,1.9000015-8.3000031-0.0999985
					c-0.3000031,0.0999985-0.4000015,0.0999985-0.6999969,0.0999985c-0.5,0-0.8000031-0.1999969-1-0.5999985
					c-0.3000031-0.4000015,0-1,0.4000015-1.1999969c0.3000031-0.1999969,0.5-0.1999969,0.8000031-0.3000031
					c1.6999969-0.5,2.1999969-1.0999985,3.1999969-2.1999969c-0.5999985-1-0.3000031-2,0.4000015-2.5
					C120.6999969,119.9000015,121.5999985,120,122.1999969,120.5c0.5,0.5,0.6999969,1.5,0,2.1999969
					c0.1999969,0.4000015,0.5999985,0.9000015,1,1.1999969c0.9000015,0.6999969,1.4000015,0.9000015,2.5999985,1.1999969
					c0.6999969,0.0999985,1,0.4000015,1,1s-0.5,1-1.1999969,0.9000015
					C125.5,127.1999969,125.4000015,127.0999985,125.1999969,127.0999985z"/>
				<path class="st14" d="M123.5,126.4000015c-1.5999985,0.5-3.4000015,0.6999969-4.9000015-0.0999985
					c0.8000031-0.5999985,1.5-1.1999969,2.3000031-1.8000031C121.5999985,125.1999969,122.5,125.9000015,123.5,126.4000015z"/>
			</g>
		</g>
		<g>
			<path class="st5" d="M132.1999969,151.3000031C132.3999939,155.1999969,131.8999939,157,131.8999939,157l-10.3000031,0.3999939
				c-1.5999985-1.3999939-4.1999969-1.3000031-4.1999969-1.3000031c-1.6999969,0-3.5999985,1.5-3.5999985,1.5l-11-0.3999939
				c-1.0999985-3.8999939-0.5999985-5.8999939-0.5999985-5.8999939s15.1999969,2.8000031,28,0.6000061L132.1999969,151.3000031z"/>
			<path class="st15" d="M113.8000031,158.5L113.8000031,158.5l-11.0999985-0.3999939
				c-0.4000015,0-0.6999969-0.3000031-0.8000031-0.6999969c-1.0999985-4.1000061-0.5999985-6.3000031-0.5999985-6.3999939
				c0.0999985-0.5,0.5999985-0.8000031,1-0.6999969C102.5,150.3000183,117.5,153.0000153,130,150.9000244l2-0.5
				c0.3000031-0.1000061,0.5,0,0.8000031,0.1000061c0.1999969,0.1999969,0.3999939,0.3999939,0.3999939,0.6999969
				c0.1999969,4-0.3000031,5.8999939-0.3000031,6c-0.1000061,0.3999939-0.3999939,0.6000061-0.8000031,0.6999969
				l-10.3000031,0.3999939c-0.1999969,0-0.5-0.1000061-0.5999985-0.1999969c-1.3000031-1.1000061-3.5-1.1000061-3.5-1.1000061
				c-1.1999969,0-2.6999969,1-3.0999985,1.3000031C114.1999969,158.5,114,158.5,113.8000031,158.5z M103.5,156.3999939
				l10.0999985,0.3000031c0.6999969-0.5,2.3000031-1.5,3.9000015-1.5c0.0999985,0,2.6999969-0.1000061,4.5,1.3000031
				l9.3000031-0.3999939C131.4000092,155.4000092,131.5,154.2000122,131.5,152.5l-1,0.3000031
				c-11.1999969,2-23.9000015,0.1999969-27.5-0.3999939C102.9000015,153.1999969,103,154.5,103.5,156.3999939z"/>
		</g>
		<g>
			<path class="st16" d="M101.3000031,97.3000031c3-0.3000031,6-0.5,8.9000015-0.6999969c6-0.3000031,11.9000015-0.5,17.9000015,0
				c1.3999939,0.0999985,2.8000031,0.1999969,4.1000061,0.4000015c0.8999939,0.0999985,1.8999939,0.0999985,2.8000031,0.4000015
				c0.8000031,0.1999969,1.3000031,0.6999969,1.8999939,1.3000031c0.6999969,0.5999985,1.3000031,1.3000031,2,2
				c0.3000031,0.3000031,0.6000061,0.6999969,0.8999939,1.0999985c0.1000061,0.0999985,0.5,1,0.6000061,1
				c0,0-27.1999969-3.8000031-44.3000031,0.0999985C96.3000031,102.9000015,97.4000015,99.9000015,101.3000031,97.3000031z"/>
			<path class="st15" d="M96.3000031,103.8000031c-0.3000031,0-0.5-0.0999985-0.6999969-0.3000031
				c-0.1999969-0.1999969-0.3000031-0.5999985-0.1999969-0.9000015c0-0.0999985,1.1999969-3.3000031,5.4000015-6
				C100.9000092,96.5,101.1000137,96.5,101.2000122,96.5c2.5999985-0.3000031,5.4000015-0.5,9-0.6999969
				c7.3000031-0.4000015,12.8000031-0.4000015,18,0c1.5,0.0999985,2.8999939,0.3000031,4.1999969,0.4000015
				c0.3000031,0,0.6000061,0.0999985,0.8999939,0.0999985c0.6999969,0.0999985,1.3999939,0.0999985,2.1000061,0.3000031
				c1,0.3000031,1.6000061,0.9000015,2.1999969,1.4000015c0.8999939,0.8000031,1.5,1.4000015,2.1000061,2.0999985
				c0.3999939,0.4000015,0.6999969,0.8000031,1,1.0999985c0,0.0999985,0.1000061,0.1999969,0.1999969,0.4000015
				c0.1000061,0.1999969,0.1999969,0.4000015,0.3000031,0.5c0.1999969,0.1999969,0.3000031,0.5,0.3000031,0.8000031
				c-0.1000061,0.5-0.5,0.8000031-1,0.6999969l0,0c-0.3999939,0-27.1999969-3.8000031-43.9000015,0.0999985
				C96.4000015,103.8000031,96.4000015,103.8000031,96.3000031,103.8000031z M140.6999969,101.8000031L140.6999969,101.8000031
				L140.6999969,101.8000031z M140.6999969,101.8000031L140.6999969,101.8000031L140.6999969,101.8000031z M140.6999969,101.8000031
				L140.6999969,101.8000031L140.6999969,101.8000031z M140.6999969,101.8000031L140.6999969,101.8000031L140.6999969,101.8000031z
				 M140.6999969,101.8000031L140.6999969,101.8000031L140.6999969,101.8000031z M140.6999969,101.8000031L140.6999969,101.8000031
				L140.6999969,101.8000031z M115.9000015,100.1999969c9.6999969,0,18.7000046,0.9000015,22.7000046,1.4000015
				C138.5,101.5,138.4000092,101.4000015,138.3000031,101.2999954c-0.5-0.5999985-1.1000061-1.1999969-1.8999939-1.9000015
				c-0.6000061-0.5-1-0.9000015-1.5-1.0999985s-1.1000061-0.1999969-1.8000031-0.3000031
				c-0.3000031,0-0.6000061-0.0999985-1-0.0999985C130.8000031,97.6999969,129.5,97.5999908,128,97.4999924
				c-5.0999985-0.4000015-10.5999985-0.4000015-17.8000031,0c-3.5,0.1999969-6.1999969,0.4000015-8.6999969,0.6999969
				c-1.8000031,1.1999969-2.9000015,2.5-3.5999985,3.4000015C103.5999985,100.5,109.9000015,100.1999969,115.9000015,100.1999969z"
				/>
		</g>
		<g>
			<ellipse class="st16" cx="120.2879105" cy="95.4760818" rx="8.099618" ry="8.0996246"/>
			<path class="st15" d="M120.3000031,104.4000015c-5,0-9-4-9-9s4-9,9-9s9,4,9,9
				C129.3999939,100.4000015,125.3000031,104.4000015,120.3000031,104.4000015z M120.3000031,88.1999969
				c-4,0-7.1999969,3.1999969-7.1999969,7.1999969s3.1999969,7.1999969,7.1999969,7.1999969S127.5,99.3999939,127.5,95.3999939
				C127.5999985,91.5,124.3000031,88.1999969,120.3000031,88.1999969z"/>
		</g>
		<g>
			<circle class="st16" cx="120.3000031" cy="95.4000015" r="2.9000015"/>
			<path class="st15" d="M120.3000031,99.3000031C118.2000046,99.3000031,116.5,97.6000061,116.5,95.5
				s1.6999969-3.8000031,3.8000031-3.8000031s3.8000031,1.6999969,3.8000031,3.8000031S122.5,99.3000031,120.3000031,99.3000031z
				 M120.3000031,93.4000015c-1.0999985,0-2,0.9000015-2,2s0.9000015,2,2,2s2-0.9000015,2-2
				S121.5,93.4000015,120.3000031,93.4000015z"/>
		</g>
		
			<rect x="124.7002029" y="134.6934204" transform="matrix(0.99299 -0.1181988 0.1181988 0.99299 -15.2355175 15.7956591)" class="st15" width="1.7000141" height="3.3000364"/>
		
			<rect x="125.6952896" y="144.994812" transform="matrix(0.9996349 -0.02702 0.02702 0.9996349 -3.9620774 3.4734201)" class="st15" width="1.6999376" height="6.6997628"/>
	</g>
</g>
<g class="st17">
	<path class="st18" d="M84.2843323,209.2226562v-1.484375c0-0.3212891,0.0917969-0.5664062,0.2910156-0.75
		c0.152832-0.1835938,0.3979492-0.2753906,0.734375-0.2753906c0.3061523,0,0.5664062,0.0917969,0.765625,0.2753906
		c0.1987305,0.1835938,0.3061523,0.4287109,0.3061523,0.75v1.484375h2.984375c0.3671875,0,0.6274414,0.0761719,0.7954102,0.2294922
		c0.1533203,0.1376953,0.2299805,0.3984375,0.2299805,0.7958984c0,0.3056641-0.0766602,0.5351562-0.1992188,0.6884766
		c-0.1835938,0.2148438-0.4589844,0.3212891-0.8261719,0.3212891h-1.3774414
		c0.581543,1.8671875,1.3925781,3.5048828,2.4638672,4.8974609c0.152832,0.2607422,0.2294922,0.5048828,0.2294922,0.7197266
		c0,0.2753906-0.1069336,0.5048828-0.3061523,0.6884766c-0.1835938,0.2294922-0.4589844,0.3369141-0.8261719,0.3369141
		c-0.3676758,0-0.6733398-0.1376953-0.9033203-0.4287109c-0.0302734-0.0302734-0.0610352-0.0761719-0.0761719-0.1220703
		c-0.0307617,0.1835938-0.0615234,0.3056641-0.1225586,0.3671875c-0.1533203,0.2138672-0.4130859,0.3056641-0.75,0.3056641
		h-1.315918v1.484375c0,0.2607422-0.0766602,0.4746094-0.2143555,0.6582031
		c-0.1835938,0.2451172-0.4594727,0.3671875-0.8574219,0.3671875c-0.3671875,0-0.6274414-0.1220703-0.7954102-0.3515625
		c-0.1533203-0.1835938-0.2299805-0.3974609-0.2299805-0.6738281v-1.484375h-1.1933594
		c-0.2758789,0-0.4897461-0.0761719-0.6430664-0.2294922c-0.1835938-0.1220703-0.2602539-0.3671875-0.2602539-0.734375
		c-0.1376953,0.2294922-0.2753906,0.4287109-0.4130859,0.5966797c-0.1835938,0.2753906-0.4589844,0.4130859-0.8417969,0.4130859
		c-0.3520508,0-0.6123047-0.0917969-0.7651367-0.2753906v1.7138672c0,0.3681641-0.1069336,0.6279297-0.2910156,0.78125
		c-0.1679688,0.1523438-0.4282227,0.2441406-0.7954102,0.2441406c-0.3369141,0-0.5820312-0.0917969-0.7348633-0.2441406
		c-0.1835938-0.1533203-0.2753906-0.4130859-0.2753906-0.78125v-5.2792969
		c-0.1533203,0.0917969-0.3212891,0.1376953-0.5356445,0.1376953c-0.3979492,0-0.6889648-0.0917969-0.8876953-0.3066406
		c-0.2143555-0.1523438-0.3061523-0.3974609-0.3061523-0.7041016c0-0.1835938,0.0610352-0.4130859,0.1987305-0.6582031
		c0.9794922-1.46875,1.7602539-3.2441406,2.3725586-5.3251953c0.1069336-0.4287109,0.3520508-0.6582031,0.7192383-0.6582031
		s0.6884766,0.0917969,0.9487305,0.2753906c0.2753906,0.1074219,0.4135742,0.3828125,0.4135742,0.8105469
		c0,0.2148438-0.0458984,0.4140625-0.1074219,0.6123047c-0.1987305,0.765625-0.4438477,1.5-0.7192383,2.2041016v5.5712891
		c0.7651367-1.0253906,1.3007812-1.8525391,1.5761719-2.4638672c0.3061523-0.6123047,0.6123047-1.4238281,0.9335938-2.4648438
		h-1.1933594c-0.3520508,0-0.6123047-0.0761719-0.7807617-0.2294922c-0.168457-0.1523438-0.2451172-0.4130859-0.2451172-0.7802734
		c0-0.3974609,0.0766602-0.6582031,0.2451172-0.7958984c0.152832-0.1533203,0.4130859-0.2294922,0.7807617-0.2294922H84.2843323z
		 M83.0909729,216.109375h1.1933594v-4.1015625c-0.2446289,1.0712891-0.565918,2.0361328-0.9638672,2.9238281
		c-0.2143555,0.4589844-0.4130859,0.8564453-0.597168,1.2089844C82.830719,216.125,82.9532776,216.109375,83.0909729,216.109375z
		 M87.6974182,216.109375c0.0458984,0,0.0917969,0.015625,0.1533203,0.015625
		c-0.2451172-0.4746094-0.4897461-1.0097656-0.7348633-1.5917969c-0.3061523-0.9033203-0.5507812-1.7753906-0.734375-2.6171875
		v4.1933594H87.6974182z"/>
	<path class="st18" d="M103.9005432,214.0585938c-0.7651367,0.2753906-1.7753906,0.6582031-2.9995117,1.1630859
		c0.0302734,0.3369141,0.0610352,0.6738281,0.0610352,1.0410156c0,0.3515625-0.1069336,0.6279297-0.3212891,0.8261719
		c-0.2294922,0.1992188-0.4897461,0.2910156-0.7958984,0.2910156s-0.5507812-0.0917969-0.7651367-0.2910156
		c-0.2294922-0.1982422-0.3369141-0.4746094-0.3369141-0.8261719l-0.0151367-0.1220703l-0.4287109,0.1835938
		c-1.1323242,0.4892578-1.6987305,0.9335938-1.6987305,1.3007812c0,0.3056641,0.6123047,0.4433594,1.8520508,0.4433594
		c1.1933594,0,2.4946289-0.0605469,3.9023438-0.2138672c0.3520508,0,0.6430664,0.0917969,0.8876953,0.2753906
		c0.2143555,0.2138672,0.3369141,0.4746094,0.3520508,0.765625c0,0.2441406-0.0766602,0.4736328-0.2143555,0.6728516
		c-0.1835938,0.2148438-0.4438477,0.3212891-0.7651367,0.3369141c-1.5,0.1074219-2.8769531,0.1679688-4.1625977,0.1679688
		c-2.7246094,0-4.0712891-0.8876953-4.0712891-2.6630859c0-0.9179688,1.3164062-2.0195312,3.9794922-3.3056641
		c-0.2910156-0.5507812-0.6889648-0.8417969-1.1938477-0.8417969c-0.7348633,0-1.3623047,0.1992188-1.8823242,0.5820312
		c-0.5512695,0.4589844-1.1176758,0.9179688-1.668457,1.3769531c-0.2602539,0.1835938-0.5205078,0.2753906-0.7807617,0.2753906
		c-0.2753906,0-0.5048828-0.0917969-0.6884766-0.2900391c-0.1835938-0.1835938-0.2753906-0.4130859-0.2753906-0.6894531
		c0-0.3359375,0.1376953-0.6425781,0.4438477-0.9335938c0.6733398-0.6425781,1.4692383-1.6220703,2.387207-2.96875
		c-0.6425781,0.0302734-1.1323242,0.0458984-1.4692383,0.0458984c-0.3671875,0-0.6425781-0.0917969-0.8261719-0.2753906
		c-0.1992188-0.1835938-0.2910156-0.4130859-0.2910156-0.7041016c0-0.2753906,0.0917969-0.5048828,0.2910156-0.71875
		c0.1987305-0.1992188,0.4746094-0.3066406,0.8261719-0.3066406c0.5512695,0,1.4692383-0.0302734,2.7397461-0.0917969
		c0.1835938-0.3515625,0.3212891-0.6425781,0.3979492-0.8574219c0.152832-0.5195312,0.4897461-0.7802734,0.9946289-0.7802734
		c0.2753906,0,0.5356445,0.1074219,0.75,0.2910156c0.2143555,0.1992188,0.3212891,0.4433594,0.3212891,0.734375
		c0,0.1376953-0.0302734,0.2753906-0.0610352,0.4130859l-0.0307617,0.0771484
		c1.3623047-0.0771484,2.3876953-0.1533203,3.0610352-0.2148438c0.3369141,0,0.6274414,0.0917969,0.8725586,0.2607422
		c0.1835938,0.1982422,0.2905273,0.4433594,0.3056641,0.71875c0,0.5820312-0.3364258,0.9033203-0.9946289,0.9794922
		c-1.0712891,0.0917969-2.5253906,0.1992188-4.3618164,0.3066406c-0.2143555,0.3369141-0.4589844,0.6884766-0.734375,1.0859375
		c0.3520508-0.0917969,0.7036133-0.1376953,1.0405273-0.1679688c1.331543,0,2.2802734,0.5966797,2.8466797,1.7910156
		c1.2241211-0.5205078,2.1733398-0.8876953,2.8618164-1.1171875c0.1533203-0.0458984,0.2910156-0.0771484,0.4287109-0.0771484
		c0.2905273,0,0.5205078,0.1074219,0.7041016,0.3066406c0.1835938,0.1982422,0.2753906,0.4433594,0.2905273,0.71875
		C104.6656799,213.5380859,104.405426,213.875,103.9005432,214.0585938z"/>
	<path class="st18" d="M111.9464417,218.2675781c-0.8569336,0.9492188-1.652832,1.4384766-2.4179688,1.4384766
		c-1.0405273,0-1.8061523-0.5205078-2.3110352-1.5458984c-0.4130859-0.8261719-0.6884766-2.1113281-0.8110352-3.8408203
		c-0.0458984-0.5966797-0.0615234-1.1943359-0.0615234-1.8066406c0-0.2900391,0.0458984-1.2695312,0.1533203-2.9228516
		c0.0151367-0.3369141,0.152832-0.5966797,0.4130859-0.7958984c0.2451172-0.1835938,0.5507812-0.2753906,0.918457-0.2753906
		c0.3212891,0,0.581543,0.1074219,0.7651367,0.3056641c0.1835938,0.1992188,0.2905273,0.4599609,0.2905273,0.765625
		c0,0.0917969-0.0151367,0.6123047-0.0458984,1.5761719c-0.0458984,1.0566406-0.0610352,1.8828125-0.0610352,2.4794922
		c0,0.9794922,0.0766602,1.7910156,0.2451172,2.4638672c0.1679688,0.7353516,0.3974609,1.1025391,0.6733398,1.1025391
		c0.3671875,0,0.8110352-0.5048828,1.331543-1.5458984c0.2597656-0.5361328,0.581543-0.8115234,0.9487305-0.8115234
		c0.7802734,0,1.1782227,0.3066406,1.1782227,0.9033203C113.155426,216.4921875,112.7423401,217.3339844,111.9464417,218.2675781z
		 M118.2672424,217.7011719c-0.2446289,0.2148438-0.5048828,0.3066406-0.8110352,0.3066406
		s-0.5664062-0.0917969-0.7807617-0.2753906c-0.2138672-0.1845703-0.3364258-0.4599609-0.3515625-0.7958984
		c-0.0307617-0.6894531-0.2451172-1.7910156-0.6123047-3.3066406c-0.3671875-1.453125-0.7041016-2.5244141-0.9951172-3.1982422
		c-0.0761719-0.1533203-0.1069336-0.3212891-0.1069336-0.4746094c0-0.3056641,0.1069336-0.5507812,0.3520508-0.7646484
		c0.2446289-0.1992188,0.5205078-0.3066406,0.8266602-0.3066406c0.4589844,0,0.7954102,0.2294922,0.9946289,0.6738281
		c0.3364258,0.8105469,0.7192383,2.0048828,1.1171875,3.5966797c0.3979492,1.6376953,0.6274414,2.8613281,0.6733398,3.6884766
		C118.5733948,217.1962891,118.4664612,217.4873047,118.2672424,217.7011719z"/>
	<path class="st18" d="M128.0128479,210.9521484c-0.6435547,0.1835938-1.6376953,0.3369141-2.9692383,0.4433594
		c-0.7807617,3.1220703-1.5307617,5.6328125-2.2651367,7.5c-0.1835938,0.4736328-0.5205078,0.71875-1.0102539,0.71875
		c-0.3061523-0.0146484-0.5664062-0.1220703-0.7958984-0.3212891c-0.2446289-0.1992188-0.3520508-0.4589844-0.3520508-0.765625
		c0-0.1376953,0.0307617-0.2900391,0.0917969-0.4433594c0.6123047-1.5917969,1.2856445-3.7802734,2.0048828-6.5351562
		c-0.5507812,0.0302734-1.0556641,0.0302734-1.5151367,0.0302734c-0.3671875,0-0.6425781-0.0917969-0.8261719-0.3056641
		s-0.2753906-0.4589844-0.2753906-0.765625c0-0.2900391,0.0917969-0.5507812,0.2905273-0.7646484
		c0.1835938-0.2148438,0.4589844-0.3212891,0.8110352-0.3212891c0.6123047,0,1.3012695-0.015625,2.0507812-0.0615234
		c0.1074219-0.5048828,0.1992188-0.9492188,0.2602539-1.3310547c0.0917969-0.6123047,0.4594727-0.9335938,1.1020508-0.9335938
		c0.2910156,0.0146484,0.5507812,0.1220703,0.7651367,0.3056641c0.2143555,0.1992188,0.3369141,0.4589844,0.3369141,0.765625
		c0,0.1376953-0.0615234,0.4736328-0.168457,1.0097656c0.8413086-0.0917969,1.4692383-0.1835938,1.8666992-0.3056641
		c0.1074219-0.03125,0.2148438-0.046875,0.3369141-0.046875c0.3066406,0,0.5507812,0.1230469,0.75,0.3369141
		c0.1835938,0.2148438,0.2910156,0.4746094,0.3212891,0.75
		C128.8233948,210.4472656,128.5480042,210.7988281,128.0128479,210.9521484z M132.4059143,219.3847656
		c-0.628418,0.1533203-1.3481445,0.2451172-2.1743164,0.2451172c-1.6835938,0-2.8007812-0.1230469-3.3818359-0.3369141
		c-0.8574219-0.3369141-1.2861328-1.0556641-1.2861328-2.1425781c0-0.5820312,0.1225586-1.0869141,0.3671875-1.484375
		c0.2451172-0.3984375,0.5664062-0.5966797,0.9648438-0.5966797c0.3056641,0,0.5664062,0.0917969,0.7646484,0.2441406
		c0.1835938,0.1533203,0.2910156,0.3525391,0.2910156,0.5976562c0,0.1220703-0.0458984,0.3212891-0.1220703,0.5810547
		c-0.0771484,0.2753906-0.1074219,0.4589844-0.1074219,0.5507812c0,0.2148438,0.1533203,0.3828125,0.4589844,0.4746094
		c0.2138672,0.0917969,0.4443359,0.1230469,0.7041016,0.1230469c0.3671875,0,0.9033203-0.046875,1.6074219-0.1689453
		c0.6884766-0.1074219,1.2089844-0.1679688,1.5766602-0.1679688c0.8105469,0,1.2236328,0.3671875,1.2236328,1.0859375
		C133.2926331,218.9101562,132.986969,219.2314453,132.4059143,219.3847656z M132.4518127,213.15625
		c-0.2148438,0.2138672-0.4907227,0.3212891-0.8422852,0.3212891c-0.4599609,0-1.0869141,0.0458984-1.8671875,0.1064453
		c-0.8271484,0.0917969-1.4394531,0.1845703-1.8212891,0.2763672c-0.1074219,0.0302734-0.2148438,0.0302734-0.3066406,0.0302734
		c-0.3369141,0-0.5966797-0.1220703-0.7958984-0.3828125c-0.1835938-0.2138672-0.2597656-0.4892578-0.2597656-0.8115234
		c0-0.4892578,0.2753906-0.7949219,0.8417969-0.9326172c0.4892578-0.1230469,1.1933594-0.2304688,2.1123047-0.3222656
		c0.9179688-0.0605469,1.6367188-0.1064453,2.1728516-0.1064453c0.3369141,0.0146484,0.597168,0.1220703,0.8120117,0.3359375
		c0.1679688,0.2148438,0.2597656,0.4599609,0.2597656,0.7353516
		C132.7574768,212.6962891,132.6500549,212.9414062,132.4518127,213.15625z"/>
	<path class="st18" d="M146.5426331,218.0996094c-0.6894531,0.7802734-1.4384766,1.2392578-2.25,1.4228516
		c-0.3212891,0.0615234-0.5048828,0.1074219-0.5664062,0.1074219c-0.3369141,0-0.5966797-0.1376953-0.8115234-0.3828125
		c-0.2138672-0.2451172-0.3212891-0.5507812-0.3212891-0.8876953c0-0.2910156,0.2607422-0.5810547,0.78125-0.8720703
		c0.9179688-0.5048828,1.5761719-1.0712891,1.9433594-1.7138672c0.2910156-0.5205078,0.4433594-1.1787109,0.4433594-2.0048828
		c0-0.5976562-0.1679688-1.1181641-0.5048828-1.5615234c-0.3515625-0.4287109-0.7802734-0.6582031-1.3007812-0.6582031
		c-0.6728516,0-1.4228516,0.2294922-2.25,0.6582031c-0.8417969,0.4433594-1.5449219,0.9794922-2.0966797,1.5917969
		c0,1.1630859-0.0146484,2.1728516-0.0146484,3.0605469c-0.015625,1.1630859-0.015625,1.8525391-0.015625,2.0664062
		c0,0.765625-0.3828125,1.1630859-1.1474609,1.1630859c-0.7353516,0-1.0869141-0.3369141-1.0869141-1.0097656
		c0-0.2148438,0.015625-1.0869141,0.0615234-2.6171875c-0.8271484,0.9794922-1.3935547,1.46875-1.7148438,1.46875
		s-0.5966797-0.1064453-0.8105469-0.3212891c-0.2451172-0.2138672-0.3525391-0.4746094-0.3525391-0.75
		s0.1992188-0.6582031,0.6123047-1.1777344c0.5820312-0.7197266,0.9951172-1.2705078,1.2548828-1.6376953
		c0.3671875-0.5058594,0.8417969-1.2705078,1.4541016-2.2802734c-1.2851562,0.4277344-1.9892578,0.6425781-2.1269531,0.6425781
		c-0.2753906,0-0.5048828-0.1230469-0.6894531-0.3671875c-0.1982422-0.2451172-0.2900391-0.5205078-0.2900391-0.8417969
		c0-0.5517578,0.2753906-0.8730469,0.8261719-0.9648438c0.4130859-0.0917969,1.1171875-0.2441406,2.1123047-0.4746094
		c0-0.2138672,0-0.5654297,0.0146484-1.0253906c0-0.2138672,0-0.4433594,0.015625-0.6884766
		c0-0.5810547,0.3828125-0.8876953,1.1328125-0.8876953c0.3056641,0,0.5664062,0.0917969,0.7802734,0.2607422
		c0.2138672,0.1679688,0.3212891,0.3818359,0.3212891,0.6269531l-0.0761719,1.1328125
		c-0.0458984,0.7802734-0.0615234,1.3623047-0.0615234,1.7294922c1.484375-0.9335938,2.8164062-1.4082031,4.0097656-1.4082031
		c1.6376953,0,2.8007812,0.5507812,3.4892578,1.6376953c0.4443359,0.7041016,0.6738281,1.5917969,0.6738281,2.6630859
		C147.9811096,215.5742188,147.4908752,217.0126953,146.5426331,218.0996094z"/>
	<path class="st18" d="M160.1598206,218.8642578c-1.0410156,0.7958984-2.4335938,1.1943359-4.1787109,1.1943359
		c-1.2246094,0-2.1728516-0.2294922-2.8310547-0.6582031s-0.9794922-1.0253906-0.9794922-1.7597656
		c0-0.5820312,0.2294922-1.0722656,0.6884766-1.4697266c0.4902344-0.4287109,1.1787109-0.6425781,2.0507812-0.6425781
		c0.6582031,0,1.3164062,0.2138672,1.9589844,0.6123047c0.5820312,0.3818359,1.0410156,0.8417969,1.3925781,1.3613281
		c0.8417969-0.5048828,1.2705078-1.1630859,1.2705078-1.9736328c0-0.5205078-0.3056641-0.9492188-0.8876953-1.3164062
		c-0.5507812-0.3369141-1.2089844-0.5048828-1.9589844-0.5048828c-0.7197266,0-1.5,0.1376953-2.3564453,0.3974609
		c-0.9492188,0.3066406-1.7607422,0.7041016-2.4033203,1.1943359c-0.4589844,0.3515625-0.7197266,0.5507812-0.7802734,0.5810547
		c-0.3066406,0.1992188-0.5507812,0.2910156-0.765625,0.2910156c-0.3056641,0-0.5664062-0.0761719-0.75-0.2597656
		c-0.1835938-0.1689453-0.2753906-0.3828125-0.2753906-0.6435547c0-0.4277344,0.1689453-0.7958984,0.5361328-1.0859375
		c0.9794922-0.8271484,2.8154297-2.3115234,5.5400391-4.4697266l-3.4287109,0.2763672
		c-0.3818359,0-0.6884766-0.0917969-0.9179688-0.3066406c-0.2451172-0.1992188-0.3515625-0.4287109-0.3515625-0.7041016
		c0-0.3056641,0.0917969-0.5664062,0.3056641-0.7958984c0.1835938-0.2138672,0.4589844-0.3212891,0.8261719-0.3212891
		c0.5517578,0,1.6230469-0.0458984,3.2138672-0.1376953c1.5917969-0.0917969,2.6484375-0.1679688,3.1689453-0.2294922
		c0.3359375,0,0.6113281,0.1074219,0.8408203,0.3212891c0.2148438,0.2451172,0.3222656,0.5664062,0.3222656,0.9492188
		c0,0.2294922-0.4599609,0.6728516-1.3476562,1.3164062c-0.6113281,0.4589844-1.453125,1.1171875-2.5400391,1.9736328
		c0.6123047-0.1064453,1.3164062-0.1679688,2.1123047-0.1679688c0.9941406,0,1.8818359,0.2753906,2.6630859,0.8261719
		c0.9482422,0.6884766,1.4228516,1.6220703,1.4228516,2.8164062
		C161.7203674,216.9667969,161.1998596,218.0683594,160.1598206,218.8642578z M154.9859924,217.2880859
		c-0.6113281,0-0.9179688,0.1533203-0.9179688,0.4589844c0,0.3525391,0.4746094,0.5205078,1.4238281,0.5205078
		c0.2597656,0,0.5351562-0.015625,0.8417969-0.0761719C155.8736877,217.59375,155.4147034,217.2880859,154.9859924,217.2880859z"/>
	<path class="st18" d="M168.6959534,219.6601562c-1.3779297,0-2.5253906-0.1679688-3.4746094-0.4892578
		c-1.4228516-0.4902344-2.1269531-1.2861328-2.1269531-2.4179688c0-0.8574219,0.1533203-1.53125,0.4746094-1.9902344
		c0.2597656-0.3671875,0.5810547-0.5664062,0.9794922-0.5664062c0.2597656,0.015625,0.4892578,0.1074219,0.6884766,0.2910156
		c0.1835938,0.1835938,0.2910156,0.4287109,0.2910156,0.734375c0,0.1533203-0.0458984,0.3671875-0.1376953,0.6123047
		s-0.1376953,0.4287109-0.1376953,0.5361328c0,0.4287109,0.2910156,0.71875,0.8720703,0.8720703
		c0.4902344,0.1376953,1.3466797,0.1992188,2.5712891,0.1992188c1.9287109,0,3.4277344-0.1230469,4.4990234-0.3984375
		c0.1074219-0.0146484,0.2148438-0.0302734,0.3222656-0.0302734c0.3056641,0,0.5654297,0.1220703,0.7646484,0.3515625
		c0.1835938,0.2294922,0.2910156,0.4902344,0.2910156,0.78125c0,0.5664062-0.2910156,0.9179688-0.8417969,1.0556641
		C172.4762268,219.5068359,170.8082581,219.6601562,168.6959534,219.6601562z M173.3336487,210.0800781
		c-0.2148438,0.2441406-0.4902344,0.3671875-0.8417969,0.3974609c-0.9033203,0.0917969-1.8671875,0.1220703-2.8779297,0.1220703
		c-1.4384766,0-2.9072266-0.0605469-4.3769531-0.1835938c-0.7958984-0.0605469-1.1933594-0.4433594-1.1933594-1.1318359
		c0-0.3066406,0.1064453-0.5664062,0.3359375-0.78125c0.2451172-0.1679688,0.5517578-0.2597656,0.9189453-0.2597656
		c1.3310547,0.1220703,2.5400391,0.1679688,3.6425781,0.1679688c1.0556641,0,2.1572266-0.0302734,3.2900391-0.1220703
		c0.4589844,0,0.8115234,0.1074219,1.0556641,0.2910156c0.2148438,0.2138672,0.3222656,0.4746094,0.3222656,0.7802734
		C173.6090393,209.6357422,173.5172424,209.8808594,173.3336487,210.0800781z"/>
	<path class="st18" d="M185.9859924,219.2314453c-1.453125,0.2753906-2.96875,0.4140625-4.5292969,0.4140625
		c-1.4541016,0-2.6630859-0.2451172-3.6123047-0.7197266c-1.1630859-0.5664062-1.7451172-1.4082031-1.7451172-2.5410156
		c0-1.6835938,1.1484375-3.0908203,3.4589844-4.2539062l-0.8105469-3.8115234
		c-0.03125-0.0917969-0.03125-0.1679688-0.03125-0.2597656c0-0.3066406,0.1074219-0.5507812,0.3212891-0.765625
		c0.2148438-0.1835938,0.4599609-0.2900391,0.75-0.2900391c0.6738281,0,1.0869141,0.2900391,1.2089844,0.8564453
		l0.7353516,3.3974609c0.3974609-0.1376953,1.6064453-0.4892578,3.6425781-1.0712891
		c0.1220703-0.0302734,0.2294922-0.0458984,0.3212891-0.0458984c0.3056641,0,0.5664062,0.1230469,0.7802734,0.3369141
		c0.1835938,0.2294922,0.2910156,0.4902344,0.2910156,0.7802734c0,0.5361328-0.2753906,0.8730469-0.7958984,1.0253906
		c-0.9179688,0.2451172-1.8212891,0.4746094-2.7392578,0.7197266c-1.4082031,0.4287109-2.4951172,0.8574219-3.2607422,1.3007812
		c-1.0712891,0.6279297-1.5908203,1.3007812-1.5908203,2.0351562c0,0.4140625,0.4277344,0.7197266,1.3154297,0.9189453
		c0.6123047,0.1523438,1.2861328,0.2138672,2.0361328,0.2138672c0.6728516,0,1.5458984-0.0615234,2.6015625-0.1992188
		c0.5966797-0.0605469,1.0869141-0.1220703,1.46875-0.1835938c0.3369141,0,0.5976562,0.1230469,0.8115234,0.3671875
		c0.1992188,0.2451172,0.3056641,0.5205078,0.3056641,0.8271484
		C186.9049377,218.8037109,186.5982971,219.109375,185.9859924,219.2314453z"/>
	<path class="st18" d="M79.6471252,229.9707031c0.2602539,0.1523438,0.3979492,0.4287109,0.3979492,0.8417969
		c-0.0302734,0.4130859-0.1225586,0.8720703-0.2602539,1.3925781c-0.4589844,1.7753906-0.902832,3.1064453-1.3007812,3.9941406
		c-0.1225586,0.3671875-0.4897461,0.5361328-1.0712891,0.5361328c-0.2753906,0-0.5507812-0.1230469-0.8110352-0.3984375
		c-0.2143555-0.1523438-0.3212891-0.4287109-0.3212891-0.7958984c0-0.2597656,0.0761719-0.5507812,0.2294922-0.8876953
		c0.4897461-1.1933594,0.902832-2.6171875,1.2548828-4.2539062c0.1225586-0.4746094,0.4438477-0.7197266,0.9643555-0.7197266
		C79.0655823,229.6796875,79.3717346,229.7871094,79.6471252,229.9707031z M82.2643127,225.4248047
		c1.3774414,0.5966797,2.4946289,1.1328125,3.3364258,1.6220703c0.3671875,0.2451172,0.5664062,0.5517578,0.5966797,0.9033203
		c0,0.3828125-0.0761719,0.6738281-0.2294922,0.8574219c-0.2143555,0.3974609-0.5356445,0.5810547-0.9638672,0.5810547
		c-0.2451172,0-0.5053711-0.0605469-0.765625-0.2138672c-1.1015625-0.6123047-2.2495117-1.2089844-3.4741211-1.7597656
		c-0.4897461-0.1835938-0.7192383-0.4746094-0.7192383-0.8417969c0-0.4599609,0.1225586-0.8115234,0.3671875-1.0566406
		c0.1992188-0.2138672,0.4897461-0.3212891,0.8876953-0.3212891
		C81.5758362,225.1953125,81.8971252,225.2724609,82.2643127,225.4248047z M82.5094299,229.0058594
		c0.2138672,0.1845703,0.3364258,0.4599609,0.3364258,0.7958984v5.984375c0,0.4287109,0.2143555,0.6425781,0.6582031,0.6425781
		h2.1577148c0.2143555,0,0.3676758-0.1064453,0.4594727-0.3359375c0.1220703-0.3828125,0.1987305-0.9033203,0.2602539-1.5771484
		c0.1220703-0.3056641,0.4589844-0.4746094,1.0097656-0.5351562c0.3520508,0.0302734,0.6582031,0.1220703,0.918457,0.2910156
		c0.2143555,0.1835938,0.3212891,0.4589844,0.3364258,0.7958984c0,0.9794922-0.1679688,1.7744141-0.4897461,2.4023438
		c-0.3515625,0.6738281-1.0097656,1.0712891-1.9589844,1.1787109h-3.5810547c-0.7807617,0-1.3466797-0.2148438-1.6987305-0.6123047
		c-0.3061523-0.3212891-0.4594727-0.8574219-0.4594727-1.6533203v-6.5810547c0-0.2900391,0.0922852-0.5507812,0.3061523-0.7958984
		c0.184082-0.1835938,0.4897461-0.2753906,0.8876953-0.2753906
		C81.9889221,228.7304688,82.2794495,228.8222656,82.5094299,229.0058594z M88.7687073,229.4345703
		c0.581543,0.8271484,1.1479492,1.9287109,1.6987305,3.3056641c0.1225586,0.3066406,0.1992188,0.5361328,0.2143555,0.7041016
		c0,0.3984375-0.1225586,0.6738281-0.3671875,0.8417969c-0.2753906,0.2294922-0.581543,0.3525391-0.8876953,0.3525391
		c-0.4897461,0-0.8110352-0.2148438-0.9487305-0.6582031c-0.5205078-1.2402344-1.0869141-2.3720703-1.6992188-3.4130859
		c-0.152832-0.2138672-0.2138672-0.3828125-0.2138672-0.5205078c0-0.3056641,0.1376953-0.5810547,0.4130859-0.8105469
		c0.2753906-0.1845703,0.5664062-0.2763672,0.902832-0.2763672
		C88.3097229,228.9599609,88.6002502,229.1289062,88.7687073,229.4345703z"/>
	<path class="st18" d="M102.9215393,237.2246094c-0.8569336,0.6582031-2.1425781,0.9951172-3.8261719,0.9951172
		c-1.4541016-0.0302734-2.5253906-0.3212891-3.1987305-0.8876953c-0.7651367-0.6279297-1.1323242-1.6533203-1.1323242-3.0761719
		c0-0.1835938,0-0.3984375,0.0151367-0.6123047c-0.75,0-1.4692383-0.0302734-2.1425781-0.1074219
		c-0.5205078-0.0917969-0.7651367-0.4589844-0.7651367-1.1015625c0-0.2910156,0.0917969-0.5361328,0.2753906-0.734375
		c0.1835938-0.1689453,0.3979492-0.2607422,0.6425781-0.2607422c1.0410156,0.0917969,1.8061523,0.1376953,2.2651367,0.1376953
		c0.0307617-0.3212891,0.0917969-0.8720703,0.1835938-1.6376953c-0.3364258,0-0.7802734,0-1.3007812-0.0146484
		c-0.3520508,0-0.6274414-0.03125-0.8261719-0.0917969c-0.5512695-0.1230469-0.8115234-0.4443359-0.8115234-0.9951172
		c0-0.2753906,0.0766602-0.5048828,0.2451172-0.7041016c0.152832-0.1835938,0.3823242-0.2910156,0.6582031-0.3056641
		c0.2138672,0,0.5507812,0.0146484,0.9946289,0.0458984c0.6123047,0.0605469,1.0405273,0.0761719,1.2548828,0.0761719
		c0-0.3671875,0.0458984-0.9335938,0.1376953-1.6982422c0.0458984-0.2763672,0.1835938-0.4902344,0.4135742-0.6582031
		c0.2294922-0.1533203,0.5048828-0.2451172,0.8110352-0.2451172c0.3212891,0,0.581543,0.0917969,0.7958984,0.2451172
		c0.1987305,0.1679688,0.3056641,0.3818359,0.3056641,0.6425781l-0.1835938,1.6679688
		c0.5512695-0.0302734,1.2856445-0.0917969,2.1733398-0.1835938c0.2294922,0,0.4287109,0.0917969,0.581543,0.2451172
		c0.1533203,0.1835938,0.2451172,0.3974609,0.2451172,0.6582031c0,0.6728516-0.2602539,1.0400391-0.7807617,1.1171875
		c-0.4897461,0.0917969-1.3007812,0.1523438-2.4638672,0.1982422c-0.0307617,0.3369141-0.0917969,0.8876953-0.1835938,1.6533203
		c0.3061523-0.015625,0.734375-0.0458984,1.3007812-0.1074219c0.4287109-0.0302734,0.734375-0.0605469,0.9487305-0.0605469
		c0.2451172,0,0.4594727,0.0917969,0.6430664,0.2597656c0.152832,0.1835938,0.2446289,0.4130859,0.2446289,0.6884766
		c0,0.6123047-0.3212891,0.9794922-0.9638672,1.0869141c-0.597168,0.1220703-1.4082031,0.1679688-2.418457,0.1679688
		c-0.0151367,0.2148438-0.0151367,0.3984375-0.0151367,0.5517578c0,0.7646484,0.152832,1.2851562,0.4589844,1.5761719
		s0.8725586,0.4287109,1.6835938,0.4287109c1.8364258,0,2.7700195-0.5820312,2.7700195-1.7451172
		c0-0.2910156-0.0610352-0.5820312-0.168457-0.8574219c-0.1069336-0.2753906-0.2138672-0.5351562-0.3212891-0.7958984
		c-0.0610352-0.1376953-0.0766602-0.2597656-0.0766602-0.3818359c0-0.2753906,0.0766602-0.5058594,0.2451172-0.7197266
		c0.168457-0.1992188,0.3828125-0.3056641,0.6582031-0.3056641c0.5356445,0,0.9179688,0.1982422,1.1630859,0.5966797
		c0.4897461,0.7958984,0.734375,1.6064453,0.734375,2.4482422
		C104.1915588,235.6484375,103.7633362,236.5820312,102.9215393,237.2246094z"/>
	<path class="st18" d="M111.4723206,236.6279297c-0.8569336,0.9492188-1.652832,1.4384766-2.4179688,1.4384766
		c-1.0405273,0-1.8061523-0.5205078-2.3110352-1.5458984c-0.4130859-0.8261719-0.6884766-2.1113281-0.8110352-3.8408203
		c-0.0458984-0.5976562-0.0615234-1.1943359-0.0615234-1.8066406c0-0.2900391,0.0458984-1.2695312,0.1533203-2.9228516
		c0.0151367-0.3369141,0.152832-0.5966797,0.4130859-0.7958984c0.2451172-0.1835938,0.5512695-0.2753906,0.918457-0.2753906
		c0.3212891,0,0.581543,0.1074219,0.7651367,0.3066406c0.1835938,0.1982422,0.2905273,0.4589844,0.2905273,0.7646484
		c0,0.0917969-0.0151367,0.6123047-0.0458984,1.5761719c-0.0458984,1.0566406-0.0610352,1.8828125-0.0610352,2.4794922
		c0,0.9794922,0.0766602,1.7910156,0.2451172,2.4638672c0.1679688,0.7353516,0.3979492,1.1025391,0.6733398,1.1025391
		c0.3671875,0,0.8110352-0.5048828,1.331543-1.5458984c0.2597656-0.5361328,0.581543-0.8115234,0.9487305-0.8115234
		c0.7802734,0,1.1782227,0.3066406,1.1782227,0.9033203C112.6813049,234.8525391,112.268219,235.6943359,111.4723206,236.6279297z
		 M117.7931213,236.0615234c-0.2446289,0.2148438-0.5048828,0.3066406-0.8110352,0.3066406
		s-0.5664062-0.0917969-0.7807617-0.2753906c-0.2138672-0.1845703-0.3364258-0.4599609-0.3515625-0.7958984
		c-0.0307617-0.6894531-0.2451172-1.7910156-0.6123047-3.3066406c-0.3671875-1.453125-0.7041016-2.5244141-0.9951172-3.1982422
		c-0.0761719-0.1533203-0.1069336-0.3212891-0.1069336-0.4746094c0-0.3056641,0.1069336-0.5507812,0.3520508-0.7646484
		c0.2446289-0.1992188,0.5205078-0.3066406,0.8261719-0.3066406c0.4594727,0,0.7958984,0.2294922,0.9951172,0.6738281
		c0.3364258,0.8105469,0.7192383,2.0048828,1.1171875,3.5966797c0.3979492,1.6376953,0.6274414,2.8613281,0.6733398,3.6884766
		C118.0992737,235.5566406,117.9923401,235.8476562,117.7931213,236.0615234z"/>
	<path class="st18" d="M127.5382385,229.3125c-0.6435547,0.1835938-1.6376953,0.3369141-2.9692383,0.4433594
		c-0.7807617,3.1220703-1.5307617,5.6328125-2.2651367,7.5c-0.1835938,0.4736328-0.5205078,0.71875-1.0102539,0.71875
		c-0.3061523-0.015625-0.5664062-0.1220703-0.7958984-0.3212891c-0.2446289-0.1992188-0.3520508-0.4589844-0.3520508-0.765625
		c0-0.1376953,0.0307617-0.2900391,0.0917969-0.4433594c0.6123047-1.5917969,1.2856445-3.7802734,2.0048828-6.5351562
		c-0.5507812,0.0302734-1.0556641,0.0302734-1.5151367,0.0302734c-0.3671875,0-0.6425781-0.0917969-0.8261719-0.3056641
		s-0.2753906-0.4589844-0.2753906-0.765625c0-0.2900391,0.0917969-0.5507812,0.2905273-0.7646484
		c0.1835938-0.2148438,0.4589844-0.3212891,0.8110352-0.3212891c0.6123047,0,1.3012695-0.015625,2.0507812-0.0615234
		c0.1074219-0.5048828,0.1992188-0.9492188,0.2602539-1.3310547c0.0917969-0.6123047,0.4594727-0.9335938,1.1020508-0.9335938
		c0.2910156,0.0146484,0.5507812,0.1220703,0.7651367,0.3056641c0.2143555,0.1992188,0.3369141,0.4589844,0.3369141,0.765625
		c0,0.1376953-0.0615234,0.4736328-0.168457,1.0097656c0.8413086-0.0917969,1.4692383-0.1835938,1.8666992-0.3056641
		c0.1074219-0.03125,0.2148438-0.0458984,0.3369141-0.0458984c0.3066406,0,0.5507812,0.1220703,0.75,0.3359375
		c0.1835938,0.2148438,0.2910156,0.4746094,0.3212891,0.75C128.3487854,228.8076172,128.0733948,229.1591797,127.5382385,229.3125z
		 M131.9308167,237.7451172c-0.6279297,0.1533203-1.3476562,0.2451172-2.1738281,0.2451172
		c-1.6835938,0-2.8007812-0.1230469-3.3818359-0.3369141c-0.8574219-0.3369141-1.2861328-1.0556641-1.2861328-2.1425781
		c0-0.5820312,0.1225586-1.0869141,0.3676758-1.484375c0.2446289-0.3984375,0.565918-0.5966797,0.9643555-0.5966797
		c0.3056641,0,0.5664062,0.0917969,0.7646484,0.2441406c0.1835938,0.1533203,0.2910156,0.3525391,0.2910156,0.5976562
		c0,0.1220703-0.0458984,0.3212891-0.1220703,0.5810547c-0.0771484,0.2753906-0.1074219,0.4589844-0.1074219,0.5507812
		c0,0.2148438,0.1533203,0.3828125,0.4589844,0.4746094C127.9200745,235.9697266,128.1505432,236,128.4103088,236
		c0.3671875,0,0.9033203-0.0458984,1.6074219-0.1679688c0.6884766-0.1074219,1.2089844-0.1679688,1.5761719-0.1679688
		c0.8110352,0,1.2241211,0.3671875,1.2241211,1.0859375C132.8180237,237.2705078,132.5123596,237.5917969,131.9308167,237.7451172z
		 M131.9767151,231.5166016c-0.2148438,0.2138672-0.4902344,0.3212891-0.8417969,0.3212891
		c-0.4599609,0-1.0869141,0.0458984-1.8671875,0.1064453c-0.8271484,0.0917969-1.4394531,0.1845703-1.8212891,0.2763672
		c-0.1074219,0.0302734-0.2148438,0.0302734-0.3066406,0.0302734c-0.3369141,0-0.5966797-0.1220703-0.7958984-0.3828125
		c-0.1835938-0.2138672-0.2597656-0.4892578-0.2597656-0.8115234c0-0.4892578,0.2753906-0.7949219,0.8417969-0.9335938
		c0.4892578-0.1220703,1.1933594-0.2294922,2.1123047-0.3212891c0.9179688-0.0605469,1.6367188-0.1064453,2.1728516-0.1064453
		c0.3369141,0.0146484,0.5966797,0.1220703,0.8115234,0.3359375c0.168457,0.2148438,0.2602539,0.4599609,0.2602539,0.7353516
		C132.2828674,231.0566406,132.1754456,231.3017578,131.9767151,231.5166016z"/>
	<path class="st18" d="M146.0690002,236.4599609c-0.6894531,0.7802734-1.4384766,1.2392578-2.25,1.4228516
		c-0.3212891,0.0615234-0.5048828,0.1074219-0.5664062,0.1074219c-0.3369141,0-0.5966797-0.1376953-0.8115234-0.3828125
		c-0.2138672-0.2451172-0.3212891-0.5507812-0.3212891-0.8876953c0-0.2910156,0.2607422-0.5810547,0.78125-0.8720703
		c0.9179688-0.5048828,1.5761719-1.0712891,1.9433594-1.7138672c0.2910156-0.5205078,0.4433594-1.1787109,0.4433594-2.0048828
		c0-0.5976562-0.1679688-1.1181641-0.5048828-1.5615234c-0.3515625-0.4287109-0.7802734-0.6582031-1.3007812-0.6582031
		c-0.6728516,0-1.4228516,0.2294922-2.25,0.6582031c-0.8417969,0.4433594-1.5449219,0.9794922-2.0966797,1.5917969
		c0,1.1630859-0.0146484,2.1728516-0.0146484,3.0605469c-0.015625,1.1630859-0.015625,1.8525391-0.015625,2.0664062
		c0,0.765625-0.3828125,1.1630859-1.1474609,1.1630859c-0.7353516,0-1.0869141-0.3369141-1.0869141-1.0097656
		c0-0.2148438,0.015625-1.0869141,0.0615234-2.6171875c-0.8271484,0.9794922-1.3935547,1.46875-1.7148438,1.46875
		s-0.5966797-0.1064453-0.8105469-0.3212891c-0.2451172-0.2138672-0.3525391-0.4746094-0.3525391-0.75
		s0.1992188-0.6582031,0.6123047-1.1787109c0.5820312-0.71875,0.9951172-1.2695312,1.2548828-1.6367188
		c0.3671875-0.5058594,0.8417969-1.2705078,1.4541016-2.28125c-1.2851562,0.4287109-1.9892578,0.6435547-2.1269531,0.6435547
		c-0.2753906,0-0.5048828-0.1230469-0.6894531-0.3671875c-0.1982422-0.2451172-0.2900391-0.5205078-0.2900391-0.8417969
		c0-0.5517578,0.2753906-0.8730469,0.8261719-0.9648438c0.4130859-0.0917969,1.1171875-0.2441406,2.1123047-0.4746094
		c0-0.2138672,0-0.5654297,0.0146484-1.0253906c0-0.2138672,0-0.4433594,0.015625-0.6884766
		c0-0.5810547,0.3828125-0.8876953,1.1328125-0.8876953c0.3056641,0,0.5664062,0.0917969,0.7802734,0.2607422
		c0.2138672,0.1679688,0.3212891,0.3818359,0.3212891,0.6269531l-0.0761719,1.1328125
		c-0.0458984,0.7802734-0.0615234,1.3623047-0.0615234,1.7294922c1.484375-0.9335938,2.8164062-1.4082031,4.0097656-1.4082031
		c1.6376953,0,2.8007812,0.5507812,3.4892578,1.6376953c0.4443359,0.7041016,0.6738281,1.5917969,0.6738281,2.6630859
		C147.5074768,233.9345703,147.0172424,235.3730469,146.0690002,236.4599609z"/>
	<path class="st18" d="M159.6852112,237.2246094c-1.0400391,0.7958984-2.4326172,1.1943359-4.1777344,1.1943359
		c-1.2246094,0-2.1728516-0.2294922-2.8310547-0.6582031S151.6969299,236.7353516,151.6969299,236
		c0-0.5810547,0.2294922-1.0712891,0.6884766-1.46875c0.4902344-0.4287109,1.1787109-0.6425781,2.0507812-0.6425781
		c0.6582031,0,1.3164062,0.2138672,1.9589844,0.6123047c0.5820312,0.3818359,1.0410156,0.8417969,1.3925781,1.3613281
		c0.8417969-0.5048828,1.2705078-1.1630859,1.2705078-1.9736328c0-0.5205078-0.3056641-0.9492188-0.8876953-1.3164062
		c-0.5507812-0.3369141-1.2089844-0.5048828-1.9589844-0.5048828c-0.7197266,0-1.5,0.1376953-2.3564453,0.3974609
		c-0.9492188,0.3066406-1.7607422,0.7041016-2.4033203,1.1943359c-0.4589844,0.3515625-0.7197266,0.5507812-0.7802734,0.5810547
		c-0.3066406,0.1992188-0.5507812,0.2910156-0.765625,0.2910156c-0.3056641,0-0.5664062-0.0761719-0.75-0.2597656
		c-0.1835938-0.1689453-0.2753906-0.3828125-0.2753906-0.6435547c0-0.4277344,0.1689453-0.7958984,0.5361328-1.0859375
		c0.9794922-0.8271484,2.8154297-2.3115234,5.5400391-4.4697266l-3.4287109,0.2763672
		c-0.3818359,0-0.6884766-0.0917969-0.9179688-0.3066406c-0.2451172-0.1992188-0.3515625-0.4287109-0.3515625-0.7041016
		c0-0.3056641,0.0917969-0.5664062,0.3056641-0.7958984c0.1835938-0.2138672,0.4589844-0.3212891,0.8261719-0.3212891
		c0.5517578,0,1.6230469-0.0458984,3.2138672-0.1376953c1.5917969-0.0917969,2.6484375-0.1679688,3.1689453-0.2294922
		c0.3359375,0,0.6113281,0.1074219,0.8408203,0.3212891c0.2148438,0.2451172,0.3222656,0.5664062,0.3222656,0.9492188
		c0,0.2294922-0.4599609,0.6728516-1.3476562,1.3164062c-0.6113281,0.4589844-1.453125,1.1171875-2.5400391,1.9736328
		c0.6123047-0.1064453,1.3164062-0.1679688,2.1123047-0.1679688c0.9941406,0,1.8818359,0.2753906,2.6630859,0.8261719
		c0.9482422,0.6884766,1.4228516,1.6220703,1.4228516,2.8164062
		C161.2467346,235.3271484,160.7262268,236.4287109,159.6852112,237.2246094z M154.5123596,235.6484375
		c-0.6113281,0-0.9179688,0.1533203-0.9179688,0.4589844c0,0.3525391,0.4746094,0.5205078,1.4238281,0.5205078
		c0.2597656,0,0.5351562-0.015625,0.8417969-0.0761719C155.4000549,235.9541016,154.9410706,235.6484375,154.5123596,235.6484375z"
		/>
	<path class="st18" d="M168.221344,238.0205078c-1.3779297,0-2.5253906-0.1679688-3.4746094-0.4892578
		c-1.4228516-0.4902344-2.1269531-1.2861328-2.1269531-2.4179688c0-0.8574219,0.1533203-1.53125,0.4746094-1.9902344
		c0.2597656-0.3671875,0.5810547-0.5664062,0.9794922-0.5664062c0.2597656,0.015625,0.4892578,0.1074219,0.6884766,0.2910156
		c0.1835938,0.1835938,0.2910156,0.4287109,0.2910156,0.734375c0,0.1533203-0.0458984,0.3671875-0.1376953,0.6123047
		s-0.1376953,0.4287109-0.1376953,0.5361328c0,0.4287109,0.2910156,0.71875,0.8720703,0.8720703
		c0.4902344,0.1376953,1.3466797,0.1992188,2.5712891,0.1992188c1.9287109,0,3.4277344-0.1230469,4.4990234-0.3984375
		c0.1074219-0.0146484,0.2148438-0.0302734,0.3222656-0.0302734c0.3056641,0,0.5654297,0.1220703,0.7646484,0.3515625
		c0.1835938,0.2294922,0.2910156,0.4902344,0.2910156,0.78125c0,0.5664062-0.2910156,0.9179688-0.8417969,1.0556641
		C172.0016174,237.8671875,170.3336487,238.0205078,168.221344,238.0205078z M172.8590393,228.4404297
		c-0.2148438,0.2441406-0.4902344,0.3671875-0.8417969,0.3974609c-0.9033203,0.0917969-1.8671875,0.1220703-2.8779297,0.1220703
		c-1.4384766,0-2.9072266-0.0605469-4.3769531-0.1835938c-0.7958984-0.0605469-1.1933594-0.4433594-1.1933594-1.1318359
		c0-0.3066406,0.1064453-0.5664062,0.3359375-0.78125c0.2451172-0.1679688,0.5517578-0.2597656,0.9189453-0.2597656
		c1.3310547,0.1220703,2.5400391,0.1679688,3.6425781,0.1679688c1.0556641,0,2.1572266-0.0302734,3.2900391-0.1220703
		c0.4589844,0,0.8115234,0.1074219,1.0556641,0.2910156c0.2148438,0.2138672,0.3222656,0.4746094,0.3222656,0.7802734
		C173.1344299,227.9960938,173.0426331,228.2412109,172.8590393,228.4404297z"/>
	<path class="st18" d="M185.5113831,237.5917969c-1.453125,0.2753906-2.96875,0.4140625-4.5292969,0.4140625
		c-1.4541016,0-2.6630859-0.2451172-3.6123047-0.7197266c-1.1630859-0.5664062-1.7451172-1.4082031-1.7451172-2.5410156
		c0-1.6826172,1.1484375-3.0908203,3.4589844-4.2539062l-0.8105469-3.8115234
		c-0.03125-0.0917969-0.03125-0.1679688-0.03125-0.2597656c0-0.3066406,0.1074219-0.5507812,0.3212891-0.765625
		c0.2148438-0.1835938,0.4599609-0.2900391,0.75-0.2900391c0.6738281,0,1.0869141,0.2900391,1.2089844,0.8564453
		l0.7353516,3.3974609c0.3974609-0.1376953,1.6064453-0.4892578,3.6425781-1.0712891
		c0.1220703-0.0302734,0.2294922-0.0458984,0.3212891-0.0458984c0.3056641,0,0.5664062,0.1230469,0.7802734,0.3369141
		c0.1835938,0.2294922,0.2910156,0.4902344,0.2910156,0.7802734c0,0.5361328-0.2753906,0.8730469-0.7958984,1.0253906
		c-0.9179688,0.2451172-1.8212891,0.4746094-2.7392578,0.7197266c-1.4082031,0.4287109-2.4951172,0.8574219-3.2607422,1.3007812
		c-1.0712891,0.6279297-1.5908203,1.3007812-1.5908203,2.0351562c0,0.4140625,0.4277344,0.7197266,1.3154297,0.9189453
		c0.6123047,0.1523438,1.2861328,0.2138672,2.0361328,0.2138672c0.6728516,0,1.5458984-0.0615234,2.6015625-0.1992188
		c0.5966797-0.0605469,1.0869141-0.1220703,1.46875-0.1835938c0.3369141,0,0.5976562,0.1230469,0.8115234,0.3671875
		c0.1992188,0.2451172,0.3056641,0.5205078,0.3056641,0.8271484
		C186.4303284,237.1640625,186.1236877,237.4697266,185.5113831,237.5917969z"/>
</g>
</svg>
