<?xml version="1.0" encoding="UTF-8"?>
<svg id="_レイヤー_2" data-name="レイヤー 2" xmlns="http://www.w3.org/2000/svg" viewBox="0 0 586.44 541.57">
  <defs>
    <style>
      .cls-1 {
        fill: #f7c891;
      }

      .cls-2 {
        fill: #e6e6e6;
      }

      .cls-3 {
        fill: #fff;
      }

      .cls-4 {
        fill: #e6ba87;
      }

      .cls-5 {
        fill: #e3b47c;
      }

      .cls-6 {
        fill: #a12d1f;
      }

      .cls-7 {
        fill: #bd3525;
      }

      .cls-8 {
        fill: #de6f62;
      }

      .cls-9 {
        fill: #d2b35f;
      }

      .cls-10 {
        fill: #d2b261;
      }

      .cls-11 {
        fill: #e0b584;
      }
    </style>
  </defs>
  <g id="_レイヤー_1-2" data-name="レイヤー 1">
    <g>
      <path class="cls-11" d="M557.1,520.26H30.05c-16.2,0-29.34-13.14-29.34-29.34V201.02c0-7.46,6.05-13.5,13.5-13.5H573.14c7.34,0,13.29,5.95,13.29,13.29V490.92c0,16.2-13.14,29.34-29.34,29.34Z"/>
      <path class="cls-4" d="M272.75,6.32L5.23,189.72c-9.63,6.61-4.96,21.69,6.72,21.69H574.37c11.68,0,16.36-15.09,6.72-21.69L313.57,6.32c-12.3-8.43-28.52-8.43-40.82,0Z"/>
      <g>
        <path class="cls-2" d="M512.11,457.19l-435.8,30.17c-11.1,.77-20.66-8.66-21.35-21.06L35.68,117.65c-.38-6.86,4.48-12.77,10.88-13.21l452.78-31.34c6.43-.45,11.98,4.81,12.36,11.71l19.28,348.54c.69,12.4-7.76,23.07-18.86,23.84Z"/>
        <path class="cls-3" d="M519.11,485.88l-436.15-23.07c-11.11-.59-19.7-11.12-19.18-23.53l14.49-345.8c.36-8.58,7.15-15.21,15.15-14.79l447.47,23.67c7.98,.42,14.14,7.69,13.78,16.25l-14.49,345.87c-.52,12.41-9.95,21.99-21.06,21.41Z"/>
      </g>
      <g>
        <path class="cls-1" d="M291.21,355.2l278.33-165.56c7.46-4.43,16.9,.94,16.9,9.61v331.12c0,8.67-9.45,14.05-16.9,9.61l-278.33-165.56c-7.29-4.34-7.29-14.89,0-19.22Z"/>
        <path class="cls-5" d="M575.24,198.05s1.2,.07,1.2,1.2v331.12c0,1.13-1.19,1.2-1.2,1.2-.12,0-.31-.02-.59-.18l-278.33-165.56c-.16-.09-.58-.34-.58-1.02,0-.67,.42-.92,.58-1.02l278.33-165.56c.28-.16,.47-.18,.59-.18m0-10c-1.91,0-3.86,.5-5.7,1.59l-278.33,165.56c-7.29,4.34-7.29,14.89,0,19.22l278.33,165.56c1.84,1.09,3.79,1.59,5.7,1.59,5.84,0,11.2-4.66,11.2-11.2V199.25c0-6.54-5.37-11.2-11.2-11.2h0Z"/>
      </g>
      <g>
        <path class="cls-1" d="M295.23,355.2L16.9,189.64c-7.46-4.43-16.9,.94-16.9,9.61v331.12c0,8.67,9.45,14.05,16.9,9.61l278.33-165.56c7.29-4.34,7.29-14.89,0-19.22Z"/>
        <path class="cls-5" d="M11.2,198.05c.12,0,.31,.02,.59,.18l278.33,165.56c.16,.09,.58,.34,.58,1.02s-.42,.92-.58,1.02L11.79,531.39c-.28,.16-.47,.18-.59,.18-.01,0-1.2-.07-1.2-1.2V199.25c0-1.13,1.19-1.2,1.2-1.2m0-10C5.37,188.05,0,192.71,0,199.25v331.12c0,6.54,5.37,11.2,11.2,11.2,1.91,0,3.86-.5,5.7-1.59l278.33-165.56c7.29-4.34,7.29-14.89,0-19.22L16.9,189.64c-1.84-1.09-3.79-1.59-5.7-1.59h0Z"/>
      </g>
      <g>
        <path class="cls-1" d="M266.88,329.48L6.76,521.25c-8.69,6.41-4.16,20.19,6.64,20.19H573.27c10.8,0,15.33-13.78,6.64-20.19l-260.12-191.76c-15.73-11.59-37.17-11.59-52.9,0Z"/>
        <path class="cls-5" d="M293.33,330.79c7.44,0,14.53,2.33,20.52,6.74l260.12,191.76c.27,.2,.69,.51,.42,1.32-.27,.81-.78,.81-1.12,.81H13.39c-.34,0-.86,0-1.13-.81-.27-.81,.15-1.12,.42-1.32l260.12-191.76c5.99-4.41,13.08-6.74,20.52-6.74m0-10c-9.29,0-18.59,2.9-26.45,8.7L6.76,521.25c-8.69,6.41-4.16,20.19,6.64,20.19H573.27c10.79,0,15.33-13.78,6.64-20.19l-260.12-191.76c-7.86-5.8-17.16-8.7-26.45-8.7h0Z"/>
      </g>
      <g>
        <path class="cls-7" d="M206.57,428.93c7.29-.83,14.57-1.66,21.86-2.49,1.71,6.25,3.43,12.51,5.14,18.76,1.06,3.87,6.45,4.98,8.23,1.7,5.6-10.29,12.33-21.36,20.43-32.79,8.78-12.39,17.65-23.1,26.03-32.22,.98-1.07,.66-2.83-.69-3.78-11.35-7.9-22.7-15.79-34.05-23.69-1.09-.76-2.51-.73-3.36,.09-8.1,7.82-16.94,17.49-25.58,29.24-10.16,13.81-17.62,27.17-23.11,38.87-1.41,3.02,1.57,6.71,5.1,6.31Z"/>
        <path class="cls-7" d="M380.09,428.93c-7.29-.83-14.57-1.66-21.86-2.49-1.71,6.25-3.43,12.51-5.14,18.76-1.06,3.87-6.45,4.98-8.23,1.7-5.6-10.29-12.33-21.36-20.43-32.79-8.78-12.39-17.65-23.1-26.03-32.22-.98-1.07-.66-2.83,.69-3.78,11.35-7.9,22.7-15.79,34.05-23.69,1.09-.76,2.51-.73,3.36,.09,8.1,7.82,16.94,17.49,25.58,29.24,10.16,13.81,17.62,27.17,23.11,38.87,1.41,3.02-1.57,6.71-5.1,6.31Z"/>
      </g>
      <g>
        <path class="cls-8" d="M293.08,411.2c-17.35,0-35.54-.55-50.5-7.18-19.54-8.65-29.9-25.73-29.99-49.4-.01-3.36,.23-6.72,.73-10.03-3.43-3.23-6.23-6.99-8.37-11.2-5.07-9.98-5.74-21.61-1.86-31.91,5.99-15.9,20.67-26.17,37.4-26.17,4.02,0,8.04,.61,11.93,1.81,6.06,1.87,11.36,4.88,15.79,8.96,7.82-2.13,16.07-3.21,24.59-3.21,8.96,0,17.55,1.09,25.58,3.26,4.44-4.11,9.75-7.13,15.84-9.01,3.89-1.2,7.91-1.81,11.93-1.81,16.73,0,31.41,10.27,37.4,26.17,3.88,10.3,3.21,21.93-1.86,31.91-2.13,4.2-4.93,7.95-8.35,11.17,.46,3.19,.7,6.44,.7,9.68,0,22.27-9.16,38.82-26.49,47.84-12.26,6.39-28.55,9.11-54.49,9.11Zm-43.08-70.83c-2.15,4.52-3.22,9.27-3.21,14.14,.06,18.29,8.71,22.49,46.29,22.49,46.78,0,46.78-10.04,46.78-22.76,0-4.84-1.05-9.52-3.11-13.92l-4.97-10.59-11.31-6.2c-7.81-4.28-17.11-6.46-27.66-6.46-9.84,0-19.01,2.22-26.53,6.41l-11.31,6.32-4.97,10.57Zm96.16-30.86c-.61,0-1.24,.1-1.87,.29-1.6,.49-3.81,1.54-4.57,4.97l-1.82,8.29,8.36-1.34c2.37-.72,4.03-2,4.94-3.8,.73-1.44,.86-3.03,.35-4.37-.93-2.45-3.05-4.04-5.4-4.04Zm-97.45,13.39l-1.78-8.12c-.75-3.43-2.96-4.48-4.56-4.97-.63-.2-1.26-.29-1.87-.29-2.36,0-4.48,1.58-5.4,4.04-.51,1.34-.38,2.93,.35,4.37,.9,1.78,2.54,3.05,4.87,3.78l8.39,1.2Z"/>
        <path class="cls-8" d="M378.47,303.4c-5.19-13.76-17.87-22.65-32.31-22.65-3.48,0-6.96,.53-10.33,1.57-6.29,1.94-11.67,5.32-15.85,9.93-8.42-2.62-17.53-3.94-27.17-3.94s-17.93,1.31-26.16,3.9c-4.18-4.59-9.55-7.96-15.82-9.89-3.38-1.04-6.85-1.57-10.33-1.57-14.44,0-27.12,8.89-32.31,22.65-3.35,8.87-2.76,18.91,1.62,27.53,2.28,4.49,5.47,8.41,9.4,11.57-.79,3.97-1.18,8.02-1.17,12.1,.07,21.36,9.32,36.73,26.75,44.44,13.99,6.19,31.53,6.71,48.3,6.71,25,0,40.54-2.54,51.97-8.49,15.63-8.14,23.56-22.62,23.56-43.02,0-3.97-.38-7.91-1.13-11.77,3.91-3.16,7.1-7.07,9.37-11.55,4.37-8.62,4.96-18.66,1.62-27.53Zm-36.8,34.61c2.41,5.13,3.63,10.59,3.63,16.23,0,19.5-7.54,28.2-52.22,28.2-36.41,0-51.65-3.88-51.73-27.91-.02-5.69,1.23-11.23,3.72-16.47l4.48-9.54-10.41-1.49c-5.01-1.43-7.42-4.4-8.56-6.65-1.42-2.8-1.63-5.99-.59-8.75,1.73-4.59,5.85-7.56,10.49-7.56,1.15,0,2.32,.18,3.47,.54,5.59,1.72,7.58,5.85,8.28,9.01l2.24,10.23,9.14-5.11c8.32-4.65,18.41-7.1,29.18-7.1,11.47,0,21.66,2.4,30.28,7.13l9.1,5,2.23-10.14c.69-3.16,2.69-7.28,8.28-9,1.15-.35,2.32-.53,3.47-.53,4.64,0,8.76,2.97,10.49,7.56,1.04,2.76,.83,5.95-.59,8.75-1.14,2.26-3.57,5.24-8.59,6.65l-10.18,1.64,4.38,9.34Z"/>
        <path class="cls-7" d="M363.93,308.89c-3.64-9.67-13.65-14.75-23.52-11.71-7.74,2.38-12.15,8.25-13.58,14.77-9.25-5.07-20.71-8.09-34.02-8.09s-23.88,3.02-32.97,8.09c-1.43-6.52-5.84-12.39-13.58-14.77-9.87-3.04-19.88,2.04-23.52,11.71-3.65,9.68,1.45,22.05,14.46,25.66,.28,.08,.58,.13,.87,.17-2.94,6.19-4.5,12.92-4.48,19.83,.11,33.2,26.71,35.66,59.5,35.66,39.46,0,59.99-5.97,59.99-35.97,0-6.81-1.5-13.44-4.36-19.53,.26-.04,.51-.09,.76-.16,13.01-3.62,18.11-15.99,14.46-25.66Z"/>
        <path class="cls-6" d="M346.16,296.3c7.78,0,14.83,4.81,17.76,12.59,3.65,9.68-1.45,22.05-14.46,25.66-.25,.07-.5,.12-.76,.16,2.86,6.09,4.36,12.72,4.36,19.53,0,30-20.53,35.97-59.99,35.97-32.79,0-59.39-2.46-59.5-35.66-.02-6.91,1.54-13.64,4.48-19.83-.29-.04-.58-.09-.87-.17-13.01-3.62-18.11-15.99-14.46-25.66,2.93-7.78,9.98-12.59,17.76-12.59,1.89,0,3.83,.28,5.76,.88,7.74,2.38,12.16,8.26,13.58,14.77,9.09-5.07,20.23-8.09,32.97-8.09s24.77,3.01,34.02,8.09c1.43-6.51,5.84-12.38,13.58-14.77,1.93-.6,3.87-.88,5.76-.88m0-7.77c-2.7,0-5.41,.41-8.05,1.22-6.65,2.05-11.96,6.15-15.37,11.71-9.04-3.57-19.07-5.38-29.94-5.38-10.25,0-20.09,1.83-28.91,5.35-3.41-5.55-8.71-9.64-15.36-11.69-2.63-.81-5.34-1.22-8.04-1.22-11.17,0-21,6.92-25.04,17.62-2.58,6.84-2.11,14.59,1.28,21.27,2.51,4.95,6.41,8.96,11.31,11.72-1.5,5.01-2.25,10.17-2.24,15.44,.06,18.32,7.51,30.89,22.12,37.36,12.6,5.58,29.21,6.05,45.15,6.05,23.66,0,38.13-2.28,48.38-7.62,13.04-6.79,19.38-18.61,19.38-36.13,0-5.18-.73-10.25-2.17-15.14,4.87-2.76,8.75-6.76,11.25-11.69,3.39-6.68,3.85-14.43,1.27-21.27-4.03-10.7-13.86-17.62-25.04-17.62h0Z"/>
      </g>
      <g>
        <path class="cls-9" d="M355.44,219.11c-.94-.03-1.83-.24-2.65-.61s-1.63-.86-2.42-1.47c-1.01-1.02-1.74-2.15-2.19-3.39s-.77-2.56-.95-3.96c.19-1.42,.53-2.81,1.01-4.16,.48-1.35,1.34-2.58,2.59-3.69,1.32-1.4,2.86-2.44,4.6-3.11,1.75-.67,3.65-1.03,5.72-1.07l3.43,.63c.18-4.53,.21-9.06,.06-13.58-.14-4.53,.02-9.02,.49-13.47,.36-.3,.74-.54,1.15-.71,.41-.17,.86-.22,1.33-.16,2.35,1.55,4.73,3.04,7.13,4.49,2.4,1.45,4.76,3.11,7.09,4.99,1.01,1.07,1.79,2.26,2.34,3.59,.55,1.33,.83,2.79,.84,4.39-.2,1.33-.54,2.6-1.03,3.8s-1.34,2.32-2.54,3.33c-.26,.3-.58,.53-.95,.69-.37,.16-.79,.21-1.26,.15-.29-.08-.58-.25-.88-.51-.3-.26-.51-.53-.62-.81l-.07-1.12c.42-.78,.99-1.52,1.69-2.22,.71-.7,.98-1.52,.83-2.45-.12-.37-.19-.74-.21-1.11s-.23-.64-.61-.81c-1.28-.95-2.64-1.62-4.08-2-1.44-.38-3.14-.86-5.1-1.44-.37,5.34-.35,10.53,.07,15.59,.41,5.05-.27,9.9-2.05,14.52l-1.18,1.49-.28,.02,.02,.28c-1.24,1.25-2.62,2.12-4.14,2.59-1.52,.47-3.12,.86-4.8,1.15l-.57-.1-1.82,.25Z"/>
        <g>
          <path class="cls-10" d="M234.48,213.65c.14-5.41,.21-15.48,.21-24.64,0-6.11,0-11.87-.14-15.54,0-1.39-.21-1.39-4.3-1.39-2.64,0-5.9,.14-9.16,.14-2.64,0-3.96-1.87-3.96-3.75s1.25-3.68,3.82-3.68h.14c4.16,.07,11.52,.14,18.74,.14,5.9,0,11.8-.07,15.75-.14,2.71-.07,3.61,2.22,3.61,3.75,0,1.87-1.11,3.68-3.33,3.68h-.28c-2.36-.14-4.37-.14-6.04-.14q-6.87,0-6.87,1.39c-.14,4.72-.21,11.45-.21,18.25,0,8.33,.14,16.79,.35,21.93,.14,2.43-2.01,3.61-4.16,3.61s-4.16-1.18-4.16-3.54v-.07Z"/>
          <path class="cls-10" d="M287.01,215.94c-.62-.49-1.25-1.25-1.87-2.29-.07-.14-.21-.21-.28-.21-.14,0-.28,.07-.42,.21-2.36,2.71-6.73,4.16-10.83,4.16-7.63,0-12.14-5.55-12.14-10.9,0-3.54,2.08-7.08,6.73-8.67,4.79-1.67,10.76-2.98,11.87-3.05,.69-.07,1.25-.9,1.25-2.36,0-.83-.21-4.37-4.93-4.37-3.12,0-5.48,1.46-6.8,2.91-.76,.9-1.73,1.25-2.57,1.25-1.8,0-3.33-1.39-3.33-3.19,0-3.33,6.11-7.01,13.12-7.01,7.63,0,11.8,3.75,11.8,11.73,0,.9-.07,1.73-.14,2.71-.14,1.04-.35,3.68-.35,5.76,0,.62,0,1.18,.07,1.6,.62,5.55,3.19,5.76,3.75,6.18,.76,.56,1.11,1.46,1.11,2.43,0,1.94-1.53,4.16-3.54,4.16-.76,0-1.67-.35-2.5-1.04Zm-6.38-14.92c-11.73,1.46-12.42,4.37-12.42,6.04,0,2.15,1.87,4.3,5.41,4.3,5.62,0,8.05-2.84,8.05-7.77,0-1.04-.14-2.57-.97-2.57h-.07Z"/>
          <path class="cls-10" d="M309.98,186.38c.07,0,.14,0,.21-.07,2.57-2.22,5.83-3.61,9.65-3.61,9.58,0,16.79,6.94,16.79,17.42s-7.22,17.42-16.79,17.42c-3.82,0-7.08-1.46-9.65-3.68-.14-.07-.28-.21-.35-.21-.14,0-.21,.14-.21,.42,0,7.63,.14,14.23,.21,17.07,.07,2.15-1.39,3.61-3.54,3.61-1.87,0-3.68-1.25-3.68-3.61v-.35c.21-2.5,.21-7.7,.21-13.81,0-10.48-.14-23.53-.14-30.12,0-2.57,1.8-3.89,3.61-3.89,1.6,0,3.19,1.11,3.47,3.19,.07,.14,.14,.21,.21,.21Zm19.71,13.74c0-6.8-4.44-10.96-9.99-10.96s-9.99,4.16-9.99,10.96,4.44,11.1,9.99,11.1,9.99-4.23,9.99-11.1Z"/>
        </g>
      </g>
    </g>
  </g>
</svg>